<svg width="15" height="8" viewBox="0 0 15 8" version="1.1" xmlns="http://www.w3.org/2000/svg" xmlns:xlink="http://www.w3.org/1999/xlink">
<title>Page 1 Copy 2</title>
<desc>Created using Figma</desc>
<g id="Canvas" transform="translate(-29079 23465)">
<g id="Page 1 Copy 2">
<mask id="mask0_outline" mask-type="alpha">
<g id="Clip 2">
<use xlink:href="#path0_fill" transform="translate(29079.8 -23465)" fill="#FFFFFF"/>
</g>
</mask>
<g id="Fill 1" mask="url(#mask0_outline)">
<use xlink:href="#path1_fill" transform="translate(29079.8 -23465)" fill="#FFFFFF"/>
</g>
</g>
</g>
<defs>
<path id="path0_fill" fill-rule="evenodd" d="M 0 8L 0 0L 13.619 0L 13.619 8L 0 8Z"/>
<path id="path1_fill" fill-rule="evenodd" d="M 13.3065 0.541895C 13.4008 0.229287 13.3065 0 12.8561 0L 11.3664 0C 10.9869 0 10.8121 0.19859 10.7178 0.416601C 10.7178 0.416601 9.96021 2.24338 8.8866 3.42991C 8.53949 3.77322 8.38178 3.88285 8.19239 3.88285C 8.09738 3.88285 7.96057 3.77322 7.96057 3.46124L 7.96057 0.541895C 7.96057 0.167267 7.85035 0 7.53492 0L 5.19324 0C 4.95698 0 4.81447 0.174158 4.81447 0.338919C 4.81447 0.694127 5.35096 0.776194 5.40606 1.77541L 5.40606 3.9455C 5.40606 4.42099 5.31929 4.50744 5.1299 4.50744C 4.62508 4.50744 3.39629 2.67251 2.66788 0.573218C 2.52473 0.164761 2.38158 0 2.00091 0L 0.511153 0C 0.0848755 0 0 0.19859 0 0.416601C 0 0.806891 0.505453 2.7433 2.35181 5.30368C 3.58314 7.05215 5.31802 8 6.89645 8C 7.84339 8 7.96057 7.78888 7.96057 7.42678L 7.96057 6.10493C 7.96057 5.68395 8.05051 5.6 8.35011 5.6C 8.57116 5.6 8.94994 5.70963 9.83416 6.55223C 10.8438 7.55145 11.0104 8 11.5785 8L 13.0689 8C 13.4946 8 13.7074 7.78888 13.5845 7.37353C 13.4502 6.96006 12.9676 6.35928 12.3279 5.64699C 11.9808 5.24103 11.4595 4.80376 11.3017 4.58512C 11.0807 4.30446 11.144 4.17917 11.3017 3.92984C 11.3017 3.92984 13.1171 1.40078 13.3065 0.541895"/>
</defs>
</svg>
