<?xml version="1.0" encoding="UTF-8"?>
<svg width="392px" height="379px" viewBox="0 0 392 379" version="1.1" xmlns="http://www.w3.org/2000/svg" xmlns:xlink="http://www.w3.org/1999/xlink">
    <!-- Generator: Sketch 47.1 (45422) - http://www.bohemiancoding.com/sketch -->
    <title>Group 11</title>
    <desc>Created with Sketch.</desc>
    <defs>
        <linearGradient x1="71.0058529%" y1="31.7823098%" x2="25.7532379%" y2="71.7780913%" id="linearGradient-1">
            <stop stop-color="#ECFF5C" offset="0%"></stop>
            <stop stop-color="#FF4A68" offset="100%"></stop>
        </linearGradient>
    </defs>
    <g id="Page-1" stroke="none" stroke-width="1" fill="none" fill-rule="evenodd">
        <g id="7_Boldyrev_desktop" transform="translate(-217.000000, -1384.000000)">
            <g id="Group-11" transform="translate(217.000000, 1384.000000)">
                <path d="M247.211346,99.3771319 C247.211346,71.1278879 223.927711,47.9239253 195.583864,47.9239253 C167.239185,47.9239253 143.956382,71.1278879 143.956382,99.3771319 C143.956382,127.626376 167.239185,150.830338 195.583864,150.830338 C223.927711,150.830338 247.211346,127.626376 247.211346,99.3771319 L247.211346,99.3771319 Z M277.074089,39.8516418 C304.912747,76.6771143 304.912747,127.626376 277.074089,163.94707 L195.583864,269.881319 L114.092807,163.94707 C86.2541486,127.122431 86.2541486,76.1723363 114.092807,39.8516418 C133.832628,14.6294 163.190183,0 195.583864,0 C227.977546,0 257.334268,14.124622 277.074089,39.8516418 L277.074089,39.8516418 Z M299.557079,238.228571 L392,379 L0,379 L92.4437537,238.228571 L152.05189,238.228571 L196,296.045646 L239.947278,238.228571 L299.557079,238.228571 Z" id="geolocation" fill="url(#linearGradient-1)"></path>
                <text id="Омск" font-family="TTNorms-ExtraBold, TT Norms" font-size="32" font-weight="600" line-spacing="80" letter-spacing="7.27272558" fill="#FFFFFF">
                    <tspan x="139.071736" y="326">Омск</tspan>
                </text>
            </g>
        </g>
    </g>
</svg>