<?xml version="1.0" encoding="UTF-8"?>
<svg width="519px" height="259px" viewBox="0 0 519 259" version="1.1" xmlns="http://www.w3.org/2000/svg" xmlns:xlink="http://www.w3.org/1999/xlink">
    <!-- Generator: Sketch 47.1 (45422) - http://www.bohemiancoding.com/sketch -->
    <title>4_crown_pattern</title>
    <desc>Created with Sketch.</desc>
    <defs></defs>
    <g id="Page-1" stroke="none" stroke-width="1" fill="none" fill-rule="evenodd">
        <g id="4_Boldyrev_desktop" transform="translate(-820.000000, -160.000000)" fill-rule="nonzero" fill="#FF4A68">
            <g id="crown_group" transform="translate(803.000000, 107.000000)">
                <g id="crown" transform="translate(54.257042, 86.975953) rotate(-30.000000) translate(-54.257042, -86.975953) translate(13.257042, 49.475953)">
                    <path d="M43.5164837,20.279629 L43.5164837,13.3636696 L52.2677545,13.3636696 L52.2677545,8.70019721 L43.5164837,8.70019721 L43.5164837,0 L38.8251466,0 L38.8251466,8.70019721 L30.0729646,8.70019721 L30.0729646,13.3636696 L38.8251466,13.3636696 L38.8251466,20.2895917 C10.0229421,9.35592725 -7.54611101,33.7284347 3.17408186,50.8824775 C5.7844297,55.0595866 7.4745502,58.7186327 8.56697849,62 L73.3819607,62 C74.5044558,58.7186327 76.2137098,55.2189906 78.8240576,51.0418815 C89.5415171,33.893273 71.9761085,9.37947557 43.5164837,20.279629 Z" id="Shape"></path>
                    <path d="M72.4060788,68 C72.4832704,66.000276 72.6721628,65 73,65 L9,65 C9.30604194,65 9.47223089,66.000276 9.52671907,68 L72.4060788,68 Z" id="Shape"></path>
                    <path d="M8.89731038,70 C8.55911437,73.9998344 8,75 8,75 L40.8541058,75 L73,75 C73,75 72.4799782,73.9998344 72.1945117,70 L8.89731038,70 Z" id="Shape"></path>
                </g>
                <g id="crown" transform="translate(189.627876, 146.529800) rotate(-30.000000) translate(-189.627876, -146.529800) translate(155.127876, 115.029800)">
                    <path d="M36.3355028,16.9331355 L36.3355028,11.1584303 L43.6426609,11.1584303 L43.6426609,7.2645125 L36.3355028,7.2645125 L36.3355028,0 L32.4183183,0 L32.4183183,7.2645125 L25.1103995,7.2645125 L25.1103995,11.1584303 L32.4183183,11.1584303 L32.4183183,16.9414542 C8.36898137,7.81203562 -6.30087071,28.1626531 2.65030284,42.4859788 C4.82989762,45.9737918 6.24111868,49.0290313 7.1532772,51.7689156 L61.2726537,51.7689156 C62.2099175,49.0290313 63.6371146,46.1068913 65.8167094,42.6190783 C74.7656007,28.3002901 60.0987917,7.83169805 36.3355028,16.9331355 Z" id="Shape"></path>
                    <path d="M60.4578094,56.7788106 C60.522263,55.1090761 60.6799849,54.2738631 60.9537232,54.2738631 L7.51484259,54.2738631 C7.77038226,54.2738631 7.90914712,55.1090761 7.9546438,56.7788106 L60.4578094,56.7788106 Z" id="Shape"></path>
                    <path d="M7.42909855,58.4487757 C7.14671079,61.7885674 6.67986008,62.6236882 6.67986008,62.6236882 L34.1124638,62.6236882 L60.9537232,62.6236882 C60.9537232,62.6236882 60.5195141,61.7885674 60.2811545,58.4487757 L7.42909855,58.4487757 Z" id="Shape"></path>
                </g>
                <g id="crown" transform="translate(353.931724, 79.199673) rotate(-30.000000) translate(-353.931724, -79.199673) translate(325.431724, 52.699673)">
                    <path d="M30.2186351,14.0825419 L30.2186351,9.27997438 L36.2956762,9.27997438 L36.2956762,6.04157464 L30.2186351,6.04157464 L30.2186351,0 L26.9608855,0 L26.9608855,6.04157464 L20.8832117,6.04157464 L20.8832117,9.27997438 L26.9608855,9.27997438 L26.9608855,14.0894602 C6.96011269,6.49692547 -5.24015627,23.4216364 2.20413998,35.3337147 C4.01681283,38.2343749 5.19046314,40.7752829 5.94906515,43.0539238 L50.9577636,43.0539238 C51.7372446,40.7752829 52.9241815,38.345068 54.7368544,35.4444077 C62.1792525,23.5361031 49.9815144,6.51327785 30.2186351,14.0825419 Z" id="Shape"></path>
                    <path d="M50.2800936,47.2204326 C50.3336968,45.831788 50.4648671,45.1371782 50.6925232,45.1371782 L6.24976313,45.1371782 C6.46228421,45.1371782 6.57768883,45.831788 6.61552641,47.2204326 L50.2800936,47.2204326 Z" id="Shape"></path>
                    <path d="M6.1784536,48.6092688 C5.94360416,51.3868263 5.55534501,52.0813595 5.55534501,52.0813595 L28.3698316,52.0813595 L50.6925232,52.0813595 C50.6925232,52.0813595 50.3314106,51.3868263 50.1331775,48.6092688 L6.1784536,48.6092688 Z" id="Shape"></path>
                </g>
                <g id="crown" transform="translate(341.931724, 204.199673) rotate(-30.000000) translate(-341.931724, -204.199673) translate(313.431724, 177.699673)">
                    <path d="M30.2186351,14.0825419 L30.2186351,9.27997438 L36.2956762,9.27997438 L36.2956762,6.04157464 L30.2186351,6.04157464 L30.2186351,0 L26.9608855,0 L26.9608855,6.04157464 L20.8832117,6.04157464 L20.8832117,9.27997438 L26.9608855,9.27997438 L26.9608855,14.0894602 C6.96011269,6.49692547 -5.24015627,23.4216364 2.20413998,35.3337147 C4.01681283,38.2343749 5.19046314,40.7752829 5.94906515,43.0539238 L50.9577636,43.0539238 C51.7372446,40.7752829 52.9241815,38.345068 54.7368544,35.4444077 C62.1792525,23.5361031 49.9815144,6.51327785 30.2186351,14.0825419 Z" id="Shape"></path>
                    <path d="M50.2800936,47.2204326 C50.3336968,45.831788 50.4648671,45.1371782 50.6925232,45.1371782 L6.24976313,45.1371782 C6.46228421,45.1371782 6.57768883,45.831788 6.61552641,47.2204326 L50.2800936,47.2204326 Z" id="Shape"></path>
                    <path d="M6.1784536,48.6092688 C5.94360416,51.3868263 5.55534501,52.0813595 5.55534501,52.0813595 L28.3698316,52.0813595 L50.6925232,52.0813595 C50.6925232,52.0813595 50.3314106,51.3868263 50.1331775,48.6092688 L6.1784536,48.6092688 Z" id="Shape"></path>
                </g>
                <g id="crwon" transform="translate(479.931724, 204.199673) rotate(-30.000000) translate(-479.931724, -204.199673) translate(451.431724, 177.699673)">
                    <path d="M30.2186351,14.0825419 L30.2186351,9.27997438 L36.2956762,9.27997438 L36.2956762,6.04157464 L30.2186351,6.04157464 L30.2186351,0 L26.9608855,0 L26.9608855,6.04157464 L20.8832117,6.04157464 L20.8832117,9.27997438 L26.9608855,9.27997438 L26.9608855,14.0894602 C6.96011269,6.49692547 -5.24015627,23.4216364 2.20413998,35.3337147 C4.01681283,38.2343749 5.19046314,40.7752829 5.94906515,43.0539238 L50.9577636,43.0539238 C51.7372446,40.7752829 52.9241815,38.345068 54.7368544,35.4444077 C62.1792525,23.5361031 49.9815144,6.51327785 30.2186351,14.0825419 Z" id="Shape"></path>
                    <path d="M50.2800936,47.2204326 C50.3336968,45.831788 50.4648671,45.1371782 50.6925232,45.1371782 L6.24976313,45.1371782 C6.46228421,45.1371782 6.57768883,45.831788 6.61552641,47.2204326 L50.2800936,47.2204326 Z" id="Shape"></path>
                    <path d="M6.1784536,48.6092688 C5.94360416,51.3868263 5.55534501,52.0813595 5.55534501,52.0813595 L28.3698316,52.0813595 L50.6925232,52.0813595 C50.6925232,52.0813595 50.3314106,51.3868263 50.1331775,48.6092688 L6.1784536,48.6092688 Z" id="Shape"></path>
                </g>
                <g id="crown" transform="translate(513.570508, 87.021470) rotate(-30.000000) translate(-513.570508, -87.021470) translate(493.570508, 68.521470)">
                    <path d="M21.1737792,9.86744217 L21.1737792,6.50234957 L25.4318778,6.50234957 L25.4318778,4.23324771 L21.1737792,4.23324771 L21.1737792,0 L18.8911192,0 L18.8911192,4.23324771 L14.6325773,4.23324771 L14.6325773,6.50234957 L18.8911192,6.50234957 L18.8911192,9.87228974 C4.8768546,4.55230573 -3.67170495,16.4112164 1.54441037,24.7578447 C2.81452514,26.7902972 3.63688566,28.5706762 4.16842759,30.1672884 L35.7053995,30.1672884 C36.251571,28.5706762 37.0832413,26.8678583 38.3533561,24.8354058 C43.5681414,16.4914216 35.0213551,4.56376362 21.1737792,9.86744217 Z" id="Shape"></path>
                    <path d="M35.2305655,33.0867034 C35.2681245,32.1136993 35.3600337,31.6269959 35.5195492,31.6269959 L4.3791225,31.6269959 C4.52803308,31.6269959 4.6088955,32.1136993 4.63540777,33.0867034 L35.2305655,33.0867034 Z" id="Shape"></path>
                    <path d="M4.3291569,34.0598417 C4.16460115,36.0060378 3.89255334,36.4926875 3.89255334,36.4926875 L19.8783482,36.4926875 L35.5195492,36.4926875 C35.5195492,36.4926875 35.2665226,36.0060378 35.1276234,34.0598417 L4.3291569,34.0598417 Z" id="Shape"></path>
                </g>
                <g id="crown" transform="translate(102.570508, 288.021470) rotate(-30.000000) translate(-102.570508, -288.021470) translate(82.570508, 269.521470)">
                    <path d="M21.1737792,9.86744217 L21.1737792,6.50234957 L25.4318778,6.50234957 L25.4318778,4.23324771 L21.1737792,4.23324771 L21.1737792,0 L18.8911192,0 L18.8911192,4.23324771 L14.6325773,4.23324771 L14.6325773,6.50234957 L18.8911192,6.50234957 L18.8911192,9.87228974 C4.8768546,4.55230573 -3.67170495,16.4112164 1.54441037,24.7578447 C2.81452514,26.7902972 3.63688566,28.5706762 4.16842759,30.1672884 L35.7053995,30.1672884 C36.251571,28.5706762 37.0832413,26.8678583 38.3533561,24.8354058 C43.5681414,16.4914216 35.0213551,4.56376362 21.1737792,9.86744217 Z" id="Shape"></path>
                    <path d="M35.2305655,33.0867034 C35.2681245,32.1136993 35.3600337,31.6269959 35.5195492,31.6269959 L4.3791225,31.6269959 C4.52803308,31.6269959 4.6088955,32.1136993 4.63540777,33.0867034 L35.2305655,33.0867034 Z" id="Shape"></path>
                    <path d="M4.3291569,34.0598417 C4.16460115,36.0060378 3.89255334,36.4926875 3.89255334,36.4926875 L19.8783482,36.4926875 L35.5195492,36.4926875 C35.5195492,36.4926875 35.2665226,36.0060378 35.1276234,34.0598417 L4.3291569,34.0598417 Z" id="Shape"></path>
                </g>
            </g>
        </g>
    </g>
</svg>