<?xml version="1.0" encoding="UTF-8"?>
<svg width="690px" height="364px" viewBox="0 0 690 364" version="1.1" xmlns="http://www.w3.org/2000/svg" xmlns:xlink="http://www.w3.org/1999/xlink">
    <!-- Generator: Sketch 47.1 (45422) - http://www.bohemiancoding.com/sketch -->
    <title>4_rouble_pattern</title>
    <desc>Created with Sketch.</desc>
    <defs></defs>
    <g id="Page-1" stroke="none" stroke-width="1" fill="none" fill-rule="evenodd">
        <g id="4_Boldyrev_desktop" transform="translate(-44.000000, -877.000000)" fill-rule="nonzero" fill="#FF4A68">
            <g id="rubles_group" transform="translate(41.000000, 872.000000)">
                <path d="M617.640625,63.148289 C632.1875,63.148289 644,51.2395437 644,36.5741445 C644,21.9087452 632.1875,10 617.640625,10 L590.84375,10 L590.84375,16.1749049 L590.84375,21.026616 L590.84375,52.121673 L581,52.121673 L581,63.148289 L590.84375,63.148289 L590.84375,72.3003802 L581,72.3003802 L581,83.3269962 L590.84375,83.3269962 L590.84375,97 L601.78125,97 L601.78125,83.3269962 L626.609375,83.3269962 L626.609375,72.3003802 L601.78125,72.3003802 L601.78125,63.148289 L617.640625,63.148289 Z M601.78125,21.026616 L612.390625,21.026616 C626.171875,21.026616 633.0625,27.973384 633.0625,36.5741445 C633.0625,45.1749049 626.171875,52.121673 617.640625,52.121673 L601.78125,52.121673 L601.78125,21.026616 Z" id="Shape" transform="translate(612.500000, 53.500000) rotate(-330.000000) translate(-612.500000, -53.500000) "></path>
                <path d="M424.008681,139.821293 C433.9375,139.821293 442,132.019011 442,122.410646 C442,112.802281 433.9375,105 424.008681,105 L405.71875,105 L405.71875,109.045627 L405.71875,112.224335 L405.71875,132.596958 L399,132.596958 L399,139.821293 L405.71875,139.821293 L405.71875,145.81749 L399,145.81749 L399,153.041825 L405.71875,153.041825 L405.71875,162 L413.184028,162 L413.184028,153.041825 L430.130208,153.041825 L430.130208,145.81749 L413.184028,145.81749 L413.184028,139.821293 L424.008681,139.821293 Z M413.184028,112.224335 L420.425347,112.224335 C429.831597,112.224335 434.534722,116.775665 434.534722,122.410646 C434.534722,128.045627 429.831597,132.596958 424.008681,132.596958 L413.184028,132.596958 L413.184028,112.224335 Z" id="Shape-Copy-2" transform="translate(420.500000, 133.500000) rotate(-330.000000) translate(-420.500000, -133.500000) "></path>
                <path d="M658.640625,276.148289 C673.1875,276.148289 685,264.239544 685,249.574144 C685,234.908745 673.1875,223 658.640625,223 L631.84375,223 L631.84375,229.174905 L631.84375,234.026616 L631.84375,265.121673 L622,265.121673 L622,276.148289 L631.84375,276.148289 L631.84375,285.30038 L622,285.30038 L622,296.326996 L631.84375,296.326996 L631.84375,310 L642.78125,310 L642.78125,296.326996 L667.609375,296.326996 L667.609375,285.30038 L642.78125,285.30038 L642.78125,276.148289 L658.640625,276.148289 Z M642.78125,234.026616 L653.390625,234.026616 C667.171875,234.026616 674.0625,240.973384 674.0625,249.574144 C674.0625,258.174905 667.171875,265.121673 658.640625,265.121673 L642.78125,265.121673 L642.78125,234.026616 Z" id="Shape-Copy" transform="translate(653.500000, 266.500000) rotate(-330.000000) translate(-653.500000, -266.500000) "></path>
                <path d="M462.171875,351.875792 C472.5625,351.875792 481,343.3891 481,332.937896 C481,322.486692 472.5625,314 462.171875,314 L443.03125,314 L443.03125,318.400507 L443.03125,321.858048 L443.03125,344.017744 L436,344.017744 L436,351.875792 L443.03125,351.875792 L443.03125,358.397972 L436,358.397972 L436,366.25602 L443.03125,366.25602 L443.03125,376 L450.84375,376 L450.84375,366.25602 L468.578125,366.25602 L468.578125,358.397972 L450.84375,358.397972 L450.84375,351.875792 L462.171875,351.875792 Z M450.84375,321.858048 L458.421875,321.858048 C468.265625,321.858048 473.1875,326.808619 473.1875,332.937896 C473.1875,339.067174 468.265625,344.017744 462.171875,344.017744 L450.84375,344.017744 L450.84375,321.858048 Z" id="Shape-Copy-3" transform="translate(458.500000, 345.000000) rotate(-330.000000) translate(-458.500000, -345.000000) "></path>
                <path d="M184.171875,98.8757921 C194.5625,98.8757921 203,90.3891001 203,79.9378961 C203,69.486692 194.5625,61 184.171875,61 L165.03125,61 L165.03125,65.400507 L165.03125,68.8580482 L165.03125,91.017744 L158,91.017744 L158,98.8757921 L165.03125,98.8757921 L165.03125,105.397972 L158,105.397972 L158,113.25602 L165.03125,113.25602 L165.03125,123 L172.84375,123 L172.84375,113.25602 L190.578125,113.25602 L190.578125,105.397972 L172.84375,105.397972 L172.84375,98.8757921 L184.171875,98.8757921 Z M172.84375,68.8580482 L180.421875,68.8580482 C190.265625,68.8580482 195.1875,73.8086185 195.1875,79.9378961 C195.1875,86.0671736 190.265625,91.017744 184.171875,91.017744 L172.84375,91.017744 L172.84375,68.8580482 Z" id="Shape-Copy-5" transform="translate(180.500000, 92.000000) rotate(-330.000000) translate(-180.500000, -92.000000) "></path>
                <path d="M122.774306,217.101394 C130.625,217.101394 137,210.804816 137,203.050697 C137,195.296578 130.625,189 122.774306,189 L108.3125,189 L108.3125,192.264892 L108.3125,194.830165 L108.3125,211.271229 L103,211.271229 L103,217.101394 L108.3125,217.101394 L108.3125,221.940431 L103,221.940431 L103,227.770596 L108.3125,227.770596 L108.3125,235 L114.215278,235 L114.215278,227.770596 L127.614583,227.770596 L127.614583,221.940431 L114.215278,221.940431 L114.215278,217.101394 L122.774306,217.101394 Z M114.215278,194.830165 L119.940972,194.830165 C127.378472,194.830165 131.097222,198.503169 131.097222,203.050697 C131.097222,207.598226 127.378472,211.271229 122.774306,211.271229 L114.215278,211.271229 L114.215278,194.830165 Z" id="Shape-Copy-6" transform="translate(120.000000, 212.000000) rotate(-330.000000) translate(-120.000000, -212.000000) "></path>
                <path d="M279.774306,161.101394 C287.625,161.101394 294,154.804816 294,147.050697 C294,139.296578 287.625,133 279.774306,133 L265.3125,133 L265.3125,136.264892 L265.3125,138.830165 L265.3125,155.271229 L260,155.271229 L260,161.101394 L265.3125,161.101394 L265.3125,165.940431 L260,165.940431 L260,171.770596 L265.3125,171.770596 L265.3125,179 L271.215278,179 L271.215278,171.770596 L284.614583,171.770596 L284.614583,165.940431 L271.215278,165.940431 L271.215278,161.101394 L279.774306,161.101394 Z M271.215278,138.830165 L276.940972,138.830165 C284.378472,138.830165 288.097222,142.503169 288.097222,147.050697 C288.097222,151.598226 284.378472,155.271229 279.774306,155.271229 L271.215278,155.271229 L271.215278,138.830165 Z" id="Shape-Copy-7" transform="translate(277.000000, 156.000000) rotate(-330.000000) translate(-277.000000, -156.000000) "></path>
                <path d="M155.774306,334.101394 C163.625,334.101394 170,327.804816 170,320.050697 C170,312.296578 163.625,306 155.774306,306 L141.3125,306 L141.3125,309.264892 L141.3125,311.830165 L141.3125,328.271229 L136,328.271229 L136,334.101394 L141.3125,334.101394 L141.3125,338.940431 L136,338.940431 L136,344.770596 L141.3125,344.770596 L141.3125,352 L147.215278,352 L147.215278,344.770596 L160.614583,344.770596 L160.614583,338.940431 L147.215278,338.940431 L147.215278,334.101394 L155.774306,334.101394 Z M147.215278,311.830165 L152.940972,311.830165 C160.378472,311.830165 164.097222,315.503169 164.097222,320.050697 C164.097222,324.598226 160.378472,328.271229 155.774306,328.271229 L147.215278,328.271229 L147.215278,311.830165 Z" id="Shape-Copy-8" transform="translate(153.000000, 329.000000) rotate(-330.000000) translate(-153.000000, -329.000000) "></path>
                <path d="M24.2847222,290.214195 C30.75,290.214195 36,285.012674 36,278.607098 C36,272.201521 30.75,267 24.2847222,267 L12.375,267 L12.375,269.697085 L12.375,271.816223 L12.375,285.397972 L8,285.397972 L8,290.214195 L12.375,290.214195 L12.375,294.21166 L8,294.21166 L8,299.027883 L12.375,299.027883 L12.375,305 L17.2361111,305 L17.2361111,299.027883 L28.2708333,299.027883 L28.2708333,294.21166 L17.2361111,294.21166 L17.2361111,290.214195 L24.2847222,290.214195 Z M17.2361111,271.816223 L21.9513889,271.816223 C28.0763889,271.816223 31.1388889,274.850444 31.1388889,278.607098 C31.1388889,282.363752 28.0763889,285.397972 24.2847222,285.397972 L17.2361111,285.397972 L17.2361111,271.816223 Z" id="Shape-Copy-9" transform="translate(22.000000, 286.000000) rotate(-330.000000) translate(-22.000000, -286.000000) "></path>
                <path d="M45.2847222,149.214195 C51.75,149.214195 57,144.012674 57,137.607098 C57,131.201521 51.75,126 45.2847222,126 L33.375,126 L33.375,128.697085 L33.375,130.816223 L33.375,144.397972 L29,144.397972 L29,149.214195 L33.375,149.214195 L33.375,153.21166 L29,153.21166 L29,158.027883 L33.375,158.027883 L33.375,164 L38.2361111,164 L38.2361111,158.027883 L49.2708333,158.027883 L49.2708333,153.21166 L38.2361111,153.21166 L38.2361111,149.214195 L45.2847222,149.214195 Z M38.2361111,130.816223 L42.9513889,130.816223 C49.0763889,130.816223 52.1388889,133.850444 52.1388889,137.607098 C52.1388889,141.363752 49.0763889,144.397972 45.2847222,144.397972 L38.2361111,144.397972 L38.2361111,130.816223 Z" id="Shape-Copy-10" transform="translate(43.000000, 145.000000) rotate(-330.000000) translate(-43.000000, -145.000000) "></path>
                <path d="M526.284722,218.214195 C532.75,218.214195 538,213.012674 538,206.607098 C538,200.201521 532.75,195 526.284722,195 L514.375,195 L514.375,197.697085 L514.375,199.816223 L514.375,213.397972 L510,213.397972 L510,218.214195 L514.375,218.214195 L514.375,222.21166 L510,222.21166 L510,227.027883 L514.375,227.027883 L514.375,233 L519.236111,233 L519.236111,227.027883 L530.270833,227.027883 L530.270833,222.21166 L519.236111,222.21166 L519.236111,218.214195 L526.284722,218.214195 Z M519.236111,199.816223 L523.951389,199.816223 C530.076389,199.816223 533.138889,202.850444 533.138889,206.607098 C533.138889,210.363752 530.076389,213.397972 526.284722,213.397972 L519.236111,213.397972 L519.236111,199.816223 Z" id="Shape-Copy-11" transform="translate(524.000000, 214.000000) rotate(-330.000000) translate(-524.000000, -214.000000) "></path>
                <path d="M295.171875,271.875792 C305.5625,271.875792 314,263.3891 314,252.937896 C314,242.486692 305.5625,234 295.171875,234 L276.03125,234 L276.03125,238.400507 L276.03125,241.858048 L276.03125,264.017744 L269,264.017744 L269,271.875792 L276.03125,271.875792 L276.03125,278.397972 L269,278.397972 L269,286.25602 L276.03125,286.25602 L276.03125,296 L283.84375,296 L283.84375,286.25602 L301.578125,286.25602 L301.578125,278.397972 L283.84375,278.397972 L283.84375,271.875792 L295.171875,271.875792 Z M283.84375,241.858048 L291.421875,241.858048 C301.265625,241.858048 306.1875,246.808619 306.1875,252.937896 C306.1875,259.067174 301.265625,264.017744 295.171875,264.017744 L283.84375,264.017744 L283.84375,241.858048 Z" id="Shape-Copy-4" transform="translate(291.500000, 265.000000) rotate(-330.000000) translate(-291.500000, -265.000000) "></path>
            </g>
        </g>
    </g>
</svg>