<svg xmlns="http://www.w3.org/2000/svg" viewBox="0 0 30 96"><defs><style>.cls-1{fill:#38019d;}.cls-2{fill:#ff4c6b;}</style></defs><title>center-1931</title><g id="Слой_2" data-name="Слой 2"><g id="Слой_1-2" data-name="Слой 1"><g id="center-1931"><rect class="cls-1" x="12" width="6" height="6"/><rect class="cls-1" x="6" y="6" width="6" height="6"/><rect class="cls-1" x="18" y="6" width="6" height="6"/><rect class="cls-1" x="12" y="12" width="6" height="6"/><rect class="cls-1" x="6" y="12" width="6" height="6"/><rect class="cls-1" x="18" y="12" width="6" height="6"/><rect class="cls-1" x="6" y="18" width="6" height="6"/><rect class="cls-1" x="18" y="18" width="6" height="6"/><rect class="cls-1" x="6" y="36" width="6" height="6"/><rect class="cls-1" x="18" y="36" width="6" height="6"/><rect class="cls-1" x="12" y="24" width="6" height="6"/><rect class="cls-1" x="6" y="24" width="6" height="6"/><rect class="cls-1" x="18" y="24" width="6" height="6"/><rect class="cls-1" x="12" y="30" width="6" height="6"/><rect class="cls-1" x="6" y="30" width="6" height="6"/><rect class="cls-1" y="30" width="6" height="6"/><rect class="cls-1" x="18" y="30" width="6" height="6"/><rect class="cls-1" x="24" y="30" width="6" height="6"/><rect class="cls-1" x="6" y="48" width="6" height="6"/><rect class="cls-1" x="18" y="48" width="6" height="6"/><rect class="cls-1" x="12" y="42" width="6" height="6"/><rect class="cls-1" x="6" y="42" width="6" height="6"/><rect class="cls-1" y="42" width="6" height="6"/><rect class="cls-1" x="18" y="42" width="6" height="6"/><rect class="cls-1" x="24" y="42" width="6" height="6"/><rect class="cls-2" x="6" y="60" width="6" height="6"/><rect class="cls-2" x="18" y="60" width="6" height="6"/><rect class="cls-1" x="12" y="54" width="6" height="6"/><rect class="cls-1" x="6" y="54" width="6" height="6"/><rect class="cls-1" y="54" width="6" height="6"/><rect class="cls-1" x="18" y="54" width="6" height="6"/><rect class="cls-1" x="24" y="54" width="6" height="6"/><rect class="cls-2" x="6" y="72" width="6" height="6"/><rect class="cls-2" x="18" y="72" width="6" height="6"/><rect class="cls-2" x="6" y="78" width="6" height="6"/><rect class="cls-2" x="18" y="78" width="6" height="6"/><rect class="cls-2" x="12" y="66" width="6" height="6"/><rect class="cls-2" x="6" y="66" width="6" height="6"/><rect class="cls-2" x="12" y="72" width="6" height="6"/><rect class="cls-2" x="6" y="84" width="6" height="6"/><rect class="cls-2" x="18" y="84" width="6" height="6"/><rect class="cls-2" x="6" y="90" width="6" height="6"/><rect class="cls-2" x="18" y="90" width="6" height="6"/><rect class="cls-2" x="12" y="84" width="6" height="6"/><rect class="cls-2" y="66" width="6" height="6"/><rect class="cls-2" x="18" y="66" width="6" height="6"/><rect class="cls-2" x="24" y="66" width="6" height="6"/></g></g></g></svg>