<svg xmlns="http://www.w3.org/2000/svg" viewBox="0 0 60 42"><defs><style>.cls-1{fill:#ff4c6b;}</style></defs><title>wagon-start</title><g id="Слой_2" data-name="Слой 2"><g id="Слой_1-2" data-name="Слой 1"><rect class="cls-1" x="36" width="6" height="6"/><rect class="cls-1" x="30" width="6" height="6"/><rect class="cls-1" x="24" width="6" height="6"/><rect class="cls-1" x="18" width="6" height="6"/><rect class="cls-1" width="6" height="6"/><rect class="cls-1" x="54" width="6" height="6"/><rect class="cls-1" x="48" width="6" height="6"/><rect class="cls-1" x="42" width="6" height="6"/><rect class="cls-1" x="12" width="6" height="6"/><rect class="cls-1" x="6" width="6" height="6"/><rect class="cls-1" y="6" width="6" height="6"/><rect class="cls-1" x="54" y="6" width="6" height="6"/><rect class="cls-1" y="12" width="6" height="6"/><rect class="cls-1" x="54" y="12" width="6" height="6"/><rect class="cls-1" x="30" y="18" width="6" height="6"/><rect class="cls-1" x="12" y="18" width="6" height="6"/><rect class="cls-1" x="6" y="18" width="6" height="6"/><rect class="cls-1" x="48" y="18" width="6" height="6"/><rect class="cls-1" x="42" y="18" width="6" height="6"/><rect class="cls-1" x="36" y="24" width="6" height="6"/><rect class="cls-1" x="24" y="18" width="6" height="6"/><rect class="cls-1" x="18" y="24" width="6" height="6"/><rect class="cls-1" y="24" width="6" height="6"/><rect class="cls-1" x="54" y="24" width="6" height="6"/><rect class="cls-1" x="48" y="36" width="6" height="6"/><rect class="cls-1" x="42" y="36" width="6" height="6"/><rect class="cls-1" x="36" y="30" width="6" height="6"/><rect class="cls-1" x="18" y="30" width="6" height="6"/><rect class="cls-1" y="30" width="6" height="6"/><rect class="cls-1" x="54" y="30" width="6" height="6"/><rect class="cls-1" x="12" y="36" width="6" height="6"/><rect class="cls-1" x="6" y="36" width="6" height="6"/></g></g></svg>