<?xml version="1.0" encoding="UTF-8"?>
<svg width="1540px" height="480px" viewBox="0 0 1540 480" version="1.1" xmlns="http://www.w3.org/2000/svg" xmlns:xlink="http://www.w3.org/1999/xlink">
    <!-- Generator: Sketch 47.1 (45422) - http://www.bohemiancoding.com/sketch -->
    <title>red_squares_head</title>
    <desc>Created with Sketch.</desc>
    <defs></defs>
    <g id="Page-1" stroke="none" stroke-width="1" fill="none" fill-rule="evenodd">
        <g id="red_squares_head" transform="translate(770.000000, 240.000000) rotate(90.000000) translate(-770.000000, -240.000000) translate(530.000000, -530.000000)" fill="#FF4A68">
            <rect id="Rectangle-Copy-53" x="40" y="20" width="20" height="20"></rect>
            <rect id="Rectangle-Copy-636" x="40" y="220" width="20" height="20"></rect>
            <rect id="Rectangle-Copy-1235" x="40" y="860" width="20" height="20"></rect>
            <rect id="Rectangle-Copy-1236" x="40" y="520" width="20" height="20"></rect>
            <rect id="Rectangle-Copy-95" x="280" y="20" width="20" height="20"></rect>
            <rect id="Rectangle-Copy-640" x="280" y="220" width="20" height="20"></rect>
            <rect id="Rectangle-Copy-641" x="280" y="300" width="20" height="20"></rect>
            <rect id="Rectangle-Copy-1242" x="280" y="500" width="20" height="20"></rect>
            <rect id="Rectangle-Copy-1243" x="280" y="980" width="20" height="20"></rect>
            <rect id="Rectangle-Copy-54" x="160" y="20" width="20" height="20"></rect>
            <rect id="Rectangle-Copy-652" x="160" y="220" width="20" height="20"></rect>
            <rect id="Rectangle-Copy-1259" x="160" y="880" width="20" height="20"></rect>
            <rect id="Rectangle-Copy-1260" x="160" y="500" width="20" height="20"></rect>
            <rect id="Rectangle-Copy-96" x="400" y="20" width="20" height="20"></rect>
            <rect id="Rectangle-Copy-1264" x="400" y="760" width="20" height="20"></rect>
            <rect id="Rectangle-Copy-1266" x="400" y="500" width="20" height="20"></rect>
            <rect id="Rectangle-Copy-1267" x="400" y="980" width="20" height="20"></rect>
            <rect id="Rectangle-Copy-55" x="40" y="100" width="20" height="20"></rect>
            <rect id="Rectangle-Copy-1284" x="40" y="460" width="20" height="20"></rect>
            <rect id="Rectangle-Copy-1285" x="40" y="940" width="20" height="20"></rect>
            <rect id="Rectangle-Copy-1287" x="100" y="920" width="20" height="20"></rect>
            <rect id="Rectangle-Copy-1286" x="40" y="580" width="20" height="20"></rect>
            <rect id="Rectangle-Copy-485" x="40" y="180" width="20" height="20"></rect>
            <rect id="Rectangle-Copy-1288" x="40" y="720" width="20" height="20"></rect>
            <rect id="Rectangle-Copy-671" x="40" y="380" width="20" height="20"></rect>
            <rect id="Rectangle-Copy-1289" x="140" y="1320" width="20" height="20"></rect>
            <rect id="Rectangle-Copy-97" x="280" y="100" width="20" height="20"></rect>
            <rect id="Rectangle-Copy-1291" x="280" y="460" width="20" height="20"></rect>
            <rect id="Rectangle-Copy-1293" x="280" y="580" width="20" height="20"></rect>
            <rect id="Rectangle-Copy-1294" x="280" y="1060" width="20" height="20"></rect>
            <rect id="Rectangle-Copy-486" x="280" y="180" width="20" height="20"></rect>
            <rect id="Rectangle-Copy-1295" x="280" y="720" width="20" height="20"></rect>
            <rect id="Rectangle-Copy-675" x="280" y="380" width="20" height="20"></rect>
            <rect id="Rectangle-Copy-1296" x="300" y="1380" width="20" height="20"></rect>
            <rect id="Rectangle-Copy-1311" x="180" y="820" width="20" height="20"></rect>
            <rect id="Rectangle-Copy-1312" x="160" y="460" width="20" height="20"></rect>
            <rect id="Rectangle-Copy-489" x="160" y="180" width="20" height="20"></rect>
            <rect id="Rectangle-Copy-1316" x="160" y="700" width="20" height="20"></rect>
            <rect id="Rectangle-Copy-687" x="160" y="380" width="20" height="20"></rect>
            <rect id="Rectangle-Copy-1317" x="180" y="1460" width="20" height="20"></rect>
            <rect id="Rectangle-Copy-98" x="400" y="100" width="20" height="20"></rect>
            <rect id="Rectangle-Copy-1318" x="380" y="820" width="20" height="20"></rect>
            <rect id="Rectangle-Copy-1319" x="400" y="460" width="20" height="20"></rect>
            <rect id="Rectangle-Copy-1320" x="400" y="940" width="20" height="20"></rect>
            <rect id="Rectangle-Copy-490" x="400" y="180" width="20" height="20"></rect>
            <rect id="Rectangle-Copy-1323" x="400" y="700" width="20" height="20"></rect>
            <rect id="Rectangle-Copy-691" x="400" y="380" width="20" height="20"></rect>
            <rect id="Rectangle-Copy-57" x="40" y="60" width="20" height="20"></rect>
            <rect id="Rectangle-Copy-1341" x="40" y="902" width="20" height="20"></rect>
            <rect id="Rectangle-Copy-493" x="40" y="140" width="20" height="20"></rect>
            <rect id="Rectangle-Copy-1345" x="280" y="1460" width="20" height="20"></rect>
            <rect id="Rectangle-Copy-99" x="280" y="60" width="20" height="20"></rect>
            <rect id="Rectangle-Copy-1346" x="280" y="782" width="20" height="20"></rect>
            <rect id="Rectangle-Copy-1347" x="280" y="420" width="20" height="20"></rect>
            <rect id="Rectangle-Copy-1349" x="280" y="540" width="20" height="20"></rect>
            <rect id="Rectangle-Copy-1350" x="300" y="1020" width="20" height="20"></rect>
            <rect id="Rectangle-Copy-1351" x="280" y="680" width="20" height="20"></rect>
            <rect id="Rectangle-Copy-58" x="160" y="60" width="20" height="20"></rect>
            <rect id="Rectangle-Copy-1367" x="160" y="760" width="20" height="20"></rect>
            <rect id="Rectangle-Copy-1368" x="160" y="420" width="20" height="20"></rect>
            <rect id="Rectangle-Copy-1370" x="180" y="540" width="20" height="20"></rect>
            <rect id="Rectangle-Copy-497" x="160" y="140" width="20" height="20"></rect>
            <rect id="Rectangle-Copy-1372" x="140" y="660" width="20" height="20"></rect>
            <rect id="Rectangle-Copy-1373" x="160" y="1140" width="20" height="20"></rect>
            <rect id="Rectangle-Copy-100" x="400" y="60" width="20" height="20"></rect>
            <rect id="Rectangle-Copy-720" x="400" y="260" width="20" height="20"></rect>
            <rect id="Rectangle-Copy-1375" x="400" y="422" width="20" height="20"></rect>
            <rect id="Rectangle-Copy-1377" x="380" y="540" width="20" height="20"></rect>
            <rect id="Rectangle-Copy-722" x="400" y="340" width="20" height="20"></rect>
            <rect id="Rectangle-Copy-498" x="400" y="140" width="20" height="20"></rect>
            <rect id="Rectangle-Copy-1379" x="380" y="660" width="20" height="20"></rect>
            <rect id="Rectangle-Copy-1380" x="400" y="1140" width="20" height="20"></rect>
            <rect id="Rectangle-Copy-59" x="100" y="0" width="20" height="20"></rect>
            <rect id="Rectangle-Copy-134" x="100" y="20" width="20" height="20"></rect>
            <rect id="Rectangle-Copy-101" x="340" y="0" width="20" height="20"></rect>
            <rect id="Rectangle-Copy-136" x="340" y="20" width="20" height="20"></rect>
            <rect id="Rectangle-Copy-60" x="220" y="0" width="20" height="20"></rect>
            <rect id="Rectangle-Copy-137" x="220" y="20" width="20" height="20"></rect>
            <rect id="Rectangle-Copy-102" x="460" y="0" width="20" height="20"></rect>
            <rect id="Rectangle-Copy-138" x="460" y="20" width="20" height="20"></rect>
            <rect id="Rectangle-Copy-61" x="100" y="80" width="20" height="20"></rect>
            <rect id="Rectangle-Copy-1395" x="100" y="820" width="20" height="20"></rect>
            <rect id="Rectangle-Copy-1396" x="100" y="440" width="20" height="20"></rect>
            <rect id="Rectangle-Copy-501" x="100" y="160" width="20" height="20"></rect>
            <rect id="Rectangle-Copy-103" x="340" y="80" width="20" height="20"></rect>
            <rect id="Rectangle-Copy-736" x="340" y="280" width="20" height="20"></rect>
            <rect id="Rectangle-Copy-1405" x="340" y="560" width="20" height="20"></rect>
            <rect id="Rectangle-Copy-502" x="340" y="160" width="20" height="20"></rect>
            <rect id="Rectangle-Copy-1407" x="320" y="680" width="20" height="20"></rect>
            <rect id="Rectangle-Copy-739" x="340" y="360" width="20" height="20"></rect>
            <rect id="Rectangle-Copy-62" x="220" y="80" width="20" height="20"></rect>
            <rect id="Rectangle-Copy-1423" x="220" y="820" width="20" height="20"></rect>
            <rect id="Rectangle-Copy-1426" x="220" y="560" width="20" height="20"></rect>
            <rect id="Rectangle-Copy-505" x="220" y="160" width="20" height="20"></rect>
            <rect id="Rectangle-Copy-1428" x="200" y="680" width="20" height="20"></rect>
            <rect id="Rectangle-Copy-751" x="220" y="360" width="20" height="20"></rect>
            <rect id="Rectangle-Copy-1429" x="200" y="1180" width="20" height="20"></rect>
            <rect id="Rectangle-Copy-104" x="460" y="80" width="20" height="20"></rect>
            <rect id="Rectangle-Copy-752" x="460" y="280" width="20" height="20"></rect>
            <rect id="Rectangle-Copy-1431" x="460" y="442" width="20" height="20"></rect>
            <rect id="Rectangle-Copy-1433" x="460" y="560" width="20" height="20"></rect>
            <rect id="Rectangle-Copy-506" x="460" y="160" width="20" height="20"></rect>
            <rect id="Rectangle-Copy-1435" x="460" y="700" width="20" height="20"></rect>
            <rect id="Rectangle-Copy-755" x="460" y="360" width="20" height="20"></rect>
            <rect id="Rectangle-Copy-63" x="100" y="40" width="20" height="20"></rect>
            <rect id="Rectangle-Copy-765" x="100" y="320" width="20" height="20"></rect>
            <rect id="Rectangle-Copy-1451" x="80" y="880" width="20" height="20"></rect>
            <rect id="Rectangle-Copy-1452" x="100" y="520" width="20" height="20"></rect>
            <rect id="Rectangle-Copy-1453" x="100" y="1002" width="20" height="20"></rect>
            <rect id="Rectangle-Copy-509" x="100" y="120" width="20" height="20"></rect>
            <rect id="Rectangle-Copy-105" x="340" y="40" width="20" height="20"></rect>
            <rect id="Rectangle-Copy-768" x="340" y="240" width="20" height="20"></rect>
            <rect id="Rectangle-Copy-769" x="340" y="320" width="20" height="20"></rect>
            <rect id="Rectangle-Copy-1458" x="320" y="520" width="20" height="20"></rect>
            <rect id="Rectangle-Copy-1460" x="340" y="640" width="20" height="20"></rect>
            <rect id="Rectangle-Copy-64" x="220" y="40" width="20" height="20"></rect>
            <rect id="Rectangle-Copy-1477" x="220" y="980" width="20" height="20"></rect>
            <rect id="Rectangle-Copy-513" x="220" y="120" width="20" height="20"></rect>
            <rect id="Rectangle-Copy-1478" x="220" y="640" width="20" height="20"></rect>
            <rect id="Rectangle-Copy-106" x="460" y="40" width="20" height="20"></rect>
            <rect id="Rectangle-Copy-1480" x="460" y="760" width="20" height="20"></rect>
            <rect id="Rectangle-Copy-785" x="460" y="320" width="20" height="20"></rect>
            <rect id="Rectangle-Copy-1482" x="460" y="520" width="20" height="20"></rect>
            <rect id="Rectangle-Copy-514" x="460" y="120" width="20" height="20"></rect>
            <rect id="Rectangle-Copy-1502" x="100" y="620" width="20" height="20"></rect>
            <rect id="Rectangle-Copy-1505" x="60" y="1360" width="20" height="20"></rect>
            <rect id="Rectangle-Copy-1506" x="340" y="820" width="20" height="20"></rect>
            <rect id="Rectangle-Copy-1510" x="320" y="1080" width="20" height="20"></rect>
            <rect id="Rectangle-Copy-803" x="340" y="400" width="20" height="20"></rect>
            <rect id="Rectangle-Copy-1512" x="300" y="1260" width="20" height="20"></rect>
            <rect id="Rectangle-Copy-1528" x="220" y="500" width="20" height="20"></rect>
            <rect id="Rectangle-Copy-521" x="200" y="180" width="20" height="20"></rect>
            <rect id="Rectangle-Copy-1533" x="220" y="1220" width="20" height="20"></rect>
            <rect id="Rectangle-Copy-1536" x="460" y="960" width="20" height="20"></rect>
            <rect id="Rectangle-Copy-1537" x="460" y="600" width="20" height="20"></rect>
            <rect id="Rectangle-Copy-522" x="460" y="200" width="20" height="20"></rect>
            <rect id="Rectangle-Copy-819" x="460" y="400" width="20" height="20"></rect>
            <rect id="Rectangle-Copy-67" x="120" y="20" width="20" height="20"></rect>
            <rect id="Rectangle-Copy-828" x="120" y="220" width="20" height="20"></rect>
            <rect id="Rectangle-Copy-1556" x="120" y="500" width="20" height="20"></rect>
            <rect id="Rectangle-Copy-1558" x="120" y="640" width="20" height="20"></rect>
            <rect id="Rectangle-Copy-1559" x="120" y="1080" width="20" height="20"></rect>
            <rect id="Rectangle-Copy-109" x="360" y="20" width="20" height="20"></rect>
            <rect id="Rectangle-Copy-832" x="360" y="220" width="20" height="20"></rect>
            <rect id="Rectangle-Copy-833" x="360" y="300" width="20" height="20"></rect>
            <rect id="Rectangle-Copy-1562" x="340" y="500" width="20" height="20"></rect>
            <rect id="Rectangle-Copy-1563" x="340" y="980" width="20" height="20"></rect>
            <rect id="Rectangle-Copy-39" x="0" y="20" width="20" height="20"></rect>
            <rect id="Rectangle-Copy-148" x="40" y="40" width="20" height="20"></rect>
            <rect id="Rectangle-Copy-155" x="160" y="80" width="20" height="20"></rect>
            <rect id="Rectangle-Copy-150" x="200" y="40" width="20" height="20"></rect>
            <rect id="Rectangle-Copy-151" x="280" y="40" width="20" height="20"></rect>
            <rect id="Rectangle-Copy-152" x="360" y="40" width="20" height="20"></rect>
            <rect id="Rectangle-Copy-153" x="440" y="40" width="20" height="20"></rect>
            <rect id="Rectangle-Copy-840" x="0" y="220" width="20" height="20"></rect>
            <rect id="Rectangle-Copy-841" x="0" y="300" width="20" height="20"></rect>
            <rect id="Rectangle-Copy-1573" x="0" y="880" width="20" height="20"></rect>
            <rect id="Rectangle-Copy-1574" x="0" y="500" width="20" height="20"></rect>
            <rect id="Rectangle-Copy-1575" x="0" y="980" width="20" height="20"></rect>
            <rect id="Rectangle-Copy-1577" x="0" y="1100" width="20" height="20"></rect>
            <rect id="Rectangle-Copy-68" x="240" y="20" width="20" height="20"></rect>
            <rect id="Rectangle-Copy-844" x="240" y="220" width="20" height="20"></rect>
            <rect id="Rectangle-Copy-1578" x="240" y="740" width="20" height="20"></rect>
            <rect id="Rectangle-Copy-1582" x="240" y="620" width="20" height="20"></rect>
            <rect id="Rectangle-Copy-69" x="140" y="0" width="20" height="20"></rect>
            <rect id="Rectangle-Copy-139" x="140" y="20" width="20" height="20"></rect>
            <rect id="Rectangle-Copy-111" x="380" y="0" width="20" height="20"></rect>
            <rect id="Rectangle-Copy-140" x="380" y="20" width="20" height="20"></rect>
            <rect id="Rectangle-Copy-40" x="20" y="0" width="20" height="20"></rect>
            <rect id="Rectangle-Copy-141" x="20" y="20" width="20" height="20"></rect>
            <rect id="Rectangle-Copy-43" x="0" y="0" width="20" height="20"></rect>
            <rect id="Rectangle-Copy-44" x="40" y="0" width="20" height="20"></rect>
            <rect id="Rectangle-Copy-45" x="80" y="0" width="20" height="20"></rect>
            <rect id="Rectangle-Copy-46" x="120" y="0" width="20" height="20"></rect>
            <rect id="Rectangle-Copy-47" x="160" y="0" width="20" height="20"></rect>
            <rect id="Rectangle-Copy-48" x="200" y="0" width="20" height="20"></rect>
            <rect id="Rectangle-Copy-49" x="240" y="0" width="20" height="20"></rect>
            <rect id="Rectangle-Copy-110" x="280" y="0" width="20" height="20"></rect>
            <rect id="Rectangle-Copy-112" x="320" y="0" width="20" height="20"></rect>
            <rect id="Rectangle-Copy-114" x="360" y="0" width="20" height="20"></rect>
            <rect id="Rectangle-Copy-116" x="400" y="0" width="20" height="20"></rect>
            <rect id="Rectangle-Copy-132" x="440" y="0" width="20" height="20"></rect>
            <rect id="Rectangle-Copy-142" x="440" y="20" width="20" height="20"></rect>
            <rect id="Rectangle-Copy-70" x="260" y="0" width="20" height="20"></rect>
            <rect id="Rectangle-Copy-143" x="260" y="20" width="20" height="20"></rect>
            <rect id="Rectangle-Copy-71" x="120" y="100" width="20" height="20"></rect>
            <rect id="Rectangle-Copy-1604" x="120" y="460" width="20" height="20"></rect>
            <rect id="Rectangle-Copy-1605" x="60" y="980" width="20" height="20"></rect>
            <rect id="Rectangle-Copy-1606" x="140" y="580" width="20" height="20"></rect>
            <rect id="Rectangle-Copy-533" x="120" y="180" width="20" height="20"></rect>
            <rect id="Rectangle-Copy-1608" x="100" y="700" width="20" height="20"></rect>
            <rect id="Rectangle-Copy-1613" x="360" y="580" width="20" height="20"></rect>
            <rect id="Rectangle-Copy-1614" x="360" y="1040" width="20" height="20"></rect>
            <rect id="Rectangle-Copy-534" x="360" y="180" width="20" height="20"></rect>
            <rect id="Rectangle-Copy-1616" x="360" y="1181" width="20" height="20"></rect>
            <rect id="Rectangle-Copy-41" x="0" y="100" width="20" height="20"></rect>
            <rect id="Rectangle-Copy-1624" x="0" y="820" width="20" height="20"></rect>
            <rect id="Rectangle-Copy-1625" x="0" y="440" width="20" height="20"></rect>
            <rect id="Rectangle-Copy-1627" x="0" y="580" width="20" height="20"></rect>
            <rect id="Rectangle-Copy-536" x="0" y="180" width="20" height="20"></rect>
            <rect id="Rectangle-Copy-1629" x="0" y="720" width="20" height="20"></rect>
            <rect id="Rectangle-Copy-875" x="0" y="380" width="20" height="20"></rect>
            <rect id="Rectangle-Copy-1630" x="0" y="1180" width="20" height="20"></rect>
            <rect id="Rectangle-Copy-1632" x="240" y="460" width="20" height="20"></rect>
            <rect id="Rectangle-Copy-1633" x="240" y="940" width="20" height="20"></rect>
            <rect id="Rectangle-Copy-1634" x="240" y="580" width="20" height="20"></rect>
            <rect id="Rectangle-Copy-879" x="240" y="380" width="20" height="20"></rect>
            <rect id="Rectangle-Copy-73" x="120" y="60" width="20" height="20"></rect>
            <rect id="Rectangle-Copy-892" x="120" y="260" width="20" height="20"></rect>
            <rect id="Rectangle-Copy-1662" x="120" y="560" width="20" height="20"></rect>
            <rect id="Rectangle-Copy-115" x="360" y="60" width="20" height="20"></rect>
            <rect id="Rectangle-Copy-896" x="360" y="260" width="20" height="20"></rect>
            <rect id="Rectangle-Copy-1666" x="360" y="782" width="20" height="20"></rect>
            <rect id="Rectangle-Copy-542" x="360" y="140" width="20" height="20"></rect>
            <rect id="Rectangle-Copy-42" x="0" y="60" width="20" height="20"></rect>
            <rect id="Rectangle-Copy-904" x="0" y="260" width="20" height="20"></rect>
            <rect id="Rectangle-Copy-1680" x="0" y="760" width="20" height="20"></rect>
            <rect id="Rectangle-Copy-906" x="0" y="340" width="20" height="20"></rect>
            <rect id="Rectangle-Copy-544" x="0" y="140" width="20" height="20"></rect>
            <rect id="Rectangle-Copy-1686" x="0" y="1480" width="20" height="20"></rect>
            <rect id="Rectangle-Copy-74" x="240" y="60" width="20" height="20"></rect>
            <rect id="Rectangle-Copy-908" x="240" y="260" width="20" height="20"></rect>
            <rect id="Rectangle-Copy-1688" x="240" y="420" width="20" height="20"></rect>
            <rect id="Rectangle-Copy-1689" x="240" y="900" width="20" height="20"></rect>
            <rect id="Rectangle-Copy-910" x="240" y="340" width="20" height="20"></rect>
            <rect id="Rectangle-Copy-1691" x="240" y="1021" width="20" height="20"></rect>
            <rect id="Rectangle-Copy-545" x="240" y="140" width="20" height="20"></rect>
            <rect id="Rectangle-Copy-1693" x="240" y="1140" width="20" height="20"></rect>
            <rect id="Rectangle-Copy-75" x="60" y="0" width="20" height="20"></rect>
            <rect id="Rectangle-Copy-144" x="60" y="20" width="20" height="20"></rect>
            <rect id="Rectangle-Copy-117" x="300" y="0" width="20" height="20"></rect>
            <rect id="Rectangle-Copy-145" x="300" y="20" width="20" height="20"></rect>
            <rect id="Rectangle-Copy-76" x="180" y="0" width="20" height="20"></rect>
            <rect id="Rectangle-Copy-146" x="180" y="20" width="20" height="20"></rect>
            <rect id="Rectangle-Copy-118" x="420" y="0" width="20" height="20"></rect>
            <rect id="Rectangle-Copy-147" x="420" y="20" width="20" height="20"></rect>
            <rect id="Rectangle-Copy-77" x="60" y="80" width="20" height="20"></rect>
            <rect id="Rectangle-Copy-924" x="60" y="280" width="20" height="20"></rect>
            <rect id="Rectangle-Copy-1715" x="60" y="820" width="20" height="20"></rect>
            <rect id="Rectangle-Copy-549" x="60" y="160" width="20" height="20"></rect>
            <rect id="Rectangle-Copy-1720" x="60" y="660" width="20" height="20"></rect>
            <rect id="Rectangle-Copy-1721" x="80" y="1460" width="20" height="20"></rect>
            <rect id="Rectangle-Copy-119" x="300" y="80" width="20" height="20"></rect>
            <rect id="Rectangle-Copy-928" x="300" y="280" width="20" height="20"></rect>
            <rect id="Rectangle-Copy-1723" x="300" y="442" width="20" height="20"></rect>
            <rect id="Rectangle-Copy-550" x="300" y="160" width="20" height="20"></rect>
            <rect id="Rectangle-Copy-931" x="300" y="360" width="20" height="20"></rect>
            <rect id="Rectangle-Copy-1728" x="300" y="1161" width="20" height="20"></rect>
            <rect id="Rectangle-Copy-78" x="180" y="80" width="20" height="20"></rect>
            <rect id="Rectangle-Copy-940" x="180" y="280" width="20" height="20"></rect>
            <rect id="Rectangle-Copy-1746" x="160" y="560" width="20" height="20"></rect>
            <rect id="Rectangle-Copy-553" x="180" y="160" width="20" height="20"></rect>
            <rect id="Rectangle-Copy-1748" x="180" y="660" width="20" height="20"></rect>
            <rect id="Rectangle-Copy-943" x="180" y="360" width="20" height="20"></rect>
            <rect id="Rectangle-Copy-120" x="420" y="80" width="20" height="20"></rect>
            <rect id="Rectangle-Copy-944" x="420" y="280" width="20" height="20"></rect>
            <rect id="Rectangle-Copy-1750" x="420" y="802" width="20" height="20"></rect>
            <rect id="Rectangle-Copy-1753" x="420" y="560" width="20" height="20"></rect>
            <rect id="Rectangle-Copy-1754" x="420" y="1041" width="20" height="20"></rect>
            <rect id="Rectangle-Copy-554" x="420" y="160" width="20" height="20"></rect>
            <rect id="Rectangle-Copy-947" x="420" y="360" width="20" height="20"></rect>
            <rect id="Rectangle-Copy-79" x="60" y="40" width="20" height="20"></rect>
            <rect id="Rectangle-Copy-956" x="60" y="240" width="20" height="20"></rect>
            <rect id="Rectangle-Copy-1770" x="60" y="780" width="20" height="20"></rect>
            <rect id="Rectangle-Copy-557" x="60" y="120" width="20" height="20"></rect>
            <rect id="Rectangle-Copy-121" x="300" y="40" width="20" height="20"></rect>
            <rect id="Rectangle-Copy-558" x="300" y="120" width="20" height="20"></rect>
            <rect id="Rectangle-Copy-1780" x="280" y="640" width="20" height="20"></rect>
            <rect id="Rectangle-Copy-80" x="180" y="40" width="20" height="20"></rect>
            <rect id="Rectangle-Copy-972" x="180" y="240" width="20" height="20"></rect>
            <rect id="Rectangle-Copy-1794" x="80" y="740" width="20" height="20"></rect>
            <rect id="Rectangle-Copy-973" x="180" y="320" width="20" height="20"></rect>
            <rect id="Rectangle-Copy-1797" x="180" y="980" width="20" height="20"></rect>
            <rect id="Rectangle-Copy-561" x="180" y="120" width="20" height="20"></rect>
            <rect id="Rectangle-Copy-122" x="420" y="40" width="20" height="20"></rect>
            <rect id="Rectangle-Copy-976" x="420" y="240" width="20" height="20"></rect>
            <rect id="Rectangle-Copy-977" x="420" y="320" width="20" height="20"></rect>
            <rect id="Rectangle-Copy-1801" x="420" y="882" width="20" height="20"></rect>
            <rect id="Rectangle-Copy-562" x="420" y="120" width="20" height="20"></rect>
            <rect id="Rectangle-Copy-565" x="60" y="200" width="20" height="20"></rect>
            <rect id="Rectangle-Copy-991" x="60" y="400" width="20" height="20"></rect>
            <rect id="Rectangle-Copy-1825" x="0" y="1340" width="20" height="20"></rect>
            <rect id="Rectangle-Copy-1826" x="300" y="820" width="20" height="20"></rect>
            <rect id="Rectangle-Copy-1827" x="300" y="480" width="20" height="20"></rect>
            <rect id="Rectangle-Copy-566" x="300" y="200" width="20" height="20"></rect>
            <rect id="Rectangle-Copy-1832" x="260" y="1260" width="20" height="20"></rect>
            <rect id="Rectangle-Copy-1853" x="160" y="1200" width="20" height="20"></rect>
            <rect id="Rectangle-Copy-1857" x="400" y="600" width="20" height="20"></rect>
            <rect id="Rectangle-Copy-83" x="80" y="20" width="20" height="20"></rect>
            <rect id="Rectangle-Copy-1020" x="80" y="220" width="20" height="20"></rect>
            <rect id="Rectangle-Copy-1021" x="80" y="300" width="20" height="20"></rect>
            <rect id="Rectangle-Copy-1876" x="80" y="480" width="20" height="20"></rect>
            <rect id="Rectangle-Copy-1879" x="80" y="1080" width="20" height="20"></rect>
            <rect id="Rectangle-Copy-125" x="320" y="20" width="20" height="20"></rect>
            <rect id="Rectangle-Copy-1024" x="320" y="220" width="20" height="20"></rect>
            <rect id="Rectangle-Copy-1880" x="320" y="740" width="20" height="20"></rect>
            <rect id="Rectangle-Copy-1881" x="320" y="862" width="20" height="20"></rect>
            <rect id="Rectangle-Copy-1884" x="320" y="620" width="20" height="20"></rect>
            <rect id="Rectangle-Copy-84" x="200" y="20" width="20" height="20"></rect>
            <rect id="Rectangle-Copy-1036" x="200" y="220" width="20" height="20"></rect>
            <rect id="Rectangle-Copy-1898" x="200" y="720" width="20" height="20"></rect>
            <rect id="Rectangle-Copy-1037" x="200" y="300" width="20" height="20"></rect>
            <rect id="Rectangle-Copy-1899" x="220" y="860" width="20" height="20"></rect>
            <rect id="Rectangle-Copy-1902" x="180" y="620" width="20" height="20"></rect>
            <rect id="Rectangle-Copy-1903" x="200" y="1100" width="20" height="20"></rect>
            <rect id="Rectangle-Copy-126" x="440" y="20" width="20" height="20"></rect>
            <rect id="Rectangle-Copy-1040" x="440" y="220" width="20" height="20"></rect>
            <rect id="Rectangle-Copy-1041" x="440" y="300" width="20" height="20"></rect>
            <rect id="Rectangle-Copy-1908" x="440" y="640" width="20" height="20"></rect>
            <rect id="Rectangle-Copy-85" x="80" y="100" width="20" height="20"></rect>
            <rect id="Rectangle-Copy-1926" x="80" y="580" width="20" height="20"></rect>
            <rect id="Rectangle-Copy-581" x="80" y="180" width="20" height="20"></rect>
            <rect id="Rectangle-Copy-1055" x="100" y="400" width="20" height="20"></rect>
            <rect id="Rectangle-Copy-1929" x="80" y="1180" width="20" height="20"></rect>
            <rect id="Rectangle-Copy-127" x="320" y="100" width="20" height="20"></rect>
            <rect id="Rectangle-Copy-1931" x="320" y="460" width="20" height="20"></rect>
            <rect id="Rectangle-Copy-1932" x="320" y="942" width="20" height="20"></rect>
            <rect id="Rectangle-Copy-1933" x="320" y="580" width="20" height="20"></rect>
            <rect id="Rectangle-Copy-582" x="320" y="180" width="20" height="20"></rect>
            <rect id="Rectangle-Copy-1059" x="320" y="380" width="20" height="20"></rect>
            <rect id="Rectangle-Copy-1936" x="240" y="1380" width="20" height="20"></rect>
            <rect id="Rectangle-Copy-86" x="200" y="100" width="20" height="20"></rect>
            <rect id="Rectangle-Copy-1952" x="200" y="460" width="20" height="20"></rect>
            <rect id="Rectangle-Copy-1954" x="200" y="580" width="20" height="20"></rect>
            <rect id="Rectangle-Copy-1955" x="200" y="1040" width="20" height="20"></rect>
            <rect id="Rectangle-Copy-1071" x="200" y="380" width="20" height="20"></rect>
            <rect id="Rectangle-Copy-1957" x="380" y="1460" width="20" height="20"></rect>
            <rect id="Rectangle-Copy-128" x="440" y="100" width="20" height="20"></rect>
            <rect id="Rectangle-Copy-1958" x="460" y="820" width="20" height="20"></rect>
            <rect id="Rectangle-Copy-1959" x="440" y="460" width="20" height="20"></rect>
            <rect id="Rectangle-Copy-586" x="440" y="180" width="20" height="20"></rect>
            <rect id="Rectangle-Copy-1075" x="440" y="380" width="20" height="20"></rect>
            <rect id="Rectangle-Copy-87" x="80" y="60" width="20" height="20"></rect>
            <rect id="Rectangle-Copy-1084" x="80" y="260" width="20" height="20"></rect>
            <rect id="Rectangle-Copy-1982" x="80" y="540" width="20" height="20"></rect>
            <rect id="Rectangle-Copy-1086" x="80" y="340" width="20" height="20"></rect>
            <rect id="Rectangle-Copy-589" x="80" y="140" width="20" height="20"></rect>
            <rect id="Rectangle-Copy-1087" x="80" y="360" width="20" height="20"></rect>
            <rect id="Rectangle-Copy-1985" x="60" y="1140" width="20" height="20"></rect>
            <rect id="Rectangle-Copy-129" x="320" y="60" width="20" height="20"></rect>
            <rect id="Rectangle-Copy-1088" x="320" y="260" width="20" height="20"></rect>
            <rect id="Rectangle-Copy-1986" x="320" y="782" width="20" height="20"></rect>
            <rect id="Rectangle-Copy-1987" x="320" y="420" width="20" height="20"></rect>
            <rect id="Rectangle-Copy-1988" x="320" y="902" width="20" height="20"></rect>
            <rect id="Rectangle-Copy-1090" x="320" y="340" width="20" height="20"></rect>
            <rect id="Rectangle-Copy-590" x="320" y="140" width="20" height="20"></rect>
            <rect id="Rectangle-Copy-1992" x="320" y="1140" width="20" height="20"></rect>
            <rect id="Rectangle-Copy-88" x="200" y="60" width="20" height="20"></rect>
            <rect id="Rectangle-Copy-1100" x="200" y="260" width="20" height="20"></rect>
            <rect id="Rectangle-Copy-2007" x="200" y="782" width="20" height="20"></rect>
            <rect id="Rectangle-Copy-2009" x="200" y="920" width="20" height="20"></rect>
            <rect id="Rectangle-Copy-593" x="200" y="140" width="20" height="20"></rect>
            <rect id="Rectangle-Copy-130" x="440" y="60" width="20" height="20"></rect>
            <rect id="Rectangle-Copy-2015" x="440" y="422" width="20" height="20"></rect>
            <rect id="Rectangle-Copy-594" x="440" y="140" width="20" height="20"></rect>
            <rect id="Rectangle-Copy-89" x="140" y="80" width="20" height="20"></rect>
            <rect id="Rectangle-Copy-1116" x="140" y="280" width="20" height="20"></rect>
            <rect id="Rectangle-Copy-2035" x="140" y="802" width="20" height="20"></rect>
            <rect id="Rectangle-Copy-2036" x="140" y="440" width="20" height="20"></rect>
            <rect id="Rectangle-Copy-2037" x="160" y="940" width="20" height="20"></rect>
            <rect id="Rectangle-Copy-2039" x="140" y="1040" width="20" height="20"></rect>
            <rect id="Rectangle-Copy-597" x="140" y="160" width="20" height="20"></rect>
            <rect id="Rectangle-Copy-2040" x="100" y="660" width="20" height="20"></rect>
            <rect id="Rectangle-Copy-1119" x="140" y="360" width="20" height="20"></rect>
            <rect id="Rectangle-Copy-131" x="380" y="80" width="20" height="20"></rect>
            <rect id="Rectangle-Copy-598" x="380" y="160" width="20" height="20"></rect>
            <rect id="Rectangle-Copy-1123" x="380" y="360" width="20" height="20"></rect>
            <rect id="Rectangle-Copy-50" x="20" y="80" width="20" height="20"></rect>
            <rect id="Rectangle-Copy-1128" x="20" y="280" width="20" height="20"></rect>
            <rect id="Rectangle-Copy-2060" x="20" y="1042" width="20" height="20"></rect>
            <rect id="Rectangle-Copy-600" x="20" y="160" width="20" height="20"></rect>
            <rect id="Rectangle-Copy-2061" x="20" y="680" width="20" height="20"></rect>
            <rect id="Rectangle-Copy-2062" x="0" y="1280" width="20" height="20"></rect>
            <rect id="Rectangle-Copy-90" x="260" y="80" width="20" height="20"></rect>
            <rect id="Rectangle-Copy-1132" x="260" y="280" width="20" height="20"></rect>
            <rect id="Rectangle-Copy-2063" x="260" y="802" width="20" height="20"></rect>
            <rect id="Rectangle-Copy-2066" x="260" y="560" width="20" height="20"></rect>
            <rect id="Rectangle-Copy-601" x="260" y="160" width="20" height="20"></rect>
            <rect id="Rectangle-Copy-2068" x="240" y="680" width="20" height="20"></rect>
            <rect id="Rectangle-Copy-91" x="140" y="40" width="20" height="20"></rect>
            <rect id="Rectangle-Copy-2090" x="120" y="760" width="20" height="20"></rect>
            <rect id="Rectangle-Copy-2092" x="140" y="520" width="20" height="20"></rect>
            <rect id="Rectangle-Copy-605" x="140" y="120" width="20" height="20"></rect>
            <rect id="Rectangle-Copy-133" x="380" y="40" width="20" height="20"></rect>
            <rect id="Rectangle-Copy-2097" x="380" y="882" width="20" height="20"></rect>
            <rect id="Rectangle-Copy-51" x="20" y="40" width="20" height="20"></rect>
            <rect id="Rectangle-Copy-1161" x="20" y="320" width="20" height="20"></rect>
            <rect id="Rectangle-Copy-608" x="20" y="120" width="20" height="20"></rect>
            <rect id="Rectangle-Copy-2112" x="20" y="640" width="20" height="20"></rect>
            <rect id="Rectangle-Copy-2113" x="320" y="1520" width="20" height="20"></rect>
            <rect id="Rectangle-Copy-92" x="260" y="40" width="20" height="20"></rect>
            <rect id="Rectangle-Copy-2116" x="240" y="520" width="20" height="20"></rect>
            <rect id="Rectangle-Copy-609" x="260" y="120" width="20" height="20"></rect>
            <rect id="Rectangle-Copy-2139" x="140" y="860" width="20" height="20"></rect>
            <rect id="Rectangle-Copy-613" x="140" y="200" width="20" height="20"></rect>
            <rect id="Rectangle-Copy-2145" x="120" y="1220" width="20" height="20"></rect>
            <rect id="Rectangle-Copy-2150" x="360" y="1100" width="20" height="20"></rect>
            <rect id="Rectangle-Copy-614" x="380" y="200" width="20" height="20"></rect>
            <rect id="Rectangle-Copy-2151" x="360" y="720" width="20" height="20"></rect>
            <rect id="Rectangle-Copy-1187" x="380" y="400" width="20" height="20"></rect>
            <rect id="Rectangle-Copy-2152" x="340" y="1220" width="20" height="20"></rect>
            <rect id="Rectangle-Copy-1195" x="20" y="400" width="20" height="20"></rect>
            <rect id="Rectangle-Copy-2166" x="20" y="1220" width="20" height="20"></rect>
            <rect id="Rectangle-Copy-2167" x="260" y="840" width="20" height="20"></rect>
            <rect id="Rectangle-Copy-2168" x="260" y="480" width="20" height="20"></rect>
            <rect id="Rectangle-Copy-2171" x="240" y="1080" width="20" height="20"></rect>
            <rect id="Rectangle-Copy-1199" x="260" y="400" width="20" height="20"></rect>
            <rect id="Rectangle-Copy-2173" x="420" y="1400" width="20" height="20"></rect>
        </g>
    </g>
</svg>