<svg width="68px" height="56px" viewBox="0 0 68 56" version="1.1" xmlns="http://www.w3.org/2000/svg" xmlns:xlink="http://www.w3.org/1999/xlink">
    <!-- Generator: Sketch 48.2 (47327) - http://www.bohemiancoding.com/sketch -->
    <desc>Created with Sketch.</desc>
    <defs></defs>
    <g id="Page-1" stroke="none" stroke-width="1" fill="none" fill-rule="evenodd">
        <g id="Mobile-320x568-stub" transform="translate(-252.000000, -132.000000)" fill="#FFFFFF" fill-rule="nonzero">
            <g id="two-thin-arrows-forming-a-circle" transform="translate(252.000000, 132.000000)">
                <path d="M51.9112483,46.3623624 C47.0178255,51.2512752 40.5188188,53.9445369 33.6026309,53.9445369 C19.3376644,53.9445369 7.72987919,42.3435168 7.71634899,28.0830604 L12.9953826,33.3688591 C13.3452886,33.7165101 13.9082953,33.7165101 14.2578255,33.3688591 C14.6032215,33.018953 14.6032215,32.4540671 14.2578255,32.1064161 L7.25932886,25.1049128 L0.26233557,32.1064161 C-0.0875704698,32.4540671 -0.0875704698,33.0193289 0.26233557,33.3688591 C0.434845638,33.5436242 0.663731544,33.6289396 0.890362416,33.6289396 C1.12150336,33.6289396 1.35001342,33.5413691 1.5206443,33.3688591 L5.96531544,28.9219329 C6.42947651,43.7792215 18.626953,55.7297718 33.5939866,55.7297718 C40.9878658,55.7297718 47.9375034,52.8504698 53.167302,47.6229262 C53.514953,47.2752752 53.514953,46.7100134 53.167302,46.3627383 C52.8286711,46.0124564 52.2611544,46.0124564 51.9112483,46.3623624 Z" id="Shape"></path>
                <path d="M67.0195973,22.6382819 C66.6742013,22.2906309 66.1089396,22.2906309 65.7594094,22.6382819 L61.3188725,27.082953 C60.8502013,12.2256644 48.6527248,0.277369128 33.6879463,0.277369128 C26.289557,0.277369128 19.3421745,3.15667114 14.1123758,8.38421477 C13.7624698,8.73186577 13.7624698,9.29712752 14.1123758,9.64440268 C14.4577718,9.99430872 15.0252886,9.99430872 15.3725638,9.64440268 C20.2637315,4.75548993 26.7649933,2.06222819 33.6811812,2.06222819 C47.9438926,2.06222819 59.5539329,13.6609933 59.5719732,27.9237047 L54.2884295,22.637906 C53.9407785,22.290255 53.3755168,22.290255 53.0259866,22.637906 C52.6805906,22.9878121 52.6805906,23.552698 53.0259866,23.900349 L60.0252349,30.8995973 L67.0222282,23.900349 C67.3695034,23.5530738 67.3695034,22.9878121 67.0195973,22.6382819 Z" id="Shape"></path>
            </g>
        </g>
    </g>
</svg>