<?xml version="1.0" encoding="UTF-8"?>
<svg width="304px" height="296px" viewBox="0 0 304 296" version="1.1" xmlns="http://www.w3.org/2000/svg" xmlns:xlink="http://www.w3.org/1999/xlink">
    <!-- Generator: Sketch 47.1 (45422) - http://www.bohemiancoding.com/sketch -->
    <title>Group 11</title>
    <desc>Created with Sketch.</desc>
    <defs></defs>
    <g id="Page-1" stroke="none" stroke-width="1" fill="none" fill-rule="evenodd">
        <g id="15_Boldyrev_desktop" transform="translate(-843.000000, -1500.000000)" fill="#ECFF5C">
            <g id="Group-11" transform="translate(841.000000, 1500.000000)">
                <polygon id="Rectangle-5-Copy-42" transform="translate(21.000000, 140.000000) scale(1, -1) rotate(-188.000000) translate(-21.000000, -140.000000) " points="28 133 28 147 14 147"></polygon>
                <polygon id="Rectangle-5-Copy-44" transform="translate(249.000000, 158.000000) scale(1, -1) rotate(-188.000000) translate(-249.000000, -158.000000) " points="256 151 256 165 242 165"></polygon>
                <polygon id="Rectangle-5-Copy-49" transform="translate(130.000000, 71.000000) scale(1, -1) rotate(-188.000000) translate(-130.000000, -71.000000) " points="137 64 137 78 123 78"></polygon>
                <polygon id="Rectangle-5-Copy-50" transform="translate(68.000000, 240.000000) scale(1, -1) rotate(-188.000000) translate(-68.000000, -240.000000) " points="75 233 75 247 61 247"></polygon>
                <polygon id="Rectangle-5-Copy-29" transform="translate(256.000000, 26.000000) scale(1, -1) rotate(-188.000000) translate(-256.000000, -26.000000) " points="263 19 263 33 249 33"></polygon>
                <polygon id="Rectangle-5-Copy-52" transform="translate(258.000000, 240.000000) scale(1, -1) rotate(-188.000000) translate(-258.000000, -240.000000) " points="265 233 265 247 251 247"></polygon>
                <polygon id="Rectangle-5-Copy-53" transform="translate(42.000000, 81.000000) scale(1, -1) rotate(-188.000000) translate(-42.000000, -81.000000) " points="49 74 49 88 35 88"></polygon>
                <polygon id="Rectangle-5-Copy-55" transform="translate(67.000000, 26.000000) scale(-1, -1) rotate(-188.000000) translate(-67.000000, -26.000000) " points="74 19 74 33 60 33"></polygon>
                <polygon id="Rectangle-5-Copy-56" transform="translate(8.000000, 195.000000) scale(-1, -1) rotate(-188.000000) translate(-8.000000, -195.000000) " points="15 188 15 202 1 202"></polygon>
                <polygon id="Rectangle-5-Copy-32" transform="translate(211.000000, 52.000000) scale(1, -1) rotate(-188.000000) translate(-211.000000, -52.000000) " points="218 45 218 59 204 59"></polygon>
                <polygon id="Rectangle-5-Copy-58" transform="translate(188.000000, 169.000000) scale(1, -1) rotate(-188.000000) translate(-188.000000, -169.000000) " points="195 162 195 176 181 176"></polygon>
                <polygon id="Rectangle-5-Copy-61" transform="translate(160.000000, 8.000000) scale(1, -1) rotate(-188.000000) translate(-160.000000, -8.000000) " points="167 1 167 15 153 15"></polygon>
                <polygon id="Rectangle-5-Copy-62" transform="translate(99.000000, 197.000000) scale(1, -1) rotate(-188.000000) translate(-99.000000, -197.000000) " points="106 190 106 204 92 204"></polygon>
                <polygon id="Rectangle-5-Copy-63" transform="translate(191.000000, 98.000000) scale(-1, 1) rotate(-188.000000) translate(-191.000000, -98.000000) " points="198 91 198 105 184 105"></polygon>
                <polygon id="Rectangle-5-Copy-64" transform="translate(130.000000, 285.000000) scale(-1, -1) rotate(-188.000000) translate(-130.000000, -285.000000) " points="137 278 137 292 123 292"></polygon>
                <polygon id="Rectangle-5-Copy-66" transform="translate(300.000000, 179.000000) scale(1, -1) rotate(-188.000000) translate(-300.000000, -179.000000) " points="307 172 307 186 293 186"></polygon>
                <polygon id="Rectangle-5-Copy-67" transform="translate(104.000000, 126.000000) scale(-1, -1) rotate(-188.000000) translate(-104.000000, -126.000000) " points="111 119 111 133 97 133"></polygon>
                <polygon id="Rectangle-5-Copy-68" transform="translate(165.000000, 231.000000) scale(-1, -1) rotate(-188.000000) translate(-165.000000, -231.000000) " points="172 224 172 238 158 238"></polygon>
                <polygon id="Rectangle-5-Copy-69" transform="translate(282.000000, 100.000000) scale(1, -1) rotate(-188.000000) translate(-282.000000, -100.000000) " points="289 93 289 107 275 107"></polygon>
                <polygon id="Rectangle-5-Copy-70" transform="translate(221.000000, 288.000000) scale(1, -1) rotate(-188.000000) translate(-221.000000, -288.000000) " points="228 281 228 295 214 295"></polygon>
            </g>
        </g>
    </g>
</svg>