<?xml version="1.0" encoding="UTF-8"?>
<svg width="200px" height="200px" viewBox="0 0 200 200" version="1.1" xmlns="http://www.w3.org/2000/svg" xmlns:xlink="http://www.w3.org/1999/xlink">
    <!-- Generator: Sketch 47.1 (45422) - http://www.bohemiancoding.com/sketch -->
    <title>5_emoji</title>
    <desc>Created with Sketch.</desc>
    <defs>
        <polygon id="path-1" points="199.421951 0.576707317 199.421951 199.998659 0.00134146341 199.998659 0.00134146341 0.576707317 199.421951 0.576707317"></polygon>
    </defs>
    <g id="Page-1" stroke="none" stroke-width="1" fill="none" fill-rule="evenodd">
        <g id="5_Boldyrev_desktop" transform="translate(-781.000000, -504.000000)">
            <g id="Page-1" transform="translate(781.000000, 504.000000)">
                <g id="Group-3">
                    <mask id="mask-2" fill="white">
                        <use xlink:href="#path-1"></use>
                    </mask>
                    <g id="Clip-2"></g>
                    <path d="M199.423293,100.287683 C199.423293,45.2206098 154.77939,0.576707317 99.7123171,0.576707317 C44.6418902,0.576707317 0.00134146341,45.2206098 0.00134146341,100.287683 C0.00134146341,155.35811 44.6418902,199.998659 99.7123171,199.998659 C154.77939,199.998659 199.423293,155.35811 199.423293,100.287683" id="Fill-1" fill="#F9C54B" mask="url(#mask-2)"></path>
                </g>
                <path d="M118.863594,159 C118.318056,159 117.769131,158.789931 117.352353,158.369793 L82.6277069,123.650797 C81.7907644,122.813909 81.7907644,121.462013 82.6277069,120.625125 C83.4612611,119.791625 84.8166337,119.791625 85.6501879,120.625125 L120.374834,155.347509 C121.208389,156.184397 121.208389,157.536293 120.374834,158.369793 C119.958057,158.789931 119.409131,159 118.863594,159" id="Fill-4" fill="#302A1F"></path>
                <path d="M84.1389474,159 C83.5934099,159 83.044484,158.789931 82.6277069,158.369793 C81.7907644,157.536293 81.7907644,156.184397 82.6277069,155.347509 L117.352353,120.625125 C118.185908,119.791625 119.537892,119.791625 120.374834,120.625125 C121.208389,121.462013 121.208389,122.813909 120.374834,123.650797 L85.6501879,158.369793 C85.2334108,158.789931 84.6878733,159 84.1389474,159" id="Fill-6" fill="#302A1F"></path>
                <path d="M118,73.0017004 C118,78.5245707 122.474668,83 127.9966,83 C133.521931,83 138,78.5245707 138,73.0017004 C138,67.4788301 133.521931,63 127.9966,63 C122.474668,63 118,67.4788301 118,73.0017004" id="Fill-8" fill="#FEFEFE"></path>
                <path d="M61,73.0017004 C61,78.5245707 65.4780687,83 71,83 C76.5219313,83 81,78.5245707 81,73.0017004 C81,67.4788301 76.5219313,63 71,63 C65.4780687,63 61,67.4788301 61,73.0017004" id="Fill-10" fill="#FEFEFE"></path>
                <path d="M127.003359,66.2402352 C122.726764,66.2402352 119.239642,69.7211256 119.239642,74.00168 C119.239642,78.2788744 122.726764,81.7597648 127.003359,81.7597648 C131.279955,81.7597648 134.763718,78.2788744 134.763718,74.00168 C134.763718,69.7211256 131.279955,66.2402352 127.003359,66.2402352 M127.003359,86 C120.381859,86 115,80.6140277 115,74.00168 C115,67.3826123 120.381859,62 127.003359,62 C133.618141,62 139,67.3826123 139,74.00168 C139,80.6140277 133.618141,86 127.003359,86" id="Fill-12" fill="#302A1F"></path>
                <path d="M69.00168,66.2402352 C64.7211256,66.2402352 61.2402352,69.7211256 61.2402352,74.00168 C61.2402352,78.2788744 64.7211256,81.7597648 69.00168,81.7597648 C73.2788744,81.7597648 76.7597648,78.2788744 76.7597648,74.00168 C76.7597648,69.7211256 73.2788744,66.2402352 69.00168,66.2402352 M69.00168,86 C62.3826123,86 57,80.6140277 57,74.00168 C57,67.3826123 62.3826123,62 69.00168,62 C75.6207476,62 81,67.3826123 81,74.00168 C81,80.6140277 75.6207476,86 69.00168,86" id="Fill-14" fill="#302A1F"></path>
            </g>
        </g>
    </g>
</svg>