<?xml version="1.0" encoding="utf-8"?>
<!-- Generator: Adobe Illustrator 21.1.0, SVG Export Plug-In . SVG Version: 6.00 Build 0)  -->
<svg version="1.1" id="Layer_1" xmlns="http://www.w3.org/2000/svg" xmlns:xlink="http://www.w3.org/1999/xlink" x="0px" y="0px"
	 viewBox="0 0 80 90" enable-background="new 0 0 80 90" xml:space="preserve">
<g>
	<polygon fill-rule="evenodd" clip-rule="evenodd" fill="#B6C447" points="67.2,59.8 57.3,59.8 53,66.7 79.9,66.7 66.5,45 
		62.3,51.8 	"/>
	<polygon fill-rule="evenodd" clip-rule="evenodd" fill="#B6C447" points="22.7,30 17.7,38 22,44.9 31.2,30 	"/>
	<polygon fill-rule="evenodd" clip-rule="evenodd" fill="#B6C447" points="35.4,66.7 44.5,66.7 48.8,59.8 31.2,59.8 22.7,59.8 
		12.8,59.8 14.4,57.2 17.7,51.8 13.5,44.9 7.6,54.3 0,66.6 26.9,66.7 	"/>
	<polygon fill-rule="evenodd" clip-rule="evenodd" fill="#B6C447" points="27,23.1 35.5,23.1 39,17.5 40,15.8 44.6,23.2 48.8,30 
		58,44.9 62.3,38.1 57.3,30.1 53.1,23.2 40.1,2 30.8,17 	"/>
	<polygon fill-rule="evenodd" clip-rule="evenodd" fill="#ECFF5C" points="44.6,23.2 35.5,23.1 27,23.1 0.1,23.1 13.5,44.9 
		17.7,51.8 22.7,59.8 31.2,59.8 22,44.9 17.7,38 12.8,30 22.7,30 31.2,30 48.8,30 	"/>
	<polygon fill-rule="evenodd" clip-rule="evenodd" fill="#ECFF5C" points="35.4,66.7 26.9,66.7 33.4,77.3 39.9,87.8 53,66.7 
		57.3,59.8 62.3,51.8 66.5,45 80,23.2 61.9,23.2 53.1,23.2 57.3,30.1 65.6,30.1 67.2,30.1 62.3,38.1 58,44.9 48.8,59.8 44.5,66.7 
		40,74.1 39,72.5 	"/>
</g>
</svg>
