<?xml version="1.0" encoding="utf-8"?>
<!-- Generator: Adobe Illustrator 21.1.0, SVG Export Plug-In . SVG Version: 6.00 Build 0)  -->
<svg version="1.1" xmlns="http://www.w3.org/2000/svg" xmlns:xlink="http://www.w3.org/1999/xlink" x="0px" y="0px"
	 viewBox="0 0 1143.5 765" enable-background="new 0 0 1143.5 765" xml:space="preserve">
<g id="Background" display="none">
	<rect x="0" y="0" display="inline" fill="#FFFFFF" width="1140" height="765"/>
</g>
<g id="continents">
	<path fill="#F5F1F1" d="M1019,1v14l1,1h14v14l1,1h14.6l14.7,14.7l14.7,14.7V75v12.6l-13-13V60l-0.3-0.7l-15-15L1050,44h-15l-1,1
		v14.6l-14.7,14.7L1004.6,89h-14.2L976,74.6V60l-1.7-0.7l-15,15L959,75v15v12.6l-13-13V75V60l-1.7-0.7l-15,15L916,87.6V75l-1-1
		h-14.6L886,59.6V45V30V15V1h14h15h15h15h15h15h15h15H1019 M252.6,1l-13,13H225h-14V1h14h15H252.6 M104,1v14v15v15v15l1,1h15h15
		l0.7-0.3l15-15L164,32.4V45v15l0.3,0.7l15,15l15,15L195,91h14.6l13,13H210l-0.7,1.7l15,15h1.4l14.7-14.7h14.2l13,13H255h-15
		l-0.7,0.3l-15,15v1.4l13.3,13.3H225l-0.7,1.7l14.7,14.7V180l0.3,0.7l15,15h1.4l14.3-14.3l13.6,13.6l-14.3,14.3l0.7,1.7h15l0.7-0.3
		l14.3-14.3l12.6,12.6H300l-1,1v15l1.7,0.7l13.3-13.3V225l1.7,0.7l14.7-14.7h12.2l-13.3,13.3L329,225v15l1.7,0.7l15-15l0.3-0.7v-15
		v-15l-1.7-0.7L330,208.6l-14-14v-14.2l14.4-14.4H345h14.6l14.7,14.7l1.7-0.7v-15l-0.3-0.7l-15-15L360,149h-15h-15h-15l-0.7,0.3
		L299.6,164H286v-14l-1.7-0.7L269.6,164H256v-14l-1-1h-12.6l13-13H270l1-1v-14h14l0.7-1.7L271,104.6V91h14l0.7-0.3L299,77.4V90
		l1.7,0.7L315,76.4l14.3,14.3l15,15l0.7,0.3h14.6l14.7,14.7l1.7-0.7v-12.6l13.3,13.3l1.7-0.7v-12.6l13.3,13.3l15,15l14.7,14.7V164
		h-14l-0.7,1.7l14.7,14.7V195v15v14h-13.6L406,209.6V195l-1.7-0.7l-15,15l-15,15v1.4l15,15l1.7-0.7v-12.6l13.3,13.3l1.7-0.7v-12.6
		l13.3,13.3l0.7,0.3h14v14l1.7,0.7l14.3-14.3l14.3,14.3l15,15l1.7-0.7v-12.6l13.3,13.3h1.4l13.3-13.3V270l0.3,0.7l15,15l1.7-0.7
		v-14.6l14.4-14.4H555l1-1v-12.6l12.6,12.6l-14.3,14.3l-15,15L539,285v14.6L524.6,314H510l-0.7,1.7l15,15h1.4l15-15l13.3-13.3V315
		l1.7,0.7l15-15L570,299h-14v-13.6l14.4-14.4H584v14v15l1.7,0.7l15-15v-1.4L586.4,270l14-14H615l0.7-0.3l14.7-14.7H645l0.7-0.3
		l14.7-14.7h14.2l14.7,14.7l0.7,0.3h12.6l-13.3,13.3l-15,15l0.7,1.7h15l0.7-0.3l14.3-14.3l14.3,14.3h1.4l14.7-14.7h14.2l14.7,14.7
		h1.4l14.7-14.7H795l0.7-1.7L782.4,241H795l0.7-0.3l14.7-14.7H825h15l1-1v-14h14h15l1-1v-14.6l14.7-14.7L885,179h-12.6l13.3-13.3
		l0.3-0.7v-14h14l1-1v-14h14l0.7-0.3l15-15l13.3-13.3V120l1,1h14v13h-14l-1,1v15v15l1,1h14.6l14.4,14.4V195v15v15l1,1h12.6
		l-13.3,13.3L974,240v15v15v15l1,1h14.6l13,13H990l-0.7,1.7l14.7,14.7V330l1,1h12.6l-13.3,13.3v1.4l14.7,14.7v12.2l-13.3-13.3
		l-0.7-0.3h-14.6L976,344.6V330l-0.3-0.7L961,314.6V300v-15v-15l-0.3-0.7l-15-15L944,255v14h-14l-1,1v15v15l0.3,0.7l14.3,14.3
		l-14,14H915l-1,1v14h-14l-1,1v14h-14l-1,1v15v15v15v14.6l-14.7,14.7l0.7,1.7h15h15l1-1v-14h13.6l14.4,14.4V450v15l0.3,0.7
		l14.7,14.7V495v15v14.6l-14.7,14.7L929,540v15v14h-14l-0.7,0.3l-15,15L899,585v15v14.6l-14.7,14.7l0.7,1.7h14.6l14.7,14.7
		l14.3,14.3l-14.3,14.3L901,687.6V675l-0.3-0.7L887.4,661H900l0.7-1.7l-15-15h-1.4L871,657.6V645v-15l-1-1h-15l-0.7,0.3L841,642.6
		V630l-1.7-0.7l-15,15l-15,15v1.4l15,15h1.4l14.7-14.7H854v13h-14l-1,1v14.6l-14.7,14.7l0.7,1.7h14.6l14.7,14.7l14.3,14.3
		l-14.3,14.3l0.7,1.7h14v13h-14h-15h-15h-15h-15h-15h-15h-15h-15h-15h-15h-15h-15h-15h-15h-15h-15h-15h-15h-15h-15h-15h-15h-15h-15
		h-15h-15h-15h-15h-15h-15h-15h-15h-15h-15h-15h-15h-15h-14.6l-14.7-14.7l-15-15l-15-15l-15-15l-15-15L196.4,675l14.3-14.3v-1.4
		l-15-15L195,644h-14.6L166,629.6V615v-15v-15l-0.3-0.7l-15-15h-1.4l-15,15L134,585v15v15v15l1,1h12.6l-13.3,13.3v1.4l15,15l0.7,0.3
		h15h15h12.6l-13.3,13.3L179,675v15v15l0.3,0.7l14.7,14.7V735v14h-14l-0.7,0.3L164.6,764H150h-15h-15h-15H90H75H60H45H30H15H1v-14
		v-15v-15v-15v-15v-15v-14.6l14.7-14.7L16,645v-15v-15v-15v-15v-14.6l14.7-14.7L31,555v-15v-14.6l14.7-14.7L46,510v-15v-14.6
		l14.7-14.7L60,464H45l-1,1v12.6l-13.3-13.3L29,465v14.6l-14.7,14.7L14,495v14.6l-13,13V510v-15v-15v-15v-15v-15v-15v-15v-15v-15
		v-15v-15v-15v-15v-15v-12.6l13,13V315v15v15v15l0.3,0.7L29,375.4V390v15l1,1h14.6L59,420.4V435l0.3,0.7l15,15h1.4L90.4,436H105
		l0.7-0.3l15-15l0.3-0.7v-15l-1-1h-14v-14l-0.3-0.7L91,374.6V360v-15v-14.6l14.4-14.4H119v14l1,1h14v14l0.3,0.7l15,15l14.7,14.7V390
		l0.3,0.7l14.7,14.7V420l1,1h15l0.7-0.3l15-15l0.3-0.7v-15l-0.3-0.7L196,374.6V361h14h15l0.7-1.7l-15-15L196,329.6V315l-1-1h-14v-14
		l-1.7-0.7L164.6,314H150h-15l-1,1v12.6l-13.3-13.3l-15-15l-15-15L89,285v15v12.6l-13.3-13.3h-1.4L61,312.6v-12.2l14.7-14.7L76,285
		v-14.6L90.4,256H105l1-1v-15v-14.6l14.7-14.7l0.3-0.7v-14.6l14.7-14.7L135,179h-15l-0.7,0.3l-15,15L104,195v14.6l-14.7,14.7L89,225
		v14.6l-13,13V240l-1-1H62.4l13.3-13.3L76,225v-14.6l14.7-14.7L91,195v-14.6l14.7-14.7l15-15v-1.4L106,134.6V120v-15l-1-1H90H76V90
		l-0.3-0.7l-15-15L60,74H45.4L31,59.6V45l-0.3-0.7L16.4,30l14.3-14.3L31,15V1h14h15h15h15H104 M1036,2.4l13,13v12.2l-13-13V2.4
		 M284,2.4V14h-11.6L284,2.4 M269.6,16L284,30.4v12.2l-13.3-13.3L269,30v14h-14h-15l-0.7,0.3L224.6,59H210l-1,1v14h-13.6L181,59.6
		V45V30V17.4l13.3,13.3h1.4L209,17.4V30l1,1h14v14l1.7,0.7l15-15L255.4,16H269.6 M12.6,31L1,42.6V31H12.6 M299,46v11.6L287.4,46H299
		 M1,47.4l13,13V75v15l0.3,0.7L29,105.4V120v15l0.3,0.7L43.6,150l-14.3,14.3v1.4L42.6,179H30l-0.7,0.3L14.6,194H1v-14v-15v-15v-15
		v-15v-15V90V75V60V47.4 M526,77.4L538.6,90l-14,14H510h-12.6l13-13H525l1-1V77.4 M1081,92.4l13,13v12.2l-13-13V92.4 M1019,92.4V104
		h-11.6L1019,92.4 M539,106v11.6L527.4,106H539 M989,107.4V119h-11.6L989,107.4 M511,107.4l11.6,11.6H511V107.4 M59,107.4V119H47.4
		L59,107.4 M1081,122.4l11.6,11.6H1081V122.4 M871,122.4l11.6,11.6H871V122.4 M241,122.4l11.6,11.6H241V122.4 M568,137.4V149h-11.6
		L568,137.4 M102.6,151L90,163.6L77.4,151H90H102.6 M1096,152.4l12.6,12.6l-12.6,12.6V165V152.4 M583,152.4V164h-11.6L583,152.4
		 M74,152.4v12.2l-13,13v-12.2L74,152.4 M1107.6,181l-11.6,11.6V181H1107.6 M297.6,181L286,192.6V181H297.6 M645,181.4l14,14V209
		h-13v-14l-1-1h-12.6L645,181.4 M792.6,196L781,207.6V196H792.6 M554.6,196l13,13H555h-15l-0.7,0.3L524.6,224H510l-1,1v14.6l-13,13
		V240v-14.6l14.4-14.4H525l0.7-0.3l14.7-14.7H554.6 M766,197.4l12.6,12.6L765,223.6L752.4,211H765l1-1V197.4 M672.6,211L661,222.6
		V211H672.6 M46,212.4l13,13V239H46v-14V212.4 M792.6,226L781,237.6V226H792.6 M466,227.4l11.6,11.6H466V227.4 M449,227.4V239h-11.6
		L449,227.4 M1077.6,241l-11.6,11.6V241H1077.6 M59,317.4V330v12.6L46.4,330L59,317.4 M194,332.4V345v12.6L181.4,345L194,332.4
		 M76,347.4L87.6,359H76V347.4 M1019,376v11.6l-11.6-11.6H1019 M91,407.4l11.6,11.6H91V407.4 M931,422.4l13.3,13.3l15,15l0.7,0.3
		h12.6l-13.3,13.3v1.4l14.3,14.3L961,492.6V480l-0.3-0.7L946,464.6V450l-0.3-0.7L931,434.6V422.4 M1017.6,496l-13.3,13.3l-0.3,0.7
		v14.6l-14.7,14.7L976,552.6V540v-15v-15v-12.6l13.3,13.3h1.4l14.7-14.7H1017.6 M1,527.4L13.6,540L1,552.6V540V527.4 M991,542.4
		l13,13V570v15l0.3,0.7l14.7,14.7v14.2l-14.7,14.7l-15,15L989,645v12.6l-13.3-13.3h-1.4l-15,15L946,672.6v-12.2l14.7-14.7l15-15
		l0.3-0.7v-14h14l1-1v-15v-15v-15v-15V542.4 M972.6,661L961,672.6V661H972.6 M945,676.4l13.6,13.6L946,702.6V690l-1-1h-12.6
		L945,676.4 M1035,0v15l15,15V15L1035,0L1035,0z M1020,0h-15h-15h-15h-15h-15h-15h-15h-15h-15v15v15v15v15l15,15h15v15l15-15l15-15
		v15v15l15,15V90V75l15-15v15l15,15h15l15-15l15-15V45h15l15,15v15l15,15V75V60l-15-15l-15-15h-15V15h-15V0L1020,0z M285,0l-15,15
		h15V0L285,0z M255,0h-15h-15h-15v15h15h15L255,0L255,0z M105,0H90H75H60H45H30v15L15,30l15,15v15l15,15h15l15,15v15h15h15v15v15
		l15,15l-15,15l-15,15v15l-15,15v15l-15,15h15v15l15-15v-15l15-15v-15l15-15h15l-15,15v15l-15,15v15v15H90l-15,15v15l-15,15v15
		l15-15l15,15v-15v-15l15,15l15,15l15,15v-15h15h15l15-15v15h15v15l15,15l15,15h-15h-15v15l15,15v15l-15,15h-15v-15l-15-15v-15
		l-15-15l-15-15v-15h-15v-15h-15l-15,15v15v15v15l15,15v15h15v15l-15,15H90l-15,15l-15-15v-15l-15-15H30v-15v-15l-15-15v-15v-15v-15
		v-15L0,285v15v15v15v15v15v15v15v15v15v15v15v15v15v15v15v15l15-15v-15l15-15v-15l15,15v-15h15l-15,15v15v15l-15,15v15v15l-15,15
		v15v15v15v15v15L0,660v15v15v15v15v15v15v15h15h15h15h15h15h15h15h15h15h15h15l15-15h15v-15v-15l-15-15v-15v-15l15-15h-15h-15h-15
		l-15-15l15-15h-15v-15v-15v-15l15-15l15,15v15v15v15l15,15h15l15,15l-15,15l15,15l15,15l15,15l15,15l15,15l15,15h15h15h15h15h15h15
		h15h15h15h15h15h15h15h15h15h15h15h15h15h15h15h15h15h15h15h15h15h15h15h15h15h15h15h15h15h15h15h15h15v-15h-15l15-15l-15-15
		l-15-15h-15l15-15v-15h15v-15h-15l-15,15l-15-15l15-15l15-15v15l15-15h15v15v15l15-15l15,15h-15l15,15v15l15-15l15-15l-15-15
		l-15-15h-15l15-15v-15v-15l15-15h15v-15v-15l15-15v-15v-15v-15l-15-15v-15v-15l-15-15h-15v15h-15h-15l15-15v-15v-15v-15v-15h15v-15
		h15v-15h15l15-15l-15-15v-15v-15h15v-15l15,15v15v15v15l15,15v15l15,15h15l15,15v-15l-15-15l15-15h-15v-15l-15-15h15l-15-15h-15
		v-15v-15v-15l15-15h-15v-15v-15v-15l-15-15h-15v-15v-15h15v-15h-15v-15l-15,15l-15,15h-15v15h-15v15l-15,15h15l-15,15v15h-15h-15
		v15h-15h-15l-15,15h-15l15,15h-15l-15,15l-15-15h-15l-15,15l-15-15l-15,15h-15l15-15l15-15h-15l-15-15h-15l-15,15h-15l-15,15h-15
		l-15,15l15,15l-15,15v-15v-15h-15l-15,15v15h15l-15,15v-15l-15,15l-15,15l-15-15h15l15-15v-15l15-15l15-15l-15-15v15h-15l-15,15v15
		l-15-15v-15l-15,15l-15-15v15l-15-15l-15-15l-15,15v-15h-15l-15-15v15l-15-15v15l-15-15l15-15l15-15v15l15,15h15v-15v-15v-15
		l-15-15h15v-15l-15-15l-15-15l-15-15v15l-15-15v15l-15-15h-15l-15-15l-15-15l-15,15V75l-15,15h-15v15l15,15h-15v15h-15l-15,15h15
		v15h15l15-15v15h15l15-15h15h15h15l15,15v15l-15-15h-15h-15l-15,15v15l15,15l15-15v15v15l-15,15v-15l15-15h-15l-15,15v-15l-15,15
		v-15h15l-15-15l-15,15h-15l15-15l-15-15l-15,15l-15-15v-15l-15-15h15l-15-15l15-15h15h15l-15-15h-15l-15,15l-15-15h15l-15-15h-15
		l-15-15l-15-15V45V30l-15,15l-15,15h-15h-15V45V30V15V0L105,0z M270,15h-15l-15,15l-15,15V30h-15V15l-15,15l-15-15v15v15v15l15,15
		h15V60h15l15-15h15h15V30l15,15V30L270,15L270,15z M15,30H0v15L15,30L15,30z M300,45h-15l15,15V45L300,45z M0,45v15v15v15v15v15v15
		v15v15v15v15h15l15-15h15l-15-15l15-15l-15-15v-15v-15L15,90V75V60L0,45L0,45z M525,75v15h-15l-15,15h15h15l15-15L525,75L525,75z
		 M1080,90v15l15,15v-15L1080,90L1080,90z M1020,90l-15,15h15V90L1020,90z M990,105l-15,15h15V105L990,105z M540,105h-15l15,15V105
		L540,105z M510,105v15h15L510,105L510,105z M60,105l-15,15h15V105L60,105z M1080,120v15h15L1080,120L1080,120z M870,120v15h15
		L870,120L870,120z M240,120v15h15L240,120L240,120z M569,135l-15,15h15V135L569,135z M1095,150v15v15l15-15L1095,150L1095,150z
		 M584,150l-15,15h15V150L584,150z M105,150H90H75l15,15L105,150L105,150z M75,150l-15,15v15l15-15V150L75,150z M1110,180h-15v15
		L1110,180L1110,180z M645,180l-15,15h15v15h15v-15L645,180L645,180z M300,180h-15v15L300,180L300,180z M795,195h-15v15L795,195
		L795,195z M765,195v15h-15l15,15l15-15L765,195L765,195z M555,195h-15l-15,15h-15l-15,15v15v15l15-15v-15h15l15-15h15h15L555,195
		L555,195z M675,210h-15v15L675,210L675,210z M45,210v15v15h15v-15L45,210L45,210z M795,225h-15v15L795,225L795,225z M465,225v15h15
		L465,225L465,225z M450,225l-15,15h15V225L450,225z M1080,240h-15v15L1080,240L1080,240z M60,315l-15,15l15,15v-15V315L60,315z
		 M195,330l-15,15l15,15v-15V330L195,330z M75,345v15h15L75,345L75,345z M1020,375h-15l15,15V375L1020,375z M90,405v15h15L90,405
		L90,405z M930,420v15l15,15v15l15,15v15l15-15l-15-15l15-15h-15l-15-15L930,420L930,420z M1020,495h-15l-15,15l-15-15v15v15v15v15
		l15-15l15-15v-15L1020,495L1020,495z M0,525v15v15l15-15L0,525L0,525z M990,540v15v15v15v15v15h-15v15l-15,15l-15,15v15l15-15
		l15-15l15,15v-15l15-15l15-15v-15l-15-15v-15v-15L990,540L990,540z M975,660h-15v15L975,660L975,660z M945,675l-15,15h15v15l15-15
		L945,675L945,675z"/>
	<linearGradient id="SVGID_1_" gradientUnits="userSpaceOnUse" x1="336.398" y1="73.898" x2="840.3839" y2="577.8839">
		<stop  offset="0" style="stop-color:#808080"/>
		<stop  offset="5.900258e-02" style="stop-color:#8A7C7E"/>
		<stop  offset="0.3688" style="stop-color:#BC6675"/>
		<stop  offset="0.64" style="stop-color:#E1576E"/>
		<stop  offset="0.8596" style="stop-color:#F74D6A"/>
		<stop  offset="1" style="stop-color:#FF4A68"/>
	</linearGradient>
	<path fill="url(#SVGID_1_)" d="M480,240h-15v-15L480,240z M495,240v15l15-15H495z M960,450l-15-15l-15-15v15l15,15H960z M960,120
		h-15l15,15V120z M525,210h-15l-15,15v15l15-15L525,210z M195,330l-15,15l15,15v-15V330z M1005,345l15,15v15l-15-15h-15l-15-15v-15
		l-15-15v-15v-15v-15l-15-15v15h-15v15v15l15,15l-15,15h-15v15h-15v15h-15v15v15v15v15l-15,15h15h15v-15h15l15,15v15v15l15,15v15v15
		v15l-15,15v15v15h-15l-15,15v-15v-15v-15l15,15v-15v-15v-15l-15-15v15l-15,15l-15-15h-15l-15-15l-15-15h-15h-15v15v15v15l-15,15
		h-15v-15l-15,15l-15,15h-15l-15-15h-15h-15l-15-15l-15,15h-15h-15l-15-15l-15,15l-15-15v15h-15l-15,15l-15,15l-15-15v15l-15,15v-15
		l-15,15v15l-15,15h-15h-15l-15-15v15h-15l15,15l-15,15l-15-15v15l-15-15l15-15h-15l-15,15v-15h-15l-15-15l-15,15l-15-15v15l-15-15
		l15-15h-15v-15l-15-15l-15-15h-15l15-15v-15v-15l15,15v-15h-15l15-15v-15v-15h15v15l15-15v-15h-15l-15-15l-15,15l-15,15v15v15
		l-15,15h-15l15-15h-15h-15v-15v-15l-15-15l15-15l15-15v-15l-15-15v-15h15h15l-15-15l-15-15v-15h-15v-15h-15l15-15l15-15l15-15v-15
		v-15l-15-15l15-15v-15l15,15l15,15h15v-15l15-15l15,15l-15,15h15l15-15l15,15h-15v15l15-15v15l15-15h15l-15,15v15l15-15v-15v-15
		l-15,15l-15-15v-15l15-15h15h15l15,15v-15h15l15-15l15,15l15,15v15v15v15h-15l-15-15v-15l-15,15l-15,15l15,15v-15l15,15v-15l15,15
		h15v15l15-15l15,15l15,15v-15l15,15l15-15v15l15,15v15v15h-15l15,15l15-15l15-15v15l15-15v15v15h15v-15v-15l15-15l15-15h-15l15-15
		l15,15h15v15l15-15l15-15h15l-15,15h15l15-15l15,15l15-15h15l15,15l15-15h15l-15-15h15l15-15h15h15v-15h15h15h15v15h15h15h15v-15
		l-15-15l15-15v-15h15h15l15,15v15v15v15h15l-15,15v15v15v15h15l15,15h-15l15,15v15h15L1005,345z M345,255l15-15v-15l-15,15V255z
		 M315,510h15h15v-15h15l-15-15h-15l-15,15V510z M465,600l-15-15v15H465z M480,555l-15-15h-15h-15v15l15-15l15,15H480z M720,480
		l-15,15l-15,15l-15,15h15l15-15l15-15V480z M450,225l-15,15h15V225z M285,180v15l15-15H285z M555,285v15h15L555,285z M405,135v15
		l15-15H405z M420,150v15h15L420,150z"/>
	<path fill="#F5F1F1" d="M405,150l15-15l15,15v15l-15-15v15L405,150z M255,135l-15-15v15H255z M0,75v15v15v15v15v15v15v15v15h15
		l15-15h15l-15-15l15-15l-15-15v-15v-15L15,90V75V60L0,45v15V75z M0,45l15-15H0V45z M1095,150v15v15l15-15L1095,150z M1080,120v15
		h15L1080,120z M255,135l-15,15h15v15h15l15-15v15h15l15-15h15h15h15l15,15h15l15-15v-15h15l-15-15l-15-15v15l-15-15v15l-15-15h-15
		l-15-15l-15-15l-15,15V75l-15,15h-15v15l15,15h-15v15H255z M1095,195l15-15h-15V195z M1095,120v-15l-15-15v15L1095,120z M210,75V60
		h15l15-15h15h15V30l15,15V30l-15-15h-15l-15,15l-15,15V30h-15V15l-15,15l-15-15v15v15v15l15,15H210z M285,0l-15,15h15V0z M45,210
		v15v15h15v-15L45,210z M240,15l15-15h-15h-15h-15v15h15H240z M300,45h-15l15,15V45z M135,315h15h15l15-15h-15l15-15l15-15l15-15
		v-15v-15l-15-15l15-15v-15l15,15l15,15h15v-15l-15-15v-15l-15-15h15l-15-15l15-15h15h15l-15-15h-15l-15,15l-15-15h15l-15-15h-15
		l-15-15l-15-15V45V30l-15,15l-15,15h-15h-15V45V30V15V0H90H75H60H45H30v15L15,30l15,15v15l15,15h15l15,15v15h15h15v15v15l15,15
		l-15,15l-15,15v15l-15,15v15l-15,15h15v15l15-15v-15l15-15v-15l15-15h15l-15,15v15l-15,15v15v15H90l-15,15v15l-15,15v15l15-15
		l15,15v-15v-15l15,15l15,15l15,15V315z M75,360h15l-15-15V360z M0,555l15-15L0,525v15V555z M60,345v-15v-15l-15,15L60,345z
		 M1005,510l15-15h-15l-15,15l-15-15v15v15v15v15l15-15l15-15V510z M960,450h-15v15l15,15v15l15-15l-15-15l15-15H960z M990,570v15
		v15v15h-15v15l-15,15l-15,15v15l15-15l15-15l15,15v-15l15-15l15-15v-15l-15-15v-15v-15l-15-15v15V570z M990,105l-15,15h15V105z
		 M945,690v15l15-15l-15-15l-15,15H945z M1050,15l-15-15v15l15,15V15z M1065,255l15-15h-15V255z M1020,105V90l-15,15H1020z
		 M1020,390v-15h-15L1020,390z M975,660h-15v15L975,660z M1065,75l15,15V75V60l-15-15l-15-15h-15V15h-15V0h-15h-15h-15h-15h-15h-15
		h-15h-15h-15v15v15v15v15l15,15h15v15l15-15l15-15v15v15l15,15V90V75l15-15v15l15,15h15l15-15l15-15V45h15l15,15V75z M90,405v15h15
		L90,405z M915,645l-15-15h-15l15-15v-15v-15v-15v-15v-15l15,15v-15v-15v-15l-15-15v15l-15,15l-15-15h-15l-15-15l-15-15h-15h-15v15
		v15v15l-15,15h-15v-15l-15,15l-15,15h-15l-15-15h-15h-15l-15-15l-15,15h-15h-15l-15-15v15h-15l-15-15v15h-15l-15,15l-15,15l-15-15
		v15l-15,15v-15l-15,15v15l-15,15h-15h-15l-15-15v15h-15l15,15l-15,15l-15-15v15l-15-15l15-15h-15l-15,15v-15h-15l-15-15l-15,15
		l-15-15v15l-15-15l15-15h-15v-15l-15-15l-15-15h-15h-15l-15-15v-15v-15l15-15h-15h-15v-15v-15l-15-15l15-15h-15v-15l-15-15v-15
		l-15-15l-15-15v-15h-15v-15h-15l-15,15v15v15v15l15,15v15h15v15l-15,15H90l-15,15l-15-15v-15l-15-15H30v-15v-15l-15-15v-15v-15v-15
		v-15L0,285v15v15v15v15v15v15v15v15v15v15v15v15v15v15v15v15l15-15v-15l15-15v-15l15,15v-15h15l-15,15v15v15l-15,15v15v15l-15,15
		v15v15v15v15v15L0,660v15v15v15v15v15v15v15h15h15h15h15h15h15h15h15h15h15h15l15-15h15v-15v-15l-15-15v-15v-15l15-15h-15h-15h-15
		l-15-15l15-15h-15v-15v-15v-15l15-15l15,15v15v15v15l15,15h15l15,15l-15,15l15,15l15,15l15,15l15,15l15,15l15,15h15h15h15h15h15h15
		h15h15h15h15h15h15h15h15h15h15h15h15h15h15h15h15h15h15h15h15h15h15h15h15h15h15h15h15h15h15h15h15h15v-15h-15l15-15l-15-15
		l-15-15h-15l15-15v-15h15v-15h-15l-15,15l-15-15l15-15l15-15v15l15-15h15v15v15l15-15l15,15h-15l15,15v15l15-15l15-15L915,645z
		 M60,120v-15l-15,15H60z M60,180l15-15v-15l-15,15V180z M105,150H90H75l15,15L105,150z"/>
</g>
</svg>
