<?xml version="1.0" encoding="utf-8"?>
<!-- Generator: Adobe Illustrator 21.1.0, SVG Export Plug-In . SVG Version: 6.00 Build 0)  -->
<svg version="1.1" id="Layer_1" xmlns="http://www.w3.org/2000/svg" xmlns:xlink="http://www.w3.org/1999/xlink" x="0px" y="0px"
	 viewBox="0 0 60 160" enable-background="new 0 0 60 160" xml:space="preserve">
<g>
	<path fill="#CCCCCC" d="M16.1,155.2v-9.1v-3.5c0-7.7,6.3-13.9,14-13.9c7.7,0,14,6.2,14,13.9v3.5v9.1H16.1z"/>
	<path fill="#FF4A68" d="M50.8,119.1H30.2v9.6c7.7,0,13.9,6.3,13.9,13.9v3.5v5.6h13.9v-31.1v-1.5H50.8z"/>
	<path fill="#FF667F" d="M16.1,146.1v-3.5c0-7.7,6.3-13.9,14-13.9c0,0,0,0,0.1,0v-9.6H9.6H2.4v1.5v31.1h13.7V146.1z"/>
	<rect x="2.4" y="151.7" fill="#8A2938" width="13.7" height="3.5"/>
	<rect x="44.1" y="151.7" fill="#8A2938" width="13.9" height="3.5"/>
	<polygon fill="#8A2938" points="30.2,55.4 39.1,55.4 33,21.5 30.2,18.1 	"/>
	<polygon fill="#FF4A68" points="30.2,18.1 27.3,21.5 21.2,55.4 30.2,55.4 	"/>
	<polygon fill="#8A2938" points="30.2,13.6 28.4,15.7 27.3,21.5 30.2,18.1 	"/>
	<polygon fill="#8A2938" points="30.2,18.1 33,21.5 31.9,15.7 30.2,13.6 	"/>
	<polygon fill="#FF667F" points="30.2,0 28.2,6 22,6 27,9.6 25.1,15.6 27.6,13.8 30.2,11.9 	"/>
	<polygon fill="#FF667F" points="32.7,13.8 35.2,15.6 33.3,9.6 38.4,6 32.1,6 30.2,0 30.2,11.9 	"/>
	<polygon fill="#CCCCCC" points="18.7,113.8 18.9,113.8 24.5,108.9 30.1,113.8 30.2,113.8 30.2,90.2 16,90.2 12.9,90.2 12.9,109.1 
		13.1,108.9 	"/>
	<polygon fill="#B3B3B3" points="30.2,113.8 30.3,113.8 35.9,108.9 41.5,113.8 41.6,113.8 47.2,108.9 47.4,109.1 47.4,90.2 
		44.3,90.2 30.2,90.2 	"/>
	<g>
		<rect x="10.9" y="108.8" fill="#8A2938" width="38.4" height="8"/>
	</g>
	<polygon fill="none" points="19.9,108.9 25,103.9 19.9,108.8 	"/>
	<path fill="none" d="M39.1,113.5v-0.9c0-2.1-1.7-3.8-3.8-3.8c-2.1,0-3.8,1.7-3.8,3.8v0.9v3.3h7.5V113.5z"/>
	<path fill="none" d="M49.4,113.5v-0.9c0-2.1-1.7-3.8-3.8-3.8c-2.1,0-3.8,1.7-3.8,3.8v0.9v3.3h7.5V113.5z"/>
	<path fill="none" d="M28.8,112.6c0-2.1-1.7-3.8-3.8-3.8c-2.1,0-3.8,1.7-3.8,3.8v0.9v3.3h7.5v-3.3V112.6z"/>
	<path fill="none" d="M18.5,112.6c0-2.1-1.7-3.8-3.8-3.8c-2.1,0-3.8,1.7-3.8,3.8v0.9v3.3h7.5v-3.3V112.6z"/>
	<polygon fill="#8A2938" points="6,88.5 3.5,102.3 8.4,102.3 	"/>
	<polygon fill="#8A2938" points="14.1,80.7 12.9,90.2 15.4,90.2 	"/>
	<polygon fill="#8A2938" points="46.2,80.7 45,90.2 47.4,90.2 	"/>
	<polygon fill="#8A2938" points="54.4,88.5 51.9,102.3 56.8,102.3 	"/>
	<polygon fill="#B3B3B3" points="40.5,108.8 40.4,108.8 40.5,108.9 	"/>
	<polygon fill="#B3B3B3" points="30.2,108.8 30.2,108.9 30.2,108.8 	"/>
	<polygon fill="#B3B3B3" points="30.1,108.8 30.2,108.9 30.2,108.8 	"/>
	<polygon fill="#B3B3B3" points="19.8,108.8 19.9,108.9 19.9,108.8 	"/>
	<rect x="16.3" y="63.2" fill="#FF667F" width="13.9" height="24.6"/>
	<rect x="30.2" y="63.2" fill="#FF4A68" width="13.9" height="24.6"/>
	<rect x="30.2" y="87.8" fill="#8A2938" width="15.1" height="2.4"/>
	<rect x="15.1" y="87.8" fill="#8A2938" width="15.1" height="2.4"/>
	<path fill="#FF667F" d="M10.9,116.8v-3.3v-0.9c0-2.1,1.7-3.8,3.8-3.8c2.1,0,3.8,1.7,3.8,3.8v0.9v3.3h2.8v-3.3v-0.9
		c0-2.1,1.7-3.8,3.8-3.8c2.1,0,3.8,1.7,3.8,3.8v0.9v3.3h1.4v-8l-5.2-5l-5.2,5l-5.1-5l-0.2,0.2l-5,4.8v-6.6H8.4H3.5H2.4v14.6h7.2
		H10.9z"/>
	<path fill="#FF4A68" d="M40.5,108.8L40.5,108.8l-5.2-4.9l-5.1,4.9l-0.1,0.1v8h1.4v-3.3v-0.9c0-2.1,1.7-3.8,3.8-3.8
		c2.1,0,3.8,1.7,3.8,3.8v0.9v3.3h2.8v-3.3v-0.9c0-2.1,1.7-3.8,3.8-3.8c2.1,0,3.8,1.7,3.8,3.8v0.9v3.3h1.4h7.2v-14.6h-1.1h-4.9h-1.1
		v6.6l-5-4.8l-0.2-0.2L40.5,108.8z"/>
	<polygon fill="#FF667F" points="40.4,108.8 35.3,103.9 40.5,108.9 	"/>
	<polygon fill="#FF667F" points="25,103.9 30.2,108.9 30.1,108.8 	"/>
	<polygon fill="#FF667F" points="14.7,103.9 19.9,108.9 19.8,108.8 	"/>
	<g>
		<rect x="17.2" y="55.3" fill="#8A2938" width="26" height="8"/>
	</g>
	<polygon fill="none" points="23.7,55.4 26.9,50.4 23.8,55.3 	"/>
	<path fill="none" d="M36.2,60v-0.9c0-2.1-1.1-3.8-2.5-3.8c-1.4,0-2.5,1.7-2.5,3.8V60v3.3h5.1V60z"/>
	<path fill="none" d="M43.2,60v-0.9c0-2.1-1.1-3.8-2.5-3.8c-1.4,0-2.5,1.7-2.5,3.8V60v3.3h5.1V60z"/>
	<path fill="none" d="M29.2,59.1c0-2.1-1.1-3.8-2.5-3.8c-1.4,0-2.5,1.7-2.5,3.8V60v3.3h5.1V60V59.1z"/>
	<path fill="none" d="M22.3,59.1c0-2.1-1.1-3.8-2.5-3.8c-1.4,0-2.5,1.7-2.5,3.8V60v3.3h5.1V60V59.1z"/>
	<polygon fill="#B3B3B3" points="36.7,55.3 36.6,55.3 36.6,55.4 	"/>
	<polygon fill="#B3B3B3" points="30.2,55.3 30.2,55.4 30.2,55.3 	"/>
	<polygon fill="#B3B3B3" points="30.1,55.3 30.2,55.4 30.2,55.3 	"/>
	<polygon fill="#B3B3B3" points="23.7,55.3 23.7,55.4 23.8,55.3 	"/>
	<polygon fill="#B3B3B3" points="49.4,116.8 41.8,116.8 39.1,116.8 31.5,116.8 30.2,116.8 30.2,123.3 50.8,123.3 57.9,123.3 
		60.3,123.3 60.3,116.8 57.9,116.8 50.8,116.8 	"/>
	<polygon fill="#CCCCCC" points="30.2,123.3 30.2,116.8 28.8,116.8 21.2,116.8 18.5,116.8 10.9,116.8 9.6,116.8 2.4,116.8 0,116.8 
		0,123.3 2.4,123.3 9.6,123.3 	"/>
	<path fill="#FF667F" d="M26.7,50.4l-3.5,5l-3.5-5l-0.1,0.2l-3.3,4.8v8h0.9V60v-0.9c0-2.1,1.1-3.8,2.5-3.8c1.4,0,2.5,1.7,2.5,3.8V60
		v3.3h1.9V60v-0.9c0-2.1,1.1-3.8,2.5-3.8c1.4,0,2.5,1.7,2.5,3.8V60v3.3h0.9v-8L26.7,50.4z"/>
	<path fill="#FF4A68" d="M43.2,63.3H44v-8l-3.3-4.8l-0.1-0.2l-3.4,4.9l-0.1,0.1l-3.5-5l-3.4,4.9l-0.1,0.1v8h0.9V60v-0.9
		c0-2.1,1.1-3.8,2.5-3.8s2.5,1.7,2.5,3.8V60v3.3h1.9V60v-0.9c0-2.1,1.1-3.8,2.5-3.8c1.4,0,2.5,1.7,2.5,3.8V60V63.3z"/>
	<circle fill="#E6E6E6" cx="30.1" cy="75.2" r="10.9"/>
	<path fill="#CCCCCC" d="M30.2,64.3v21.7c6,0,10.8-4.9,10.8-10.9C41,69.2,36.1,64.4,30.2,64.3z"/>
	<path fill="#B3B3B3" d="M30.2,128.7v26.5H44v-9.1v-3.5C44,135,37.8,128.7,30.2,128.7z"/>
</g>
</svg>
