<svg xmlns="http://www.w3.org/2000/svg" viewBox="0 0 500 500"><path fill="#868686" d="M113.7 270.9l-1.5 14.3-.5 11.1-2.9 7.6h-4.6l-7.4-13 2-20zM231.8 268.4l1.5 16.8.5 11.1 2.9 7.6h4.6l7.4-13-2-21.5z"/><path fill="#D9D9D9" d="M236.7 303.9l4.2-7.4.1-15.6-1.8-3.1-1.1 15.6-1.1 3.6-2 .8-3.2-2.5-.9-12.3.9-12.1h16l.9 20-7.4 13z"/><path fill="#B1B1B1" d="M220.6 287.7l-4.8 88.1-12.2 21-31.2 1.2V287.7z"/><path fill="#D9D9D9" d="M124.1 287.7l4.8 88.1 12.3 21 31.1 1.2V287.7z"/><path fill="#CECDCE" d="M190.2 98.4V77.6l-15.4 7.3-18.4-11.8v28.3L173 108z"/><path fill="#644BD6" d="M177.6 293.8s1.8-70.1.4-127.4c-.8-34.6-5.2-64.5-5.2-71.4-8.2-3.1-18.1-7.2-18.1-7.2l-.3 9.9-50.3 16.6-10.3 75.2-3.8 63.8 4.8 6.9v10.7h20.6l1.2-11.3 2.4-39.4 8.7-45.3-2.1 65.1-9 53.8h61z"/><path fill="#7557FF" d="M172.8 293.8l1.6-16.9-6.4-24 6.4-27.9-6.4-42.2 6.4-30.3-6.4-31.9s4.8-22.1 4.8-25.6c8.2-3.1 18.1-7.2 18.1-7.2l.3 9.9 50.3 16.6 10.3 75.2 3.9 63.9-4.8 6.9V271h-20.6l-1.2-11.3-2.4-39.4L218 175l2 65.1 9.1 53.8h-56.3z"/><path fill="#ECECEC" d="M173.3 86.6l-6.7-.8-11.5-5.4-5.5-16.3-2.4-.7-3.5-8.7 2.8-7.1h1.6l-.4-17.7 5.7-8.9 19.9-10.9z"/><path fill="#D9D9D9" d="M173.4 86.6l6.5-.8 11.5-5.4 5.5-16.3 2.4-.7 3.5-8.7-2.8-7.1h-1.6l.4-17.7-5.7-8.9-19.9-10.9v34.6l-4.7 18.1 4.7 4z"/><path fill="#282828" d="M125.8 234.9l46.4 7.1 47.6-7.1 1.7 14.2-50.2 7.1-47.2-7.3z"/><path fill="#644BD6" d="M116.6 260.7l-5.8-41.5-16 41z"/><path fill="#D9D9D9" d="M108.8 303.9l-4.2-7.4-.1-15.6 1.8-3.1 1.1 15.6 1.1 3.6 2 .8 1.6-.7.3-1.7 2.2-12.4-1.3-11.8-17.2-.3.7 20 7.4 13z"/><path fill="#583FB8" d="M228.9 260.1h21.9v12h-21.9zM94.7 260.1h21.9v12H94.7z"/><path d="M207 463.1v-67.8h-34.6v67.8l3.3 4.2-3.3 4.2 3.7 4.5-3.7 7.4V500h59.4v-10.4L203.6 476l3.4-4.5-3.8-4.2z"/><path fill="#222" d="M137.7 463.1v-67.8h34.7v67.8l-3.4 4.2 3.4 4.2-3.8 4.5 3.8 7.4V500h-59.5v-10.4l28.2-13.6-3.4-4.5 3.9-4.2z"/><path fill="#575756" d="M198.6 36l-8.4-8.4-18.7-5.8-15.9 3.2-7.4 6.4s-8-3-9.2-10.6c-.7-4.7 1-10.1 3.9-14 1.4-1.8 3-3.3 4.6-4.1 7.4-3.8 18.1-3.6 25.2.6 11.6 6.8 25.9 4.1 32.1 10.8 1.7 1.9 2.8 4.5 4.2 9.4 1.5 4.8-10.4 12.5-10.4 12.5z"/><path fill="#1D1D1B" d="M152.4 26.6s0 8.2 18.5 9.2c18.9 1 22.4-5.4 22.4-5.4s-7.4-8.9-21.9-9.6c-14.5-.6-19 5.8-19 5.8z"/><path fill="#3C3C3B" d="M147.7 34v-1.5s.4-13.8 21.7-13.9S198.5 33 198.5 33l.1 6.9s-9.2-13.6-29.2-14.1c-19-.4-21.7 8.2-21.7 8.2z"/><g><path fill="#6F6F6E" d="M180.3 81.3h-14l-15.8-14.6 3.2 60h39.6l2.7-60z"/></g><path fill="#6F6F6E" d="M180.9 73.1l-8.2-1.6-8.2 1.6v-2.6l5.8-2.6h4.9l5.7 2.6z"/><g><path fill="#E94C6A" d="M347 149.1h-23l-17-46.4h56.5z"/><path fill="#D9D9D9" d="M348.4 140v-19.7l-11.8 7-14-11.2v26.7l12.6 6.3z"/><path fill="#C6C6C5" d="M335.5 127.5l-6.4-.9-9.5-5.1-7-15.9-2.4-.6-3.4-8.6 2.7-6.8h1.6l4.5-15 3.6-4.6 16.3-7.5z"/><path fill="#D9D9D9" d="M335.6 127.5l6.3-.9 9.9-6.4 6.6-14.6 2.4-.6 3.4-8.6-2.7-6.8h-1.6l-4.8-15.9-3.8-5.6-15.8-6.6v28.8l-3.1 22.9 3.1.2z"/><path fill="#868686" d="M273.1 287.9l5.3 12.7.3 8.6-1.9 6.2-3.9.3-7.2-9.6.3-16.9z"/><path fill="#ECECEC" d="M276.8 315.4l-4.1-5.6-1.1-12 1.3-2.6 2 12.1 1.2 2.7 1.7.5 2.6-2.2-.1-9.6-4.6-15.2 6.2-30-15.2-.1-3.5 29.5.9 22 8.8 10.8z"/><path fill="#404696" d="M335.5 296.3V140c-7.8-3-17.1-6.9-17.1-6.9l-.3 6.1-35.7 15.7-19 61.7-3.5 28.3 4.5 6.5v10.2H284l1.2-10.7 7.6-43.3 2.4 17.8-12.9 70.8h53.2z"/><path fill="#322A84" d="M264.4 251h20.8v11.4h-20.8z"/><path fill="#B1B1B1" d="M397.9 287.9l-5.3 12.7-.3 8.6 2 6.2 3.9.3 7.1-9.6-.3-16.9z"/><path fill="#ECECEC" d="M394.3 315.4l4-5.6 1.1-12-1.3-2.6-2 12.1-1.1 2.7-1.8.5-2.5-2.2v-9.6l4.6-15.2-6.2-30 15.2-.1 3.5 29.5-.9 22-8.7 10.8z"/><path fill="#322A84" d="M335.5 296.3V140c7.8-3 17.1-6.9 17.1-6.9l.3 6.1 35.7 15.7 19 61.7 3.5 28.3-4.5 6.5v10.2H387l-1.2-10.7-7.6-43.3-2.4 17.8 12.9 70.8h-53.2z"/><path fill="#404696" d="M385.9 251h20.8v11.4h-20.8z"/><path fill="#575756" d="M316.5 81.6s9.8 3.4 13.1 3.3c2.8-.1 8.1-2 10.8-2.3 3.2-.3 12.8 0 12.8 0l-9.8-17.8h-16.5l-10.4 16.8z"/><path fill="#EB6580" d="M367.9 99.2c0-20-14.6-40.8-32.5-40.8-18.8 0-32.4 20.5-32.4 40.8 0 16 8.6 31 27.5 33.5l-7.7 14.3 11.8-10.9 11.8 10.9-7.5-14.2c19.7-2.1 29-18.7 29-33.6zm-32.4 28.3c-7.9 0-18.5-4.4-18.5-22.1 0-17.2 4.2-28 12.3-32.2 2.6-1.4 9.3-1.4 11.9 0 8.1 4.3 12.6 16.6 12.6 32.2 0 15.5-10.3 22.1-18.3 22.1z"/><path fill="#B1B1B1" d="M383.9 292.7h-97.7L251 499.6h165.5z"/><path fill="#EE7E93" d="M364.3 231.8h-58.8L275.8 451h115.8z"/></g><path fill="#EE7E93" d="M374.8 235.8h-84.4l.7-4h83z"/><g><path fill="#3C3C3B" d="M233.4 251.2l2.3-27.3 2.9-3.2.6-3.9 8.1-1.6 1.2-2 17.7 3.6 8.4 10.8v19.6l-18.5 11.4z"/><path fill="#ECECEC" d="M266.7 488.9l7.5-39-.8-4.6H254v54.4h30.9v-4.9z"/><path fill="#D9D9D9" d="M241.5 489.5l-7.7-39.6.9-4.6H254v54.4h-30.4v-4.9z"/><path fill="#868686" d="M216.5 379.2l1.7 11.2-1.3 7.1-1 5.5h-2.2l-4.1-8.9.7-14.3z"/><path fill="#D9D9D9" d="M215.9 403l-2.8-5-.1-10.4 1.2-2.1.8 10.4.7 2.4 1.3.6.8-1.7.6-8.2-.6-8.1h-8.5l-.6 13.4 5 8.7z"/><path fill="#D0D0D0" d="M264.9 273.1v-14l-9.4 5.9-10.9-7.9v19l9.7 4.4z"/><path fill="#BDCC49" d="M254.4 271.7c-5.5-2.1-12.8-4.5-12.8-4.5l-.2 6.5-21.8 11.3v.1l-.3.1-13.8 50.9L203 369l3.2 4.6v7.2H220l.8-7.6 5.8-47.7-.5 17-6.6 126.8h34.8c.1.1.1-186.3.1-197.6z"/><path fill="#868686" d="M292.3 379.2l-1.6 11.2 1.2 7.1 1.1 5.5h2.2l4.1-8.9-.7-14.3z"/><path fill="#D9D9D9" d="M293 403l2.8-5v-10.4l-1.2-2.1-.7 10.4-.7 2.4-1.4.6-.8-1.7-.5-8.2.5-8.1h8.6l.5 13.4-4.9 8.7z"/><path fill="#CFE051" d="M303.3 336.2l-13.8-50.9-.3-.1v-.1l-21.8-11.2-.2-6.5s-7.3 2.4-12.8 4.5v197.7h34.8l-6.6-126.8-.5-17 5.8 47.7.8 7.6h13.8v-7.2l3.2-4.6-2.4-33.1z"/><path fill="#D9D9D9" d="M254.5 266.1l-4.5-.5-6.5-3.7-3.8-11-1.6-.5-2.4-5.9 1.9-4.8h1.1l-.3-11.9 6.2-7.6 9.9-1.9z"/><path fill="#ECECEC" d="M254.6 266.1l4.4-.5 5.9-3.7 3.7-11 1.7-.5 2.3-5.9-1.9-4.8h-1l.2-11.9-6-7.6-9.4-1.9v19.6l-2.4 13.7 2.4 1.2z"/><path fill="#C4BD49" d="M257.7 281.5v48.3l-3.5 2-3.4-2v-48.3z"/><path fill="#C6C6C5" d="M206.2 373.6h14.7v8h-14.7zM288 373.6h14.7v8H288z"/><path fill="#3C3C3B" d="M235.7 243l14.6-9.5 8.4-7.4 2.8-7.8-12.3-1.5-8 3.7-2.8 5.8-1.5 6.5z"/><path fill="#3C3C3B" d="M255.6 223.2l5.3 6.7 11.7 16.5.9-3.4-2.3-12.7-2.8-7.4-6-4.6z"/></g><path fill="#C6C6C5" d="M273.1 287.9l5.3 12.7.3 8.6-1.9 6.2-3.9.3-7.2-9.6.3-16.9z"/><path fill="#ECECEC" d="M276.8 315.4l-4.1-5.6-1.1-12 1.3-2.6 2 12.1 1.2 2.7 1.7.5 2.6-2.2-.1-9.6-4.6-15.2 1.1-5-11.4-14.4-2.2 18.8.9 22 8.8 10.8z"/></svg>