<?xml version="1.0" encoding="utf-8"?>
<!-- Generator: Adobe Illustrator 21.1.0, SVG Export Plug-In . SVG Version: 6.00 Build 0)  -->
<svg version="1.1" id="Layer_1" xmlns="http://www.w3.org/2000/svg" xmlns:xlink="http://www.w3.org/1999/xlink" x="0px" y="0px"
	 viewBox="0 0 50 130" enable-background="new 0 0 50 130" xml:space="preserve">
<g>
	<polygon fill="#ECECEC" points="29.9,125.7 32.9,110.1 32.6,108.3 24.9,108.3 24.9,110.4 24.9,127.3 24.9,130 37.1,130 37.1,128 	
		"/>
	<polygon fill="#D9D9D9" points="20,125.9 17,110.1 17.3,108.3 24.9,108.3 24.9,110.4 24.9,127.3 24.9,130 12.9,130 12.9,128 	"/>
	<g>
		<polygon fill="#D0D0D0" points="29.2,21.8 29.2,16.2 25.5,18.6 21.2,15.4 21.2,23 25,24.8 		"/>
		<path fill="#ECECEC" d="M26.3,117.9c0,0,0.5-62.1,0.1-77.4C26.2,31.2,25,23.2,25,21.3c-2.2-0.8-4.8-1.9-4.8-1.9L20.1,22l-8.8,4.6
			l-5,18.5l7.9-2.4l-2.9,75.2H26.3z"/>
		<path fill="none" stroke="#1D1D1B" stroke-width="0.25" stroke-miterlimit="10" d="M19.6,116"/>
		<path fill="#D9D9D9" d="M25,117.9c0,0,0-94.7,0-96.6c2.2-0.8,4.8-1.9,4.8-1.9l0.1,2.6l8.8,4.6l4.8,18l-7.7-1.8l2.9,75.2H25z"/>
		<g>
			<polygon fill="#D9D9D9" points="25.1,19.1 23.4,18.8 20.8,17.4 19.3,13 18.6,12.8 17.7,10.4 18.5,8.5 18.9,8.5 18.8,3.8 
				21.2,0.7 25.1,0 			"/>
			<polygon fill="#ECECEC" points="25.2,19.1 26.9,18.8 29.2,17.4 30.7,13 31.3,12.8 32.3,10.4 31.5,8.5 31.1,8.5 31.2,3.8 
				28.8,0.7 25.1,0 25.1,7.8 24.2,13.3 25.1,13.7 			"/>
		</g>
		<polygon fill="#C6C6C5" points="26.4,25.2 26.4,44.5 25,45.3 23.7,44.5 23.7,25.2 		"/>
		<polygon fill="#D9D9D9" points="21.1,38 13.3,50.1 6,46.6 7,42.7 17.1,34.7 		"/>
		<polygon fill="#D0D0D0" points="24,35.7 28.4,35.7 29.2,33.4 28.8,32.4 25.5,32.2 27.2,31.6 26.8,30.9 24,31.1 21.3,32.3 
			17.6,35.7 20.7,37.9 21.4,35.7 		"/>
		<polygon fill="#C6C6C5" points="22,37 17.8,33.7 16.4,35.5 20.7,38.7 		"/>
		<polygon fill="#ECECEC" points="26.4,35.7 22,35.7 21.2,33.4 21.6,32.4 24.9,32.2 23.2,31.6 23.6,30.9 26.4,31.1 29.2,32.3 
			32.9,35.7 29.7,37.9 29,35.7 		"/>
		<polygon fill="#ECECEC" points="28.9,38 36.7,50.1 44,46.6 43,42.7 32.9,34.7 		"/>
		<polygon fill="#C6C6C5" points="28,37 32.2,33.7 33.6,35.5 29.3,38.7 		"/>
	</g>
	<g>
		<polygon fill="#3C3C3B" points="23,8.9 22.2,9.7 21.4,8.9 22.2,8.1 		"/>
		<polygon fill="#3C3C3B" points="28.6,8.9 27.8,9.7 27,8.9 27.8,8.1 		"/>
	</g>
	<polygon fill="#9C9B9B" points="22.2,8 20.3,8.9 20.5,9.2 22.3,8.3 23.8,9.2 24,8.9 22.4,8 	"/>
	<polygon fill="#9C9B9B" points="27.7,8 25.8,8.9 26,9.2 27.8,8.3 29.3,9.2 29.5,8.9 27.9,8 	"/>
</g>
</svg>
