<svg xmlns="http://www.w3.org/2000/svg" viewBox="0 0 50 130"><path fill="#868686" d="M9.4 68.6L9 72.4l-.2 3-.8 2.1H6.8l-2-3.5.6-5.4zM41 67.9l.4 4.5.1 3 .8 2.1h1.2l2-3.5-.5-5.8z"/><path fill="#D9D9D9" d="M42.3 77.5l1.1-2.1.1-4.1-.5-.9-.3 4.2-.3 1-.5.2-.9-.7-.2-3.3.2-3.2h4.3l.2 5.4-2 3.5z"/><path fill="#B1B1B1" d="M38 73.1l-1.3 23.6-3.3 5.6-8.3.4V73.1z"/><path fill="#D9D9D9" d="M12.1 73.1l1.3 23.6 3.3 5.6 8.4.4V73.1z"/><path fill="#CECDCE" d="M29.8 22.4v-5.6l-4.1 2-4.9-3.2v7.6l4.4 1.7z"/><path fill="#644BD6" d="M26.5 74.7s.5-18.8.1-34.1c-.2-9.3-1.4-17.3-1.4-19.1-2.2-.8-4.8-1.9-4.8-1.9l-.1 2.6-13.5 4.4L4 46.7 3 63.9l1.3 1.8v2.9h5.5l.3-3 .7-10.6 2.3-12.1-.6 17.5-2.4 14.4h16.4z"/><path fill="#7557FF" d="M25.2 74.7l.4-4.5-1.7-6.4 1.7-7.5L23.9 45l1.7-8.1-1.7-8.5s1.3-5.9 1.3-6.9c2.2-.8 4.8-1.9 4.8-1.9l.1 2.6 13.5 4.4 2.7 20.2 1 17.1-1.3 1.8v2.9h-5.5l-.3-3-.6-10.6-2.3-12.1.5 17.5 2.4 14.4h-15z"/><path fill="#ECECEC" d="M25.3 19.2l-1.8-.2-3-1.4-1.5-4.4-.7-.2-.9-2.4.7-1.9h.5L18.5 4 20 1.6 25.3 0z"/><path fill="#D9D9D9" d="M25.3 19.2l1.8-.2 3.1-1.4 1.4-4.4.7-.2.9-2.4-.7-1.9h-.4l.1-4.7-1.6-2.4L25.3 0v8L24 12.8l1.3 1.1z"/><path fill="#282828" d="M12.6 59L25 60.9 37.8 59l.4 3.8-13.4 1.9-12.7-2z"/><path fill="#644BD6" d="M10.1 65.8L8.6 54.7l-4.3 11z"/><path fill="#D9D9D9" d="M8 77.5l-1.1-2.1v-4.1l.5-.9.3 4.2.3 1 .5.2.4-.2.1-.4.6-3.4-.4-3.1-4.6-.1.2 5.4 2 3.5z"/><path fill="#583FB8" d="M40.2 65.7h5.9v3.2h-5.9zM4.3 65.7h5.9v3.2H4.3z"/><path d="M34.4 120.1v-18.2h-9.3v18.2l.9 1.1-.9 1.2 1 1.2-1 1.9v4.5H41v-2.8l-7.6-3.6 1-1.2-1.1-1.2z"/><path fill="#222" d="M15.8 120.1v-18.2h9.3v18.2l-.9 1.1.9 1.2-1 1.2 1 1.9v4.5h-16v-2.8l7.6-3.6-.9-1.2 1-1.2z"/><g><path fill="#6F6F6E" d="M27.2 17.9h-3.7L19.2 14l.9 16.1h10.6l.7-16.1z"/></g><path fill="#6F6F6E" d="M27.5 15.7l-2.2-.4-2.2.4V15l1.6-.7H26l1.5.7z"/><g fill="#3C3C3B"><path d="M21.78 8.269l.777-.778.778.778-.778.777zM27.388 8.29l.778-.778.778.778-.778.778z"/></g><path fill="#9C9B9B" d="M22.6 7.3l-1.9.9.1.3 1.8-.8 1.6.8.2-.3-1.7-.9zM28.1 7.3l-1.8.9.1.3 1.8-.8 1.6.8.2-.3-1.7-.9z"/></svg>