<svg xmlns="http://www.w3.org/2000/svg" viewBox="0 0 50 130"><path fill="#D9D9D9" d="M25.3 19.3l-1.8-.2-2.6-1.5-1.5-4.4-.6-.1-1-2.4.8-1.9h.4l-.1-4.7L21.3 1l4-.7z"/><path fill="#ECECEC" d="M25.3 19.3l1.8-.2 2.3-1.5 1.5-4.4.7-.1.9-2.4-.8-1.9h-.4l.1-4.7L29 1 25.3.3v7.8l-1 5.4 1 .5z"/><path fill="#C6C6C5" d="M38 73.1l-1.3 23.6-3.3 5.6-8.3.4V73.1z"/><path fill="#D9D9D9" d="M12.1 73.1l1.3 23.6 3.3 5.6 8.3.4V73.1zM34.3 120.1v-18.2h-9.2v18.2l.8 1.1-.8 1.2.9 1.2-.9 1.9v4.5H41v-2.8l-7.6-3.6.9-1.2-1-1.2z"/><path fill="#C6C6C5" d="M15.8 120.1v-18.2h9.3v18.2l-.9 1.1.9 1.2-1 1.2 1 1.9v4.5h-16v-2.8l7.6-3.6-.9-1.2 1-1.2z"/><path fill="#868686" d="M9.7 68.3l.6 4.5-.5 2.9-.4 2.2h-.9l-1.6-3.6.3-5.7z"/><path fill="#D9D9D9" d="M9.4 77.9l-1.1-2.1v-4.1l.4-.8L9 75l.3 1 .6.2.3-.7.2-3.2-.2-3.3H6.8l-.3 5.4 2 3.5z"/><path fill="#CECDCE" d="M29.4 22.1v-5.6L24.6 21l-3.3-5.3v7.5l3.9 1.8z"/><path fill="#ECECEC" d="M26.5 74.8s.5-18.8.1-34.1c-.2-9.3-1.4-17.3-1.4-19.1-2.2-.8-4.8-1.9-4.8-1.9l-.1 2.6-8.8 4.6-5.6 20.3-1.6 17.1 1.3 1.8V69h5.5l.3-3 3-23.1-.6 17.4-2.4 14.4h15.1z"/><path fill="#868686" d="M40.7 68.3l-.6 4.5.5 2.9.4 2.2h.9l1.6-3.6-.3-5.7z"/><path fill="#D9D9D9" d="M41 77.9l1.1-2.1v-4.1l-.4-.8-.3 4.1-.3 1-.6.2-.3-.7-.2-3.2.2-3.3h3.4l.3 5.4-2 3.5z"/><path fill="#ECECEC" d="M23.9 74.8s-.5-18.8-.1-34.1c.2-9.3 1.4-17.3 1.4-19.1 2.2-.8 4.8-1.9 4.8-1.9l.1 2.6 8.8 4.6 5.5 20.4L46 64.4l-1.3 1.8V69h-5.5l-.2-3-3-23.1.6 17.4L39 74.8H23.9z"/><path fill="#C6C6C5" d="M39 66.1h5.9v3.2H39zM5.5 66.1h5.9v3.2H5.5zM27.7 18.5h-4.5L19.7 14l1.6 14.1h8l1.4-14.3z"/><g fill="#3C3C3B"><path d="M19.2 48.4h-1.1l-2.4-8.7 1.9-12.3.4-.5 7-2.4.8.5v17.7l-.6.6h-.8l-.6-.6v-1.1h-.1l-2.3.7-2.2 6.1zm-2.4-8.7l1.9 6.6 1.7-4.5.4-.4 2.8-.9h.8l.2.2V25.8l-5.9 2-1.9 11.9z"/><path d="M31.2 48.4l-2.2-6-2.4-.7v1.1l-.6.6h-.8l-.6-.6V25.1l.8-.5 7 2.4.4.5 1.9 12.3v.2l-2.4 8.5-1.1-.1zm-5.1-7.9h.9l2.7.9.4.4 1.7 4.5 1.9-6.6-1.8-11.8-5.9-2v14.9l.1-.3z"/><path d="M23.8 44.1h2.8v3.1h-2.8zM24.3 19.8h1.8v2h-1.8zM22.303 8.797l.99-.99.99.99-.99.99zM26.095 8.78l.99-.99.99.99-.99.99zM24.3 22.8h1.8v2h-1.8zM23.7 48h3.1v3.4h-3.1zM23.7 52.3h3.1v3.4h-3.1zM23.7 56.6h3.1V60h-3.1zM26.7 63.3l-1.1.6-1.9-1v-2h3zM17.3 31.3l-3.6-2 .1-1.1 4.9-1.6.3 1.1-3.6 1.2 2.5 1.4z"/><path d="M9.103 45.895l4.803-17.243 1.156.321-4.803 17.244zM7.704 64.322l1.07-16.366 1.097.072L8.8 64.394zM8.3 66.1c.1.7.3 1.5.1 2.2l-.2 2.2-.4 4.3v-.2c.2.4.4.9.6 1.3.1.5.3 1 .4 1.5-.3-.4-.7-.8-1-1.2-.2-.4-.4-.9-.7-1.3v-.2l.4-4.3.2-2.2c0-.7.3-1.4.6-2.1z"/><path d="M8.3 66.4c.2.3.3.6.5.8.2.3.2.7.3 1l.5 1.8v.1l.1 2.5.1 1.3c0 .2 0 .4-.1.6-.1.2-.1.4-.2.6-.1-.2-.2-.4-.2-.6-.1-.2-.2-.4-.1-.6l-.1-1.3-.1-2.5v.1l-.5-1.8c-.1-.3-.2-.6-.2-.9v-1.1zM9.7 49l-.8-.1-1.3-1.7.1-.8 1.7-1.3.8.1 1.3 1.7-.1.8L9.7 49zm-.8-2l.6.7.7-.6-.6-.7-.7.6z"/><path d="M7.9 67.2l-1.5-1.5v-.8l1.5-1.5h.8l1.5 1.5v.8l-1.5 1.5h-.8zm-.3-1.8l.7.6.7-.7-.7-.7-.7.8zM42.3 66.1c.2.7.5 1.4.5 2.1l.2 2.2.4 4.3v.2c-.2.4-.5.9-.7 1.3-.3.4-.6.8-1 1.2.1-.5.3-1 .4-1.5.2-.4.5-.9.7-1.3v.2l-.4-4.3-.2-2.2c-.1-.7 0-1.5.1-2.2z"/><path d="M42.3 66.4v1c0 .3-.1.6-.2.9l-.5 1.8V70l-.1 2.5-.1 1.3c0 .2-.1.4-.1.6-.1.2-.1.4-.2.6-.1-.2-.1-.4-.2-.6 0-.2-.1-.4-.1-.6l.1-1.3.1-2.5v-.1l.5-1.8c.1-.3.1-.6.3-.9.2-.2.3-.5.5-.8z"/><path d="M42.7 67.2h-.8l-1.5-1.5v-.8l1.5-1.5h.8l1.5 1.5v.8l-1.5 1.5zm-1.1-1.8l.7.7.7-.7-.7-.7-.7.7zM17.579 75.472l1.088-.163 2.24 14.932-1.087.163zM19.9 93.3H21v33.3h-1.1z"/><path d="M20.8 93.7H20l-1.4-1.5v-.8l1.5-1.4h.8l1.4 1.5v.8l-1.5 1.4zm-1.1-1.9l.6.7.7-.6-.6-.7-.7.6zM29.457 90.294l2.249-14.933 1.088.164-2.249 14.932zM29.5 93.3h1.1v33.3h-1.1z"/><path d="M29.7 93.7l-1.5-1.4v-.8l1.4-1.5h.8l1.5 1.4v.8l-1.4 1.5h-.8zm-.3-1.8l.7.6.6-.7-.7-.6-.6.7zM20.8 129.9H20l-1.4-1.5v-.8l1.5-1.4h.8l1.4 1.5v.8l-1.5 1.4zm-1.1-1.9l.6.7.7-.7-.6-.7-.7.7zM29.7 129.9l-1.5-1.4v-.8l1.4-1.5h.8l1.5 1.4v.8l-1.4 1.5h-.8zm-.3-1.9l.7.6.6-.7-.7-.6-.6.7zM33.4 31.5l-.6-1 2.5-1.5-3.6-1.1.3-1.1 4.9 1.6.1 1z"/><path d="M35.63 29.09l1.156-.322 4.799 17.245-1.156.322zM40.768 48.157l1.098-.071 1.067 16.365-1.098.072z"/><path d="M41 49.2l-1.7-1.3-.1-.8 1.3-1.7.8-.1 1.7 1.3.1.8-1.3 1.7-.8.1zm-.5-1.9l.7.6.6-.7-.7-.6-.6.7zM23.9 12.9l1.3 1.3 1.3-1.3-1.3-2.8zM31.8 76.3l-.6-.1-4.2-3.5-1.8-.7-1.8.7-4.2 3.5-.6.1-1.7-.9-.3-.8 1.2-2.5V71l-2.2-2.5-.1-.4v-2.7l.1-.4 2.8-3.3.4-.2h3.4l.3.1 2.7 1.5 2.7-1.5.3-.1h3.4l.4.2 2.8 3.3.1.4v2.7l-.1.4-2.2 2.5v1.2l1.2 2.5-.3.8-1.7.8zm-6.4-5.4l2.2.9 4 3.4.9-.5-1-2.3v-1.5l.1-.4 2.2-2.5v-2.3l-2.5-2.9h-3l-2.8 1.5H25l-2.8-1.5h-3l-2.5 2.9V68l2.2 2.5.1.4-.1 1.8-1 2.1.9.5 4.1-3.5L25 71h.4zM19.7 128c-.3.3-.7.5-1 .8l-1.1.2-2.2.4-2.2.4-1.1.2c-.4-.1-.8-.2-1.2-.4.3-.3.7-.5 1-.8l1.1-.2 2.2-.4 2.2-.4 1.1-.2c.4.2.8.3 1.2.4zM30.8 128c.4-.2.8-.3 1.2-.4l1.1.2 2.2.4 2.2.4 1.1.2c.3.3.7.5 1 .8-.4.2-.8.3-1.2.4l-1.1-.2-2.2-.4-2.2-.4-1.1-.2c-.4-.2-.7-.5-1-.8z"/><path d="M27.9 15.6h-5.1l-.6-.6v-1.7l-2.3-3.2-.1-.4.6-4.7.3-.4 4.5-2.2h.5L30 4.6l.3.5.3 5-.1.4-1.9 2.9V15l-.7.6zm-4.5-1.2h4v-1.3l.1-.3 1.9-2.9-.2-4.5-3.7-2-4 2-.5 4.2 2.3 3.1.1.3v1.4z"/></g><path fill="#3C3C3B" d="M27.9 19.2h-5.1l-.6-.6v-2.1l.6-.6h5.1l.6.6v2.1l-.6.6zm-4.5-1.1h4v-.9h-4v.9z"/></svg>