<svg xmlns="http://www.w3.org/2000/svg" xmlns:xlink="http://www.w3.org/1999/xlink" viewBox="0 0 500 500"><path fill="#DCDCDC" d="M398.5 60.9l-3.4 34.9-31.6 1.6V74.1z"/><path fill="#DCDCDC" d="M411.7 37.5L408 24l-23.7-12.1-30 12.1-3.3 38.8 4.8.9v17.1l10.9.7L405 58.2z"/><path fill="#1D1D1B" d="M382.9 27.4s-7.8 13.8-23.1 16.3-7.2-10.5-7.2-10.5l10.2-5.7h20.1z"/><path fill="#575756" d="M409.4 32.8l12.3-2.7V19S386.4 1.7 385.6 1.7c-.6 0-24.1-1.7-24.1-1.7l-13.1 9.9V24l7.2 5.9 27.3-6.4 26.5 9.3z"/><path fill="#3C3C3B" d="M412.7 27.9l-.9 10.5s-18.1-9.3-29.6-9.3-29.5 4-29.5 4V22.4s11.9-5 27.9-5 32.1 10.5 32.1 10.5zM348.8 285.7l-23.2 4.5v35.6l19.9 41.6 3.3 28.3 36.3 1.3V285.7z"/><path fill="#646463" d="M374.7 365.6v31.2l-25.9-1.1-3.3-28.3 14.9-22.9z"/><path fill="#5C5C5C" d="M360.1 344.9v-59.2h-34.5v40.1l19.9 41.6z"/><path fill="#575756" d="M411.9 285.7l23.3 4.5v35.6l-19.9 41.6-3.4 28.3-31.5 1.3V285.7z"/><path fill="#6F6F6E" d="M415.3 367.4l-3.4 28.3-25.9 1.1v-33l13.3-19.3z"/><path fill="#3C3C3B" d="M399.3 344.5v-58.8H434l1.2 3.1v37.4l-19.9 41.2z"/><path fill="#81D9B1" d="M375.1 291.8s4.8-182 4.8-200.7c8.3-3.2 18.6-7.3 18.6-7.3v10l73.4 39.2-39.2 12.8-15.1 57.4 1.8 7 11.9 27.3 5.4 54.3h-61.6z"/><path fill="#77C9A5" d="M380 291.8V91.1c-8.3-3.2-18.6-7.3-18.6-7.3v10l-50.8 16.7-20.7 43.9 16.1 28.2 25.6-22.3 10.6 42.9-1.8 7-11.9 27.3-5.4 54.3H380z"/><path fill="#A5A4A4" d="M374.8 105.7v72.4l5.2 3 5.1-3v-72.4z"/><path fill="#F5F5F5" d="M376.332 154.274l3.606-3.607 3.606 3.607-3.606 3.606zM376.347 131.367l3.606-3.606 3.606 3.606-3.606 3.607zM377.325 101.573l2.616-2.617 2.616 2.617-2.616 2.616zM377.315 94.777l2.616-2.616 2.616 2.616-2.616 2.616z"/><path fill="#282828" d="M419.5 195.8h-79.2v14.3h79.2z"/><path fill="#3C3C3B" d="M357.1 102.4l-47.2 17v-10l47.2-17z"/><path fill="#6F6F6E" d="M330.2 135.9h33.2v8.1h-33.2z"/><path fill="#F5F5F5" d="M343.138 144.22l3.57-3.642 3.642 3.57-3.57 3.642z"/><path fill="#868686" d="M396 135.9h33.2v8.1H396z"/><path fill="#F5F5F5" d="M408.92 144.184l3.57-3.643 3.642 3.57-3.57 3.642zM391.1 193.5v2.2h-20.5v14.5h20.5v2.2h-22.4v-18.9z"/><path fill="#2B2B2B" d="M425.8 81.2l8.8 25.7-3.1 5.8L352 94.3l-8 8.1-6.8.2-38.1-7.9-20.7 1-28.1-5.1-98.2-6v-6.2h-4.4v3L20 76.2h125.4v-3h6.5v-4.3h3.2v4.3h183.7L343 78l22.3 6.3 20.7-4.1 39.8 1zm-85.5 9.7l-2.8 8.8 5.4-.1 5.9-6.5-8.5-2.2z"/><path fill="#D9D9D9" d="M343.9 95.5H413l-20.4 15.6h-11.2l-1.7 2.6H359l-4.6-11.5-11.5-2.6zM267.1 103l-7.7-13.6-38-2.3 5.7 7.9 18.7 3.7 2.9 4.3z"/><path fill="#77C9A5" d="M273 109.8h-27.6l39.3 66.2 21.4 6.5 13.2-19.8z"/><path fill="#81D9B1" d="M245.4 98.2h27.9v12.5h-27.9z"/><g><defs><path id="a" d="M425.8 81.2l8.8 25.7-3.1 5.8L352 94.3l-8 8.1-6.8.2-38.1-7.9-20.7 1-28.1-5.1-98.2-6v-6.2h-4.4v3L20 76.2h125.4v-3h6.5v-4.3h3.2v4.3h183.7L343 78l22.3 6.3 20.7-4.1 39.8 1zm-85.5 9.7l-2.8 8.8 5.4-.1 5.9-6.5-8.5-2.2z"/></defs><clipPath id="b"><use xlink:href="#a" overflow="visible"/></clipPath><path clip-path="url(#b)" fill="none" stroke="#ECECEC" stroke-width=".5" stroke-miterlimit="10" d="M147.6 81.7L20 76.6"/><path clip-path="url(#b)" fill="#1D1D1B" d="M149.7 80.9l98.9 5.5 28.7 4.4h22.4l39.8 6.4-6.6 6.6-184.4-10.1z"/></g><path fill="#D9D9D9" d="M244.2 92.1l-5.8-8.4-15.3-2.2-.5 7.3 8.7 4.6z"/><path fill="#99FFD3" d="M398.1 95.5h83.8l5.4 26.7-15.2 15-73.8-13.3-5.2-4.6z"/><path fill="#81D9B1" d="M386.4 94.6l-.2 30.4h12.3V94.6z"/><path d="M345.5 462.7v-68.4h34.9v68.4l-3.3 4.3 3.3 4.3-3.7 4.5 3.7 7.4V500h-60v-10.5l28.5-13.7-3.4-4.5 3.9-4.3z"/><path fill="#222" d="M415.4 462.7v-68.4h-35v68.4l3.4 4.3-3.4 4.3 3.8 4.5-3.8 7.4V500h60.1v-10.5L412 475.8l3.4-4.5-3.9-4.3z"/><ellipse transform="matrix(1 -.0055 .0055 1 -.135 1.98)" fill="#99FFD3" cx="360.4" cy="25.6" rx="4.5" ry="6.8"/></svg>