<svg xmlns="http://www.w3.org/2000/svg" xmlns:xlink="http://www.w3.org/1999/xlink" viewBox="0 0 500 500"><path fill="#3C3C3B" d="M343.2 289.3l-22.8 4.4v35l19.5 40.9 3.3 27.9 35.7 1.2V289.3z"/><path fill="#646463" d="M368.7 367.9v30.6l-25.5-1-3.3-27.9 14.7-22.5z"/><path fill="#5C5C5C" d="M354.3 347.5v-58.2h-33.9v39.4l19.5 40.9z"/><path fill="#575756" d="M405.3 289.3l22.8 4.4v35l-19.5 40.9-3.3 27.9-31 1.2V289.3z"/><path fill="#6F6F6E" d="M408.6 369.6l-3.3 27.9-25.5 1v-32.4l13-19z"/><path fill="#3C3C3B" d="M392.8 347.1v-57.8H427l1.1 3.1v36.7l-19.5 40.5z"/><path fill="#4100C2" d="M369.1 295.3s4.7-179 4.7-197.3c8.1-3.1 18.2-7.2 18.2-7.2v9.8l72.2 38.5-38.5 12.6-14.8 56.5 1.8 6.9 11.7 26.9 5.3 53.4h-60.6z"/><path fill="#309" d="M373.9 295.3V98c-8.1-3.1-18.2-7.2-18.2-7.2v9.8l-50 16.4-20.3 43.1 15.8 27.8 25.2-22 10.4 42.2-1.8 6.9-11.7 26.9-5.3 53.4h55.9z"/><g fill="#282828"><circle cx="350.1" cy="122.3" r="8.1"/><circle cx="397.5" cy="122.3" r="8.1"/><path d="M350.1 120.1h49.6v4.3h-49.6z"/><g><circle cx="350.1" cy="147.4" r="8.1"/><circle cx="397.5" cy="147.4" r="8.1"/><path d="M350.1 145.2h49.6v4.3h-49.6z"/></g><g><circle cx="350.1" cy="172.5" r="8.1"/><circle cx="397.5" cy="172.5" r="8.1"/><path d="M350.1 170.3h49.6v4.3h-49.6z"/></g></g><path fill="#DCDCDC" d="M392.1 68.4l-3.4 34.3-31 1.6v-23z"/><path fill="#DCDCDC" d="M405.1 45.4l-3.7-13.3-23.3-12-29.5 12-3.3 38.1 4.8.9v16.8l10.7.7 37.6-22.9z"/><path fill="#F5F5F5" d="M371.252 108.356l2.616-2.616 2.616 2.616-2.616 2.616zM371.23 101.665l2.617-2.617 2.616 2.617-2.616 2.616z"/><path fill="#282828" d="M412.7 200.9h-77.8V215h77.8z"/><path fill="#F5F5F5" d="M384.8 198.7v2.2h-20.1v14.2h20.1v2.2h-22v-18.6z"/><path fill="#2B2B2B" d="M418.9 88.3l8.7 25.3-3.1 5.7-78.1-18-7.8 7.9-6.7.2-37.5-7.8-20.3 1-27.7-5.1-96.6-5.9v-6.1h-4.3v3L20 83.4h123.3v-3h6.4v-4.2h3.2v4.2h180.6l4.2 4.7 21.9 6.2 20.3-4 39 1zm-84 9.5l-2.8 8.7 5.3-.1 5.8-6.4-8.3-2.2z"/><path fill="#D9D9D9" d="M338.5 102.4h67.8l-20 15.3h-11l-1.7 2.5h-20.3l-4.6-11.3-11.3-2.5zM262.9 109.7l-7.6-13.4-37.4-2.2 5.7 7.8 18.4 3.6 2.8 4.2z"/><path fill="#309" d="M268.7 116.4h-27.1l38.7 65 20.9 6.5 13-19.5z"/><path fill="#4100C2" d="M241.6 105.1h27.5v12.3h-27.5z"/><defs><path id="a" d="M418.9 88.3l8.7 25.3-3.1 5.7-78.1-18-7.8 7.9-6.7.2-37.5-7.8-20.3 1-27.7-5.1-96.6-5.9v-6.1h-4.3v3L20 83.4h123.3v-3h6.4v-4.2h3.2v4.2h180.6l4.2 4.7 21.9 6.2 20.3-4 39 1zm-84 9.5l-2.8 8.7 5.3-.1 5.8-6.4-8.3-2.2z"/></defs><clipPath id="b"><use xlink:href="#a" overflow="visible"/></clipPath><path clip-path="url(#b)" fill="none" stroke="#ECECEC" stroke-width=".5" stroke-miterlimit="10" d="M145.5 88.8L20 83.8"/><path clip-path="url(#b)" fill="#1D1D1B" d="M147.5 88l97.3 5.4 28.1 4.3H295l39 6.3-6.4 6.5-181.3-9.9z"/><path fill="#D9D9D9" d="M240.4 99.1l-5.7-8.3-15.1-2.2-.4 7.2 8.5 4.5z"/><path fill="#4D00E8" d="M391.7 102.4h82.4l5.3 26.2-15 14.8-72.5-13.1-5.2-4.6z"/><path fill="#4100C2" d="M380.2 101.4l-.2 29.9h12.1v-29.9z"/><path d="M339.9 463.4v-67.3h34.4v67.3l-3.3 4.1 3.3 4.3-3.7 4.4 3.7 7.3V500h-59v-10.4l28-13.4-3.4-4.4 3.9-4.3z"/><path fill="#222" d="M408.7 463.4v-67.3h-34.4v67.3l3.3 4.1-3.3 4.3 3.7 4.4-3.7 7.3V500h59v-10.4l-28-13.4 3.4-4.4-3.8-4.3z"/><path fill="#191919" d="M393.3 0l-42.1 25.7-4.7 11 58 19.1 2.9-14.9 18.2-28.4z"/></svg>