<svg xmlns="http://www.w3.org/2000/svg" xmlns:xlink="http://www.w3.org/1999/xlink" viewBox="0 0 500 500"><path fill="#3C3C3B" d="M148 297.4l24.8 4.3v33.6l-21.4 39.3-3.6 26.8-38.8 1.1.1-102v-3.2z"/><path fill="#646463" d="M120.1 372.9v29.5l27.7-1 3.6-26.8-15.9-21.7z"/><path fill="#5C5C5C" d="M135.8 353.4l.1-56h36.9v37.9l-21.4 39.3z"/><path fill="#575756" d="M80.4 297.3l-24.8 4.2-.1 33.7 21.3 39.3 3.5 26.8 33.7 1.3.1-102.1v-3.2z"/><path fill="#6F6F6E" d="M76.8 374.5l3.5 26.8 27.7 1 .1-31.1-14.2-18.3z"/><path fill="#3C3C3B" d="M93.9 352.9l.1-55.6H56.8l-1.2 2.9-.1 35.4 21.3 38.9z"/><path fill="#FF667F" d="M119.8 303.1s-4.9-172.1-4.9-189.8c-8.9-3-19.8-6.9-19.8-6.9v9.4l-78.6 36.9 41.9 12.2 16.1 54.3-1.9 6.6-12.8 25.8-5.9 51.4 65.9.1z"/><path fill="#FF8094" d="M114.6 303.1s.3-172.1.3-189.7c8.9-3 19.9-6.9 19.9-6.9v9.4l54.3 15.9 22 41.5-17.3 26.7-27.4-21.2-11.4 40.5 1.9 6.6 12.7 25.9 5.7 51.4-60.7-.1z"/><g fill="#FF4A68"><path d="M132 147.5l9.8-8.6-9.7-8.7-6.4 5.7h-21.5l-6.4-5.7-9.8 8.6 9.8 8.6 6.4-5.6h21.5zM132 171.3l9.8-8.6-9.8-8.7-6.4 5.7h-21.5l-6.3-5.7-9.8 8.6 9.7 8.6 6.4-5.6h21.5zM132 195.1l9.7-8.6-9.7-8.7-6.4 5.7h-21.5l-6.4-5.7-9.7 8.6 9.7 8.6 6.4-5.6h21.5z"/></g><path fill="#DCDCDC" d="M95.1 84.9l3.6 33 33.8 1.5v-22z"/><path fill="#DCDCDC" d="M81 62.8L85 50l25.4-11.5 23 8.3 10.3 15.7 2.3 24.2-5.2.9v16.1l-11.7.7-40.9-22.1z"/><path fill="#1D1D1B" d="M111.8 53.2s8.3 13.1 24.7 15.4c16.4 2.4 7.7-10 7.7-10l-11-5.4h-21.4z"/><path fill="#F5F5F5" d="M117.7 123.3l-2.8 2.5-2.8-2.5 2.8-2.5zM117.7 116.9l-2.8 2.5-2.8-2.5 2.8-2.5z"/><path fill="#282828" d="M72.5 212.3l84.6.1V226l-84.6-.2z"/><path fill="#3C3C3B" d="M139.4 124.2l50.4 16v-9.4l-50.4-16.1z"/><path fill="#F5F5F5" d="M102.9 210.2v2.1h21.8V226h-21.9v2l23.9.1.1-17.8z"/><path fill="#2B2B2B" d="M65.9 104l-9.5 24.3 3.3 5.5 85.1-17.3 8.5 7.6 7.3.2 40.8-7.4 22.1 1 30.1-4.8 105.1-5.5v-5.8h4.7v2.8L500 99.8l-134.2-.2v-2.9h-6.9v-4.1h-3.4v4.1L159 96.5l-4.5 4.6-23.8 5.9-22.1-3.9-42.7.9zm91.4 9.3l3 8.4-5.7-.1-6.3-6.1 9-2.2z"/><path fill="#D9D9D9" d="M153.4 117.7l-73.8-.1 21.7 14.7h12l1.9 2.5h22.1l5-10.9 12.3-2.4zM235.6 124.8l8.3-12.8 40.7-2.2-6.2 7.5-20 3.5-3.1 4z"/><path fill="#FF8094" d="M229.3 131.2h29.5l-42.2 62.6-22.8 6.1-14.1-18.7z"/><path fill="#3C3C3B" d="M228.925 132.11l.014-11.8 29.9.035-.014 11.8z"/><defs><path id="a" d="M65.9 104l-9.5 24.3 3.3 5.5 85.1-17.3 8.5 7.6 7.3.2 40.8-7.4 22.1 1 30.1-4.8 105.1-5.5v-5.8h4.7v2.8L500 99.8l-134.2-.2v-2.9h-6.9v-4.1h-3.4v4.1L159 96.5l-4.5 4.6-23.8 5.9-22.1-3.9-42.7.9zm91.4 9.3l3 8.4-5.7-.1-6.3-6.1 9-2.2z"/></defs><clipPath id="b"><use xlink:href="#a" overflow="visible"/></clipPath><path clip-path="url(#b)" fill="none" stroke="#ECECEC" stroke-width=".5" stroke-miterlimit="10" d="M363.5 104.8l136.5-4.6"/><path clip-path="url(#b)" fill="#1D1D1B" d="M361.3 104l-105.9 5.1-30.6 4.2-24.1-.1-42.5 6 7 6.3 197.3-9.3z"/><path fill="#D9D9D9" d="M260.1 114.6l6.3-8 16.3-2 .5 6.8-9.3 4.4z"/><path fill="#FF8094" d="M95.5 117.6l-89.7-.1L0 142.7l16.3 14.2 78.9-12.5 5.6-4.4z"/><path fill="#3C3C3B" d="M108 116.7l.2 28.8-13.2-.1v-28.7z"/><path d="M151.3 464.7l.1-64.7H114l-.1 9.6v55.1l3.5 4-3.6 4.1 4.1 4.2-4.1 7.1v15.8l64.2.1v-10l-30.4-12.9 3.7-4.3-4.2-4z"/><path fill="#222" d="M76.4 464.6l.1-64.7 37.5.1-.1 9.6v55.1l-3.6 4 3.5 4.1-4 4.2 4 7.1v15.8l-64.2-.1v-9.9L80.1 477l-3.7-4.3 4.2-4z"/><path fill="#3C3C3B" d="M80.7 68.6l-1.4-21.1L96.2 19l-.4-18 6.5-1 6.4 17.1L136.5 39l7.9 20.1-18.7.2-14 .1-15 4.2z"/><path fill="#FF4A68" d="M137.4 41.3l-.9 5.4-6.1 2.7 6.1 2.6 1 6 4.7-4.3h.1z"/><path fill="#1D1D1B" d="M78.6 47.7l31.8-9.2 6 22.6L81 70.5z"/></svg>