<?xml version="1.0" encoding="UTF-8"?>
<svg width="158px" height="62px" viewBox="0 0 158 62" version="1.1" xmlns="http://www.w3.org/2000/svg" xmlns:xlink="http://www.w3.org/1999/xlink">
    <!-- Generator: Sketch 48.2 (47327) - http://www.bohemiancoding.com/sketch -->
    <title>1917_logo</title>
    <desc>Created with Sketch.</desc>
    <defs></defs>
    <g id="Home-S2-Desktop-768-1260" stroke="none" stroke-width="1" fill="none" fill-rule="evenodd" transform="translate(-52.000000, -449.000000)">
        <g id="Group-42" transform="translate(52.000000, 449.000000)" fill="#245DFF">
            <g id="Group-6">
                <g id="Group-7" transform="translate(0.000000, 19.000000)">
                    <g id="Group-5">
                        <path d="M0.0144565264,13.6054069 C0.0144565264,13.6054069 5.30389402,11.1561756 8.63872688,8.47356768 C11.9735597,5.79130961 17.148122,0.0762035151 17.148122,0.0762035151 L16.9180264,27.7175272 L6.22393118,27.6010138 L6.91387281,13.2555167 L0.359427341,17.220822 L0.0144565264,13.6054069 Z" id="Fill-1"></path>
                        <path d="M55.5002762,13.6054069 C55.5002762,13.6054069 60.7897137,11.1561756 64.1245466,8.47356768 C67.4593794,5.79130961 72.6339417,0.0762035151 72.6339417,0.0762035151 L72.4038461,27.7175272 L61.7097509,27.6010138 L62.3996925,13.2555167 L55.845247,17.220822 L55.5002762,13.6054069 Z" id="Fill-4"></path>
                        <path d="M36.7568735,21.244664 C33.4796507,21.244664 31.1797303,16.462715 31.1797303,12.6723547 C31.1797303,8.88199448 33.2495552,4.85825748 36.2394173,4.85825748 C39.9192209,4.85825748 41.2991042,8.76513116 41.2991042,12.9057315 C41.2991042,17.0459819 40.0340962,21.244664 36.7568735,21.244664 M35.8368363,2.5255397 C27.3277862,2.5255397 23.9929534,8.29872756 23.9929534,13.4886485 C23.9929534,18.6789193 28.1326031,24.3352439 32.8473192,24.3352439 C37.5616904,24.3352439 39.8616108,22.8191698 39.8616108,22.8191698 C39.8616108,22.8191698 41.4139795,41.1884039 17.3808978,41.1884039 C17.0359269,41.1884039 17.4385079,42.9378547 17.4385079,42.9378547 C17.4385079,42.9378547 49.9806397,44.3374154 49.9806397,20.5448836 C49.9806397,7.3074887 44.3462314,2.5255397 35.8368363,2.5255397" id="Fill-7"></path>
                        <path d="M81.4880661,6.60760339 C79.9626051,8.79966532 78.0959681,10.2230185 78.0959681,10.2230185 L94.1943761,9.81504661 C94.1943761,9.81504661 85.0526495,16.9877952 85.8002013,26.2014531 C86.547753,35.415111 93.331949,39.6722248 98.4492461,39.6722248 C103.566198,39.6722248 105.636023,37.8062605 105.636023,37.8062605 C105.636023,37.8062605 94.7694424,38.1561507 94.7694424,27.0761785 C94.7694424,15.9962064 100.1741,7.30738373 106.325965,3.05026999 C87.9849014,2.99218822 83.7303764,2.23397622 83.7303764,2.23397622 C83.7303764,2.23397622 83.557891,3.63353691 81.4880661,6.60760339 Z" id="Fill-9"></path>
                    </g>
                    <path d="M115.342198,16.9358375 C116.041407,16.9358375 116.621084,16.764155 117.081247,16.4207848 C117.54141,16.0774147 117.850671,15.5872262 118.009039,14.9502046 L117.184335,14.9502046 C117.055848,15.335525 116.832493,15.633833 116.514264,15.8451377 C116.196034,16.0564425 115.806843,16.1620932 115.34668,16.1620932 C114.707233,16.1620932 114.199268,15.9173874 113.822771,15.4279684 C113.446274,14.9385494 113.258028,14.2821163 113.258028,13.4586494 C113.258028,12.6413974 113.447768,11.9872948 113.827253,11.4963221 C114.206738,11.0053494 114.711715,10.7598667 115.342198,10.7598667 C115.787421,10.7598667 116.176611,10.8833849 116.509781,11.1304249 C116.842952,11.377465 117.067801,11.7091773 117.184335,12.1255719 L118.009039,12.1255719 C117.889516,11.4792281 117.586978,10.9610732 117.101417,10.5710917 C116.615855,10.1811102 116.029455,9.98612241 115.342198,9.98612241 C114.457729,9.98612241 113.75106,10.3007442 113.222172,10.9299972 C112.693283,11.5592502 112.428843,12.4021258 112.428843,13.4586494 C112.428843,14.5244952 112.691789,15.3704782 113.21769,15.9966238 C113.74359,16.6227694 114.451753,16.9358375 115.342198,16.9358375 Z M120.921498,12.4704941 L119.74271,12.4704941 L119.74271,13.8874715 L120.796,13.8874715 C121.103771,13.8874715 121.332355,13.8284314 121.481759,13.7103493 C121.631163,13.5922673 121.705863,13.4120395 121.705863,13.1696606 C121.705863,12.9428188 121.638633,12.7695826 121.50417,12.6499468 C121.369706,12.530311 121.175484,12.4704941 120.921498,12.4704941 Z M120.863231,14.5586714 L119.74271,14.5586714 L119.74271,16.152771 L121.01114,16.152771 C121.614731,16.152771 121.916521,15.8901978 121.916521,15.3650434 C121.916521,15.0915903 121.829869,14.888834 121.65656,14.7567685 C121.483252,14.6247031 121.218812,14.5586714 120.863231,14.5586714 Z M118.971791,16.8239709 L118.971791,11.7992942 L121.020104,11.7992942 C121.468315,11.7992942 121.821649,11.9142671 122.080118,12.1442164 C122.338586,12.3741656 122.467818,12.6880105 122.467818,13.0857606 C122.467818,13.3405692 122.391623,13.5720687 122.239232,13.780266 C122.08684,13.9884633 121.900088,14.1174194 121.678971,14.1671381 L121.678971,14.204427 C121.980766,14.2479309 122.223543,14.3761102 122.40731,14.5889686 C122.591076,14.801827 122.682958,15.0651771 122.682958,15.3790267 C122.682958,15.8233881 122.535051,16.1752984 122.239232,16.4347682 C121.943412,16.6942379 121.540029,16.8239709 121.029068,16.8239709 L118.971791,16.8239709 Z M125.626792,16.870582 C124.9485,16.870582 124.407667,16.6383056 124.004277,16.173746 C123.600887,15.7091864 123.399195,15.0884881 123.399195,14.3116325 C123.399195,13.5316696 123.600887,12.9101944 124.004277,12.4471885 C124.407667,11.9841826 124.9485,11.7526831 125.626792,11.7526831 C126.305084,11.7526831 126.845917,11.9841826 127.249307,12.4471885 C127.652697,12.9101944 127.854388,13.5316696 127.854388,14.3116325 C127.854388,15.0884881 127.652697,15.7091864 127.249307,16.173746 C126.845917,16.6383056 126.305084,16.870582 125.626792,16.870582 Z M125.626792,16.1481099 C126.077991,16.1481099 126.429831,15.9857495 126.682323,15.6610239 C126.934815,15.3362983 127.061059,14.8865057 127.061059,14.3116325 C127.061059,13.733652 126.934815,13.2830825 126.682323,12.9599106 C126.429831,12.6367387 126.077991,12.4751552 125.626792,12.4751552 C125.175593,12.4751552 124.823753,12.6375156 124.571261,12.9622412 C124.318769,13.2869668 124.192524,13.7367594 124.192524,14.3116325 C124.192524,14.8865057 124.319516,15.3362983 124.573502,15.6610239 C124.827488,15.9857495 125.178581,16.1481099 125.626792,16.1481099 Z M130.843043,16.9125319 C130.104989,16.9125319 129.545481,16.6561735 129.164502,16.1434488 C128.783523,15.6307241 128.593036,14.8756318 128.593036,13.8781493 C128.593036,12.492239 128.786511,11.4877798 129.173466,10.8647417 C129.560422,10.2417035 130.226005,9.91154484 131.170235,9.87425577 L131.257636,9.86959466 C131.315903,9.86648724 131.373423,9.86415671 131.430196,9.862603 L131.515356,9.86027244 C131.745438,9.84784275 131.977757,9.81909953 132.21232,9.7740419 C132.446884,9.72898428 132.634383,9.66761361 132.774822,9.58992806 L132.774822,10.3030779 C132.697132,10.377656 132.542502,10.4429109 132.310926,10.4988445 C132.079351,10.5547781 131.826115,10.5889592 131.551213,10.6013889 L131.463812,10.6037195 C131.405545,10.6052732 131.347278,10.6076037 131.289011,10.6107112 L131.20161,10.6153723 C130.526306,10.6433391 130.057932,10.8251205 129.796476,11.1607221 C129.53502,11.4963237 129.354991,12.0432219 129.256385,12.8014329 L129.292242,12.8014329 C129.450609,12.5062278 129.675458,12.2824967 129.966795,12.130233 C130.258132,11.9779693 130.589056,11.9018386 130.959577,11.9018386 C131.610977,11.9018386 132.1294,12.1232392 132.514861,12.5660468 C132.900322,13.0088545 133.09305,13.6062475 133.09305,14.3582436 C133.09305,15.1475289 132.892105,15.7705577 132.49021,16.2273488 C132.088314,16.6841398 131.539264,16.9125319 130.843043,16.9125319 Z M130.843043,16.1900599 C131.306194,16.1900599 131.664011,16.03003 131.916503,15.7099656 C132.168995,15.3899011 132.295239,14.9393316 132.295239,14.3582436 C132.295239,13.8020151 132.168995,13.3731972 131.916503,13.0717773 C131.664011,12.7703573 131.306194,12.6196496 130.843043,12.6196496 C130.38288,12.6196496 130.025811,12.7703573 129.771825,13.0717773 C129.517839,13.3731972 129.390847,13.8020151 129.390847,14.3582436 C129.390847,14.9393316 129.517839,15.3899011 129.771825,15.7099656 C130.025811,16.03003 130.38288,16.1900599 130.843043,16.1900599 Z M136.014474,16.870582 C135.336181,16.870582 134.795348,16.6383056 134.391959,16.173746 C133.988569,15.7091864 133.786877,15.0884881 133.786877,14.3116325 C133.786877,13.5316696 133.988569,12.9101944 134.391959,12.4471885 C134.795348,11.9841826 135.336181,11.7526831 136.014474,11.7526831 C136.692766,11.7526831 137.233599,11.9841826 137.636989,12.4471885 C138.040378,12.9101944 138.24207,13.5316696 138.24207,14.3116325 C138.24207,15.0884881 138.040378,15.7091864 137.636989,16.173746 C137.233599,16.6383056 136.692766,16.870582 136.014474,16.870582 Z M136.014474,16.1481099 C136.465672,16.1481099 136.817513,15.9857495 137.070005,15.6610239 C137.322497,15.3362983 137.448741,14.8865057 137.448741,14.3116325 C137.448741,13.733652 137.322497,13.2830825 137.070005,12.9599106 C136.817513,12.6367387 136.465672,12.4751552 136.014474,12.4751552 C135.563275,12.4751552 135.211434,12.6375156 134.958942,12.9622412 C134.70645,13.2869668 134.580206,13.7367594 134.580206,14.3116325 C134.580206,14.8865057 134.707197,15.3362983 134.961183,15.6610239 C135.21517,15.9857495 135.566263,16.1481099 136.014474,16.1481099 Z M142.288497,16.152771 L142.288497,12.4704941 L140.455324,12.4704941 L140.432914,12.7944412 C140.417973,13.0104071 140.400045,13.2605508 140.379129,13.5448799 C140.358212,13.8292091 140.340284,14.0793528 140.325344,14.2953187 L140.302933,14.6192658 C140.282017,14.930008 140.239437,15.2174403 140.175194,15.4815712 C140.11095,15.7457021 140.020562,15.9570036 139.904027,16.1154821 L139.904027,16.152771 L142.288497,16.152771 Z M139.325838,18.1523872 L138.599741,18.1523872 L138.599741,16.152771 L139.003128,16.152771 C139.179424,16.0315815 139.313886,15.8272716 139.406516,15.539835 C139.499146,15.2523985 139.555919,14.9393304 139.576835,14.6006214 L139.605969,14.1764603 C139.625391,13.8936849 139.647054,13.5681873 139.670959,13.1999578 C139.694864,12.8317283 139.716527,12.5062307 139.735949,12.2234552 L139.765083,11.7992942 L143.059416,11.7992942 L143.059416,16.152771 L143.830334,16.152771 L143.830334,18.1523872 L143.104237,18.1523872 L143.104237,16.8239709 L139.325838,16.8239709 L139.325838,18.1523872 Z M147.764709,16.8239709 L148.535628,16.8239709 L148.535628,11.7992942 L147.764709,11.7992942 L147.764709,13.8781493 L145.353347,13.8781493 L145.353347,11.7992942 L144.582428,11.7992942 L144.582428,16.8239709 L145.353347,16.8239709 L145.353347,14.5493492 L147.764709,14.5493492 L147.764709,16.8239709 Z M151.28225,16.1667543 C151.676676,16.1667543 152.003118,16.0478972 152.261586,15.8101794 C152.520054,15.5724616 152.649286,15.2733767 152.649286,14.9129157 L152.649286,14.5073992 L151.385338,14.5912991 C150.650272,14.6379105 150.282745,14.9066985 150.282745,15.3976712 C150.282745,15.6307278 150.373133,15.8171704 150.553911,15.9570044 C150.734689,16.0968384 150.977467,16.1667543 151.28225,16.1667543 Z M151.116413,16.870582 C150.626369,16.870582 150.231949,16.7354111 149.933142,16.4650654 C149.634335,16.1947196 149.484934,15.8373715 149.484934,15.3930101 C149.484934,14.5073947 150.088515,14.0257515 151.295696,13.948066 L152.649286,13.864166 L152.649286,13.4446661 C152.649286,13.1308164 152.553669,12.8907717 152.362433,12.7245246 C152.171196,12.5582775 151.897792,12.4751552 151.542211,12.4751552 C151.261332,12.4751552 151.024531,12.5442943 150.8318,12.6825746 C150.63907,12.8208549 150.518802,13.0096279 150.470993,13.2488994 L149.722484,13.2488994 C149.734437,12.8231826 149.915959,12.4673881 150.267058,12.1815052 C150.618156,11.8956224 151.046191,11.7526831 151.551175,11.7526831 C152.121897,11.7526831 152.577571,11.8995066 152.918211,12.193158 C153.258852,12.4868094 153.429169,12.8806693 153.429169,13.3747494 L153.429169,16.8239709 L152.689625,16.8239709 L152.689625,15.9523433 L152.671697,15.9523433 C152.534245,16.2320113 152.325083,16.4549655 152.044205,16.6212126 C151.763326,16.7874597 151.454065,16.870582 151.116413,16.870582 Z M156.296807,14.3535825 L157.229081,14.3535825 L157.229081,12.4704941 L156.296807,12.4704941 C155.980072,12.4704941 155.726837,12.5567237 155.537094,12.7291857 C155.347351,12.9016476 155.252482,13.1401387 155.252482,13.4446661 C155.252482,13.708797 155.347351,13.9263133 155.537094,14.0972215 C155.726837,14.2681297 155.980072,14.3535825 156.296807,14.3535825 Z M157.229081,16.8239709 L157.229081,15.0247824 L156.355075,15.0247824 L155.122501,16.8239709 L154.226084,16.8239709 L155.575192,14.8756269 C155.234551,14.7761893 154.967123,14.6021763 154.772898,14.3535825 C154.578674,14.1049888 154.481563,13.8082344 154.481563,13.4633105 C154.481563,12.944371 154.645904,12.5373048 154.974592,12.2420997 C155.30328,11.9468946 155.744014,11.7992942 156.296807,11.7992942 L158,11.7992942 L158,16.8239709 L157.229081,16.8239709 Z M113.352152,28.0198421 L115.794889,24.2490041 L115.830746,24.2490041 L115.830746,28.0198421 L116.601664,28.0198421 L116.601664,22.9951655 L115.830746,22.9951655 L113.388009,26.7660035 L113.352152,26.7660035 L113.352152,22.9951655 L112.581233,22.9951655 L112.581233,28.0198421 L113.352152,28.0198421 Z M121.750684,24.5333318 C121.681959,24.1107224 121.473544,23.7409447 121.125433,23.4239876 C120.777323,23.1070305 120.314926,22.9485544 119.738228,22.9485544 C119.077864,22.9485544 118.545248,23.1823844 118.140364,23.6500514 C117.73548,24.1177185 117.533042,24.7368631 117.533042,25.5075038 C117.533042,26.296789 117.736227,26.9205947 118.142605,27.3789395 C118.548983,27.8372843 119.08384,28.0664532 119.747192,28.0664532 C120.282057,28.0664532 120.731008,27.9211834 121.094059,27.6306394 C121.457109,27.3400954 121.67897,26.9617725 121.759648,26.4956591 L120.984248,26.4956591 C120.906558,26.7691123 120.761638,26.9788601 120.549485,27.124909 C120.337332,27.2709578 120.071398,27.3439812 119.751674,27.3439812 C119.330356,27.3439812 118.98748,27.1808439 118.723035,26.8545646 C118.458591,26.5282853 118.326371,26.0792695 118.326371,25.5075038 C118.326371,24.9512752 118.457097,24.5061437 118.718553,24.1720958 C118.98001,23.8380479 119.321392,23.6710264 119.74271,23.6710264 C120.08335,23.6710264 120.357502,23.7533719 120.565173,23.9180653 C120.772844,24.0827586 120.909546,24.2878454 120.975283,24.5333318 L121.750684,24.5333318 Z M126.048108,22.9951655 L122.139729,22.9951655 L122.139729,23.6663653 L123.708459,23.6663653 L123.708459,28.0198421 L124.479378,28.0198421 L124.479378,23.6663653 L126.048108,23.6663653 L126.048108,22.9951655 Z M128.723017,28.0664532 C128.044724,28.0664532 127.503891,27.8341769 127.100502,27.3696173 C126.697112,26.9050576 126.49542,26.2843594 126.49542,25.5075038 C126.49542,24.7275408 126.697112,24.1060657 127.100502,23.6430598 C127.503891,23.1800539 128.044724,22.9485544 128.723017,22.9485544 C129.401309,22.9485544 129.942142,23.1800539 130.345532,23.6430598 C130.748921,24.1060657 130.950613,24.7275408 130.950613,25.5075038 C130.950613,26.2843594 130.748921,26.9050576 130.345532,27.3696173 C129.942142,27.8341769 129.401309,28.0664532 128.723017,28.0664532 Z M128.723017,27.3439812 C129.174216,27.3439812 129.526056,27.1816208 129.778548,26.8568952 C130.03104,26.5321695 130.157284,26.0823769 130.157284,25.5075038 C130.157284,24.9295233 130.03104,24.4789538 129.778548,24.1557819 C129.526056,23.83261 129.174216,23.6710264 128.723017,23.6710264 C128.271818,23.6710264 127.919978,23.8333868 127.667485,24.1581124 C127.414993,24.4828381 127.288749,24.9326307 127.288749,25.5075038 C127.288749,26.0823769 127.41574,26.5321695 127.669727,26.8568952 C127.923713,27.1816208 128.274806,27.3439812 128.723017,27.3439812 Z M134.203711,22.9485544 C134.819254,22.9485544 135.318254,23.1831612 135.700728,23.652382 C136.083201,24.1216027 136.274435,24.7399705 136.274435,25.5075038 C136.274435,26.2750371 136.084695,26.8934048 135.70521,27.3626256 C135.325724,27.8318463 134.831206,28.0664532 134.221639,28.0664532 C133.878011,28.0664532 133.573232,27.9910993 133.307294,27.8403894 C133.041355,27.6896794 132.832193,27.477601 132.679802,27.2041478 L132.661873,27.2041478 L132.661873,29.6978417 L131.881991,29.6978417 L131.881991,22.9951655 L132.621535,22.9951655 L132.621535,23.8108597 L132.639463,23.8108597 C132.779902,23.5498363 132.992052,23.3408653 133.275919,23.1839404 C133.559786,23.0270156 133.869047,22.9485544 134.203711,22.9485544 Z M134.060284,27.3439812 C134.487579,27.3439812 134.830455,27.1769597 135.088923,26.8429118 C135.347391,26.5088639 135.476623,26.0637324 135.476623,25.5075038 C135.476623,24.9512752 135.347391,24.5061437 135.088923,24.1720958 C134.830455,23.8380479 134.487579,23.6710264 134.060284,23.6710264 C133.644942,23.6710264 133.307295,23.8403784 133.047333,24.1790874 C132.787371,24.5177965 132.657391,24.9605975 132.657391,25.5075038 C132.657391,26.0544101 132.787371,26.4972111 133.047333,26.8359202 C133.307295,27.1746292 133.644942,27.3439812 134.060284,27.3439812 Z M137.976731,28.0198421 L140.419467,24.2490041 L140.455324,24.2490041 L140.455324,28.0198421 L141.226243,28.0198421 L141.226243,22.9951655 L140.455324,22.9951655 L138.012587,26.7660035 L137.976731,26.7660035 L137.976731,22.9951655 L137.205812,22.9951655 L137.205812,28.0198421 L137.976731,28.0198421 Z M144.116292,25.5494538 L145.048565,25.5494538 L145.048565,23.6663653 L144.116292,23.6663653 C143.799556,23.6663653 143.546321,23.752595 143.356578,23.9250569 C143.166835,24.0975189 143.071966,24.3360099 143.071966,24.6405373 C143.071966,24.9046682 143.166835,25.1221845 143.356578,25.2930927 C143.546321,25.464001 143.799556,25.5494538 144.116292,25.5494538 Z M145.048565,28.0198421 L145.048565,26.2206536 L144.174559,26.2206536 L142.941985,28.0198421 L142.045568,28.0198421 L143.394676,26.0714981 C143.054036,25.9720606 142.786607,25.7980476 142.592382,25.5494538 C142.398158,25.30086 142.301047,25.0041056 142.301047,24.6591818 C142.301047,24.1402422 142.465388,23.733176 142.794076,23.4379709 C143.122764,23.1427658 143.563498,22.9951655 144.116292,22.9951655 L145.819484,22.9951655 L145.819484,28.0198421 L145.048565,28.0198421 Z" id="Свободная-история"></path>
                </g>
                <path d="M2.18432963,3.91189162 C2.18432963,4.70099496 2.45540953,5.36978512 2.99756932,5.91826209 C3.5397291,6.46673906 4.2029537,6.74098014 4.9872431,6.74098014 C5.7715325,6.74098014 6.4347571,6.46673906 6.97691689,5.91826209 C7.51907668,5.36978512 7.79015657,4.70099496 7.79015657,3.91189162 C7.79015657,3.12278828 7.51907668,2.4548845 6.97691689,1.90817509 C6.4347571,1.36146567 5.7715325,1.08811097 4.9872431,1.08811097 C4.2029537,1.08811097 3.5397291,1.36146567 2.99756932,1.90817509 C2.45540953,2.4548845 2.18432963,3.12278828 2.18432963,3.91189162 Z M1,3.91189162 C1,2.8184728 1.38249632,1.89313788 2.14748382,1.13588169 C2.91247133,0.378625503 3.85905604,0 4.98723796,0 C6.11541988,0 7.0620046,0.378625503 7.8269921,1.13588169 C8.5919796,1.89313788 8.97447592,2.8184728 8.97447592,3.91189162 C8.97447592,5.00531045 8.5919796,5.93064537 7.8269921,6.68790156 C7.0620046,7.44515775 6.11541988,7.82378325 4.98723796,7.82378325 C3.85905604,7.82378325 2.91247133,7.44515775 2.14748382,6.68790156 C1.38249632,5.93064537 1,5.00531045 1,3.91189162 Z M12.0221611,3.47664724 L13.8012874,3.47664724 L13.8012874,7.71762608 L14.8750796,7.71762608 L14.8750796,3.47664724 L16.6542059,3.47664724 L16.6542059,2.5000013 L12.0221611,2.5000013 L12.0221611,3.47664724 Z M23.4969994,5.10881369 C23.4969994,5.83953059 23.7645684,6.47470603 24.2997117,7.01434003 C24.8348549,7.55397403 25.4656184,7.82378843 26.1920072,7.82378843 C26.4411534,7.82378843 26.6885467,7.78397949 26.9341871,7.70436162 C27.1798276,7.62474374 27.3798477,7.53805045 27.5342475,7.44427656 C27.6886473,7.35050267 27.8360305,7.24257794 27.9763972,7.1204972 C28.1167639,6.99841645 28.2079995,6.91172316 28.250109,6.86041214 C28.2922185,6.80910111 28.3238006,6.76929217 28.3448553,6.74098532 L27.6447849,6.03504016 L27.4816106,6.23673878 C27.3763369,6.36766768 27.2035142,6.5021317 26.9631374,6.64013601 C26.7227607,6.77814033 26.465719,6.84714249 26.1920072,6.84714249 C25.7533683,6.84714249 25.3735039,6.67905858 25.0524189,6.34289594 C24.731334,6.00673331 24.5707916,5.59537428 24.5707916,5.10881887 C24.5707916,4.62226346 24.731334,4.21090444 25.0524189,3.8747418 C25.3735039,3.53857916 25.7533683,3.37049525 26.1920072,3.37049525 C26.465719,3.37049525 26.7227607,3.44126497 26.9631374,3.58280959 C27.2035142,3.72435421 27.359672,3.8367056 27.4316107,3.91986378 C27.5035495,4.00302195 27.5570654,4.07291048 27.5921583,4.12952937 L28.2922287,3.4235842 L28.0658902,3.17411486 C27.9149961,3.00072309 27.66585,2.82645014 27.3184466,2.65129081 C26.9710432,2.47613148 26.5955686,2.38855182 26.1920175,2.38855182 C25.4656287,2.38855182 24.8348652,2.6592526 24.299722,3.20065415 C23.7645787,3.74205571 23.4969994,4.37809679 23.4969994,5.10881369 Z M35.4297784,5.10881369 C35.4297784,4.62225828 35.2701149,4.21089925 34.9507828,3.87473662 C34.6314508,3.53857398 34.2524653,3.37049007 33.8138264,3.37049007 C33.3751875,3.37049007 32.995323,3.53857398 32.6742381,3.87473662 C32.3531532,4.21089925 32.1926107,4.62225828 32.1926107,5.10881369 C32.1926107,5.5953691 32.3531532,6.00672813 32.6742381,6.34289076 C32.995323,6.6790534 33.3751875,6.84713731 33.8138264,6.84713731 C34.2524653,6.84713731 34.6314508,6.6790534 34.9507828,6.34289076 C35.2701149,6.00672813 35.4297784,5.5953691 35.4297784,5.10881369 Z M31.1188185,5.10881369 C31.1188185,4.37809679 31.3863876,3.74204016 31.9215308,3.2006386 C32.4566741,2.65923705 33.0874376,2.38853627 33.8138264,2.38853627 C34.5402152,2.38853627 35.1709787,2.65923705 35.706122,3.2006386 C36.2412652,3.74204016 36.5088343,4.37809679 36.5088343,5.10881369 C36.5088343,5.83953059 36.2412652,6.47470603 35.706122,7.01434003 C35.1709787,7.55397403 34.5402152,7.82378843 33.8138264,7.82378843 C33.0874376,7.82378843 32.4566741,7.55397403 31.9215308,7.01434003 C31.3863876,6.47470603 31.1188185,5.83953059 31.1188185,5.10881369 Z M43.1568713,3.85881304 C43.1568713,3.4589561 42.9831696,3.11394531 42.6357663,2.82378066 C42.2883629,2.533616 41.8163839,2.38853627 41.2198344,2.38853627 C40.8513763,2.38853627 40.5039729,2.45930599 40.1776243,2.60085061 C39.8512757,2.74239522 39.6407282,2.85562781 39.5459818,2.94055354 C39.4512355,3.02547928 39.3792967,3.09624899 39.3301707,3.15286788 L40.0355047,3.85881304 L40.1723606,3.7367323 C40.267107,3.65180656 40.4136112,3.56953476 40.6118785,3.48991688 C40.8101458,3.41029901 41.0127977,3.37049007 41.2198344,3.37049007 C41.5005627,3.37049007 41.714621,3.42622258 41.8620042,3.53768761 C42.0093875,3.64915263 42.0830791,3.79246481 42.0830791,3.96762414 C42.0830791,4.14278346 42.0093875,4.28609564 41.8620042,4.39756067 C41.714621,4.50902569 41.5005627,4.5647582 41.2198344,4.5647582 L40.6250377,4.5647582 L40.6250377,5.43524698 L41.2198344,5.43524698 C41.5777651,5.43524698 41.8470922,5.50248158 42.0278104,5.6369456 C42.2085286,5.77140961 42.2988903,5.93949352 42.2988903,6.14119214 C42.2988903,6.34289076 42.2085286,6.51097467 42.0278104,6.64543869 C41.8470922,6.77990271 41.5777651,6.84713731 41.2198344,6.84713731 C40.9812156,6.84713731 40.7434707,6.78786449 40.5066048,6.66932405 C40.2697388,6.55078361 40.115339,6.45435579 40.0434003,6.38004577 C39.9714615,6.30573575 39.9144399,6.24380901 39.8723304,6.19427073 L39.17226,6.90021589 L39.2459517,7.0010652 C39.3020994,7.0647595 39.3880712,7.14172345 39.5038723,7.23195704 C39.6196735,7.32219063 39.7547765,7.41153785 39.9091762,7.50000389 C40.063576,7.58846992 40.2574535,7.6645475 40.4908086,7.7282418 C40.7241636,7.7919361 40.9671722,7.82378325 41.2198292,7.82378325 C41.8865647,7.82378325 42.4120544,7.67074173 42.7963036,7.3646535 C43.1805527,7.05856527 43.3726773,6.68790156 43.3726773,6.25265717 C43.3726773,6.05449885 43.3349525,5.87579922 43.2595081,5.71656347 C43.1840636,5.55732772 43.1015974,5.43259305 43.0121148,5.34235946 C42.9226321,5.25212586 42.8208692,5.17427555 42.7068209,5.10881369 C42.5927726,5.04335183 42.5120645,5.00177533 42.4646913,4.9840842 C42.4173181,4.96639307 42.3795933,4.95400979 42.351522,4.94693437 L42.5568058,4.84608507 C42.6936617,4.78946618 42.8278857,4.67092574 42.9594779,4.49045855 C43.0910701,4.30999137 43.1568713,4.09943423 43.1568713,3.85881304 Z M45.8255607,6.74098014 L46.1992825,6.74096459 C46.2203373,6.71973316 46.2510404,6.68523208 46.2913971,6.63746135 C46.3317537,6.58969063 46.4019345,6.48264709 46.5019445,6.31633592 C46.6019546,6.15002475 46.6896844,5.97044394 46.7651289,5.77759348 C46.8405734,5.58474302 46.9090013,5.33085219 46.9704127,5.01592098 C47.0318241,4.70098978 47.0625272,4.370135 47.0625272,4.02335665 L47.0625272,2.5000013 L50.836591,2.5000013 L50.836591,6.74098014 L51.5892983,6.74098014 L51.5892983,9.02335924 L50.5155061,9.02335924 L50.5155061,7.71762608 L46.9046166,7.71762608 L46.9046166,9.02335924 L45.8255607,9.02335924 L45.8255607,6.74098014 Z M48.1415831,3.47663169 L48.141578,4.0233411 C48.141578,4.37011945 48.1126277,4.69920667 48.0547271,5.01060276 C47.9968266,5.32199884 47.9248878,5.57942998 47.838916,5.78289615 C47.7529441,5.98636233 47.6669723,6.16240803 47.5810004,6.31102806 C47.4950286,6.4596481 47.4239688,6.56580526 47.3678211,6.62949956 L47.2783384,6.74096459 L49.7575351,6.74096459 L49.7575351,3.47663169 L48.1415831,3.47663169 Z M58.8426593,7.71762608 L57.7636086,7.71763126 L57.7636086,7.17622971 C57.7495704,7.19038573 57.7258838,7.21338472 57.6925488,7.24523187 C57.6592138,7.27707902 57.5925388,7.32927123 57.4925287,7.40181369 C57.3925186,7.47435615 57.284613,7.53981801 57.1688119,7.59820445 C57.0530108,7.65659089 56.9073804,7.70878311 56.7319259,7.75478627 C56.5564714,7.80078944 56.3792588,7.82378843 56.2002935,7.82378843 C55.6739247,7.82378843 55.2370387,7.66986054 54.8896353,7.36200475 C54.542232,7.05414897 54.3685303,6.70206276 54.3685303,6.30574094 C54.3685303,5.87757197 54.5027543,5.51840515 54.7712024,5.2282405 C55.0396504,4.93807585 55.4072295,4.75406836 55.8739449,4.67621805 L57.7636086,4.34713083 C57.7636086,4.07112219 57.6627195,3.83934398 57.4609466,3.65180138 C57.2591736,3.46425878 57.0003739,3.37048489 56.6845527,3.37048489 C56.410841,3.37048489 56.1625687,3.42798496 55.939741,3.54299028 C55.7169132,3.65799561 55.5633873,3.77388212 55.4791683,3.89065501 L55.3370488,4.07643005 L54.6369784,3.37048489 C54.6580331,3.34217804 54.6869834,3.3059094 54.7238292,3.26167897 C54.760675,3.21744855 54.8431412,3.13959823 54.9712225,3.0281332 C55.0993038,2.91666818 55.2352807,2.81670524 55.3791531,2.72823921 C55.5230255,2.63977317 55.7133973,2.56104167 55.9502632,2.49203951 C56.1871291,2.42303735 56.4318906,2.38853627 56.6845476,2.38853627 C57.31619,2.38853627 57.8337842,2.57696524 58.2373353,2.95382319 C58.6408864,3.33068113 58.8426593,3.79511874 58.8426593,4.34713601 L58.8426593,7.71762608 Z M56.3634678,6.84714249 C56.8021067,6.84714249 57.1451305,6.7153324 57.3925238,6.45170704 C57.6399171,6.18808168 57.7636137,5.81211011 57.7636137,5.32378714 L57.7636137,5.21762997 L56.0897612,5.48833075 C55.8967576,5.5237182 55.7405998,5.60333607 55.6212879,5.72718437 C55.5019759,5.85103267 55.4423225,6.00672813 55.4423225,6.19427073 C55.4423225,6.36766249 55.5256625,6.51982283 55.6923476,6.65075173 C55.8590328,6.78168063 56.0827395,6.84714249 56.3634678,6.84714249 Z M61.8324337,3.47664724 L63.61156,3.47664724 L63.61156,7.71762608 L64.6853522,7.71762608 L64.6853522,3.47664724 L66.4644785,3.47664724 L66.4644785,2.5000013 L61.8324337,2.5000013 L61.8324337,3.47664724 Z M74.249472,5.48832556 L70.2069396,5.48832038 C70.2630873,5.85633017 70.4429316,6.17480167 70.7464727,6.44373489 C71.0500137,6.71266811 71.4105763,6.84713212 71.8281604,6.84713212 C72.1299434,6.84713212 72.4115507,6.77812996 72.6729822,6.64012565 C72.9344137,6.50212133 73.1195218,6.36765731 73.2283063,6.23672841 L73.3914807,6.03502979 L74.0915511,6.74097496 C74.0704963,6.76928181 74.0380352,6.80909074 73.9941728,6.86040177 C73.9503105,6.9117128 73.8564431,6.99840609 73.7125707,7.12048683 C73.5686983,7.24256757 73.4160514,7.3504923 73.2546299,7.44426619 C73.0932085,7.53804008 72.88354,7.62473338 72.6256193,7.70435125 C72.3676986,7.78396913 72.1018824,7.82377807 71.8281707,7.82377807 C71.0947653,7.82377807 70.4622438,7.55219092 69.9306114,7.0090218 C69.398979,6.46585269 69.1331628,5.81387248 69.1331628,5.05308118 C69.1331628,4.32059672 69.3919625,3.69338306 69.9095567,3.17144538 C70.4271509,2.6495077 71.048266,2.38853627 71.772902,2.38853627 C72.497538,2.38853627 73.1011091,2.63181138 73.5836155,3.1183668 C74.0661219,3.60492221 74.3073725,4.21443955 74.3073725,4.94692401 L74.249472,5.48832556 Z M71.7702547,3.3174063 C71.3807418,3.3174063 71.0535091,3.43329282 70.7885719,3.66507103 C70.5236347,3.89684924 70.3455483,4.19674323 70.2543128,4.56475302 L73.2493508,4.56475302 C73.1861866,4.19674323 73.0230123,3.89684924 72.7598279,3.66507103 C72.4966435,3.43329282 72.1667841,3.3174063 71.7702547,3.3174063 Z M78.102491,2.5000013 L78.102491,4.02335665 C78.102491,4.76999712 78.0595025,5.34944006 77.9735307,5.76168545 C77.8875588,6.17393085 77.7805323,6.44021014 77.6524509,6.56052332 C77.5243696,6.68083651 77.3497889,6.74099051 77.128714,6.74099051 C77.0234403,6.73745021 76.8988646,6.71798633 76.7549922,6.68259888 L76.7549922,7.71763126 L76.8497386,7.7388627 C76.909392,7.76009413 76.992732,7.77955801 77.0997586,7.79724914 C77.2067852,7.81494027 77.3076743,7.82378843 77.4024206,7.82378843 C77.7884226,7.82378843 78.1033649,7.72647942 78.3472473,7.53185622 C78.5911298,7.33723302 78.7911499,6.95241329 78.9473077,6.37739702 C79.1034655,5.80238076 79.1815418,5.01770409 79.1815418,4.02336702 L79.1815418,3.4766576 L81.0133049,3.4766576 L81.0133049,7.71763645 L82.0923608,7.71763645 L82.0923608,2.5000013 L78.102491,2.5000013 Z M90.4142555,5.48832556 L86.3717232,5.48832038 C86.4278709,5.85633017 86.6077152,6.17480167 86.9112562,6.44373489 C87.2147973,6.71266811 87.5753598,6.84713212 87.992944,6.84713212 C88.294727,6.84713212 88.5763343,6.77812996 88.8377658,6.64012565 C89.0991973,6.50212133 89.2843053,6.36765731 89.3930899,6.23672841 L89.5562642,6.03502979 L90.2563346,6.74097496 C90.2352799,6.76928181 90.2028188,6.80909074 90.1589564,6.86040177 C90.1150941,6.9117128 90.0212267,6.99840609 89.8773543,7.12048683 C89.7334819,7.24256757 89.580835,7.3504923 89.4194135,7.44426619 C89.2579921,7.53804008 89.0483236,7.62473338 88.7904029,7.70435125 C88.5324822,7.78396913 88.266666,7.82377807 87.9929543,7.82377807 C87.2595489,7.82377807 86.6270274,7.55219092 86.095395,7.0090218 C85.5637626,6.46585269 85.2979464,5.81387248 85.2979464,5.05308118 C85.2979464,4.32059672 85.5567461,3.69338306 86.0743403,3.17144538 C86.5919345,2.6495077 87.2130495,2.38853627 87.9376855,2.38853627 C88.6623215,2.38853627 89.2658927,2.63181138 89.7483991,3.1183668 C90.2309055,3.60492221 90.4721561,4.21443955 90.4721561,4.94692401 L90.4142555,5.48832556 Z M87.9350383,3.3174063 C87.5455254,3.3174063 87.2182927,3.43329282 86.9533555,3.66507103 C86.6884183,3.89684924 86.5103319,4.19674323 86.4190963,4.56475302 L89.4141344,4.56475302 C89.3509702,4.19674323 89.1877958,3.89684924 88.9246115,3.66507103 C88.6614271,3.43329282 88.3315677,3.3174063 87.9350383,3.3174063 Z M97.4465417,2.5000013 L94.7515338,5.92356995 L94.7515338,2.5000013 L93.672478,2.5000013 L93.672478,7.71762608 L94.6409964,7.71762608 L97.3360043,4.29405743 L97.3360043,7.71762608 L98.4150602,7.71762608 L98.4150602,2.5000013 L97.4465417,2.5000013 Z M96.0437691,0.870488774 C95.8279579,0.870488774 95.6481135,0.797065128 95.5042411,0.650212651 C95.3603687,0.503360175 95.2884299,0.322006619 95.2884299,0.106151984 L94.4830858,0.106151984 C94.4830858,0.541396371 94.630469,0.904098299 94.9252355,1.19426295 C95.220002,1.4844276 95.5937238,1.62950734 96.0464009,1.62950734 C96.499078,1.62950734 96.8727998,1.4844276 97.1675663,1.19426295 C97.4623328,0.904098299 97.609716,0.541396371 97.609716,0.106151984 L96.7991082,0.106151984 C96.7991082,0.325541736 96.7271694,0.507776479 96.583297,0.652856214 C96.4394246,0.797935948 96.2595802,0.870488774 96.0437691,0.870488774 Z M107.194891,3.47664724 L109.726724,3.47664724 L109.726724,7.71762608 L110.80578,7.71762608 L110.80578,2.5000013 L106.115835,2.5000013 L106.115835,7.71762608 L107.194891,7.71762608 L107.194891,3.47664724 Z M117.080095,7.82378325 C116.887092,7.82378325 116.699367,7.80077907 116.516891,7.75477591 C116.334415,7.70877274 116.178257,7.65127267 116.048418,7.58227051 C115.918578,7.51326835 115.803656,7.44249863 115.703646,7.36995617 C115.603636,7.29741371 115.530823,7.23991364 115.485203,7.19745078 L115.411511,7.1178329 L115.411511,10 L114.332456,10 L114.332456,2.49999611 L115.411511,2.49999611 L115.411511,3.09978411 C115.460638,3.05024583 115.529944,2.98478397 115.619427,2.90339853 C115.70891,2.8220131 115.899282,2.71585593 116.190537,2.58492703 C116.481793,2.45399813 116.778312,2.38853627 117.080095,2.38853627 C117.764375,2.38853627 118.358292,2.65304282 118.861853,3.1820611 C119.365414,3.71107938 119.617192,4.35244387 119.617192,5.10615976 C119.617192,5.85987565 119.365414,6.50124014 118.861853,7.03025842 C118.358292,7.5592767 117.764375,7.82378325 117.080095,7.82378325 Z M116.974837,3.37048489 C116.564269,3.37048489 116.201075,3.54033635 115.885254,3.88003929 C115.569432,4.21974223 115.411522,4.62933369 115.411522,5.10880851 C115.411522,5.58828332 115.569432,5.99787478 115.885254,6.33757772 C116.201075,6.67728066 116.564269,6.84713212 116.974837,6.84713212 C117.385404,6.84713212 117.748599,6.67728066 118.06442,6.33757772 C118.380241,5.99787478 118.538152,5.58828332 118.538152,5.10880851 C118.538152,4.62933369 118.380241,4.21974223 118.06442,3.88003929 C117.748599,3.54033635 117.385404,3.37048489 116.974837,3.37048489 Z M126.807389,5.10881369 C126.807389,4.62225828 126.647726,4.21089925 126.328394,3.87473662 C126.009062,3.53857398 125.630076,3.37049007 125.191437,3.37049007 C124.752798,3.37049007 124.372934,3.53857398 124.051849,3.87473662 C123.730764,4.21089925 123.570222,4.62225828 123.570222,5.10881369 C123.570222,5.5953691 123.730764,6.00672813 124.051849,6.34289076 C124.372934,6.6790534 124.752798,6.84713731 125.191437,6.84713731 C125.630076,6.84713731 126.009062,6.6790534 126.328394,6.34289076 C126.647726,6.00672813 126.807389,5.5953691 126.807389,5.10881369 Z M122.496429,5.10881369 C122.496429,4.37809679 122.763998,3.74204016 123.299142,3.2006386 C123.834285,2.65923705 124.465048,2.38853627 125.191437,2.38853627 C125.917826,2.38853627 126.54859,2.65923705 127.083733,3.2006386 C127.618876,3.74204016 127.886445,4.37809679 127.886445,5.10881369 C127.886445,5.83953059 127.618876,6.47470603 127.083733,7.01434003 C126.54859,7.55397403 125.917826,7.82378843 125.191437,7.82378843 C124.465048,7.82378843 123.834285,7.55397403 123.299142,7.01434003 C122.763998,6.47470603 122.496429,5.83953059 122.496429,5.10881369 Z M135.881986,5.48832556 L131.839454,5.48832038 C131.895601,5.85633017 132.075446,6.17480167 132.378987,6.44373489 C132.682528,6.71266811 133.04309,6.84713212 133.460675,6.84713212 C133.762458,6.84713212 134.044065,6.77812996 134.305496,6.64012565 C134.566928,6.50212133 134.752036,6.36765731 134.860821,6.23672841 L135.023995,6.03502979 L135.724065,6.74097496 C135.70301,6.76928181 135.670549,6.80909074 135.626687,6.86040177 C135.582825,6.9117128 135.488957,6.99840609 135.345085,7.12048683 C135.201212,7.24256757 135.048566,7.3504923 134.887144,7.44426619 C134.725723,7.53804008 134.516054,7.62473338 134.258133,7.70435125 C134.000213,7.78396913 133.734397,7.82377807 133.460685,7.82377807 C132.727279,7.82377807 132.094758,7.55219092 131.563126,7.0090218 C131.031493,6.46585269 130.765677,5.81387248 130.765677,5.05308118 C130.765677,4.32059672 131.024477,3.69338306 131.542071,3.17144538 C132.059665,2.6495077 132.68078,2.38853627 133.405416,2.38853627 C134.130052,2.38853627 134.733623,2.63181138 135.21613,3.1183668 C135.698636,3.60492221 135.939887,4.21443955 135.939887,4.94692401 L135.881986,5.48832556 Z M133.402769,3.3174063 C133.013256,3.3174063 132.686023,3.43329282 132.421086,3.66507103 C132.156149,3.89684924 131.978062,4.19674323 131.886827,4.56475302 L134.881865,4.56475302 C134.818701,4.19674323 134.655526,3.89684924 134.392342,3.66507103 C134.129158,3.43329282 133.799298,3.3174063 133.402769,3.3174063 Z M143.72488,2.5000013 L142.430013,2.5000013 L140.219264,4.83545898 L140.219264,2.5000013 L139.140209,2.5000013 L139.140209,7.71762608 L140.219264,7.71762608 L140.219264,6.25265717 L141.029872,5.38216839 L142.698461,7.71762608 L143.882791,7.71762608 L141.729943,4.67622323 L143.72488,2.5000013 Z M146.225132,3.47664724 L148.004258,3.47664724 L148.004258,7.71762608 L149.07805,7.71762608 L149.07805,3.47664724 L150.857176,3.47664724 L150.857176,2.5000013 L146.225132,2.5000013 L146.225132,3.47664724 Z M158,7.71762608 L156.920949,7.71763126 L156.920949,7.17622971 C156.906911,7.19038573 156.883224,7.21338472 156.849889,7.24523187 C156.816555,7.27707902 156.749879,7.32927123 156.649869,7.40181369 C156.549859,7.47435615 156.441954,7.53981801 156.326153,7.59820445 C156.210351,7.65659089 156.064721,7.70878311 155.889267,7.75478627 C155.713812,7.80078944 155.5366,7.82378843 155.357634,7.82378843 C154.831265,7.82378843 154.394379,7.66986054 154.046976,7.36200475 C153.699573,7.05414897 153.525871,6.70206276 153.525871,6.30574094 C153.525871,5.87757197 153.660095,5.51840515 153.928543,5.2282405 C154.196991,4.93807585 154.56457,4.75406836 155.031286,4.67621805 L156.920949,4.34713083 C156.920949,4.07112219 156.82006,3.83934398 156.618287,3.65180138 C156.416514,3.46425878 156.157715,3.37048489 155.841893,3.37048489 C155.568182,3.37048489 155.319909,3.42798496 155.097082,3.54299028 C154.874254,3.65799561 154.720728,3.77388212 154.636509,3.89065501 L154.494389,4.07643005 L153.794319,3.37048489 C153.815374,3.34217804 153.844324,3.3059094 153.88117,3.26167897 C153.918016,3.21744855 154.000482,3.13959823 154.128563,3.0281332 C154.256645,2.91666818 154.392621,2.81670524 154.536494,2.72823921 C154.680366,2.63977317 154.870738,2.56104167 155.107604,2.49203951 C155.34447,2.42303735 155.589231,2.38853627 155.841888,2.38853627 C156.473531,2.38853627 156.991125,2.57696524 157.394676,2.95382319 C157.798227,3.33068113 158,3.79511874 158,4.34713601 L158,7.71762608 Z M155.520808,6.84714249 C155.959447,6.84714249 156.302471,6.7153324 156.549864,6.45170704 C156.797258,6.18808168 156.920954,5.81211011 156.920954,5.32378714 L156.920954,5.21762997 L155.247102,5.48833075 C155.054098,5.5237182 154.89794,5.60333607 154.778629,5.72718437 C154.659317,5.85103267 154.599663,6.00672813 154.599663,6.19427073 C154.599663,6.36766249 154.683003,6.51982283 154.849688,6.65075173 C155.016373,6.78168063 155.24008,6.84714249 155.520808,6.84714249 Z" id="От-создателей-проект"></path>
            </g>
        </g>
    </g>
</svg>