<svg width="18" height="18" viewBox="0 0 18 18" version="1.1" xmlns="http://www.w3.org/2000/svg" xmlns:xlink="http://www.w3.org/1999/xlink">
<title>Group 11</title>
<desc>Created using Figma</desc>
<g id="Canvas" transform="translate(-23982 -1091)">
<g id="Group 11">
<g id="Line 2">
<use xlink:href="#path0_stroke" transform="translate(23990 1092)" fill="#494949"/>
</g>
<g id="Line 2 Copy">
<use xlink:href="#path1_stroke" transform="translate(23983 1099)" fill="#494949"/>
</g>
</g>
</g>
<defs>
<path id="path0_stroke" d="M 2 0L 2 -1L 0 -1L 0 0L 2 0ZM 0 16L 0 17L 2 17L 2 16L 0 16ZM 0 0L 0 16L 2 16L 2 0L 0 0Z"/>
<path id="path1_stroke" d="M 0 0L -1 0L -1 2L 0 2L 0 0ZM 16 2L 17 2L 17 0L 16 0L 16 2ZM 0 2L 16 2L 16 0L 0 0L 0 2Z"/>
</defs>
</svg>
