<?xml version="1.0" encoding="UTF-8"?>
<svg width="690px" height="397px" viewBox="0 0 690 397" version="1.1" xmlns="http://www.w3.org/2000/svg" xmlns:xlink="http://www.w3.org/1999/xlink">
    <!-- Generator: Sketch 48.2 (47327) - http://www.bohemiancoding.com/sketch -->
    <title>icon-12</title>
    <desc>Created with Sketch.</desc>
    <defs>
        <linearGradient x1="0%" y1="50.0169779%" x2="100%" y2="50.0169779%" id="linearGradient-1">
            <stop stop-color="#454545" offset="0%"></stop>
            <stop stop-color="#878787" offset="100%"></stop>
        </linearGradient>
    </defs>
    <g id="-" stroke="none" stroke-width="1" fill="none" fill-rule="evenodd">
        <g id="Group-50">
            <g id="icon-12" transform="translate(344.736709, 198.500000) scale(-1, 1) translate(-344.736709, -198.500000) ">
                <path d="M70.7681112,386.949367 L279.998977,386.949367 C340.694737,341.769139 365.635171,262.711142 341.875629,190.808267 C318.116088,118.905392 251.00863,70.3544304 175.383544,70.3544304 C99.7584585,70.3544304 32.6510003,118.905392 8.89145916,190.808267 C-14.868082,262.711142 10.0723518,341.769139 70.7681112,386.949367 Z" id="Shape" fill="#FFB3BF" fill-rule="nonzero"></path>
                <path d="M114.321348,386.949367 L209.309032,386.949367 C257.769407,364.597863 284.164344,311.467675 272.74341,259.262747 C261.322475,207.05782 215.16543,169.855696 161.81519,169.855696 C108.46495,169.855696 62.3079046,207.05782 50.88697,259.262747 C39.4660355,311.467675 65.8609731,364.597863 114.321348,386.949367 Z" id="Shape" fill="#F0FF85" fill-rule="nonzero"></path>
                <path d="M161.81519,188.449367 C161.81519,150.981391 192.188986,120.607595 229.656962,120.607595 C267.124938,120.607595 297.498734,150.981391 297.498734,188.449367 C297.498734,225.917343 267.124938,256.291139 229.656962,256.291139 C192.188986,256.291139 161.81519,225.917343 161.81519,188.449367" id="Shape" fill="#FF8094" fill-rule="nonzero"></path>
                <path d="M200.007595,236.694072 C200.007595,190.555844 227.678157,148.960683 270.116541,131.304347 C312.554926,113.648012 361.403619,123.407615 393.884552,156.032269 C426.365485,188.656923 436.082094,237.721761 418.50354,280.347926 C400.924986,322.97409 359.513063,350.767089 313.578087,350.767089 C283.45732,350.767089 254.570221,338.748716 233.271622,317.355876 C211.973023,295.963035 200.007595,266.948117 200.007595,236.694072" id="Shape" fill="#FF4A68" fill-rule="nonzero"></path>
                <path d="M269.356967,273.409218 C269.344561,236.414546 291.620066,203.055711 325.795126,188.889866 C359.970186,174.724021 399.313543,182.541328 425.477114,208.696126 C451.640685,234.850923 459.471187,274.191656 445.316806,308.371465 C431.162424,342.551275 397.811062,364.837967 360.816388,364.83797 C336.562662,364.846106 313.299522,355.217053 296.146671,338.069954 C278.99382,320.922855 269.356966,297.662946 269.356967,273.409218" id="Shape" fill="#FF667F" fill-rule="nonzero"></path>
                <path d="M250.712657,386.949367 L315.137976,386.949367 C340.015045,372.194485 352.05627,342.35914 344.520806,314.145568 C336.985342,285.931997 311.743216,266.341772 282.925316,266.341772 C254.107417,266.341772 228.865291,285.931997 221.329827,314.145568 C213.794363,342.35914 225.835588,372.194485 250.712657,386.949367 Z" id="Shape" fill="#ECFF5C" fill-rule="nonzero"></path>
                <path d="M262.93891,385.944304 C284.867129,353.852696 279.497804,310.41285 250.419185,284.655055 C221.340565,258.89726 177.669561,258.89726 148.590942,284.655055 C119.512322,310.41285 114.142997,353.852696 136.071217,385.944304 L262.93891,385.944304 Z" id="Shape" fill="#FFE200" fill-rule="nonzero"></path>
                <path d="M382.297229,387.95443 C393.066617,360.777215 384.686951,329.612624 361.830226,311.836152 C338.9735,294.059679 307.282196,294.059679 284.425471,311.836152 C261.568745,329.612624 253.189079,360.777215 263.958468,387.95443 L382.297229,387.95443 Z" id="Shape" fill="#FF8094" fill-rule="nonzero"></path>
                <path d="M163.825316,123.120253 C163.825316,85.0971959 194.649095,54.2734177 232.672152,54.2734177 C270.695209,54.2734177 301.518987,85.0971959 301.518987,123.120253 C301.518987,161.14331 270.695209,191.967089 232.672152,191.967089 C194.649095,191.967089 163.825316,161.14331 163.825316,123.120253" id="Shape" fill="#F24763" fill-rule="nonzero"></path>
                <path d="M429.321391,386.949367 C436.464728,367.052198 429.889708,344.757178 413.148842,332.1104 C396.407976,319.463622 373.470505,319.463622 356.729639,332.1104 C339.988773,344.757178 333.413753,367.052198 340.55709,386.949367 L429.321391,386.949367 Z" id="Shape" fill="#ECFF5C" fill-rule="nonzero"></path>
                <path d="M108.546835,10.5531646 C108.546835,4.72481271 113.271648,0 119.1,0 C124.928352,0 129.653165,4.72481271 129.653165,10.5531646 C129.653165,16.3815164 124.928352,21.1063291 119.1,21.1063291 C113.271648,21.1063291 108.546835,16.3815164 108.546835,10.5531646" id="Shape" fill="#FFCCD4" fill-rule="nonzero"></path>
                <path d="M21.1063291,116.08481 C21.1063291,110.256458 25.8311418,105.531646 31.6594937,105.531646 C37.4878455,105.531646 42.2126582,110.256458 42.2126582,116.08481 C42.2126582,121.913162 37.4878455,126.637975 31.6594937,126.637975 C25.8311418,126.637975 21.1063291,121.913162 21.1063291,116.08481" id="Shape" fill="#FFCCD4" fill-rule="nonzero"></path>
                <path d="M69.3493671,123.120253 C69.3493671,117.291901 74.0741798,112.567089 79.9025316,112.567089 C85.7308835,112.567089 90.4556962,117.291901 90.4556962,123.120253 C90.4556962,128.948605 85.7308835,133.673418 79.9025316,133.673418 C74.0741798,133.673418 69.3493671,128.948605 69.3493671,123.120253" id="Shape" fill="#FFCCD4" fill-rule="nonzero"></path>
                <path d="M270.362025,78.3949367 C270.362025,73.3992066 274.411865,69.3493671 279.407595,69.3493671 C284.403325,69.3493671 288.453165,73.3992066 288.453165,78.3949367 C288.453165,83.3906669 284.403325,87.4405063 279.407595,87.4405063 C274.411865,87.4405063 270.362025,83.3906669 270.362025,78.3949367" id="Shape" fill="#F24763" fill-rule="nonzero"></path>
                <path d="M279.407595,78.3949367 C279.407595,73.3992066 283.457434,69.3493671 288.453165,69.3493671 C293.448895,69.3493671 297.498734,73.3992066 297.498734,78.3949367 C297.498734,83.3906669 293.448895,87.4405063 288.453165,87.4405063 C283.457434,87.4405063 279.407595,83.3906669 279.407595,78.3949367" id="Shape" fill="#FF4A68" fill-rule="nonzero"></path>
                <path d="M43.2177215,112.567089 C43.2177215,107.571358 47.267561,103.521519 52.2632911,103.521519 C57.2590213,103.521519 61.3088608,107.571358 61.3088608,112.567089 C61.3088608,117.562819 57.2590213,121.612658 52.2632911,121.612658 C47.2745707,121.595776 43.234604,117.555809 43.2177215,112.567089" id="Shape" fill="#FF4A68" fill-rule="nonzero"></path>
                <path d="M69.3493671,232.672152 C69.3493671,226.8438 74.0741798,222.118987 79.9025316,222.118987 C85.7308835,222.118987 90.4556962,226.8438 90.4556962,232.672152 C90.4556962,238.500504 85.7308835,243.225316 79.9025316,243.225316 C74.0741798,243.225316 69.3493671,238.500504 69.3493671,232.672152" id="Shape" fill="#FFE200" fill-rule="nonzero"></path>
                <path d="M79.4,239.205063 C79.4,235.319495 82.5498751,232.16962 86.435443,232.16962 C90.3210109,232.16962 93.4708861,235.319495 93.4708861,239.205063 C93.4708861,243.090631 90.3210109,246.240506 86.435443,246.240506 C84.5695275,246.240506 82.7800351,245.499274 81.4606336,244.179873 C80.141232,242.860471 79.4,241.070979 79.4,239.205063" id="Shape" fill="#FFE200" fill-rule="nonzero"></path>
                <path d="M449.263291,383.431663 C449.26331,390.921294 455.331885,396.994399 462.821505,396.999996 C470.311124,397.005594 476.38877,390.941567 476.399984,383.451944 C476.411199,375.962321 470.351739,369.880122 462.862136,369.863291 C455.363593,369.863272 449.280104,375.933129 449.263291,383.431663" id="Shape" fill="#1D1D1B" fill-rule="nonzero"></path>
                <path d="M186.941772,383.431663 C186.941791,390.921294 193.010366,396.994399 200.499986,396.999996 C207.989605,397.005594 214.067251,390.941567 214.078465,383.451944 C214.08968,375.962321 208.03022,369.880122 200.540617,369.863291 C193.042074,369.863272 186.958585,375.933129 186.941772,383.431663" id="Shape" fill="#1D1D1B" fill-rule="nonzero"></path>
                <path d="M235.184844,383.401027 C235.172534,388.891586 238.470492,393.848358 243.539577,395.95804 C248.608662,398.067722 254.449549,396.914409 258.336325,393.036347 C262.2231,389.158286 263.389521,383.32 261.291223,378.246191 C259.192926,373.172382 254.24357,369.863305 248.752999,369.863291 C241.271378,369.863272 235.201619,375.919424 235.184844,383.401027" id="Shape" fill="#1D1D1B" fill-rule="nonzero"></path>
                <path d="M401.020288,383.401027 C401.007977,388.891586 404.305935,393.848358 409.37502,395.95804 C414.444105,398.067722 420.284992,396.914409 424.171768,393.036347 C428.058543,389.158286 429.224964,383.32 427.126666,378.246191 C425.028369,373.172382 420.079013,369.863305 414.588442,369.863291 C407.106822,369.863272 401.037062,375.919424 401.020288,383.401027" id="Shape" fill="#1D1D1B" fill-rule="nonzero"></path>
                <rect id="Rectangle-path" fill="#B1B1B1" fill-rule="nonzero" x="286.443038" y="208.048101" width="8.04050633" height="35.1772152"></rect>
                <polygon id="Shape" fill="#3C3C3B" fill-rule="nonzero" points="152.675891 356.797468 516.225212 356.797468 529.668354 387.95443 143.724051 387.95443"></polygon>
                <polygon id="Shape" fill="url(#linearGradient-1)" fill-rule="nonzero" points="412.186982 265.336709 412.186982 326.766723 529.668354 326.766723 529.668354 355.792405 143.724051 355.792405 143.724051 265.336709"></polygon>
                <rect id="Rectangle-path" fill="#D9D9D9" fill-rule="nonzero" x="377.903797" y="279.407595" width="38.1924051" height="39.1974684"></rect>
                <rect id="Rectangle-path" fill="#868686" fill-rule="nonzero" x="432.177215" y="356.797468" width="61.3088608" height="27.1367089"></rect>
                <rect id="Rectangle-path" fill="#868686" fill-rule="nonzero" x="169.855696" y="356.797468" width="61.3088608" height="27.1367089"></rect>
                <rect id="Rectangle-path" fill="#868686" fill-rule="nonzero" x="218.098734" y="356.797468" width="61.3088608" height="27.1367089"></rect>
                <rect id="Rectangle-path" fill="#868686" fill-rule="nonzero" x="385.944304" y="356.797468" width="61.3088608" height="27.1367089"></rect>
                <rect id="Rectangle-path" fill="#C6C6C5" fill-rule="nonzero" x="261.316456" y="240.210127" width="33.1670886" height="26.1316456"></rect>
                <rect id="Rectangle-path" fill="#B1B1B1" fill-rule="nonzero" x="261.316456" y="240.210127" width="14.0708861" height="26.1316456"></rect>
                <rect id="Rectangle-path" fill="#C6C6C5" fill-rule="nonzero" x="508.562025" y="283.427848" width="49.2481013" height="5.02531646"></rect>
                <rect id="Rectangle-path" fill="#3C3C3B" fill-rule="nonzero" x="508.562025" y="288.453165" width="25.1265823" height="5.02531646"></rect>
                <rect id="Rectangle-path" fill="#3C3C3B" fill-rule="nonzero" x="143.724051" y="351.772152" width="322.625316" height="5.02531646"></rect>
                <polygon id="Shape" fill="#575756" fill-rule="nonzero" points="527.658228 355.792405 544.744304 350.943453 544.744304 346.064752 527.658228 341.721519"></polygon>
                <rect id="Rectangle-path" fill="#6F6F6E" fill-rule="nonzero" x="544.744304" y="346.746835" width="8.04050633" height="5.02531646"></rect>
                <polygon id="Shape" fill="#D9D9D9" fill-rule="nonzero" points="523.637975 327.650633 498.099942 245.542241 491.814596 240.210127 451.173425 240.210127 445.162681 245.542241 422.126582 327.650633"></polygon>
                <polygon id="Shape" fill="#C6C6C5" fill-rule="nonzero" points="464.339241 240.210127 451.982786 240.210127 445.804559 245.542241 422.126582 327.650633 464.339241 327.650633"></polygon>
                <polygon id="Shape" fill="#D9D9D9" fill-rule="nonzero" points="523.637975 327.650633 497.73413 245.542241 491.358751 240.210127 462.329114 240.210127 462.329114 327.650633"></polygon>
                <rect id="Rectangle-path" fill="#3C3C3B" fill-rule="nonzero" x="331.670886" y="317.6" width="20.1012658" height="20.1012658"></rect>
                <rect id="Rectangle-path" fill="#3C3C3B" fill-rule="nonzero" x="291.468354" y="317.6" width="20.1012658" height="20.1012658"></rect>
                <rect id="Rectangle-path" fill="#3C3C3B" fill-rule="nonzero" x="251.265823" y="317.6" width="20.1012658" height="20.1012658"></rect>
                <rect id="Rectangle-path" fill="#3C3C3B" fill-rule="nonzero" x="212.068354" y="296.493671" width="20.1012658" height="20.1012658"></rect>
                <rect id="Rectangle-path" fill="#3C3C3B" fill-rule="nonzero" x="170.860759" y="296.493671" width="20.1012658" height="20.1012658"></rect>
                <rect id="Rectangle-path" fill="#ECECEC" fill-rule="nonzero" x="143.724051" y="265.336709" width="209.053165" height="21.1063291"></rect>
                <polygon id="Shape" fill="#B1B1B1" fill-rule="nonzero" points="431.172152 293.478481 513.587342 293.478481 510.255274 283.427848 434.229095 283.427848"></polygon>
                <path d="M209.053165,129.150633 C209.053165,153.851743 228.85238,173.875949 253.275949,173.875949 C277.699519,173.875949 297.498734,153.851743 297.498734,129.150633 C297.498734,104.449523 277.699519,84.4253165 253.275949,84.4253165 C228.85238,84.4253165 209.053165,104.449523 209.053165,129.150633" id="Shape" fill="#ECECEC" fill-rule="nonzero"></path>
                <path d="M120.607595,104.054472 C120.624393,122.086683 135.250069,136.694205 153.282287,136.688606 C171.314506,136.683007 185.931108,122.066405 185.936707,104.034186 C185.942306,86.001968 171.334784,71.3762913 153.302573,71.3594937 C135.245635,71.3594937 120.607595,85.9975339 120.607595,104.054472" id="Shape" fill="#D9D9D9" fill-rule="nonzero"></path>
                <path d="M153.774698,99.029148 C153.791491,117.065316 168.423339,131.674478 186.459512,131.663285 C204.495684,131.652092 219.109388,117.02478 219.103796,98.9886056 C219.098203,80.9524306 204.47543,66.334185 186.439255,66.3341772 C177.770803,66.3341735 169.457833,69.7797826 163.331165,75.9121549 C157.204498,82.0445271 153.766627,90.3607005 153.774698,99.029148" id="Shape" fill="#ECECEC" fill-rule="nonzero"></path>
                <path d="M270.362025,195.484553 C270.362025,202.598377 274.647289,209.011728 281.219606,211.73407 C287.791922,214.456413 295.356985,212.951628 300.387218,207.921395 C305.417451,202.891162 306.922235,195.326099 304.199893,188.753783 C301.47755,182.181467 295.0642,177.896203 287.950376,177.896203 C278.236598,177.896203 270.362025,185.770775 270.362025,195.484553" id="Shape" fill="#D9D9D9" fill-rule="nonzero"></path>
                <path d="M85.4304067,83.953534 C85.447382,93.6634328 93.3295708,101.522692 103.039478,101.51138 C112.749385,101.500068 120.61324,93.6224648 120.607592,83.9125528 C120.601943,74.2026408 112.728928,66.3341921 103.019014,66.3341772 C98.3488929,66.3341701 93.8704955,68.1914706 90.5711064,71.4966278 C87.2717173,74.8017851 85.4222421,79.2834198 85.4304067,83.953534" id="Shape" fill="#D9D9D9" fill-rule="nonzero"></path>
                <path d="M251.265837,158.327882 C251.28263,176.36405 265.914479,190.973212 283.950651,190.962019 C301.986823,190.950826 316.600528,176.323515 316.594935,158.28734 C316.589342,140.251165 301.96657,125.632919 283.930394,125.632911 C275.261943,125.632908 266.948972,129.078517 260.822305,135.210889 C254.695637,141.343261 251.257766,149.659435 251.265837,158.327882" id="Shape" fill="#ECECEC" fill-rule="nonzero"></path>
                <path d="M689.473418,288.453165 L608.063291,281.417722" id="Shape" stroke="#ECFF5C" stroke-width="0.5"></path>
                <path d="M630.174684,282.382582 L564.84557,281.417722" id="Shape" stroke="#FF4A68" stroke-width="0.5"></path>
                <path d="M618.113924,268.351899 L565.850633,277.397468" id="Shape" stroke="#ECFF5C" stroke-width="0.5"></path>
                <path d="M677.412658,268.351899 L604.043038,277.397468" id="Shape" stroke="#FF4A68" stroke-width="0.5"></path>
                <path d="M664.346835,287.337544 L590.977215,285.437975" id="Shape" stroke="#FF4A68" stroke-width="0.5"></path>
            </g>
        </g>
    </g>
</svg>