<?xml version="1.0" encoding="UTF-8"?>
<svg width="313px" height="397px" viewBox="0 0 313 397" version="1.1" xmlns="http://www.w3.org/2000/svg" xmlns:xlink="http://www.w3.org/1999/xlink">
    <!-- Generator: Sketch 48.2 (47327) - http://www.bohemiancoding.com/sketch -->
    <title>Group 9</title>
    <desc>Created with Sketch.</desc>
    <defs></defs>
    <g id="Home-S2-Desktop-1366" stroke="none" stroke-width="1" fill="none" fill-rule="evenodd" transform="translate(-756.000000, -4728.000000)">
        <g id="life-death" transform="translate(170.000000, 4728.000000)" fill-rule="nonzero">
            <g id="Жизнь-и-смерть">
                <g id="10Artboard-25-copy" transform="translate(586.000000, 0.000000)">
                    <g id="Group-9">
                        <g id="Group" transform="translate(97.240444, 37.707161)">
                            <polygon id="Shape" fill="#868686" points="15.6576626 179.171819 14.6138184 188.567469 14.3528573 196.136187 12.52613 201.095002 9.39459753 201.095002 4.69729877 192.482323 6.00210398 179.171819"></polygon>
                            <polygon id="Shape" fill="#868686" points="93.6850143 177.605877 94.4678974 188.567469 94.9898195 196.136187 96.8165468 201.095002 99.6871183 201.095002 104.906339 192.482323 103.340573 178.388848"></polygon>
                            <polygon id="Shape" fill="#D9D9D9" points="96.8165468 201.095002 99.6871183 196.136187 99.6871183 185.696576 98.6432741 183.869644 97.860391 194.048265 97.0775078 196.397177 95.7727026 197.180148 93.6850143 195.353216 92.9021312 187.262517 93.6850143 179.171819 104.123456 179.171819 104.906339 192.482323 99.6871183 201.095002"></polygon>
                            <polygon id="Shape" fill="#B1B1B1" points="86.3781051 190.394401 82.9856115 248.334242 75.1567803 262.166727 54.5408579 263.210688 54.5408579 190.394401"></polygon>
                            <polygon id="Shape" fill="#D9D9D9" points="22.4426497 190.394401 25.8351432 248.334242 33.9249355 262.166727 54.5408579 263.210688 54.5408579 190.394401"></polygon>
                            <polygon id="Shape" fill="#CECDCE" points="66.2841048 65.3800579 66.2841048 51.8085635 56.1066242 56.5063885 43.8414552 48.6766802 43.8414552 67.4679801 54.8018189 71.9048148"></polygon>
                            <path d="M57.9333515,194.309255 C57.9333515,194.309255 59.2381567,148.113976 58.1943125,110.270386 C57.6723904,87.5642315 54.8018189,67.7289704 54.8018189,63.2921357 C49.3216371,61.2042135 42.797611,58.3333204 42.797611,58.3333204 L42.5366499,64.8580774 L9.39459753,75.819669 L2.60961043,124.885841 L0,166.905276 L3.13153251,171.34211 L3.13153251,178.388848 L16.7015067,178.388848 L17.4843899,170.82013 L19.0501561,144.982092 L24.791299,114.968211 L23.4864938,157.770616 L17.4843899,194.048265 L57.9333515,194.048265 L57.9333515,194.309255 Z" id="Shape" fill="#644BD6"></path>
                            <path d="M54.8018189,194.309255 L55.8456631,183.347663 L51.6702864,167.427256 L55.8456631,149.157937 L51.6702864,121.492968 L55.8456631,101.657706 L51.6702864,80.7784843 C51.6702864,80.7784843 54.8018189,66.1630287 54.8018189,63.8141163 C60.2820008,61.726194 66.8060269,58.855301 66.8060269,58.855301 L67.0669879,65.3800579 L100.20904,76.3416496 L106.994027,125.929802 L109.603638,167.949237 L106.472105,172.386072 L106.472105,179.432809 L92.9021312,179.432809 L92.119248,171.864091 L90.5534818,146.026054 L84.8123388,116.534152 L86.1171441,159.336558 L92.119248,194.831235 C91.858287,194.309255 54.8018189,194.309255 54.8018189,194.309255 Z" id="Shape" fill="#7557FF"></path>
                            <polygon id="Shape" fill="#ECECEC" points="55.06278 57.5503496 50.6264423 57.2893593 43.058572 53.6354954 39.4051174 42.9348941 37.8393512 42.4129135 35.4907018 36.6711274 37.3174291 31.9733024 38.3612733 31.9733024 38.1003122 20.22874 41.7537668 14.2259636 55.06278 7.17922609"></polygon>
                            <polygon id="Shape" fill="#D9D9D9" points="55.06278 57.5503496 59.2381567 57.2893593 67.0669879 53.6354954 70.7204425 42.9348941 72.2862088 42.4129135 74.3738971 36.6711274 72.5471698 31.9733024 71.7642867 31.9733024 71.7642867 20.22874 68.1108321 14.2259636 55.06278 7.17922609 55.06278 29.8853802 51.9312475 42.1519232 55.06278 44.761826"></polygon>
                            <polygon id="Shape" fill="#282828" points="23.7474549 155.682694 54.2798969 160.119529 85.856183 155.682694 86.9000272 164.817354 53.7579748 169.776169 22.4426497 164.817354"></polygon>
                            <polygon id="Shape" fill="#644BD6" points="17.7453509 172.386072 13.8309353 145.243083 3.13153251 172.125081"></polygon>
                            <polygon id="Shape" fill="#D9D9D9" points="12.52613 201.095002 9.91651962 196.136187 9.65555858 185.696576 10.9603638 183.869644 11.7432469 194.048265 12.265169 196.397177 13.5699742 197.180148 14.6138184 196.397177 14.8747794 195.353216 16.1795846 187.262517 15.3967015 179.432809 4.17537668 179.171819 4.69729877 192.482323 9.39459753 201.095002"></polygon>
                            <rect id="Rectangle-path" fill="#583FB8" x="91.858287" y="172.125081" width="14.6138184" height="7.82970832"></rect>
                            <rect id="Rectangle-path" fill="#583FB8" x="3.13153251" y="172.125081" width="14.6138184" height="7.82970832"></rect>
                            <polygon id="Shape" fill="#000000" points="77.2444686 306.013094 77.2444686 261.383756 54.5408579 261.383756 54.5408579 267.908513 54.5408579 306.013094 56.6285462 308.883987 54.5408579 311.493889 56.8895073 314.625773 54.5408579 319.323598 54.5408579 330.285189 93.6850143 330.285189 93.6850143 323.499442 75.1567803 314.625773 77.2444686 311.493889 74.6348582 308.883987"></polygon>
                            <polygon id="Shape" fill="#222222" points="31.5762862 306.013094 31.5762862 261.383756 54.5408579 261.383756 54.5408579 267.908513 54.5408579 306.013094 52.1922085 308.883987 54.5408579 311.493889 51.9312475 314.625773 54.5408579 319.323598 54.5408579 330.285189 15.3967015 330.285189 15.3967015 323.499442 33.9249355 314.625773 31.5762862 311.493889 34.1858966 308.883987"></polygon>
                            <path d="M71.7642867,24.4045844 L66.0231438,18.6627983 L53.7579748,14.7479441 L43.3195331,16.8358663 L38.3612733,21.0117108 C35.2297408,19.7067594 33.1420524,17.0968566 32.3591693,13.9649733 C31.8372472,10.83309 32.8810914,7.44021636 34.9687797,4.83031359 C35.7516628,3.52536221 36.795507,2.74239137 38.1003122,1.95942054 C43.3195331,-0.389491953 49.5825981,-0.389491953 54.8018189,2.4814011 C62.3696892,6.91823581 72.0252478,5.09130387 75.9396634,9.52813858 C77.2444686,11.3550705 78.2883128,13.4429927 78.8102349,15.7919052 C79.593118,19.1847788 71.7642867,24.4045844 71.7642867,24.4045844 Z" id="Shape" fill="#575756"></path>
                            <path d="M41.2318447,18.1408177 C41.2318447,18.1408177 41.2318447,23.6216136 53.4970137,24.1435941 C65.7621827,24.6655747 68.1108321,20.4897302 68.1108321,20.4897302 C64.1964165,16.5748761 58.9771956,14.2259636 53.4970137,14.2259636 C44.3633772,13.9649733 41.2318447,18.1408177 41.2318447,18.1408177 Z" id="Shape" fill="#1D1D1B"></path>
                            <path d="M38.1003122,22.8386427 L38.1003122,21.7946816 C38.1003122,21.7946816 38.3612733,12.6600219 52.4531696,12.6600219 C66.5450659,12.3990316 71.7642867,22.3166622 71.7642867,22.3166622 L71.7642867,27.0144872 C67.0669879,21.2727011 60.0210398,17.8798275 52.4531696,17.8798275 C39.9270395,17.3578469 38.1003122,22.8386427 38.1003122,22.8386427 Z" id="Shape" fill="#3C3C3B"></path>
                            <polygon id="Shape" fill="#6F6F6E" points="59.4991177 54.157476 50.6264423 54.157476 39.9270395 44.5008357 42.0147279 84.1713579 68.1108321 84.1713579 69.9375594 44.5008357"></polygon>
                            <polygon id="Shape" fill="#6F6F6E" points="60.2820008 48.6766802 54.8018189 47.6327191 49.3216371 48.6766802 49.3216371 47.1107385 53.2360527 45.2838066 56.3675852 45.2838066 60.2820008 47.1107385"></polygon>
                            <polygon id="Shape" fill="#E94C6A" points="169.624678 98.7868134 154.488937 98.7868134 143.267612 68.250951 180.585041 68.250951"></polygon>
                            <polygon id="Shape" fill="#D9D9D9" points="170.668522 93.0450273 170.668522 79.9955134 162.839691 84.4323482 153.445093 77.1246204 153.445093 94.8719592 162.056807 98.7868134"></polygon>
                            <polygon id="Shape" fill="#C6C6C5" points="162.056807 85.4763093 157.881431 84.9543287 151.618366 81.5614551 146.921067 70.8608537 145.355301 70.3388732 143.006651 64.5970871 144.833379 59.8992621 145.877223 59.8992621 149.008755 49.9816316 151.357405 46.8497482 162.056807 41.6299427"></polygon>
                            <polygon id="Shape" fill="#D9D9D9" points="162.056807 85.4763093 166.232184 84.1713579 172.75621 79.9955134 177.192548 70.3388732 178.758314 69.8168926 180.846003 64.3360968 179.019275 59.6382718 178.236392 59.6382718 175.10486 49.1986607 172.495249 45.5447968 162.056807 41.1079621 162.056807 60.1602524 159.969119 75.2976885 162.056807 75.2976885"></polygon>
                            <polygon id="Shape" fill="#868686" points="120.824963 190.394401 124.478417 199.00708 124.478417 204.487876 123.434573 208.66372 120.824963 208.66372 115.866703 202.399953 116.388625 191.438362"></polygon>
                            <polygon id="Shape" fill="#ECECEC" points="123.434573 208.66372 120.564002 205.009856 120.04208 197.180148 120.824963 195.353216 122.129768 203.182924 122.65169 205.009856 123.956495 205.270847 125.783223 203.965895 125.522261 197.702128 122.65169 187.523508 126.827067 167.688247 116.649586 167.688247 114.300937 187.262517 114.822859 201.616983 120.824963 208.66372"></polygon>
                            <path d="M162.056807,196.136187 L162.056807,92.784037 C157.098548,90.6961148 150.835483,88.3472023 150.835483,88.3472023 L150.574522,92.2620565 L127.088028,102.440677 L114.561898,143.155161 L112.474209,161.946461 L115.605742,166.122305 L115.605742,172.647062 L128.392833,172.647062 L128.914755,165.861315 L133.873015,137.152384 L135.438781,148.896947 L126.827067,195.875197 L162.056807,195.875197 L162.056807,196.136187 Z" id="Shape" fill="#404696"></path>
                            <rect id="Rectangle-path" fill="#322A84" x="115.08382" y="166.122305" width="13.5699742" height="7.56871804"></rect>
                            <polygon id="Shape" fill="#B1B1B1" points="203.288652 190.394401 199.635198 199.00708 199.374237 204.487876 200.940003 208.66372 203.549613 208.66372 207.985951 202.399953 207.985951 191.438362"></polygon>
                            <polygon id="Shape" fill="#ECECEC" points="200.940003 208.66372 203.549613 205.009856 204.332496 197.180148 203.288652 195.353216 201.983847 203.182924 201.200964 205.009856 200.15712 205.270847 198.330392 203.965895 198.330392 197.702128 201.461925 187.523508 197.547509 167.688247 207.464029 167.688247 209.812678 187.262517 209.029795 201.616983 203.549613 208.66372"></polygon>
                            <path d="M162.056807,196.136187 L162.056807,92.784037 C167.015067,90.6961148 173.278132,88.3472023 173.278132,88.3472023 L173.539093,92.2620565 L197.025587,102.440677 L209.551717,143.155161 L211.639406,161.946461 L208.507873,166.122305 L208.507873,172.647062 L195.720782,172.647062 L195.19886,165.861315 L190.2406,137.152384 L188.674834,148.896947 L197.286548,195.614206 L162.056807,196.136187 Z" id="Shape" fill="#322A84"></path>
                            <rect id="Rectangle-path" fill="#404696" x="195.19886" y="166.122305" width="13.5699742" height="7.56871804"></rect>
                            <path d="M149.530677,54.4184663 C152.401249,55.4624274 155.27182,56.2453982 158.142392,56.5063885 C159.969119,56.5063885 163.361613,55.2014371 165.18834,54.9404468 C167.015067,54.6794566 173.539093,54.9404468 173.539093,54.9404468 L167.015067,42.9348941 L156.054703,42.9348941 L149.530677,54.4184663 Z" id="Shape" fill="#575756"></path>
                            <path d="M183.455613,66.1630287 C183.455613,53.1135149 173.800054,39.2810302 161.795846,39.2810302 C149.269716,39.2810302 140.397041,52.8525246 140.397041,66.1630287 C140.397041,76.6026398 146.138184,86.7812607 158.403353,88.3472023 L153.445093,97.7428523 L161.273924,90.4351245 L169.102756,97.7428523 L164.144496,88.6081926 C177.192548,86.7812607 183.455613,75.819669 183.455613,66.1630287 Z M162.056807,84.6933384 C156.837587,84.6933384 149.791638,81.8224454 149.791638,70.0778829 C149.791638,58.855301 152.66221,51.5475732 157.881431,48.9376705 C160.491041,47.8937093 163.100652,47.8937093 165.710262,48.9376705 C170.929483,51.8085635 174.061015,59.8992621 174.061015,70.0778829 C174.061015,80.2565037 167.276028,84.4323482 162.056807,84.6933384 Z" id="Shape" fill="#EB6580"></path>
                            <polygon id="Shape" fill="#B1B1B1" points="193.894055 193.526284 129.697638 193.526284 106.211144 330.024199 215.553821 330.024199"></polygon>
                            <polygon id="Shape" fill="#EE7E93" points="182.933691 153.333781 144.050496 153.333781 124.478417 298.183385 200.940003 298.183385"></polygon>
                            <polygon id="Shape" fill="#EE7E93" points="189.718678 155.943684 134.133976 155.943684 134.655898 153.333781 189.457717 153.333781"></polygon>
                            <polygon id="Shape" fill="#3C3C3B" points="94.7288585 166.383295 96.2946247 148.374966 98.121352 146.026054 98.6432741 143.416151 103.862495 142.63318 104.645378 141.067238 116.388625 143.416151 121.868807 150.723879 121.868807 163.773392 109.603638 171.08112"></polygon>
                            <polygon id="Shape" fill="#ECECEC" points="116.649586 322.977462 121.607846 297.400414 121.085924 294.268531 108.298833 294.268531 108.298833 297.922395 108.298833 325.848355 108.298833 330.285189 128.653794 330.285189 128.653794 327.153306"></polygon>
                            <polygon id="Shape" fill="#D9D9D9" points="99.9480793 323.499442 94.9898195 297.400414 95.5117416 294.268531 108.298833 294.268531 108.298833 297.922395 108.298833 325.848355 108.298833 330.285189 88.2048324 330.285189 88.2048324 327.153306"></polygon>
                            <polygon id="Shape" fill="#868686" points="83.5075336 250.944145 84.8123388 257.990883 84.0294557 262.949698 82.9856115 266.603562 81.6808063 266.603562 79.0711959 260.600785 79.593118 250.944145"></polygon>
                            <polygon id="Shape" fill="#D9D9D9" points="82.9856115 266.603562 81.4198453 263.210688 81.4198453 256.163951 82.2027284 254.858999 82.4636895 261.644746 82.9856115 263.210688 84.0294557 263.732669 84.5513778 262.688708 84.8123388 257.207912 84.5513778 251.727116 78.8102349 251.727116 78.5492738 260.600785 81.6808063 266.603562"></polygon>
                            <polygon id="Shape" fill="#D0D0D0" points="115.605742 180.73776 115.605742 171.603101 109.342677 175.256965 102.035768 170.037159 102.035768 182.564692 108.559794 185.696576"></polygon>
                            <path d="M108.559794,179.693799 C104.906339,178.388848 100.20904,176.561916 100.20904,176.561916 L99.9480793,180.73776 L85.595222,188.306479 L85.3342609,188.306479 L76.2006244,222.235215 L74.6348582,243.897408 L76.7225465,247.029291 L76.7225465,251.988106 L85.856183,251.988106 L86.3781051,246.768301 L90.2925207,215.449467 L89.7705987,226.672049 L85.595222,310.188938 L108.559794,310.188938 C108.559794,309.927948 108.559794,187.262517 108.559794,179.693799 Z" id="Shape" fill="#BDCC49"></path>
                            <polygon id="Shape" fill="#868686" points="133.612054 250.944145 132.307249 257.990883 133.351093 262.949698 134.133976 266.603562 135.438781 266.603562 138.048392 260.600785 137.526469 250.944145"></polygon>
                            <polygon id="Shape" fill="#D9D9D9" points="134.133976 266.603562 135.960703 263.210688 135.960703 256.163951 134.916859 254.858999 134.655898 261.644746 134.133976 263.210688 133.351093 263.732669 132.829171 262.688708 132.307249 257.207912 132.829171 251.727116 138.570314 251.727116 138.570314 260.600785 135.438781 266.603562"></polygon>
                            <path d="M140.918963,222.496205 L131.785327,188.828459 L131.524365,188.828459 L117.171508,181.259741 L116.910547,177.083897 C116.910547,177.083897 111.952287,178.649838 108.559794,180.21578 C108.559794,183.347663 108.559794,310.710919 108.559794,310.710919 L131.524365,310.710919 L127.348989,227.19403 L126.827067,215.971448 L130.741482,247.290281 L131.263404,252.249096 L140.397041,252.249096 L140.397041,247.290281 L142.484729,244.158398 L140.918963,222.496205 Z" id="Shape" fill="#CFE051"></path>
                            <polygon id="Shape" fill="#D9D9D9" points="108.559794 176.039935 105.689222 175.778945 101.513846 173.430033 98.9042351 166.122305 97.860391 165.600324 96.2946247 161.946461 97.5994299 158.814577 98.121352 158.814577 98.121352 150.723879 102.035768 145.765063 108.559794 144.460112"></polygon>
                            <polygon id="Shape" fill="#ECECEC" points="108.559794 176.039935 111.430365 175.778945 115.605742 173.430033 117.954391 166.122305 119.259196 165.600324 120.564002 161.946461 119.259196 158.814577 118.737274 158.814577 118.737274 150.723879 114.822859 145.765063 108.559794 144.460112 108.559794 157.509626 106.994027 166.383295 108.559794 167.166266"></polygon>
                            <polygon id="Shape" fill="#C4BD49" points="110.647482 186.218556 110.647482 218.32036 108.559794 219.364322 106.211144 218.32036 106.211144 186.218556"></polygon>
                            <rect id="Rectangle-path" fill="#C6C6C5" x="76.9835076" y="247.029291" width="9.65555858" height="5.21980555"></rect>
                            <rect id="Rectangle-path" fill="#C6C6C5" x="130.741482" y="247.029291" width="9.65555858" height="5.21980555"></rect>
                            <polygon id="Shape" fill="#3C3C3B" points="96.2946247 160.902499 105.950183 154.638733 111.430365 149.679917 113.257092 144.460112 105.1673 143.416151 99.6871183 146.026054 98.121352 149.679917 97.0775078 154.116752"></polygon>
                            <polygon id="Shape" fill="#3C3C3B" points="109.342677 147.852986 112.996131 152.28982 120.564002 162.990422 121.085924 160.902499 119.781119 152.550811 117.69343 147.591995 113.779015 144.460112"></polygon>
                            <polygon id="Shape" fill="#C6C6C5" points="120.824963 190.394401 124.478417 199.00708 124.478417 204.487876 123.434573 208.66372 120.824963 208.66372 115.866703 202.399953 116.388625 191.438362"></polygon>
                            <polygon id="Shape" fill="#ECECEC" points="123.434573 208.66372 120.564002 205.009856 120.04208 197.180148 120.824963 195.353216 122.129768 203.182924 122.65169 205.009856 123.956495 205.270847 125.783223 203.965895 125.522261 197.702128 122.65169 187.523508 123.434573 184.391624 115.866703 174.734984 114.300937 187.262517 114.822859 201.616983 120.824963 208.66372"></polygon>
                        </g>
                        <g id="Group">
                            <polygon id="Shape" fill="#D9D9D9" points="64.804034 58.2751515 59.055635 57.7513495 51.2169091 53.299033 46.7749644 39.9420833 44.6846375 39.4182813 41.810438 32.346955 43.9007649 26.3232326 45.4685101 26.3232326 45.2072192 11.656778 52.7846542 2.49024391 64.804034 0.133135137"></polygon>
                            <polygon id="Shape" fill="#ECECEC" points="64.804034 58.2751515 70.0298512 57.7513495 77.0847045 53.299033 81.7879401 39.9420833 83.6169761 39.4182813 86.7524665 32.346955 84.1395578 26.3232326 83.0943944 26.3232326 83.3556853 11.656778 75.7782502 2.49024391 64.5427431 0.133135137 64.5427431 24.2280248 61.6685436 40.7277862 64.5427431 42.0372911"></polygon>
                            <polygon id="Shape" fill="#C6C6C5" points="103.213791 223.010864 99.5557188 295.033632 89.1040842 312.319097 63.7588705 313.366701 63.7588705 223.010864"></polygon>
                            <polygon id="Shape" fill="#D9D9D9" points="24.565241 223.010864 28.2233131 295.033632 38.4136568 312.319097 63.7588705 313.366701 63.7588705 223.010864"></polygon>
                            <polygon id="Shape" fill="#D9D9D9" points="92.2395746 366.532598 92.2395746 311.009592 63.7588705 311.009592 63.7588705 319.390423 63.7588705 366.532598 66.63307 369.937311 63.7588705 373.603925 66.8943609 377.008637 63.7588705 383.294261 63.7588705 396.913111 112.358971 396.913111 112.358971 388.270379 89.626666 377.008637 92.2395746 373.603925 88.8427934 369.937311"></polygon>
                            <polygon id="Shape" fill="#C6C6C5" points="35.5394573 366.532598 35.5394573 311.009592 63.7588705 311.009592 63.7588705 319.390423 63.7588705 366.532598 61.1459619 369.937311 63.7588705 373.603925 60.6233801 377.008637 63.7588705 383.294261 63.7588705 396.913111 15.1587699 396.913111 15.1587699 388.270379 38.4136568 377.008637 35.5394573 373.603925 38.6749476 369.937311"></polygon>
                            <polygon id="Shape" fill="#868686" points="16.987806 208.34441 18.816842 222.225161 17.2490968 230.867894 16.2039334 237.415418 13.3297339 237.415418 8.36520749 226.677478 9.41037094 209.130113"></polygon>
                            <polygon id="Shape" fill="#D9D9D9" points="16.2039334 237.415418 12.8071522 231.129795 12.8071522 218.558548 14.3748973 215.939538 14.8974791 228.772686 15.6813517 231.915498 17.7716786 232.4393 18.5555512 230.344092 19.3394237 220.391855 18.5555512 210.439618 8.10391663 210.439618 7.32004404 226.939379 13.3297339 237.415418"></polygon>
                            <polygon id="Shape" fill="#CECDCE" points="77.0847045 66.9178836 77.0847045 49.8943203 62.1911253 63.513171 52.7846542 47.5372115 52.7846542 70.3225963 64.5427431 76.0844177"></polygon>
                            <path d="M68.2008152,227.986983 C68.2008152,227.986983 69.7685604,170.63067 68.462106,123.750395 C67.9395243,95.4650898 64.0201614,71.1082992 64.0201614,65.3464778 C57.2265989,62.989369 49.1265822,59.3227554 49.1265822,59.3227554 L48.8652913,67.7035866 L21.9523324,81.3224372 L5.22971713,143.654869 L0.265190727,196.035064 L4.18455368,201.534985 L4.18455368,210.177717 L20.9071689,210.177717 L21.9523324,200.749282 L31.0975126,130.55982 L29.5297674,183.987619 L22.4749141,227.986983 L68.2008152,227.986983 Z" id="Shape" fill="#ECECEC"></path>
                            <polygon id="Shape" fill="#868686" points="111.836389 208.34441 109.746062 222.225161 111.313808 230.867894 112.358971 237.415418 115.233171 237.415418 120.197697 226.677478 119.152534 209.130113"></polygon>
                            <polygon id="Shape" fill="#D9D9D9" points="112.358971 237.415418 115.755752 231.129795 115.755752 218.558548 114.710589 215.939538 113.665425 228.772686 112.620262 231.915498 111.313808 232.4393 110.268644 230.344092 109.223481 220.391855 110.007353 210.439618 120.458988 210.439618 120.98157 226.939379 115.233171 237.415418"></polygon>
                            <path d="M60.3620893,227.986983 C60.3620893,227.986983 58.7943441,170.63067 60.1007984,123.750395 C60.6233801,95.4650898 64.5427431,71.1082992 64.5427431,65.3464778 C71.3363055,62.989369 79.4363223,59.3227554 79.4363223,59.3227554 L79.6976132,67.4416856 L106.610572,81.3224372 L123.333187,143.654869 L128.297714,196.035064 L124.378351,201.534985 L124.378351,210.177717 L107.655736,210.177717 L106.610572,200.749282 L97.7266827,130.297919 L99.2944279,183.463817 L106.349281,227.463181 L60.3620893,227.463181 L60.3620893,227.986983 Z" id="Shape" fill="#ECECEC"></path>
                            <rect id="Rectangle-path" fill="#C6C6C5" x="106.349281" y="201.273084" width="18.0290696" height="9.95223703"></rect>
                            <rect id="Rectangle-path" fill="#C6C6C5" x="4.44584454" y="201.273084" width="18.0290696" height="9.95223703"></rect>
                            <polygon id="Shape" fill="#C6C6C5" points="71.8588873 55.9180427 58.2717624 55.9180427 47.2975461 42.0372911 52.2620725 85.2509518 76.8234137 85.2509518 81.2653583 41.5134891"></polygon>
                            <path d="M45.4685101,147.059582 L42.5943106,147.059582 L35.2781664,120.607583 L41.2878563,83.155744 L42.3330197,81.8462392 L63.7588705,74.5130119 L65.5879065,75.8225168 C65.5879065,97.0364957 65.5879065,129.774118 65.5879065,129.774118 L64.0201614,131.083622 L61.6685436,131.083622 L60.1007984,129.774118 L60.1007984,126.107504 L59.5782167,126.107504 L52.5233634,128.988415 L45.4685101,147.059582 Z M38.4136568,120.607583 L44.4233466,142.083463 L49.9104548,127.155108 L50.9556182,126.107504 L59.5782167,123.226593 L61.6685436,123.226593 L62.9749979,124.536098 C62.9749979,114.583861 62.9749979,93.3698821 62.9749979,77.6558236 L44.4233466,84.2033479 L38.4136568,120.607583 Z" id="Shape" fill="#3C3C3B"></path>
                            <path d="M83.0943944,147.059582 L76.5621228,128.726514 L69.2459786,126.369405 L68.7233969,126.369405 L68.7233969,130.036018 L67.1556517,131.345523 L64.5427431,131.345523 L62.9749979,130.036018 C62.9749979,130.036018 62.9749979,97.0364957 62.9749979,76.0844177 L64.804034,74.7749129 L86.2298847,82.1081401 L87.2750482,83.417645 L93.2847381,120.607583 L93.2847381,121.131385 L86.2298847,146.797681 L83.0943944,146.797681 L83.0943944,147.059582 Z M66.8943609,123.488494 L69.7685604,123.488494 L77.8685771,125.845603 L78.9137406,126.893207 L84.4008487,141.821562 L90.4105386,120.345682 L84.9234304,83.941447 L66.3717791,77.3939226 C66.3717791,93.1079811 66.3717791,114.32196 66.3717791,124.274197 L66.8943609,123.488494 Z" id="Shape" fill="#3C3C3B"></path>
                            <rect id="Rectangle-path" fill="#3C3C3B" x="60.1007984" y="134.226434" width="8.62259849" height="9.42843508"></rect>
                            <rect id="Rectangle-path" fill="#3C3C3B" x="61.6685436" y="59.8465573" width="5.48710813" height="6.28562339"></rect>
                            <rect id="Rectangle-path" fill="#3C3C3B" transform="translate(58.744438, 26.332268) rotate(-45.000000) translate(-58.744438, -26.332268) " x="56.5234865" y="24.1061312" width="4.44190208" height="4.45227387"></rect>
                            <rect id="Rectangle-path" fill="#3C3C3B" transform="translate(70.217040, 26.301259) rotate(-45.000000) translate(-70.217040, -26.301259) " x="67.996089" y="24.0751222" width="4.44190208" height="4.45227387"></rect>
                            <rect id="Rectangle-path" fill="#3C3C3B" x="61.6685436" y="69.2749924" width="5.48710813" height="6.28562339"></rect>
                            <rect id="Rectangle-path" fill="#3C3C3B" x="59.5782167" y="146.273879" width="9.40647108" height="10.214138"></rect>
                            <rect id="Rectangle-path" fill="#3C3C3B" x="59.5782167" y="159.368928" width="9.40647108" height="10.214138"></rect>
                            <rect id="Rectangle-path" fill="#3C3C3B" x="59.5782167" y="172.463976" width="9.40647108" height="10.214138"></rect>
                            <polygon id="Shape" fill="#3C3C3B" points="68.9846878 192.630351 65.3266157 194.98746 59.5782167 191.844648 59.5782167 185.559025 68.9846878 185.559025"></polygon>
                            <polygon id="Shape" fill="#3C3C3B" points="40.5039837 94.9412879 29.5297674 88.3937635 29.7910583 86.0366548 44.4233466 81.3224372 45.2072192 83.679546 33.4491304 87.8699616 41.810438 92.3222782"></polygon>
                            <rect id="Rectangle-path" fill="#3C3C3B" transform="translate(24.423112, 113.528361) rotate(-74.419766) translate(-24.423112, -113.528361) " x="-2.88305097" y="112.087839" width="54.6123256" height="2.88104446"></rect>
                            <rect id="Rectangle-path" fill="#3C3C3B" transform="translate(14.246170, 171.375987) rotate(-86.260223) translate(-14.246170, -171.375987) " x="-10.7078428" y="169.935489" width="49.9080264" height="2.88099566"></rect>
                            <path d="M12.8071522,201.273084 C13.068443,203.368291 13.068443,205.7254 12.8071522,208.082509 L12.2845704,214.630033 L10.9781161,227.986983 L10.9781161,227.725082 C11.5006978,229.034587 12.2845704,230.605993 13.068443,231.653597 C14.1136065,232.963101 14.1136065,234.534507 14.3748973,236.105913 C13.3297339,234.796408 12.5458613,233.748804 11.5006978,232.4393 C10.4555344,231.129795 10.1942435,229.558389 9.41037094,228.510785 L9.41037094,228.248884 L10.7168253,214.891934 L11.239407,208.34441 C11.5006978,205.7254 11.7619887,203.630192 12.8071522,201.273084 Z" id="Shape" fill="#3C3C3B"></path>
                            <path d="M12.8071522,202.582588 C13.3297339,203.630192 13.8523156,204.415895 14.3748973,204.939697 C14.6361882,205.987301 15.4200608,206.773004 15.4200608,207.820608 L16.987806,213.320528 L16.987806,213.582429 L17.2490968,221.439459 L17.5103877,225.106072 C17.5103877,225.629874 17.5103877,226.415577 17.2490968,226.939379 C17.2490968,227.463181 16.987806,228.248884 16.987806,228.772686 C16.7265151,228.248884 16.7265151,227.463181 16.4652243,226.939379 C16.2039334,226.415577 16.2039334,225.629874 16.2039334,225.106072 L15.9426425,221.177558 L15.6813517,213.320528 L15.6813517,213.582429 L14.1136065,208.34441 C13.8523156,207.296806 13.5910248,206.511103 13.5910248,205.463499 C12.8071522,204.415895 12.8071522,203.630192 12.8071522,202.582588 Z" id="Shape" fill="#3C3C3B"></path>
                            <path d="M16.7265151,148.892889 L14.8974791,148.630988 L11.239407,143.654869 L11.5006978,141.821562 L16.4652243,138.154949 L18.2942603,138.41685 L21.9523324,143.392968 L21.6910415,145.226275 L16.7265151,148.892889 Z M13.8523156,143.131067 L15.9426425,146.011978 L18.816842,143.91677 L16.7265151,141.035859 L13.8523156,143.131067 Z" id="Shape" fill="#3C3C3B"></path>
                            <path d="M11.7619887,204.939697 L7.05875317,200.22548 L7.05875317,198.392173 L11.5006978,193.677955 L13.3297339,193.677955 L18.0329694,198.130272 L18.0329694,200.22548 L13.5910248,204.939697 L11.7619887,204.939697 Z M10.1942435,199.177876 L12.5458613,201.534985 L14.8974791,199.177876 L12.5458613,196.820767 L10.1942435,199.177876 Z" id="Shape" fill="#3C3C3B"></path>
                            <path d="M116.539625,201.273084 C117.062207,203.368291 117.846079,205.7254 118.10737,207.820608 L118.629952,214.368132 L119.936406,227.725082 L119.936406,227.986983 C119.413824,229.296488 118.368661,230.867894 117.846079,231.915498 C117.323497,233.225002 116.017043,234.272606 114.97188,235.582111 C115.233171,234.010705 116.017043,232.7012 116.278334,231.129795 C116.539625,229.558389 117.846079,228.248884 118.368661,227.20128 L118.368661,227.725082 L117.062207,214.368132 L116.539625,207.820608 C116.278334,205.987301 116.278334,203.892093 116.539625,201.273084 Z" id="Shape" fill="#3C3C3B"></path>
                            <path d="M116.539625,202.582588 C116.539625,203.630192 116.539625,204.415895 116.278334,205.463499 C116.278334,206.511103 116.017043,207.296806 115.755752,208.34441 L114.188007,213.84433 L114.188007,213.582429 L113.926716,221.439459 L113.665425,225.106072 C113.665425,225.629874 113.665425,226.415577 113.404135,226.939379 C113.142844,227.463181 113.142844,228.248884 112.881553,228.772686 C112.881553,228.248884 112.620262,227.463181 112.620262,226.939379 C112.358971,226.415577 112.358971,225.629874 112.358971,225.106072 L112.620262,221.439459 L112.881553,213.582429 L112.881553,213.320528 L114.449298,207.820608 C114.710589,206.773004 114.97188,205.987301 115.494461,204.939697 C115.494461,204.153994 115.755752,203.368291 116.539625,202.582588 Z" id="Shape" fill="#3C3C3B"></path>
                            <path d="M117.323497,204.939697 L115.494461,204.939697 L110.791226,200.22548 L110.791226,198.392173 L115.494461,193.939856 L117.323497,193.939856 L121.765442,198.654074 L121.765442,200.22548 L117.323497,204.939697 Z M113.926716,199.177876 L116.278334,201.534985 L118.629952,199.177876 L116.278334,196.820767 L113.926716,199.177876 Z" id="Shape" fill="#3C3C3B"></path>
                            <rect id="Rectangle-path" fill="#3C3C3B" transform="translate(46.362569, 252.978779) rotate(-8.528782) translate(-46.362569, -252.978779) " x="44.9255296" y="229.801515" width="2.87407892" height="46.3545278"></rect>
                            <rect id="Rectangle-path" fill="#3C3C3B" x="48.3427096" y="284.557593" width="2.8741995" height="101.879479"></rect>
                            <path d="M50.4330365,285.867098 L48.6040004,285.867098 L44.1620558,281.152881 L44.1620558,279.319574 L48.8652913,274.867257 L50.6943273,274.867257 L55.136272,279.581475 L55.136272,281.414782 L50.4330365,285.867098 Z M47.0362553,280.367178 L49.387873,282.724287 L51.7394908,280.367178 L49.387873,278.010069 L47.0362553,280.367178 Z" id="Shape" fill="#3C3C3B"></path>
                            <rect id="Rectangle-path" fill="#3C3C3B" transform="translate(82.387511, 252.762697) rotate(-81.442887) translate(-82.387511, -252.762697) " x="59.2625223" y="251.322195" width="46.2499778" height="2.88100384"></rect>
                            <rect id="Rectangle-path" fill="#3C3C3B" x="77.8685771" y="284.557593" width="2.8741995" height="101.879479"></rect>
                            <path d="M78.3911588,285.867098 L73.6879233,281.414782 L73.6879233,279.581475 L78.129868,274.867257 L79.958904,274.867257 L84.6621396,279.319574 L84.6621396,281.152881 L80.2201949,285.867098 L78.3911588,285.867098 Z M76.8234137,280.367178 L79.1750314,282.724287 L81.5266492,280.367178 L79.1750314,278.010069 L76.8234137,280.367178 Z" id="Shape" fill="#3C3C3B"></path>
                            <path d="M50.4330365,396.38931 L48.6040004,396.38931 L44.1620558,391.675092 L44.1620558,389.841785 L48.8652913,385.389469 L50.6943273,385.389469 L55.136272,390.103686 L55.136272,391.936993 L50.4330365,396.38931 Z M47.0362553,390.889389 L49.387873,393.246498 L51.7394908,390.889389 L49.387873,388.53228 L47.0362553,390.889389 Z" id="Shape" fill="#3C3C3B"></path>
                            <path d="M78.3911588,396.38931 L73.6879233,391.936993 L73.6879233,390.103686 L78.129868,385.389469 L79.958904,385.389469 L84.6621396,389.841785 L84.6621396,391.675092 L80.2201949,396.38931 L78.3911588,396.38931 Z M76.8234137,391.15129 L79.1750314,393.508399 L81.5266492,391.15129 L79.1750314,388.794181 L76.8234137,391.15129 Z" id="Shape" fill="#3C3C3B"></path>
                            <polygon id="Shape" fill="#3C3C3B" points="89.1040842 95.2031889 87.5363391 93.1079811 95.8976467 88.1318626 84.1395578 84.4652489 85.1847213 81.5843382 100.078301 86.5604567 100.078301 88.9175655"></polygon>
                            <rect id="Rectangle-path" fill="#3C3C3B" transform="translate(105.174374, 114.196496) rotate(-15.551100) translate(-105.174374, -114.196496) " x="103.737262" y="86.8276096" width="2.87422417" height="54.7377736"></rect>
                            <rect id="Rectangle-path" fill="#3C3C3B" transform="translate(121.123427, 168.533893) rotate(-4.003845) translate(-121.123427, -168.533893) " x="119.686269" y="143.390376" width="2.87431657" height="50.2870354"></rect>
                            <path d="M112.620262,149.678592 L107.655736,146.011978 L107.394445,144.178671 L111.052517,139.202553 L112.881553,138.940652 L117.846079,142.607265 L118.10737,144.440572 L114.449298,149.416691 L112.620262,149.678592 Z M110.529935,144.178671 L113.404135,146.273879 L115.494461,143.392968 L112.620262,141.29776 L110.529935,144.178671 Z" id="Shape" fill="#3C3C3B"></path>
                            <polygon id="Shape" fill="#3C3C3B" points="60.3620893 38.6325784 64.0201614 42.822994 68.2008152 38.6325784 64.0201614 29.9898462"></polygon>
                            <path d="M84.1395578,232.4393 L82.5718127,232.177399 L69.7685604,221.439459 L64.2814522,219.344251 L58.7943441,221.439459 L45.9910918,232.177399 L44.4233466,232.4393 L39.1975294,229.558389 L38.6749476,227.725082 L42.3330197,220.391855 L42.3330197,216.725241 L35.5394573,208.868212 L35.2781664,207.820608 L35.2781664,199.439777 L35.5394573,198.392173 L43.9007649,188.439936 L44.9459283,187.916134 L55.3975629,187.916134 L55.9201446,188.178035 L64.2814522,192.892252 L72.6427599,188.178035 L73.1653416,187.916134 L83.3556853,187.916134 L84.4008487,188.439936 L92.7621563,198.392173 L93.0234472,199.439777 L93.0234472,207.820608 L92.7621563,208.868212 L85.9685939,216.725241 L85.9685939,220.391855 L89.626666,227.725082 L89.1040842,229.558389 L84.1395578,232.4393 Z M63.7588705,216.725241 L64.804034,216.725241 L71.5975964,219.08235 L83.878267,229.558389 L87.2750482,227.986983 L83.878267,220.915657 L83.878267,215.677637 L84.1395578,214.630033 L90.9331203,206.773004 L90.9331203,199.701678 L83.0943944,190.797045 L73.6879233,190.797045 L65.0653248,195.511262 L63.7588705,195.511262 L55.136272,190.797045 L45.7298009,190.797045 L37.891075,199.701678 L37.891075,206.773004 L44.6846375,214.630033 L44.9459283,215.677637 L44.9459283,220.915657 L41.810438,227.463181 L45.2072192,229.034587 L58.0104715,218.558548 L63.7588705,216.725241 Z" id="Shape" fill="#3C3C3B"></path>
                            <path d="M47.2975461,390.889389 C46.2523827,391.413191 45.2072192,392.198894 44.1620558,392.722696 L40.7652745,393.246498 L33.9717121,394.556003 L27.1781496,395.865508 L23.7813684,396.38931 C22.4749141,396.127409 21.4297507,396.127409 20.1232963,395.341706 C21.1684598,394.817904 22.2136232,394.032201 23.2587867,393.508399 L26.6555679,392.984597 L33.4491304,391.675092 L40.2426928,390.365587 L43.639474,389.841785 C45.2072192,390.365587 46.5136735,390.365587 47.2975461,390.889389 Z" id="Shape" fill="#3C3C3B"></path>
                            <path d="M81.2653583,390.889389 C82.5718127,390.627488 83.6169761,390.365587 84.9234304,389.841785 L88.3202117,390.365587 L95.1137741,391.675092 L101.907337,392.984597 L105.304118,393.508399 C106.349281,394.032201 107.394445,394.817904 108.439608,395.341706 C107.133154,395.603607 106.08799,395.865508 104.781536,396.38931 L101.384755,395.865508 L94.5911924,394.556003 L87.7976299,393.246498 L84.4008487,392.722696 C83.3556853,392.198894 82.3105218,391.675092 81.2653583,390.889389 Z" id="Shape" fill="#3C3C3B"></path>
                            <path d="M72.381469,46.4896076 L56.9653081,46.4896076 L55.6588537,45.1801027 L55.6588537,39.9420833 L48.6040004,29.9898462 L48.3427096,28.9422423 L49.9104548,14.2757878 L50.4330365,12.9662829 L64.0201614,6.15685755 L65.3266157,6.15685755 L78.3911588,13.2281839 L78.9137406,14.5376887 L79.958904,29.7279453 L79.6976132,31.0374501 L73.6879233,39.9420833 L73.6879233,45.1801027 L72.381469,46.4896076 Z M58.5330532,43.6086969 L71.3363055,43.6086969 L71.3363055,39.1563803 L71.5975964,38.6325784 L77.6072863,29.9898462 L77.0847045,16.1090946 L65.3266157,9.56157022 L53.0459451,15.8471936 L51.4781999,29.2041433 L58.5330532,38.8944794 L58.7943441,39.9420833 L58.7943441,43.6086969 L58.5330532,43.6086969 Z" id="Shape" fill="#3C3C3B"></path>
                            <path d="M72.381469,58.0132505 L56.9653081,58.0132505 L55.6588537,56.4418447 L55.6588537,50.1562213 L57.2265989,48.8467164 L72.6427599,48.8467164 L74.210505,50.1562213 L74.210505,56.4418447 L72.381469,58.0132505 Z M58.5330532,55.1323398 L71.3363055,55.1323398 L71.3363055,51.7276271 L58.5330532,51.7276271 L58.5330532,55.1323398 Z" id="Shape" fill="#3C3C3B"></path>
                        </g>
                    </g>
                </g>
            </g>
        </g>
    </g>
</svg>