<?xml version="1.0" encoding="UTF-8"?>
<svg width="752px" height="397px" viewBox="0 0 752 397" version="1.1" xmlns="http://www.w3.org/2000/svg" xmlns:xlink="http://www.w3.org/1999/xlink">
    <!-- Generator: Sketch 48.2 (47327) - http://www.bohemiancoding.com/sketch -->
    <title>Group 24</title>
    <desc>Created with Sketch.</desc>
    <defs>
        <rect id="path-1" x="0" y="0" width="972" height="320"></rect>
        <linearGradient x1="0%" y1="0%" x2="101.999998%" y2="100.999999%" id="linearGradient-3">
            <stop stop-color="#45FBAB" offset="0%"></stop>
            <stop stop-color="#94FFD1" offset="100%"></stop>
        </linearGradient>
        <linearGradient x1="4.99468861%" y1="10.7951183%" x2="102.595158%" y2="61.932016%" id="linearGradient-4">
            <stop stop-color="#FFE5EA" offset="0%"></stop>
            <stop stop-color="#31FAA1" offset="100%"></stop>
        </linearGradient>
        <linearGradient x1="93.5262788%" y1="63.5735178%" x2="2.3736963%" y2="9.16488832%" id="linearGradient-5">
            <stop stop-color="#99FFD3" offset="0%"></stop>
            <stop stop-color="#FFE6EA" offset="100%"></stop>
        </linearGradient>
    </defs>
    <g id="-" stroke="none" stroke-width="1" fill="none" fill-rule="evenodd">
        <g id="Эмиграция" transform="translate(-347.000000, -65.000000)">
            <g id="Group-51">
                <g id="Group-24" transform="translate(127.000000, 100.000000)">
                    <mask id="mask-2" fill="white">
                        <use xlink:href="#path-1"></use>
                    </mask>
                    <g id="Rectangle-9"></g>
                    <g id="emigration-purple" mask="url(#mask-2)">
                        <g transform="translate(923.475939, 216.185674) rotate(121.000000) translate(-923.475939, -216.185674) translate(789.975939, 49.685674)">
                            <path d="M117,273 C163.944204,273 202,235.168061 202,188.5 C202,141.831939 163.944204,104 117,104" id="line-1.5" stroke="#4ED399" stroke-width="3" fill="none" stroke-linecap="round" stroke-dasharray="5,20,5,20" transform="translate(159.500000, 188.500000) rotate(153.000000) translate(-159.500000, -188.500000) "></path>
                            <circle id="Oval-1.5" stroke="none" fill="url(#linearGradient-3)" fill-rule="evenodd" cx="181.5" cy="62.5" r="33.5"></circle>
                            <path d="M164,229 C188.300529,229 208,209.076671 208,184.5 C208,159.923329 188.300529,140 164,140" id="line-1.4" stroke="#4ED399" stroke-width="3" fill="none" stroke-linecap="round" stroke-dasharray="5,20,5,20" transform="translate(186.000000, 184.500000) rotate(163.000000) translate(-186.000000, -184.500000) "></path>
                            <circle id="Oval-1.4" stroke="none" fill="url(#linearGradient-3)" fill-rule="evenodd" cx="203.5" cy="131.5" r="43.5"></circle>
                            <path d="M176.808276,249 C184.290546,242.011512 204.704764,227.852789 205.963252,196.199713 C207.221739,164.546637 175.982783,129 139,129" id="line-1.3" stroke="#4ED399" stroke-width="3" fill="none" stroke-linecap="round" stroke-dasharray="5,20,5,20" transform="translate(172.500000, 189.000000) rotate(159.000000) translate(-172.500000, -189.000000) "></path>
                            <circle id="Oval-1.3" stroke="none" fill="url(#linearGradient-3)" fill-rule="evenodd" cx="148" cy="133" r="4"></circle>
                            <path d="M99.8820815,292 C159.580582,277.292919 197,236.512162 197,177.542079 C197,118.571996 149.810321,80 91,80" id="line-1.2" stroke="#4ED399" stroke-width="3" fill="none" stroke-linecap="round" stroke-dasharray="5,20,5,20" transform="translate(144.000000, 186.000000) rotate(153.000000) translate(-144.000000, -186.000000) "></path>
                            <path d="M57,311.472497 C127.550313,318.606679 210,252.25077 210,180.648101 C210,109.045432 152.265606,51 81.0466228,51" id="line-1.1" stroke="#4ED399" stroke-width="3" fill="none" stroke-linecap="round" stroke-dasharray="5,20,5,20" transform="translate(133.500000, 181.500000) rotate(149.000000) translate(-133.500000, -181.500000) "></path>
                        </g>
                    </g>
                    <g id="emigration-purple-copy" mask="url(#mask-2)">
                        <g transform="translate(358.475939, 236.185674) scale(-1, 1) rotate(121.000000) translate(-358.475939, -236.185674) translate(224.975939, 69.685674)">
                            <path d="M117,273 C163.944204,273 202,235.168061 202,188.5 C202,141.831939 163.944204,104 117,104" id="line-1.5" stroke="#4ED399" stroke-width="3" fill="none" stroke-linecap="round" stroke-dasharray="5,20,5,20" transform="translate(159.500000, 188.500000) rotate(153.000000) translate(-159.500000, -188.500000) "></path>
                            <circle id="Oval-1.5" stroke="none" fill="url(#linearGradient-3)" fill-rule="evenodd" cx="181.5" cy="62.5" r="33.5"></circle>
                            <path d="M99.8820815,292 C159.580582,277.292919 197,236.512162 197,177.542079 C197,118.571996 149.810321,80 91,80" id="line-1.2" stroke="#4ED399" stroke-width="3" fill="none" stroke-linecap="round" stroke-dasharray="5,20,5,20" transform="translate(144.000000, 186.000000) rotate(153.000000) translate(-144.000000, -186.000000) "></path>
                            <circle id="Oval-1.2" stroke="none" fill="url(#linearGradient-3)" fill-rule="evenodd" cx="135" cy="72" r="8"></circle>
                            <path d="M57,311.472497 C127.550313,318.606679 210,252.25077 210,180.648101 C210,109.045432 152.265606,51 81.0466228,51" id="line-1.1" stroke="#4ED399" stroke-width="3" fill="none" stroke-linecap="round" stroke-dasharray="5,20,5,20" transform="translate(133.500000, 181.500000) rotate(149.000000) translate(-133.500000, -181.500000) "></path>
                            <circle id="Oval-1.1" stroke="none" fill="url(#linearGradient-3)" fill-rule="evenodd" cx="148.5" cy="21.5" r="21.5"></circle>
                        </g>
                    </g>
                </g>
                <g id="Group-7" transform="translate(531.000000, 65.000000)">
                    <g id="emigration-green" transform="translate(0.588235, 0.000000)">
                        <path d="M143.977978,265.238522 C131.802195,270.241741 118.472269,273 104.5,273 C46.954879,273 0.305341281,226.213756 0.305341281,168.5 C0.305341281,110.786244 46.954879,64 104.5,64 C118.676672,64 132.192069,66.8395514 144.5116,71.982497 C174.993275,28.4515229 225.433741,0 282.5,0 C375.55998,0 451,75.6610958 451,168.993787 C451,262.326479 375.55998,337.987575 282.5,337.987575 C225.09945,337.987575 174.402547,309.20174 143.977978,265.238522 Z" id="Oval-2-Copy" fill="url(#linearGradient-4)"></path>
                        <ellipse id="Oval-1" fill="url(#linearGradient-5)" cx="216.139894" cy="242.366947" rx="128.139894" ry="128.515406"></ellipse>
                    </g>
                    <g id="11-01-copy" transform="translate(31.000000, 118.000000)">
                        <polyline id="Fill-1" fill="#DBDCD6" points="126.369168 75.7996259 95.0980392 235.251347 100.10142 236.258574 131.372549 76.8016872"></polyline>
                        <polyline id="Fill-2" fill="#DBDCD6" points="128.831101 67.681598 126.391719 66.9399293 77.4509804 228.383288 115.843178 228.383288 131.372549 67.9271159 126.391719 66.9399293 128.831101 67.681598 126.289653 67.4360801 111.209373 223.268332 84.335345 223.268332 131.275586 68.4232666 128.831101 67.681598 126.289653 67.4360801 128.831101 67.681598"></polyline>
                        <polyline id="Fill-3" fill="#DBDCD6" points="90.1960784 203.608595 117.797224 207.710663 118.627451 202.953035 91.0263058 198.850967"></polyline>
                        <polyline id="Fill-4" fill="#DBDCD6" points="94.1176471 189.20075 118.799888 192.944502 119.607843 187.828558 94.9256023 184.084806"></polyline>
                        <polyline id="Fill-5" fill="#DBDCD6" points="98.0392157 174.310023 118.899254 177.193931 119.607843 172.202552 98.7427067 169.318645"></polyline>
                        <polyline id="Fill-6" fill="#DBDCD6" points="102.941176 159.623225 120.793539 162.42777 121.568627 157.362156 103.716265 154.552484"></polyline>
                        <polyline id="Fill-7" fill="#DBDCD6" points="107.843137 144.758203 122.737074 146.677198 123.529412 142.685689 108.63046 140.770734"></polyline>
                        <polyline id="Fill-8" fill="#DBDCD6" points="113.72549 130.408789 124.719648 131.911037 125.490196 127.506821 114.496038 126.004573"></polyline>
                        <polyline id="Fill-9" fill="#DBDCD6" points="129.411765 76.8016872 160.678493 236.258574 165.686275 235.251347 134.419546 75.7996259"></polyline>
                        <polyline id="Fill-10" fill="#DBDCD6" points="130.972821 67.681598 128.533439 68.4232666 175.468577 223.268332 148.594549 223.268332 133.514269 67.4360801 130.972821 67.681598 128.533439 68.4232666 130.972821 67.681598 128.431373 67.9271159 143.965847 228.383288 182.352941 228.383288 133.417306 66.9399293 128.431373 67.9271159 130.972821 67.681598"></polyline>
                        <polyline id="Fill-11" fill="#DBDCD6" points="170.7384 198.850967 143.137255 202.953035 143.967482 207.710663 171.568627 203.608595"></polyline>
                        <polyline id="Fill-12" fill="#DBDCD6" points="165.858711 184.084806 141.176471 187.828558 141.984426 192.944502 166.666667 189.20075"></polyline>
                        <polyline id="Fill-13" fill="#DBDCD6" points="161.056285 169.318645 140.196078 172.202552 140.9045 177.193931 161.764706 174.310023"></polyline>
                        <polyline id="Fill-14" fill="#DBDCD6" points="157.068049 154.552484 139.215686 157.362156 139.995841 162.42777 157.843137 159.623225"></polyline>
                        <polyline id="Fill-15" fill="#DBDCD6" points="152.149092 140.770734 137.254902 142.685689 138.046986 146.677198 152.941176 144.758203"></polyline>
                        <polyline id="Fill-16" fill="#DBDCD6" points="147.268668 126.004573 136.27451 127.506821 137.045058 131.911037 148.039216 130.408789"></polyline>
                        <polygon id="Fill-17" fill="#2F3231" points="128.431373 230.35211 133.333333 230.35211 133.333333 24.6102681 128.431373 24.6102681"></polygon>
                        <polygon id="Fill-18" fill="#494C49" points="119.607843 54.1425899 138.235294 54.1425899 138.235294 49.2205363 119.607843 49.2205363"></polygon>
                        <polygon id="Fill-19" fill="#494C49" points="110.784314 40.3608397 150 40.3608397 150 35.4387861 110.784314 35.4387861"></polygon>
                        <path d="M404.901961,23.6258574 C404.901961,36.6719058 394.365341,47.2517148 381.372549,47.2517148 C368.374672,47.2517148 357.843137,36.6719058 357.843137,23.6258574 C357.843137,10.574703 368.374672,0 381.372549,0 C394.365341,0 404.901961,10.574703 404.901961,23.6258574" id="Fill-20" fill="#101212"></path>
                        <path d="M353.921569,39.376429 C353.921569,52.4224774 343.386087,63.0022864 330.394699,63.0022864 C317.398227,63.0022864 306.862745,52.4224774 306.862745,39.376429 C306.862745,26.3303807 317.398227,15.7505716 330.394699,15.7505716 C343.386087,15.7505716 353.921569,26.3303807 353.921569,39.376429" id="Fill-21" fill="#272A29"></path>
                        <path d="M327.45098,104.347537 C327.45098,111.41333 321.748001,117.144876 314.711053,117.144876 C307.668934,117.144876 301.960784,111.41333 301.960784,104.347537 C301.960784,97.2765526 307.668934,91.5501975 314.711053,91.5501975 C321.748001,91.5501975 327.45098,97.2765526 327.45098,104.347537" id="Fill-22" fill="#101212"></path>
                        <path d="M417.647059,12.7999358 C417.647059,19.867162 411.938909,25.5946789 404.901961,25.5946789 C397.859842,25.5946789 392.156863,19.867162 392.156863,12.7999358 C392.156863,5.7275169 397.859842,0 404.901961,0 C411.938909,0 417.647059,5.7275169 417.647059,12.7999358" id="Fill-23" fill="#404341"></path>
                        <path d="M335.294118,80.7216795 C335.294118,93.7677278 324.757498,104.347537 311.764706,104.347537 C298.766829,104.347537 288.235294,93.7677278 288.235294,80.7216795 C288.235294,67.6705251 298.766829,57.0958221 311.764706,57.0958221 C324.757498,57.0958221 335.294118,67.6705251 335.294118,80.7216795" id="Fill-24" fill="#272A29"></path>
                        <path d="M356.862745,63.0022864 C356.862745,76.0534409 346.327263,86.6281438 333.335876,86.6281438 C320.339403,86.6281438 309.803922,76.0534409 309.803922,63.0022864 C309.803922,49.9562381 320.339403,39.376429 333.335876,39.376429 C346.327263,39.376429 356.862745,49.9562381 356.862745,63.0022864" id="Fill-25" fill="#101212"></path>
                        <polyline id="Fill-26" fill="#DBDCD6" points="337.922583 115.176055 306.862745 234.133763 311.097025 235.274163 342.156863 116.321616"></polyline>
                        <polyline id="Fill-27" fill="#DBDCD6" points="341.754411 110.286866 339.73351 109.447959 291.176471 231.33652 328.550524 231.33652 346.078431 93.5190189 339.73351 109.447959 341.754411 110.286866 339.5924 109.998653 324.725429 226.889798 297.652422 226.889798 343.770271 111.125773 341.754411 110.286866 339.5924 109.998653 341.754411 110.286866"></polyline>
                        <polyline id="Fill-28" fill="#DBDCD6" points="301.960784 212.085456 327.925534 214.601538 328.431373 211.2072 302.471534 208.695074"></polyline>
                        <polyline id="Fill-29" fill="#DBDCD6" points="306.862745 199.526957 330.859147 201.804199 331.372549 198.179201 307.371013 195.897734"></polyline>
                        <polyline id="Fill-30" fill="#DBDCD6" points="311.764706 189.016038 332.869159 190.975681 333.333333 187.033449 312.223723 185.069216"></polyline>
                        <polyline id="Fill-31" fill="#DBDCD6" points="315.686275 178.24516 333.804723 180.147163 334.313725 176.147363 316.200419 174.240698"></polyline>
                        <polyline id="Fill-32" fill="#DBDCD6" points="318.627451 168.5779 333.787957 170.303055 334.313725 166.121747 319.148115 164.396591"></polyline>
                        <polyline id="Fill-33" fill="#DBDCD6" points="326.470588 156.389283 336.787046 157.505716 337.254902 153.700096 326.938444 152.583662"></polyline>
                        <polyline id="Fill-34" fill="#DBDCD6" points="341.176471 116.321616 372.236308 235.274163 376.470588 234.133763 345.410751 115.176055"></polyline>
                        <polyline id="Fill-35" fill="#DBDCD6" points="342.564355 110.282346 340.543454 111.121284 386.666343 226.889632 359.588296 226.889632 344.721325 109.994122 342.564355 110.282346 340.543454 111.121284 342.564355 110.282346 340.402344 110.57057 355.763201 231.33652 393.137255 231.33652 338.235294 93.5190189 340.402344 110.57057 342.564355 110.282346"></polyline>
                        <polyline id="Fill-36" fill="#DBDCD6" points="381.847102 208.695074 355.882353 211.2072 356.388192 214.601538 382.352941 212.085456"></polyline>
                        <polyline id="Fill-37" fill="#DBDCD6" points="376.942606 195.897734 352.941176 198.179201 353.449551 201.804199 377.45098 199.526957"></polyline>
                        <polyline id="Fill-38" fill="#DBDCD6" points="374.045741 185.069216 352.941176 187.033449 353.40524 190.975681 374.509804 189.016038"></polyline>
                        <polyline id="Fill-39" fill="#DBDCD6" points="370.074091 174.240698 351.960784 176.147363 352.469787 180.147163 370.588235 178.24516"></polyline>
                        <polyline id="Fill-40" fill="#DBDCD6" points="364.185219 164.396591 349.019608 166.121747 349.545376 170.303055 364.705882 168.5779"></polyline>
                        <polyline id="Fill-41" fill="#DBDCD6" points="357.375281 152.583662 347.058824 153.700096 347.526679 157.505716 357.843137 156.389283"></polyline>
                        <polygon id="Fill-42" fill="#2F3231" points="340.196078 224.445645 345.098039 224.445645 345.098039 55.1270006 340.196078 55.1270006"></polygon>
                        <polygon id="Fill-43" fill="#494C49" points="332.352941 85.6437331 350.980392 85.6437331 350.980392 80.7216795 332.352941 80.7216795"></polygon>
                        <polygon id="Fill-44" fill="#494C49" points="323.529412 71.861983 362.745098 71.861983 362.745098 66.9399293 323.529412 66.9399293"></polygon>
                        <polyline id="Fill-45" fill="#BDBEBA" points="383.333333 187.038038 385.404066 197.866556 422.930289 197.866556 430.392157 187.038038 383.333333 187.038038"></polyline>
                        <polyline id="Fill-46" fill="#E36578" points="422.754196 196.882145 426.470588 191.960091 384.313725 191.960091 385.348344 196.882145 422.754196 196.882145"></polyline>
                        <polyline id="Fill-47" fill="#101212" points="283.243589 213.617127 251.960784 213.617127 300.094838 112.222823 331.372549 112.222823 283.243589 213.617127"></polyline>
                        <polyline id="Fill-48" fill="#FFFFFE" points="326.842677 126.004573 294.117647 126.004573 295.706342 123.051341 328.431373 123.051341 326.842677 126.004573"></polyline>
                        <polyline id="Fill-49" fill="#FFFFFE" points="323.901501 131.911037 291.176471 131.911037 292.765166 128.957805 325.490196 128.957805 323.901501 131.911037"></polyline>
                        <polygon id="Fill-50" fill="#565A57" points="376.470588 224.445645 435.294118 224.445645 435.294118 205.741842 376.470588 205.741842"></polygon>
                        <polygon id="Fill-51" fill="#A2A5A1" points="381.372549 224.445645 431.372549 224.445645 431.372549 209.679485 381.372549 209.679485"></polygon>
                        <polyline id="Fill-52" fill="#6E7370" points="322.54902 241.079533 201.960784 241.180628 201.960784 205.842936 322.54902 205.741842 322.54902 241.079533"></polyline>
                        <polygon id="Fill-53" fill="#A2A5A1" points="205.882353 224.445645 216.666667 224.445645 216.666667 209.679485 205.882353 209.679485"></polygon>
                        <polygon id="Fill-54" fill="#A2A5A1" points="222.54902 224.445645 233.333333 224.445645 233.333333 209.679485 222.54902 209.679485"></polygon>
                        <polygon id="Fill-55" fill="#A2A5A1" points="240.196078 224.445645 250.980392 224.445645 250.980392 209.679485 240.196078 209.679485"></polygon>
                        <polygon id="Fill-56" fill="#A2A5A1" points="255.882353 224.445645 266.666667 224.445645 266.666667 209.679485 255.882353 209.679485"></polygon>
                        <polygon id="Fill-57" fill="#A2A5A1" points="274.509804 224.445645 285.294118 224.445645 285.294118 209.679485 274.509804 209.679485"></polygon>
                        <polygon id="Fill-58" fill="#A2A5A1" points="289.215686 224.445645 300 224.445645 300 209.679485 289.215686 209.679485"></polygon>
                        <polygon id="Fill-59" fill="#A2A5A1" points="305.882353 224.445645 316.666667 224.445645 316.666667 209.679485 305.882353 209.679485"></polygon>
                        <polyline id="Fill-60" fill="#272A29" points="321.568627 205.640111 209.803922 205.741842 209.803922 190.975681 321.568627 190.975681 321.568627 205.640111"></polyline>
                        <polyline id="Fill-61" fill="#6E7370" points="262.609829 189.006859 209.803922 189.006859 209.803922 181.131573 266.666667 181.131573 262.609829 189.006859"></polyline>
                        <polygon id="Fill-62" fill="#696D6A" points="395.098039 221.492413 398.039216 221.492413 398.039216 182.115984 395.098039 182.115984"></polygon>
                        <polygon id="Fill-63" fill="#696D6A" points="413.72549 221.492413 416.666667 221.492413 416.666667 182.115984 413.72549 182.115984"></polygon>
                        <polygon id="Fill-64" fill="#95CEB3" points="201.960784 228.383288 322.54902 228.383288 322.54902 219.523592 201.960784 219.523592"></polygon>
                        <polyline id="Fill-65" fill="#A2A5A1" points="201.764041 223.351008 171.171678 223.180107 74.7511504 210.46094 74.7511504 199.140053 0 185.069216 0 278.588235 393.159787 278.588235 435.294118 233.387549 435.294118 223.351008 201.764041 223.351008"></polyline>
                        <polyline id="Fill-66" fill="#101212" points="0 263.822074 0 278.588235 393.044127 278.588235 406.862745 263.822074 0 263.822074"></polyline>
                        <polyline id="Fill-67" fill="#6E7370" points="416.593263 252.009146 72.0377438 251.95014 0 252.009146 0 247.087092 72.8780731 247.092009 421.568627 247.092009 416.593263 252.009146"></polyline>
                        <path d="M315.686275,234.78926 C315.686275,237.2365 313.711949,239.211806 311.27451,239.211806 C308.837071,239.206941 306.862745,237.217039 306.862745,234.769799 C306.862745,232.327425 308.837071,230.347253 311.27451,230.352119 C313.711949,230.352119 315.686275,232.342021 315.686275,234.78926" id="Fill-68" fill="#101212"></path>
                        <path d="M283.333333,234.789256 C283.333333,237.236493 281.357916,239.216663 278.91913,239.211797 C276.485221,239.206932 274.509804,237.221897 274.509804,234.77466 C274.509804,232.327423 276.485221,230.347253 278.91913,230.352119 C281.357916,230.356984 283.333333,232.346884 283.333333,234.789256" id="Fill-69" fill="#101212"></path>
                        <path d="M250,234.789256 C250,237.236493 248.025674,239.216663 245.588235,239.211797 C243.150796,239.206932 241.176471,237.221897 241.176471,234.77466 C241.176471,232.327423 243.150796,230.347253 245.588235,230.352119 C248.025674,230.356984 250,232.342019 250,234.789256" id="Fill-70" fill="#101212"></path>
                        <path d="M214.705882,234.789256 C214.705882,237.236493 212.730465,239.216663 210.291679,239.211797 C207.85777,239.206932 205.882353,237.217032 205.882353,234.77466 C205.882353,232.327423 207.85777,230.347253 210.291679,230.352119 C212.730465,230.356984 214.705882,232.342019 214.705882,234.789256" id="Fill-71" fill="#101212"></path>
                        <path d="M55.8823529,205.256934 C55.8823529,207.704171 53.9080273,209.684341 51.4705882,209.679476 C49.0331492,209.67461 47.0588235,207.689575 47.0588235,205.242338 C47.0588235,202.795101 49.0331492,200.814932 51.4705882,200.819797 C53.9080273,200.824662 55.8823529,202.809697 55.8823529,205.256934" id="Fill-72" fill="#101212"></path>
                        <path d="M23.5294118,199.35047 C23.5294118,201.797707 21.5550861,203.777876 19.1176471,203.773011 C16.680208,203.768146 14.7058824,201.778246 14.7058824,199.335874 C14.7058824,196.888637 16.680208,194.908467 19.1176471,194.913333 C21.5550861,194.918198 23.5294118,196.903233 23.5294118,199.35047" id="Fill-73" fill="#101212"></path>
                        <path d="M360.784314,52.1737684 C360.784314,59.2395611 355.081335,64.9711079 348.039216,64.9711079 C341.002267,64.9711079 335.294118,59.2395611 335.294118,52.1737684 C335.294118,45.1079758 341.002267,39.376429 348.039216,39.376429 C355.081335,39.376429 360.784314,45.1079758 360.784314,52.1737684" id="Fill-74" fill="#404341"></path>
                    </g>
                </g>
            </g>
        </g>
    </g>
</svg>