<svg width="150" height="13" viewBox="0 0 150 13" version="1.1" xmlns="http://www.w3.org/2000/svg" xmlns:xlink="http://www.w3.org/1999/xlink">
<title>Group 7</title>
<desc>Created using Figma</desc>
<g id="Canvas" transform="translate(-27641 4462)">
<g id="Group 7">
<g id="&#208;&#152;&#209;&#129;&#209;&#130;&#208;&#190;&#209;&#128;&#208;&#184;&#209;&#143; &#208;&#177;&#209;&#131;&#208;&#180;&#209;&#131;&#209;&#137;&#208;&#181;&#208;&#179;&#208;&#190; Copy">
<g id="Page 1">
<g id="Fill 1">
<use xlink:href="#path0_fill" transform="translate(27673.9 -4455.69)"/>
</g>
<g id="Fill 3">
<use xlink:href="#path1_fill" transform="translate(27672.3 -4459.66)"/>
</g>
<g id="Fill 5">
<use xlink:href="#path2_fill" transform="translate(27700.6 -4461.97)"/>
</g>
<g id="Fill 7">
<use xlink:href="#path3_fill" transform="translate(27751.1 -4459.42)"/>
</g>
<g id="Fill 9">
<use xlink:href="#path4_fill" transform="translate(27715.5 -4459.39)"/>
</g>
<g id="Fill 11">
<use xlink:href="#path5_fill" transform="translate(27641 -4462)"/>
</g>
<g id="Fill 13">
<use xlink:href="#path6_fill" transform="translate(27705.5 -4451.75)"/>
</g>
<g id="Fill 15">
<use xlink:href="#path7_fill" transform="translate(27681.3 -4459.39)"/>
</g>
<g id="Fill 17">
<use xlink:href="#path8_fill" transform="translate(27695.4 -4459.42)"/>
</g>
<g id="Fill 19">
<use xlink:href="#path8_fill" transform="translate(27695.4 -4459.42)"/>
</g>
<g id="Fill 21">
<use xlink:href="#path9_fill" transform="translate(27657.9 -4459.42)"/>
</g>
<g id="Fill 23">
<use xlink:href="#path10_fill" transform="translate(27663.3 -4459.61)"/>
</g>
<g id="Fill 25">
<use xlink:href="#path11_fill" transform="translate(27756.3 -4459.61)"/>
</g>
<g id="Fill 27">
<use xlink:href="#path12_fill" transform="translate(27650.4 -4459.49)"/>
</g>
<g id="Fill 29">
<use xlink:href="#path13_fill" transform="translate(27742.8 -4459.61)"/>
</g>
<g id="Fill 31">
<use xlink:href="#path14_fill" transform="translate(27708.7 -4459.42)"/>
</g>
<g id="Fill 33">
<use xlink:href="#path14_fill" transform="translate(27724.2 -4459.42)"/>
</g>
<g id="Fill 35">
<use xlink:href="#path15_fill" transform="translate(27689.2 -4459.42)"/>
</g>
<g id="Fill 37">
<use xlink:href="#path16_fill" transform="translate(27732.2 -4459.42)"/>
</g>
</g>
</g>
<g id="Rectangle Copy 28">
<use xlink:href="#path17_fill" transform="translate(27775 -4456)"/>
</g>
</g>
</g>
<defs>
<path id="path0_fill" fill-rule="evenodd" d="M 0.00101458 0L 0.00101458 0.0975009C 0 0.0812507 0 0.0650006 0 0.0487504C 0 0.0325003 0 0.0162501 0.00101458 0Z"/>
<path id="path1_fill" fill-rule="evenodd" d="M 4.05871 6.87202C 2.66735 6.87202 1.66975 5.61981 1.64945 4.06555C 1.64844 4.0493 1.64844 4.03305 1.64844 4.0168C 1.64844 4.00055 1.64844 3.9843 1.64945 3.96805C 1.66975 2.41187 2.66735 1.15967 4.05871 1.15967C 5.46326 1.15967 6.46898 2.43864 6.46898 4.0168C 6.46898 5.59305 5.46326 6.87202 4.05871 6.87202ZM 4.0584 0C 2.94917 0 2.14946 0.4875 1.63899 1.2675L 1.4208 0.263823L 0 0.263823L 0.228342 1.31529L 0.228342 10.444L 1.64914 10.444L 1.64914 6.78007C 2.16063 7.55051 2.95729 8.03132 4.0584 8.03132C 6.18858 8.03132 7.91485 6.23426 7.91485 4.01662C 7.91485 1.79801 6.18858 0 4.0584 0Z"/>
<path id="path2_fill" fill-rule="evenodd" d="M 4.89577 8.88965L 1.41992 8.88965L 1.41992 5.63965L 4.94651 5.63965C 5.87002 5.63965 6.62101 6.36899 6.62101 7.26465C 6.62101 8.14502 5.83044 8.88965 4.89577 8.88965ZM 4.94742 4.49265L 1.4208 4.49265L 1.4208 1.05147L 6.59656 1.05147L 6.59656 0L 0 0L 0 10.2279L 4.89668 10.2279C 4.9048 10.2279 4.91393 10.2279 4.92205 10.227C 6.57829 10.2146 7.94124 8.92316 7.94124 7.36029C 7.94124 5.78978 6.61483 4.49265 4.94742 4.49265Z"/>
<path id="path3_fill" fill-rule="evenodd" d="M 4.66832 0L 4.66832 1.05147L 1.42079 1.05147L 1.42079 7.64706L 0 7.64706L 0 0L 4.66832 0Z"/>
<path id="path4_fill" fill-rule="evenodd" d="M 5.73338 6.59539L 2.3418 6.59539L 3.29067 5.06598L 3.29777 5.06598L 3.29777 1.05127L 5.73338 1.05127L 5.73338 6.59539ZM 7.1547 6.59559L 7.1547 0L 1.87748 0L 1.87748 5.06618L 1.87037 5.06618L 0.921485 6.59559L 0 6.59559L 0 9.17647L 1.42079 9.17647L 1.42079 7.64706L 6.69802 7.64706L 6.69802 9.17647L 8.11881 9.17647L 8.11881 6.59559L 7.1547 6.59559Z"/>
<path id="path5_fill" fill-rule="evenodd" d="M 7.91584 0L 7.91584 10.2279L 6.49505 10.2279L 6.49505 2.20904L 1.72139 10.2279L 0 10.2279L 0 0L 1.42079 0L 1.42079 8.08868L 6.64342 0L 7.91584 0Z"/>
<path id="path6_fill" fill-rule="evenodd" d="M 0.0253808 0L 0.0253808 0.000955874L 0 0.000955874C 0.00812186 0.000955874 0.017259 0.000955874 0.0253808 0Z"/>
<path id="path7_fill" fill-rule="evenodd" d="M 6.29211 0L 6.29211 7.64706L 4.87131 7.64706L 4.87131 2.1536L 1.51518 7.64706L 0 7.64706L 0 0L 1.4208 0L 1.4208 5.50779L 4.8368 0L 6.29211 0Z"/>
<path id="path8_fill" fill-rule="evenodd" d="M 0.0162333 0L 0 0.0258086L 0 0L 0.0162333 0Z"/>
<path id="path9_fill" fill-rule="evenodd" d="M 3.04454 1.05147L 3.04454 6.59559L 3.49737 7.64706L 2.02584 7.64706L 1.62376 6.59559L 1.62376 1.05147L 0 1.05147L 0 0L 4.6683 0L 4.6683 1.05147L 3.04454 1.05147Z"/>
<path id="path10_fill" fill-rule="evenodd" d="M 3.85559 6.87241C 2.45002 6.87241 1.44531 5.59353 1.44531 4.01652C 1.44531 2.43854 2.45002 1.15967 3.85559 1.15967C 5.26116 1.15967 6.26587 2.43854 6.26587 4.01652C 6.26587 5.59353 5.26116 6.87241 3.85559 6.87241ZM 3.85643 0C 1.72626 0 0 1.79868 0 4.01662C 0 6.23455 1.72626 8.03228 3.85643 8.03228C 5.9866 8.03228 7.71286 6.23455 7.71286 4.01662C 7.71286 1.79868 5.9866 0 3.85643 0Z"/>
<path id="path11_fill" fill-rule="evenodd" d="M 3.85558 6.87241C 2.45001 6.87241 1.44531 5.59353 1.44531 4.01652C 1.44531 2.43854 2.45001 1.15967 3.85558 1.15967C 5.26115 1.15967 6.26585 2.43854 6.26585 4.01652C 6.26585 5.59353 5.26115 6.87241 3.85558 6.87241ZM 3.85642 0C 1.72626 0 0 1.79868 0 4.01662C 0 6.23455 1.72626 8.03228 3.85642 8.03228C 5.98659 8.03228 7.71285 6.23455 7.71285 4.01662C 7.71285 1.79868 5.98659 0 3.85642 0Z"/>
<path id="path12_fill" fill-rule="evenodd" d="M 6.02011 5.32904C 5.63954 6.18934 4.84795 6.87088 3.85644 6.87088C 2.45087 6.87088 1.44617 5.5814 1.44617 4.00419C 1.44617 2.42603 2.45087 1.16522 3.85644 1.16522C 4.84795 1.16522 5.63954 1.79228 6.02011 2.74816L 7.50788 2.74816C 6.99234 1.12316 5.55226 0 3.85644 0C 1.72626 0 0 1.7875 0 4.00419C 0 6.22184 1.72626 8.03706 3.85644 8.03706C 5.55226 8.03706 6.99233 6.85845 7.50889 5.32904L 6.02011 5.32904Z"/>
<path id="path13_fill" fill-rule="evenodd" d="M 1.40625 3.24997C 1.60516 2.00732 2.30642 1.19482 3.6643 1.19482C 4.89329 1.19482 5.93656 2.00732 6.02485 3.24997L 1.40625 3.24997ZM 3.54029 0C 1.55018 0 0 1.77603 0 3.96691C 0 6.1578 1.64385 7.93383 3.63396 7.93383C 4.81727 7.93383 5.90355 7.37463 6.56117 6.40441L 5.4831 5.92647C 5.04266 6.4761 4.35653 6.78677 3.66126 6.78677C 2.19694 6.78677 1.49761 5.79743 1.36669 4.46875C 1.3606 4.40566 1.35746 4.30147 1.35441 4.30147L 7.01806 4.30147L 7.01806 3.15441C 6.81509 1.10596 5.47255 0 3.54029 0Z"/>
<path id="path14_fill" fill-rule="evenodd" d="M 7.05321 0L 4.31311 7.55147L 1.52227 10.4191L 0 10.4191L 2.79084 7.55147L 2.7949 7.55147L 0 0L 1.42079 0L 3.55502 6.37956L 5.63242 0L 7.05321 0Z"/>
<path id="path15_fill" fill-rule="evenodd" d="M 2.13815 2.86768C 1.76062 2.86768 1.45312 2.51591 1.45312 2.05518C 1.45312 1.60209 1.79005 1.24268 2.18889 1.24268L 4.62838 1.24268L 4.62838 2.86768L 2.13815 2.86768ZM 6.16321 0L 5.94786 0.0258088L 5.94786 0L 2.18904 0C 1.06763 0 0.133961 0.907133 0.133961 2.05515C 0.133961 3.20316 1.01688 4.1103 2.1383 4.1103L 2.1931 4.1103L 0 7.64706L 1.4208 7.64706L 3.6139 4.1103L 4.62855 4.1103L 4.62855 7.64706L 6.04935 7.64706L 6.04935 0L 6.16321 0Z"/>
<path id="path16_fill" fill-rule="evenodd" d="M 10.1375 7.64706L 9.18865 9.17647L 7.76786 9.17647L 8.71675 7.64706L 0 7.64706L 0 0L 1.42079 0L 1.42079 6.30882L 3.65346 6.30882L 3.65346 0L 5.07425 0L 5.07425 6.30882L 7.30692 6.30882L 7.30692 0L 8.72771 0L 8.72771 7.64706L 10.1375 7.64706Z"/>
<path id="path17_fill" fill-rule="evenodd" d="M 0 0L 16 0L 16 1L 0 1L 0 0Z"/>
</defs>
</svg>
