<?xml version="1.0" encoding="UTF-8"?>
<svg width="66px" height="30px" viewBox="0 0 66 30" version="1.1" xmlns="http://www.w3.org/2000/svg" xmlns:xlink="http://www.w3.org/1999/xlink">
    <!-- Generator: Sketch 48.2 (47327) - http://www.bohemiancoding.com/sketch -->
    <title>header_logo</title>
    <desc>Created with Sketch.</desc>
    <defs></defs>
    <g id="tablet_header" stroke="none" stroke-width="1" fill="none" fill-rule="evenodd" transform="translate(-91.000000, -25.000000)">
        <g id="Group-17-Copy">
            <g id="Group" transform="translate(91.000000, 25.000000)">
                <g id="Page-1-Copy">
                    <g>
                        <polygon id="Fill-1" fill="#FFFFFF" points="46.7331427 8.39590361 45.5341828 8.39590361 44.335223 8.39590361 43.1362631 8.39590361 41.9373033 8.39590361 41.9373033 9.5953012 43.1362631 9.5953012 44.335223 9.5953012 45.5341828 9.5953012 46.7331427 9.5953012 47.9321026 9.5953012 47.9321026 8.39590361"></polygon>
                        <polygon id="Fill-2" fill="#FFFFFF" points="58.7497193 20.3900361 57.5507595 20.3900361 57.5507595 19.1906386 57.5507595 17.991241 56.3517996 17.991241 56.3517996 19.1906386 56.3517996 20.3900361 55.1527193 20.3900361 53.9537595 20.3900361 53.9537595 21.5894337 55.1527193 21.5894337 56.3517996 21.5894337 56.3517996 22.7888313 56.3517996 23.9882289 57.5507595 23.9882289 57.5507595 22.7888313 57.5507595 21.5894337 58.7497193 21.5894337 59.9486792 21.5894337 59.9486792 20.3900361"></polygon>
                        <polygon id="Fill-3" fill="#FFFFFF" points="22.7805142 20.3900361 21.5815544 20.3900361 21.5815544 19.1906386 21.5815544 17.991241 20.3824741 17.991241 20.3824741 19.1906386 20.3824741 20.3900361 19.1835142 20.3900361 17.9845544 20.3900361 17.9845544 21.5894337 19.1835142 21.5894337 20.3824741 21.5894337 20.3824741 22.7888313 20.3824741 23.9882289 21.5815544 23.9882289 21.5815544 22.7888313 21.5815544 21.5894337 22.7805142 21.5894337 23.9794741 21.5894337 23.9794741 20.3900361"></polygon>
                        <polygon id="Fill-4" fill="#FFFFFF" points="58.7497193 8.39590361 57.5507595 8.39590361 57.5507595 7.19650602 57.5507595 5.99710843 56.3517996 5.99710843 56.3517996 7.19650602 56.3517996 8.39590361 55.1527193 8.39590361 53.9537595 8.39590361 53.9537595 9.5953012 55.1527193 9.5953012 56.3517996 9.5953012 56.3517996 10.7946988 56.3517996 11.9940964 57.5507595 11.9940964 57.5507595 10.7946988 57.5507595 9.5953012 58.7497193 9.5953012 59.9486792 9.5953012 59.9486792 8.39590361"></polygon>
                        <polygon id="Fill-5" fill="#FFFFFF" points="62.3465869 8.43373494e-05 62.3465869 1.19948193 62.3465869 2.39887952 61.147627 2.39887952 59.9486672 2.39887952 59.9486672 3.59827711 61.147627 3.59827711 62.3465869 3.59827711 62.3465869 4.7976747 62.3465869 5.99707229 63.5456672 5.99707229 63.5456672 4.7976747 63.5456672 3.59827711 64.744627 3.59827711 65.9435869 3.59827711 65.9435869 2.39887952 64.744627 2.39887952 63.5456672 2.39887952 63.5456672 1.19948193 63.5456672 8.43373494e-05"></polygon>
                        <polygon id="Fill-6" fill="#FFFFFF" points="35.9691569 5.99710843 41.9639562 5.99710843 41.9639562 0.000120481928 35.9691569 0.000120481928"></polygon>
                        <polygon id="Fill-7" fill="#FFFFFF" points="47.9588759 17.9912048 53.9536752 17.9912048 53.9536752 11.9940964 47.9588759 11.9940964"></polygon>
                        <polygon id="Fill-8" fill="#FFFFFF" points="41.9640766 23.9881928 47.9588759 23.9881928 47.9588759 17.9912048 41.9640766 17.9912048"></polygon>
                        <polygon id="Fill-9" fill="#FFFFFF" points="35.9691569 29.9854217 41.9640766 29.9854217 41.9640766 23.9883133 35.9691569 23.9883133"></polygon>
                        <polygon id="Fill-10" fill="#FFFFFF" points="59.9487153 29.9854217 65.9435146 29.9854217 65.9435146 23.9883133 59.9487153 23.9883133"></polygon>
                        <polygon id="Fill-11" fill="#FFFFFF" points="10.7907712 8.39590361 9.59181131 8.39590361 8.39285146 8.39590361 7.19389161 8.39590361 5.99493175 8.39590361 5.99493175 9.5953012 7.19389161 9.5953012 8.39285146 9.5953012 9.59181131 9.5953012 10.7907712 9.5953012 11.989731 9.5953012 11.989731 8.39590361"></polygon>
                        <polygon id="Fill-12" fill="#FFFFFF" points="16.7856066 14.9926747 15.5866467 14.9926747 14.3876869 14.9926747 13.188727 14.9926747 11.9897672 14.9926747 11.9897672 16.1920723 13.188727 16.1920723 14.3876869 16.1920723 15.5866467 16.1920723 16.7856066 16.1920723 17.9845664 16.1920723 17.9845664 14.9926747"></polygon>
                        <polygon id="Fill-13" fill="#FFFFFF" points="10.7907712 20.3900361 9.59181131 20.3900361 8.39285146 20.3900361 7.19389161 20.3900361 5.99493175 20.3900361 5.99493175 21.5894337 7.19389161 21.5894337 8.39285146 21.5894337 9.59181131 21.5894337 10.7907712 21.5894337 11.989731 21.5894337 11.989731 20.3900361"></polygon>
                        <polygon id="Fill-14" fill="#FFFFFF" points="23.9795584 29.9853012 29.9743577 29.9853012 29.9743577 23.9881928 23.9795584 23.9881928"></polygon>
                        <polygon id="Fill-15" fill="#FFFFFF" points="0 29.9854217 5.99479927 29.9854217 5.99479927 23.9883133 0 23.9883133"></polygon>
                        <polygon id="Fill-16" fill="#FF4A68" points="18.0266715 11.9940964 24.0214708 11.9940964 24.0214708 5.99698795 18.0266715 5.99698795"></polygon>
                        <polygon id="Fill-17" fill="#FFFFFF" points="23.979438 5.99710843 29.9742372 5.99710843 29.9742372 0.000120481928 23.979438 0.000120481928"></polygon>
                        <polygon id="Fill-18" fill="#FFFFFF" points="0 5.99710843 5.99479927 5.99710843 5.99479927 0.000120481928 0 0.000120481928"></polygon>
                    </g>
                </g>
            </g>
        </g>
    </g>
</svg>