<?xml version="1.0" encoding="UTF-8"?>
<svg width="8px" height="15px" viewBox="0 0 8 15" version="1.1" xmlns="http://www.w3.org/2000/svg" xmlns:xlink="http://www.w3.org/1999/xlink">
    <!-- Generator: Sketch 48.2 (47327) - http://www.bohemiancoding.com/sketch -->
    <title>icon_fb_white</title>
    <desc>Created with Sketch.</desc>
    <defs>
        <polygon id="path-1" points="4 15 8 15 8 0 4 0 0 0 0 15"></polygon>
    </defs>
    <g id="desktop_header_1260" stroke="none" stroke-width="1" fill="none" fill-rule="evenodd" transform="translate(-809.000000, -32.000000)">
        <g id="Group-17-Copy">
            <g id="Group-11-Copy-2" transform="translate(646.000000, 22.000000)">
                <g id="Group-23" transform="translate(144.000000, 0.000000)">
                    <g id="Page-1-Copy" transform="translate(19.000000, 10.000000)">
                        <mask id="mask-2" fill="white">
                            <use xlink:href="#path-1"></use>
                        </mask>
                        <g id="Clip-2"></g>
                        <path d="M2.72935461,15 L2.72935461,7.01506269 L0,7.01506269 L0,4.96876204 L2.72935461,4.96876204 L2.72935461,2.92567076 C2.72935461,1.3126364 4.14850798,0 5.89243581,0 L8,0 L8,2.04630065 L5.89243581,2.04630065 C5.3684941,2.04630065 4.94170715,2.44105439 4.94170715,2.92567076 L4.94170715,4.96876204 L7.89035392,4.96876204 L7.89035392,7.01506269 L4.94170715,7.01506269 L4.94170715,15 L2.72935461,15 Z" id="Fill-1" fill="#FFFFFF" mask="url(#mask-2)"></path>
                    </g>
                </g>
            </g>
        </g>
    </g>
</svg>