<?xml version="1.0" encoding="UTF-8"?>
<svg width="13px" height="8px" viewBox="0 0 13 8" version="1.1" xmlns="http://www.w3.org/2000/svg" xmlns:xlink="http://www.w3.org/1999/xlink">
    <!-- Generator: Sketch 48.2 (47327) - http://www.bohemiancoding.com/sketch -->
    <title>icon_vk_red</title>
    <desc>Created with Sketch.</desc>
    <defs>
        <polygon id="path-1" points="0 8 0 0 13 0 13 8"></polygon>
    </defs>
    <g id="desktop_header_1260" stroke="none" stroke-width="1" fill="none" fill-rule="evenodd" transform="translate(-663.000000, -36.000000)">
        <g id="Group-17-Copy">
            <g id="Group-11-Copy-2" transform="translate(646.000000, 22.000000)">
                <g id="Group-26">
                    <g id="Page-1-Copy-2" transform="translate(17.000000, 14.000000)">
                        <g id="Clip-2"></g>
                        <path d="M12.7016184,0.541895067 C12.7917051,0.229287392 12.7016184,0 12.2717417,0 L10.8497022,0 C10.4875416,0 10.3206696,0.198590446 10.2305829,0.41660141 C10.2305829,0.41660141 9.50747097,2.24338293 8.48265931,3.42991386 C8.15133377,3.77321848 8.00078622,3.88285043 7.82000823,3.88285043 C7.72931694,3.88285043 7.59872147,3.77321848 7.59872147,3.46123727 L7.59872147,0.541895067 C7.59872147,0.167267032 7.49351957,0 7.19242446,0 L4.95718629,0 C4.73166727,0 4.59563032,0.174158183 4.59563032,0.338919342 C4.59563032,0.69412686 5.10773385,0.776194205 5.1603348,1.77541112 L5.1603348,3.94549726 C5.1603348,4.42098669 5.07750341,4.50743931 4.89672543,4.50743931 C4.41485234,4.50743931 3.24191156,2.6725137 2.54661162,0.573218481 C2.40997007,0.164761159 2.27332851,0 1.90995871,0 L0.487919178,0 C0.0810175586,0 0,0.198590446 0,0.41660141 C0,0.806891151 0.4824777,2.74330462 2.2449119,5.3036805 C3.42027111,7.05215348 5.0762942,8 6.58297894,8 C7.48686887,8 7.59872147,7.78888019 7.59872147,7.42678152 L7.59872147,6.10493344 C7.59872147,5.68394675 7.6845759,5.6 7.97055579,5.6 C8.18156421,5.6 8.54312018,5.70963195 9.38715385,6.55223179 C10.3509,7.55144871 10.5099121,8 11.0522461,8 L12.4748902,8 C12.8811872,8 13.0843357,7.78888019 12.9670416,7.37353171 C12.8388646,6.96006265 12.3781528,6.35927956 11.7674981,5.64698512 C11.4361725,5.24103367 10.9385796,4.80375881 10.7880321,4.58512138 C10.5770237,4.30446359 10.6374845,4.17916993 10.7880321,3.92983555 C10.7880321,3.92983555 12.5208405,1.40078309 12.7016184,0.541895067" id="Fill-1" fill="#FF4A68" mask="url(#mask-2)"></path>
                    </g>
                </g>
            </g>
        </g>
    </g>
</svg>