<?xml version="1.0" encoding="UTF-8"?>
<svg width="28px" height="31px" viewBox="0 0 28 31" version="1.1" xmlns="http://www.w3.org/2000/svg" xmlns:xlink="http://www.w3.org/1999/xlink">
    <!-- Generator: Sketch 48.2 (47327) - http://www.bohemiancoding.com/sketch -->
    <title>Group</title>
    <desc>Created with Sketch.</desc>
    <defs></defs>
    <g id="Mobile-Home-Draft" stroke="none" stroke-width="1" fill="none" fill-rule="evenodd" transform="translate(-145.000000, -3808.000000)">
        <g id="Group-15" transform="translate(145.000000, 3808.000000)" fill="#0B0B0A">
            <g id="Group">
                <path d="M14.213,28.71 C10.729,28.71 7.245,27.391 4.592,24.761 C4.396,24.57 4.395,24.25 4.589,24.051 C4.784,23.86 5.101,23.86 5.296,24.051 C10.213,28.931 18.213,28.931 23.13,24.051 C26.302,20.9 27.552,16.271 26.394,11.971 C26.322,11.7 26.48,11.43 26.747,11.36 C27.012,11.28 27.288,11.44 27.36,11.711 C28.611,16.36 27.26,21.36 23.834,24.761 C21.182,27.391 17.697,28.71 14.213,28.71" id="Fill-2966"></path>
                <path d="M1.549,19.07 C1.329,19.07 1.127,18.93 1.067,18.7 C-0.185,14.051 1.167,9.051 4.592,5.65 C9.897,0.381 18.53,0.381 23.834,5.65 C24.031,5.84 24.032,6.16 23.837,6.36 C23.643,6.551 23.325,6.551 23.13,6.36 C18.213,1.48 10.213,1.48 5.296,6.36 C2.125,9.51 0.875,14.141 2.033,18.44 C2.104,18.711 1.946,18.98 1.68,19.061 C1.636,19.07 1.592,19.07 1.549,19.07" id="Fill-2967"></path>
                <path d="M4.309,30.08 L4.248,30.08 C3.974,30.04 3.779,29.79 3.813,29.521 L4.448,24.34 C4.473,24.141 4.616,23.98 4.811,23.92 L9.868,22.521 C10.134,22.45 10.41,22.601 10.484,22.871 C10.558,23.131 10.402,23.41 10.136,23.48 L5.4,24.801 L4.805,29.641 C4.774,29.891 4.558,30.08 4.309,30.08" id="Fill-2968"></path>
                <path d="M18.424,7.91 C18.206,7.91 18.004,7.771 17.943,7.551 C17.869,7.28 18.025,7 18.291,6.93 L23.027,5.61 L23.623,0.771 C23.656,0.5 23.902,0.301 24.18,0.33 C24.454,0.371 24.649,0.62 24.615,0.891 L23.979,6.07 C23.954,6.271 23.811,6.431 23.616,6.49 L18.559,7.891 C18.514,7.91 18.469,7.91 18.424,7.91" id="Fill-2969"></path>
            </g>
        </g>
    </g>
</svg>