<?xml version="1.0" encoding="UTF-8"?>
<svg width="15px" height="12px" viewBox="0 0 15 12" version="1.1" xmlns="http://www.w3.org/2000/svg" xmlns:xlink="http://www.w3.org/1999/xlink">
    <!-- Generator: Sketch 48.2 (47327) - http://www.bohemiancoding.com/sketch -->
    <title>Fill 1</title>
    <desc>Created with Sketch.</desc>
    <defs></defs>
    <g id="Home-S2-Desktop-1366" stroke="none" stroke-width="1" fill="none" fill-rule="evenodd" transform="translate(-478.000000, -6890.000000)">
        <g id="Group-12" transform="translate(478.000000, 6890.000000)" fill="#4A4A4A">
            <path d="M13.4652472,2.98990029 C13.4722838,3.11956138 13.4750202,3.25037674 13.4750202,3.38157684 C13.4750202,7.3845266 10.3793229,12 4.71840713,12 C2.98076672,12 1.36274791,11.4986694 0,10.6391356 C0.239634099,10.6652987 0.485913841,10.681843 0.734148185,10.681843 C2.1762529,10.681843 3.50303615,10.1970567 4.55695708,9.38407772 C3.20867322,9.36099266 2.07304996,8.4837603 1.68095697,7.28064382 C1.8689896,7.31604091 2.06210419,7.33566321 2.25873707,7.33566321 C2.54019963,7.33566321 2.81228011,7.29795761 3.06989654,7.22947193 C1.66180188,6.94937318 0.600453467,5.72663439 0.600453467,4.25765494 L0.600453467,4.21994934 C1.01561075,4.44618295 1.49057882,4.58238482 1.99486591,4.59777486 C1.1692424,4.0545064 0.626645123,3.1264869 0.626645123,2.07611658 C0.626645123,1.52130559 0.77832217,1.00150694 1.04336608,0.554041489 C2.56013656,2.38661066 4.82864663,3.59203565 7.38682859,3.71823399 C7.33366344,3.4973869 7.30786271,3.26499727 7.30786271,3.02760589 C7.30786271,1.35624739 8.68546559,0 10.3844049,0 C11.2702301,0 12.0704438,0.367821989 12.6318053,0.955336817 C13.3319434,0.820289205 13.9914258,0.568277277 14.5860155,0.220847094 C14.3557635,0.927634743 13.8675041,1.52130559 13.2330406,1.8960531 C13.8549947,1.8237199 14.4472388,1.66097021 15,1.41896181 C14.588361,2.0295617 14.0672643,2.56282664 13.4652472,2.98990029" id="Fill-1"></path>
        </g>
    </g>
</svg>