<?xml version="1.0" encoding="UTF-8"?>
<svg width="16px" height="11px" viewBox="0 0 16 11" version="1.1" xmlns="http://www.w3.org/2000/svg" xmlns:xlink="http://www.w3.org/1999/xlink">
    <!-- Generator: Sketch 48.2 (47327) - http://www.bohemiancoding.com/sketch -->
    <title>Group 3</title>
    <desc>Created with Sketch.</desc>
    <defs></defs>
    <g id="Home-S2-Desktop-1366" stroke="none" stroke-width="1" fill="none" fill-rule="evenodd" transform="translate(-477.000000, -6956.000000)">
        <g id="yt_icon_mono_light" transform="translate(477.000000, 6956.000000)" fill="#4A4A4A">
            <g id="Group-3">
                <path d="M15.6656364,1.71768548 C16,2.94312097 16,5.5 16,5.5 C16,5.5 16,8.05679032 15.6656364,9.28240323 C15.4816364,9.95845968 14.9395455,10.4908952 14.2510909,10.6716855 C13.0033636,11 8,11 8,11 C8,11 2.99663636,11 1.74890909,10.6716855 C1.06054545,10.4908952 0.518363636,9.95845968 0.334363636,9.28240323 C0,8.05679032 0,5.5 0,5.5 C0,5.5 0,2.94312097 0.334363636,1.71768548 C0.518363636,1.04154032 1.06054545,0.509104839 1.74890909,0.328403226 C2.99663636,0 8,0 8,0 C8,0 13.0033636,0 14.2510909,0.328403226 C14.9395455,0.509104839 15.4816364,1.04154032 15.6656364,1.71768548 Z M6.36363636,7.82144355 L10.5454545,5.50008871 L6.36363636,3.17855645 L6.36363636,7.82144355 Z" id="Combined-Shape"></path>
            </g>
        </g>
    </g>
</svg>