<?xml version="1.0" encoding="UTF-8"?>
<svg width="15px" height="9px" viewBox="0 0 15 9" version="1.1" xmlns="http://www.w3.org/2000/svg" xmlns:xlink="http://www.w3.org/1999/xlink">
    <!-- Generator: Sketch 48.2 (47327) - http://www.bohemiancoding.com/sketch -->
    <title>Clip 2</title>
    <desc>Created with Sketch.</desc>
    <defs>
        <polygon id="path-1" points="0 9 0 0 14.7857143 0 14.7857143 9"></polygon>
    </defs>
    <g id="Home-S2-Desktop-1366" stroke="none" stroke-width="1" fill="none" fill-rule="evenodd" transform="translate(-314.000000, -6957.000000)">
        <g id="Page-1-Copy-5" transform="translate(314.000000, 6957.000000)">
            <mask id="mask-2" fill="white">
                <use xlink:href="#path-1"></use>
            </mask>
            <g id="Clip-2"></g>
            <path d="M14.4463463,0.60963195 C14.5488075,0.257948316 14.4463463,0 13.9574205,0 L12.3400459,0 C11.928138,0 11.738344,0.223414252 11.6358828,0.468676586 C11.6358828,0.468676586 10.8134423,2.52380579 9.64785977,3.85865309 C9.27102248,4.24487079 9.09979532,4.36820673 8.89418519,4.36820673 C8.7910363,4.36820673 8.64250189,4.24487079 8.64250189,3.89389193 L8.64250189,0.60963195 C8.64250189,0.188175411 8.52284918,0 8.18039485,0 L5.63811848,0 C5.38162156,0 5.22689822,0.195927956 5.22689822,0.38128426 C5.22689822,0.780892717 5.80934564,0.873218481 5.869172,1.99733751 L5.869172,4.43868442 C5.869172,4.97361002 5.77496267,5.07086922 5.56935255,5.07086922 C5.0212881,5.07086922 3.68722909,3.00657792 2.89642091,0.644870791 C2.74100991,0.185356304 2.58559891,0 2.17231568,0 L0.554941043,0 C0.0921463442,0 0,0.223414252 0,0.468676586 C0,0.907752545 0.548752109,3.0862177 2.55327892,5.96664056 C3.89008857,7.93367267 5.77358736,9 7.48723429,9 C8.51528492,9 8.64250189,8.76249021 8.64250189,8.35512921 L8.64250189,6.86805012 C8.64250189,6.39444009 8.74014951,6.3 9.06541235,6.3 C9.30540544,6.3 9.71662569,6.42333594 10.6765981,7.37126077 C11.772727,8.4953798 11.9535813,9 12.5704117,9 L14.188474,9 C14.6505811,9 14.8816346,8.76249021 14.7482287,8.29522318 C14.6024449,7.83007048 14.0784485,7.15418951 13.3839127,6.35285826 C13.0070754,5.89616288 12.4411318,5.40422866 12.2699046,5.15826155 C12.0299115,4.84252153 12.0986775,4.70156617 12.2699046,4.421065 C12.2699046,4.421065 14.2407361,1.57588097 14.4463463,0.60963195" id="Fill-1" fill="#4A4A4A" mask="url(#mask-2)"></path>
        </g>
    </g>
</svg>