<svg width="28" height="31" viewBox="0 0 28 31" version="1.1" xmlns="http://www.w3.org/2000/svg" xmlns:xlink="http://www.w3.org/1999/xlink">
<title>Group</title>
<desc>Created using Figma</desc>
<g id="Canvas" transform="translate(-27767 677)">
<g id="Group">
<g id="Fill 2966">
<use xlink:href="#path0_fill" transform="translate(27771.4 -665.661)" fill="#0B0B0A"/>
</g>
<g id="Fill 2967">
<use xlink:href="#path1_fill" transform="translate(27767.6 -675.302)" fill="#0B0B0A"/>
</g>
<g id="Fill 2968">
<use xlink:href="#path2_fill" transform="translate(27770.8 -654.496)" fill="#0B0B0A"/>
</g>
<g id="Fill 2969">
<use xlink:href="#path3_fill" transform="translate(27784.9 -676.673)" fill="#0B0B0A"/>
</g>
</g>
</g>
<defs>
<path id="path0_fill" fill-rule="evenodd" d="M 9.76875 17.3706C 6.28475 17.3706 2.80075 16.0516 0.147754 13.4216C -0.0482461 13.2306 -0.0492462 12.9106 0.144754 12.7116C 0.339754 12.5206 0.656754 12.5206 0.851754 12.7116C 5.76875 17.5916 13.7688 17.5916 18.6858 12.7116C 21.8578 9.56064 23.1078 4.93164 21.9498 0.631641C 21.8778 0.360641 22.0358 0.0906414 22.3028 0.0206414C 22.5678 -0.0593586 22.8438 0.100641 22.9158 0.371641C 24.1668 5.02064 22.8158 10.0206 19.3898 13.4216C 16.7378 16.0516 13.2528 17.3706 9.76875 17.3706Z"/>
<path id="path1_fill" fill-rule="evenodd" d="M 0.941133 17.3717C 0.721133 17.3717 0.519133 17.2318 0.459133 17.0018C -0.792867 12.3528 0.559133 7.35275 3.98413 3.95175C 9.28913 -1.31725 17.9221 -1.31725 23.2261 3.95175C 23.4231 4.14175 23.4241 4.46175 23.2291 4.66175C 23.0351 4.85275 22.7171 4.85275 22.5221 4.66175C 17.6051 -0.21825 9.60513 -0.21825 4.68813 4.66175C 1.51713 7.81175 0.267133 12.4428 1.42513 16.7418C 1.49613 17.0128 1.33813 17.2817 1.07213 17.3627C 1.02813 17.3717 0.984133 17.3717 0.941133 17.3717Z"/>
<path id="path2_fill" fill-rule="evenodd" d="M 0.49985 7.57648C 0.47985 7.57648 0.45985 7.57648 0.43885 7.57648C 0.16485 7.53648 -0.0301503 7.28648 0.00384975 7.01748L 0.63885 1.83648C 0.66385 1.63748 0.80685 1.47648 1.00185 1.41648L 6.05885 0.0174769C 6.32485 -0.0535231 6.60085 0.0974769 6.67485 0.367477C 6.74885 0.627477 6.59285 0.906477 6.32685 0.976477L 1.59085 2.29748L 0.99585 7.13748C 0.96485 7.38748 0.74885 7.57648 0.49985 7.57648Z"/>
<path id="path3_fill" fill-rule="evenodd" d="M 0.49939 7.58281C 0.28139 7.58281 0.0793905 7.44381 0.0183905 7.22381C -0.0556095 6.95281 0.10039 6.67281 0.36639 6.60281L 5.10239 5.28281L 5.69839 0.443808C 5.73139 0.172808 5.97739 -0.0261921 6.25539 0.00280794C 6.52939 0.0438079 6.72439 0.292808 6.69039 0.563808L 6.05439 5.74281C 6.02939 5.94381 5.88639 6.10381 5.69139 6.16281L 0.63439 7.56381C 0.58939 7.58281 0.54439 7.58281 0.49939 7.58281Z"/>
</defs>
</svg>
