<?xml version="1.0" encoding="UTF-8"?>
<svg width="58px" height="58px" viewBox="0 0 58 58" version="1.1" xmlns="http://www.w3.org/2000/svg" xmlns:xlink="http://www.w3.org/1999/xlink">
    <!-- Generator: Sketch 48.2 (47327) - http://www.bohemiancoding.com/sketch -->
    <title>Group 8</title>
    <desc>Created with Sketch.</desc>
    <defs></defs>
    <g id="Home-S2-Desktop-Просмотр-увеличенного-видео" stroke="none" stroke-width="1" fill="none" fill-rule="evenodd" transform="translate(-1149.000000, -141.000000)">
        <g id="Group-3" transform="translate(1149.000000, 141.000000)" fill="#FFFFFF" fill-rule="nonzero">
            <g id="Group-8">
                <g id="Oval-9-Copy.1">
                    <g id="path0_stroke-link">
                        <path d="M29,57.5 C44.7401,57.5 57.5,44.7401 57.5,29 L56.5,29 C56.5,44.1878 44.1878,56.5 29,56.5 L29,57.5 Z M57.5,29 C57.5,13.2599 44.7401,0.5 29,0.5 L29,1.5 C44.1878,1.5 56.5,13.8122 56.5,29 L57.5,29 Z M29,0.5 C13.2599,0.5 0.5,13.2599 0.5,29 L1.5,29 C1.5,13.8122 13.8122,1.5 29,1.5 L29,0.5 Z M0.5,29 C0.5,44.7401 13.2599,57.5 29,57.5 L29,56.5 C13.8122,56.5 1.5,44.1878 1.5,29 L0.5,29 Z" id="path0_stroke"></path>
                    </g>
                </g>
                <g id="Vector" transform="translate(14.000000, 15.000000)">
                    <g id="path1_stroke-link">
                        <path d="M2,9 L2,7.75 L0.75,7.75 L0.75,9 L2,9 Z M2,19 L0.75,19 L0.75,20.25 L2,20.25 L2,19 Z M9,19 L9.88388,18.1161 L9.51777,17.75 L9,17.75 L9,19 Z M14,24 L13.1161,24.8839 L15.25,27.0178 L15.25,24 L14,24 Z M14,4 L15.25,4 L15.25,0.98223 L13.1161,3.116117 L14,4 Z M9,9 L9,10.25 L9.51777,10.25 L9.88388,9.88388 L9,9 Z M19.8839,8.11612 L19,7.23223 L17.2322,9 L18.1161,9.88388 L19.8839,8.11612 Z M27.1161,18.8839 L28,19.7678 L29.7678,18 L28.8839,17.1161 L27.1161,18.8839 Z M28.8839,9.88388 L29.7678,9 L28,7.23223 L27.1161,8.11612 L28.8839,9.88388 Z M18.1161,17.1161 L17.2322,18 L19,19.7678 L19.8839,18.8839 L18.1161,17.1161 Z M0.75,9 L0.75,19 L3.25,19 L3.25,9 L0.75,9 Z M2,20.25 L9,20.25 L9,17.75 L2,17.75 L2,20.25 Z M8.11612,19.8839 L13.1161,24.8839 L14.8839,23.1161 L9.88388,18.1161 L8.11612,19.8839 Z M15.25,24 L15.25,4 L12.75,4 L12.75,24 L15.25,24 Z M13.1161,3.116117 L8.11612,8.11612 L9.88388,9.88388 L14.8839,4.883883 L13.1161,3.116117 Z M9,7.75 L2,7.75 L2,10.25 L9,10.25 L9,7.75 Z M18.1161,9.88388 L27.1161,18.8839 L28.8839,17.1161 L19.8839,8.11612 L18.1161,9.88388 Z M27.1161,8.11612 L18.1161,17.1161 L19.8839,18.8839 L28.8839,9.88388 L27.1161,8.11612 Z" id="path1_stroke"></path>
                    </g>
                </g>
            </g>
        </g>
    </g>
</svg>