<?xml version="1.0" encoding="UTF-8"?>
<svg width="383px" height="396px" viewBox="0 0 383 396" version="1.1" xmlns="http://www.w3.org/2000/svg" xmlns:xlink="http://www.w3.org/1999/xlink">
    <!-- Generator: Sketch 48.2 (47327) - http://www.bohemiancoding.com/sketch -->
    <title>Group 8</title>
    <desc>Created with Sketch.</desc>
    <defs></defs>
    <g id="-" stroke="none" stroke-width="1" fill="none" fill-rule="evenodd">
        <g id="Осколки-империи" transform="translate(-532.000000, 0.000000)" fill-rule="nonzero">
            <g id="Group-52" transform="translate(532.000000, 0.000000)">
                <g id="Group-8">
                    <g id="icon_broken_eagle">
                        <polygon id="Shape" fill="#7E7B7B" points="49.3567568 287.946929 64.6366042 324.037838 78.7410788 318.185258 82.071302 320.916462 82.463093 316.62457 96.5675676 310.77199 81.2877201 274.681081"></polygon>
                        <g id="Group" transform="translate(141.632432, 0.000000)">
                            <path d="M14.996377,30.1832112 C14.996377,30.1832112 25.418902,44.9827212 32.8094198,42.0617652 C40.0104371,39.1408093 38.304933,20.8361522 38.304933,20.8361522 L55.359974,39.1408093 L52.3279667,54.9139713 L44.558448,67.5714469 L31.4829166,68.7398293 L24.6609002,65.624143 L14.996377,30.1832112 Z" id="Shape" fill="#ED355B"></path>
                            <path d="M25.9874034,86.6550256 C25.9874034,86.6550256 37.3574307,83.5393393 49.2959594,78.8658098 C61.2344881,74.1922804 67.4880031,70.8818637 67.4880031,70.8818637 L43.2319448,65.2346822 L25.9874034,86.6550256 Z" id="Shape" fill="#ED355B"></path>
                            <path d="M2.11034598,65.0399518 C-6.41717451,51.0193634 15.1858774,30.1832112 15.1858774,30.1832112 C15.1858774,30.1832112 25.2294015,67.5714469 40.5789384,61.5348047 C55.359974,55.6928929 38.4944334,20.8361522 38.4944334,20.8361522 C38.4944334,20.8361522 68.4355054,21.0308826 71.0885118,37.5829662 C73.1730168,49.850981 72.2255145,61.5348047 67.4880031,70.8818637 C59.528984,69.7134813 53.4649694,71.076594 45.3164498,74.1922804 C36.9784298,77.5026971 30.9144152,81.5920354 25.9874034,86.6550256 C16.3228801,82.9551481 7.9848601,74.7764715 2.11034598,65.0399518 Z" id="Shape" fill="#999999"></path>
                            <g transform="translate(16.890214, 9.336968)">
                                <ellipse id="Oval" fill="#EE4B6B" transform="translate(7.183614, 9.168963) rotate(-21.248132) translate(-7.183614, -9.168963) " cx="7.18361353" cy="9.16896256" rx="4.73741133" ry="7.59432499"></ellipse>
                                <path d="M8.90768868,17.9252874 C7.77068594,17.9252874 6.44418276,17.5358266 5.30718002,16.5621746 C3.79117638,15.3937922 2.46467319,13.4464883 1.70667137,11.304454 C-0.188333184,6.43619409 0.948669549,1.76266462 4.17017729,0.39955186 C7.39168503,-0.768830508 11.3711946,1.76266462 13.0766987,6.63092449 C14.9717033,11.4991844 13.8347005,16.1727138 10.6131928,17.5358266 C10.0446914,17.9252874 9.47619004,17.9252874 8.90768868,17.9252874 Z M4.17017729,10.330802 C4.73867866,11.8886451 5.87568139,13.4464883 6.82318367,14.2254099 C7.39168503,14.6148707 8.33918731,15.1990619 9.47619004,14.8096011 C10.9921937,14.2254099 11.7501955,11.1097236 10.4236923,7.79930686 C9.09718913,4.29415975 6.63368321,2.7363166 5.11767957,3.32050778 C3.60167592,3.90469896 2.8436741,7.02038528 4.17017729,10.330802 Z" id="Shape" fill="#999999"></path>
                            </g>
                            <polygon id="Shape" fill="#999999" points="20.8708911 4.28406868 21.0603915 9.93125013 17.2703824 5.84191184 17.2703824 0.194730395"></polygon>
                            <polygon id="Shape" fill="#999999" points="15.3753779 8.76286776 20.8708911 8.56813736 16.7018811 12.4627453 11.2063678 12.4627453"></polygon>
                            <polygon id="Shape" fill="#999999" points="24.2818993 5.06299026 29.7774125 5.06299026 25.6084025 8.76286776 20.1128892 8.95759815"></polygon>
                            <ellipse id="Oval" fill="#7B7979" transform="translate(34.683162, 47.117395) rotate(-21.248132) translate(-34.683162, -47.117395) " cx="34.6831624" cy="47.1173947" rx="6.44287941" ry="24.146059"></ellipse>
                        </g>
                        <path d="M70.8162162,115.881081 C70.8162162,115.881081 74.6679141,114.539865 79.0973666,111.474228 C83.5268191,108.408591 85.8378378,105.151351 85.8378378,105.151351 L75.4382536,105.534556 L70.8162162,115.881081 Z" id="Shape" fill="#EE4B6B"></path>
                        <g id="Group" transform="translate(36.481081, 90.129730)" fill="#000000">
                            <path d="M291.87106,125.70911 C291.87106,125.70911 302.392447,116.987206 305.509895,113.692265 C309.211864,110.009683 319.34357,97.7990175 319.34357,97.7990175 L285.051643,108.265302 C285.051643,108.265302 296.352392,97.7990175 299.859521,93.7287957 C303.951171,89.0771136 315.057079,73.5715066 315.057079,73.5715066 L285.246484,89.0771136 C285.246484,89.0771136 294.598827,75.8973476 297.326594,71.2456655 C300.444042,66.0125232 308.432503,49.1501755 308.432503,49.1501755 L283.68776,69.5012847 C283.68776,69.5012847 288.169091,61.9423013 291.286539,53.6080375 C295.183349,43.1417528 297.326594,31.3187275 297.326594,31.3187275 L276.283821,50.7007362 C276.283821,50.7007362 279.011588,38.2962506 279.79095,34.0322087 C281.544514,24.1473842 281.934195,12.518179 281.934195,12.518179 L266.736637,36.3580497 C266.736637,36.3580497 267.321158,28.023786 267.321158,18.7204218 C267.321158,9.99851782 262.644986,0.307513435 262.644986,0.307513435 C262.644986,0.307513435 253.682324,24.9226646 249.785514,32.481648 C244.135139,43.1417528 220.949121,58.8411799 221.338802,71.2456655 C221.728483,83.6501511 228.353059,90.2400341 228.353059,90.2400341 C228.353059,90.2400341 214.714225,105.551821 199.711507,96.636097 C184.708789,87.720373 192.697249,65.8187031 192.697249,65.8187031 C192.697249,65.8187031 189.38496,64.0743223 187.631396,61.167021 C185.877832,58.2597196 184.903629,51.2821965 184.903629,51.2821965 L191.723046,53.8018576 C191.723046,53.8018576 188.800439,47.2119746 194.645654,39.6529912 C200.490869,32.0940078 210.817415,31.7063676 210.817415,31.7063676 C210.817415,31.7063676 212.76582,27.8299659 215.883268,23.565924 C219.000716,19.301882 223.092366,16.2007606 223.092366,16.2007606 C223.092366,16.2007606 214.519384,10.386158 205.946402,10.386158 C197.568261,10.386158 175.746126,11.5490785 175.746126,11.5490785 L181.3965,20.6586226 C181.3965,20.6586226 171.264795,25.5041248 166.783463,38.6838908 C163.471175,48.7625354 161.133089,54.7709581 160.158886,57.2906192 C159.184684,54.7709581 156.651757,48.7625354 153.53431,38.6838908 C149.247819,25.3103047 138.921272,20.6586226 138.921272,20.6586226 L144.571647,11.5490785 C144.571647,11.5490785 122.749511,10.386158 114.37137,10.386158 C105.993229,10.386158 99.1738116,16.2007606 99.1738116,16.2007606 C99.1738116,16.2007606 102.680941,18.7204218 105.603548,22.9844637 C108.720996,27.4423257 109.695198,31.7063676 109.695198,31.7063676 C109.695198,31.7063676 120.995947,32.2878279 126.841162,39.6529912 C132.686377,47.0181546 130.543131,53.8018576 130.543131,53.8018576 L135.803825,51.2821965 C135.803825,51.2821965 134.829622,58.2597196 133.076058,61.167021 C131.322493,64.0743223 128.010205,65.8187031 128.010205,65.8187031 C128.010205,65.8187031 135.998665,87.720373 120.995947,96.636097 C105.993229,105.551821 92.3543943,90.2400341 92.3543943,90.2400341 C92.3543943,90.2400341 99.1738116,83.456331 99.3686521,71.2456655 C99.7583331,58.8411799 76.3774738,43.1417528 70.9219399,32.481648 C66.8302896,24.7288445 58.0624673,0.307513435 58.0624673,0.307513435 C58.0624673,0.307513435 53.3862954,6.70357633 53.3862954,18.7204218 C53.3862954,27.8299659 53.9708169,36.3580497 53.9708169,36.3580497 L38.7732584,12.518179 C38.7732584,12.518179 38.9680989,24.3412043 40.9165038,34.0322087 C43.6442707,47.4057947 44.4236327,50.7007362 44.4236327,50.7007362 L23.3808593,31.3187275 C23.3808593,31.3187275 24.7447428,43.529393 29.4209146,53.6080375 C34.4867675,64.4619625 37.0196939,69.5012847 37.0196939,69.5012847 L12.2749511,49.1501755 C12.2749511,49.1501755 20.2634114,65.8187031 23.3808593,71.2456655 C26.1086262,75.8973476 35.46097,89.0771136 35.46097,89.0771136 L5.65037434,73.5715066 C5.65037434,73.5715066 16.7562825,89.0771136 20.8479329,93.7287957 C24.3550618,97.7990175 35.6558105,108.265302 35.6558105,108.265302 L0,97.7990175 C0,97.7990175 10.1317057,110.009683 13.8336751,113.692265 C16.951123,116.987206 27.4725097,125.70911 27.4725097,125.70911 L0.974202472,119.894508 C0.974202472,119.894508 9.35234373,128.616411 18.7046875,133.655734 C28.0570312,138.695056 33.122884,140.633257 33.122884,140.633257 L6.62457681,149.742801 C6.62457681,149.742801 14.2233561,152.262462 24.3550618,153.619203 C33.7074055,154.782123 39.9423013,153.425383 39.9423013,153.425383 L19.2892089,168.93099 C19.2892089,168.93099 28.4467122,170.09391 41.3061848,166.605149 C51.632731,163.697847 56.5037434,159.821446 56.5037434,159.821446 L39.5526203,185.211877 C39.5526203,185.211877 52.801774,181.141655 56.8934243,179.397274 C59.8160318,178.040534 67.2199705,173.001212 67.2199705,173.001212 L57.0882648,198.585463 C57.0882648,198.585463 69.9477375,185.599517 73.6497069,180.754015 C76.3774738,177.265253 82.8072101,165.636048 82.8072101,165.636048 L77.7413572,187.925358 L96.6408852,166.023688 L97.4202472,183.079856 L111.253922,164.860768 L122.944352,172.419751 L123.918554,164.860768 C123.918554,164.860768 131.322493,173.001212 131.322493,177.459074 C131.517334,181.723115 118.07334,179.203454 109.110677,179.784915 C100.148014,180.366375 100.148014,203.818605 100.148014,203.818605 L106.188069,215.641631 C106.188069,215.641631 113.981689,218.161292 120.216585,215.641631 C125.087597,213.50961 135.414144,202.268045 133.85542,197.034902 C132.101855,191.99558 150.027181,189.475919 151.975586,201.880405 C155.677555,224.557355 143.987125,227.077016 128.594726,232.116338 C113.202327,237.155661 100.537695,234.635999 97.2254067,245.877565 C93.9131183,257.11913 113.786849,274.175297 113.786849,274.175297 L117.099137,259.638791 L105.019026,251.110707 L153.53431,228.627577 C153.53431,228.627577 112.422965,268.748335 123.723714,279.40844 C134.439941,289.487084 137.167708,276.501138 137.167708,276.501138 L130.543131,274.562937 L152.170426,255.956209 L145.156168,285.804503 L159.379524,304.605051 L159.379524,305.186511 L174.771923,285.610682 L167.757666,255.762389 L189.38496,274.369117 L182.760384,276.307318 C182.760384,276.307318 185.488151,289.293264 196.204378,279.21462 C207.699967,268.554515 166.393782,228.433757 166.393782,228.433757 L214.909065,250.916887 L202.828955,259.444971 L206.141243,273.981477 C206.141243,273.981477 226.209814,257.11913 222.702685,245.683744 C219.390397,234.442179 206.725764,236.96184 191.333365,231.922518 C175.940966,226.883196 164.055696,224.363535 167.952506,201.686585 C170.095752,189.088279 187.826237,191.60794 186.072672,196.841082 C184.319108,201.880405 194.645654,213.31579 199.711507,215.447811 C206.141243,218.161292 213.350341,216.223091 213.350341,216.223091 L217.441992,204.206246 C217.441992,204.206246 219.780078,180.366375 211.012255,179.784915 C202.049593,179.203454 188.605599,181.723115 188.800439,177.459074 C188.995279,173.195032 196.204378,164.860768 196.204378,164.860768 L197.17858,172.419751 L208.86901,164.860768 L222.702685,183.079856 L223.482047,166.023688 L242.381575,187.925358 L237.315722,165.636048 C237.315722,165.636048 243.745458,177.265253 246.473225,180.754015 C250.175195,185.599517 263.034667,198.585463 263.034667,198.585463 L252.902962,173.001212 C252.902962,173.001212 256.799772,176.683793 263.229508,179.397274 C271.80249,183.079856 280.570312,185.211877 280.570312,185.211877 L263.619189,159.821446 C263.619189,159.821446 268.490201,163.504027 278.816747,166.605149 C289.338134,169.70627 300.833723,168.93099 300.833723,168.93099 L280.180631,153.425383 C280.180631,153.425383 287.000048,153.813023 295.76787,153.619203 C306.678938,153.425383 313.498355,149.742801 313.498355,149.742801 L286.415527,140.633257 C286.415527,140.633257 297.326594,135.593935 300.833723,133.655734 C305.509895,130.748432 318.564208,119.894508 318.564208,119.894508 L291.87106,125.70911 Z" id="Shape"></path>
                            <path d="M136.972868,276.694958 C136.972868,276.501138 136.972868,276.501138 136.972868,276.694958 C136.972868,276.501138 136.972868,276.501138 136.972868,276.694958 Z" id="Shape"></path>
                        </g>
                        <path d="M162.524094,133.003775 C162.524094,133.003775 158.738774,130.414624 153.250059,130.812955 C147.761345,131.211286 143.976024,132.207113 139.43364,131.609617 C134.891256,131.012121 134.323458,126.630481 134.323458,126.630481 C134.323458,126.630481 131.105936,126.232151 130.91667,129.020467 C130.727404,131.808782 132.430798,133.800437 137.919512,134.198767 C143.408226,134.597098 151.546665,132.406279 155.142719,132.605444 C158.738774,132.80461 163.091892,135.194595 163.091892,135.194595 L162.524094,133.003775 Z" id="Shape" fill="#EC1D7F"></path>
                        <path d="M230.184014,133.003775 C230.184014,133.003775 233.969335,130.414624 239.458049,130.812955 C244.946763,131.211286 248.732084,132.207113 253.274468,131.609617 C257.816852,131.012121 258.38465,126.630481 258.38465,126.630481 C258.38465,126.630481 261.602173,126.232151 261.791439,129.020467 C261.980705,131.808782 260.27731,133.800437 254.788596,134.198767 C249.299882,134.597098 241.161443,132.406279 237.565389,132.605444 C233.969335,132.80461 229.616216,135.194595 229.616216,135.194595 L230.184014,133.003775 Z" id="Shape" fill="#EC1D7F"></path>
                        <path d="M135.030874,107.297297 C135.030874,107.297297 126.610811,108.845062 126.610811,116.970824 C126.610811,123.548822 135.030874,126.45088 135.030874,126.45088 C135.030874,126.45088 134.835059,122.001058 137.380659,121.420646 C140.122075,120.840234 144.430015,126.64435 144.430015,126.64435 C144.430015,126.64435 149.521216,124.903116 154.220786,127.418232 C158.920356,129.933349 163.03248,135.737465 163.03248,135.737465 C163.03248,135.737465 157.745464,131.868055 152.850078,132.641937 C146.192354,133.80276 148.542139,136.898288 145.409092,137.285229 C142.276045,137.67217 141.101152,136.317877 141.101152,136.317877 C141.101152,136.317877 140.709522,141.541581 145.409092,142.895875 C149.912847,144.250169 154.220786,142.895875 154.220786,142.895875 C154.220786,142.895875 149.521216,138.446053 153.045894,136.317877 C156.570571,134.189701 160.878511,136.124406 161.074326,138.639523 C161.270142,141.15464 160.291064,142.315463 160.291064,142.315463 C160.291064,142.315463 161.074326,144.250169 163.03248,143.669757 C168.123682,141.735052 167.34042,133.80276 167.34042,133.80276 L152.654263,119.872882 L135.030874,107.297297 Z" id="Shape" fill="#D3C728"></path>
                        <path d="M259.82318,107.297297 C259.82318,107.297297 268.243243,108.845062 268.243243,116.970824 C268.243243,123.548822 259.82318,126.45088 259.82318,126.45088 C259.82318,126.45088 260.018995,122.001058 257.473395,121.420646 C254.731979,120.840234 250.424039,126.64435 250.424039,126.64435 C250.424039,126.64435 245.332838,124.903116 240.633268,127.418232 C235.933698,129.933349 231.821574,135.737465 231.821574,135.737465 C231.821574,135.737465 237.10859,131.868055 242.003976,132.641937 C248.6617,133.80276 246.311915,136.898288 249.444962,137.285229 C252.578009,137.67217 253.752902,136.317877 253.752902,136.317877 C253.752902,136.317877 254.144532,141.541581 249.444962,142.895875 C244.941207,144.250169 240.633268,142.895875 240.633268,142.895875 C240.633268,142.895875 245.332838,138.446053 241.80816,136.317877 C238.283483,134.189701 233.975543,136.124406 233.779728,138.639523 C233.583913,141.15464 234.56299,142.315463 234.56299,142.315463 C234.56299,142.315463 233.779728,144.250169 231.821574,143.669757 C226.730373,141.735052 227.513634,133.80276 227.513634,133.80276 L242.199791,119.872882 L259.82318,107.297297 Z" id="Shape" fill="#D3C728"></path>
                        <g id="Group" transform="translate(0.000000, 190.989189)" fill="#BDAF31">
                            <ellipse id="Oval" transform="translate(5.175970, 115.960563) rotate(-55.758524) translate(-5.175970, -115.960563) " cx="5.17596952" cy="115.960563" rx="3.6810762" ry="3.65433138"></ellipse>
                            <ellipse id="Oval" transform="translate(11.518745, 106.824008) rotate(-55.758524) translate(-11.518745, -106.824008) " cx="11.5187446" cy="106.824008" rx="5.03726217" ry="5.00066399"></ellipse>
                            <ellipse id="Oval" transform="translate(17.547708, 97.645353) rotate(-55.763261) translate(-17.547708, -97.645353) " cx="17.5477084" cy="97.645353" rx="6.97427828" ry="6.92360673"></ellipse>
                            <rect id="Rectangle-path" transform="translate(7.755188, 112.229850) rotate(-55.758524) translate(-7.755188, -112.229850) " x="5.13968627" y="104.921188" width="5.23100302" height="14.6173255"></rect>
                            <ellipse id="Oval" transform="translate(48.340666, 53.179318) rotate(-55.758524) translate(-48.340666, -53.179318) " cx="48.3406663" cy="53.1793178" rx="6.58718899" ry="6.53932984"></ellipse>
                            <rect id="Rectangle-path" transform="translate(43.299052, 60.374456) rotate(-55.763261) translate(-43.299052, -60.374456) " x="40.6836974" y="53.0662042" width="5.23070871" height="14.6165031"></rect>
                            <polygon id="Shape" points="44.171497 63.5806729 40.2968042 61.0804211 35.8409076 63.5806729 19.5671982 87.4292282 19.5671982 92.0450776 22.4732177 93.9683482 26.5416451 92.2374046 43.0090891 68.3888493"></polygon>
                            <polygon id="Shape" points="60.8326756 43.5786588 78.0750582 13.7679646 81.1748124 12.6140023 82.9184241 9.72909639 79.6249353 7.42117169 79.6249353 7.42117169 76.1377118 5.11324698 74.2003655 7.99815286 74.2003655 11.0753858 52.6958209 37.808847 51.3396785 48.5791623 51.1459438 48.7714893"></polygon>
                            <ellipse id="Oval" transform="translate(81.388695, 4.921112) rotate(-25.688732) translate(-81.388695, -4.921112) " cx="81.3886954" cy="4.92111225" rx="3.29362662" ry="3.26969681"></ellipse>
                        </g>
                        <g id="Group" transform="translate(313.308108, 113.735135)">
                            <ellipse id="Oval" fill="#7B7979" transform="translate(56.973758, 17.556441) rotate(-61.443501) translate(-56.973758, -17.556441) " cx="56.9737583" cy="17.5564409" rx="6.38187764" ry="6.41326575"></ellipse>
                            <path d="M68.1308338,6.99665763 L65.4232282,5.44184482 L66.9704314,2.72092241 C67.3572322,1.94351601 67.1638318,0.777406403 66.1968298,0.388703201 C65.4232282,-2.81996648e-14 64.2628258,0.194351601 63.876025,1.1661096 L62.3288219,3.88703201 L59.6212163,2.33221921 C58.8476147,1.94351601 57.6872124,2.13786761 57.3004116,3.10962561 C56.9136108,3.88703201 57.1070112,5.05314162 58.0740132,5.44184482 L60.7816187,6.99665763 L59.2344155,9.71758004 C58.8476147,10.4949864 59.0410151,11.661096 60.0080171,12.0497992 C60.7816187,12.4385024 61.9420211,12.2441508 62.3288219,11.2723928 L63.876025,8.55147043 L66.5836306,10.1062832 C67.3572322,10.4949864 68.5176345,10.3006348 68.9044353,9.32887683 C69.2912361,8.55147043 68.9044353,7.57971243 68.1308338,6.99665763 Z" id="Shape" fill="#7B7979"></path>
                            <ellipse id="Oval" fill="#BDAF31" transform="translate(40.030762, 48.462815) rotate(-61.438468) translate(-40.030762, -48.462815) " cx="40.0307619" cy="48.4628155" rx="29.3967206" ry="27.2090949"></ellipse>
                        </g>
                        <path d="M299.268574,299.14479 C298.880925,298.534893 298.493277,297.518399 298.105628,296.501905 C296.942681,293.85902 293.066192,293.249124 293.066192,293.249124 C293.066192,293.249124 294.616788,295.68871 294.810612,296.705204 C295.004437,297.721698 295.198261,298.738192 295.198261,299.551387 C293.066192,300.161284 290.546475,301.381077 290.546475,301.381077 C290.546475,301.381077 289.771177,300.974479 288.802055,300.567881 C288.802055,299.551387 288.802055,298.128295 288.60823,296.501905 C288.026757,293.655721 284.925566,293.045825 284.925566,293.045825 C284.925566,293.045825 285.313215,293.452423 285.313215,294.265618 C285.313215,294.265618 284.731742,295.68871 283.568795,297.111801 C282.987322,297.721698 282.599673,298.738192 282.405848,299.551387 C280.079955,299.754686 277.947886,300.161284 277.947886,301.584375 C277.947886,303.414065 275.621993,309.309731 275.621993,309.309731 C275.621993,309.309731 275.621993,305.040455 275.234344,302.804168 C274.846695,300.77118 273.877573,299.551387 273.877573,299.551387 C273.877573,299.551387 275.815818,297.3151 275.234344,295.078813 C274.846695,293.249124 272.714627,291.826032 269.225787,292.029331 C269.031962,291.622733 269.031962,291.419434 268.838138,291.012837 C268.06284,289.386446 268.838138,287.556757 268.838138,287.556757 C268.838138,287.556757 266.512245,287.963354 265.543123,289.793044 C265.155474,290.606239 265.155474,291.826032 265.155474,292.639227 C262.441932,293.85902 261.085161,295.892008 262.054283,298.534893 C263.411054,301.990973 268.450489,301.990973 267.481367,305.650352 C266.512245,309.309731 264.961649,310.936121 262.635756,309.513029 C260.309863,308.089938 257.596321,304.430559 256.23955,303.820662 C254.882779,303.007467 251.00629,293.85902 251.00629,293.85902 L240.345946,307.276742 C240.345946,307.276742 245.966855,308.089938 249.26187,310.732822 C252.556885,313.375707 263.411054,321.304361 279.304657,319.474672 C295.198261,317.644982 302.951239,307.073444 302.56359,302.60087 C302.757414,299.957985 301.012994,299.14479 299.268574,299.14479 Z" id="Shape" fill="#D3C728"></path>
                        <path d="M87.001696,299.14479 C87.3893448,298.534893 87.7769937,297.518399 88.1646426,296.501905 C89.3275892,293.85902 93.2040779,293.249124 93.2040779,293.249124 C93.2040779,293.249124 91.6534824,295.68871 91.459658,296.705204 C91.2658336,297.721698 91.0720091,298.738192 91.0720091,299.551387 C93.2040779,300.161284 95.7237956,301.381077 95.7237956,301.381077 C95.7237956,301.381077 96.4990933,300.974479 97.4682155,300.567881 C97.4682155,299.551387 97.4682155,298.128295 97.6620399,296.501905 C98.2435132,293.655721 101.344704,293.045825 101.344704,293.045825 C101.344704,293.045825 100.957055,293.452423 100.957055,294.265618 C100.957055,294.265618 101.538529,295.68871 102.701475,297.111801 C103.282949,297.721698 103.670597,298.738192 103.864422,299.551387 C106.190315,299.754686 108.322384,300.161284 108.322384,301.584375 C108.322384,303.414065 110.648277,309.309731 110.648277,309.309731 C110.648277,309.309731 110.648277,305.040455 111.035926,302.804168 C111.423575,300.77118 112.392697,299.551387 112.392697,299.551387 C112.392697,299.551387 110.454453,297.3151 111.035926,295.078813 C111.423575,293.249124 113.555644,291.826032 117.044483,292.029331 C117.238308,291.622733 117.238308,291.419434 117.432132,291.012837 C118.20743,289.386446 117.432132,287.556757 117.432132,287.556757 C117.432132,287.556757 119.758026,287.963354 120.727148,289.793044 C121.114797,290.606239 121.114797,291.826032 121.114797,292.639227 C123.828339,293.85902 125.18511,295.892008 124.215988,298.534893 C122.859217,301.990973 117.819781,301.990973 118.788903,305.650352 C119.758026,309.309731 121.308621,310.936121 123.634514,309.513029 C125.960407,308.089938 128.67395,304.430559 130.030721,303.820662 C131.387492,303.007467 135.26398,293.85902 135.26398,293.85902 L145.924324,307.276742 C145.924324,307.276742 140.303416,308.089938 137.0084,310.732822 C133.713385,313.375707 122.859217,321.304361 106.965613,319.474672 C91.0720091,317.644982 83.3190317,307.073444 83.7066806,302.60087 C83.5128561,299.957985 85.2572761,299.348088 87.001696,299.14479 Z" id="Shape" fill="#D3C728"></path>
                        <g id="Group" transform="translate(53.648649, 81.545946)">
                            <path d="M2.80548859,27.1504638 C-3.25267217,21.3055723 1.52042419,13.7637768 8.12932684,8.86160971 C14.7382295,3.95944264 23.3665191,1.5083591 26.854551,9.23869948 C28.8739379,13.7637768 29.6082605,18.477399 28.8739379,22.4368416 C25.5694866,22.8139314 23.3665191,23.9452007 20.6128096,26.2077393 C17.6755196,28.470278 15.6561326,30.5442718 14.3710682,33.1839002 C9.96513313,32.6182655 5.92635929,30.3557269 2.80548859,27.1504638 Z" id="Shape" fill="#999999"></path>
                            <g transform="translate(2.871389, 2.713207)">
                                <ellipse id="Oval" fill="#EE4B6B" transform="translate(3.823769, 4.074730) rotate(-36.177757) translate(-3.823769, -4.074730) " cx="3.82376892" cy="4.07472956" rx="1.83583009" ry="3.01675731"></ellipse>
                                <path d="M4.70719562,7.468217 C3.60571184,7.468217 2.50422807,6.71403745 1.58632492,5.58276813 C1.03558304,4.82858858 0.668421778,3.88586414 0.668421778,3.13168459 C0.668421778,2.18896016 0.852002407,1.43478061 1.58632492,1.05769083 C1.95348618,0.680601057 2.50422807,0.680601057 3.23855059,0.680601057 C4.15645373,0.869145944 5.25793751,1.43478061 5.8086794,2.56604993 C6.35942128,3.32022948 6.72658254,4.26295392 6.72658254,5.01713347 C6.72658254,5.9598579 6.54300191,6.71403745 5.8086794,7.09112723 C5.62509877,7.27967212 5.07435688,7.468217 4.70719562,7.468217 Z M2.6878087,2.00041527 C2.50422807,2.00041527 2.32064744,2.00041527 2.32064744,2.18896016 C2.13706681,2.37750504 1.95348618,2.75459482 1.95348618,3.13168459 C1.95348618,3.69731926 2.32064744,4.26295392 2.6878087,4.82858858 C3.42213122,5.9598579 4.52361499,6.33694768 5.07435688,5.9598579 C5.25793751,5.77131302 5.44151814,5.39422324 5.44151814,5.01713347 C5.44151814,4.4514988 5.07435688,3.88586414 4.70719562,3.32022948 C4.15645373,2.56604993 3.60571184,2.18896016 2.87138933,2.00041527 C2.87138933,2.00041527 2.87138933,2.00041527 2.6878087,2.00041527 Z" id="Shape" fill="#999999"></path>
                            </g>
                            <polygon id="Shape" fill="#999999" points="3.90697236 1.69690399 4.45771425 3.77089775 2.62190796 2.63962842 2.07116607 0.377089775"></polygon>
                            <polygon id="Shape" fill="#999999" points="2.2547467 3.95944264 4.27413362 3.20526309 3.17264985 5.09071196 0.969682298 5.84489151"></polygon>
                            <polygon id="Shape" fill="#999999" points="5.19203677 1.5083591 7.39500432 0.942724437 6.10993991 2.82817331 4.09055299 3.39380797"></polygon>
                        </g>
                        <g id="Group" transform="translate(251.075676, 49.356757)">
                            <path d="M16.2727753,0.481327329 C16.2727753,0.481327329 12.417582,1.41362801 8.01164695,4.02406992 C3.60571184,6.63451183 1.03558304,9.61787401 1.03558304,9.61787401 L10.948937,10.1772544 L16.2727753,0.481327329 Z" id="Shape" fill="#EE4B6B"></path>
                            <path d="M27.287613,7.56681251 C32.6114513,13.9064571 27.287613,20.8054822 20.1279685,25.0940653 C12.9683239,29.3826485 4.15645373,30.6878694 1.58632492,22.8565437 C0.117679891,18.1950403 -0.249481368,13.5335369 0.852002407,9.61787401 C4.15645373,9.61787401 6.35942128,8.68557333 9.48029198,6.82097196 C12.6011627,4.9563706 14.8041302,2.9053091 16.2727753,0.667787465 C20.4951297,1.60008815 24.3503229,4.21053006 27.287613,7.56681251 Z" id="Shape" fill="#999999"></path>
                            <g transform="translate(16.480360, 23.415924)">
                                <ellipse id="Oval" fill="#EE4B6B" transform="translate(4.934398, 3.933936) rotate(-30.378103) translate(-4.934398, -3.933936) " cx="4.93439832" cy="3.93393596" rx="1.8357914" ry="2.98333799"></ellipse>
                                <path d="M5.85057581,7.27194532 C4.74909203,7.27194532 3.64760826,6.52610477 2.72970511,5.03442368 C2.17896322,4.28858314 1.99538259,3.35628245 1.99538259,2.42398177 C1.99538259,1.49168109 2.36254385,0.745840545 3.09686637,0.372920273 C4.38193077,-0.372920273 6.21773706,0.372920273 7.13564021,2.23752164 C7.6863821,3.35628245 8.05354336,4.47504327 7.6863821,5.40734395 C7.50280147,5.96672436 7.13564021,6.52610477 6.76847895,6.71256491 C6.58489832,7.27194532 6.21773706,7.27194532 5.85057581,7.27194532 Z M4.19835014,1.67814123 C4.01476951,1.67814123 4.01476951,1.67814123 3.83118889,1.67814123 C3.64760826,1.86460136 3.46402763,2.23752164 3.46402763,2.61044191 C3.46402763,3.16982232 3.64760826,3.72920273 4.01476951,4.47504327 C4.74909203,5.59380409 5.85057581,6.1531845 6.21773706,5.96672436 C6.40131769,5.78026423 6.40131769,5.78026423 6.58489832,5.40734395 C6.76847895,4.84796354 6.58489832,3.91566286 6.21773706,3.16982232 C5.48341455,2.23752164 4.74909203,1.67814123 4.19835014,1.67814123 Z" id="Shape" fill="#999999"></path>
                            </g>
                            <polygon id="Shape" fill="#999999" points="23.6160004 32.5524708 23.2488392 30.3149491 24.9010648 31.8066302 25.4518067 34.0441519"></polygon>
                            <polygon id="Shape" fill="#999999" points="25.6353873 30.5014093 23.4324198 30.8743295 24.7174842 29.1961883 26.9204518 28.823268"></polygon>
                            <polygon id="Shape" fill="#999999" points="22.330936 32.5524708 20.1279685 32.925391 21.4130329 31.0607897 23.6160004 30.6878694"></polygon>
                        </g>
                        <g id="Group" transform="translate(135.194595, 165.237838)">
                            <path d="M12.0594411,14.7256809 C12.6375282,16.0717523 12.8302239,17.6101196 12.6375282,18.956191 C12.4448325,20.8791501 11.6740497,22.4175174 10.132484,22.9944051 C8.78361408,23.7635888 7.04935273,23.5712929 5.31509137,22.6098133 C3.77352573,21.6483337 2.42465578,20.3022624 1.46117726,18.3793032 C0.497698725,16.64864 0.112307313,14.533385 0.305003019,12.8027218 C0.497698725,10.8797626 1.26848155,9.34139533 2.8100472,8.76450759 C4.15891714,7.99532394 5.89317849,8.18761985 7.62743985,9.14909941 C9.16900549,10.110579 10.5178754,11.4566504 11.481354,13.3796095 C11.6740497,13.7642013 11.8667454,14.1487931 12.0594411,14.7256809 Z M3.19543861,16.2640482 C3.38813431,16.64864 3.58083002,17.0332318 3.77352573,17.4178237 C4.54430855,18.956191 5.50778708,20.1099664 6.66396132,20.6868542 C7.24204843,21.071446 8.39822267,21.4560378 9.3617012,21.071446 C10.3251797,20.6868542 10.5178754,19.3407828 10.5178754,18.7638951 C10.7105711,17.4178237 10.3251797,15.8794564 9.55439691,14.3410891 C8.78361408,12.8027218 7.82013555,11.6489463 6.66396132,11.0720585 C6.0858742,10.6874667 4.92969996,10.3028749 3.96622143,10.6874667 C3.0027429,11.0720585 2.8100472,12.4181299 2.8100472,12.9950177 C2.61735149,13.9564972 2.8100472,15.1102727 3.19543861,16.2640482 Z" id="Shape" fill="#D3C828"></path>
                            <path d="M81.6225909,16.64864 C81.0445038,17.0332318 80.273721,17.6101196 79.5029382,17.8024155 C75.4563283,19.5330787 71.2170228,18.7638951 70.0608486,16.0717523 C69.4827615,14.7256809 69.6754572,12.9950177 70.8316314,11.4566504 C71.7951099,9.91828307 73.3366756,8.76450759 75.2636326,7.99532394 C77.1905897,7.22614029 79.1175468,6.84154846 80.8518081,7.03384437 C82.7787652,7.4184362 84.1276351,8.18761985 84.7057222,9.72598715 C85.6692008,11.8412422 84.3203308,14.7256809 81.6225909,16.64864 Z M74.3001541,10.8797626 C73.5293713,11.4566504 72.9512842,12.0335381 72.5658928,12.6104258 C72.1805013,13.1873136 71.6024142,14.1487931 71.9878056,15.1102727 C72.7585885,16.64864 75.6490241,17.0332318 78.7321553,15.6871604 C81.6225909,14.533385 83.549548,12.0335381 82.7787652,10.3028749 C82.3933738,9.34139533 81.2371995,8.9568035 80.4664167,8.9568035 C79.1175468,8.76450759 77.5759811,8.9568035 76.0344155,9.72598715 C75.4563283,10.110579 74.8782412,10.4951708 74.3001541,10.8797626 Z" id="Shape" fill="#D3C828"></path>
                            <path d="M97.6163345,27.801803 C95.1112904,27.801803 92.4135505,25.6865479 91.0646805,22.4175174 C89.3304192,18.3793032 90.101202,14.1487931 92.7989419,12.8027218 C95.6893775,11.6489463 99.1579002,13.7642013 101.084857,17.9947114 C101.85564,19.9176705 102.241031,21.8406297 102.048336,23.5712929 C101.85564,25.494252 100.892162,26.8403234 99.3505959,27.4172111 C98.5798131,27.801803 98.1944217,27.801803 97.6163345,27.801803 Z M94.3405075,14.7256809 C94.1478118,14.7256809 93.7624204,14.7256809 93.5697247,14.9179768 C92.0281591,15.6871604 91.6427676,18.7638951 92.9916376,21.6483337 C94.3405075,24.5327724 96.652856,26.4557316 98.3871174,25.6865479 C99.3505959,25.3019561 99.7359873,24.1481806 99.7359873,23.378997 C99.928683,22.0329256 99.7359873,20.4945583 98.9652045,18.956191 C97.8090302,16.4563441 95.8820732,14.7256809 94.3405075,14.7256809 Z" id="Shape" fill="#D3C828"></path>
                            <path d="M29.9801417,39.9164455 C29.787446,40.3010373 29.5947503,40.6856291 29.4020546,40.877925 C28.4385761,42.0317005 26.8970104,42.6085882 24.9700534,42.4162923 C23.235792,42.2239964 21.5015307,41.2625168 19.7672693,40.1087414 C16.2987466,37.2243027 15.1425724,33.1860885 17.0695294,30.8785376 C17.8403123,30.1093539 18.8037908,29.5324662 20.1526607,29.3401703 C22.2723135,29.1478743 24.7773577,30.1093539 26.7043147,31.8400171 C29.5947503,33.9552722 30.9436203,37.4165986 29.9801417,39.9164455 Z M18.4183994,32.4169049 C17.8403123,33.9552722 18.9964865,36.455119 21.1161393,38.1857822 C22.2723135,39.1472618 23.8138791,39.9164455 25.1627491,40.1087414 C25.7408362,40.1087414 27.0897061,40.3010373 27.6677933,39.3395577 C28.8239675,37.9934863 27.6677933,35.1090476 25.3554448,33.1860885 C23.8138791,31.8400171 21.8869221,31.0708335 20.3453564,31.2631294 C19.5745736,31.2631294 19.1891822,31.6477212 18.8037908,32.032313 C18.6110951,32.2246089 18.4183994,32.4169049 18.4183994,32.4169049 Z" id="Shape" fill="#D3C828"></path>
                            <path d="M19.1891822,64.1457305 C18.9964865,64.1457305 18.8037908,63.9534346 18.8037908,63.9534346 C17.4549209,63.1842509 16.4914423,61.8381795 16.2987466,59.9152204 C16.1060509,58.1845572 16.4914423,56.261598 17.4549209,54.3386389 C18.6110951,52.031088 20.5380521,50.1081288 22.4650092,49.5312411 C23.6211834,49.1466493 24.7773577,49.1466493 25.9335319,49.723537 C26.8970104,50.3004248 27.6677933,51.0696084 28.0531847,52.4156798 C28.6312718,54.3386389 28.4385761,57.0307817 27.2824019,59.3383327 C26.1262276,61.6458836 24.1992706,63.5688427 22.2723135,64.1457305 C21.1161393,64.5303223 20.1526607,64.5303223 19.1891822,64.1457305 Z M24.7773577,51.4542002 C24.1992706,51.2619043 23.6211834,51.4542002 23.235792,51.4542002 C21.8869221,51.8387921 20.3453564,53.3771594 19.3818779,55.3001185 C18.6110951,56.8384858 18.2257037,58.3768531 18.4183994,59.7229245 C18.4183994,60.2998122 18.8037908,61.6458836 19.7672693,62.0304754 C20.3453564,62.4150673 21.1161393,62.2227713 21.5015307,62.0304754 C22.8504006,61.6458836 24.3919663,60.1075163 25.3554448,58.1845572 C26.3189233,56.261598 26.511619,54.3386389 26.1262276,52.8002716 C25.9335319,52.4156798 25.7408362,51.6464961 24.7773577,51.4542002 C24.9700534,51.6464961 24.7773577,51.4542002 24.7773577,51.4542002 Z" id="Shape" fill="#D3C828"></path>
                            <path d="M111.29773,85.8751686 C111.105034,85.6828727 110.719643,85.4905768 110.526947,85.2982809 C108.59999,82.9907299 109.756164,78.7602198 113.417382,76.0680771 C115.537035,74.3374138 118.042079,73.5682302 119.969036,73.7605261 C121.317906,73.952822 122.281385,74.5297098 123.052168,75.2988934 C124.015646,76.4526689 124.208342,78.1833321 123.630255,79.9139953 C123.052168,81.6446585 121.895993,83.1830258 120.354428,84.5290972 C117.271297,86.8366482 113.417382,87.4135359 111.29773,85.8751686 Z M112.453904,83.7599136 C113.417382,85.105985 116.693209,84.5290972 119.005558,82.6061381 C120.354428,81.6446585 121.317906,80.2985871 121.703298,79.1448117 C121.895993,78.5679239 122.281385,77.4141485 121.510602,76.4526689 C121.125211,75.8757812 120.354428,75.6834852 119.969036,75.6834852 C118.427471,75.4911893 116.500514,76.260373 114.958948,77.6064444 C112.453904,79.5294035 111.29773,82.4138422 112.453904,83.7599136 Z" id="Shape" fill="#D3C828"></path>
                            <path d="M13.2156153,88.5673114 C10.5178754,87.6058318 9.16900549,83.9522095 9.93978832,79.9139953 C10.3251797,77.9910362 11.0959626,76.0680771 12.4448325,74.7220057 C13.7937024,73.3759343 15.3352681,72.6067506 16.8768337,72.9913425 C18.4183994,73.1836384 19.5745736,74.3374138 20.3453564,76.260373 C20.9234436,77.7987403 21.1161393,79.9139953 20.7307479,81.8369544 C19.959965,86.2597604 16.8768337,89.336495 13.9863981,88.7596073 C13.6010067,88.7596073 13.408311,88.7596073 13.2156153,88.5673114 Z M16.684138,75.2988934 L16.4914423,75.2988934 C15.5279638,75.1065975 14.5644853,75.8757812 14.1790938,76.4526689 C13.2156153,77.4141485 12.6375282,78.9525158 12.2521368,80.4908831 C11.6740497,83.5676177 12.6375282,86.4520564 14.3717896,86.8366482 C16.1060509,87.22124 18.033008,84.7213931 18.6110951,81.6446585 C18.9964865,80.1062912 18.8037908,78.375628 18.2257037,77.2218525 C18.033008,76.4526689 17.4549209,75.4911893 16.684138,75.2988934 Z" id="Shape" fill="#D3C828"></path>
                            <path d="M90.6792891,91.0671583 C88.9450278,89.7210869 87.9815492,87.7981277 88.3669406,86.0674645 C88.7523321,84.5290972 89.9085063,83.3753217 91.6427676,82.6061381 C93.377029,82.0292504 95.3039861,81.8369544 97.2309431,82.2215463 C101.662944,83.1830258 104.55338,86.2597604 103.975293,89.1441991 C103.782597,90.2979746 103.011814,91.2594542 102.048336,91.8363419 C100.314074,92.9901174 97.6163345,93.3747092 95.1112904,92.7978215 C93.377029,92.6055256 91.8354634,92.0286378 90.6792891,91.0671583 Z M100.314074,85.8751686 C99.3505959,85.105985 98.1944217,84.7213931 96.8455517,84.3368013 C95.3039861,83.9522095 93.5697247,84.1445054 92.4135505,84.5290972 C91.8354634,84.7213931 90.6792891,85.2982809 90.4865934,86.2597604 C90.101202,87.9904237 92.4135505,90.1056787 95.4966818,90.6825664 C97.6163345,91.0671583 99.5432916,90.8748623 100.892162,90.1056787 C101.277553,89.9133828 101.85564,89.336495 101.85564,88.7596073 C102.048336,87.7981277 101.470249,86.8366482 100.314074,85.8751686 Z" id="Shape" fill="#D3C828"></path>
                            <g transform="translate(80.081025, 0.000000)">
                                <ellipse id="Oval" fill="#EE4D6D" cx="9.44208959" cy="9.34139533" rx="7.51513253" ry="7.4995406"></ellipse>
                                <path d="M9.44208959,18.1870073 C4.62469694,18.1870073 0.578087118,14.1487931 0.578087118,9.34139533 C0.578087118,4.53399751 4.62469694,0.49578334 9.44208959,0.49578334 C14.2594822,0.49578334 18.3060921,4.53399751 18.3060921,9.34139533 C18.3060921,14.1487931 14.2594822,18.1870073 9.44208959,18.1870073 Z M9.44208959,3.18792612 C6.16626259,3.18792612 3.46852271,5.8800689 3.46852271,9.14909941 C3.46852271,12.4181299 6.16626259,15.1102727 9.44208959,15.1102727 C12.7179166,15.1102727 15.4156565,12.4181299 15.4156565,9.14909941 C15.4156565,5.8800689 12.7179166,3.18792612 9.44208959,3.18792612 Z" id="Shape" fill="#DFE348"></path>
                            </g>
                            <g transform="translate(4.929700, 16.456344)">
                                <ellipse id="Oval" fill="#EE4D6D" transform="translate(10.147471, 9.891163) rotate(-67.579350) translate(-10.147471, -9.891163) " cx="10.1474715" cy="9.89116332" rx="7.51506234" ry="7.49947055"></ellipse>
                                <path d="M18.4987878,13.268418 C16.5718307,17.8835199 11.3690467,19.9987749 6.93704541,18.0758158 C2.31234847,16.1528567 0.192695706,10.960867 2.11965277,6.53806103 C4.04660983,1.92295913 9.24939389,-0.192295913 13.6813951,1.73066322 C18.3060921,3.46132643 20.4257448,8.65331608 18.4987878,13.268418 Z M4.62469694,7.4995406 C3.275827,10.5762752 4.81739265,14.0376016 7.90052394,15.383673 C10.9836552,16.7297444 14.4521779,15.1913771 15.8010479,12.1146425 C17.1499178,9.0379079 15.6083522,5.57658147 12.5252209,4.23051008 C9.44208959,2.88443869 5.97356689,4.42280599 4.62469694,7.4995406 Z" id="Shape" fill="#DFE348"></path>
                            </g>
                            <g transform="translate(3.853914, 80.764283)">
                                <ellipse id="Oval" fill="#EE4D6D" transform="translate(9.609219, 9.710892) rotate(-70.736994) translate(-9.609219, -9.710892) " cx="9.60921883" cy="9.71089192" rx="7.51501984" ry="7.49942814"></ellipse>
                                <path d="M6.85665702,18.1870073 C2.23196008,16.64864 -0.273084099,11.4566504 1.46117726,6.84154846 C3.0027429,2.22644655 8.20552696,-0.273400311 12.8302239,1.4572629 C17.4549209,2.99563021 19.959965,8.18761985 18.2257037,12.8027218 C16.4914423,17.4178237 11.481354,19.7253746 6.85665702,18.1870073 Z M11.8667454,4.14940568 C8.78361408,2.99563021 5.31509137,4.72629342 4.15891714,7.80302803 C3.0027429,10.8797626 4.73700426,14.3410891 7.82013555,15.4948645 C10.9032668,16.64864 14.3717896,14.9179768 15.5279638,11.8412422 C16.684138,8.76450759 14.9498767,5.30318116 11.8667454,4.14940568 Z" id="Shape" fill="#DFE348"></path>
                            </g>
                            <g transform="translate(98.105423, 75.678503)">
                                <ellipse id="Oval" fill="#EE4D6D" transform="translate(10.647799, 10.637293) rotate(-52.892894) translate(-10.647799, -10.637293) " cx="10.6477987" cy="10.6372929" rx="7.51504663" ry="7.49945488"></ellipse>
                                <path d="M5.48447868,17.6962066 C1.63056456,14.811768 0.859781738,9.23518649 3.75021733,5.19697232 C6.64065292,1.35105406 12.2288284,0.581870412 16.2754382,3.4663091 C20.1293523,6.3507478 20.9001352,11.9273293 18.0096996,15.9655434 C14.9265683,19.8114617 9.3383928,20.5806453 5.48447868,17.6962066 Z M14.3484812,5.77386006 C11.6507413,3.85090093 7.79682715,4.23549275 5.86987009,6.92763553 C3.94291303,9.61977831 4.32830445,13.4656966 7.02604433,15.3886557 C9.72378421,17.3116148 13.5776983,16.927023 15.5046554,14.2348802 C17.6243082,11.5427374 17.046221,7.69681918 14.3484812,5.77386006 Z" id="Shape" fill="#DFE348"></path>
                            </g>
                            <g transform="translate(51.858453, 6.841548)">
                                <ellipse id="Oval" fill="#7E7B7B" cx="11.4580456" cy="11.3454589" rx="7.70782824" ry="7.69183651"></ellipse>
                                <path d="M11.4580456,22.6909177 C5.09908727,22.6909177 0.0889989141,17.691224 0.0889989141,11.3454589 C0.0889989141,4.99969373 5.09908727,0 11.4580456,0 C17.8170039,0 22.8270922,4.99969373 22.8270922,11.3454589 C22.8270922,17.691224 17.8170039,22.6909177 11.4580456,22.6909177 Z M11.4580456,7.30724469 C9.3383928,7.30724469 7.41143574,9.0379079 7.41143574,11.3454589 C7.41143574,13.4607139 9.14569709,15.383673 11.4580456,15.383673 C13.5776983,15.383673 15.5046554,13.6530098 15.5046554,11.3454589 C15.5046554,9.23020381 13.770394,7.30724469 11.4580456,7.30724469 Z" id="Shape" fill="#FFFFFF"></path>
                            </g>
                            <g transform="translate(4.929700, 56.838486)">
                                <ellipse id="Oval" fill="#7E7B7B" transform="translate(11.540931, 11.232023) rotate(-70.736994) translate(-11.540931, -11.232023) " cx="11.5409312" cy="11.2320235" rx="7.70771266" ry="7.69172117"></ellipse>
                                <path d="M7.70782824,22.11403 C1.73426135,19.9987749 -1.34886994,13.6530098 0.770782824,7.69183651 C2.89043559,1.73066322 9.24939389,-1.34607139 15.2229608,0.769183651 C21.1965277,2.88443869 24.279659,9.23020381 22.1600062,15.1913771 C20.2330491,20.9602545 13.6813951,24.229285 7.70782824,22.11403 Z M12.7179166,7.69183651 C10.5982638,6.92265286 8.47861106,8.07642834 7.70782824,10.1916834 C6.93704541,12.3069384 8.09321965,14.4221935 10.2128724,15.1913771 C12.3325252,15.9605608 14.4521779,14.8067853 15.2229608,12.6915302 C15.9937436,10.5762752 14.8375694,8.46102016 12.7179166,7.69183651 Z" id="Shape" fill="#FFFFFF"></path>
                            </g>
                            <path d="M116.885905,42.8008842 C115.537035,43.185476 113.417382,42.8008842 111.490425,41.4548128 C110.141555,40.4933332 108.985381,39.3395577 108.407294,38.1857822 C108.214598,37.6088945 107.829207,36.455119 108.407294,35.4936395 C108.407294,35.4936395 108.407294,35.4936395 108.407294,35.3013436 C108.792685,34.7244558 109.370773,34.5321599 109.756164,34.5321599 C111.29773,34.1475681 113.224687,34.7244558 114.958948,35.8782313 C117.463992,37.4165986 118.812862,39.9164455 118.234775,41.4548128 L120.354428,41.8394046 C121.125211,39.3395577 119.390949,36.0705272 116.115122,33.9552722 C113.802774,32.4169049 111.29773,31.8400171 109.370773,32.2246089 C108.214598,32.4169049 107.058424,33.1860885 106.480337,34.1475681 C105.709554,35.4936395 105.516858,37.2243027 106.480337,38.9549659 C107.25112,40.4933332 108.59999,42.0317005 110.334251,43.185476 C113.031991,44.9161392 116.115122,45.4930269 118.234775,44.5315474 L116.885905,42.8008842 Z" id="Shape" fill="#D3C828"></path>
                            <g transform="translate(113.690467, 59.444541)">
                                <ellipse id="Oval" fill="#7E7B7B" transform="translate(11.422909, 11.412682) rotate(-52.892894) translate(-11.422909, -11.412682) " cx="11.4229094" cy="11.4126817" rx="7.70774014" ry="7.69174859"></ellipse>
                                <path d="M4.54430855,20.4694538 C-0.465779805,16.6235356 -1.42925833,9.5085868 2.42465578,4.50889307 C6.2785699,-0.490800666 13.408311,-1.45228023 18.4183994,2.39363803 C23.4284877,6.23955628 24.3919663,13.3545051 20.5380521,18.3541988 C16.8768337,23.3538925 9.55439691,24.3153721 4.54430855,20.4694538 Z M13.7937024,8.35481132 C12.0594411,7.00873993 9.55439691,7.39333176 8.20552696,9.12399497 C6.85665702,10.8546582 7.24204843,13.3545051 8.97630979,14.7005764 C10.7105711,16.0466478 13.2156153,15.662056 14.5644853,13.9313928 C15.9133552,12.2007296 15.5279638,9.70088271 13.7937024,8.35481132 Z" id="Shape" fill="#FFFFFF"></path>
                            </g>
                            <g transform="translate(18.024397, 39.142279)">
                                <ellipse id="Oval" fill="#DFE348" transform="translate(8.815305, 8.756485) rotate(-70.736994) translate(-8.815305, -8.756485) " cx="8.81530529" cy="8.75648504" rx="5.97347731" ry="5.96108391"></ellipse>
                                <path d="M5.98217741,17.1193189 C1.35748046,15.5809516 -0.954868008,10.5812579 0.586697639,5.96615597 C2.12826329,1.35105406 7.13835164,-0.956496891 11.7630486,0.581870412 C16.3877455,2.12023771 18.700094,7.11993145 17.1585284,11.7350334 C15.424267,16.3501353 10.4141786,18.6576862 5.98217741,17.1193189 Z M9.83609153,5.96615597 C8.29452588,5.38926823 6.56026452,6.15845188 5.98217741,7.8891151 C5.40409029,9.4274824 6.17487311,11.1581456 7.90913447,11.7350334 C9.45070011,12.3119211 11.1849615,11.5427374 11.7630486,9.81207423 C12.3411357,8.27370692 11.3776572,6.54304371 9.83609153,5.96615597 Z" id="Shape" fill="#F6AEBF"></path>
                            </g>
                            <g transform="translate(93.569725, 21.152550)">
                                <ellipse id="Oval" fill="#DFE348" cx="9.24939389" cy="8.9568035" rx="5.97356689" ry="5.9611733"></ellipse>
                                <path d="M9.24939389,17.8024155 C4.43200124,17.8024155 0.578087118,13.9564972 0.578087118,9.14909941 C0.578087118,4.3417016 4.43200124,0.49578334 9.24939389,0.49578334 C14.0667865,0.49578334 17.9207007,4.3417016 17.9207007,9.14909941 C17.9207007,13.9564972 14.0667865,17.8024155 9.24939389,17.8024155 Z M9.24939389,5.8800689 C7.51513253,5.8800689 6.16626259,7.22614029 6.16626259,8.9568035 C6.16626259,10.6874667 7.51513253,12.0335381 9.24939389,12.0335381 C10.9836552,12.0335381 12.3325252,10.6874667 12.3325252,8.9568035 C12.3325252,7.22614029 10.7909595,5.8800689 9.24939389,5.8800689 Z" id="Shape" fill="#F6AEBF"></path>
                            </g>
                            <g transform="translate(74.075539, 76.918365)">
                                <ellipse id="Oval" fill="#DFE348" transform="translate(9.053315, 8.705280) rotate(-52.892894) translate(-9.053315, -8.705280) " cx="9.05331525" cy="8.70528045" rx="5.97349861" ry="5.96110516"></ellipse>
                                <path d="M3.69313733,15.6871604 C-0.160776785,12.8027218 -0.931559609,7.22614029 1.95887598,3.57251794 C4.84931157,-0.273400311 10.437487,-1.04258396 14.0987055,1.84185473 C17.9526196,4.72629342 18.7234024,10.3028749 15.8329668,13.9564972 C13.1352269,17.9947114 7.54705145,18.7638951 3.69313733,15.6871604 Z M10.8228785,6.45695664 C9.47400851,5.49547707 7.54705145,5.68777298 6.58357292,7.03384437 C5.62009439,8.37991576 5.8127901,10.3028749 7.16166004,11.2643545 C8.51052998,12.225834 10.437487,12.0335381 11.4009656,10.6874667 C12.5571398,9.34139533 12.1717484,7.4184362 10.8228785,6.45695664 Z" id="Shape" fill="#F6AEBF"></path>
                            </g>
                            <g transform="translate(25.732226, 98.921204)">
                                <path d="M9.83609153,13.1062092 C8.10183017,13.1062092 5.98217741,12.3370255 4.05522035,10.9909541 C0.394001933,8.29881137 -0.954868008,4.45289311 0.779393345,1.95304624 C2.5136547,-0.546800623 6.75296023,-0.35450471 10.4141786,2.14534216 C12.5338314,3.68370946 14.0753971,5.7989645 14.4607885,7.91421954 C14.6534842,9.26029093 14.4607885,10.4140664 13.6900056,11.1832501 C12.9192228,12.5293214 11.5703529,13.1062092 9.83609153,13.1062092 Z M4.82600317,2.33763807 C3.86252464,2.33763807 3.09174182,2.72222989 2.7063504,3.29911763 C1.74287188,4.64518902 2.89904611,7.52962771 5.59678599,9.45258684 C8.10183017,11.375546 11.1849615,11.5678419 12.14844,10.2217705 C12.5338314,9.64488275 12.5338314,9.06799502 12.5338314,8.49110728 C12.3411357,6.95273998 11.1849615,5.41437267 9.45070011,4.06830128 C7.71643876,2.91452581 6.17487311,2.33763807 4.82600317,2.33763807 Z" id="Shape" fill="#D3C828"></path>
                                <path d="M30.4545321,18.4904947 C30.2618364,18.4904947 29.8764449,18.4904947 29.6837492,18.4904947 C28.3348793,18.2981988 27.3714008,17.7213111 26.9860094,16.7598315 C26.6006179,15.798352 26.6006179,14.6445765 27.3714008,13.490801 C27.9494879,12.5293214 29.1056621,11.5678419 30.4545321,10.9909541 C31.803402,10.4140664 33.1522719,10.2217705 34.3084462,10.2217705 C35.6573161,10.4140664 36.6207947,10.9909541 37.0061861,11.9524337 C37.3915775,12.9139133 37.3915775,14.0676887 36.6207947,15.2214642 C36.0427075,16.1829438 34.8865333,17.1444234 33.5376634,17.7213111 C32.3814891,18.2981988 31.4180106,18.4904947 30.4545321,18.4904947 Z M33.5376634,11.7601378 C32.7668805,11.7601378 31.803402,11.9524337 31.0326192,12.3370255 C30.0691407,12.7216174 29.1056621,13.490801 28.7202707,14.2599847 C28.527575,14.6445765 28.1421836,15.4137601 28.3348793,15.9906479 C28.7202707,16.5675356 29.4910535,16.7598315 29.8764449,16.9521274 C30.8399235,17.1444234 31.803402,16.9521274 32.9595762,16.3752397 C33.9230548,15.9906479 34.8865333,15.2214642 35.2719247,14.4522806 C35.4646204,14.0676887 35.8500118,13.2985051 35.6573161,12.7216174 C35.2719247,12.1447296 34.5011419,11.7601378 34.1157505,11.7601378 C33.9230548,11.7601378 33.7303591,11.7601378 33.5376634,11.7601378 Z" id="Shape" fill="#D3C828"></path>
                                <g transform="translate(10.710571, 4.068301)">
                                    <ellipse id="Oval" fill="#DFE348" cx="8.76030568" cy="9.0379079" rx="5.97356689" ry="5.9611733"></ellipse>
                                    <path d="M8.76030568,17.691224 C3.94291303,17.691224 0.0889989141,13.8453057 0.0889989141,9.0379079 C0.0889989141,4.23051008 3.94291303,0.384591826 8.76030568,0.384591826 C13.5776983,0.384591826 17.4316125,4.23051008 17.4316125,9.0379079 C17.4316125,13.8453057 13.5776983,17.691224 8.76030568,17.691224 Z M8.76030568,5.9611733 C7.02604433,5.9611733 5.67717439,7.30724469 5.67717439,9.0379079 C5.67717439,10.7685711 7.02604433,12.1146425 8.76030568,12.1146425 C10.494567,12.1146425 11.843437,10.7685711 11.843437,9.0379079 C11.843437,7.30724469 10.494567,5.9611733 8.76030568,5.9611733 Z" id="Shape" fill="#F6AEBF"></path>
                                </g>
                            </g>
                            <path d="M77.7686768,82.2215463 C77.7686768,81.0677708 77.5759811,79.7216994 76.8051983,78.375628 C76.2271112,77.0295566 75.2636326,76.0680771 74.1074584,75.4911893 C73.5293713,75.1065975 72.7585885,74.9143016 72.1805013,74.9143016 L72.3731971,76.4526689 C72.7585885,76.4526689 73.1439799,76.6449648 73.3366756,76.8372607 C73.5293713,76.8372607 73.722067,77.0295566 73.722067,77.2218525 C74.3001541,77.6064444 74.8782412,78.375628 75.2636326,79.1448117 C75.8417198,80.1062912 76.0344155,81.2600667 76.0344155,82.2215463 C76.0344155,82.6061381 75.8417198,83.5676177 75.2636326,83.9522095 C74.6855455,84.3368013 73.9147627,83.9522095 73.5293713,83.7599136 C72.7585885,83.3753217 71.9878056,82.4138422 71.4097185,81.4523626 C70.8316314,80.4908831 70.6389357,79.3371076 70.6389357,78.375628 C70.6389357,77.9910362 70.8316314,77.4141485 71.2170228,77.0295566 L70.0608486,76.0680771 C69.6754572,76.6449648 69.2900658,77.4141485 69.2900658,78.375628 C69.2900658,79.5294035 69.4827615,80.8754749 70.2535443,82.2215463 C70.8316314,83.1830258 71.6024142,84.1445054 72.3731971,84.7213931 C72.5658928,84.9136891 72.7585885,84.9136891 72.9512842,85.105985 C74.1074584,85.6828727 75.2636326,85.8751686 76.2271112,85.2982809 C76.997894,84.5290972 77.5759811,83.5676177 77.7686768,82.2215463 Z" id="Shape" fill="#D3C828"></path>
                        </g>
                        <polygon id="Shape" fill="#DFE348" points="288.377266 109.443243 283.264865 148.265356 298.034022 150.411302 299.548808 154.508108 302.010334 150.99656 316.779491 153.142506 321.891892 114.320393"></polygon>
                        <polygon id="Shape" fill="#EE4D6D" points="98.1282555 130.902703 79.4 165.766071 92.8609337 173.095301 92.8609337 177.453222 96.5675676 175.076175 110.028501 182.405405 128.756757 147.542037"></polygon>
                        <polygon id="Shape" fill="#5450A1" points="306.87027 232.06748 318.770516 270.389189 333.401966 265.573896 336.523342 268.583454 337.303686 264.169435 351.935135 259.354142 340.034889 221.032432"></polygon>
                    </g>
                </g>
            </g>
        </g>
    </g>
</svg>