<?xml version="1.0" encoding="UTF-8"?>
<svg width="438px" height="449px" viewBox="0 0 438 449" version="1.1" xmlns="http://www.w3.org/2000/svg" xmlns:xlink="http://www.w3.org/1999/xlink">
    <!-- Generator: Sketch 48.2 (47327) - http://www.bohemiancoding.com/sketch -->
    <title>Group 8 Copy</title>
    <desc>Created with Sketch.</desc>
    <defs></defs>
    <g id="Home-S2-Desktop-1366" stroke="none" stroke-width="1" fill="none" fill-rule="evenodd" transform="translate(-795.000000, -395.000000)">
        <g id="Group-26" transform="translate(795.000000, 395.000000)" fill="#FF4A68">
            <g id="Group-8-Copy">
                <polygon id="Fill-4" points="301 152.089682 301.929014 148 317 151.910318 316.070986 156"></polygon>
                <polygon id="Fill-6" points="305 159.070986 309.089682 160 313 144.929014 308.910318 144"></polygon>
                <polygon id="Fill-8" points="390.857211 134 389 130.378775 403.142789 123 405 126.621225"></polygon>
                <polygon id="Fill-10" points="399.378459 136 403 134.1429 395.621541 120 392 121.858052"></polygon>
                <polygon id="Fill-12" points="305.857211 94 304 90.3794187 318.142789 83 320 86.6215414"></polygon>
                <polygon id="Fill-14" points="314.378775 96 318 94.1428996 310.622185 80 307 81.8580522"></polygon>
                <polygon id="Fill-16" points="322 130 334 130 334 126 322 126"></polygon>
                <polygon id="Fill-18" points="426 133.438294 424.30314 122 421 122.56263 422.69686 134"></polygon>
                <polygon id="Fill-19" points="294 54.4382507 292.304003 43 289 43.5626732 290.69686 55"></polygon>
                <polygon id="Fill-20" points="388.180748 28 389 31.8115087 373.819252 35 373 31.1884913"></polygon>
                <polygon id="Fill-21" points="381.811927 24 378 24.8183716 381.188073 40 385 39.1816284"></polygon>
                <polygon id="Fill-22" points="420.181628 72 421 75.8115087 405.818372 79 405 75.1884913"></polygon>
                <polygon id="Fill-23" points="413.811927 68 410 68.8183716 413.188991 84 417 83.1816284"></polygon>
                <polygon id="Fill-24" points="338 45.6869277 346.488499 54 349 51.3130723 340.512438 43"></polygon>
                <polygon id="Fill-25" points="368 150.686928 376.487562 159 379 156.313072 370.511501 148"></polygon>
                <polygon id="Fill-26" points="365 91.8955036 376.969444 92 377 88.1055011 365.030556 88"></polygon>
                <polygon id="Fill-27" points="301 8.09018831 301.929014 4 317 7.90981169 316.070986 12"></polygon>
                <polygon id="Fill-28" points="305 15.0709857 309.089682 16 313 0.929014313 308.910318 0"></polygon>
                <polygon id="Fill-29" points="368 5.6876526 376.487562 14 379 11.3123474 370.511501 3"></polygon>
                <polygon id="Fill-31" points="301 297.090673 301.929014 293 317 296.910318 316.070986 301"></polygon>
                <polygon id="Fill-32" points="305 303.070986 309.089682 304 313 288.929014 308.910318 288"></polygon>
                <polygon id="Fill-33" points="390.857211 278 389 274.378775 403.142789 267 405 270.621225"></polygon>
                <polygon id="Fill-34" points="399.378459 280 403 278.1429 395.621541 264 392 265.858052"></polygon>
                <polygon id="Fill-35" points="305.857211 238 304 234.378775 318.142789 227 320 230.621225"></polygon>
                <polygon id="Fill-36" points="314.378775 241 318 239.1429 310.622185 225 307 226.859004"></polygon>
                <polygon id="Fill-37" points="322 274 334 274 334 270 322 270"></polygon>
                <polygon id="Fill-39" points="294 198.439175 292.304003 187 289 187.562673 290.69686 199"></polygon>
                <polygon id="Fill-40" points="388.180748 172 389 175.811009 373.819252 179 373 175.188991"></polygon>
                <polygon id="Fill-41" points="381.811927 168 378 168.819252 381.188073 184 385 183.180748"></polygon>
                <polygon id="Fill-42" points="420.181628 216 421 219.811009 405.818372 223 405 219.188073"></polygon>
                <polygon id="Fill-43" points="413.811927 212 410 212.819252 413.188991 228 417 227.180748"></polygon>
                <polygon id="Fill-44" points="338 189.687653 346.488499 198 349 195.312347 340.512438 187"></polygon>
                <polygon id="Fill-45" points="368 294.686693 376.487562 303 379 300.312347 370.511501 292"></polygon>
                <polygon id="Fill-46" points="365 235.895504 376.969444 236 377 232.106506 365.030556 232"></polygon>
                <polygon id="Fill-47" points="301 152.089682 301.929014 148 317 151.910318 316.070986 156"></polygon>
                <polygon id="Fill-48" points="305 159.070986 309.089682 160 313 144.929014 308.910318 144"></polygon>
                <polygon id="Fill-49" points="368 150.686928 376.487562 159 379 156.313072 370.511501 148"></polygon>
                <polygon id="Fill-50" points="438 342.438294 436.30314 331 433 331.56263 434.69686 343"></polygon>
                <polygon id="Fill-51" points="301 441.089682 301.929014 437 317 440.910318 316.070986 445"></polygon>
                <polygon id="Fill-52" points="305 448.070986 309.089682 449 313 433.929014 308.910318 433"></polygon>
                <polygon id="Fill-53" points="390.857211 422 389 418.378459 403.142789 411 405 414.621541"></polygon>
                <polygon id="Fill-54" points="399.378459 424 403 422.1429 395.621541 408 392 409.858052"></polygon>
                <polygon id="Fill-55" points="305.857211 382 304 378.378459 318.142789 371 320 374.620581"></polygon>
                <polygon id="Fill-56" points="314.378775 385 318 383.1429 310.622185 369 307 370.858052"></polygon>
                <polygon id="Fill-57" points="322 418 334 418 334 414 322 414"></polygon>
                <polygon id="Fill-58" points="426 421.438251 424.30314 410 421 410.562673 422.69686 422"></polygon>
                <polygon id="Fill-59" points="294 342.438294 292.304003 331 289 331.56263 290.69686 343"></polygon>
                <polygon id="Fill-60" points="388.180748 317 389 320.811927 373.819252 324 373 320.188991"></polygon>
                <polygon id="Fill-61" points="381.811927 312 378 312.819252 381.188073 328 385 327.181676"></polygon>
                <polygon id="Fill-62" points="420.181628 361 421 364.811009 405.818372 368 405 364.188991"></polygon>
                <polygon id="Fill-63" points="413.811927 356 410 356.819252 413.188991 372 417 371.180748"></polygon>
                <polygon id="Fill-64" points="338 333.687653 346.488499 342 349 339.313307 340.512438 331"></polygon>
                <polygon id="Fill-65" points="368 438.687653 376.487562 447 379 444.313307 370.511501 436"></polygon>
                <polygon id="Fill-66" points="365 380.895504 376.969444 381 377 377.105501 365.030556 377"></polygon>
                <polygon id="Fill-67" points="301 297.090673 301.929014 293 317 296.910318 316.070986 301"></polygon>
                <polygon id="Fill-68" points="305 303.070986 309.089682 304 313 288.929014 308.910318 288"></polygon>
                <polygon id="Fill-69" points="368 294.686693 376.487562 303 379 300.312347 370.511501 292"></polygon>
                <polygon id="Fill-70" points="294 54.4382507 292.304003 43 289 43.5626732 290.69686 55"></polygon>
                <polygon id="Fill-71" points="156 152.089682 156.929014 148 172 151.910318 171.070986 156"></polygon>
                <polygon id="Fill-72" points="161 159.070986 165.089682 160 169 144.929014 164.910318 144"></polygon>
                <polygon id="Fill-73" points="246.857211 134 245 130.378775 259.142789 123 261 126.621225"></polygon>
                <polygon id="Fill-74" points="254.378775 136 258 134.1429 250.622185 120 247 121.858052"></polygon>
                <polygon id="Fill-75" points="161.858052 94 160 90.3794187 174.1429 83 176 86.6215414"></polygon>
                <polygon id="Fill-76" points="169.378459 96 173 94.1428996 165.621541 80 162 81.8580522"></polygon>
                <polygon id="Fill-77" points="178 130 190 130 190 126 178 126"></polygon>
                <polygon id="Fill-78" points="281 133.438294 279.304003 122 276 122.56263 277.69686 134"></polygon>
                <polygon id="Fill-79" points="149 54.4382507 147.30371 43 144 43.5626732 145.69629 55"></polygon>
                <polygon id="Fill-80" points="244.181628 28 245 31.8115087 229.818372 35 229 31.1884913"></polygon>
                <polygon id="Fill-81" points="236.811927 24 233 24.8183716 236.188991 40 240 39.1816284"></polygon>
                <polygon id="Fill-82" points="276.181628 72 277 75.8115087 261.818372 79 261 75.1884913"></polygon>
                <polygon id="Fill-83" points="268.811927 68 265 68.8183716 268.188991 84 272 83.1816284"></polygon>
                <polygon id="Fill-84" points="194 45.6869277 202.488499 54 205 51.3130723 196.512438 43"></polygon>
                <polygon id="Fill-85" points="223 150.686928 231.487562 159 234 156.313072 225.512438 148"></polygon>
                <polygon id="Fill-86" points="220 91.8955036 231.969444 92 232 88.1055011 220.031511 88"></polygon>
                <polygon id="Fill-87" points="156 8.09018831 156.929014 4 172 7.90981169 171.070986 12"></polygon>
                <polygon id="Fill-88" points="161 15.0709857 165.089682 16 169 0.929014313 164.910318 0"></polygon>
                <polygon id="Fill-89" points="223 5.6876526 231.487562 14 234 11.3123474 225.512438 3"></polygon>
                <polygon id="Fill-90" points="294 198.439175 292.304003 187 289 187.562673 290.69686 199"></polygon>
                <polygon id="Fill-91" points="156 297.090673 156.929014 293 172 296.910318 171.070986 301"></polygon>
                <polygon id="Fill-92" points="161 303.070986 165.089682 304 169 288.929014 164.910318 288"></polygon>
                <polygon id="Fill-93" points="246.857211 278 245 274.378775 259.142789 267 261 270.621225"></polygon>
                <polygon id="Fill-94" points="254.378775 280 258 278.1429 250.622185 264 247 265.858052"></polygon>
                <polygon id="Fill-95" points="161.858052 238 160 234.378775 174.1429 227 176 230.621225"></polygon>
                <polygon id="Fill-96" points="169.378459 241 173 239.1429 165.621541 225 162 226.859004"></polygon>
                <polygon id="Fill-97" points="178 274 190 274 190 270 178 270"></polygon>
                <polygon id="Fill-98" points="281 277.438251 279.304003 266 276 266.562673 277.69686 278"></polygon>
                <polygon id="Fill-99" points="149 198.439175 147.30371 187 144 187.562673 145.69629 199"></polygon>
                <polygon id="Fill-100" points="244.181628 172 245 175.811009 229.818372 179 229 175.188991"></polygon>
                <polygon id="Fill-101" points="236.811927 168 233 168.819252 236.188991 184 240 183.180748"></polygon>
                <polygon id="Fill-102" points="276.181628 216 277 219.811009 261.818372 223 261 219.188073"></polygon>
                <polygon id="Fill-103" points="268.811927 212 265 212.819252 268.188991 228 272 227.180748"></polygon>
                <polygon id="Fill-104" points="194 189.687653 202.488499 198 205 195.312347 196.512438 187"></polygon>
                <polygon id="Fill-105" points="223 294.686693 231.487562 303 234 300.312347 225.512438 292"></polygon>
                <polygon id="Fill-106" points="220 235.895504 231.969444 236 232 232.106506 220.031511 232"></polygon>
                <polygon id="Fill-107" points="156 152.089682 156.929014 148 172 151.910318 171.070986 156"></polygon>
                <polygon id="Fill-108" points="161 159.070986 165.089682 160 169 144.929014 164.910318 144"></polygon>
                <polygon id="Fill-109" points="223 150.686928 231.487562 159 234 156.313072 225.512438 148"></polygon>
                <polygon id="Fill-110" points="294 342.438294 292.304003 331 289 331.56263 290.69686 343"></polygon>
                <polygon id="Fill-111" points="156 441.089682 156.929014 437 172 440.910318 171.070986 445"></polygon>
                <polygon id="Fill-112" points="161 448.070986 165.089682 449 169 433.929014 164.910318 433"></polygon>
                <polygon id="Fill-113" points="246.857211 422 245 418.378459 259.142789 411 261 414.621541"></polygon>
                <polygon id="Fill-114" points="254.378775 424 258 422.1429 250.622185 408 247 409.858052"></polygon>
                <polygon id="Fill-115" points="161.858052 382 160 378.378459 174.1429 371 176 374.620581"></polygon>
                <polygon id="Fill-116" points="169.378459 385 173 383.1429 165.621541 369 162 370.858052"></polygon>
                <polygon id="Fill-117" points="178 418 190 418 190 414 178 414"></polygon>
                <polygon id="Fill-118" points="281 421.438251 279.304003 410 276 410.562673 277.69686 422"></polygon>
                <polygon id="Fill-119" points="149 342.438294 147.30371 331 144 331.56263 145.69629 343"></polygon>
                <polygon id="Fill-120" points="244.181628 317 245 320.811927 229.818372 324 229 320.188991"></polygon>
                <polygon id="Fill-121" points="236.811927 312 233 312.819252 236.188991 328 240 327.181676"></polygon>
                <polygon id="Fill-122" points="276.181628 361 277 364.811009 261.818372 368 261 364.188991"></polygon>
                <polygon id="Fill-123" points="268.811927 356 265 356.819252 268.188991 372 272 371.180748"></polygon>
                <polygon id="Fill-124" points="194 333.687653 202.488499 342 205 339.313307 196.512438 331"></polygon>
                <polygon id="Fill-125" points="223 438.687653 231.487562 447 234 444.313307 225.512438 436"></polygon>
                <polygon id="Fill-126" points="220 380.895504 231.969444 381 232 377.105501 220.031511 377"></polygon>
                <polygon id="Fill-127" points="156 297.090673 156.929014 293 172 296.910318 171.070986 301"></polygon>
                <polygon id="Fill-128" points="161 303.070986 165.089682 304 169 288.929014 164.910318 288"></polygon>
                <polygon id="Fill-129" points="223 294.686693 231.487562 303 234 300.312347 225.512438 292"></polygon>
                <polygon id="Fill-130" points="149 54.4382507 147.30371 43 144 43.5626732 145.69629 55"></polygon>
                <polygon id="Fill-132" points="16 159.070986 20.0896817 160 24 144.929014 19.9103183 144"></polygon>
                <polygon id="Fill-133" points="102.857211 134 101 130.378775 115.142789 123 117 126.621225"></polygon>
                <polygon id="Fill-134" points="110.378775 136 114 134.1429 106.622185 120 103 121.858052"></polygon>
                <polygon id="Fill-135" points="17.8572109 94 16 90.3794187 30.1427891 83 32 86.6215414"></polygon>
                <polygon id="Fill-136" points="25.3784586 96 29 94.1428996 21.6215414 80 18 81.8580522"></polygon>
                <polygon id="Fill-137" points="33 130 45 130 45 126 33 126"></polygon>
                <polygon id="Fill-138" points="137 133.438294 135.30371 122 132 122.56263 133.69629 134"></polygon>
                <polygon id="Fill-139" points="5 54.4382507 3.30371009 43 0 43.5626732 1.69628991 55"></polygon>
                <polygon id="Fill-140" points="99.1816284 28 100 31.8115087 84.8183716 35 84 31.1884913"></polygon>
                <polygon id="Fill-141" points="92.8119266 24 89 24.8183716 92.1889908 40 96 39.1816284"></polygon>
                <polygon id="Fill-142" points="131.181628 72 132 75.8115087 116.818372 79 116 75.1884913"></polygon>
                <polygon id="Fill-143" points="124.811509 68 121 68.8183716 124.188491 84 128 83.1816284"></polygon>
                <polygon id="Fill-144" points="49 45.6869277 57.4875618 54 60 51.3130723 51.5115011 43"></polygon>
                <polygon id="Fill-145" points="79 150.686928 87.4884989 159 90 156.313072 81.5124382 148"></polygon>
                <polygon id="Fill-146" points="76 91.8955036 87.9684914 92 88 88.1055011 76.0315086 88"></polygon>
                <polygon id="Fill-147" points="12 8.09018831 12.9290143 4 28 7.90981169 27.0709857 12"></polygon>
                <polygon id="Fill-148" points="16 15.0709857 20.0896817 16 24 0.929014313 19.9103183 0"></polygon>
                <polygon id="Fill-149" points="79 5.6876526 87.4884989 14 90 11.3123474 81.5124382 3"></polygon>
                <polygon id="Fill-150" points="149 198.439175 147.30371 187 144 187.562673 145.69629 199"></polygon>
                <polygon id="Fill-153" points="102.857211 278 101 274.378775 115.142789 267 117 270.621225"></polygon>
                <polygon id="Fill-154" points="110.378775 280 114 278.1429 106.622185 264 103 265.858052"></polygon>
                <polygon id="Fill-155" points="17.8572109 238 16 234.378775 30.1427891 227 32 230.621225"></polygon>
                <polygon id="Fill-156" points="25.3784586 241 29 239.1429 21.6215414 225 18 226.859004"></polygon>
                <polygon id="Fill-157" points="33 274 45 274 45 270 33 270"></polygon>
                <polygon id="Fill-158" points="137 277.438251 135.30371 266 132 266.562673 133.69629 278"></polygon>
                <polygon id="Fill-159" points="5 198.439175 3.30371009 187 0 187.562673 1.69628991 199"></polygon>
                <polygon id="Fill-160" points="99.1816284 172 100 175.811009 84.8183716 179 84 175.188991"></polygon>
                <polygon id="Fill-161" points="92.8119266 168 89 168.819252 92.1889908 184 96 183.180748"></polygon>
                <polygon id="Fill-162" points="131.181628 216 132 219.811009 116.818372 223 116 219.188073"></polygon>
                <polygon id="Fill-163" points="124.811509 212 121 212.819252 124.188491 228 128 227.180748"></polygon>
                <polygon id="Fill-164" points="49 189.687653 57.4875618 198 60 195.312347 51.5115011 187"></polygon>
                <polygon id="Fill-165" points="79 294.686693 87.4884989 303 90 300.312347 81.5124382 292"></polygon>
                <polygon id="Fill-166" points="76 235.895504 87.9684914 236 88 232.106506 76.0315086 232"></polygon>
                <polygon id="Fill-169" points="79 150.686928 87.4884989 159 90 156.313072 81.5124382 148"></polygon>
                <polygon id="Fill-170" points="149 342.438294 147.30371 331 144 331.56263 145.69629 343"></polygon>
                <polygon id="Fill-171" points="12 441.089682 12.9290143 437 28 440.910318 27.0709857 445"></polygon>
                <polygon id="Fill-172" points="16 448.070986 20.0896817 449 24 433.929014 19.9103183 433"></polygon>
                <polygon id="Fill-173" points="102.857211 422 101 418.378459 115.142789 411 117 414.621541"></polygon>
                <polygon id="Fill-174" points="110.378775 424 114 422.1429 106.622185 408 103 409.858052"></polygon>
                <polygon id="Fill-175" points="17.8572109 382 16 378.378459 30.1427891 371 32 374.620581"></polygon>
                <polygon id="Fill-176" points="25.3784586 385 29 383.1429 21.6215414 369 18 370.858052"></polygon>
                <polygon id="Fill-177" points="33 418 45 418 45 414 33 414"></polygon>
                <polygon id="Fill-179" points="5 342.438294 3.30371009 331 0 331.56263 1.69628991 343"></polygon>
                <polygon id="Fill-180" points="99.1816284 317 100 320.811927 84.8183716 324 84 320.188991"></polygon>
                <polygon id="Fill-181" points="92.8119266 312 89 312.819252 92.1889908 328 96 327.181676"></polygon>
                <polygon id="Fill-182" points="131.181628 361 132 364.811009 116.818372 368 116 364.188991"></polygon>
                <polygon id="Fill-183" points="124.811509 356 121 356.819252 124.188491 372 128 371.180748"></polygon>
                <polygon id="Fill-184" points="49 333.687653 57.4875618 342 60 339.313307 51.5115011 331"></polygon>
                <polygon id="Fill-185" points="79 438.687653 87.4884989 447 90 444.313307 81.5124382 436"></polygon>
                <polygon id="Fill-186" points="76 380.895504 87.9684914 381 88 377.105501 76.0315086 377"></polygon>
                <polygon id="Fill-189" points="79 294.686693 87.4884989 303 90 300.312347 81.5124382 292"></polygon>
            </g>
        </g>
    </g>
</svg>