<svg width="145" height="180" viewBox="0 0 145 180" version="1.1" xmlns="http://www.w3.org/2000/svg" xmlns:xlink="http://www.w3.org/1999/xlink">
<title>Group 8 Copy</title>
<desc>Created using Figma</desc>
<g id="Canvas" transform="translate(-27622 3999)">
<g id="Group 8 Copy">
<g id="Fill 4">
<use xlink:href="#path0_fill" transform="matrix(0.913545 0.406737 -0.406737 0.913545 27710.7 -3898.18)" fill="#FF4A68"/>
</g>
<g id="Fill 6">
<use xlink:href="#path1_fill" transform="matrix(0.913545 0.406737 -0.406737 0.913545 27712.8 -3898.99)" fill="#FF4A68"/>
</g>
<g id="Fill 8">
<use xlink:href="#path2_fill" transform="matrix(0.913545 0.406737 -0.406737 0.913545 27746.8 -3892.99)" fill="#FF4A68"/>
</g>
<g id="Fill 10">
<use xlink:href="#path3_fill" transform="matrix(0.913545 0.406737 -0.406737 0.913545 27748.4 -3893.59)" fill="#FF4A68"/>
</g>
<g id="Fill 12">
<use xlink:href="#path4_fill" transform="matrix(0.913545 0.406737 -0.406737 0.913545 27722.3 -3921.37)" fill="#FF4A68"/>
</g>
<g id="Fill 14">
<use xlink:href="#path5_fill" transform="matrix(0.913545 0.406737 -0.406737 0.913545 27723.9 -3921.97)" fill="#FF4A68"/>
</g>
<g id="Fill 16">
<use xlink:href="#path6_fill" transform="matrix(0.913545 0.406737 -0.406737 0.913545 27721.9 -3902.78)" fill="#FF4A68"/>
</g>
<g id="Fill 18">
<use xlink:href="#path7_fill" transform="matrix(0.913545 0.406737 -0.406737 0.913545 27758.7 -3888.15)" fill="#FF4A68"/>
</g>
<g id="Fill 19">
<use xlink:href="#path8_fill" transform="matrix(0.913545 0.406737 -0.406737 0.913545 27723.3 -3938.37)" fill="#FF4A68"/>
</g>
<g id="Fill 20">
<use xlink:href="#path9_fill" transform="matrix(0.913545 0.406737 -0.406737 0.913545 27756.4 -3930.19)" fill="#FF4A68"/>
</g>
<g id="Fill 21">
<use xlink:href="#path10_fill" transform="matrix(0.913545 0.406737 -0.406737 0.913545 27758.9 -3930.83)" fill="#FF4A68"/>
</g>
<g id="Fill 22">
<use xlink:href="#path11_fill" transform="matrix(0.913545 0.406737 -0.406737 0.913545 27761 -3908.96)" fill="#FF4A68"/>
</g>
<g id="Fill 23">
<use xlink:href="#path12_fill" transform="matrix(0.913545 0.406737 -0.406737 0.913545 27763.4 -3909.61)" fill="#FF4A68"/>
</g>
<g id="Fill 24">
<use xlink:href="#path13_fill" transform="matrix(0.913545 0.406737 -0.406737 0.913545 27741.2 -3930.41)" fill="#FF4A68"/>
</g>
<g id="Fill 25">
<use xlink:href="#path14_fill" transform="matrix(0.913545 0.406737 -0.406737 0.913545 27735.1 -3887.3)" fill="#FF4A68"/>
</g>
<g id="Fill 26">
<use xlink:href="#path15_fill" transform="matrix(0.913545 0.406737 -0.406737 0.913545 27743.8 -3909.63)" fill="#FF4A68"/>
</g>
<g id="Fill 27">
<use xlink:href="#path16_fill" transform="matrix(0.913545 0.406737 -0.406737 0.913545 27734 -3950.63)" fill="#FF4A68"/>
</g>
<g id="Fill 28">
<use xlink:href="#path1_fill" transform="matrix(0.913545 0.406737 -0.406737 0.913545 27736.1 -3951.43)" fill="#FF4A68"/>
</g>
<g id="Fill 29">
<use xlink:href="#path17_fill" transform="matrix(0.913545 0.406737 -0.406737 0.913545 27758.6 -3940.1)" fill="#FF4A68"/>
</g>
<g id="Fill 31">
<use xlink:href="#path18_fill" transform="matrix(0.913545 0.406737 -0.406737 0.913545 27687.2 -3845.38)" fill="#FF4A68"/>
</g>
<g id="Fill 32">
<use xlink:href="#path1_fill" transform="matrix(0.913545 0.406737 -0.406737 0.913545 27689.4 -3846.55)" fill="#FF4A68"/>
</g>
<g id="Fill 33">
<use xlink:href="#path2_fill" transform="matrix(0.913545 0.406737 -0.406737 0.913545 27723.5 -3840.54)" fill="#FF4A68"/>
</g>
<g id="Fill 34">
<use xlink:href="#path3_fill" transform="matrix(0.913545 0.406737 -0.406737 0.913545 27725.1 -3841.15)" fill="#FF4A68"/>
</g>
<g id="Fill 35">
<use xlink:href="#path2_fill" transform="matrix(0.913545 0.406737 -0.406737 0.913545 27699 -3868.92)" fill="#FF4A68"/>
</g>
<g id="Fill 36">
<use xlink:href="#path19_fill" transform="matrix(0.913545 0.406737 -0.406737 0.913545 27700.4 -3869.17)" fill="#FF4A68"/>
</g>
<g id="Fill 37">
<use xlink:href="#path6_fill" transform="matrix(0.913545 0.406737 -0.406737 0.913545 27698.6 -3850.34)" fill="#FF4A68"/>
</g>
<g id="Fill 39">
<use xlink:href="#path20_fill" transform="matrix(0.913545 0.406737 -0.406737 0.913545 27700 -3885.93)" fill="#FF4A68"/>
</g>
<g id="Fill 40">
<use xlink:href="#path21_fill" transform="matrix(0.913545 0.406737 -0.406737 0.913545 27733.1 -3877.74)" fill="#FF4A68"/>
</g>
<g id="Fill 41">
<use xlink:href="#path22_fill" transform="matrix(0.913545 0.406737 -0.406737 0.913545 27735.5 -3878.39)" fill="#FF4A68"/>
</g>
<g id="Fill 42">
<use xlink:href="#path23_fill" transform="matrix(0.913545 0.406737 -0.406737 0.913545 27737.6 -3856.52)" fill="#FF4A68"/>
</g>
<g id="Fill 43">
<use xlink:href="#path24_fill" transform="matrix(0.913545 0.406737 -0.406737 0.913545 27740.1 -3857.16)" fill="#FF4A68"/>
</g>
<g id="Fill 44">
<use xlink:href="#path25_fill" transform="matrix(0.913545 0.406737 -0.406737 0.913545 27717.9 -3877.97)" fill="#FF4A68"/>
</g>
<g id="Fill 45">
<use xlink:href="#path26_fill" transform="matrix(0.913545 0.406737 -0.406737 0.913545 27711.8 -3834.85)" fill="#FF4A68"/>
</g>
<g id="Fill 46">
<use xlink:href="#path27_fill" transform="matrix(0.913545 0.406737 -0.406737 0.913545 27720.4 -3857.19)" fill="#FF4A68"/>
</g>
<g id="Fill 47">
<use xlink:href="#path0_fill" transform="matrix(0.913545 0.406737 -0.406737 0.913545 27710.7 -3898.18)" fill="#FF4A68"/>
</g>
<g id="Fill 48">
<use xlink:href="#path1_fill" transform="matrix(0.913545 0.406737 -0.406737 0.913545 27712.8 -3898.99)" fill="#FF4A68"/>
</g>
<g id="Fill 49">
<use xlink:href="#path14_fill" transform="matrix(0.913545 0.406737 -0.406737 0.913545 27735.1 -3887.3)" fill="#FF4A68"/>
</g>
<g id="Fill 59">
<use xlink:href="#path28_fill" transform="matrix(0.913545 0.406737 -0.406737 0.913545 27676.6 -3833.49)" fill="#FF4A68"/>
</g>
<g id="Fill 60">
<use xlink:href="#path29_fill" transform="matrix(0.913545 0.406737 -0.406737 0.913545 27709.6 -3824.93)" fill="#FF4A68"/>
</g>
<g id="Fill 61">
<use xlink:href="#path30_fill" transform="matrix(0.913545 0.406737 -0.406737 0.913545 27712.2 -3825.94)" fill="#FF4A68"/>
</g>
<g id="Fill 64">
<use xlink:href="#path31_fill" transform="matrix(0.913545 0.406737 -0.406737 0.913545 27694.5 -3825.52)" fill="#FF4A68"/>
</g>
<g id="Fill 67">
<use xlink:href="#path18_fill" transform="matrix(0.913545 0.406737 -0.406737 0.913545 27687.2 -3845.38)" fill="#FF4A68"/>
</g>
<g id="Fill 68">
<use xlink:href="#path1_fill" transform="matrix(0.913545 0.406737 -0.406737 0.913545 27689.4 -3846.55)" fill="#FF4A68"/>
</g>
<g id="Fill 69">
<use xlink:href="#path26_fill" transform="matrix(0.913545 0.406737 -0.406737 0.913545 27711.8 -3834.85)" fill="#FF4A68"/>
</g>
<g id="Fill 70">
<use xlink:href="#path8_fill" transform="matrix(0.913545 0.406737 -0.406737 0.913545 27723.3 -3938.37)" fill="#FF4A68"/>
</g>
<g id="Fill 71">
<use xlink:href="#path0_fill" transform="matrix(0.913545 0.406737 -0.406737 0.913545 27657.7 -3921.75)" fill="#FF4A68"/>
</g>
<g id="Fill 72">
<use xlink:href="#path1_fill" transform="matrix(0.913545 0.406737 -0.406737 0.913545 27660.2 -3922.39)" fill="#FF4A68"/>
</g>
<g id="Fill 73">
<use xlink:href="#path2_fill" transform="matrix(0.913545 0.406737 -0.406737 0.913545 27694.3 -3916.39)" fill="#FF4A68"/>
</g>
<g id="Fill 74">
<use xlink:href="#path5_fill" transform="matrix(0.913545 0.406737 -0.406737 0.913545 27695.5 -3917.16)" fill="#FF4A68"/>
</g>
<g id="Fill 75">
<use xlink:href="#path32_fill" transform="matrix(0.913545 0.406737 -0.406737 0.913545 27669.7 -3944.77)" fill="#FF4A68"/>
</g>
<g id="Fill 76">
<use xlink:href="#path3_fill" transform="matrix(0.913545 0.406737 -0.406737 0.913545 27671 -3945.54)" fill="#FF4A68"/>
</g>
<g id="Fill 77">
<use xlink:href="#path6_fill" transform="matrix(0.913545 0.406737 -0.406737 0.913545 27669.3 -3926.18)" fill="#FF4A68"/>
</g>
<g id="Fill 78">
<use xlink:href="#path28_fill" transform="matrix(0.913545 0.406737 -0.406737 0.913545 27705.8 -3911.72)" fill="#FF4A68"/>
</g>
<g id="Fill 79">
<use xlink:href="#path33_fill" transform="matrix(0.913545 0.406737 -0.406737 0.913545 27670.4 -3961.94)" fill="#FF4A68"/>
</g>
<g id="Fill 80">
<use xlink:href="#path11_fill" transform="matrix(0.913545 0.406737 -0.406737 0.913545 27703.9 -3953.59)" fill="#FF4A68"/>
</g>
<g id="Fill 81">
<use xlink:href="#path12_fill" transform="matrix(0.913545 0.406737 -0.406737 0.913545 27706 -3954.39)" fill="#FF4A68"/>
</g>
<g id="Fill 82">
<use xlink:href="#path11_fill" transform="matrix(0.913545 0.406737 -0.406737 0.913545 27708.4 -3932.36)" fill="#FF4A68"/>
</g>
<g id="Fill 83">
<use xlink:href="#path12_fill" transform="matrix(0.913545 0.406737 -0.406737 0.913545 27710.5 -3933.17)" fill="#FF4A68"/>
</g>
<g id="Fill 84">
<use xlink:href="#path13_fill" transform="matrix(0.913545 0.406737 -0.406737 0.913545 27688.6 -3953.81)" fill="#FF4A68"/>
</g>
<g id="Fill 85">
<use xlink:href="#path34_fill" transform="matrix(0.913545 0.406737 -0.406737 0.913545 27682.2 -3910.86)" fill="#FF4A68"/>
</g>
<g id="Fill 86">
<use xlink:href="#path35_fill" transform="matrix(0.913545 0.406737 -0.406737 0.913545 27690.8 -3933.2)" fill="#FF4A68"/>
</g>
<g id="Fill 87">
<use xlink:href="#path16_fill" transform="matrix(0.913545 0.406737 -0.406737 0.913545 27681.1 -3974.19)" fill="#FF4A68"/>
</g>
<g id="Fill 88">
<use xlink:href="#path1_fill" transform="matrix(0.913545 0.406737 -0.406737 0.913545 27683.6 -3974.84)" fill="#FF4A68"/>
</g>
<g id="Fill 89">
<use xlink:href="#path36_fill" transform="matrix(0.913545 0.406737 -0.406737 0.913545 27705.7 -3963.67)" fill="#FF4A68"/>
</g>
<g id="Fill 90">
<use xlink:href="#path20_fill" transform="matrix(0.913545 0.406737 -0.406737 0.913545 27700 -3885.93)" fill="#FF4A68"/>
</g>
<g id="Fill 91">
<use xlink:href="#path18_fill" transform="matrix(0.913545 0.406737 -0.406737 0.913545 27634.2 -3868.94)" fill="#FF4A68"/>
</g>
<g id="Fill 92">
<use xlink:href="#path1_fill" transform="matrix(0.913545 0.406737 -0.406737 0.913545 27636.9 -3869.95)" fill="#FF4A68"/>
</g>
<g id="Fill 93">
<use xlink:href="#path2_fill" transform="matrix(0.913545 0.406737 -0.406737 0.913545 27670.9 -3863.94)" fill="#FF4A68"/>
</g>
<g id="Fill 94">
<use xlink:href="#path5_fill" transform="matrix(0.913545 0.406737 -0.406737 0.913545 27672.2 -3864.71)" fill="#FF4A68"/>
</g>
<g id="Fill 95">
<use xlink:href="#path37_fill" transform="matrix(0.913545 0.406737 -0.406737 0.913545 27646.4 -3892.33)" fill="#FF4A68"/>
</g>
<g id="Fill 96">
<use xlink:href="#path38_fill" transform="matrix(0.913545 0.406737 -0.406737 0.913545 27647.5 -3892.73)" fill="#FF4A68"/>
</g>
<g id="Fill 97">
<use xlink:href="#path6_fill" transform="matrix(0.913545 0.406737 -0.406737 0.913545 27646 -3873.74)" fill="#FF4A68"/>
</g>
<g id="Fill 98">
<use xlink:href="#path8_fill" transform="matrix(0.913545 0.406737 -0.406737 0.913545 27682.4 -3859.27)" fill="#FF4A68"/>
</g>
<g id="Fill 99">
<use xlink:href="#path39_fill" transform="matrix(0.913545 0.406737 -0.406737 0.913545 27647 -3909.49)" fill="#FF4A68"/>
</g>
<g id="Fill 100">
<use xlink:href="#path40_fill" transform="matrix(0.913545 0.406737 -0.406737 0.913545 27680.5 -3901.14)" fill="#FF4A68"/>
</g>
<g id="Fill 101">
<use xlink:href="#path24_fill" transform="matrix(0.913545 0.406737 -0.406737 0.913545 27682.6 -3901.95)" fill="#FF4A68"/>
</g>
<g id="Fill 102">
<use xlink:href="#path23_fill" transform="matrix(0.913545 0.406737 -0.406737 0.913545 27685 -3879.92)" fill="#FF4A68"/>
</g>
<g id="Fill 103">
<use xlink:href="#path24_fill" transform="matrix(0.913545 0.406737 -0.406737 0.913545 27687.2 -3880.73)" fill="#FF4A68"/>
</g>
<g id="Fill 104">
<use xlink:href="#path25_fill" transform="matrix(0.913545 0.406737 -0.406737 0.913545 27665.3 -3901.37)" fill="#FF4A68"/>
</g>
<g id="Fill 105">
<use xlink:href="#path41_fill" transform="matrix(0.913545 0.406737 -0.406737 0.913545 27658.9 -3858.41)" fill="#FF4A68"/>
</g>
<g id="Fill 106">
<use xlink:href="#path42_fill" transform="matrix(0.913545 0.406737 -0.406737 0.913545 27667.5 -3880.75)" fill="#FF4A68"/>
</g>
<g id="Fill 107">
<use xlink:href="#path0_fill" transform="matrix(0.913545 0.406737 -0.406737 0.913545 27657.7 -3921.75)" fill="#FF4A68"/>
</g>
<g id="Fill 108">
<use xlink:href="#path1_fill" transform="matrix(0.913545 0.406737 -0.406737 0.913545 27660.2 -3922.39)" fill="#FF4A68"/>
</g>
<g id="Fill 109">
<use xlink:href="#path34_fill" transform="matrix(0.913545 0.406737 -0.406737 0.913545 27682.2 -3910.86)" fill="#FF4A68"/>
</g>
<g id="Fill 110">
<use xlink:href="#path28_fill" transform="matrix(0.913545 0.406737 -0.406737 0.913545 27676.6 -3833.49)" fill="#FF4A68"/>
</g>
<g id="Fill 115">
<use xlink:href="#path43_fill" transform="matrix(0.913545 0.406737 -0.406737 0.913545 27623 -3839.88)" fill="#FF4A68"/>
</g>
<g id="Fill 116">
<use xlink:href="#path3_fill" transform="matrix(0.913545 0.406737 -0.406737 0.913545 27624.1 -3840.28)" fill="#FF4A68"/>
</g>
<g id="Fill 117">
<use xlink:href="#path6_fill" transform="matrix(0.913545 0.406737 -0.406737 0.913545 27622.6 -3821.3)" fill="#FF4A68"/>
</g>
<g id="Fill 119">
<use xlink:href="#path44_fill" transform="matrix(0.913545 0.406737 -0.406737 0.913545 27623.7 -3857.05)" fill="#FF4A68"/>
</g>
<g id="Fill 120">
<use xlink:href="#path45_fill" transform="matrix(0.913545 0.406737 -0.406737 0.913545 27657 -3848.33)" fill="#FF4A68"/>
</g>
<g id="Fill 121">
<use xlink:href="#path46_fill" transform="matrix(0.913545 0.406737 -0.406737 0.913545 27659.3 -3849.51)" fill="#FF4A68"/>
</g>
<g id="Fill 122">
<use xlink:href="#path40_fill" transform="matrix(0.913545 0.406737 -0.406737 0.913545 27661.5 -3827.11)" fill="#FF4A68"/>
</g>
<g id="Fill 123">
<use xlink:href="#path24_fill" transform="matrix(0.913545 0.406737 -0.406737 0.913545 27663.8 -3828.28)" fill="#FF4A68"/>
</g>
<g id="Fill 124">
<use xlink:href="#path31_fill" transform="matrix(0.913545 0.406737 -0.406737 0.913545 27641.9 -3848.92)" fill="#FF4A68"/>
</g>
<g id="Fill 126">
<use xlink:href="#path35_fill" transform="matrix(0.913545 0.406737 -0.406737 0.913545 27644 -3827.95)" fill="#FF4A68"/>
</g>
<g id="Fill 127">
<use xlink:href="#path18_fill" transform="matrix(0.913545 0.406737 -0.406737 0.913545 27634.2 -3868.94)" fill="#FF4A68"/>
</g>
<g id="Fill 128">
<use xlink:href="#path1_fill" transform="matrix(0.913545 0.406737 -0.406737 0.913545 27636.9 -3869.95)" fill="#FF4A68"/>
</g>
<g id="Fill 129">
<use xlink:href="#path41_fill" transform="matrix(0.913545 0.406737 -0.406737 0.913545 27658.9 -3858.41)" fill="#FF4A68"/>
</g>
<g id="Fill 130">
<use xlink:href="#path33_fill" transform="matrix(0.913545 0.406737 -0.406737 0.913545 27670.4 -3961.94)" fill="#FF4A68"/>
</g>
<g id="Fill 133">
<use xlink:href="#path2_fill" transform="matrix(0.913545 0.406737 -0.406737 0.913545 27641.7 -3939.79)" fill="#FF4A68"/>
</g>
<g id="Fill 134">
<use xlink:href="#path5_fill" transform="matrix(0.913545 0.406737 -0.406737 0.913545 27642.9 -3940.56)" fill="#FF4A68"/>
</g>
<g id="Fill 135">
<use xlink:href="#path4_fill" transform="matrix(0.913545 0.406737 -0.406737 0.913545 27617.2 -3968.17)" fill="#FF4A68"/>
</g>
<g id="Fill 136">
<use xlink:href="#path3_fill" transform="matrix(0.913545 0.406737 -0.406737 0.913545 27618.4 -3968.94)" fill="#FF4A68"/>
</g>
<g id="Fill 138">
<use xlink:href="#path44_fill" transform="matrix(0.913545 0.406737 -0.406737 0.913545 27653.2 -3935.12)" fill="#FF4A68"/>
</g>
<g id="Fill 140">
<use xlink:href="#path11_fill" transform="matrix(0.913545 0.406737 -0.406737 0.913545 27650.9 -3977.15)" fill="#FF4A68"/>
</g>
<g id="Fill 141">
<use xlink:href="#path12_fill" transform="matrix(0.913545 0.406737 -0.406737 0.913545 27653.4 -3977.8)" fill="#FF4A68"/>
</g>
<g id="Fill 142">
<use xlink:href="#path11_fill" transform="matrix(0.913545 0.406737 -0.406737 0.913545 27655.5 -3955.93)" fill="#FF4A68"/>
</g>
<g id="Fill 143">
<use xlink:href="#path47_fill" transform="matrix(0.913545 0.406737 -0.406737 0.913545 27657.9 -3956.57)" fill="#FF4A68"/>
</g>
<g id="Fill 144">
<use xlink:href="#path14_fill" transform="matrix(0.913545 0.406737 -0.406737 0.913545 27635.7 -3977.38)" fill="#FF4A68"/>
</g>
<g id="Fill 145">
<use xlink:href="#path13_fill" transform="matrix(0.913545 0.406737 -0.406737 0.913545 27629.6 -3934.26)" fill="#FF4A68"/>
</g>
<g id="Fill 146">
<use xlink:href="#path48_fill" transform="matrix(0.913545 0.406737 -0.406737 0.913545 27638.3 -3956.6)" fill="#FF4A68"/>
</g>
<g id="Fill 147">
<use xlink:href="#path16_fill" transform="matrix(0.913545 0.406737 -0.406737 0.913545 27628.5 -3997.59)" fill="#FF4A68"/>
</g>
<g id="Fill 148">
<use xlink:href="#path1_fill" transform="matrix(0.913545 0.406737 -0.406737 0.913545 27630.6 -3998.4)" fill="#FF4A68"/>
</g>
<g id="Fill 149">
<use xlink:href="#path25_fill" transform="matrix(0.913545 0.406737 -0.406737 0.913545 27653.2 -3987.07)" fill="#FF4A68"/>
</g>
<g id="Fill 150">
<use xlink:href="#path39_fill" transform="matrix(0.913545 0.406737 -0.406737 0.913545 27647 -3909.49)" fill="#FF4A68"/>
</g>
<g id="Fill 153">
<use xlink:href="#path2_fill" transform="matrix(0.913545 0.406737 -0.406737 0.913545 27618.4 -3887.35)" fill="#FF4A68"/>
</g>
<g id="Fill 154">
<use xlink:href="#path5_fill" transform="matrix(0.913545 0.406737 -0.406737 0.913545 27619.6 -3888.11)" fill="#FF4A68"/>
</g>
<g id="Fill 158">
<use xlink:href="#path33_fill" transform="matrix(0.913545 0.406737 -0.406737 0.913545 27629.9 -3882.67)" fill="#FF4A68"/>
</g>
<g id="Fill 160">
<use xlink:href="#path40_fill" transform="matrix(0.913545 0.406737 -0.406737 0.913545 27627.6 -3924.71)" fill="#FF4A68"/>
</g>
<g id="Fill 161">
<use xlink:href="#path24_fill" transform="matrix(0.913545 0.406737 -0.406737 0.913545 27630.1 -3925.35)" fill="#FF4A68"/>
</g>
<g id="Fill 162">
<use xlink:href="#path23_fill" transform="matrix(0.913545 0.406737 -0.406737 0.913545 27632.1 -3903.48)" fill="#FF4A68"/>
</g>
<g id="Fill 163">
<use xlink:href="#path49_fill" transform="matrix(0.913545 0.406737 -0.406737 0.913545 27634.6 -3904.13)" fill="#FF4A68"/>
</g>
<g id="Fill 169">
<use xlink:href="#path13_fill" transform="matrix(0.913545 0.406737 -0.406737 0.913545 27629.6 -3934.26)" fill="#FF4A68"/>
</g>
<g id="Fill 170">
<use xlink:href="#path44_fill" transform="matrix(0.913545 0.406737 -0.406737 0.913545 27623.7 -3857.05)" fill="#FF4A68"/>
</g>
</g>
</g>
<defs>
<path id="path0_fill" fill-rule="evenodd" d="M 0 1.63041L 0.371182 0L 6.39269 1.5589L 6.02151 3.18931L 0 1.63041Z"/>
<path id="path1_fill" fill-rule="evenodd" d="M 0 6.00826L 1.63401 6.37862L 3.19635 0.370364L 1.56234 0L 0 6.00826Z"/>
<path id="path2_fill" fill-rule="evenodd" d="M 0.742036 4.3853L 0 2.94165L 5.65066 0L 6.39269 1.44365L 0.742036 4.3853Z"/>
<path id="path3_fill" fill-rule="evenodd" d="M 2.94801 6.37862L 4.39498 5.63826L 1.44696 0L 0 0.740738L 2.94801 6.37862Z"/>
<path id="path4_fill" fill-rule="evenodd" d="M 0.742036 4.3853L 0 2.94191L 5.65066 0L 6.39269 1.44378L 0.742036 4.3853Z"/>
<path id="path5_fill" fill-rule="evenodd" d="M 2.94814 6.37862L 4.39498 5.63826L 1.44722 0L 0 0.740738L 2.94814 6.37862Z"/>
<path id="path6_fill" fill-rule="evenodd" d="M 0 1.59465L 4.79452 1.59465L 4.79452 0L 0 0L 0 1.59465Z"/>
<path id="path7_fill" fill-rule="evenodd" d="M 1.99772 4.56003L 1.31975 0L 0 0.2243L 0.677969 4.78396L 1.99772 4.56003Z"/>
<path id="path8_fill" fill-rule="evenodd" d="M 1.99772 4.56002L 1.32009 0L 0 0.224317L 0.677969 4.78396L 1.99772 4.56002Z"/>
<path id="path9_fill" fill-rule="evenodd" d="M 6.06537 0L 6.39269 1.51951L 0.327327 2.79065L 0 1.27114L 6.06537 0Z"/>
<path id="path10_fill" fill-rule="evenodd" d="M 1.52303 0L 0 0.326255L 1.27377 6.37862L 2.7968 6.05236L 1.52303 0Z"/>
<path id="path11_fill" fill-rule="evenodd" d="M 6.06572 0L 6.39269 1.51951L 0.326975 2.79065L 0 1.27114L 6.06572 0Z"/>
<path id="path12_fill" fill-rule="evenodd" d="M 1.52303 0L 0 0.326255L 1.27414 6.37862L 2.7968 6.05236L 1.52303 0Z"/>
<path id="path13_fill" fill-rule="evenodd" d="M 0 1.07118L 3.39152 4.3853L 4.39498 3.31412L 1.00383 0L 0 1.07118Z"/>
<path id="path14_fill" fill-rule="evenodd" d="M 0 1.07118L 3.39115 4.3853L 4.39498 3.31412L 1.00345 0L 0 1.07118Z"/>
<path id="path15_fill" fill-rule="evenodd" d="M 0 1.553L 4.78231 1.59465L 4.79452 0.0420595L 0.0122085 0L 0 1.553Z"/>
<path id="path16_fill" fill-rule="evenodd" d="M 0 1.63061L 0.371182 0L 6.39269 1.5587L 6.02151 3.18931L 0 1.63061Z"/>
<path id="path17_fill" fill-rule="evenodd" d="M 0 1.07147L 3.39115 4.3853L 4.39498 3.31383L 1.00345 0L 0 1.07147Z"/>
<path id="path18_fill" fill-rule="evenodd" d="M 0 1.6308L 0.371182 0L 6.39269 1.5589L 6.02151 3.18931L 0 1.6308Z"/>
<path id="path19_fill" fill-rule="evenodd" d="M 2.94814 6.37862L 4.39498 5.63826L 1.44722 0L 0 0.741117L 2.94814 6.37862Z"/>
<path id="path20_fill" fill-rule="evenodd" d="M 1.99772 4.56038L 1.32009 0L 0 0.224317L 0.677969 4.78396L 1.99772 4.56038Z"/>
<path id="path21_fill" fill-rule="evenodd" d="M 6.06537 0L 6.39269 1.51931L 0.327327 2.79065L 0 1.27133L 6.06537 0Z"/>
<path id="path22_fill" fill-rule="evenodd" d="M 1.52303 0L 0 0.326606L 1.27377 6.37862L 2.7968 6.05201L 1.52303 0Z"/>
<path id="path23_fill" fill-rule="evenodd" d="M 6.06572 0L 6.39269 1.51931L 0.326975 2.79065L 0 1.27097L 6.06572 0Z"/>
<path id="path24_fill" fill-rule="evenodd" d="M 1.52303 0L 0 0.326606L 1.27414 6.37862L 2.7968 6.05201L 1.52303 0Z"/>
<path id="path25_fill" fill-rule="evenodd" d="M 0 1.07147L 3.39152 4.3853L 4.39498 3.31383L 1.00383 0L 0 1.07147Z"/>
<path id="path26_fill" fill-rule="evenodd" d="M 0 1.07109L 3.39115 4.3853L 4.39498 3.31383L 1.00345 0L 0 1.07109Z"/>
<path id="path27_fill" fill-rule="evenodd" d="M 0 1.553L 4.78231 1.59465L 4.79452 0.04246L 0.0122085 0L 0 1.553Z"/>
<path id="path28_fill" fill-rule="evenodd" d="M 1.99772 4.56003L 1.32009 0L 0 0.2243L 0.677969 4.78396L 1.99772 4.56003Z"/>
<path id="path29_fill" fill-rule="evenodd" d="M 6.06537 0L 6.39269 1.51968L 0.327327 2.79065L 0 1.27133L 6.06537 0Z"/>
<path id="path30_fill" fill-rule="evenodd" d="M 1.52303 0L 0 0.326606L 1.27377 6.37862L 2.7968 6.05238L 1.52303 0Z"/>
<path id="path31_fill" fill-rule="evenodd" d="M 0 1.07147L 3.39152 4.3853L 4.39498 3.31421L 1.00383 0L 0 1.07147Z"/>
<path id="path32_fill" fill-rule="evenodd" d="M 0.742372 4.3853L 0 2.94191L 5.6507 0L 6.39269 1.44378L 0.742372 4.3853Z"/>
<path id="path33_fill" fill-rule="evenodd" d="M 1.99772 4.56002L 1.31998 0L 0 0.224317L 0.677741 4.78396L 1.99772 4.56002Z"/>
<path id="path34_fill" fill-rule="evenodd" d="M 0 1.07118L 3.39115 4.3853L 4.39498 3.31412L 1.00383 0L 0 1.07118Z"/>
<path id="path35_fill" fill-rule="evenodd" d="M 0 1.553L 4.78231 1.59465L 4.79452 0.0420595L 0.0125901 0L 0 1.553Z"/>
<path id="path36_fill" fill-rule="evenodd" d="M 0 1.07147L 3.39115 4.3853L 4.39498 3.31383L 1.00383 0L 0 1.07147Z"/>
<path id="path37_fill" fill-rule="evenodd" d="M 0.742372 4.3853L 0 2.94165L 5.6507 0L 6.39269 1.44365L 0.742372 4.3853Z"/>
<path id="path38_fill" fill-rule="evenodd" d="M 2.94801 6.37862L 4.39498 5.63826L 1.44696 0L 0 0.741117L 2.94801 6.37862Z"/>
<path id="path39_fill" fill-rule="evenodd" d="M 1.99772 4.56038L 1.31998 0L 0 0.224317L 0.677741 4.78396L 1.99772 4.56038Z"/>
<path id="path40_fill" fill-rule="evenodd" d="M 6.06572 0L 6.39269 1.51931L 0.326975 2.79065L 0 1.27133L 6.06572 0Z"/>
<path id="path41_fill" fill-rule="evenodd" d="M 0 1.07109L 3.39115 4.3853L 4.39498 3.31383L 1.00383 0L 0 1.07109Z"/>
<path id="path42_fill" fill-rule="evenodd" d="M 0 1.553L 4.78231 1.59465L 4.79452 0.04246L 0.0125901 0L 0 1.553Z"/>
<path id="path43_fill" fill-rule="evenodd" d="M 0.742372 4.3853L 0 2.94152L 5.6507 0L 6.39269 1.44339L 0.742372 4.3853Z"/>
<path id="path44_fill" fill-rule="evenodd" d="M 1.99772 4.56003L 1.31998 0L 0 0.2243L 0.677741 4.78396L 1.99772 4.56003Z"/>
<path id="path45_fill" fill-rule="evenodd" d="M 6.06572 0L 6.39269 1.51968L 0.326975 2.79065L 0 1.27133L 6.06572 0Z"/>
<path id="path46_fill" fill-rule="evenodd" d="M 1.52303 0L 0 0.326606L 1.27414 6.37862L 2.7968 6.05238L 1.52303 0Z"/>
<path id="path47_fill" fill-rule="evenodd" d="M 1.52286 0L 0 0.326255L 1.27394 6.37862L 2.7968 6.05236L 1.52286 0Z"/>
<path id="path48_fill" fill-rule="evenodd" d="M 0 1.553L 4.78193 1.59465L 4.79452 0.0420595L 0.012589 0L 0 1.553Z"/>
<path id="path49_fill" fill-rule="evenodd" d="M 1.52286 0L 0 0.326606L 1.27394 6.37862L 2.7968 6.05201L 1.52286 0Z"/>
</defs>
</svg>
