<svg width="251" height="31" viewBox="0 0 251 31" version="1.1" xmlns="http://www.w3.org/2000/svg" xmlns:xlink="http://www.w3.org/1999/xlink">
<title>&#60;Group&#62;</title>
<desc>Created using Figma</desc>
<g id="Canvas" transform="translate(-19534 -5821)">
<g id="&#60;Group&#62;">
<g id="&#60;Path&#62;">
<use xlink:href="#path0_fill" transform="translate(19534 5821)" fill="#FFFFFF"/>
</g>
<g id="&#60;Path&#62;">
<use xlink:href="#path1_fill" transform="translate(19549.2 5828.45)" fill="#FFFFFF"/>
</g>
<g id="&#60;Compound Path&#62;">
<use xlink:href="#path2_fill" transform="translate(19560.1 5828.81)" fill="#FFFFFF"/>
</g>
<g id="&#60;Compound Path&#62;">
<use xlink:href="#path3_fill" transform="translate(19575.3 5828.44)" fill="#FFFFFF"/>
</g>
<g id="&#60;Path&#62;">
<use xlink:href="#path4_fill" transform="translate(19587.5 5828.82)" fill="#FFFFFF"/>
</g>
<g id="&#60;Compound Path&#62;">
<use xlink:href="#path5_fill" transform="translate(19599 5828.44)" fill="#FFFFFF"/>
</g>
<g id="&#60;Path&#62;">
<use xlink:href="#path6_fill" transform="translate(19610.5 5828.81)" fill="#FFFFFF"/>
</g>
<g id="&#60;Compound Path&#62;">
<use xlink:href="#path7_fill" transform="translate(19625.5 5828.81)" fill="#FFFFFF"/>
</g>
<g id="&#60;Path&#62;">
<use xlink:href="#path8_fill" transform="translate(19636.8 5828.44)" fill="#FFFFFF"/>
</g>
<g id="&#60;Path&#62;">
<use xlink:href="#path9_fill" transform="translate(19648.6 5828.82)" fill="#FFFFFF"/>
</g>
<g id="&#60;Compound Path&#62;">
<use xlink:href="#path10_fill" transform="translate(19661.5 5828.81)" fill="#FFFFFF"/>
</g>
<g id="&#60;Compound Path&#62;">
<use xlink:href="#path11_fill" transform="translate(19673.5 5828.44)" fill="#FFFFFF"/>
</g>
<g id="&#60;Compound Path&#62;">
<use xlink:href="#path12_fill" transform="translate(19692.7 5821)" fill="#FFFFFF"/>
</g>
<g id="&#60;Path&#62;">
<use xlink:href="#path13_fill" transform="translate(19749.8 5828.82)" fill="#FFFFFF"/>
</g>
<g id="&#60;Compound Path&#62;">
<use xlink:href="#path14_fill" transform="translate(19736.1 5828.55)" fill="#FFFFFF"/>
</g>
<g id="&#60;Path&#62;">
<use xlink:href="#path15_fill" transform="translate(19761.2 5828.57)" fill="#FFFFFF"/>
</g>
<g id="&#60;Path&#62;">
<use xlink:href="#path16_fill" transform="translate(19709.5 5828.82)" fill="#FFFFFF"/>
</g>
<g id="&#60;Compound Path&#62;">
<use xlink:href="#path17_fill" transform="translate(19721.2 5828.81)" fill="#FFFFFF"/>
</g>
<g id="&#60;Compound Path&#62;">
<use xlink:href="#path18_fill" transform="translate(19773.1 5828.55)" fill="#FFFFFF"/>
</g>
</g>
</g>
<defs>
<path id="path0_fill" d="M 2.85 19.78C 2.45804 20.7595 2.12413 21.7612 1.85 22.78L 1.66 22.78C 1.73 22.04 1.81 20.89 1.81 19.56L 1.81 1.14441e-07L -1.52588e-07 1.14441e-07L -1.52588e-07 26.48L 1.81 26.48L 9.55 6.7C 9.95076 5.76133 10.2849 4.79561 10.55 3.81L 10.7 3.81C 10.63 4.59 10.55 5.74 10.55 6.88L 10.55 26.48L 12.34 26.48L 12.34 1.14441e-07L 10.59 1.14441e-07L 2.85 19.78Z"/>
<path id="path1_fill" d="M 6.33 9.07247C 7.19735 8.69768 7.93094 8.06913 8.43428 7.2695C 8.93762 6.46987 9.18713 5.53661 9.15 4.59247C 9.15 1.85247 7.59 0.00247496 4.67 0.00247496C 3.86267 -0.0227839 3.06102 0.145598 2.33207 0.493543C 1.60313 0.841488 0.968073 1.35888 0.48 2.00248L 0.88 3.67248C 1.28087 3.03946 1.83219 2.51551 2.48476 2.14734C 3.13734 1.77918 3.8709 1.57825 4.62 1.56247C 6.44 1.56247 7.44 2.78247 7.44 4.67247C 7.44 7.23247 5.92 8.52248 3.77 8.52248L 2.4 8.52248L 2.4 9.93247L 3.96 9.93247C 6.74 9.93247 7.89 11.5225 7.89 13.8625C 7.89 16.5625 6.33 17.9325 4.41 17.9325C 3.65987 17.9281 2.92168 17.7443 2.25711 17.3964C 1.59255 17.0484 1.02092 16.5465 0.590001 15.9325L 3.8147e-07 17.3725C 0.533899 18.035 1.21274 18.5662 1.98424 18.9251C 2.75574 19.2839 3.59931 19.461 4.45 19.4425C 7.3 19.4425 9.67 17.4425 9.67 13.8125C 9.71306 12.7648 9.40901 11.7323 8.80506 10.8752C 8.2011 10.0181 7.33105 9.38438 6.33 9.07247Z"/>
<path id="path2_fill" d="M 11.64 5.34058e-07L 3.56 5.34058e-07C 3.56 5.34058e-07 3.49 6 3 10.56C 2.63 14.08 1.93 16.63 0.779998 17.26L -4.57764e-07 17.26L -4.57764e-07 22.31L 1.37 22.31L 1.59 18.64L 11.75 18.64L 11.97 22.31L 13.34 22.31L 13.34 17.31L 11.64 17.31L 11.64 5.34058e-07ZM 9.86 17.31L 2.75 17.31C 3.75 16.2 4.19 14.12 4.53 11.01C 5.01 6.68 5.12 1.45 5.12 1.45L 9.86 1.45L 9.86 17.31Z"/>
<path id="path3_fill" d="M 9.93 5.41472C 9.93 1.71472 8.19 0.00472493 5.11 0.00472493C 4.28045 -0.0294959 3.45377 0.122501 2.69064 0.449555C 1.92752 0.776609 1.24732 1.27042 0.7 1.89472L 1.18 3.56472C 1.62153 2.93536 2.21071 2.42391 2.89589 2.07522C 3.58107 1.72653 4.34132 1.55124 5.11 1.56472C 7.11 1.56472 8.22 2.78473 8.22 5.63473L 8.22 7.96473L 6.22 7.96473C 2.22 7.96473 -9.15527e-07 10.0347 -9.15527e-07 14.0447C -9.15527e-07 17.4547 1.74 19.4547 4.26 19.4547C 5.14723 19.4259 6.00633 19.1365 6.73012 18.6225C 7.45391 18.1086 8.01035 17.3929 8.33 16.5647C 8.37959 17.4188 8.52723 18.2644 8.77 19.0847L 10.36 19.0847C 10.078 17.9601 9.94023 16.8041 9.95 15.6447L 9.93 5.41472ZM 8.23 14.3447C 7.56 16.3447 6.34 18.0147 4.6 18.0147C 2.86 18.0147 1.67 16.4947 1.67 13.8647C 1.67 10.6047 3.15 9.19473 6.23 9.19473L 8.23 9.19473L 8.23 14.3447Z"/>
<path id="path4_fill" d="M 3.05176e-07 1.44L 4.34 1.44L 4.34 18.66L 6.08 18.66L 6.08 1.44L 10.38 1.44L 10.38 7.62939e-07L 3.05176e-07 7.62939e-07L 3.05176e-07 1.44Z"/>
<path id="path5_fill" d="M 5.45 -3.05176e-07C 2.3 -3.05176e-07 3.66211e-06 3.59 3.66211e-06 9.71C 3.66211e-06 15.83 1.82 19.42 5.78 19.42C 6.62266 19.4344 7.45695 19.2511 8.21589 18.8846C 8.97483 18.5182 9.63726 17.9789 10.15 17.31L 9.59 15.9C 9.1596 16.5051 8.5936 17.0011 7.93725 17.3484C 7.2809 17.6957 6.5524 17.8846 5.81 17.9C 3.11 17.9 1.81 15.12 1.7 10.01L 10.15 10.01C 10.75 3.38 8.68 -3.05176e-07 5.45 -3.05176e-07ZM 8.53 8.68L 1.75 8.68C 1.9 4.01 3.49 1.49 5.45 1.49C 7.41 1.49 8.82 3.68 8.53 8.68Z"/>
<path id="path6_fill" d="M 2.93 12.01C 2.67 15.38 1.93 17.2 0.82 17.2C 0.541987 17.2209 0.262679 17.1834 3.05176e-07 17.09L 0.150002 18.65C 0.384907 18.7465 0.636047 18.7974 0.89 18.8C 3.33 18.8 4 16.43 4.45 12.21C 4.75 9.28 4.97 1.39 4.97 1.39L 9.49 1.39L 9.49 18.69L 11.23 18.69L 11.23 5.34058e-07L 3.45 5.34058e-07C 3.45 5.34058e-07 3.15 9.01 2.93 12.01Z"/>
<path id="path7_fill" d="M 3.11 6.93L 1.74 6.93L 1.74 5.34058e-07L 2.44141e-06 5.34058e-07L 2.44141e-06 18.67L 3 18.67C 6.52 18.67 9 16.67 9 12.74C 9 8.81 6.67 6.93 3.11 6.93ZM 2.81 17.31L 1.7 17.31L 1.7 8.31L 3 8.31C 5.67 8.31 7.22 9.64 7.22 12.79C 7.22 15.94 5.48 17.31 2.81 17.31Z"/>
<path id="path8_fill" d="M 5.9 17.8974C 3.01 17.8974 1.71 14.8974 1.71 9.74743C 1.71 4.59743 3.04 1.48743 5.9 1.48743C 6.63045 1.51399 7.34306 1.72047 7.97455 2.08855C 8.60605 2.45664 9.1369 2.97493 9.52 3.59743L 10 1.74743C 9.50068 1.16445 8.87383 0.704265 8.16803 0.402525C 7.46224 0.100785 6.69645 -0.0344046 5.93 0.00743309C 2.11 0.00743309 3.35693e-06 3.59743 3.35693e-06 9.74743C 3.35693e-06 15.8974 2.15 19.4174 5.89 19.4174C 6.71906 19.435 7.54056 19.2567 8.28774 18.8971C 9.03491 18.5374 9.68666 18.0064 10.19 17.3474L 9.63 15.9074C 9.20633 16.5068 8.64844 16.9989 8.00082 17.3444C 7.3532 17.69 6.63379 17.8793 5.9 17.8974Z"/>
<path id="path9_fill" d="M -3.35693e-06 1.44L 4.33 1.44L 4.33 18.66L 6.07 18.66L 6.07 1.44L 10.37 1.44L 10.37 7.62939e-07L -3.35693e-06 7.62939e-07L -3.35693e-06 1.44Z"/>
<path id="path10_fill" d="M 6.37001 8.78C 7.1929 8.4261 7.88682 7.82732 8.35739 7.06511C 8.82796 6.3029 9.05233 5.41424 9 4.52C 9 1.52 7.22001 5.34058e-07 3.93 5.34058e-07L -3.05176e-06 5.34058e-07L -3.05176e-06 18.67L 4 18.67C 7.52 18.67 9.85 16.97 9.85 13.3C 9.91604 12.2528 9.5996 11.2173 8.95952 10.3859C 8.31943 9.55457 7.39925 8.98389 6.37001 8.78ZM 1.69999 1.37L 3.8 1.37C 5.95 1.37 7.28 2.22 7.28 4.59C 7.28 7.18 5.84 8.29 3.8 8.29L 1.69999 8.29L 1.69999 1.37ZM 4 17.37L 1.69999 17.37L 1.69999 9.6L 3.96 9.6C 6.66 9.6 8.11 10.71 8.11 13.41C 8.11 16.31 6.4 17.31 3.99 17.31L 4 17.37Z"/>
<path id="path11_fill" d="M 5.69999 -3.05176e-07C 2.47999 -3.05176e-07 -3.05176e-06 3.59 -3.05176e-06 9.82C -3.05176e-06 16.05 2.47999 19.41 5.69999 19.41C 8.91999 19.41 11.4 15.78 11.4 9.59C 11.4 3.19 8.91999 -3.05176e-07 5.69999 -3.05176e-07ZM 5.69999 18C 3.50999 18 1.69999 15.52 1.69999 9.7C 1.69999 3.88 3.47999 1.44 5.69999 1.44C 7.91999 1.44 9.69999 3.85 9.69999 9.7C 9.65999 15.34 7.88999 18.01 5.69999 18.01L 5.69999 18Z"/>
<path id="path12_fill" d="M 1.11001 8.33C 1.11001 12.33 2.67001 14.44 5.00001 15.63L 6.10352e-06 26.48L 3.29999 26.48L 7.82 16.33L 10.19 16.33L 10.19 26.48L 13.04 26.48L 13.04 1.14441e-07L 8.78 1.14441e-07C 4.65 1.14441e-07 1.11001 2.78 1.11001 8.33ZM 10.22 13.96L 8.7 13.96C 6.22 13.96 4.18 12.59 4.18 8.33C 4.18 4.07 6.4 2.4 8.7 2.4L 10.22 2.4L 10.22 13.96Z"/>
<path id="path13_fill" d="M 10.3 7.62939e-07L 7.38 7.62939e-07L 2.89 8.62L 2.89 7.62939e-07L 0 7.62939e-07L 0 18.66L 2.89 18.66L 2.89 9.37L 7.82001 18.66L 10.97 18.66L 5.67 8.77L 10.3 7.62939e-07Z"/>
<path id="path14_fill" d="M 6.48001 16.71C 4.18001 16.71 2.99999 14.49 2.99999 10.26L 10.78 10.26L 10.78 8.67C 10.78 2.34 8.78 3.05176e-07 5.63 3.05176e-07C 1.63 3.05176e-07 -5.49316e-06 4.37 -5.49316e-06 10.37C -5.49316e-06 16.11 2.37 19.19 6.22 19.19C 7.87763 19.2155 9.49521 18.6798 10.81 17.67L 10.14 15.45C 9.07716 16.2337 7.8 16.6733 6.48001 16.71ZM 5.63 2.37C 7.3 2.37 7.82 4.7 7.82 7.89L 3.04 7.89C 3.24 4.57 3.85 2.38 5.63 2.38L 5.63 2.37Z"/>
<path id="path15_fill" d="M 6.47001 16.7722C 4.14001 16.7722 3.03 14.1022 3.03 9.44217C 3.03 4.78217 4.51 2.44217 6.59 2.44217C 7.73306 2.50667 8.81822 2.96618 9.65999 3.74217L 10.07 1.00217C 9.05554 0.318534 7.85285 -0.0310859 6.63 0.00217137C 2.26 0.00217137 6.10352e-06 3.74217 6.10352e-06 9.59217C 6.10352e-06 15.9622 2.40999 19.1822 6.40999 19.1822C 7.8383 19.221 9.22826 18.7171 10.3 17.7722L 9.63 15.6222C 8.75357 16.3805 7.6288 16.7898 6.47001 16.7722Z"/>
<path id="path16_fill" d="M 7.18 7.92L 2.89 7.92L 2.89 7.62939e-07L 4.88281e-06 7.62939e-07L 4.88281e-06 18.66L 2.89 18.66L 2.89 10.29L 7.18 10.29L 7.18 18.66L 10.04 18.66L 10.04 7.62939e-07L 7.18 7.62939e-07L 7.18 7.92Z"/>
<path id="path17_fill" d="M 11.71 5.34058e-07L 3.04 5.34058e-07L 3.04 1.59C 3.04 6.59 2.85 12.33 1.15 16.3L 1.83105e-06 16.3L 1.83105e-06 22.3L 2.59 22.3L 2.59 18.67L 10.59 18.67L 10.59 22.31L 13.17 22.31L 13.17 16.31L 11.69 16.31L 11.71 5.34058e-07ZM 8.86 16.31L 3.86 16.31C 5.42 12.31 5.59999 6.6 5.59999 2.68L 5.59999 2.31L 8.81999 2.31L 8.86 16.31Z"/>
<path id="path18_fill" d="M 10.52 14.71L 10.52 5.93C 10.52 1.41 8.71001 3.05176e-07 5.41001 3.05176e-07C 3.80922 0.00215432 2.25193 0.52125 0.970004 1.48L 1.53 4.04C 2.52273 3.06281 3.83893 2.48297 5.23 2.41C 6.86 2.41 7.67 3.41 7.67 5.89L 7.67 7L 7.26 7C 2.04 7 3.05176e-06 9.52 3.05176e-06 13.52C 3.05176e-06 17.19 1.82 19.19 4.48 19.19C 5.15823 19.2073 5.83031 19.0577 6.43714 18.7543C 7.04396 18.4509 7.56691 18.003 7.95999 17.45L 8.2 17.45C 8.24465 17.9498 8.33162 18.4449 8.45999 18.93L 10.9 18.93C 10.6625 17.5355 10.5354 16.1245 10.52 14.71ZM 7.67 15.27C 7.40315 15.6931 7.04055 16.0475 6.61148 16.3045C 6.18242 16.5616 5.69891 16.7142 5.2 16.75C 3.72 16.75 3.01 15.34 3.01 13.19C 3.01 10.78 3.78999 9.19 7.37999 9.19L 7.70999 9.19L 7.67 15.27Z"/>
</defs>
</svg>
