<svg width="120" height="15" viewBox="0 0 120 15" version="1.1" xmlns="http://www.w3.org/2000/svg" xmlns:xlink="http://www.w3.org/1999/xlink">
<title>Ya_logo</title>
<desc>Created using Figma</desc>
<g id="Canvas" transform="translate(-27804 4464)">
<g id="Ya_logo">
<g id="yandex_press_logo_rgb-01">
<g id="_Path_">
<use xlink:href="#path0_fill" transform="translate(27804.3 -4463.59)"/>
</g>
<g id="_Path_2">
<use xlink:href="#path1_fill" transform="translate(27811.6 -4460.16)"/>
</g>
<g id="_Compound_Path_">
<use xlink:href="#path2_fill" transform="translate(27816.8 -4460)"/>
</g>
<g id="_Compound_Path_2">
<use xlink:href="#path3_fill" transform="translate(27824.1 -4460.17)"/>
</g>
<g id="_Path_3">
<use xlink:href="#path4_fill" transform="translate(27829.9 -4459.99)"/>
</g>
<g id="_Compound_Path_3">
<use xlink:href="#path5_fill" transform="translate(27835.4 -4460.17)"/>
</g>
<g id="_Path_4">
<use xlink:href="#path6_fill" transform="translate(27840.9 -4460)"/>
</g>
<g id="_Compound_Path_4">
<use xlink:href="#path7_fill" transform="translate(27848.1 -4460)"/>
</g>
<g id="_Path_5">
<use xlink:href="#path8_fill" transform="translate(27853.5 -4460.16)"/>
</g>
<g id="_Path_6">
<use xlink:href="#path9_fill" transform="translate(27859.1 -4459.99)"/>
</g>
<g id="_Compound_Path_5">
<use xlink:href="#path10_fill" transform="translate(27865.3 -4460)"/>
</g>
<g id="_Compound_Path_6">
<use xlink:href="#path11_fill" transform="translate(27871 -4460.17)"/>
</g>
<g id="_Compound_Path_7">
<use xlink:href="#path12_fill" transform="translate(27880.2 -4463.59)" fill="#FF0000"/>
</g>
<g id="_Path_7">
<use xlink:href="#path13_fill" transform="translate(27907.5 -4459.99)"/>
</g>
<g id="_Compound_Path_8">
<use xlink:href="#path14_fill" transform="translate(27900.9 -4460.11)"/>
</g>
<g id="_Path_8">
<use xlink:href="#path15_fill" transform="translate(27912.9 -4460.11)"/>
</g>
<g id="_Path_9">
<use xlink:href="#path16_fill" transform="translate(27888.2 -4459.99)"/>
</g>
<g id="_Compound_Path_9">
<use xlink:href="#path17_fill" transform="translate(27893.8 -4460)"/>
</g>
<g id="_Compound_Path_10">
<use xlink:href="#path18_fill" transform="translate(27918.6 -4460.11)"/>
</g>
</g>
</g>
</g>
<defs>
<path id="path0_fill" d="M 1.36255 9.11521C 1.17516 9.56659 1.01552 10.0282 0.884462 10.4977L 0.793625 10.4977C 0.827092 10.1567 0.865339 9.62673 0.865339 9.01382L 0.865339 0L 0 0L 0 12.2028L 0.865339 12.2028L 4.56574 3.08756C 4.75734 2.65499 4.91709 2.20996 5.04382 1.75576L 5.11554 1.75576C 5.08207 2.11521 5.04382 2.64516 5.04382 3.17051L 5.04382 12.2028L 5.8996 12.2028L 5.8996 0L 5.06295 0L 1.36255 9.11521Z"/>
<path id="path1_fill" d="M 3.02629 4.18087C 3.87509 3.82733 4.41084 3.00694 4.3745 2.11635C 4.3745 0.853678 3.62869 0.00114334 2.23267 0.00114334C 1.44949 -0.0224753 0.702952 0.321005 0.229482 0.922802L 0.420717 1.69239C 0.809987 1.09989 1.48135 0.7348 2.20877 0.720037C 3.07888 0.720037 3.55697 1.28225 3.55697 2.15322C 3.55697 3.33294 2.83028 3.92741 1.80239 3.92741L 1.14741 3.92741L 1.14741 4.57718L 1.89323 4.57718C 3.22231 4.57718 3.77211 5.3099 3.77211 6.38824C 3.77211 7.63248 3.02629 8.26382 2.10837 8.26382C 1.38069 8.25977 0.700095 7.9163 0.282072 7.34216L 0 8.00575C 0.517316 8.62454 1.30323 8.97692 2.12749 8.95967C 3.49004 8.95967 4.62311 8.03801 4.62311 6.3652C 4.66544 5.37255 4.01033 4.47641 3.02629 4.18087Z"/>
<path id="path2_fill" fill-rule="evenodd" d="M 1.70117 0L 5.56445 0L 5.56445 7.97705L 6.37695 7.97705L 6.37695 10.2812L 5.72266 10.2812L 5.61719 8.58984L 0.759766 8.58984L 0.654297 10.2812L 0 10.2812L 0 7.9541L 0.373047 7.9541C 0.921875 7.66357 1.25781 6.48828 1.43359 4.86621C 1.66797 2.76514 1.70117 0 1.70117 0ZM 1.31445 7.97656L 4.71289 7.97656L 4.71289 0.667969L 2.44727 0.667969C 2.44727 0.667969 2.39453 3.07812 2.16602 5.07373C 2.00195 6.50684 1.79297 7.46533 1.31445 7.97656Z"/>
<path id="path3_fill" fill-rule="evenodd" d="M 2.44336 0.00215427C 3.91602 0.00215427 4.74805 0.79024 4.74805 2.49532L 4.75781 7.20967C 4.75195 7.74385 4.81836 8.27657 4.95312 8.79512L 4.19336 8.79512C 4.07617 8.41719 4.00586 8.02754 3.98242 7.6335C 3.66992 8.41378 2.9043 8.93819 2.03711 8.96553C 0.832031 8.96553 0 8.04366 0 6.47237C 0 4.62471 1.06055 3.67061 2.97461 3.67061L 3.92969 3.67061L 3.92969 2.59688C 3.92969 1.2834 3.39844 0.721393 2.44336 0.721393C 1.69727 0.708697 0.992188 1.05391 0.564453 1.64278L 0.333984 0.873248C 0.865234 0.290728 1.64062 -0.029584 2.44336 0.00215427ZM 2.19922 8.30196C 3.03125 8.30196 3.61523 7.53243 3.93555 6.61055L 3.93555 4.23751L 2.97852 4.23751C 1.50586 4.23751 0.798828 4.88741 0.798828 6.38936C 0.798828 7.60176 1.36719 8.30196 2.19922 8.30196Z"/>
<path id="path4_fill" d="M 0 0.663594L 2.0749 0.663594L 2.0749 8.59908L 2.90677 8.59908L 2.90677 0.663594L 4.96255 0.663594L 4.96255 0L 0 0L 0 0.663594Z"/>
<path id="path5_fill" fill-rule="evenodd" d="M 0 4.47461C 0 1.6543 1.09961 0 2.60547 0C 4.15039 0 5.13867 1.55762 4.85352 4.61279L 0.8125 4.61279C 0.865234 6.96777 1.48633 8.24902 2.77734 8.24902C 3.49805 8.23438 4.16797 7.89258 4.58398 7.32715L 4.85352 7.97705C 4.35547 8.60205 3.58008 8.96289 2.76367 8.94922C 0.871094 8.94922 0 7.29492 0 4.47461ZM 0.835938 4L 4.07812 4C 4.2168 1.6958 3.54102 0.686523 2.60547 0.686523C 1.66797 0.686523 0.908203 1.84766 0.835938 4Z"/>
<path id="path6_fill" d="M 1.4008 5.53456C 1.27649 7.08756 0.922709 7.92627 0.392032 7.92627C 0.259117 7.93589 0.125583 7.91863 0 7.87558L 0.0717131 8.59447C 0.184019 8.63895 0.304086 8.66241 0.425498 8.66359C 1.59203 8.66359 1.91235 7.57143 2.12749 5.62673C 2.27092 4.2765 2.3761 0.640553 2.3761 0.640553L 4.53705 0.640553L 4.53705 8.6129L 5.36892 8.6129L 5.36892 0L 1.6494 0C 1.6494 0 1.50598 4.15207 1.4008 5.53456Z"/>
<path id="path7_fill" fill-rule="evenodd" d="M 0.832031 3.19336L 1.48633 3.19336C 3.18945 3.19336 4.30273 4.06006 4.30273 5.87109C 4.30273 7.68213 3.11719 8.60352 1.43359 8.60352L 0 8.60352L 0 0L 0.832031 0L 0.832031 3.19336ZM 0.8125 7.97705L 1.34375 7.97705C 2.61914 7.97705 3.45117 7.3457 3.45117 5.89404C 3.45117 4.44238 2.71094 3.82959 1.43359 3.82959L 0.8125 3.82959L 0.8125 7.97705Z"/>
<path id="path8_fill" d="M 2.82072 8.24767C 1.43904 8.24767 0.81753 6.86518 0.81753 4.49191C 0.81753 2.11864 1.45339 0.685459 2.82072 0.685459C 3.52997 0.710314 4.17942 1.07519 4.55139 1.65781L 4.78088 0.805275C 4.29702 0.260748 3.57776 -0.0356466 2.83506 0.00343152C 1.00876 0.00343152 0 1.65781 0 4.49191C 0 7.32601 1.02789 8.94813 2.81594 8.94813C 3.61986 8.96458 4.38364 8.61018 4.87171 7.99422L 4.60398 7.33062C 4.19327 7.89072 3.53207 8.23075 2.82072 8.24767Z"/>
<path id="path9_fill" d="M 0 0.663594L 2.07012 0.663594L 2.07012 8.59908L 2.90199 8.59908L 2.90199 0.663594L 4.95777 0.663594L 4.95777 0L 0 0L 0 0.663594Z"/>
<path id="path10_fill" fill-rule="evenodd" d="M 3.04492 4.0459C 3.85156 3.71191 4.35352 2.92725 4.30273 2.08301C 4.30273 0.700684 3.45117 0 1.87891 0L 0 0L 0 8.60352L 1.91211 8.60352C 3.5957 8.60352 4.70898 7.82031 4.70898 6.12891C 4.77539 5.13086 4.0625 4.24023 3.04492 4.0459ZM 0.8125 0.631348L 1.81641 0.631348C 2.84375 0.631348 3.48047 1.02295 3.48047 2.11523C 3.48047 3.30859 2.79102 3.82031 1.81641 3.82031L 0.8125 3.82031L 0.8125 0.631348ZM 0.8125 8.00439L 1.91211 8.00439L 1.9082 7.97705C 3.05859 7.97705 3.87695 7.51611 3.87695 6.17969C 3.87695 4.93555 3.18359 4.42383 1.89258 4.42383L 0.8125 4.42383L 0.8125 8.00439Z"/>
<path id="path11_fill" fill-rule="evenodd" d="M 0 4.52539C 0 1.6543 1.18555 0 2.72461 0C 4.26367 0 5.45117 1.47021 5.45117 4.41943C 5.45117 7.27197 4.26367 8.94482 2.72461 8.94482C 1.18555 8.94482 0 7.39648 0 4.52539ZM 0.8125 4.47021C 0.8125 7.15186 1.67773 8.29492 2.72461 8.29492C 3.77148 8.29932 4.61719 7.06934 4.63672 4.47021C 4.63672 1.77441 3.78711 0.663574 2.72461 0.663574C 1.66406 0.663574 0.8125 1.78809 0.8125 4.47021Z"/>
<path id="path12_fill" fill-rule="evenodd" d="M 2.39062 7.20264C 1.27734 6.6543 0.53125 5.68213 0.53125 3.83887C 0.53125 1.28125 2.22266 0 4.19727 0L 6.23438 0L 6.23438 12.2026L 4.87109 12.2026L 4.87109 7.52539L 3.73828 7.52539L 1.57812 12.2026L 0 12.2026L 2.39062 7.20264ZM 4.1582 6.43311L 4.88477 6.43311L 4.88477 1.10596L 4.1582 1.10596C 3.05859 1.10596 1.99805 1.87549 1.99805 3.83887C 1.99805 5.80176 2.97266 6.43311 4.1582 6.43311Z"/>
<path id="path13_fill" d="M 4.9243 0L 3.52829 0L 1.38167 3.97235L 1.38167 0L 0 0L 0 8.59908L 1.38167 8.59908L 1.38167 4.31797L 3.73865 8.59908L 5.24462 8.59908L 2.71076 4.04147L 4.9243 0Z"/>
<path id="path14_fill" fill-rule="evenodd" d="M 1.43359 4.72803C 1.43359 6.67725 1.99805 7.70068 3.09766 7.70068C 3.72852 7.68359 4.33984 7.48096 4.84766 7.11963L 5.16797 8.14307C 4.53906 8.6084 3.76562 8.85498 2.97461 8.84326C 1.13281 8.84326 0 7.42383 0 4.77881C 0 2.01367 0.779297 0 2.69141 0C 4.19727 0 5.1543 1.07812 5.1543 3.99561L 5.1543 4.72803L 1.43359 4.72803ZM 3.73828 3.63623C 3.73828 2.16602 3.49023 1.09229 2.69141 1.09229C 1.83984 1.09668 1.54883 2.10596 1.45312 3.63623L 3.73828 3.63623Z"/>
<path id="path15_fill" d="M 3.09323 7.72911C 1.97928 7.72911 1.44861 6.4987 1.44861 4.35123C 1.44861 2.20377 2.15618 1.12542 3.1506 1.12542C 3.69708 1.15515 4.21588 1.3669 4.61833 1.7245L 4.81434 0.46183C 4.32934 0.146789 3.75435 -0.0143257 3.16972 0.00100028C 1.08048 0.00100028 0 1.7245 0 4.42036C 0 7.35584 1.15219 8.83971 3.06454 8.83971C 3.7474 8.85758 4.41192 8.62541 4.9243 8.18994L 4.60398 7.19916C 4.18497 7.54859 3.64723 7.73723 3.09323 7.72911Z"/>
<path id="path16_fill" d="M 3.43267 3.64977L 1.38167 3.64977L 1.38167 0L 0 0L 0 8.59908L 1.38167 8.59908L 1.38167 4.74194L 3.43267 4.74194L 3.43267 8.59908L 4.8 8.59908L 4.8 0L 3.43267 0L 3.43267 3.64977Z"/>
<path id="path17_fill" fill-rule="evenodd" d="M 1.45312 0L 5.59766 0L 5.58789 7.51611L 6.29688 7.51611L 6.29688 10.2812L 5.0625 10.2812L 5.0625 8.60352L 1.23828 8.60352L 1.23828 10.2764L 0 10.2764L 0 7.51172L 0.548828 7.51172C 1.36328 5.68213 1.45312 3.03711 1.45312 0.73291L 1.45312 0ZM 1.8457 7.51611L 4.23633 7.51611L 4.2168 1.06445L 2.67773 1.06445L 2.67773 1.23486C 2.67773 3.0415 2.5918 5.67285 1.8457 7.51611Z"/>
<path id="path18_fill" fill-rule="evenodd" d="M 5.0293 2.73291L 5.0293 6.77881C 5.03711 7.43066 5.09766 8.08105 5.21094 8.72363L 4.04492 8.72363C 3.98242 8.5 3.94141 8.27197 3.91992 8.0415L 3.80469 8.0415C 3.42383 8.55908 2.80078 8.85938 2.14258 8.84326C 0.871094 8.84326 0 7.92188 0 6.23047C 0 4.38721 0.974609 3.22559 3.4707 3.22559L 3.66602 3.22559L 3.66602 2.71436C 3.66602 1.57129 3.2793 1.11084 2.5 1.11084C 1.83594 1.14404 1.20703 1.41162 0.732422 1.86182L 0.462891 0.682129C 1.07617 0.240234 1.82031 0.000976562 2.58594 0C 4.16406 0 5.0293 0.649902 5.0293 2.73291ZM 2.48633 7.71875C 2.9707 7.68555 3.4082 7.43213 3.66797 7.03662L 3.68555 4.23486L 3.5293 4.23486C 1.8125 4.23486 1.43945 4.96777 1.43945 6.07812C 1.43945 7.06885 1.7793 7.71875 2.48633 7.71875Z"/>
</defs>
</svg>
