<svg width="246" height="21" viewBox="0 0 246 21" version="1.1" xmlns="http://www.w3.org/2000/svg" xmlns:xlink="http://www.w3.org/1999/xlink">
<title>Group 40</title>
<desc>Created using Figma</desc>
<g id="Canvas" transform="translate(-21557 4453)">
<g id="Group 40">
<g id="&#208;&#152;&#209;&#129;&#209;&#130;&#208;&#190;&#209;&#128;&#208;&#184;&#209;&#143; &#208;&#177;&#209;&#131;&#208;&#180;&#209;&#131;&#209;&#137;&#208;&#181;&#208;&#179;&#208;&#190; Copy">
<g id="Page 1">
<g id="Fill 1">
<use xlink:href="#path0_fill" transform="translate(21610.3 -4442.81)" fill="#FFFFFF"/>
</g>
<g id="Fill 3">
<use xlink:href="#path1_fill" transform="translate(21607.6 -4449.22)" fill="#FFFFFF"/>
</g>
<g id="Fill 5">
<use xlink:href="#path2_fill" transform="translate(21653.5 -4452.96)" fill="#FFFFFF"/>
</g>
<g id="Fill 7">
<use xlink:href="#path3_fill" transform="translate(21735.1 -4448.83)" fill="#FFFFFF"/>
</g>
<g id="Fill 9">
<use xlink:href="#path4_fill" transform="translate(21677.6 -4448.79)" fill="#FFFFFF"/>
</g>
<g id="Fill 11">
<use xlink:href="#path5_fill" transform="translate(21557 -4453)" fill="#FFFFFF"/>
</g>
<g id="Fill 13">
<use xlink:href="#path6_fill" transform="translate(21661.4 -4436.44)" fill="#FFFFFF"/>
</g>
<g id="Fill 15">
<use xlink:href="#path7_fill" transform="translate(21622.3 -4448.79)" fill="#FFFFFF"/>
</g>
<g id="Fill 17">
<use xlink:href="#path8_fill" transform="translate(21645 -4448.83)" fill="#FFFFFF"/>
</g>
<g id="Fill 19">
<use xlink:href="#path8_fill" transform="translate(21645 -4448.83)" fill="#FFFFFF"/>
</g>
<g id="Fill 21">
<use xlink:href="#path9_fill" transform="translate(21584.4 -4448.83)" fill="#FFFFFF"/>
</g>
<g id="Fill 23">
<use xlink:href="#path10_fill" transform="translate(21593.1 -4449.14)" fill="#FFFFFF"/>
</g>
<g id="Fill 25">
<use xlink:href="#path11_fill" transform="translate(21743.5 -4449.14)" fill="#FFFFFF"/>
</g>
<g id="Fill 27">
<use xlink:href="#path12_fill" transform="translate(21572.3 -4448.95)" fill="#FFFFFF"/>
</g>
<g id="Fill 29">
<use xlink:href="#path13_fill" transform="translate(21721.7 -4449.14)" fill="#FFFFFF"/>
</g>
<g id="Fill 31">
<use xlink:href="#path14_fill" transform="translate(21666.6 -4448.83)" fill="#FFFFFF"/>
</g>
<g id="Fill 33">
<use xlink:href="#path14_fill" transform="translate(21691.5 -4448.83)" fill="#FFFFFF"/>
</g>
<g id="Fill 35">
<use xlink:href="#path15_fill" transform="translate(21635.1 -4448.83)" fill="#FFFFFF"/>
</g>
<g id="Fill 37">
<use xlink:href="#path16_fill" transform="translate(21704.6 -4448.83)" fill="#FFFFFF"/>
</g>
</g>
</g>
<g id="Rectangle Copy 28">
<use xlink:href="#path17_fill" transform="translate(21777 -4444)" fill="#FFFFFF"/>
</g>
</g>
</g>
<defs>
<path id="path0_fill" fill-rule="evenodd" d="M 0.00164167 0L 0.00164167 0.157501C 0 0.131251 0 0.105001 0 0.0787504C 0 0.0525003 0 0.0262501 0.00164167 0"/>
<path id="path1_fill" fill-rule="evenodd" d="M 6.56556 11.1007C 4.3145 11.1007 2.7005 9.0779 2.66766 6.56716C 2.66602 6.54091 2.66602 6.51466 2.66602 6.48841C 2.66602 6.46216 2.66602 6.43591 2.66766 6.40966C 2.7005 3.89584 4.3145 1.87305 6.56556 1.87305C 8.83797 1.87305 10.4651 3.93908 10.4651 6.48841C 10.4651 9.03466 8.83797 11.1007 6.56556 11.1007L 6.56556 11.1007ZM 6.56603 0C 4.77141 0 3.47758 0.7875 2.6517 2.0475L 2.29868 0.426176L 0 0.426176L 0.369431 2.12471L 0.369431 16.871L 2.66812 16.871L 2.66812 10.9524C 3.49564 12.197 4.78455 12.9737 6.56603 12.9737C 10.0124 12.9737 12.8053 10.0707 12.8053 6.48838C 12.8053 2.90449 10.0124 0 6.56603 0L 6.56603 0Z"/>
<path id="path2_fill" fill-rule="evenodd" d="M 7.92237 14.3604L 2.29883 14.3604L 2.29883 9.11035L 8.00446 9.11035C 9.4986 9.11035 10.7136 10.2885 10.7136 11.7354C 10.7136 13.1575 9.43457 14.3604 7.92237 14.3604L 7.92237 14.3604ZM 8.00435 7.25735L 2.29868 7.25735L 2.29868 1.69853L 10.6725 1.69853L 10.6725 0L 0 0L 0 16.5221L 7.92225 16.5221C 7.93539 16.5221 7.95017 16.5221 7.9633 16.5205C 10.6429 16.5004 12.848 14.4143 12.848 11.8897C 12.848 9.35272 10.702 7.25735 8.00435 7.25735L 8.00435 7.25735Z"/>
<path id="path3_fill" fill-rule="evenodd" d="M 7.55281 0L 7.55281 1.69853L 2.29868 1.69853L 2.29868 12.3529L 0 12.3529L 0 0L 7.55281 0Z"/>
<path id="path4_fill" fill-rule="evenodd" d="M 9.27629 10.6546L 3.78906 10.6546L 5.32424 8.18403L 5.33573 8.18403L 5.33573 1.69873L 9.27629 1.69873L 9.27629 10.6546ZM 11.5755 10.6544L 11.5755 0L 3.03754 0L 3.03754 8.18382L 3.02605 8.18382L 1.49086 10.6544L 0 10.6544L 0 14.8235L 2.29868 14.8235L 2.29868 12.3529L 10.8366 12.3529L 10.8366 14.8235L 13.1353 14.8235L 13.1353 10.6544L 11.5755 10.6544Z"/>
<path id="path5_fill" fill-rule="evenodd" d="M 12.8069 0L 12.8069 16.5221L 10.5082 16.5221L 10.5082 3.56846L 2.78501 16.5221L 0 16.5221L 0 0L 2.29868 0L 2.29868 13.0663L 10.7483 0L 12.8069 0Z"/>
<path id="path6_fill" fill-rule="evenodd" d="M 0.0410567 0L 0.0410567 0.00154411L 0 0.00154411C 0.0131382 0.00154411 0.0279186 0.00154411 0.0410567 0"/>
<path id="path7_fill" fill-rule="evenodd" d="M 10.1799 0L 10.1799 12.3529L 7.88121 12.3529L 7.88121 3.4789L 2.45138 12.3529L 0 12.3529L 0 0L 2.29869 0L 2.29869 8.89721L 7.82538 0L 10.1799 0Z"/>
<path id="path8_fill" fill-rule="evenodd" d="M 0.0262666 0L 0 0.041691L 0 0L 0.0262666 0Z"/>
<path id="path9_fill" fill-rule="evenodd" d="M 4.92573 1.69853L 4.92573 10.6544L 5.65835 12.3529L 3.27758 12.3529L 2.62706 10.6544L 2.62706 1.69853L 0 1.69853L 0 0L 7.55279 0L 7.55279 1.69853L 4.92573 1.69853Z"/>
<path id="path10_fill" fill-rule="evenodd" d="M 6.23939 11.1018C 3.96534 11.1018 2.33984 9.03593 2.33984 6.48844C 2.33984 3.93941 3.96534 1.87354 6.23939 1.87354C 8.51345 1.87354 10.1389 3.93941 10.1389 6.48844C 10.1389 9.03593 8.51345 11.1018 6.23939 11.1018L 6.23939 11.1018ZM 6.23927 0C 2.79289 0 0 2.90557 0 6.48838C 0 10.0712 2.79289 12.9752 6.23927 12.9752C 9.68565 12.9752 12.4785 10.0712 12.4785 6.48838C 12.4785 2.90557 9.68565 0 6.23927 0L 6.23927 0Z"/>
<path id="path11_fill" fill-rule="evenodd" d="M 6.23939 11.1018C 3.96534 11.1018 2.33984 9.03593 2.33984 6.48844C 2.33984 3.93941 3.96534 1.87354 6.23939 1.87354C 8.51344 1.87354 10.1389 3.93941 10.1389 6.48844C 10.1389 9.03593 8.51344 11.1018 6.23939 11.1018L 6.23939 11.1018ZM 6.23926 0C 2.79289 0 0 2.90557 0 6.48838C 0 10.0712 2.79289 12.9752 6.23926 12.9752C 9.68563 12.9752 12.4785 10.0712 12.4785 6.48838C 12.4785 2.90557 9.68563 0 6.23926 0L 6.23926 0Z"/>
<path id="path12_fill" fill-rule="evenodd" d="M 9.73983 8.60845C 9.12411 9.99816 7.84342 11.0991 6.23927 11.0991C 3.96522 11.0991 2.33973 9.0161 2.33973 6.46831C 2.33973 3.91897 3.96522 1.88228 6.23927 1.88228C 7.84342 1.88228 9.12411 2.89522 9.73983 4.43934L 12.1469 4.43934C 11.3128 1.81434 8.98291 0 6.23927 0C 2.79289 0 0 2.8875 0 6.46831C 0 10.0507 2.79289 12.9829 6.23927 12.9829C 8.98291 12.9829 11.3128 11.079 12.1485 8.60845L 9.73983 8.60845Z"/>
<path id="path13_fill" fill-rule="evenodd" d="M 2.27734 5.25003C 2.59916 3.24268 3.73372 1.93018 5.93061 1.93018C 7.91897 1.93018 9.60686 3.24268 9.7497 5.25003L 2.27734 5.25003ZM 5.7278 0C 2.50801 0 0 2.86897 0 6.40809C 0 9.94721 2.65956 12.8162 5.87934 12.8162C 7.79381 12.8162 9.55131 11.9129 10.6153 10.3456L 8.87106 9.57353C 8.15848 10.4614 7.04838 10.9632 5.92351 10.9632C 3.5544 10.9632 2.42296 9.36507 2.21116 7.21875C 2.20131 7.11684 2.19622 6.94853 2.19129 6.94853L 11.3545 6.94853L 11.3545 5.09559C 11.0261 1.78654 8.85399 0 5.7278 0L 5.7278 0Z"/>
<path id="path14_fill" fill-rule="evenodd" d="M 11.4113 0L 6.97813 12.1985L 2.46287 16.8309L 0 16.8309L 4.51526 12.1985L 4.52183 12.1985L 0 0L 2.29868 0L 5.75162 10.3054L 9.11262 0L 11.4113 0Z"/>
<path id="path15_fill" fill-rule="evenodd" d="M 3.45985 4.63232C 2.84906 4.63232 2.35156 4.06409 2.35156 3.31982C 2.35156 2.58791 2.89668 2.00732 3.54195 2.00732L 7.48878 2.00732L 7.48878 4.63232L 3.45985 4.63232ZM 9.97133 0L 9.62292 0.0416912L 9.62292 0L 3.54161 0C 1.72729 0 0.216732 1.46537 0.216732 3.31985C 0.216732 5.17434 1.6452 6.63971 3.45951 6.63971L 3.54817 6.63971L 0 12.3529L 2.29868 12.3529L 5.84685 6.63971L 7.48843 6.63971L 7.48843 12.3529L 9.78711 12.3529L 9.78711 0L 9.97133 0Z"/>
<path id="path16_fill" fill-rule="evenodd" d="M 16.4014 12.3529L 14.8662 14.8235L 12.5675 14.8235L 14.1027 12.3529L 0 12.3529L 0 0L 2.29868 0L 2.29868 10.1912L 5.91088 10.1912L 5.91088 0L 8.20956 0L 8.20956 10.1912L 11.8218 10.1912L 11.8218 0L 14.1204 0L 14.1204 12.3529L 16.4014 12.3529Z"/>
<path id="path17_fill" fill-rule="evenodd" d="M 0 0L 26 0L 26 2L 0 2L 0 0Z"/>
</defs>
</svg>
