<svg width="421" height="408" viewBox="0 0 421 408" version="1.1" xmlns="http://www.w3.org/2000/svg" xmlns:xlink="http://www.w3.org/1999/xlink">
<title>15_teaser_pattern</title>
<desc>Created using Figma</desc>
<g id="Canvas" transform="translate(-45323 -6238)">
<g id="15_teaser_pattern">
<g id="&#208;&#154;&#209;&#128;&#208;&#176;&#209;&#129;&#208;&#189;&#209;&#139;&#208;&#181; &#208;&#162;&#209;&#128;&#208;&#181;&#209;&#131;&#208;&#179;&#208;&#190;&#208;&#187;&#209;&#140;&#208;&#189;&#208;&#184;&#208;&#186;&#208;&#184;">
<mask id="mask0_alpha" mask-type="alpha">
<g id="Rectangle">
<use xlink:href="#path0_fill" transform="matrix(1 5.81965e-09 5.81965e-09 -1 45303 6500)" fill="#C4C4C4"/>
</g>
</mask>
<g id="Fill 1" mask="url(#mask0_alpha)">
<use xlink:href="#path1_fill" transform="matrix(-0.988754 0.149551 -0.149551 -0.988754 45566.5 6410.89)" fill="#FF4A68"/>
</g>
<g id="Fill 2" mask="url(#mask0_alpha)">
<use xlink:href="#path2_fill" transform="matrix(-0.988754 0.149551 -0.149551 -0.988754 45564.2 6413.8)" fill="#FF4A68"/>
</g>
<g id="Fill 3" mask="url(#mask0_alpha)">
<use xlink:href="#path3_fill" transform="matrix(-0.988754 0.149551 -0.149551 -0.988754 45516.6 6433.64)" fill="#FF4A68"/>
</g>
<g id="Fill 4" mask="url(#mask0_alpha)">
<use xlink:href="#path4_fill" transform="matrix(-0.988754 0.149551 -0.149551 -0.988754 45515.2 6435.14)" fill="#FF4A68"/>
</g>
<g id="Fill 5" mask="url(#mask0_alpha)">
<use xlink:href="#path3_fill" transform="matrix(-0.988754 0.149551 -0.149551 -0.988754 45548.6 6465.9)" fill="#FF4A68"/>
</g>
<g id="Fill 6" mask="url(#mask0_alpha)">
<use xlink:href="#path4_fill" transform="matrix(-0.988754 0.149551 -0.149551 -0.988754 45547.3 6467.4)" fill="#FF4A68"/>
</g>
<g id="Fill 7" mask="url(#mask0_alpha)">
<use xlink:href="#path5_fill" transform="matrix(-0.988754 0.149551 -0.149551 -0.988754 45570 6448.5)" fill="#FF4A68"/>
</g>
<g id="Fill 8" mask="url(#mask0_alpha)">
<use xlink:href="#path4_fill" transform="matrix(-0.988754 0.149551 -0.149551 -0.988754 45568.7 6450.25)" fill="#FF4A68"/>
</g>
<g id="Fill 9" mask="url(#mask0_alpha)">
<use xlink:href="#path6_fill" transform="matrix(-0.988754 0.149551 -0.149551 -0.988754 45533.8 6486.19)" fill="#FF4A68"/>
</g>
<g id="Fill 10" mask="url(#mask0_alpha)">
<use xlink:href="#path7_fill" transform="matrix(-0.988754 0.149551 -0.149551 -0.988754 45531.9 6489.06)" fill="#FF4A68"/>
</g>
<g id="Fill 11" mask="url(#mask0_alpha)">
<use xlink:href="#path8_fill" transform="matrix(-0.988754 0.149551 -0.149551 -0.988754 45543.2 6428.32)" fill="#FF4A68"/>
</g>
<g id="Fill 12" mask="url(#mask0_alpha)">
<use xlink:href="#path9_fill" transform="matrix(-0.988754 0.149551 -0.149551 -0.988754 45541 6431.49)" fill="#FF4A68"/>
</g>
<g id="Fill 13" mask="url(#mask0_alpha)">
<use xlink:href="#path10_fill" transform="matrix(-0.988754 0.149551 -0.149551 -0.988754 45511.5 6463.79)" fill="#FF4A68"/>
</g>
<g id="Fill 14" mask="url(#mask0_alpha)">
<use xlink:href="#path11_fill" transform="matrix(-0.988754 0.149551 -0.149551 -0.988754 45509.3 6466.7)" fill="#FF4A68"/>
</g>
<g id="Fill 1" mask="url(#mask0_alpha)">
<use xlink:href="#path1_fill" transform="matrix(-0.988754 0.149551 -0.149551 -0.988754 45483.4 6423.45)" fill="#FF4A68"/>
</g>
<g id="Fill 2" mask="url(#mask0_alpha)">
<use xlink:href="#path2_fill" transform="matrix(-0.988754 0.149551 -0.149551 -0.988754 45481.2 6426.37)" fill="#FF4A68"/>
</g>
<g id="Fill 3" mask="url(#mask0_alpha)">
<use xlink:href="#path3_fill" transform="matrix(-0.988754 0.149551 -0.149551 -0.988754 45433.5 6446.21)" fill="#FF4A68"/>
</g>
<g id="Fill 4" mask="url(#mask0_alpha)">
<use xlink:href="#path4_fill" transform="matrix(-0.988754 0.149551 -0.149551 -0.988754 45432.1 6447.7)" fill="#FF4A68"/>
</g>
<g id="Fill 5" mask="url(#mask0_alpha)">
<use xlink:href="#path3_fill" transform="matrix(-0.988754 0.149551 -0.149551 -0.988754 45465.6 6478.47)" fill="#FF4A68"/>
</g>
<g id="Fill 6" mask="url(#mask0_alpha)">
<use xlink:href="#path4_fill" transform="matrix(-0.988754 0.149551 -0.149551 -0.988754 45464.2 6479.96)" fill="#FF4A68"/>
</g>
<g id="Fill 7" mask="url(#mask0_alpha)">
<use xlink:href="#path5_fill" transform="matrix(-0.988754 0.149551 -0.149551 -0.988754 45487 6461.06)" fill="#FF4A68"/>
</g>
<g id="Fill 8" mask="url(#mask0_alpha)">
<use xlink:href="#path4_fill" transform="matrix(-0.988754 0.149551 -0.149551 -0.988754 45485.6 6462.81)" fill="#FF4A68"/>
</g>
<g id="Fill 9" mask="url(#mask0_alpha)">
<use xlink:href="#path6_fill" transform="matrix(-0.988754 0.149551 -0.149551 -0.988754 45450.8 6498.75)" fill="#FF4A68"/>
</g>
<g id="Fill 10" mask="url(#mask0_alpha)">
<use xlink:href="#path7_fill" transform="matrix(-0.988754 0.149551 -0.149551 -0.988754 45448.8 6501.62)" fill="#FF4A68"/>
</g>
<g id="Fill 11" mask="url(#mask0_alpha)">
<use xlink:href="#path8_fill" transform="matrix(-0.988754 0.149551 -0.149551 -0.988754 45460.2 6440.88)" fill="#FF4A68"/>
</g>
<g id="Fill 12" mask="url(#mask0_alpha)">
<use xlink:href="#path9_fill" transform="matrix(-0.988754 0.149551 -0.149551 -0.988754 45458 6444.05)" fill="#FF4A68"/>
</g>
<g id="Fill 13" mask="url(#mask0_alpha)">
<use xlink:href="#path10_fill" transform="matrix(-0.988754 0.149551 -0.149551 -0.988754 45428.5 6476.35)" fill="#FF4A68"/>
</g>
<g id="Fill 14" mask="url(#mask0_alpha)">
<use xlink:href="#path11_fill" transform="matrix(-0.988754 0.149551 -0.149551 -0.988754 45426.2 6479.27)" fill="#FF4A68"/>
</g>
<g id="Fill 1" mask="url(#mask0_alpha)">
<use xlink:href="#path1_fill" transform="matrix(-0.988754 0.149551 -0.149551 -0.988754 45401.3 6435.86)" fill="#FF4A68"/>
</g>
<g id="Fill 2" mask="url(#mask0_alpha)">
<use xlink:href="#path2_fill" transform="matrix(-0.988754 0.149551 -0.149551 -0.988754 45399.1 6438.78)" fill="#FF4A68"/>
</g>
<g id="Fill 3" mask="url(#mask0_alpha)">
<use xlink:href="#path3_fill" transform="matrix(-0.988754 0.149551 -0.149551 -0.988754 45351.4 6458.62)" fill="#FF4A68"/>
</g>
<g id="Fill 4" mask="url(#mask0_alpha)">
<use xlink:href="#path4_fill" transform="matrix(-0.988754 0.149551 -0.149551 -0.988754 45350.1 6460.12)" fill="#FF4A68"/>
</g>
<g id="Fill 5" mask="url(#mask0_alpha)">
<use xlink:href="#path3_fill" transform="matrix(-0.988754 0.149551 -0.149551 -0.988754 45383.5 6490.88)" fill="#FF4A68"/>
</g>
<g id="Fill 6" mask="url(#mask0_alpha)">
<use xlink:href="#path4_fill" transform="matrix(-0.988754 0.149551 -0.149551 -0.988754 45382.2 6492.38)" fill="#FF4A68"/>
</g>
<g id="Fill 7" mask="url(#mask0_alpha)">
<use xlink:href="#path5_fill" transform="matrix(-0.988754 0.149551 -0.149551 -0.988754 45404.9 6473.47)" fill="#FF4A68"/>
</g>
<g id="Fill 8" mask="url(#mask0_alpha)">
<use xlink:href="#path4_fill" transform="matrix(-0.988754 0.149551 -0.149551 -0.988754 45403.6 6475.22)" fill="#FF4A68"/>
</g>
<g id="Fill 11" mask="url(#mask0_alpha)">
<use xlink:href="#path8_fill" transform="matrix(-0.988754 0.149551 -0.149551 -0.988754 45378.1 6453.3)" fill="#FF4A68"/>
</g>
<g id="Fill 12" mask="url(#mask0_alpha)">
<use xlink:href="#path9_fill" transform="matrix(-0.988754 0.149551 -0.149551 -0.988754 45375.9 6456.46)" fill="#FF4A68"/>
</g>
<g id="Fill 13" mask="url(#mask0_alpha)">
<use xlink:href="#path10_fill" transform="matrix(-0.988754 0.149551 -0.149551 -0.988754 45346.4 6488.76)" fill="#FF4A68"/>
</g>
<g id="Fill 14" mask="url(#mask0_alpha)">
<use xlink:href="#path11_fill" transform="matrix(-0.988754 0.149551 -0.149551 -0.988754 45344.2 6491.68)" fill="#FF4A68"/>
</g>
<g id="Fill 1" mask="url(#mask0_alpha)">
<use xlink:href="#path1_fill" transform="matrix(-0.988754 0.149551 -0.149551 -0.988754 45648.5 6398.48)" fill="#FF4A68"/>
</g>
<g id="Fill 2" mask="url(#mask0_alpha)">
<use xlink:href="#path2_fill" transform="matrix(-0.988754 0.149551 -0.149551 -0.988754 45646.3 6401.39)" fill="#FF4A68"/>
</g>
<g id="Fill 3" mask="url(#mask0_alpha)">
<use xlink:href="#path3_fill" transform="matrix(-0.988754 0.149551 -0.149551 -0.988754 45598.6 6421.23)" fill="#FF4A68"/>
</g>
<g id="Fill 4" mask="url(#mask0_alpha)">
<use xlink:href="#path4_fill" transform="matrix(-0.988754 0.149551 -0.149551 -0.988754 45597.3 6422.73)" fill="#FF4A68"/>
</g>
<g id="Fill 5" mask="url(#mask0_alpha)">
<use xlink:href="#path3_fill" transform="matrix(-0.988754 0.149551 -0.149551 -0.988754 45630.7 6453.49)" fill="#FF4A68"/>
</g>
<g id="Fill 6" mask="url(#mask0_alpha)">
<use xlink:href="#path4_fill" transform="matrix(-0.988754 0.149551 -0.149551 -0.988754 45629.3 6454.99)" fill="#FF4A68"/>
</g>
<g id="Fill 7" mask="url(#mask0_alpha)">
<use xlink:href="#path5_fill" transform="matrix(-0.988754 0.149551 -0.149551 -0.988754 45652.1 6436.08)" fill="#FF4A68"/>
</g>
<g id="Fill 8" mask="url(#mask0_alpha)">
<use xlink:href="#path4_fill" transform="matrix(-0.988754 0.149551 -0.149551 -0.988754 45650.8 6437.83)" fill="#FF4A68"/>
</g>
<g id="Fill 9" mask="url(#mask0_alpha)">
<use xlink:href="#path6_fill" transform="matrix(-0.988754 0.149551 -0.149551 -0.988754 45615.9 6473.77)" fill="#FF4A68"/>
</g>
<g id="Fill 10" mask="url(#mask0_alpha)">
<use xlink:href="#path7_fill" transform="matrix(-0.988754 0.149551 -0.149551 -0.988754 45613.9 6476.65)" fill="#FF4A68"/>
</g>
<g id="Fill 11" mask="url(#mask0_alpha)">
<use xlink:href="#path8_fill" transform="matrix(-0.988754 0.149551 -0.149551 -0.988754 45625.3 6415.91)" fill="#FF4A68"/>
</g>
<g id="Fill 12" mask="url(#mask0_alpha)">
<use xlink:href="#path9_fill" transform="matrix(-0.988754 0.149551 -0.149551 -0.988754 45623.1 6419.07)" fill="#FF4A68"/>
</g>
<g id="Fill 13" mask="url(#mask0_alpha)">
<use xlink:href="#path10_fill" transform="matrix(-0.988754 0.149551 -0.149551 -0.988754 45593.6 6451.38)" fill="#FF4A68"/>
</g>
<g id="Fill 14" mask="url(#mask0_alpha)">
<use xlink:href="#path11_fill" transform="matrix(-0.988754 0.149551 -0.149551 -0.988754 45591.4 6454.29)" fill="#FF4A68"/>
</g>
<g id="Fill 1" mask="url(#mask0_alpha)">
<use xlink:href="#path1_fill" transform="matrix(-0.988754 0.149551 -0.149551 -0.988754 45553.9 6327.83)" fill="#FF4A68"/>
</g>
<g id="Fill 2" mask="url(#mask0_alpha)">
<use xlink:href="#path2_fill" transform="matrix(-0.988754 0.149551 -0.149551 -0.988754 45551.7 6330.75)" fill="#FF4A68"/>
</g>
<g id="Fill 3" mask="url(#mask0_alpha)">
<use xlink:href="#path3_fill" transform="matrix(-0.988754 0.149551 -0.149551 -0.988754 45504 6350.59)" fill="#FF4A68"/>
</g>
<g id="Fill 4" mask="url(#mask0_alpha)">
<use xlink:href="#path4_fill" transform="matrix(-0.988754 0.149551 -0.149551 -0.988754 45502.6 6352.08)" fill="#FF4A68"/>
</g>
<g id="Fill 5" mask="url(#mask0_alpha)">
<use xlink:href="#path3_fill" transform="matrix(-0.988754 0.149551 -0.149551 -0.988754 45536.1 6382.85)" fill="#FF4A68"/>
</g>
<g id="Fill 6" mask="url(#mask0_alpha)">
<use xlink:href="#path4_fill" transform="matrix(-0.988754 0.149551 -0.149551 -0.988754 45534.7 6384.35)" fill="#FF4A68"/>
</g>
<g id="Fill 7" mask="url(#mask0_alpha)">
<use xlink:href="#path5_fill" transform="matrix(-0.988754 0.149551 -0.149551 -0.988754 45557.5 6365.44)" fill="#FF4A68"/>
</g>
<g id="Fill 8" mask="url(#mask0_alpha)">
<use xlink:href="#path4_fill" transform="matrix(-0.988754 0.149551 -0.149551 -0.988754 45556.1 6367.19)" fill="#FF4A68"/>
</g>
<g id="Fill 9" mask="url(#mask0_alpha)">
<use xlink:href="#path6_fill" transform="matrix(-0.988754 0.149551 -0.149551 -0.988754 45521.3 6403.13)" fill="#FF4A68"/>
</g>
<g id="Fill 10" mask="url(#mask0_alpha)">
<use xlink:href="#path7_fill" transform="matrix(-0.988754 0.149551 -0.149551 -0.988754 45519.3 6406)" fill="#FF4A68"/>
</g>
<g id="Fill 11" mask="url(#mask0_alpha)">
<use xlink:href="#path8_fill" transform="matrix(-0.988754 0.149551 -0.149551 -0.988754 45530.7 6345.27)" fill="#FF4A68"/>
</g>
<g id="Fill 12" mask="url(#mask0_alpha)">
<use xlink:href="#path9_fill" transform="matrix(-0.988754 0.149551 -0.149551 -0.988754 45528.5 6348.43)" fill="#FF4A68"/>
</g>
<g id="Fill 13" mask="url(#mask0_alpha)">
<use xlink:href="#path10_fill" transform="matrix(-0.988754 0.149551 -0.149551 -0.988754 45499 6380.73)" fill="#FF4A68"/>
</g>
<g id="Fill 14" mask="url(#mask0_alpha)">
<use xlink:href="#path11_fill" transform="matrix(-0.988754 0.149551 -0.149551 -0.988754 45496.7 6383.65)" fill="#FF4A68"/>
</g>
<g id="Fill 1" mask="url(#mask0_alpha)">
<use xlink:href="#path1_fill" transform="matrix(-0.988754 0.149551 -0.149551 -0.988754 45470.8 6340.4)" fill="#FF4A68"/>
</g>
<g id="Fill 2" mask="url(#mask0_alpha)">
<use xlink:href="#path2_fill" transform="matrix(-0.988754 0.149551 -0.149551 -0.988754 45468.6 6343.31)" fill="#FF4A68"/>
</g>
<g id="Fill 3" mask="url(#mask0_alpha)">
<use xlink:href="#path3_fill" transform="matrix(-0.988754 0.149551 -0.149551 -0.988754 45420.9 6363.15)" fill="#FF4A68"/>
</g>
<g id="Fill 4" mask="url(#mask0_alpha)">
<use xlink:href="#path4_fill" transform="matrix(-0.988754 0.149551 -0.149551 -0.988754 45419.6 6364.65)" fill="#FF4A68"/>
</g>
<g id="Fill 5" mask="url(#mask0_alpha)">
<use xlink:href="#path3_fill" transform="matrix(-0.988754 0.149551 -0.149551 -0.988754 45453 6395.41)" fill="#FF4A68"/>
</g>
<g id="Fill 6" mask="url(#mask0_alpha)">
<use xlink:href="#path4_fill" transform="matrix(-0.988754 0.149551 -0.149551 -0.988754 45451.7 6396.91)" fill="#FF4A68"/>
</g>
<g id="Fill 7" mask="url(#mask0_alpha)">
<use xlink:href="#path5_fill" transform="matrix(-0.988754 0.149551 -0.149551 -0.988754 45474.4 6378)" fill="#FF4A68"/>
</g>
<g id="Fill 8" mask="url(#mask0_alpha)">
<use xlink:href="#path4_fill" transform="matrix(-0.988754 0.149551 -0.149551 -0.988754 45473.1 6379.75)" fill="#FF4A68"/>
</g>
<g id="Fill 9" mask="url(#mask0_alpha)">
<use xlink:href="#path6_fill" transform="matrix(-0.988754 0.149551 -0.149551 -0.988754 45438.2 6415.69)" fill="#FF4A68"/>
</g>
<g id="Fill 10" mask="url(#mask0_alpha)">
<use xlink:href="#path7_fill" transform="matrix(-0.988754 0.149551 -0.149551 -0.988754 45436.3 6418.57)" fill="#FF4A68"/>
</g>
<g id="Fill 11" mask="url(#mask0_alpha)">
<use xlink:href="#path8_fill" transform="matrix(-0.988754 0.149551 -0.149551 -0.988754 45447.6 6357.83)" fill="#FF4A68"/>
</g>
<g id="Fill 12" mask="url(#mask0_alpha)">
<use xlink:href="#path9_fill" transform="matrix(-0.988754 0.149551 -0.149551 -0.988754 45445.4 6360.99)" fill="#FF4A68"/>
</g>
<g id="Fill 13" mask="url(#mask0_alpha)">
<use xlink:href="#path10_fill" transform="matrix(-0.988754 0.149551 -0.149551 -0.988754 45415.9 6393.3)" fill="#FF4A68"/>
</g>
<g id="Fill 14" mask="url(#mask0_alpha)">
<use xlink:href="#path11_fill" transform="matrix(-0.988754 0.149551 -0.149551 -0.988754 45413.7 6396.21)" fill="#FF4A68"/>
</g>
<g id="Fill 1" mask="url(#mask0_alpha)">
<use xlink:href="#path1_fill" transform="matrix(-0.988754 0.149551 -0.149551 -0.988754 45388.8 6352.81)" fill="#FF4A68"/>
</g>
<g id="Fill 2" mask="url(#mask0_alpha)">
<use xlink:href="#path2_fill" transform="matrix(-0.988754 0.149551 -0.149551 -0.988754 45386.6 6355.72)" fill="#FF4A68"/>
</g>
<g id="Fill 5" mask="url(#mask0_alpha)">
<use xlink:href="#path3_fill" transform="matrix(-0.988754 0.149551 -0.149551 -0.988754 45371 6407.82)" fill="#FF4A68"/>
</g>
<g id="Fill 6" mask="url(#mask0_alpha)">
<use xlink:href="#path4_fill" transform="matrix(-0.988754 0.149551 -0.149551 -0.988754 45369.6 6409.32)" fill="#FF4A68"/>
</g>
<g id="Fill 7" mask="url(#mask0_alpha)">
<use xlink:href="#path5_fill" transform="matrix(-0.988754 0.149551 -0.149551 -0.988754 45392.3 6390.42)" fill="#FF4A68"/>
</g>
<g id="Fill 8" mask="url(#mask0_alpha)">
<use xlink:href="#path4_fill" transform="matrix(-0.988754 0.149551 -0.149551 -0.988754 45391 6392.16)" fill="#FF4A68"/>
</g>
<g id="Fill 9" mask="url(#mask0_alpha)">
<use xlink:href="#path6_fill" transform="matrix(-0.988754 0.149551 -0.149551 -0.988754 45356.2 6428.11)" fill="#FF4A68"/>
</g>
<g id="Fill 10" mask="url(#mask0_alpha)">
<use xlink:href="#path7_fill" transform="matrix(-0.988754 0.149551 -0.149551 -0.988754 45354.2 6430.98)" fill="#FF4A68"/>
</g>
<g id="Fill 11" mask="url(#mask0_alpha)">
<use xlink:href="#path8_fill" transform="matrix(-0.988754 0.149551 -0.149551 -0.988754 45365.5 6370.24)" fill="#FF4A68"/>
</g>
<g id="Fill 12" mask="url(#mask0_alpha)">
<use xlink:href="#path9_fill" transform="matrix(-0.988754 0.149551 -0.149551 -0.988754 45363.4 6373.41)" fill="#FF4A68"/>
</g>
<g id="Fill 13" mask="url(#mask0_alpha)">
<use xlink:href="#path10_fill" transform="matrix(-0.988754 0.149551 -0.149551 -0.988754 45333.8 6405.71)" fill="#FF4A68"/>
</g>
<g id="Fill 14" mask="url(#mask0_alpha)">
<use xlink:href="#path11_fill" transform="matrix(-0.988754 0.149551 -0.149551 -0.988754 45331.6 6408.62)" fill="#FF4A68"/>
</g>
<g id="Fill 1" mask="url(#mask0_alpha)">
<use xlink:href="#path1_fill" transform="matrix(-0.988754 0.149551 -0.149551 -0.988754 45636 6315.42)" fill="#FF4A68"/>
</g>
<g id="Fill 2" mask="url(#mask0_alpha)">
<use xlink:href="#path2_fill" transform="matrix(-0.988754 0.149551 -0.149551 -0.988754 45633.7 6318.33)" fill="#FF4A68"/>
</g>
<g id="Fill 3" mask="url(#mask0_alpha)">
<use xlink:href="#path3_fill" transform="matrix(-0.988754 0.149551 -0.149551 -0.988754 45586.1 6338.18)" fill="#FF4A68"/>
</g>
<g id="Fill 4" mask="url(#mask0_alpha)">
<use xlink:href="#path4_fill" transform="matrix(-0.988754 0.149551 -0.149551 -0.988754 45584.7 6339.67)" fill="#FF4A68"/>
</g>
<g id="Fill 5" mask="url(#mask0_alpha)">
<use xlink:href="#path3_fill" transform="matrix(-0.988754 0.149551 -0.149551 -0.988754 45618.2 6370.44)" fill="#FF4A68"/>
</g>
<g id="Fill 6" mask="url(#mask0_alpha)">
<use xlink:href="#path4_fill" transform="matrix(-0.988754 0.149551 -0.149551 -0.988754 45616.8 6371.93)" fill="#FF4A68"/>
</g>
<g id="Fill 7" mask="url(#mask0_alpha)">
<use xlink:href="#path5_fill" transform="matrix(-0.988754 0.149551 -0.149551 -0.988754 45639.5 6353.03)" fill="#FF4A68"/>
</g>
<g id="Fill 8" mask="url(#mask0_alpha)">
<use xlink:href="#path4_fill" transform="matrix(-0.988754 0.149551 -0.149551 -0.988754 45638.2 6354.78)" fill="#FF4A68"/>
</g>
<g id="Fill 9" mask="url(#mask0_alpha)">
<use xlink:href="#path6_fill" transform="matrix(-0.988754 0.149551 -0.149551 -0.988754 45603.3 6390.72)" fill="#FF4A68"/>
</g>
<g id="Fill 10" mask="url(#mask0_alpha)">
<use xlink:href="#path7_fill" transform="matrix(-0.988754 0.149551 -0.149551 -0.988754 45601.4 6393.59)" fill="#FF4A68"/>
</g>
<g id="Fill 11" mask="url(#mask0_alpha)">
<use xlink:href="#path8_fill" transform="matrix(-0.988754 0.149551 -0.149551 -0.988754 45612.7 6332.85)" fill="#FF4A68"/>
</g>
<g id="Fill 12" mask="url(#mask0_alpha)">
<use xlink:href="#path9_fill" transform="matrix(-0.988754 0.149551 -0.149551 -0.988754 45610.5 6336.02)" fill="#FF4A68"/>
</g>
<g id="Fill 13" mask="url(#mask0_alpha)">
<use xlink:href="#path10_fill" transform="matrix(-0.988754 0.149551 -0.149551 -0.988754 45581 6368.32)" fill="#FF4A68"/>
</g>
<g id="Fill 14" mask="url(#mask0_alpha)">
<use xlink:href="#path11_fill" transform="matrix(-0.988754 0.149551 -0.149551 -0.988754 45578.8 6371.23)" fill="#FF4A68"/>
</g>
<g id="Fill 1" mask="url(#mask0_alpha)">
<use xlink:href="#path1_fill" transform="matrix(-0.988754 0.149551 -0.149551 -0.988754 45541.3 6244.78)" fill="#FF4A68"/>
</g>
<g id="Fill 2" mask="url(#mask0_alpha)">
<use xlink:href="#path2_fill" transform="matrix(-0.988754 0.149551 -0.149551 -0.988754 45539.1 6247.69)" fill="#FF4A68"/>
</g>
<g id="Fill 3" mask="url(#mask0_alpha)">
<use xlink:href="#path3_fill" transform="matrix(-0.988754 0.149551 -0.149551 -0.988754 45491.4 6267.53)" fill="#FF4A68"/>
</g>
<g id="Fill 4" mask="url(#mask0_alpha)">
<use xlink:href="#path4_fill" transform="matrix(-0.988754 0.149551 -0.149551 -0.988754 45490.1 6269.03)" fill="#FF4A68"/>
</g>
<g id="Fill 5" mask="url(#mask0_alpha)">
<use xlink:href="#path3_fill" transform="matrix(-0.988754 0.149551 -0.149551 -0.988754 45523.5 6299.79)" fill="#FF4A68"/>
</g>
<g id="Fill 6" mask="url(#mask0_alpha)">
<use xlink:href="#path4_fill" transform="matrix(-0.988754 0.149551 -0.149551 -0.988754 45522.1 6301.29)" fill="#FF4A68"/>
</g>
<g id="Fill 7" mask="url(#mask0_alpha)">
<use xlink:href="#path5_fill" transform="matrix(-0.988754 0.149551 -0.149551 -0.988754 45544.9 6282.39)" fill="#FF4A68"/>
</g>
<g id="Fill 8" mask="url(#mask0_alpha)">
<use xlink:href="#path4_fill" transform="matrix(-0.988754 0.149551 -0.149551 -0.988754 45543.6 6284.13)" fill="#FF4A68"/>
</g>
<g id="Fill 9" mask="url(#mask0_alpha)">
<use xlink:href="#path6_fill" transform="matrix(-0.988754 0.149551 -0.149551 -0.988754 45508.7 6320.07)" fill="#FF4A68"/>
</g>
<g id="Fill 10" mask="url(#mask0_alpha)">
<use xlink:href="#path7_fill" transform="matrix(-0.988754 0.149551 -0.149551 -0.988754 45506.8 6322.95)" fill="#FF4A68"/>
</g>
<g id="Fill 11" mask="url(#mask0_alpha)">
<use xlink:href="#path8_fill" transform="matrix(-0.988754 0.149551 -0.149551 -0.988754 45518.1 6262.21)" fill="#FF4A68"/>
</g>
<g id="Fill 12" mask="url(#mask0_alpha)">
<use xlink:href="#path9_fill" transform="matrix(-0.988754 0.149551 -0.149551 -0.988754 45515.9 6265.38)" fill="#FF4A68"/>
</g>
<g id="Fill 13" mask="url(#mask0_alpha)">
<use xlink:href="#path10_fill" transform="matrix(-0.988754 0.149551 -0.149551 -0.988754 45486.4 6297.68)" fill="#FF4A68"/>
</g>
<g id="Fill 14" mask="url(#mask0_alpha)">
<use xlink:href="#path11_fill" transform="matrix(-0.988754 0.149551 -0.149551 -0.988754 45484.2 6300.59)" fill="#FF4A68"/>
</g>
<g id="Fill 1" mask="url(#mask0_alpha)">
<use xlink:href="#path1_fill" transform="matrix(-0.988754 0.149551 -0.149551 -0.988754 45458.3 6257.34)" fill="#FF4A68"/>
</g>
<g id="Fill 2" mask="url(#mask0_alpha)">
<use xlink:href="#path2_fill" transform="matrix(-0.988754 0.149551 -0.149551 -0.988754 45456.1 6260.25)" fill="#FF4A68"/>
</g>
<g id="Fill 3" mask="url(#mask0_alpha)">
<use xlink:href="#path3_fill" transform="matrix(-0.988754 0.149551 -0.149551 -0.988754 45408.4 6280.1)" fill="#FF4A68"/>
</g>
<g id="Fill 4" mask="url(#mask0_alpha)">
<use xlink:href="#path4_fill" transform="matrix(-0.988754 0.149551 -0.149551 -0.988754 45407 6281.59)" fill="#FF4A68"/>
</g>
<g id="Fill 5" mask="url(#mask0_alpha)">
<use xlink:href="#path3_fill" transform="matrix(-0.988754 0.149551 -0.149551 -0.988754 45440.5 6312.36)" fill="#FF4A68"/>
</g>
<g id="Fill 6" mask="url(#mask0_alpha)">
<use xlink:href="#path4_fill" transform="matrix(-0.988754 0.149551 -0.149551 -0.988754 45439.1 6313.85)" fill="#FF4A68"/>
</g>
<g id="Fill 7" mask="url(#mask0_alpha)">
<use xlink:href="#path5_fill" transform="matrix(-0.988754 0.149551 -0.149551 -0.988754 45461.8 6294.95)" fill="#FF4A68"/>
</g>
<g id="Fill 8" mask="url(#mask0_alpha)">
<use xlink:href="#path4_fill" transform="matrix(-0.988754 0.149551 -0.149551 -0.988754 45460.5 6296.7)" fill="#FF4A68"/>
</g>
<g id="Fill 9" mask="url(#mask0_alpha)">
<use xlink:href="#path6_fill" transform="matrix(-0.988754 0.149551 -0.149551 -0.988754 45425.7 6332.64)" fill="#FF4A68"/>
</g>
<g id="Fill 10" mask="url(#mask0_alpha)">
<use xlink:href="#path7_fill" transform="matrix(-0.988754 0.149551 -0.149551 -0.988754 45423.7 6335.51)" fill="#FF4A68"/>
</g>
<g id="Fill 11" mask="url(#mask0_alpha)">
<use xlink:href="#path8_fill" transform="matrix(-0.988754 0.149551 -0.149551 -0.988754 45435.1 6274.77)" fill="#FF4A68"/>
</g>
<g id="Fill 12" mask="url(#mask0_alpha)">
<use xlink:href="#path9_fill" transform="matrix(-0.988754 0.149551 -0.149551 -0.988754 45432.9 6277.94)" fill="#FF4A68"/>
</g>
<g id="Fill 13" mask="url(#mask0_alpha)">
<use xlink:href="#path10_fill" transform="matrix(-0.988754 0.149551 -0.149551 -0.988754 45403.3 6310.24)" fill="#FF4A68"/>
</g>
<g id="Fill 14" mask="url(#mask0_alpha)">
<use xlink:href="#path11_fill" transform="matrix(-0.988754 0.149551 -0.149551 -0.988754 45401.1 6313.15)" fill="#FF4A68"/>
</g>
<g id="Fill 5" mask="url(#mask0_alpha)">
<use xlink:href="#path3_fill" transform="matrix(-0.988754 0.149551 -0.149551 -0.988754 45358.4 6324.77)" fill="#FF4A68"/>
</g>
<g id="Fill 6" mask="url(#mask0_alpha)">
<use xlink:href="#path4_fill" transform="matrix(-0.988754 0.149551 -0.149551 -0.988754 45357 6326.27)" fill="#FF4A68"/>
</g>
<g id="Fill 7" mask="url(#mask0_alpha)">
<use xlink:href="#path5_fill" transform="matrix(-0.988754 0.149551 -0.149551 -0.988754 45379.8 6307.36)" fill="#FF4A68"/>
</g>
<g id="Fill 8" mask="url(#mask0_alpha)">
<use xlink:href="#path4_fill" transform="matrix(-0.988754 0.149551 -0.149551 -0.988754 45378.4 6309.11)" fill="#FF4A68"/>
</g>
<g id="Fill 3" mask="url(#mask0_alpha)">
<use xlink:href="#path3_fill" transform="matrix(-0.988754 0.149551 -0.149551 -0.988754 45573.5 6255.12)" fill="#FF4A68"/>
</g>
<g id="Fill 4" mask="url(#mask0_alpha)">
<use xlink:href="#path4_fill" transform="matrix(-0.988754 0.149551 -0.149551 -0.988754 45572.1 6256.62)" fill="#FF4A68"/>
</g>
<g id="Fill 5" mask="url(#mask0_alpha)">
<use xlink:href="#path3_fill" transform="matrix(-0.988754 0.149551 -0.149551 -0.988754 45605.6 6287.38)" fill="#FF4A68"/>
</g>
<g id="Fill 6" mask="url(#mask0_alpha)">
<use xlink:href="#path4_fill" transform="matrix(-0.988754 0.149551 -0.149551 -0.988754 45604.2 6288.88)" fill="#FF4A68"/>
</g>
<g id="Fill 7" mask="url(#mask0_alpha)">
<use xlink:href="#path5_fill" transform="matrix(-0.988754 0.149551 -0.149551 -0.988754 45627 6269.97)" fill="#FF4A68"/>
</g>
<g id="Fill 8" mask="url(#mask0_alpha)">
<use xlink:href="#path4_fill" transform="matrix(-0.988754 0.149551 -0.149551 -0.988754 45625.6 6271.72)" fill="#FF4A68"/>
</g>
<g id="Fill 9" mask="url(#mask0_alpha)">
<use xlink:href="#path6_fill" transform="matrix(-0.988754 0.149551 -0.149551 -0.988754 45590.8 6307.66)" fill="#FF4A68"/>
</g>
<g id="Fill 10" mask="url(#mask0_alpha)">
<use xlink:href="#path7_fill" transform="matrix(-0.988754 0.149551 -0.149551 -0.988754 45588.8 6310.54)" fill="#FF4A68"/>
</g>
<g id="Fill 11" mask="url(#mask0_alpha)">
<use xlink:href="#path8_fill" transform="matrix(-0.988754 0.149551 -0.149551 -0.988754 45600.2 6249.8)" fill="#FF4A68"/>
</g>
<g id="Fill 12" mask="url(#mask0_alpha)">
<use xlink:href="#path9_fill" transform="matrix(-0.988754 0.149551 -0.149551 -0.988754 45598 6252.96)" fill="#FF4A68"/>
</g>
<g id="Fill 13" mask="url(#mask0_alpha)">
<use xlink:href="#path10_fill" transform="matrix(-0.988754 0.149551 -0.149551 -0.988754 45568.5 6285.27)" fill="#FF4A68"/>
</g>
<g id="Fill 14" mask="url(#mask0_alpha)">
<use xlink:href="#path11_fill" transform="matrix(-0.988754 0.149551 -0.149551 -0.988754 45566.2 6288.18)" fill="#FF4A68"/>
</g>
<g id="Fill 13" mask="url(#mask0_alpha)">
<use xlink:href="#path10_fill" transform="matrix(-0.988754 0.149551 -0.149551 -0.988754 45651.5 6272.7)" fill="#FF4A68"/>
</g>
<g id="Fill 14" mask="url(#mask0_alpha)">
<use xlink:href="#path11_fill" transform="matrix(-0.988754 0.149551 -0.149551 -0.988754 45649.3 6275.62)" fill="#FF4A68"/>
</g>
<g id="Fill 1" mask="url(#mask0_alpha)">
<use xlink:href="#path1_fill" transform="matrix(-0.988754 0.149551 -0.149551 -0.988754 45578.9 6492.96)" fill="#FF4A68"/>
</g>
<g id="Fill 2" mask="url(#mask0_alpha)">
<use xlink:href="#path2_fill" transform="matrix(-0.988754 0.149551 -0.149551 -0.988754 45576.7 6495.87)" fill="#FF4A68"/>
</g>
<g id="Fill 2" mask="url(#mask0_alpha)">
<use xlink:href="#path2_fill" transform="matrix(-0.988754 0.149551 -0.149551 -0.988754 45493.6 6508.43)" fill="#FF4A68"/>
</g>
<g id="Fill 3" mask="url(#mask0_alpha)">
<use xlink:href="#path3_fill" transform="matrix(-0.988754 0.149551 -0.149551 -0.988754 45611 6503.3)" fill="#FF4A68"/>
</g>
<g id="Fill 4" mask="url(#mask0_alpha)">
<use xlink:href="#path4_fill" transform="matrix(-0.988754 0.149551 -0.149551 -0.988754 45609.7 6504.79)" fill="#FF4A68"/>
</g>
<g id="Fill 11" mask="url(#mask0_alpha)">
<use xlink:href="#path8_fill" transform="matrix(-0.988754 0.149551 -0.149551 -0.988754 45637.7 6497.98)" fill="#FF4A68"/>
</g>
<g id="Fill 12" mask="url(#mask0_alpha)">
<use xlink:href="#path9_fill" transform="matrix(-0.988754 0.149551 -0.149551 -0.988754 45635.5 6501.14)" fill="#FF4A68"/>
</g>
</g>
<g id="&#208;&#145;&#208;&#181;&#208;&#187;&#209;&#139;&#208;&#181; &#209;&#130;&#209;&#128;&#208;&#181;&#209;&#131;&#208;&#179;&#208;&#190;&#208;&#187;&#209;&#140;&#208;&#189;&#208;&#184;&#208;&#186;&#208;&#184;">
<mask id="mask1_alpha" mask-type="alpha">
<g id="Union" style="mix-blend-mode:lighten">
<use xlink:href="#path12_fill" transform="translate(44897.3 6096)" fill="url(#paint162_linear)"/>
</g>
</mask>
<g id="&#208;&#162;&#209;&#128;&#208;&#181;&#209;&#131;&#208;&#179;&#208;&#190;&#208;&#187;&#209;&#140;&#208;&#189;&#208;&#184;&#208;&#186;&#208;&#184;" mask="url(#mask1_alpha)">
<g id="Fill 1">
<use xlink:href="#path1_fill" transform="matrix(-0.988754 0.149551 -0.149551 -0.988754 45566.5 6410.89)" fill="#F5F1F1"/>
</g>
<g id="Fill 2">
<use xlink:href="#path2_fill" transform="matrix(-0.988754 0.149551 -0.149551 -0.988754 45564.2 6413.8)" fill="#F5F1F1"/>
</g>
<g id="Fill 3">
<use xlink:href="#path3_fill" transform="matrix(-0.988754 0.149551 -0.149551 -0.988754 45516.6 6433.64)" fill="#F5F1F1"/>
</g>
<g id="Fill 4">
<use xlink:href="#path4_fill" transform="matrix(-0.988754 0.149551 -0.149551 -0.988754 45515.2 6435.14)" fill="#F5F1F1"/>
</g>
<g id="Fill 5">
<use xlink:href="#path3_fill" transform="matrix(-0.988754 0.149551 -0.149551 -0.988754 45548.6 6465.9)" fill="#F5F1F1"/>
</g>
<g id="Fill 6">
<use xlink:href="#path4_fill" transform="matrix(-0.988754 0.149551 -0.149551 -0.988754 45547.3 6467.4)" fill="#F5F1F1"/>
</g>
<g id="Fill 7">
<use xlink:href="#path5_fill" transform="matrix(-0.988754 0.149551 -0.149551 -0.988754 45570 6448.5)" fill="#F5F1F1"/>
</g>
<g id="Fill 8">
<use xlink:href="#path4_fill" transform="matrix(-0.988754 0.149551 -0.149551 -0.988754 45568.7 6450.24)" fill="#F5F1F1"/>
</g>
<g id="Fill 9">
<use xlink:href="#path6_fill" transform="matrix(-0.988754 0.149551 -0.149551 -0.988754 45533.8 6486.19)" fill="#F5F1F1"/>
</g>
<g id="Fill 10">
<use xlink:href="#path7_fill" transform="matrix(-0.988754 0.149551 -0.149551 -0.988754 45531.9 6489.06)" fill="#F5F1F1"/>
</g>
<g id="Fill 11">
<use xlink:href="#path8_fill" transform="matrix(-0.988754 0.149551 -0.149551 -0.988754 45543.2 6428.32)" fill="#F5F1F1"/>
</g>
<g id="Fill 12">
<use xlink:href="#path9_fill" transform="matrix(-0.988754 0.149551 -0.149551 -0.988754 45541 6431.49)" fill="#F5F1F1"/>
</g>
<g id="Fill 13">
<use xlink:href="#path10_fill" transform="matrix(-0.988754 0.149551 -0.149551 -0.988754 45511.5 6463.79)" fill="#F5F1F1"/>
</g>
<g id="Fill 14">
<use xlink:href="#path11_fill" transform="matrix(-0.988754 0.149551 -0.149551 -0.988754 45509.3 6466.7)" fill="#F5F1F1"/>
</g>
<g id="Fill 1">
<use xlink:href="#path1_fill" transform="matrix(-0.988754 0.149551 -0.149551 -0.988754 45483.4 6423.45)" fill="#F5F1F1"/>
</g>
<g id="Fill 2">
<use xlink:href="#path2_fill" transform="matrix(-0.988754 0.149551 -0.149551 -0.988754 45481.2 6426.37)" fill="#F5F1F1"/>
</g>
<g id="Fill 3">
<use xlink:href="#path3_fill" transform="matrix(-0.988754 0.149551 -0.149551 -0.988754 45433.5 6446.21)" fill="#F5F1F1"/>
</g>
<g id="Fill 4">
<use xlink:href="#path4_fill" transform="matrix(-0.988754 0.149551 -0.149551 -0.988754 45432.1 6447.7)" fill="#F5F1F1"/>
</g>
<g id="Fill 5">
<use xlink:href="#path3_fill" transform="matrix(-0.988754 0.149551 -0.149551 -0.988754 45465.6 6478.47)" fill="#F5F1F1"/>
</g>
<g id="Fill 6">
<use xlink:href="#path4_fill" transform="matrix(-0.988754 0.149551 -0.149551 -0.988754 45464.2 6479.96)" fill="#F5F1F1"/>
</g>
<g id="Fill 7">
<use xlink:href="#path5_fill" transform="matrix(-0.988754 0.149551 -0.149551 -0.988754 45487 6461.06)" fill="#F5F1F1"/>
</g>
<g id="Fill 8">
<use xlink:href="#path4_fill" transform="matrix(-0.988754 0.149551 -0.149551 -0.988754 45485.6 6462.81)" fill="#F5F1F1"/>
</g>
<g id="Fill 9">
<use xlink:href="#path6_fill" transform="matrix(-0.988754 0.149551 -0.149551 -0.988754 45450.8 6498.75)" fill="#F5F1F1"/>
</g>
<g id="Fill 10">
<use xlink:href="#path7_fill" transform="matrix(-0.988754 0.149551 -0.149551 -0.988754 45448.8 6501.62)" fill="#F5F1F1"/>
</g>
<g id="Fill 11">
<use xlink:href="#path8_fill" transform="matrix(-0.988754 0.149551 -0.149551 -0.988754 45460.2 6440.88)" fill="#F5F1F1"/>
</g>
<g id="Fill 12">
<use xlink:href="#path9_fill" transform="matrix(-0.988754 0.149551 -0.149551 -0.988754 45458 6444.05)" fill="#F5F1F1"/>
</g>
<g id="Fill 13">
<use xlink:href="#path10_fill" transform="matrix(-0.988754 0.149551 -0.149551 -0.988754 45428.5 6476.35)" fill="#F5F1F1"/>
</g>
<g id="Fill 14">
<use xlink:href="#path11_fill" transform="matrix(-0.988754 0.149551 -0.149551 -0.988754 45426.2 6479.26)" fill="#F5F1F1"/>
</g>
<g id="Fill 1">
<use xlink:href="#path1_fill" transform="matrix(-0.988754 0.149551 -0.149551 -0.988754 45401.3 6435.86)" fill="#F5F1F1"/>
</g>
<g id="Fill 2">
<use xlink:href="#path2_fill" transform="matrix(-0.988754 0.149551 -0.149551 -0.988754 45399.1 6438.78)" fill="#F5F1F1"/>
</g>
<g id="Fill 3">
<use xlink:href="#path3_fill" transform="matrix(-0.988754 0.149551 -0.149551 -0.988754 45351.4 6458.62)" fill="#F5F1F1"/>
</g>
<g id="Fill 4">
<use xlink:href="#path4_fill" transform="matrix(-0.988754 0.149551 -0.149551 -0.988754 45350.1 6460.12)" fill="#F5F1F1"/>
</g>
<g id="Fill 5">
<use xlink:href="#path3_fill" transform="matrix(-0.988754 0.149551 -0.149551 -0.988754 45383.5 6490.88)" fill="#F5F1F1"/>
</g>
<g id="Fill 6">
<use xlink:href="#path4_fill" transform="matrix(-0.988754 0.149551 -0.149551 -0.988754 45382.2 6492.38)" fill="#F5F1F1"/>
</g>
<g id="Fill 7">
<use xlink:href="#path5_fill" transform="matrix(-0.988754 0.149551 -0.149551 -0.988754 45404.9 6473.47)" fill="#F5F1F1"/>
</g>
<g id="Fill 8">
<use xlink:href="#path4_fill" transform="matrix(-0.988754 0.149551 -0.149551 -0.988754 45403.6 6475.22)" fill="#F5F1F1"/>
</g>
<g id="Fill 9">
<use xlink:href="#path6_fill" transform="matrix(-0.988754 0.149551 -0.149551 -0.988754 45368.7 6511.16)" fill="#F5F1F1"/>
</g>
<g id="Fill 10">
<use xlink:href="#path7_fill" transform="matrix(-0.988754 0.149551 -0.149551 -0.988754 45366.8 6514.04)" fill="#F5F1F1"/>
</g>
<g id="Fill 11">
<use xlink:href="#path8_fill" transform="matrix(-0.988754 0.149551 -0.149551 -0.988754 45378.1 6453.3)" fill="#F5F1F1"/>
</g>
<g id="Fill 12">
<use xlink:href="#path9_fill" transform="matrix(-0.988754 0.149551 -0.149551 -0.988754 45375.9 6456.46)" fill="#F5F1F1"/>
</g>
<g id="Fill 13">
<use xlink:href="#path10_fill" transform="matrix(-0.988754 0.149551 -0.149551 -0.988754 45346.4 6488.76)" fill="#F5F1F1"/>
</g>
<g id="Fill 14">
<use xlink:href="#path11_fill" transform="matrix(-0.988754 0.149551 -0.149551 -0.988754 45344.2 6491.68)" fill="#F5F1F1"/>
</g>
<g id="Fill 1">
<use xlink:href="#path1_fill" transform="matrix(-0.988754 0.149551 -0.149551 -0.988754 45648.5 6398.48)" fill="#F5F1F1"/>
</g>
<g id="Fill 2">
<use xlink:href="#path2_fill" transform="matrix(-0.988754 0.149551 -0.149551 -0.988754 45646.3 6401.39)" fill="#F5F1F1"/>
</g>
<g id="Fill 3">
<use xlink:href="#path3_fill" transform="matrix(-0.988754 0.149551 -0.149551 -0.988754 45598.6 6421.23)" fill="#F5F1F1"/>
</g>
<g id="Fill 4">
<use xlink:href="#path4_fill" transform="matrix(-0.988754 0.149551 -0.149551 -0.988754 45597.3 6422.73)" fill="#F5F1F1"/>
</g>
<g id="Fill 5">
<use xlink:href="#path3_fill" transform="matrix(-0.988754 0.149551 -0.149551 -0.988754 45630.7 6453.49)" fill="#F5F1F1"/>
</g>
<g id="Fill 6">
<use xlink:href="#path4_fill" transform="matrix(-0.988754 0.149551 -0.149551 -0.988754 45629.3 6454.99)" fill="#F5F1F1"/>
</g>
<g id="Fill 7">
<use xlink:href="#path5_fill" transform="matrix(-0.988754 0.149551 -0.149551 -0.988754 45652.1 6436.08)" fill="#F5F1F1"/>
</g>
<g id="Fill 8">
<use xlink:href="#path4_fill" transform="matrix(-0.988754 0.149551 -0.149551 -0.988754 45650.8 6437.83)" fill="#F5F1F1"/>
</g>
<g id="Fill 9">
<use xlink:href="#path6_fill" transform="matrix(-0.988754 0.149551 -0.149551 -0.988754 45615.9 6473.77)" fill="#F5F1F1"/>
</g>
<g id="Fill 10">
<use xlink:href="#path7_fill" transform="matrix(-0.988754 0.149551 -0.149551 -0.988754 45613.9 6476.65)" fill="#F5F1F1"/>
</g>
<g id="Fill 11">
<use xlink:href="#path8_fill" transform="matrix(-0.988754 0.149551 -0.149551 -0.988754 45625.3 6415.91)" fill="#F5F1F1"/>
</g>
<g id="Fill 12">
<use xlink:href="#path9_fill" transform="matrix(-0.988754 0.149551 -0.149551 -0.988754 45623.1 6419.07)" fill="#F5F1F1"/>
</g>
<g id="Fill 13">
<use xlink:href="#path10_fill" transform="matrix(-0.988754 0.149551 -0.149551 -0.988754 45593.6 6451.38)" fill="#F5F1F1"/>
</g>
<g id="Fill 14">
<use xlink:href="#path11_fill" transform="matrix(-0.988754 0.149551 -0.149551 -0.988754 45591.4 6454.29)" fill="#F5F1F1"/>
</g>
<g id="Fill 1">
<use xlink:href="#path1_fill" transform="matrix(-0.988754 0.149551 -0.149551 -0.988754 45731.6 6385.91)" fill="#F5F1F1"/>
</g>
<g id="Fill 2">
<use xlink:href="#path2_fill" transform="matrix(-0.988754 0.149551 -0.149551 -0.988754 45729.4 6388.83)" fill="#F5F1F1"/>
</g>
<g id="Fill 3">
<use xlink:href="#path3_fill" transform="matrix(-0.988754 0.149551 -0.149551 -0.988754 45681.7 6408.67)" fill="#F5F1F1"/>
</g>
<g id="Fill 4">
<use xlink:href="#path4_fill" transform="matrix(-0.988754 0.149551 -0.149551 -0.988754 45680.3 6410.17)" fill="#F5F1F1"/>
</g>
<g id="Fill 5">
<use xlink:href="#path3_fill" transform="matrix(-0.988754 0.149551 -0.149551 -0.988754 45713.8 6440.93)" fill="#F5F1F1"/>
</g>
<g id="Fill 6">
<use xlink:href="#path4_fill" transform="matrix(-0.988754 0.149551 -0.149551 -0.988754 45712.4 6442.43)" fill="#F5F1F1"/>
</g>
<g id="Fill 7">
<use xlink:href="#path5_fill" transform="matrix(-0.988754 0.149551 -0.149551 -0.988754 45735.1 6423.52)" fill="#F5F1F1"/>
</g>
<g id="Fill 8">
<use xlink:href="#path4_fill" transform="matrix(-0.988754 0.149551 -0.149551 -0.988754 45733.8 6425.27)" fill="#F5F1F1"/>
</g>
<g id="Fill 9">
<use xlink:href="#path6_fill" transform="matrix(-0.988754 0.149551 -0.149551 -0.988754 45699 6461.21)" fill="#F5F1F1"/>
</g>
<g id="Fill 10">
<use xlink:href="#path7_fill" transform="matrix(-0.988754 0.149551 -0.149551 -0.988754 45697 6464.08)" fill="#F5F1F1"/>
</g>
<g id="Fill 11">
<use xlink:href="#path8_fill" transform="matrix(-0.988754 0.149551 -0.149551 -0.988754 45708.4 6403.35)" fill="#F5F1F1"/>
</g>
<g id="Fill 12">
<use xlink:href="#path9_fill" transform="matrix(-0.988754 0.149551 -0.149551 -0.988754 45706.2 6406.51)" fill="#F5F1F1"/>
</g>
<g id="Fill 13">
<use xlink:href="#path10_fill" transform="matrix(-0.988754 0.149551 -0.149551 -0.988754 45676.6 6438.81)" fill="#F5F1F1"/>
</g>
<g id="Fill 14">
<use xlink:href="#path11_fill" transform="matrix(-0.988754 0.149551 -0.149551 -0.988754 45674.4 6441.73)" fill="#F5F1F1"/>
</g>
<g id="Fill 1">
<use xlink:href="#path1_fill" transform="matrix(-0.988754 0.149551 -0.149551 -0.988754 45553.9 6327.83)" fill="#F5F1F1"/>
</g>
<g id="Fill 2">
<use xlink:href="#path2_fill" transform="matrix(-0.988754 0.149551 -0.149551 -0.988754 45551.7 6330.75)" fill="#F5F1F1"/>
</g>
<g id="Fill 3">
<use xlink:href="#path3_fill" transform="matrix(-0.988754 0.149551 -0.149551 -0.988754 45504 6350.59)" fill="#F5F1F1"/>
</g>
<g id="Fill 4">
<use xlink:href="#path4_fill" transform="matrix(-0.988754 0.149551 -0.149551 -0.988754 45502.6 6352.08)" fill="#F5F1F1"/>
</g>
<g id="Fill 5">
<use xlink:href="#path3_fill" transform="matrix(-0.988754 0.149551 -0.149551 -0.988754 45536.1 6382.85)" fill="#F5F1F1"/>
</g>
<g id="Fill 6">
<use xlink:href="#path4_fill" transform="matrix(-0.988754 0.149551 -0.149551 -0.988754 45534.7 6384.35)" fill="#F5F1F1"/>
</g>
<g id="Fill 7">
<use xlink:href="#path5_fill" transform="matrix(-0.988754 0.149551 -0.149551 -0.988754 45557.5 6365.44)" fill="#F5F1F1"/>
</g>
<g id="Fill 8">
<use xlink:href="#path4_fill" transform="matrix(-0.988754 0.149551 -0.149551 -0.988754 45556.1 6367.19)" fill="#F5F1F1"/>
</g>
<g id="Fill 9">
<use xlink:href="#path6_fill" transform="matrix(-0.988754 0.149551 -0.149551 -0.988754 45521.3 6403.13)" fill="#F5F1F1"/>
</g>
<g id="Fill 10">
<use xlink:href="#path7_fill" transform="matrix(-0.988754 0.149551 -0.149551 -0.988754 45519.3 6406)" fill="#F5F1F1"/>
</g>
<g id="Fill 11">
<use xlink:href="#path8_fill" transform="matrix(-0.988754 0.149551 -0.149551 -0.988754 45530.7 6345.27)" fill="#F5F1F1"/>
</g>
<g id="Fill 12">
<use xlink:href="#path9_fill" transform="matrix(-0.988754 0.149551 -0.149551 -0.988754 45528.5 6348.43)" fill="#F5F1F1"/>
</g>
<g id="Fill 13">
<use xlink:href="#path10_fill" transform="matrix(-0.988754 0.149551 -0.149551 -0.988754 45499 6380.73)" fill="#F5F1F1"/>
</g>
<g id="Fill 14">
<use xlink:href="#path11_fill" transform="matrix(-0.988754 0.149551 -0.149551 -0.988754 45496.7 6383.65)" fill="#F5F1F1"/>
</g>
<g id="Fill 1">
<use xlink:href="#path1_fill" transform="matrix(-0.988754 0.149551 -0.149551 -0.988754 45470.8 6340.4)" fill="#F5F1F1"/>
</g>
<g id="Fill 2">
<use xlink:href="#path2_fill" transform="matrix(-0.988754 0.149551 -0.149551 -0.988754 45468.6 6343.31)" fill="#F5F1F1"/>
</g>
<g id="Fill 3">
<use xlink:href="#path3_fill" transform="matrix(-0.988754 0.149551 -0.149551 -0.988754 45420.9 6363.15)" fill="#F5F1F1"/>
</g>
<g id="Fill 4">
<use xlink:href="#path4_fill" transform="matrix(-0.988754 0.149551 -0.149551 -0.988754 45419.6 6364.65)" fill="#F5F1F1"/>
</g>
<g id="Fill 5">
<use xlink:href="#path3_fill" transform="matrix(-0.988754 0.149551 -0.149551 -0.988754 45453 6395.41)" fill="#F5F1F1"/>
</g>
<g id="Fill 6">
<use xlink:href="#path4_fill" transform="matrix(-0.988754 0.149551 -0.149551 -0.988754 45451.7 6396.91)" fill="#F5F1F1"/>
</g>
<g id="Fill 7">
<use xlink:href="#path5_fill" transform="matrix(-0.988754 0.149551 -0.149551 -0.988754 45474.4 6378)" fill="#F5F1F1"/>
</g>
<g id="Fill 8">
<use xlink:href="#path4_fill" transform="matrix(-0.988754 0.149551 -0.149551 -0.988754 45473.1 6379.75)" fill="#F5F1F1"/>
</g>
<g id="Fill 9">
<use xlink:href="#path6_fill" transform="matrix(-0.988754 0.149551 -0.149551 -0.988754 45438.2 6415.69)" fill="#F5F1F1"/>
</g>
<g id="Fill 10">
<use xlink:href="#path7_fill" transform="matrix(-0.988754 0.149551 -0.149551 -0.988754 45436.3 6418.57)" fill="#F5F1F1"/>
</g>
<g id="Fill 11">
<use xlink:href="#path8_fill" transform="matrix(-0.988754 0.149551 -0.149551 -0.988754 45447.6 6357.83)" fill="#F5F1F1"/>
</g>
<g id="Fill 12">
<use xlink:href="#path9_fill" transform="matrix(-0.988754 0.149551 -0.149551 -0.988754 45445.4 6360.99)" fill="#F5F1F1"/>
</g>
<g id="Fill 13">
<use xlink:href="#path10_fill" transform="matrix(-0.988754 0.149551 -0.149551 -0.988754 45415.9 6393.3)" fill="#F5F1F1"/>
</g>
<g id="Fill 14">
<use xlink:href="#path11_fill" transform="matrix(-0.988754 0.149551 -0.149551 -0.988754 45413.7 6396.21)" fill="#F5F1F1"/>
</g>
<g id="Fill 1">
<use xlink:href="#path1_fill" transform="matrix(-0.988754 0.149551 -0.149551 -0.988754 45388.8 6352.81)" fill="#F5F1F1"/>
</g>
<g id="Fill 2">
<use xlink:href="#path2_fill" transform="matrix(-0.988754 0.149551 -0.149551 -0.988754 45386.6 6355.72)" fill="#F5F1F1"/>
</g>
<g id="Fill 5">
<use xlink:href="#path3_fill" transform="matrix(-0.988754 0.149551 -0.149551 -0.988754 45371 6407.82)" fill="#F5F1F1"/>
</g>
<g id="Fill 6">
<use xlink:href="#path4_fill" transform="matrix(-0.988754 0.149551 -0.149551 -0.988754 45369.6 6409.32)" fill="#F5F1F1"/>
</g>
<g id="Fill 7">
<use xlink:href="#path5_fill" transform="matrix(-0.988754 0.149551 -0.149551 -0.988754 45392.3 6390.42)" fill="#F5F1F1"/>
</g>
<g id="Fill 8">
<use xlink:href="#path4_fill" transform="matrix(-0.988754 0.149551 -0.149551 -0.988754 45391 6392.16)" fill="#F5F1F1"/>
</g>
<g id="Fill 9">
<use xlink:href="#path6_fill" transform="matrix(-0.988754 0.149551 -0.149551 -0.988754 45356.2 6428.1)" fill="#F5F1F1"/>
</g>
<g id="Fill 10">
<use xlink:href="#path7_fill" transform="matrix(-0.988754 0.149551 -0.149551 -0.988754 45354.2 6430.98)" fill="#F5F1F1"/>
</g>
<g id="Fill 11">
<use xlink:href="#path8_fill" transform="matrix(-0.988754 0.149551 -0.149551 -0.988754 45365.5 6370.24)" fill="#F5F1F1"/>
</g>
<g id="Fill 12">
<use xlink:href="#path9_fill" transform="matrix(-0.988754 0.149551 -0.149551 -0.988754 45363.4 6373.41)" fill="#F5F1F1"/>
</g>
<g id="Fill 13">
<use xlink:href="#path10_fill" transform="matrix(-0.988754 0.149551 -0.149551 -0.988754 45333.8 6405.71)" fill="#F5F1F1"/>
</g>
<g id="Fill 14">
<use xlink:href="#path11_fill" transform="matrix(-0.988754 0.149551 -0.149551 -0.988754 45331.6 6408.62)" fill="#F5F1F1"/>
</g>
<g id="Fill 1">
<use xlink:href="#path1_fill" transform="matrix(-0.988754 0.149551 -0.149551 -0.988754 45636 6315.42)" fill="#F5F1F1"/>
</g>
<g id="Fill 2">
<use xlink:href="#path2_fill" transform="matrix(-0.988754 0.149551 -0.149551 -0.988754 45633.7 6318.33)" fill="#F5F1F1"/>
</g>
<g id="Fill 3">
<use xlink:href="#path3_fill" transform="matrix(-0.988754 0.149551 -0.149551 -0.988754 45586.1 6338.18)" fill="#F5F1F1"/>
</g>
<g id="Fill 4">
<use xlink:href="#path4_fill" transform="matrix(-0.988754 0.149551 -0.149551 -0.988754 45584.7 6339.67)" fill="#F5F1F1"/>
</g>
<g id="Fill 5">
<use xlink:href="#path3_fill" transform="matrix(-0.988754 0.149551 -0.149551 -0.988754 45618.2 6370.44)" fill="#F5F1F1"/>
</g>
<g id="Fill 6">
<use xlink:href="#path4_fill" transform="matrix(-0.988754 0.149551 -0.149551 -0.988754 45616.8 6371.93)" fill="#F5F1F1"/>
</g>
<g id="Fill 7">
<use xlink:href="#path5_fill" transform="matrix(-0.988754 0.149551 -0.149551 -0.988754 45639.5 6353.03)" fill="#F5F1F1"/>
</g>
<g id="Fill 8">
<use xlink:href="#path4_fill" transform="matrix(-0.988754 0.149551 -0.149551 -0.988754 45638.2 6354.78)" fill="#F5F1F1"/>
</g>
<g id="Fill 9">
<use xlink:href="#path6_fill" transform="matrix(-0.988754 0.149551 -0.149551 -0.988754 45603.3 6390.72)" fill="#F5F1F1"/>
</g>
<g id="Fill 10">
<use xlink:href="#path7_fill" transform="matrix(-0.988754 0.149551 -0.149551 -0.988754 45601.4 6393.59)" fill="#F5F1F1"/>
</g>
<g id="Fill 11">
<use xlink:href="#path8_fill" transform="matrix(-0.988754 0.149551 -0.149551 -0.988754 45612.7 6332.85)" fill="#F5F1F1"/>
</g>
<g id="Fill 12">
<use xlink:href="#path9_fill" transform="matrix(-0.988754 0.149551 -0.149551 -0.988754 45610.5 6336.02)" fill="#F5F1F1"/>
</g>
<g id="Fill 13">
<use xlink:href="#path10_fill" transform="matrix(-0.988754 0.149551 -0.149551 -0.988754 45581 6368.32)" fill="#F5F1F1"/>
</g>
<g id="Fill 14">
<use xlink:href="#path11_fill" transform="matrix(-0.988754 0.149551 -0.149551 -0.988754 45578.8 6371.23)" fill="#F5F1F1"/>
</g>
<g id="Fill 3">
<use xlink:href="#path3_fill" transform="matrix(-0.988754 0.149551 -0.149551 -0.988754 45669.1 6325.61)" fill="#F5F1F1"/>
</g>
<g id="Fill 4">
<use xlink:href="#path4_fill" transform="matrix(-0.988754 0.149551 -0.149551 -0.988754 45667.7 6327.11)" fill="#F5F1F1"/>
</g>
<g id="Fill 5">
<use xlink:href="#path3_fill" transform="matrix(-0.988754 0.149551 -0.149551 -0.988754 45701.2 6357.87)" fill="#F5F1F1"/>
</g>
<g id="Fill 6">
<use xlink:href="#path4_fill" transform="matrix(-0.988754 0.149551 -0.149551 -0.988754 45699.8 6359.37)" fill="#F5F1F1"/>
</g>
<g id="Fill 7">
<use xlink:href="#path5_fill" transform="matrix(-0.988754 0.149551 -0.149551 -0.988754 45722.6 6340.47)" fill="#F5F1F1"/>
</g>
<g id="Fill 8">
<use xlink:href="#path4_fill" transform="matrix(-0.988754 0.149551 -0.149551 -0.988754 45721.2 6342.21)" fill="#F5F1F1"/>
</g>
<g id="Fill 9">
<use xlink:href="#path6_fill" transform="matrix(-0.988754 0.149551 -0.149551 -0.988754 45686.4 6378.15)" fill="#F5F1F1"/>
</g>
<g id="Fill 10">
<use xlink:href="#path7_fill" transform="matrix(-0.988754 0.149551 -0.149551 -0.988754 45684.4 6381.03)" fill="#F5F1F1"/>
</g>
<g id="Fill 11">
<use xlink:href="#path8_fill" transform="matrix(-0.988754 0.149551 -0.149551 -0.988754 45695.8 6320.29)" fill="#F5F1F1"/>
</g>
<g id="Fill 12">
<use xlink:href="#path9_fill" transform="matrix(-0.988754 0.149551 -0.149551 -0.988754 45693.6 6323.46)" fill="#F5F1F1"/>
</g>
<g id="Fill 13">
<use xlink:href="#path10_fill" transform="matrix(-0.988754 0.149551 -0.149551 -0.988754 45664.1 6355.76)" fill="#F5F1F1"/>
</g>
<g id="Fill 14">
<use xlink:href="#path11_fill" transform="matrix(-0.988754 0.149551 -0.149551 -0.988754 45661.9 6358.67)" fill="#F5F1F1"/>
</g>
<g id="Fill 1">
<use xlink:href="#path1_fill" transform="matrix(-0.988754 0.149551 -0.149551 -0.988754 45541.3 6244.78)" fill="#F5F1F1"/>
</g>
<g id="Fill 2">
<use xlink:href="#path2_fill" transform="matrix(-0.988754 0.149551 -0.149551 -0.988754 45539.1 6247.69)" fill="#F5F1F1"/>
</g>
<g id="Fill 3">
<use xlink:href="#path3_fill" transform="matrix(-0.988754 0.149551 -0.149551 -0.988754 45491.4 6267.53)" fill="#F5F1F1"/>
</g>
<g id="Fill 4">
<use xlink:href="#path4_fill" transform="matrix(-0.988754 0.149551 -0.149551 -0.988754 45490.1 6269.03)" fill="#F5F1F1"/>
</g>
<g id="Fill 5">
<use xlink:href="#path3_fill" transform="matrix(-0.988754 0.149551 -0.149551 -0.988754 45523.5 6299.79)" fill="#F5F1F1"/>
</g>
<g id="Fill 6">
<use xlink:href="#path4_fill" transform="matrix(-0.988754 0.149551 -0.149551 -0.988754 45522.1 6301.29)" fill="#F5F1F1"/>
</g>
<g id="Fill 7">
<use xlink:href="#path5_fill" transform="matrix(-0.988754 0.149551 -0.149551 -0.988754 45544.9 6282.39)" fill="#F5F1F1"/>
</g>
<g id="Fill 8">
<use xlink:href="#path4_fill" transform="matrix(-0.988754 0.149551 -0.149551 -0.988754 45543.6 6284.13)" fill="#F5F1F1"/>
</g>
<g id="Fill 9">
<use xlink:href="#path6_fill" transform="matrix(-0.988754 0.149551 -0.149551 -0.988754 45508.7 6320.07)" fill="#F5F1F1"/>
</g>
<g id="Fill 10">
<use xlink:href="#path7_fill" transform="matrix(-0.988754 0.149551 -0.149551 -0.988754 45506.8 6322.95)" fill="#F5F1F1"/>
</g>
<g id="Fill 11">
<use xlink:href="#path8_fill" transform="matrix(-0.988754 0.149551 -0.149551 -0.988754 45518.1 6262.21)" fill="#F5F1F1"/>
</g>
<g id="Fill 12">
<use xlink:href="#path9_fill" transform="matrix(-0.988754 0.149551 -0.149551 -0.988754 45515.9 6265.38)" fill="#F5F1F1"/>
</g>
<g id="Fill 13">
<use xlink:href="#path10_fill" transform="matrix(-0.988754 0.149551 -0.149551 -0.988754 45486.4 6297.68)" fill="#F5F1F1"/>
</g>
<g id="Fill 14">
<use xlink:href="#path11_fill" transform="matrix(-0.988754 0.149551 -0.149551 -0.988754 45484.2 6300.59)" fill="#F5F1F1"/>
</g>
<g id="Fill 1">
<use xlink:href="#path1_fill" transform="matrix(-0.988754 0.149551 -0.149551 -0.988754 45458.3 6257.34)" fill="#F5F1F1"/>
</g>
<g id="Fill 2">
<use xlink:href="#path2_fill" transform="matrix(-0.988754 0.149551 -0.149551 -0.988754 45456.1 6260.25)" fill="#F5F1F1"/>
</g>
<g id="Fill 3">
<use xlink:href="#path3_fill" transform="matrix(-0.988754 0.149551 -0.149551 -0.988754 45408.4 6280.1)" fill="#F5F1F1"/>
</g>
<g id="Fill 4">
<use xlink:href="#path4_fill" transform="matrix(-0.988754 0.149551 -0.149551 -0.988754 45407 6281.59)" fill="#F5F1F1"/>
</g>
<g id="Fill 5">
<use xlink:href="#path3_fill" transform="matrix(-0.988754 0.149551 -0.149551 -0.988754 45440.5 6312.36)" fill="#F5F1F1"/>
</g>
<g id="Fill 6">
<use xlink:href="#path4_fill" transform="matrix(-0.988754 0.149551 -0.149551 -0.988754 45439.1 6313.85)" fill="#F5F1F1"/>
</g>
<g id="Fill 7">
<use xlink:href="#path5_fill" transform="matrix(-0.988754 0.149551 -0.149551 -0.988754 45461.8 6294.95)" fill="#F5F1F1"/>
</g>
<g id="Fill 8">
<use xlink:href="#path4_fill" transform="matrix(-0.988754 0.149551 -0.149551 -0.988754 45460.5 6296.7)" fill="#F5F1F1"/>
</g>
<g id="Fill 9">
<use xlink:href="#path6_fill" transform="matrix(-0.988754 0.149551 -0.149551 -0.988754 45425.7 6332.64)" fill="#F5F1F1"/>
</g>
<g id="Fill 10">
<use xlink:href="#path7_fill" transform="matrix(-0.988754 0.149551 -0.149551 -0.988754 45423.7 6335.51)" fill="#F5F1F1"/>
</g>
<g id="Fill 11">
<use xlink:href="#path8_fill" transform="matrix(-0.988754 0.149551 -0.149551 -0.988754 45435.1 6274.77)" fill="#F5F1F1"/>
</g>
<g id="Fill 12">
<use xlink:href="#path9_fill" transform="matrix(-0.988754 0.149551 -0.149551 -0.988754 45432.9 6277.94)" fill="#F5F1F1"/>
</g>
<g id="Fill 13">
<use xlink:href="#path10_fill" transform="matrix(-0.988754 0.149551 -0.149551 -0.988754 45403.3 6310.24)" fill="#F5F1F1"/>
</g>
<g id="Fill 14">
<use xlink:href="#path11_fill" transform="matrix(-0.988754 0.149551 -0.149551 -0.988754 45401.1 6313.15)" fill="#F5F1F1"/>
</g>
<g id="Fill 5">
<use xlink:href="#path3_fill" transform="matrix(-0.988754 0.149551 -0.149551 -0.988754 45358.4 6324.77)" fill="#F5F1F1"/>
</g>
<g id="Fill 6">
<use xlink:href="#path4_fill" transform="matrix(-0.988754 0.149551 -0.149551 -0.988754 45357 6326.27)" fill="#F5F1F1"/>
</g>
<g id="Fill 7">
<use xlink:href="#path5_fill" transform="matrix(-0.988754 0.149551 -0.149551 -0.988754 45379.8 6307.36)" fill="#F5F1F1"/>
</g>
<g id="Fill 8">
<use xlink:href="#path4_fill" transform="matrix(-0.988754 0.149551 -0.149551 -0.988754 45378.4 6309.11)" fill="#F5F1F1"/>
</g>
<g id="Fill 3">
<use xlink:href="#path3_fill" transform="matrix(-0.988754 0.149551 -0.149551 -0.988754 45573.5 6255.12)" fill="#F5F1F1"/>
</g>
<g id="Fill 4">
<use xlink:href="#path4_fill" transform="matrix(-0.988754 0.149551 -0.149551 -0.988754 45572.1 6256.62)" fill="#F5F1F1"/>
</g>
<g id="Fill 5">
<use xlink:href="#path3_fill" transform="matrix(-0.988754 0.149551 -0.149551 -0.988754 45605.6 6287.38)" fill="#F5F1F1"/>
</g>
<g id="Fill 6">
<use xlink:href="#path4_fill" transform="matrix(-0.988754 0.149551 -0.149551 -0.988754 45604.2 6288.88)" fill="#F5F1F1"/>
</g>
<g id="Fill 7">
<use xlink:href="#path5_fill" transform="matrix(-0.988754 0.149551 -0.149551 -0.988754 45627 6269.97)" fill="#F5F1F1"/>
</g>
<g id="Fill 8">
<use xlink:href="#path4_fill" transform="matrix(-0.988754 0.149551 -0.149551 -0.988754 45625.6 6271.72)" fill="#F5F1F1"/>
</g>
<g id="Fill 9">
<use xlink:href="#path6_fill" transform="matrix(-0.988754 0.149551 -0.149551 -0.988754 45590.8 6307.66)" fill="#F5F1F1"/>
</g>
<g id="Fill 10">
<use xlink:href="#path7_fill" transform="matrix(-0.988754 0.149551 -0.149551 -0.988754 45588.8 6310.54)" fill="#F5F1F1"/>
</g>
<g id="Fill 11">
<use xlink:href="#path8_fill" transform="matrix(-0.988754 0.149551 -0.149551 -0.988754 45600.2 6249.8)" fill="#F5F1F1"/>
</g>
<g id="Fill 12">
<use xlink:href="#path9_fill" transform="matrix(-0.988754 0.149551 -0.149551 -0.988754 45598 6252.96)" fill="#F5F1F1"/>
</g>
<g id="Fill 13">
<use xlink:href="#path10_fill" transform="matrix(-0.988754 0.149551 -0.149551 -0.988754 45568.5 6285.27)" fill="#F5F1F1"/>
</g>
<g id="Fill 14">
<use xlink:href="#path11_fill" transform="matrix(-0.988754 0.149551 -0.149551 -0.988754 45566.2 6288.18)" fill="#F5F1F1"/>
</g>
<g id="Fill 9">
<use xlink:href="#path6_fill" transform="matrix(-0.988754 0.149551 -0.149551 -0.988754 45673.8 6295.1)" fill="#F5F1F1"/>
</g>
<g id="Fill 10">
<use xlink:href="#path7_fill" transform="matrix(-0.988754 0.149551 -0.149551 -0.988754 45671.9 6297.97)" fill="#F5F1F1"/>
</g>
<g id="Fill 13">
<use xlink:href="#path10_fill" transform="matrix(-0.988754 0.149551 -0.149551 -0.988754 45651.5 6272.7)" fill="#F5F1F1"/>
</g>
<g id="Fill 14">
<use xlink:href="#path11_fill" transform="matrix(-0.988754 0.149551 -0.149551 -0.988754 45649.3 6275.62)" fill="#F5F1F1"/>
</g>
<g id="Fill 1">
<use xlink:href="#path1_fill" transform="matrix(-0.988754 0.149551 -0.149551 -0.988754 45578.9 6492.96)" fill="#F5F1F1"/>
</g>
<g id="Fill 2">
<use xlink:href="#path2_fill" transform="matrix(-0.988754 0.149551 -0.149551 -0.988754 45576.7 6495.87)" fill="#F5F1F1"/>
</g>
<g id="Fill 3">
<use xlink:href="#path3_fill" transform="matrix(-0.988754 0.149551 -0.149551 -0.988754 45529 6515.71)" fill="#F5F1F1"/>
</g>
<g id="Fill 4">
<use xlink:href="#path4_fill" transform="matrix(-0.988754 0.149551 -0.149551 -0.988754 45527.6 6517.21)" fill="#F5F1F1"/>
</g>
<g id="Fill 5">
<use xlink:href="#path3_fill" transform="matrix(-0.988754 0.149551 -0.149551 -0.988754 45561.1 6547.97)" fill="#F5F1F1"/>
</g>
<g id="Fill 6">
<use xlink:href="#path4_fill" transform="matrix(-0.988754 0.149551 -0.149551 -0.988754 45559.7 6549.47)" fill="#F5F1F1"/>
</g>
<g id="Fill 7">
<use xlink:href="#path5_fill" transform="matrix(-0.988754 0.149551 -0.149551 -0.988754 45582.4 6530.56)" fill="#F5F1F1"/>
</g>
<g id="Fill 8">
<use xlink:href="#path4_fill" transform="matrix(-0.988754 0.149551 -0.149551 -0.988754 45581.1 6532.31)" fill="#F5F1F1"/>
</g>
<g id="Fill 9">
<use xlink:href="#path6_fill" transform="matrix(-0.988754 0.149551 -0.149551 -0.988754 45546.3 6568.25)" fill="#F5F1F1"/>
</g>
<g id="Fill 10">
<use xlink:href="#path7_fill" transform="matrix(-0.988754 0.149551 -0.149551 -0.988754 45544.3 6571.13)" fill="#F5F1F1"/>
</g>
<g id="Fill 11">
<use xlink:href="#path8_fill" transform="matrix(-0.988754 0.149551 -0.149551 -0.988754 45555.6 6510.39)" fill="#F5F1F1"/>
</g>
<g id="Fill 12">
<use xlink:href="#path9_fill" transform="matrix(-0.988754 0.149551 -0.149551 -0.988754 45553.5 6513.55)" fill="#F5F1F1"/>
</g>
<g id="Fill 13">
<use xlink:href="#path10_fill" transform="matrix(-0.988754 0.149551 -0.149551 -0.988754 45523.9 6545.85)" fill="#F5F1F1"/>
</g>
<g id="Fill 14">
<use xlink:href="#path11_fill" transform="matrix(-0.988754 0.149551 -0.149551 -0.988754 45521.7 6548.77)" fill="#F5F1F1"/>
</g>
<g id="Fill 1">
<use xlink:href="#path1_fill" transform="matrix(-0.988754 0.149551 -0.149551 -0.988754 45495.8 6505.52)" fill="#F5F1F1"/>
</g>
<g id="Fill 2">
<use xlink:href="#path2_fill" transform="matrix(-0.988754 0.149551 -0.149551 -0.988754 45493.6 6508.43)" fill="#F5F1F1"/>
</g>
<g id="Fill 3">
<use xlink:href="#path3_fill" transform="matrix(-0.988754 0.149551 -0.149551 -0.988754 45445.9 6528.27)" fill="#F5F1F1"/>
</g>
<g id="Fill 4">
<use xlink:href="#path4_fill" transform="matrix(-0.988754 0.149551 -0.149551 -0.988754 45444.5 6529.77)" fill="#F5F1F1"/>
</g>
<g id="Fill 5">
<use xlink:href="#path3_fill" transform="matrix(-0.988754 0.149551 -0.149551 -0.988754 45478 6560.53)" fill="#F5F1F1"/>
</g>
<g id="Fill 6">
<use xlink:href="#path4_fill" transform="matrix(-0.988754 0.149551 -0.149551 -0.988754 45476.6 6562.03)" fill="#F5F1F1"/>
</g>
<g id="Fill 7">
<use xlink:href="#path5_fill" transform="matrix(-0.988754 0.149551 -0.149551 -0.988754 45499.4 6543.12)" fill="#F5F1F1"/>
</g>
<g id="Fill 8">
<use xlink:href="#path4_fill" transform="matrix(-0.988754 0.149551 -0.149551 -0.988754 45498 6544.87)" fill="#F5F1F1"/>
</g>
<g id="Fill 9">
<use xlink:href="#path6_fill" transform="matrix(-0.988754 0.149551 -0.149551 -0.988754 45463.2 6580.81)" fill="#F5F1F1"/>
</g>
<g id="Fill 10">
<use xlink:href="#path7_fill" transform="matrix(-0.988754 0.149551 -0.149551 -0.988754 45461.2 6583.69)" fill="#F5F1F1"/>
</g>
<g id="Fill 11">
<use xlink:href="#path8_fill" transform="matrix(-0.988754 0.149551 -0.149551 -0.988754 45472.6 6522.95)" fill="#F5F1F1"/>
</g>
<g id="Fill 12">
<use xlink:href="#path9_fill" transform="matrix(-0.988754 0.149551 -0.149551 -0.988754 45470.4 6526.12)" fill="#F5F1F1"/>
</g>
<g id="Fill 13">
<use xlink:href="#path10_fill" transform="matrix(-0.988754 0.149551 -0.149551 -0.988754 45440.9 6558.42)" fill="#F5F1F1"/>
</g>
<g id="Fill 14">
<use xlink:href="#path11_fill" transform="matrix(-0.988754 0.149551 -0.149551 -0.988754 45438.6 6561.33)" fill="#F5F1F1"/>
</g>
<g id="Fill 1">
<use xlink:href="#path1_fill" transform="matrix(-0.988754 0.149551 -0.149551 -0.988754 45413.8 6517.93)" fill="#F5F1F1"/>
</g>
<g id="Fill 2">
<use xlink:href="#path2_fill" transform="matrix(-0.988754 0.149551 -0.149551 -0.988754 45411.5 6520.84)" fill="#F5F1F1"/>
</g>
<g id="Fill 3">
<use xlink:href="#path3_fill" transform="matrix(-0.988754 0.149551 -0.149551 -0.988754 45363.9 6540.69)" fill="#F5F1F1"/>
</g>
<g id="Fill 4">
<use xlink:href="#path4_fill" transform="matrix(-0.988754 0.149551 -0.149551 -0.988754 45362.5 6542.18)" fill="#F5F1F1"/>
</g>
<g id="Fill 5">
<use xlink:href="#path3_fill" transform="matrix(-0.988754 0.149551 -0.149551 -0.988754 45395.9 6572.95)" fill="#F5F1F1"/>
</g>
<g id="Fill 6">
<use xlink:href="#path4_fill" transform="matrix(-0.988754 0.149551 -0.149551 -0.988754 45394.6 6574.44)" fill="#F5F1F1"/>
</g>
<g id="Fill 7">
<use xlink:href="#path5_fill" transform="matrix(-0.988754 0.149551 -0.149551 -0.988754 45417.3 6555.54)" fill="#F5F1F1"/>
</g>
<g id="Fill 8">
<use xlink:href="#path4_fill" transform="matrix(-0.988754 0.149551 -0.149551 -0.988754 45416 6557.29)" fill="#F5F1F1"/>
</g>
<g id="Fill 9">
<use xlink:href="#path6_fill" transform="matrix(-0.988754 0.149551 -0.149551 -0.988754 45381.1 6593.23)" fill="#F5F1F1"/>
</g>
<g id="Fill 10">
<use xlink:href="#path7_fill" transform="matrix(-0.988754 0.149551 -0.149551 -0.988754 45379.2 6596.1)" fill="#F5F1F1"/>
</g>
<g id="Fill 11">
<use xlink:href="#path8_fill" transform="matrix(-0.988754 0.149551 -0.149551 -0.988754 45390.5 6535.36)" fill="#F5F1F1"/>
</g>
<g id="Fill 12">
<use xlink:href="#path9_fill" transform="matrix(-0.988754 0.149551 -0.149551 -0.988754 45388.3 6538.53)" fill="#F5F1F1"/>
</g>
<g id="Fill 13">
<use xlink:href="#path10_fill" transform="matrix(-0.988754 0.149551 -0.149551 -0.988754 45358.8 6570.83)" fill="#F5F1F1"/>
</g>
<g id="Fill 14">
<use xlink:href="#path11_fill" transform="matrix(-0.988754 0.149551 -0.149551 -0.988754 45356.6 6573.74)" fill="#F5F1F1"/>
</g>
<g id="Fill 1">
<use xlink:href="#path1_fill" transform="matrix(-0.988754 0.149551 -0.149551 -0.988754 45660.9 6480.54)" fill="#F5F1F1"/>
</g>
<g id="Fill 2">
<use xlink:href="#path2_fill" transform="matrix(-0.988754 0.149551 -0.149551 -0.988754 45658.7 6483.46)" fill="#F5F1F1"/>
</g>
<g id="Fill 3">
<use xlink:href="#path3_fill" transform="matrix(-0.988754 0.149551 -0.149551 -0.988754 45611 6503.3)" fill="#F5F1F1"/>
</g>
<g id="Fill 4">
<use xlink:href="#path4_fill" transform="matrix(-0.988754 0.149551 -0.149551 -0.988754 45609.7 6504.79)" fill="#F5F1F1"/>
</g>
<g id="Fill 5">
<use xlink:href="#path3_fill" transform="matrix(-0.988754 0.149551 -0.149551 -0.988754 45643.1 6535.56)" fill="#F5F1F1"/>
</g>
<g id="Fill 6">
<use xlink:href="#path4_fill" transform="matrix(-0.988754 0.149551 -0.149551 -0.988754 45641.8 6537.05)" fill="#F5F1F1"/>
</g>
<g id="Fill 7">
<use xlink:href="#path5_fill" transform="matrix(-0.988754 0.149551 -0.149551 -0.988754 45664.5 6518.15)" fill="#F5F1F1"/>
</g>
<g id="Fill 8">
<use xlink:href="#path4_fill" transform="matrix(-0.988754 0.149551 -0.149551 -0.988754 45663.2 6519.9)" fill="#F5F1F1"/>
</g>
<g id="Fill 9">
<use xlink:href="#path6_fill" transform="matrix(-0.988754 0.149551 -0.149551 -0.988754 45628.3 6555.84)" fill="#F5F1F1"/>
</g>
<g id="Fill 10">
<use xlink:href="#path7_fill" transform="matrix(-0.988754 0.149551 -0.149551 -0.988754 45626.4 6558.71)" fill="#F5F1F1"/>
</g>
<g id="Fill 11">
<use xlink:href="#path8_fill" transform="matrix(-0.988754 0.149551 -0.149551 -0.988754 45637.7 6497.98)" fill="#F5F1F1"/>
</g>
<g id="Fill 12">
<use xlink:href="#path9_fill" transform="matrix(-0.988754 0.149551 -0.149551 -0.988754 45635.5 6501.14)" fill="#F5F1F1"/>
</g>
<g id="Fill 13">
<use xlink:href="#path10_fill" transform="matrix(-0.988754 0.149551 -0.149551 -0.988754 45606 6533.44)" fill="#F5F1F1"/>
</g>
<g id="Fill 14">
<use xlink:href="#path11_fill" transform="matrix(-0.988754 0.149551 -0.149551 -0.988754 45603.8 6536.36)" fill="#F5F1F1"/>
</g>
<g id="Fill 1">
<use xlink:href="#path1_fill" transform="matrix(-0.988754 0.149551 -0.149551 -0.988754 45744 6467.98)" fill="#F5F1F1"/>
</g>
<g id="Fill 2">
<use xlink:href="#path2_fill" transform="matrix(-0.988754 0.149551 -0.149551 -0.988754 45741.8 6470.89)" fill="#F5F1F1"/>
</g>
<g id="Fill 3">
<use xlink:href="#path3_fill" transform="matrix(-0.988754 0.149551 -0.149551 -0.988754 45694.1 6490.73)" fill="#F5F1F1"/>
</g>
<g id="Fill 4">
<use xlink:href="#path4_fill" transform="matrix(-0.988754 0.149551 -0.149551 -0.988754 45692.7 6492.23)" fill="#F5F1F1"/>
</g>
<g id="Fill 5">
<use xlink:href="#path3_fill" transform="matrix(-0.988754 0.149551 -0.149551 -0.988754 45726.2 6523)" fill="#F5F1F1"/>
</g>
<g id="Fill 6">
<use xlink:href="#path4_fill" transform="matrix(-0.988754 0.149551 -0.149551 -0.988754 45724.8 6524.49)" fill="#F5F1F1"/>
</g>
<g id="Fill 9">
<use xlink:href="#path6_fill" transform="matrix(-0.988754 0.149551 -0.149551 -0.988754 45711.4 6543.28)" fill="#F5F1F1"/>
</g>
<g id="Fill 10">
<use xlink:href="#path7_fill" transform="matrix(-0.988754 0.149551 -0.149551 -0.988754 45709.4 6546.15)" fill="#F5F1F1"/>
</g>
<g id="Fill 11">
<use xlink:href="#path8_fill" transform="matrix(-0.988754 0.149551 -0.149551 -0.988754 45720.8 6485.41)" fill="#F5F1F1"/>
</g>
<g id="Fill 12">
<use xlink:href="#path9_fill" transform="matrix(-0.988754 0.149551 -0.149551 -0.988754 45718.6 6488.58)" fill="#F5F1F1"/>
</g>
<g id="Fill 13">
<use xlink:href="#path10_fill" transform="matrix(-0.988754 0.149551 -0.149551 -0.988754 45689.1 6520.88)" fill="#F5F1F1"/>
</g>
<g id="Fill 14">
<use xlink:href="#path11_fill" transform="matrix(-0.988754 0.149551 -0.149551 -0.988754 45686.8 6523.79)" fill="#F5F1F1"/>
</g>
<g id="Fill 1">
<use xlink:href="#path13_fill" transform="matrix(-0.988754 0.149551 -0.149551 -0.988754 45591.5 6576.13)" fill="#F5F1F1"/>
</g>
<g id="Fill 2">
<use xlink:href="#path14_fill" transform="matrix(-0.988754 0.149551 -0.149551 -0.988754 45588.8 6578.55)" fill="#F5F1F1"/>
</g>
<g id="Fill 3">
<use xlink:href="#path15_fill" transform="matrix(-0.988754 0.149551 -0.149551 -0.988754 45541.3 6598.89)" fill="#F5F1F1"/>
</g>
<g id="Fill 4">
<use xlink:href="#path16_fill" transform="matrix(-0.988754 0.149551 -0.149551 -0.988754 45540.5 6600.02)" fill="#F5F1F1"/>
</g>
<g id="Fill 5">
<use xlink:href="#path15_fill" transform="matrix(-0.988754 0.149551 -0.149551 -0.988754 45573.5 6631.43)" fill="#F5F1F1"/>
</g>
<g id="Fill 6">
<use xlink:href="#path16_fill" transform="matrix(-0.988754 0.149551 -0.149551 -0.988754 45572.7 6632.57)" fill="#F5F1F1"/>
</g>
<g id="Fill 7">
<use xlink:href="#path17_fill" transform="matrix(-0.988754 0.149551 -0.149551 -0.988754 45595.2 6614)" fill="#F5F1F1"/>
</g>
<g id="Fill 8">
<use xlink:href="#path16_fill" transform="matrix(-0.988754 0.149551 -0.149551 -0.988754 45593.3 6615.29)" fill="#F5F1F1"/>
</g>
<g id="Fill 11">
<use xlink:href="#path18_fill" transform="matrix(-0.988754 0.149551 -0.149551 -0.988754 45567.8 6593.86)" fill="#F5F1F1"/>
</g>
<g id="Fill 12">
<use xlink:href="#path19_fill" transform="matrix(-0.988754 0.149551 -0.149551 -0.988754 45566.2 6596.14)" fill="#F5F1F1"/>
</g>
<g id="Fill 13">
<use xlink:href="#path20_fill" transform="matrix(-0.988754 0.149551 -0.149551 -0.988754 45536.7 6628.91)" fill="#F5F1F1"/>
</g>
<g id="Fill 14">
<use xlink:href="#path21_fill" transform="matrix(-0.988754 0.149551 -0.149551 -0.988754 45534.2 6632.32)" fill="#F5F1F1"/>
</g>
<g id="Fill 1">
<use xlink:href="#path1_fill" transform="matrix(-0.988754 0.149551 -0.149551 -0.988754 45508.4 6588.57)" fill="#F5F1F1"/>
</g>
<g id="Fill 2">
<use xlink:href="#path2_fill" transform="matrix(-0.988754 0.149551 -0.149551 -0.988754 45506.2 6591.49)" fill="#F5F1F1"/>
</g>
<g id="Fill 3">
<use xlink:href="#path3_fill" transform="matrix(-0.988754 0.149551 -0.149551 -0.988754 45458.5 6611.33)" fill="#F5F1F1"/>
</g>
<g id="Fill 4">
<use xlink:href="#path4_fill" transform="matrix(-0.988754 0.149551 -0.149551 -0.988754 45457.1 6612.82)" fill="#F5F1F1"/>
</g>
<g id="Fill 5">
<use xlink:href="#path3_fill" transform="matrix(-0.988754 0.149551 -0.149551 -0.988754 45490.6 6643.59)" fill="#F5F1F1"/>
</g>
<g id="Fill 6">
<use xlink:href="#path4_fill" transform="matrix(-0.988754 0.149551 -0.149551 -0.988754 45489.2 6645.09)" fill="#F5F1F1"/>
</g>
<g id="Fill 7">
<use xlink:href="#path5_fill" transform="matrix(-0.988754 0.149551 -0.149551 -0.988754 45511.9 6626.18)" fill="#F5F1F1"/>
</g>
<g id="Fill 8">
<use xlink:href="#path4_fill" transform="matrix(-0.988754 0.149551 -0.149551 -0.988754 45510.6 6627.93)" fill="#F5F1F1"/>
</g>
<g id="Fill 11">
<use xlink:href="#path8_fill" transform="matrix(-0.988754 0.149551 -0.149551 -0.988754 45485.1 6606.01)" fill="#F5F1F1"/>
</g>
<g id="Fill 12">
<use xlink:href="#path9_fill" transform="matrix(-0.988754 0.149551 -0.149551 -0.988754 45483 6609.17)" fill="#F5F1F1"/>
</g>
<g id="Fill 13">
<use xlink:href="#path10_fill" transform="matrix(-0.988754 0.149551 -0.149551 -0.988754 45453.4 6641.47)" fill="#F5F1F1"/>
</g>
<g id="Fill 14">
<use xlink:href="#path11_fill" transform="matrix(-0.988754 0.149551 -0.149551 -0.988754 45451.2 6644.39)" fill="#F5F1F1"/>
</g>
<g id="Fill 1">
<use xlink:href="#path1_fill" transform="matrix(-0.988754 0.149551 -0.149551 -0.988754 45426.3 6600.99)" fill="#F5F1F1"/>
</g>
<g id="Fill 2">
<use xlink:href="#path2_fill" transform="matrix(-0.988754 0.149551 -0.149551 -0.988754 45424.1 6603.9)" fill="#F5F1F1"/>
</g>
<g id="Fill 7">
<use xlink:href="#path5_fill" transform="matrix(-0.988754 0.149551 -0.149551 -0.988754 45429.9 6638.59)" fill="#F5F1F1"/>
</g>
<g id="Fill 8">
<use xlink:href="#path4_fill" transform="matrix(-0.988754 0.149551 -0.149551 -0.988754 45428.5 6640.34)" fill="#F5F1F1"/>
</g>
<g id="Fill 11">
<use xlink:href="#path8_fill" transform="matrix(-0.988754 0.149551 -0.149551 -0.988754 45403.1 6618.42)" fill="#F5F1F1"/>
</g>
<g id="Fill 12">
<use xlink:href="#path9_fill" transform="matrix(-0.988754 0.149551 -0.149551 -0.988754 45400.9 6621.58)" fill="#F5F1F1"/>
</g>
<g id="Fill 1">
<use xlink:href="#path1_fill" transform="matrix(-0.988754 0.149551 -0.149551 -0.988754 45673.5 6563.6)" fill="#F5F1F1"/>
</g>
<g id="Fill 2">
<use xlink:href="#path2_fill" transform="matrix(-0.988754 0.149551 -0.149551 -0.988754 45671.3 6566.51)" fill="#F5F1F1"/>
</g>
<g id="Fill 3">
<use xlink:href="#path3_fill" transform="matrix(-0.988754 0.149551 -0.149551 -0.988754 45623.6 6586.35)" fill="#F5F1F1"/>
</g>
<g id="Fill 4">
<use xlink:href="#path4_fill" transform="matrix(-0.988754 0.149551 -0.149551 -0.988754 45622.2 6587.85)" fill="#F5F1F1"/>
</g>
<g id="Fill 5">
<use xlink:href="#path3_fill" transform="matrix(-0.988754 0.149551 -0.149551 -0.988754 45655.7 6618.61)" fill="#F5F1F1"/>
</g>
<g id="Fill 6">
<use xlink:href="#path4_fill" transform="matrix(-0.988754 0.149551 -0.149551 -0.988754 45654.3 6620.11)" fill="#F5F1F1"/>
</g>
<g id="Fill 7">
<use xlink:href="#path5_fill" transform="matrix(-0.988754 0.149551 -0.149551 -0.988754 45677.1 6601.21)" fill="#F5F1F1"/>
</g>
<g id="Fill 8">
<use xlink:href="#path4_fill" transform="matrix(-0.988754 0.149551 -0.149551 -0.988754 45675.7 6602.95)" fill="#F5F1F1"/>
</g>
<g id="Fill 11">
<use xlink:href="#path8_fill" transform="matrix(-0.988754 0.149551 -0.149551 -0.988754 45650.3 6581.03)" fill="#F5F1F1"/>
</g>
<g id="Fill 12">
<use xlink:href="#path9_fill" transform="matrix(-0.988754 0.149551 -0.149551 -0.988754 45648.1 6584.2)" fill="#F5F1F1"/>
</g>
<g id="Fill 13">
<use xlink:href="#path10_fill" transform="matrix(-0.988754 0.149551 -0.149551 -0.988754 45618.6 6616.5)" fill="#F5F1F1"/>
</g>
<g id="Fill 14">
<use xlink:href="#path11_fill" transform="matrix(-0.988754 0.149551 -0.149551 -0.988754 45616.3 6619.41)" fill="#F5F1F1"/>
</g>
<g id="Fill 3">
<use xlink:href="#path3_fill" transform="matrix(-0.988754 0.149551 -0.149551 -0.988754 45706.7 6573.79)" fill="#F5F1F1"/>
</g>
<g id="Fill 4">
<use xlink:href="#path4_fill" transform="matrix(-0.988754 0.149551 -0.149551 -0.988754 45705.3 6575.29)" fill="#F5F1F1"/>
</g>
</g>
</g>
</g>
</g>
<defs>
<linearGradient id="paint162_linear" x1="0" y1="0" x2="1" y2="0" gradientUnits="userSpaceOnUse" gradientTransform="matrix(3.2357e-14 377.49 -528.429 2.31146e-14 1008.42 -8.1808e-13)">
<stop offset="0" stop-color="#FF4A68"/>
<stop offset="1" stop-color="#330099"/>
</linearGradient>
<path id="path0_fill" d="M 0 0L 343 0L 343 269L 0 269L 0 0Z"/>
<path id="path1_fill" fill-rule="evenodd" d="M 0 2.21461L 9.19154 4.33226L 9.75824 2.11744L 0.566483 0L 0 2.21461Z"/>
<path id="path2_fill" fill-rule="evenodd" d="M 0 8.88165L 2.29192 9.42903L 4.48352 0.547172L 2.19138 0L 0 8.88165Z"/>
<path id="path3_fill" fill-rule="evenodd" d="M 1.10222 6.11613L 0 4.10246L 8.3925 0L 9.49451 2.01367L 1.10222 6.11613Z"/>
<path id="path4_fill" fill-rule="evenodd" d="M 4.2457 9.17419L 6.32967 8.10918L 2.08397 0L 0 1.06501L 4.2457 9.17419Z"/>
<path id="path5_fill" fill-rule="evenodd" d="M 1.1022 6.11613L 0 4.10267L 8.39231 0L 9.49451 2.01388L 1.1022 6.11613Z"/>
<path id="path6_fill" fill-rule="evenodd" d="M 9.25892 0L 9.75824 2.2202L 0.49932 4.07742L 0 1.85721L 9.25892 0Z"/>
<path id="path7_fill" fill-rule="evenodd" d="M 2.29688 0L 0 0.482475L 1.92204 9.42903L 4.21978 8.94656L 2.29774 0L 2.29688 0Z"/>
<path id="path8_fill" fill-rule="evenodd" d="M 9.25913 0L 9.75824 2.2202L 0.499331 4.07742L 0 1.85721L 9.25913 0Z"/>
<path id="path9_fill" fill-rule="evenodd" d="M 2.29794 0L 0 0.482475L 1.92227 9.42903L 4.21978 8.94656L 2.29794 0Z"/>
<path id="path10_fill" fill-rule="evenodd" d="M 0 1.8574L 0.49932 4.07742L 9.75824 2.22043L 9.75824 2.21939L 9.25892 0L 0 1.8574Z"/>
<path id="path11_fill" fill-rule="evenodd" d="M 2.29784 0L 0 0.482263L 1.92216 9.42903L 4.21978 8.94656L 2.29784 0Z"/>
<path id="path12_fill" fill-rule="evenodd" d="M 977.711 600C 1143.39 600 1277.71 465.686 1277.71 300C 1277.71 134.314 1143.39 0 977.711 0C 812.027 0 677.711 134.314 677.711 300C 677.711 465.686 812.027 600 977.711 600ZM 10.125 1795.15C 11.8125 1796.7 14.0977 1797.47 16.9453 1797.47C 19.7578 1797.47 22.043 1796.7 23.7305 1795.15C 25.418 1793.6 26.2969 1791.6 26.2969 1789.21C 26.2969 1786.82 25.418 1784.81 23.7305 1783.27C 22.043 1781.72 19.7578 1780.95 16.9453 1780.95C 14.0977 1780.95 11.8125 1781.72 10.125 1783.27C 8.4375 1784.81 7.59375 1786.82 7.59375 1789.21C 7.59375 1791.6 8.4375 1793.6 10.125 1795.15ZM 6.50391 1779.93C 9.38672 1777.25 12.8672 1775.88 16.9453 1775.88C 21.0234 1775.88 24.4688 1777.25 27.3516 1779.93C 30.2344 1782.6 31.6758 1785.69 31.6758 1789.21C 31.6758 1790.61 31.4648 1791.91 31.0078 1793.18C 30.5508 1794.45 30.0234 1795.43 29.3906 1796.17C 28.7578 1796.91 28.1602 1797.54 27.5273 1798.1C 26.8945 1798.66 26.3672 1799.05 25.9102 1799.3L 25.207 1799.65L 26.1562 1800.07C 26.543 1800.21 27.2109 1800.67 28.1953 1801.41C 29.1797 1802.11 30.0586 1802.92 30.832 1803.76C 31.6055 1804.61 32.2734 1805.8 32.9062 1807.35C 33.5391 1808.89 33.8203 1810.51 33.8203 1812.27C 33.8203 1816.49 32.2031 1820.11 28.9688 1823.17C 25.7344 1826.19 21.7266 1827.74 16.9102 1827.74C 12.1289 1827.74 8.08594 1826.19 4.85156 1823.17C 1.61719 1820.11 0 1816.49 0 1812.27C 0 1810.51 0.316406 1808.89 0.914062 1807.38C 1.51172 1805.87 2.21484 1804.68 3.05859 1803.76C 3.90234 1802.85 4.74609 1802.07 5.58984 1801.44C 6.43359 1800.77 7.13672 1800.32 7.76953 1800.07L 8.64844 1799.65C 8.53516 1799.6 8.39062 1799.53 8.23047 1799.44L 7.94531 1799.3C 7.66406 1799.16 7.13672 1798.77 6.36328 1798.17C 5.625 1797.57 4.95703 1796.91 4.39453 1796.17C 3.83203 1795.43 3.30469 1794.45 2.84766 1793.18C 2.39062 1791.91 2.17969 1790.61 2.17969 1789.21C 2.17969 1785.69 3.62109 1782.6 6.50391 1779.93ZM 25.0664 1804.96C 22.8164 1802.85 20.0742 1801.79 16.9102 1801.79C 13.7461 1801.79 11.0391 1802.85 8.78906 1804.96C 6.53906 1807.07 5.37891 1809.49 5.37891 1812.23C 5.37891 1815.08 6.46875 1817.54 8.57812 1819.62C 10.6875 1821.66 13.5 1822.71 16.9453 1822.71C 20.3906 1822.71 23.168 1821.66 25.2773 1819.62C 27.3867 1817.54 28.4414 1815.08 28.4414 1812.23C 28.4414 1809.49 27.3164 1807.07 25.0664 1804.96ZM 52.2422 1786.46C 49.3242 1790.19 47.8828 1795.29 47.8828 1801.83C 47.8828 1808.37 49.3242 1813.46 52.2422 1817.16C 55.125 1820.85 58.6406 1822.71 62.7188 1822.71C 66.7266 1822.71 70.207 1820.85 73.0898 1817.12C 75.9727 1813.39 77.4141 1808.3 77.4141 1801.79C 77.4141 1795.25 75.9375 1790.16 73.0547 1786.46C 70.1367 1782.77 66.6562 1780.91 62.6484 1780.91C 58.6055 1780.91 55.125 1782.77 52.2422 1786.46ZM 76.8516 1783.02C 80.8242 1787.77 82.8281 1794.02 82.8281 1801.83C 82.8281 1809.6 80.8242 1815.86 76.8867 1820.6C 72.9141 1825.35 68.2031 1827.74 62.7188 1827.74C 57.1641 1827.74 52.418 1825.35 48.4453 1820.6C 44.4727 1815.86 42.5039 1809.6 42.5039 1801.83C 42.5039 1794.02 44.4727 1787.77 48.4805 1783.02C 52.4531 1778.27 57.1641 1775.92 62.6484 1775.92C 68.1328 1775.92 72.8438 1778.27 76.8516 1783.02ZM 101.32 1800.42C 98.7891 1803.09 97.5586 1806.19 97.5586 1809.74C 97.5586 1813.29 98.7891 1816.38 101.32 1819.05C 103.852 1821.73 106.664 1823.03 109.793 1823.03C 112.746 1823.03 115.418 1821.76 117.773 1819.16C 120.129 1816.56 121.324 1813.43 121.324 1809.74C 121.324 1806.05 120.129 1802.92 117.773 1800.32C 115.418 1797.71 112.746 1796.41 109.793 1796.41C 106.664 1796.41 103.852 1797.75 101.32 1800.42ZM 98.0508 1822.25L 97.5586 1821.59L 97.5586 1842.15L 92.5312 1842.15L 92.5312 1792.48L 97.5586 1792.48L 97.5586 1797.89C 97.6289 1797.75 97.8047 1797.5 98.0508 1797.22C 98.2969 1796.94 98.7891 1796.45 99.5625 1795.75C 100.336 1795.04 101.145 1794.41 102.059 1793.85C 102.938 1793.29 104.062 1792.79 105.469 1792.37C 106.875 1791.95 108.316 1791.74 109.793 1791.74C 114.188 1791.74 118.055 1793.5 121.359 1797.05C 124.664 1800.56 126.352 1804.82 126.352 1809.74C 126.352 1814.66 124.699 1818.91 121.395 1822.43C 118.09 1825.95 114.223 1827.7 109.793 1827.7C 108.316 1827.7 106.875 1827.49 105.504 1827.07C 104.133 1826.65 102.973 1826.16 102.059 1825.56C 101.109 1825 100.301 1824.4 99.5977 1823.8C 98.8945 1823.2 98.4023 1822.68 98.0508 1822.25ZM 156.938 1827L 146.848 1812.97L 136.793 1827L 130.641 1827L 143.613 1809L 131.73 1792.44L 137.848 1792.44L 146.848 1805.03L 155.848 1792.44L 161.965 1792.44L 150.082 1809L 163.055 1827L 156.938 1827Z"/>
<path id="path13_fill" fill-rule="evenodd" d="M 0 2.04476L 9.41926 4L 10 1.95505L 0.580518 0L 0 2.04476Z"/>
<path id="path14_fill" fill-rule="evenodd" d="M 0 8.47752L 2.04476 9L 4 0.522275L 1.95505 0L 0 8.47752Z"/>
<path id="path15_fill" fill-rule="evenodd" d="M 1.04482 6L 0 4.02457L 7.95539 0L 9 1.97543L 1.04482 6Z"/>
<path id="path16_fill" fill-rule="evenodd" d="M 4.02457 9L 6 7.95521L 1.97543 0L 0 1.04479L 4.02457 9Z"/>
<path id="path17_fill" fill-rule="evenodd" d="M 1.04479 6L 0 4.02477L 7.95521 0L 9 1.97564L 1.04479 6Z"/>
<path id="path18_fill" fill-rule="evenodd" d="M 9.48852 0L 10 2.17805L 0.511702 4L 0 1.82195L 9.48852 0Z"/>
<path id="path19_fill" fill-rule="evenodd" d="M 2.17825 0L 0 0.460522L 1.82215 9L 4 8.53948L 2.17825 0Z"/>
<path id="path20_fill" fill-rule="evenodd" d="M 0 1.82214L 0.511691 4L 10 2.17827L 10 2.17725L 9.48831 0L 0 1.82214Z"/>
<path id="path21_fill" fill-rule="evenodd" d="M 2.17816 0L 0 0.460319L 1.82204 9L 4 8.53948L 2.17816 0Z"/>
</defs>
</svg>
