<svg width="1366" height="1789" viewBox="0 0 1366 1789" version="1.1" xmlns="http://www.w3.org/2000/svg" xmlns:xlink="http://www.w3.org/1999/xlink">
<title>&#208;&#162;&#209;&#141;&#208;&#179;&#208;&#184; &#208;&#189;&#208;&#176; &#208;&#179;&#209;&#128;&#208;&#176;&#208;&#180;&#208;&#184;&#208;&#181;&#208;&#189;&#209;&#130;&#208;&#181;</title>
<desc>Created using Figma</desc>
<g id="Canvas" transform="translate(-35109 -8076)">
<g id="&#208;&#162;&#209;&#141;&#208;&#179;&#208;&#184; &#208;&#189;&#208;&#176; &#208;&#179;&#209;&#128;&#208;&#176;&#208;&#180;&#208;&#184;&#208;&#181;&#208;&#189;&#209;&#130;&#208;&#181;">
<g id="&#208;&#147;&#209;&#128;&#208;&#176;&#208;&#180;&#208;&#184;&#208;&#181;&#208;&#189;&#209;&#130;">
<use xlink:href="#path0_fill" transform="translate(35110 8076)" fill="url(#paint0_linear)" style="mix-blend-mode:multiply"/>
</g>
<g id="&#209;&#133;&#209;&#141;&#209;&#136;&#209;&#130;&#208;&#181;&#208;&#179;&#208;&#184;">
<g id="#&#208;&#160;&#208;&#158;&#208;&#156;&#208;&#144;&#208;&#157;&#208;&#158;&#208;&#146;&#208;&#171;_&#208;&#160;&#208;&#144;&#208;&#161;&#208;&#161;&#208;&#162;&#208;&#160;&#208;&#149;&#208;&#155;&#208;&#175;&#208;&#157;&#208;&#171;">
<use xlink:href="#path1_fill" transform="translate(35107 8605)" fill="#F5F1F1"/>
</g>
<g id="#&#208;&#160;&#208;&#158;&#208;&#156;&#208;&#144;&#208;&#157;&#208;&#158;&#208;&#146;&#208;&#171;_&#208;&#160;&#208;&#144;&#208;&#161;&#208;&#161;&#208;&#162;&#208;&#160;&#208;&#149;&#208;&#155;&#208;&#175;&#208;&#157;&#208;&#171;">
<use xlink:href="#path1_fill" transform="translate(34779 8728)" fill="#F5F1F1"/>
</g>
<g id="#&#208;&#160;&#208;&#158;&#208;&#156;&#208;&#144;&#208;&#157;&#208;&#158;&#208;&#146;&#208;&#171;_&#208;&#160;&#208;&#144;&#208;&#161;&#208;&#161;&#208;&#162;&#208;&#160;&#208;&#149;&#208;&#155;&#208;&#175;&#208;&#157;&#208;&#171;">
<use xlink:href="#path1_fill" transform="translate(34462 8851)" fill="#F5F1F1"/>
</g>
<g id="#&#208;&#160;&#208;&#158;&#208;&#156;&#208;&#144;&#208;&#157;&#208;&#158;&#208;&#146;&#208;&#171;_&#208;&#160;&#208;&#144;&#208;&#161;&#208;&#161;&#208;&#162;&#208;&#160;&#208;&#149;&#208;&#155;&#208;&#175;&#208;&#157;&#208;&#171;">
<use xlink:href="#path1_fill" transform="translate(34102 8971)" fill="#F5F1F1"/>
</g>
<g id="#&#208;&#160;&#208;&#158;&#208;&#156;&#208;&#144;&#208;&#157;&#208;&#158;&#208;&#146;&#208;&#171;_&#208;&#160;&#208;&#144;&#208;&#161;&#208;&#161;&#208;&#162;&#208;&#160;&#208;&#149;&#208;&#155;&#208;&#175;&#208;&#157;&#208;&#171;">
<use xlink:href="#path1_fill" transform="translate(35107 9094)" fill="#F5F1F1"/>
</g>
<g id="#&#208;&#160;&#208;&#158;&#208;&#156;&#208;&#144;&#208;&#157;&#208;&#158;&#208;&#146;&#208;&#171;_&#208;&#160;&#208;&#144;&#208;&#161;&#208;&#161;&#208;&#162;&#208;&#160;&#208;&#149;&#208;&#155;&#208;&#175;&#208;&#157;&#208;&#171;">
<use xlink:href="#path1_fill" transform="translate(35471 8971)" fill="#F5F1F1"/>
</g>
<g id="#&#208;&#160;&#208;&#158;&#208;&#156;&#208;&#144;&#208;&#157;&#208;&#158;&#208;&#146;&#208;&#171;_&#208;&#160;&#208;&#144;&#208;&#161;&#208;&#161;&#208;&#162;&#208;&#160;&#208;&#149;&#208;&#155;&#208;&#175;&#208;&#157;&#208;&#171;">
<use xlink:href="#path1_fill" transform="translate(35788 8849)" fill="#F5F1F1"/>
</g>
<g id="#&#208;&#160;&#208;&#158;&#208;&#156;&#208;&#144;&#208;&#157;&#208;&#158;&#208;&#146;&#208;&#171;_&#208;&#160;&#208;&#144;&#208;&#161;&#208;&#161;&#208;&#162;&#208;&#160;&#208;&#149;&#208;&#155;&#208;&#175;&#208;&#157;&#208;&#171;">
<use xlink:href="#path1_fill" transform="translate(36123 8728)" fill="#F5F1F1"/>
</g>
</g>
</g>
</g>
<defs>
<linearGradient id="paint0_linear" x1="0" y1="0" x2="1" y2="0" gradientUnits="userSpaceOnUse" gradientTransform="matrix(0 1024.88 -781.982 0 659.748 352.421)">
<stop offset="0" stop-color="#F5F1F1"/>
<stop offset="0.574586" stop-color="#FF4A68"/>
<stop offset="1" stop-color="#F5F1F1"/>
</linearGradient>
<path id="path0_fill" fill-rule="evenodd" d="M 0 0L 1365 0L 1365 1789L 0 1789L 0 0Z"/>
<path id="path1_fill" d="M 53.1259 63.9102L 55.4916 51.5713L 68.2943 51.5713L 70.1962 42.062L 57.3934 42.062L 60.6869 24.4814L 49.786 24.4814L 46.4462 42.062L 32.6693 42.062L 36.0092 24.4814L 25.0619 24.4814L 21.7684 42.062L 8.91931 42.062L 7.01746 51.5713L 19.8666 51.5713L 17.5009 63.9102L 4.65173 63.9102L 2.74988 73.4194L 15.599 73.4194L 12.2592 91L 23.2064 91L 26.4999 73.4194L 40.2767 73.4194L 36.9369 91L 47.8842 91L 51.224 73.4194L 64.0267 73.4194L 65.9286 63.9102L 53.1259 63.9102ZM 42.1786 63.9102L 28.4017 63.9102L 30.7675 51.5713L 44.5443 51.5713L 42.1786 63.9102ZM 75.397 24.4814L 75.397 91L 89.6842 91L 89.6842 69.1519L 103.415 69.1519C 110.28 69.1519 115.939 67.0181 120.439 62.7505C 124.892 58.4829 127.165 53.1484 127.165 46.8398C 127.165 40.5312 124.892 35.1968 120.392 30.9292C 115.893 26.6616 110.233 24.5278 103.415 24.5278L 75.397 24.4814ZM 102.951 37.377C 105.78 37.377 108.146 38.2583 110.048 40.1138C 111.95 41.9692 112.924 44.1958 112.924 46.8862C 112.924 49.5303 111.95 51.7568 110.048 53.6123C 108.146 55.4214 105.78 56.3491 102.951 56.3491L 89.6842 56.3491L 89.6842 37.377L 102.951 37.377ZM 145.215 57.7871C 145.215 51.6641 147.256 46.4688 151.43 42.2476C 155.559 38.0264 160.615 35.8926 166.553 35.8926C 172.49 35.8926 177.546 38.0264 181.675 42.2476C 185.849 46.4688 187.89 51.6641 187.89 57.7871C 187.89 63.9102 185.849 69.1055 181.675 73.2803C 177.546 77.5015 172.49 79.5889 166.553 79.5889C 160.615 79.5889 155.559 77.5015 151.43 73.2803C 147.256 69.1055 145.215 63.9102 145.215 57.7871ZM 130.464 57.7407C 130.464 67.2964 133.943 75.5068 140.901 82.2793C 147.859 89.0518 156.44 92.438 166.553 92.438C 176.665 92.438 185.246 89.0518 192.204 82.2793C 199.162 75.5068 202.641 67.2964 202.641 57.7407C 202.641 48.1851 199.162 40.021 192.204 33.2485C 185.246 26.4761 176.665 23.0898 166.553 23.0898C 156.44 23.0898 147.859 26.4761 140.901 33.2485C 133.943 40.021 130.464 48.1851 130.464 57.7407ZM 245.926 53.4731L 223.15 24.4814L 210.301 24.4814L 210.301 91L 224.588 91L 224.588 46.8398L 245.926 73.8833L 267.31 46.6543L 267.31 91L 281.551 91L 281.551 24.4814L 268.934 24.4814L 245.926 53.4731ZM 327.154 62.9824L 310.966 62.9824L 319.083 41.1343L 327.154 62.9824ZM 331.886 75.3213L 337.591 91L 352.806 91L 326.644 24.4814L 311.476 24.4814L 285.314 91L 300.529 91L 306.234 75.3213L 331.886 75.3213ZM 413.625 24.4814L 399.384 24.4814L 399.384 51.1074L 370.903 51.1074L 370.903 24.4814L 356.616 24.4814L 356.616 91L 370.903 91L 370.903 63.9102L 399.384 63.9102L 399.384 91L 413.625 91L 413.625 24.4814ZM 435.989 57.7871C 435.989 51.6641 438.03 46.4688 442.205 42.2476C 446.333 38.0264 451.389 35.8926 457.327 35.8926C 463.264 35.8926 468.32 38.0264 472.449 42.2476C 476.624 46.4688 478.665 51.6641 478.665 57.7871C 478.665 63.9102 476.624 69.1055 472.449 73.2803C 468.32 77.5015 463.264 79.5889 457.327 79.5889C 451.389 79.5889 446.333 77.5015 442.205 73.2803C 438.03 69.1055 435.989 63.9102 435.989 57.7871ZM 421.238 57.7407C 421.238 67.2964 424.717 75.5068 431.675 82.2793C 438.633 89.0518 447.214 92.438 457.327 92.438C 467.439 92.438 476.021 89.0518 482.979 82.2793C 489.937 75.5068 493.416 67.2964 493.416 57.7407C 493.416 48.1851 489.937 40.021 482.979 33.2485C 476.021 26.4761 467.439 23.0898 457.327 23.0898C 447.214 23.0898 438.633 26.4761 431.675 33.2485C 424.717 40.021 421.238 48.1851 421.238 57.7407ZM 531.226 91C 537.813 91 543.194 89.0981 547.462 85.248C 551.683 81.4443 553.817 76.8521 553.817 71.5176C 553.817 69.3838 553.399 67.3892 552.611 65.5337C 551.822 63.6782 550.941 62.1938 550.013 61.0806C 549.039 60.0137 547.926 59.0396 546.673 58.1118C 545.374 57.1841 544.493 56.6274 544.029 56.3955C 543.565 56.1636 543.148 55.978 542.869 55.8389L 543.658 55.375C 544.122 55.0967 544.771 54.54 545.513 53.7979C 546.256 53.0557 547.044 52.1279 547.833 51.061C 548.575 50.0405 549.224 48.6953 549.735 47.1182C 550.199 45.541 550.477 43.8247 550.477 42.062C 550.477 37.4233 548.482 33.2949 544.539 29.7695C 540.596 26.2441 535.633 24.4814 529.603 24.4814L 501.075 24.4814L 501.075 91L 531.226 91ZM 515.362 79.125L 515.362 62.0083L 530.531 62.0083C 533.128 62.0083 535.262 62.8433 536.978 64.5132C 538.695 66.1831 539.576 68.1777 539.576 70.5898C 539.576 73.002 538.695 75.043 536.978 76.6665C 535.262 78.3364 533.128 79.125 530.531 79.125L 515.362 79.125ZM 528.629 36.3564C 530.948 36.3564 532.803 37.0059 534.195 38.3047C 535.54 39.6035 536.236 41.3662 536.236 43.5C 536.236 45.6802 535.54 47.3965 534.195 48.6953C 532.803 49.9941 530.948 50.6436 528.629 50.6436L 515.362 50.6436L 515.362 36.3564L 528.629 36.3564ZM 634.118 24.4814L 619.877 24.4814L 619.877 91L 634.118 91L 634.118 24.4814ZM 588.52 91C 595.338 91 600.998 88.8662 605.497 84.5986C 609.997 80.3311 612.27 75.043 612.27 68.688C 612.27 62.3794 609.997 57.0449 605.497 52.7773C 600.998 48.5098 595.338 46.3296 588.52 46.3296L 575.717 46.3296L 575.717 24.4814L 561.43 24.4814L 561.43 91L 588.52 91ZM 575.717 78.1973L 575.717 59.1787L 588.056 59.1787C 590.885 59.1787 593.251 60.1064 595.153 61.9619C 597.055 63.8174 598.029 66.0439 598.029 68.688C 598.029 71.3784 597.055 73.605 595.153 75.4604C 593.251 77.3159 590.885 78.1973 588.056 78.1973L 575.717 78.1973ZM 670.722 99.0713L 636.071 99.0713L 636.071 110.946L 670.722 110.946L 670.722 99.0713ZM 672.583 24.4814L 672.583 91L 686.87 91L 686.87 69.1519L 700.601 69.1519C 707.466 69.1519 713.125 67.0181 717.625 62.7505C 722.078 58.4829 724.351 53.1484 724.351 46.8398C 724.351 40.5312 722.078 35.1968 717.578 30.9292C 713.079 26.6616 707.42 24.5278 700.601 24.5278L 672.583 24.4814ZM 700.137 37.377C 702.967 37.377 705.332 38.2583 707.234 40.1138C 709.136 41.9692 710.11 44.1958 710.11 46.8862C 710.11 49.5303 709.136 51.7568 707.234 53.6123C 705.332 55.4214 702.967 56.3491 700.137 56.3491L 686.87 56.3491L 686.87 37.377L 700.137 37.377ZM 765.687 62.9824L 749.498 62.9824L 757.616 41.1343L 765.687 62.9824ZM 770.419 75.3213L 776.124 91L 791.339 91L 765.177 24.4814L 750.008 24.4814L 723.846 91L 739.061 91L 744.767 75.3213L 770.419 75.3213ZM 827.48 23.0898C 817.321 23.0898 808.74 26.4761 801.782 33.2485C 794.824 40.021 791.345 48.1851 791.345 57.7407C 791.345 67.2964 794.824 75.5068 801.782 82.2793C 808.74 89.0518 817.321 92.438 827.48 92.438C 830.912 92.438 834.252 91.9741 837.499 91C 840.746 90.0723 843.344 89.0054 845.339 87.8457C 847.333 86.686 849.189 85.3408 850.951 83.8101C 852.714 82.2793 853.827 81.2124 854.338 80.6094C 854.848 80.0063 855.219 79.4961 855.497 79.125L 846.916 70.0796L 846.174 71.0537C 845.663 71.7495 844.875 72.5381 843.762 73.4658C 842.648 74.3936 841.349 75.3213 839.911 76.249C 838.427 77.1768 836.618 77.9653 834.391 78.6147C 832.165 79.2642 829.892 79.5889 827.48 79.5889C 821.264 79.5889 816.069 77.5015 811.894 73.3267C 807.719 69.1519 805.632 63.9565 805.632 57.7407C 805.632 51.5249 807.719 46.3296 811.894 42.1548C 816.069 37.98 821.264 35.8926 827.48 35.8926C 829.706 35.8926 831.933 36.2637 834.113 36.9595C 836.247 37.6553 838.01 38.3975 839.355 39.2324C 840.654 40.0674 841.906 40.9951 843.019 42.062C 844.133 43.1753 844.875 43.9175 845.2 44.3813C 845.524 44.8452 845.803 45.1699 845.988 45.4019L 855.034 36.3564L 853.967 34.9648C 853.271 34.0835 852.158 32.9702 850.58 31.6714C 849.003 30.3726 847.241 29.0737 845.2 27.7749C 843.159 26.4761 840.607 25.4092 837.453 24.4814C 834.299 23.5537 830.959 23.0898 827.48 23.0898ZM 893.494 23.0898C 883.335 23.0898 874.753 26.4761 867.795 33.2485C 860.837 40.021 857.358 48.1851 857.358 57.7407C 857.358 67.2964 860.837 75.5068 867.795 82.2793C 874.753 89.0518 883.335 92.438 893.494 92.438C 896.926 92.438 900.266 91.9741 903.513 91C 906.76 90.0723 909.358 89.0054 911.353 87.8457C 913.347 86.686 915.203 85.3408 916.965 83.8101C 918.728 82.2793 919.841 81.2124 920.352 80.6094C 920.862 80.0063 921.233 79.4961 921.511 79.125L 912.93 70.0796L 912.188 71.0537C 911.677 71.7495 910.889 72.5381 909.775 73.4658C 908.662 74.3936 907.363 75.3213 905.925 76.249C 904.441 77.1768 902.632 77.9653 900.405 78.6147C 898.179 79.2642 895.906 79.5889 893.494 79.5889C 887.278 79.5889 882.083 77.5015 877.908 73.3267C 873.733 69.1519 871.646 63.9565 871.646 57.7407C 871.646 51.5249 873.733 46.3296 877.908 42.1548C 882.083 37.98 887.278 35.8926 893.494 35.8926C 895.72 35.8926 897.947 36.2637 900.127 36.9595C 902.261 37.6553 904.023 38.3975 905.369 39.2324C 906.667 40.0674 907.92 40.9951 909.033 42.062C 910.146 43.1753 910.889 43.9175 911.213 44.3813C 911.538 44.8452 911.816 45.1699 912.002 45.4019L 921.047 36.3564L 919.98 34.9648C 919.285 34.0835 918.171 32.9702 916.594 31.6714C 915.017 30.3726 913.254 29.0737 911.213 27.7749C 909.172 26.4761 906.621 25.4092 903.467 24.4814C 900.312 23.5537 896.973 23.0898 893.494 23.0898ZM 920.543 24.4814L 920.543 37.3306L 939.561 37.3306L 939.561 91L 953.802 91L 953.802 37.3306L 972.774 37.3306L 972.774 24.4814L 920.543 24.4814ZM 977.511 24.4814L 977.511 91L 991.798 91L 991.798 69.1519L 1005.53 69.1519C 1012.39 69.1519 1018.05 67.0181 1022.55 62.7505C 1027.01 58.4829 1029.28 53.1484 1029.28 46.8398C 1029.28 40.5312 1027.01 35.1968 1022.51 30.9292C 1018.01 26.6616 1012.35 24.5278 1005.53 24.5278L 977.511 24.4814ZM 1005.06 37.377C 1007.89 37.377 1010.26 38.2583 1012.16 40.1138C 1014.06 41.9692 1015.04 44.1958 1015.04 46.8862C 1015.04 49.5303 1014.06 51.7568 1012.16 53.6123C 1010.26 55.4214 1007.89 56.3491 1005.06 56.3491L 991.798 56.3491L 991.798 37.377L 1005.06 37.377ZM 1050.67 78.1973L 1050.67 63.4463L 1077.71 63.4463L 1077.71 50.6436L 1050.67 50.6436L 1050.67 37.3306L 1085.32 37.3306L 1085.32 24.4814L 1036.38 24.4814L 1036.38 91L 1086.29 91L 1086.29 78.1973L 1050.67 78.1973ZM 1149.43 24.4814L 1101.47 24.4814L 1101.47 45.0308C 1101.47 54.1226 1100.91 61.1733 1099.89 66.1831C 1098.87 71.1929 1097.57 74.4863 1096.04 75.9707C 1094.51 77.4551 1092.51 78.1973 1090.06 78.1973C 1088.48 78.1973 1086.9 77.8726 1085.32 77.2231L 1085.32 90.8145L 1086.48 91.1855C 1087.13 91.4639 1088.2 91.7422 1089.64 92.0205C 1091.03 92.2988 1092.47 92.438 1093.86 92.438C 1097.29 92.438 1100.26 91.7422 1102.77 90.3506C 1105.27 88.959 1107.5 86.5933 1109.54 83.1606C 1111.58 79.7744 1113.11 74.9038 1114.13 68.5488C 1115.15 62.1938 1115.71 54.3081 1115.71 44.938L 1115.71 37.3306L 1135.19 37.3306L 1135.19 91L 1149.43 91L 1149.43 24.4814ZM 1210.2 24.4814L 1180.75 24.4814C 1174.16 24.4814 1168.69 26.6152 1164.42 30.79C 1160.11 35.0112 1157.97 40.2065 1157.97 46.376C 1157.97 49.02 1158.39 51.5249 1159.22 53.8906C 1160.06 56.21 1161.03 58.0654 1162.1 59.4106C 1163.12 60.7095 1164.33 61.9619 1165.72 63.1216C 1167.06 64.2349 1167.99 64.9771 1168.55 65.2554C 1169.1 65.5337 1169.52 65.7192 1169.85 65.8584L 1155.61 91.0464L 1170.77 91.0464L 1183.62 67.7603L 1195.96 67.7603L 1195.96 91.0464L 1210.2 91.0464L 1210.2 24.4814ZM 1172.21 46.376C 1172.21 43.7783 1173.05 41.5981 1174.76 39.9282C 1176.48 38.2119 1178.66 37.377 1181.26 37.377L 1195.96 37.377L 1195.96 54.9575L 1181.26 54.9575C 1178.66 54.9575 1176.48 54.1226 1174.76 52.4526C 1173.05 50.7827 1172.21 48.7881 1172.21 46.376ZM 1278.63 24.4814L 1264.39 24.4814L 1264.39 51.1074L 1235.91 51.1074L 1235.91 24.4814L 1221.62 24.4814L 1221.62 91L 1235.91 91L 1235.91 63.9102L 1264.39 63.9102L 1264.39 91L 1278.63 91L 1278.63 24.4814ZM 1362.73 24.4814L 1348.49 24.4814L 1348.49 91L 1362.73 91L 1362.73 24.4814ZM 1317.14 91C 1323.95 91 1329.61 88.8662 1334.11 84.5986C 1338.61 80.3311 1340.89 75.043 1340.89 68.688C 1340.89 62.3794 1338.61 57.0449 1334.11 52.7773C 1329.61 48.5098 1323.95 46.3296 1317.14 46.3296L 1304.33 46.3296L 1304.33 24.4814L 1290.05 24.4814L 1290.05 91L 1317.14 91ZM 1304.33 78.1973L 1304.33 59.1787L 1316.67 59.1787C 1319.5 59.1787 1321.87 60.1064 1323.77 61.9619C 1325.67 63.8174 1326.65 66.0439 1326.65 68.688C 1326.65 71.3784 1325.67 73.605 1323.77 75.4604C 1321.87 77.3159 1319.5 78.1973 1316.67 78.1973L 1304.33 78.1973Z"/>
</defs>
</svg>
