<?xml version="1.0" encoding="UTF-8"?>
<svg width="200px" height="200px" viewBox="0 0 200 200" version="1.1" xmlns="http://www.w3.org/2000/svg" xmlns:xlink="http://www.w3.org/1999/xlink">
    <!-- Generator: Sketch 47.1 (45422) - http://www.bohemiancoding.com/sketch -->
    <title>6_emoji_right</title>
    <desc>Created with Sketch.</desc>
    <defs></defs>
    <g id="Page-1" stroke="none" stroke-width="1" fill="none" fill-rule="evenodd">
        <g id="6_Boldyrev_desktop" transform="translate(-1065.000000, -1831.000000)">
            <g id="Page-1" transform="translate(1065.000000, 1831.000000)">
                <g id="Group-3" fill="#F9C54B">
                    <path d="M199.392839,100.302071 C199.392839,45.2395913 154.755379,0.605484127 99.6996052,0.605484127 C44.637125,0.605484127 -0.00033531746,45.2395913 -0.00033531746,100.302071 C-0.00033531746,155.364552 44.637125,199.998659 99.6996052,199.998659 C154.755379,199.998659 199.392839,155.364552 199.392839,100.302071" id="Fill-1"></path>
                </g>
                <path d="M103.571429,140.50119 L103.571429,140.47619 L103.571429,140.50119 Z" id="Fill-4" fill="#302A1F"></path>
                <path d="M104.761905,145.259524 L104.761905,145.238095 L104.761905,145.259524 Z" id="Fill-6" fill="#302A1F"></path>
                <path d="M104.779762,145.59881 C104.77619,145.480952 104.769048,145.363095 104.761905,145.238095 C104.769048,145.366667 104.77619,145.484524 104.779762,145.59881" id="Fill-8" fill="#302A1F"></path>
                <path d="M108.347619,140.833333 C108.344048,140.715476 108.336905,140.597619 108.333333,140.47619 C108.340476,140.60119 108.344048,140.719048 108.347619,140.833333" id="Fill-10" fill="#302A1F"></path>
                <path d="M101.191599,156.60067 C94.3185259,156.60067 87.9543179,158.152256 82.7604999,161.83009 C82.4348262,162.059954 82.0141642,161.718538 82.1803935,161.356839 C86.2513155,152.68621 93.243124,147.619048 101.191599,147.619048 C109.136682,147.619048 116.12849,152.68621 120.199412,161.356839 C120.369034,161.718538 119.94498,162.059954 119.622699,161.83009 C114.425488,158.152256 108.06128,156.60067 101.191599,156.60067" id="Fill-12" fill="#FEFEFE"></path>
                <path d="M99.4017631,149.346214 C94.1712159,149.346214 89.4310325,151.798725 85.8417029,156.235363 C89.8279937,154.674083 94.3680286,153.886937 99.4017631,153.886937 C104.438833,153.886937 108.972197,154.674083 112.965159,156.23211 C109.372494,151.795472 104.63231,149.346214 99.4017631,149.346214 M118.742779,159.29287 C118.742779,159.29287 118.746115,159.296123 118.74945,159.296123 C118.746115,159.296123 118.742779,159.296123 118.742779,159.29287 M116.18755,161.37783 C116.18755,161.381082 116.190886,161.387588 116.190886,161.394093 C116.190886,161.387588 116.18755,161.381082 116.18755,161.37783 M117.748708,163.095238 C117.245001,163.095238 116.737958,162.945615 116.300967,162.639865 C111.850999,159.556336 106.163446,157.988551 99.4017631,157.988551 C92.6434158,157.988551 86.9591987,159.556336 82.5025589,162.643117 C81.5785401,163.283893 80.3342836,163.238355 79.4603019,162.532527 C78.6029992,161.829951 78.3294629,160.64598 78.7998119,159.650664 C83.1296909,150.624512 90.8320719,145.238095 99.4017631,145.238095 C107.978126,145.238095 115.677171,150.624512 120.003714,159.644158 C120.480735,160.629716 120.21387,161.820193 119.34656,162.526021 C118.886219,162.903331 118.319131,163.095238 117.748708,163.095238" id="Fill-14" fill="#302A1F"></path>
                <path d="M34.175364,85.7142857 C33.7531815,85.7142857 33.3277763,85.5715865 32.9636036,85.271918 C32.0644516,84.5298819 31.8743084,83.1171592 32.5414212,82.1218319 C33.0925143,81.3048787 33.7435132,80.3773335 34.5105318,79.3748712 C35.2324316,78.4223537 36.5118701,78.2974918 37.3755716,79.1037426 C38.2328277,79.9064259 38.339179,81.329851 37.6140564,82.2788011 C36.914716,83.1992113 36.3152813,84.0518394 35.8093069,84.8045779 C35.4096838,85.4003473 34.7941353,85.7142857 34.175364,85.7142857" id="Fill-16" fill="#302A1F"></path>
                <path d="M52.4383374,69.2193676 C51.6422387,69.2193676 50.8734738,68.7991465 50.5010499,68.0694604 C49.9748731,67.0498543 50.4156316,65.8185089 51.485069,65.3201072 C53.1421843,64.5383007 54.8710511,63.8379323 56.6204182,63.2222596 C57.7411065,62.8313563 58.9779638,63.3721059 59.3913884,64.4405749 C59.8013963,65.5057863 59.2273852,66.6915263 58.1101137,67.0824296 C56.5965011,67.6134065 55.0145538,68.2486244 53.3847723,69.0108858 C53.0806831,69.1509595 52.7560935,69.2193676 52.4383374,69.2193676 M41.4432916,76.1904762 C40.8419466,76.1904762 40.2474351,75.9461616 39.8169268,75.4835927 C39.034495,74.626863 39.1267468,73.3303671 40.0253475,72.5811358 C41.4262079,71.4181985 42.9056532,70.3106392 44.4260992,69.2942907 C45.399868,68.6395277 46.7460607,68.8708121 47.4294072,69.7992074 C48.1127538,70.7276027 47.880416,72.0110685 46.9066471,72.662574 C45.4169517,73.6528623 44.0741757,74.6724684 42.8612356,75.6823019 C42.4512277,76.0210848 41.9455513,76.1904762 41.4432916,76.1904762" id="Fill-18" fill="#302A1F"></path>
                <path d="M65.1490473,65.4761905 C64.1882784,65.4761905 63.3284717,64.7808448 63.1363179,63.7730975 C62.9115957,62.6242655 63.6313582,61.505666 64.7451987,61.2772433 C65.9176624,61.0353839 66.9793934,60.8607077 67.9108507,60.7330597 C69.0312049,60.5785385 70.0668812,61.3948138 70.2199528,62.5570824 C70.3697676,63.7159918 69.5750978,64.7808448 68.4514867,64.9387252 C67.6014505,65.0529366 66.6276543,65.2141762 65.5528959,65.4358806 C65.4161085,65.466113 65.2825779,65.4761905 65.1490473,65.4761905" id="Fill-20" fill="#302A1F"></path>
                <path d="M161.060805,85.7142857 C160.442506,85.7142857 159.830647,85.4037106 159.428109,84.8075492 C158.925741,84.0543153 158.326763,83.2011262 157.624736,82.2801104 C156.900167,81.3269661 157.003217,79.9061743 157.863039,79.1029628 C158.716421,78.3033211 159.998103,78.4175557 160.725893,79.3671301 C161.489106,80.370252 162.139608,81.2984075 162.693501,82.1123285 C163.363325,83.1118805 163.176547,84.5255327 162.274861,85.2680571 C161.910966,85.5714926 161.485885,85.7142857 161.060805,85.7142857" id="Fill-22" fill="#302A1F"></path>
                <path d="M142.803997,69.2191711 C142.482878,69.2191711 142.158343,69.1507611 141.850888,69.0106835 C140.224797,68.2484006 138.646531,67.6131648 137.129756,67.0821729 C136.009256,66.6912586 135.438757,65.5087428 135.84528,64.4402437 C136.258636,63.3750023 137.505534,62.8309799 138.612369,63.2218942 C140.354611,63.8310689 142.086603,64.5347147 143.753689,65.3198009 C144.826363,65.8182167 145.263631,67.0495967 144.737543,68.0692315 C144.365182,68.7989382 143.596546,69.2191711 142.803997,69.2191711 M153.797197,76.1904762 C153.295022,76.1904762 152.78943,76.02108 152.382907,75.6822876 C151.163338,74.6756833 149.817372,73.6527908 148.331342,72.6657322 C147.354321,72.0109508 147.122022,70.7307064 147.80867,69.8022849 C148.491902,68.8706058 149.844701,68.6458301 150.811474,69.297354 C152.324833,70.3104735 153.810862,71.4180641 155.211487,72.5777765 C156.109937,73.3237713 156.20559,74.6235614 155.419873,75.4803152 C154.996269,75.9461548 154.398441,76.1904762 153.797197,76.1904762" id="Fill-24" fill="#302A1F"></path>
                <path d="M130.091455,65.4761905 C129.954673,65.4761905 129.81789,65.4661117 129.684364,65.4358753 C128.609644,65.2141415 127.635883,65.0528806 126.785877,64.9386541 C125.662306,64.7807528 124.870922,63.7157589 125.017475,62.5566962 C125.170541,61.3909142 126.23549,60.5812501 127.329751,60.7324322 C128.257918,60.8600971 129.316354,61.0347964 130.488776,61.2766878 C131.605833,61.5051407 132.328827,62.6238882 132.100856,63.7728722 C131.905452,64.7807528 131.048933,65.4761905 130.091455,65.4761905" id="Fill-26" fill="#302A1F"></path>
                <path d="M77.6982629,107.142857 C77.171932,107.142857 76.6456012,106.940197 76.2402283,106.538145 L61.3198931,91.61973 C60.5124166,90.8123574 60.5124166,89.5048714 61.3198931,88.7007675 C62.1241005,87.8933949 63.4317547,87.8933949 64.2392313,88.7007675 L79.1562974,103.619182 C79.9637739,104.426555 79.9637739,105.730772 79.1562974,106.538145 C78.7541937,106.940197 78.2278628,107.142857 77.6982629,107.142857" id="Fill-28" fill="#302A1F"></path>
                <path d="M62.7817742,121.428571 C62.253835,121.428571 61.7258959,121.225327 61.3192843,120.818838 C60.5126195,120.012416 60.5126195,118.704439 61.3192843,117.894739 L76.229467,102.985769 C77.039411,102.179347 78.347782,102.179347 79.1544468,102.985769 C79.9643907,103.795469 79.9643907,105.106724 79.1544468,105.916424 L64.2442641,120.818838 C63.8409317,121.225327 63.3129925,121.428571 62.7817742,121.428571" id="Fill-30" fill="#302A1F"></path>
                <path d="M134.843395,121.428571 C134.317019,121.428571 133.787374,121.225911 133.385235,120.82059 L118.46035,105.905444 C117.656074,105.098072 117.656074,103.790586 118.46035,102.986482 C119.267896,102.179109 120.575662,102.179109 121.379939,102.986482 L136.301555,117.904897 C137.105831,118.712269 137.105831,120.016487 136.301555,120.82059 C135.899416,121.225911 135.369771,121.428571 134.843395,121.428571" id="Fill-32" fill="#302A1F"></path>
                <path d="M119.924631,107.142857 C119.396692,107.142857 118.865474,106.939604 118.462141,106.536376 C117.655477,105.726641 117.655477,104.418608 118.462141,103.612151 L133.372324,88.7025392 C134.182268,87.8928044 135.490639,87.8928044 136.297304,88.7025392 C137.107248,89.5089958 137.107248,90.8203073 136.297304,91.6300421 L121.387121,106.536376 C120.983789,106.939604 120.45585,107.142857 119.924631,107.142857" id="Fill-34" fill="#302A1F"></path>
            </g>
        </g>
    </g>
</svg>