<?xml version="1.0" encoding="UTF-8"?>
<svg width="200px" height="200px" viewBox="0 0 200 200" version="1.1" xmlns="http://www.w3.org/2000/svg" xmlns:xlink="http://www.w3.org/1999/xlink">
    <!-- Generator: Sketch 47.1 (45422) - http://www.bohemiancoding.com/sketch -->
    <title>6_emoji_left</title>
    <desc>Created with Sketch.</desc>
    <defs>
        <linearGradient x1="50%" y1="0.68359375%" x2="50%" y2="78.0911663%" id="linearGradient-1">
            <stop stop-color="#99FFD3" stop-opacity="0" offset="0%"></stop>
            <stop stop-color="#99FFD3" offset="100%"></stop>
        </linearGradient>
    </defs>
    <g id="Page-1" stroke="none" stroke-width="1" fill="none" fill-rule="evenodd">
        <g id="6_Boldyrev_desktop" transform="translate(-100.000000, -1439.000000)">
            <rect id="Rectangle-9" fill="url(#linearGradient-1)" transform="translate(683.000000, 1570.000000) rotate(-180.000000) translate(-683.000000, -1570.000000) " x="0" y="850" width="1366" height="1440"></rect>
            <g id="Page-1" transform="translate(100.000000, 1439.000000)">
                <g id="Group-28">
                    <g id="Group-3" fill="#F9C54B">
                        <path d="M199.209045,100.395645 C199.209045,45.3839196 154.61608,0.790954774 99.6077052,0.790954774 C44.5959799,0.790954774 -0.000335008375,45.3839196 -0.000335008375,100.395645 C-0.000335008375,155.40402 44.5959799,200.000335 99.6077052,200.000335 C154.61608,200.000335 199.209045,155.40402 199.209045,100.395645" id="Fill-1"></path>
                    </g>
                    <path d="M99.9577889,141.841206 C99.9577889,141.841206 99.9577889,141.827806 99.9544389,141.821106 C99.9577889,141.827806 99.9577889,141.834506 99.9577889,141.841206" id="Fill-4" fill="#302A1F"></path>
                    <path d="M100.0134,142.749079 C100.01005,142.635176 100.00335,142.524623 99.9966499,142.41407 C100.00335,142.531323 100.01005,142.641876 100.0134,142.749079" id="Fill-6" fill="#302A1F"></path>
                    <path d="M99.9577889,130.703183 C99.9577889,130.696482 99.9577889,130.689782 99.9544389,130.683082 C99.9577889,130.689782 99.9577889,130.696482 99.9577889,130.703183" id="Fill-8" fill="#302A1F"></path>
                    <path d="M100.0134,131.611055 C100.01005,131.497152 100.00335,131.3866 99.9966499,131.272697 C100.00335,131.38995 100.01005,131.500503 100.0134,131.611055" id="Fill-10" fill="#302A1F"></path>
                    <path d="M41.0907873,55.6093802 C40.2097152,55.6093802 39.3889447,55.0566164 39.0874372,54.1755444 C38.7122278,53.0733668 39.3018425,51.8706868 40.4073702,51.4921273 L42.5279732,50.7785595 C43.6335008,50.4100503 44.8361809,50.9963149 45.2080402,52.1051926 C45.5832496,53.2073702 44.9902848,54.4100503 43.881407,54.7819095 L41.7742044,55.4988275 C41.5497487,55.5725293 41.318593,55.6093802 41.0907873,55.6093802" id="Fill-12" fill="#302A1F"></path>
                    <path d="M62.6994975,48.2991625 C61.8150754,48.2991625 60.9943049,47.7430486 60.6961474,46.8619765 C60.320938,45.7564489 60.9172529,44.5537688 62.0227806,44.1819095 L66.9742044,42.5068677 C68.0763819,42.1316583 69.279062,42.7179229 69.6609715,43.8268007 C70.0361809,44.9323283 69.4465662,46.1350084 68.3376884,46.5102178 L63.3795645,48.1886097 C63.1517588,48.2623116 62.9239531,48.2991625 62.6994975,48.2991625 M50.4750419,52.4365159 C49.5906198,52.4365159 48.7698492,51.880402 48.4716918,51.0026801 C48.0964824,49.8938023 48.6894472,48.6911223 49.7949749,48.319263 L54.7497487,46.6442211 C55.8519263,46.2757119 57.0546064,46.8586265 57.4331658,47.9641541 C57.8117253,49.0696817 57.2187605,50.2723618 56.1132328,50.6509213 L51.1517588,52.3259631 C50.9239531,52.399665 50.6961474,52.4365159 50.4750419,52.4365159" id="Fill-14" fill="#302A1F"></path>
                    <path d="M74.9252931,44.1688442 C74.040871,44.1688442 73.2201005,43.6093802 72.921943,42.7283082 C72.5467337,41.6227806 73.1430486,40.4234506 74.2485762,40.0482412 L76.3624791,39.3313233 C77.4747069,38.9527638 78.6740369,39.5524288 79.0425461,40.6579564 C79.4211055,41.7634841 78.8247906,42.9628141 77.7159129,43.3380235 L75.6020101,44.0582915 C75.3809045,44.1319933 75.1497487,44.1688442 74.9252931,44.1688442" id="Fill-16" fill="#302A1F"></path>
                    <path d="M158.101843,53.4961474 C157.877387,53.4961474 157.642881,53.4592965 157.421776,53.3855946 L155.311223,52.6686767 C154.202345,52.2934673 153.60938,51.0907873 153.98459,49.9886097 C154.359799,48.879732 155.579229,48.3035176 156.664657,48.6619765 L158.78526,49.3788945 C159.890787,49.7574539 160.483752,50.960134 160.108543,52.0623116 C159.803685,52.9400335 158.982915,53.4961474 158.101843,53.4961474" id="Fill-18" fill="#302A1F"></path>
                    <path d="M136.493132,46.1839196 C136.272027,46.1839196 136.040871,46.1470687 135.816415,46.0733668 L130.858291,44.3949749 C129.749414,44.0197655 129.159799,42.8204355 129.535008,41.7149079 C129.903518,40.6093802 131.112898,40.0130653 132.215075,40.3916248 L137.169849,42.0666667 C138.275377,42.441876 138.871692,43.641206 138.496482,44.7467337 C138.198325,45.6278057 137.377554,46.1839196 136.493132,46.1839196 M148.717588,50.3246231 C148.496482,50.3246231 148.268677,50.2877722 148.040871,50.2107203 L143.082747,48.5356784 C141.973869,48.1571189 141.384255,46.9544389 141.759464,45.8489112 C142.141374,44.7433836 143.334003,44.1638191 144.442881,44.5289782 L149.397655,46.2040201 C150.503183,46.5758794 151.096147,47.7785595 150.720938,48.8874372 C150.422781,49.7651591 149.60201,50.3246231 148.717588,50.3246231" id="Fill-20" fill="#302A1F"></path>
                    <path d="M124.267337,42.0519263 C124.046231,42.0519263 123.811725,42.0184255 123.59062,41.9413735 L121.473367,41.2244556 C120.367839,40.8492462 119.771524,39.6499162 120.150084,38.5410385 C120.525293,37.4355109 121.738023,36.8492462 122.830151,37.2177554 L124.944054,37.9346734 C126.049581,38.3065327 126.645896,39.5092127 126.270687,40.6147404 C125.972529,41.4958124 125.151759,42.0519263 124.267337,42.0519263" id="Fill-22" fill="#302A1F"></path>
                    <path d="M98.6867672,144.082412 C98.6867672,144.075712 98.6867672,144.069012 98.6834171,144.062312 C98.6867672,144.069012 98.6867672,144.075712 98.6867672,144.082412" id="Fill-24" fill="#302A1F"></path>
                    <path d="M98.7423786,144.98861 C98.7390285,144.878057 98.7323283,144.767504 98.7256281,144.653601 C98.7323283,144.770854 98.7390285,144.881407 98.7423786,144.98861" id="Fill-26" fill="#302A1F"></path>
                </g>
                <path d="M89.5469972,127.365227 C88.9841562,127.804925 88.441537,128.283421 87.9225099,128.791014 L87.9225099,128.791014 C85.9239187,130.750259 84.2556175,133.197698 83.0557887,136.013708 L83.0557887,136.013708 C82.8198673,136.553632 82.6041677,137.116188 82.4120603,137.688442 L82.4120603,137.688442 L85.1521187,137.688442 L114.05923,137.688442 L117.58794,137.688442 C117.392462,137.116188 117.176762,136.553632 116.940841,136.013708 L116.940841,136.013708 C115.741012,133.197698 114.072711,130.750259 112.07412,128.791014 L112.07412,128.791014 C111.41017,128.144398 110.709146,127.543046 109.97779,127.006355 L109.97779,127.006355 C107.042254,124.840194 103.604542,123.61809 99.9983148,123.61809 L99.9983148,123.61809 C96.1999805,123.61809 92.5836426,124.975983 89.5469972,127.365227" id="Fill-29"></path>
                <g id="Group-41" transform="translate(47.236181, 81.407035)" fill="#302A1F">
                    <path d="M52.8843467,42.2384709 C43.0984171,42.2384709 35.133907,52.1059512 35.133907,64.2333381 C35.133907,76.3607251 43.0984171,86.2315434 52.8843467,86.2315434 C62.6736369,86.2315434 70.6314259,76.3607251 70.6314259,64.2333381 C70.6314259,52.1059512 62.6736369,42.2384709 52.8843467,42.2384709 M52.8843467,90.4442498 C40.7594724,90.4442498 30.8928894,78.6873941 30.8928894,64.2333381 C30.8928894,49.7826202 40.7594724,38.0257645 52.8843467,38.0257645 C65.0092211,38.0257645 74.8724435,49.7826202 74.8724435,64.2333381 C74.8724435,78.6873941 65.0092211,90.4442498 52.8843467,90.4442498" id="Fill-31"></path>
                    <path d="M22.7969818,8.61793611 C14.6073147,8.24072864 7.11328204,6.04758435 1.12813756,1.39424623 C0.748395101,1.10382986 0.227509422,1.48771357 0.408979271,1.92500718 C4.77769786,12.4467588 12.8329428,18.8492714 22.29962,19.286565 C31.7662971,19.7205205 40.3827544,14.0824372 45.7092305,4.00799354 C45.931027,3.59072864 45.4471074,3.15677315 45.0472016,3.41380833 C38.6520697,7.49632807 30.9866489,8.99514358 22.7969818,8.61793611" id="Fill-33"></path>
                    <path d="M82.7371451,7.8304738 C74.5575597,8.3879397 66.8585333,7.06604451 60.376027,3.12706389 C59.9694001,2.88004307 59.4922016,3.3206748 59.7207192,3.73460158 C65.282434,13.6888729 74.0198712,19.1333453 83.4764667,18.4857502 C92.9297016,17.8381551 100.837082,11.2553841 104.963841,0.640165111 C105.135229,0.196195262 104.604262,-0.177674085 104.234601,0.12275664 C98.3569943,4.90961953 90.9167305,7.26966978 82.7371451,7.8304738" id="Fill-35"></path>
                    <path d="M22.7969818,8.61793611 C14.6073147,8.24072864 7.11328204,6.04758435 1.12813756,1.39424623 C0.748395101,1.10382986 0.227509422,1.48771357 0.408979271,1.92500718 C4.77769786,12.4467588 12.8329428,18.8492714 22.29962,19.286565 C31.7662971,19.7205205 40.3827544,14.0824372 45.7092305,4.00799354 C45.931027,3.59072864 45.4471074,3.15677315 45.0472016,3.41380833 C38.6520697,7.49632807 30.9866489,8.99514358 22.7969818,8.61793611" id="Fill-37"></path>
                    <path d="M82.7371451,7.8304738 C74.5575597,8.3879397 66.8585333,7.06604451 60.376027,3.12706389 C59.9694001,2.88004307 59.4922016,3.3206748 59.7207192,3.73460158 C65.282434,13.6888729 74.0198712,19.1333453 83.4764667,18.4857502 C92.9297016,17.8381551 100.837082,11.2553841 104.963841,0.640165111 C105.135229,0.196195262 104.604262,-0.177674085 104.234601,0.12275664 C98.3569943,4.90961953 90.9167305,7.26966978 82.7371451,7.8304738" id="Fill-39"></path>
                </g>
            </g>
        </g>
    </g>
</svg>