<?xml version="1.0" encoding="UTF-8"?>
<svg width="130px" height="126px" viewBox="0 0 130 126" version="1.1" xmlns="http://www.w3.org/2000/svg" xmlns:xlink="http://www.w3.org/1999/xlink">
    <!-- Generator: Sketch 47.1 (45422) - http://www.bohemiancoding.com/sketch -->
    <title>jail</title>
    <desc>Created with Sketch.</desc>
    <defs>
        <linearGradient x1="0%" y1="100%" x2="100%" y2="0%" id="linearGradient-1">
            <stop stop-color="#3023AE" offset="0%"></stop>
            <stop stop-color="#FF3C9B" offset="100%"></stop>
        </linearGradient>
    </defs>
    <g id="Page-1" stroke="none" stroke-width="1" fill="none" fill-rule="evenodd">
        <g id="2_Boldyrev_desktop" transform="translate(-782.000000, -875.000000)" fill="url(#linearGradient-1)">
            <path d="M892.249831,875 L900.325456,875 L885.051992,913.748954 L912,913.748954 L908.40108,921.832636 L881.453072,921.832636 L868.286293,954.25523 L895.234301,954.25523 L891.635381,962.338912 L864.687373,962.338912 L849.41391,1001 L841.338285,1001 L856.611749,962.338912 L817.111411,962.338912 L801.750169,1001 L793.674544,1001 L808.948008,962.338912 L782,962.338912 L785.59892,954.25523 L812.546928,954.25523 L825.713707,921.832636 L798.765699,921.832636 L802.364619,913.748954 L829.312627,913.748954 L844.58609,875 L852.661715,875 L837.388251,913.748954 L876.976367,913.748954 L892.249831,875 Z M833.789332,921.832636 L820.710331,954.25523 L860.210668,954.25523 L873.377448,921.832636 L833.789332,921.832636 Z" id="jail"></path>
        </g>
    </g>
</svg>