<?xml version="1.0" encoding="UTF-8"?>
<svg width="178px" height="187px" viewBox="0 0 178 187" version="1.1" xmlns="http://www.w3.org/2000/svg" xmlns:xlink="http://www.w3.org/1999/xlink">
    <!-- Generator: Sketch 47.1 (45422) - http://www.bohemiancoding.com/sketch -->
    <title>15_emoji</title>
    <desc>Created with Sketch.</desc>
    <defs></defs>
    <g id="-" stroke="none" stroke-width="1" fill="none" fill-rule="evenodd">
        <g id="1-1-Desktop-#15" transform="translate(-763.000000, -1828.000000)">
            <g id="Page-1" transform="translate(763.000000, 1828.000000)">
                <path d="M178,89 C178,39.8482443 138.154749,0 89,0 C39.8452509,0 0,39.8482443 0,89 C0,138.154749 39.8452509,178 89,178 C138.154749,178 178,138.154749 178,89" id="Fill-1" fill="#F2BD58"></path>
                <path d="M90.003,118.018 C90.003,118.018 90,118.006 90,118 C90,118.006 90.003,118.012 90.003,118.018" id="Fill-3" fill="#211F19"></path>
                <path d="M90.015,119.3 C90.012,119.201 90.006,119.102 90,119 C90.006,119.105 90.012,119.204 90.015,119.3" id="Fill-5" fill="#211F19"></path>
                <path d="M73,129.5 C73,141.373979 80.8346723,151 90.5014799,151 C100.165328,151 108,141.373979 108,129.5 C108,117.626021 100.165328,108 90.5014799,108 C80.8346723,108 73,117.626021 73,129.5" id="Fill-7" fill="#211F19"></path>
                <path d="M90.003,108.018 C90.003,108.012 90,108.006 90,108 C90,108.006 90.003,108.012 90.003,108.018" id="Fill-9" fill="#211F19"></path>
                <path d="M90.015,109.3 C90.012,109.198 90.006,109.099 90,109 C90.006,109.102 90.012,109.204 90.015,109.3" id="Fill-11" fill="#211F19"></path>
                <path d="M106.633423,84.9134229 C116.420716,98.6461683 133.474647,103.10281 144.72362,94.866791 C155.972593,86.6307719 157.156852,68.822346 147.366577,55.0865771 C137.579284,41.3538317 120.525353,36.89719 109.27638,45.133209 C98.0274074,53.3692281 96.843148,71.1806775 106.633423,84.9134229" id="Fill-13" fill="#FFFFFE"></path>
                <path d="M75.3666111,84.9134229 C65.5763866,98.6461683 48.5225434,103.10281 37.2736292,94.866791 C26.0276979,86.6307719 24.8434447,68.822346 34.6336692,55.0865771 C44.4209107,41.3538317 61.4747539,36.89719 72.7236681,45.133209 C83.9725824,53.3692281 85.1568356,71.1806775 75.3666111,84.9134229" id="Fill-15" fill="#FFFFFE"></path>
                <path d="M121.203872,42.7659325 C116.814493,42.7659325 112.718737,44.0275934 109.294122,46.4942448 C98.8584852,53.9985918 97.8607628,70.4240443 107.067973,83.1062714 C111.562218,89.3042177 117.782253,93.679765 124.583544,95.4216325 C131.273977,97.1456041 137.691759,96.098694 142.683367,92.504601 C147.68696,88.9075253 150.692112,83.1569764 151.153521,76.3147777 C151.626915,69.3413425 149.41275,62.0875381 144.912513,55.8895918 C140.415272,49.6916454 134.195236,45.3190808 127.393946,43.5742306 C125.293635,43.0313884 123.217294,42.7659325 121.203872,42.7659325 M130.794591,100 C128.457584,100 126.060653,99.6927871 123.639753,99.0723959 C115.987551,97.1068297 109.015479,92.2212493 103.999902,85.3134323 C93.573253,70.9460081 94.9544843,52.1612795 107.076961,43.4400114 C113.012361,39.1778048 120.556701,37.9340398 128.340733,39.9264499 C135.989938,41.8920161 142.965007,46.7746139 147.977588,53.6854135 C152.99017,60.5932305 155.462004,68.7179686 154.928687,76.568303 C154.389378,84.5498739 150.829936,91.2906625 144.900528,95.5558518 C140.816758,98.4907792 135.959977,99.9970174 130.794591,100" id="Fill-17" fill="#211F19"></path>
                <path d="M59.7958386,42.7663504 C57.7824341,42.7663504 55.7061106,43.0319289 53.6058181,43.5750219 C46.8045854,45.3206781 40.5846034,49.6952625 36.0874006,55.8960719 C31.5901979,62.0968813 29.3730559,69.3540364 29.8464457,76.330693 C30.3078509,83.1760523 33.3129771,88.9292576 38.3165271,92.5279949 C48.7460826,100.035808 64.7334737,95.8193773 73.9346127,83.1253239 C83.1387479,70.4342544 82.1380379,54.0012144 71.7054862,46.4963849 C68.2809008,44.0285941 64.1791882,42.7663504 59.7958386,42.7663504 M50.2052017,100 C45.1537135,100 40.2610205,98.5736348 36.0993852,95.5806551 C30.1700286,91.3134956 26.6106169,84.5695932 26.0713121,76.5843353 C25.5379996,68.7303747 28.0098132,60.6018835 33.0223517,53.6908755 C38.0348902,46.7768835 45.0098988,41.8920303 52.6590385,39.9255561 C60.4489967,37.9352097 67.9902754,39.1765652 73.9226282,43.4407407 C86.0450015,52.1630534 87.426221,70.9564593 77.0026578,85.3335043 C70.1534869,94.7749677 59.8857228,100 50.2052017,100" id="Fill-19" fill="#211F19"></path>
                <path d="M18.8775814,162.1942 C18.8775814,180.062267 27.4904286,188.766534 37.6424653,186.701621 C45.4857178,185.108176 49,171.91302 49,161.21247 C49,146.811787 31.7111747,122 21.3456957,122 C10.983223,122 18.8775814,144.326132 18.8775814,162.1942" id="Fill-21" fill="#211F19"></path>
                <path d="M164.122419,162.1942 C164.122419,180.062267 155.509571,188.766534 145.357535,186.701621 C137.514282,185.108176 134,171.91302 134,161.21247 C134,146.811787 151.288825,122 161.654304,122 C172.016777,122 164.122419,144.326132 164.122419,162.1942" id="Fill-23" fill="#211F19"></path>
            </g>
        </g>
    </g>
</svg>