<?xml version="1.0" encoding="UTF-8"?>
<svg width="380px" height="388px" viewBox="0 0 380 388" version="1.1" xmlns="http://www.w3.org/2000/svg" xmlns:xlink="http://www.w3.org/1999/xlink">
    <!-- Generator: Sketch 46.1 (44463) - http://www.bohemiancoding.com/sketch -->
    <title>Page 1</title>
    <desc>Created with Sketch.</desc>
    <defs>
        <polygon id="path-1" points="4.8554661 10.7222153 4.8554661 0.28879089 0.189516949 0.28879089 0.189516949 10.7222153 4.8554661 10.7222153"></polygon>
        <polygon id="path-3" points="0 387.591917 379.219873 387.591917 379.219873 0 0 0"></polygon>
    </defs>
    <g id="-" stroke="none" stroke-width="1" fill="none" fill-rule="evenodd">
        <g id="1-1-Desktop-The-End-Copy-10" transform="translate(-412.000000, -224.000000)">
            <g id="Page-1" transform="translate(412.000000, 224.000000)">
                <g id="Group-3" transform="translate(374.364407, 36.544298)">
                    <mask id="mask-2" fill="white">
                        <use xlink:href="#path-1"></use>
                    </mask>
                    <g id="Clip-2"></g>
                    <polygon id="Fill-1" fill="#FFFFFF" mask="url(#mask-2)" points="4.85578814 10.2338012 3.27218644 0.28879089 0.189516949 0.778008282 1.77311864 10.7222153"></polygon>
                </g>
                <polygon id="Fill-4" fill="#FFFFFF" points="259.987064 131.580118 260.793758 128.264847 273.880411 131.434719 273.073716 134.74999"></polygon>
                <polygon id="Fill-6" fill="#FFFFFF" points="263.683852 137.634043 267.006436 138.438962 270.183301 125.381116 266.860716 124.576196"></polygon>
                <polygon id="Fill-8" fill="#FFFFFF" points="338.15886 115.035333 336.58814 112.005237 348.549284 105.830976 350.120004 108.861072"></polygon>
                <polygon id="Fill-10" fill="#FFFFFF" points="344.928979 117.184033 347.965758 115.61677 341.778682 103.681151 338.741903 105.249217"></polygon>
                <polygon id="Fill-12" fill="#FFFFFF" points="264.676038 80.8647429 263.105318 77.8354509 275.066462 71.6611901 276.637182 74.6912853"></polygon>
                <polygon id="Fill-14" fill="#FFFFFF" points="271.446559 83.0142468 274.483339 81.4469839 268.296263 69.5113648 265.258678 71.0794311"></polygon>
                <mask id="mask-4" fill="white">
                    <use xlink:href="#path-3"></use>
                </mask>
                <g id="Clip-17"></g>
                <polygon id="Fill-16" fill="#FFFFFF" mask="url(#mask-4)" points="278.403136 111.989814 288.495678 111.989814 288.495678 108.875371 278.403136 108.875371"></polygon>
                <polygon id="Fill-18" fill="#FFFFFF" mask="url(#mask-4)" points="368.419178 115.161694 366.835576 105.21588 363.752907 105.705097 365.336508 115.650108"></polygon>
                <polygon id="Fill-19" fill="#FFFFFF" mask="url(#mask-4)" points="254.36878 46.7780994 252.785983 36.833089 249.702508 37.3223064 251.28611 47.2665135"></polygon>
                <polygon id="Fill-20" fill="#FFFFFF" mask="url(#mask-4)" points="335.87725 24.3441482 336.58814 27.6811089 323.415343 30.4726203 322.704453 27.1356596"></polygon>
                <polygon id="Fill-21" fill="#FFFFFF" mask="url(#mask-4)" points="329.919703 20.4821424 326.574576 21.1906642 329.372246 34.3344654 332.717373 33.6259437"></polygon>
                <polygon id="Fill-22" fill="#FFFFFF" mask="url(#mask-4)" points="363.293445 62.4105631 364.00353 65.7475238 350.830733 68.5390352 350.120648 65.2020745"></polygon>
                <polygon id="Fill-23" fill="#FFFFFF" mask="url(#mask-4)" points="357.335496 58.548477 353.990369 59.2569988 356.788843 72.4008 360.133165 71.6922783"></polygon>
                <polygon id="Fill-24" fill="#FFFFFF" mask="url(#mask-4)" points="292.303648 39.0830874 299.596106 46.0445946 301.753733 43.7945159 294.462081 36.8330087"></polygon>
                <polygon id="Fill-25" fill="#FFFFFF" mask="url(#mask-4)" points="317.979492 129.777405 325.271144 136.738912 327.429576 134.488833 320.137119 127.527326"></polygon>
                <polygon id="Fill-26" fill="#FFFFFF" mask="url(#mask-4)" points="315.221835 79.3774095 325.313572 79.460954 325.339335 76.3473143 315.247597 76.2629665"></polygon>
                <polygon id="Fill-27" fill="#FFFFFF" mask="url(#mask-4)" points="259.987064 7.00392215 260.793758 3.68865093 273.880411 6.85771925 273.073716 10.1729905"></polygon>
                <polygon id="Fill-28" fill="#FFFFFF" mask="url(#mask-4)" points="263.683852 13.0577665 267.006436 13.8626857 270.183301 0.804838923 266.860716 -8.03312629e-05"></polygon>
                <polygon id="Fill-29" fill="#FFFFFF" mask="url(#mask-4)" points="317.979492 5.20120828 325.271144 12.1627155 327.429576 9.91183354 320.137119 2.95032629"></polygon>
                <polygon id="Fill-30" fill="#FFFFFF" mask="url(#mask-4)" points="379.220195 171.355099 377.636593 161.409285 374.553924 161.898503 376.137525 171.84271"></polygon>
                <polygon id="Fill-31" fill="#FFFFFF" mask="url(#mask-4)" points="259.987064 256.157118 260.793758 252.841043 273.880411 256.010915 273.073716 259.326186"></polygon>
                <polygon id="Fill-32" fill="#FFFFFF" mask="url(#mask-4)" points="263.683852 262.210239 267.006436 263.015159 270.183301 249.957312 266.860716 249.152393"></polygon>
                <polygon id="Fill-33" fill="#FFFFFF" mask="url(#mask-4)" points="338.15886 239.611609 336.58814 236.581514 348.549284 230.407253 350.120004 233.437348"></polygon>
                <polygon id="Fill-34" fill="#FFFFFF" mask="url(#mask-4)" points="344.928979 241.761113 347.965758 240.19385 341.778682 228.258231 338.741903 229.826297"></polygon>
                <polygon id="Fill-35" fill="#FFFFFF" mask="url(#mask-4)" points="264.676038 205.441742 263.105318 202.411647 275.066462 196.237386 276.637182 199.267482"></polygon>
                <polygon id="Fill-36" fill="#FFFFFF" mask="url(#mask-4)" points="271.446559 207.590443 274.483339 206.02318 268.296263 194.087561 265.258678 195.656431"></polygon>
                <polygon id="Fill-37" fill="#FFFFFF" mask="url(#mask-4)" points="278.403136 236.566733 288.495678 236.566733 288.495678 233.45229 278.403136 233.45229"></polygon>
                <polygon id="Fill-38" fill="#FFFFFF" mask="url(#mask-4)" points="368.419178 239.73789 366.835576 229.79288 363.752907 230.282097 365.336508 240.226304"></polygon>
                <polygon id="Fill-39" fill="#FFFFFF" mask="url(#mask-4)" points="254.36878 171.355099 252.785983 161.409285 249.702508 161.898503 251.28611 171.84271"></polygon>
                <polygon id="Fill-40" fill="#FFFFFF" mask="url(#mask-4)" points="335.87725 148.920425 336.58814 152.257386 323.415343 155.0497 322.704453 151.71274"></polygon>
                <polygon id="Fill-41" fill="#FFFFFF" mask="url(#mask-4)" points="329.919703 145.058419 326.574576 145.767744 329.372246 158.911545 332.717373 158.20222"></polygon>
                <polygon id="Fill-42" fill="#FFFFFF" mask="url(#mask-4)" points="363.293445 186.986759 364.00353 190.32372 350.830733 193.116035 350.120648 189.778271"></polygon>
                <polygon id="Fill-43" fill="#FFFFFF" mask="url(#mask-4)" points="357.335496 183.124754 353.990369 183.834079 356.788843 196.97788 360.133165 196.268555"></polygon>
                <polygon id="Fill-44" fill="#FFFFFF" mask="url(#mask-4)" points="292.303648 163.660087 299.596106 170.621594 301.753733 168.370712 294.462081 161.409205"></polygon>
                <polygon id="Fill-45" fill="#FFFFFF" mask="url(#mask-4)" points="317.979492 254.353601 325.271144 261.315911 327.429576 259.065029 320.137119 252.103522"></polygon>
                <polygon id="Fill-46" fill="#FFFFFF" mask="url(#mask-4)" points="315.221835 203.953606 325.313572 204.03715 325.339335 200.924314 315.247597 200.839163"></polygon>
                <polygon id="Fill-47" fill="#FFFFFF" mask="url(#mask-4)" points="259.987064 131.580118 260.793758 128.264847 273.880411 131.434719 273.073716 134.74999"></polygon>
                <polygon id="Fill-48" fill="#FFFFFF" mask="url(#mask-4)" points="263.683852 137.634043 267.006436 138.438962 270.183301 125.381116 266.860716 124.576196"></polygon>
                <polygon id="Fill-49" fill="#FFFFFF" mask="url(#mask-4)" points="317.979492 129.777405 325.271144 136.738912 327.429576 134.488833 320.137119 127.527326"></polygon>
                <polygon id="Fill-50" fill="#FFFFFF" mask="url(#mask-4)" points="379.220195 295.931295 377.636593 285.985482 374.553924 286.474699 376.137525 296.419709"></polygon>
                <polygon id="Fill-51" fill="#FFFFFF" mask="url(#mask-4)" points="259.987064 380.733395 260.793758 377.418123 273.880411 380.587995 273.073716 383.903266"></polygon>
                <polygon id="Fill-52" fill="#FFFFFF" mask="url(#mask-4)" points="263.683852 386.787239 267.006436 387.592158 270.183301 374.534311 266.860716 373.729392"></polygon>
                <polygon id="Fill-53" fill="#FFFFFF" mask="url(#mask-4)" points="338.15886 364.187805 336.58814 361.15771 348.549284 354.984253 350.120004 358.014348"></polygon>
                <polygon id="Fill-54" fill="#FFFFFF" mask="url(#mask-4)" points="344.928979 366.337309 347.965758 364.770046 341.778682 352.834427 338.741903 354.402494"></polygon>
                <polygon id="Fill-55" fill="#FFFFFF" mask="url(#mask-4)" points="264.676038 330.017939 263.105318 326.987843 275.066462 320.814386 276.637182 323.843678"></polygon>
                <polygon id="Fill-56" fill="#FFFFFF" mask="url(#mask-4)" points="271.446559 332.167443 274.483339 330.60018 268.296263 318.664561 265.258678 320.232627"></polygon>
                <polygon id="Fill-57" fill="#FFFFFF" mask="url(#mask-4)" points="278.403136 361.143652 288.495678 361.143652 288.495678 358.029209 278.403136 358.029209"></polygon>
                <polygon id="Fill-58" fill="#FFFFFF" mask="url(#mask-4)" points="368.419178 364.314086 366.835576 354.369076 363.752907 354.858293 365.336508 364.8025"></polygon>
                <polygon id="Fill-59" fill="#FFFFFF" mask="url(#mask-4)" points="254.36878 295.931295 252.785983 285.985482 249.702508 286.474699 251.28611 296.419709"></polygon>
                <polygon id="Fill-60" fill="#FFFFFF" mask="url(#mask-4)" points="335.87725 273.496621 336.58814 276.834385 323.415343 279.625896 322.704453 276.288936"></polygon>
                <polygon id="Fill-61" fill="#FFFFFF" mask="url(#mask-4)" points="329.919703 269.634615 326.574576 270.34394 329.372246 283.487742 332.717373 282.77922"></polygon>
                <polygon id="Fill-62" fill="#FFFFFF" mask="url(#mask-4)" points="363.293445 311.562956 364.00353 314.899916 350.830733 317.692231 350.120648 314.35527"></polygon>
                <polygon id="Fill-63" fill="#FFFFFF" mask="url(#mask-4)" points="357.335496 307.70095 353.990369 308.410275 356.788843 321.554076 360.133165 320.844751"></polygon>
                <polygon id="Fill-64" fill="#FFFFFF" mask="url(#mask-4)" points="292.303648 288.236283 299.596106 295.19779 301.753733 292.947712 294.462081 285.985401"></polygon>
                <polygon id="Fill-65" fill="#FFFFFF" mask="url(#mask-4)" points="317.979492 378.9306 325.271144 385.892108 327.429576 383.642029 320.137119 376.679718"></polygon>
                <polygon id="Fill-66" fill="#FFFFFF" mask="url(#mask-4)" points="315.221835 328.530605 325.313572 328.61415 325.339335 325.50051 315.247597 325.416162"></polygon>
                <polygon id="Fill-67" fill="#FFFFFF" mask="url(#mask-4)" points="259.987064 256.157118 260.793758 252.841043 273.880411 256.010915 273.073716 259.326186"></polygon>
                <polygon id="Fill-68" fill="#FFFFFF" mask="url(#mask-4)" points="263.683852 262.210239 267.006436 263.015159 270.183301 249.957312 266.860716 249.152393"></polygon>
                <polygon id="Fill-69" fill="#FFFFFF" mask="url(#mask-4)" points="317.979492 254.353601 325.271144 261.315911 327.429576 259.065029 320.137119 252.103522"></polygon>
                <polygon id="Fill-70" fill="#FFFFFF" mask="url(#mask-4)" points="254.36878 46.7780994 252.785983 36.833089 249.702508 37.3223064 251.28611 47.2665135"></polygon>
                <polygon id="Fill-71" fill="#FFFFFF" mask="url(#mask-4)" points="135.135648 131.580118 135.942343 128.264847 149.028996 131.434719 148.222301 134.74999"></polygon>
                <polygon id="Fill-72" fill="#FFFFFF" mask="url(#mask-4)" points="138.832436 137.634043 142.155021 138.438962 145.331886 125.381116 142.009301 124.576196"></polygon>
                <polygon id="Fill-73" fill="#FFFFFF" mask="url(#mask-4)" points="213.307445 115.035333 211.736725 112.005237 223.697869 105.830976 225.268589 108.861072"></polygon>
                <polygon id="Fill-74" fill="#FFFFFF" mask="url(#mask-4)" points="220.077966 117.184033 223.114746 115.61677 216.927669 103.681151 213.890085 105.249217"></polygon>
                <polygon id="Fill-75" fill="#FFFFFF" mask="url(#mask-4)" points="139.825025 80.8647429 138.2535 77.8354509 150.215449 71.6611901 151.786169 74.6912853"></polygon>
                <polygon id="Fill-76" fill="#FFFFFF" mask="url(#mask-4)" points="146.595144 83.0142468 149.631924 81.4469839 143.444847 69.5113648 140.408068 71.0794311"></polygon>
                <polygon id="Fill-77" fill="#FFFFFF" mask="url(#mask-4)" points="153.552203 111.989814 163.644746 111.989814 163.644746 108.875371 153.552203 108.875371"></polygon>
                <polygon id="Fill-78" fill="#FFFFFF" mask="url(#mask-4)" points="243.567682 115.161694 241.984886 105.21588 238.901411 105.705097 240.485013 115.650108"></polygon>
                <polygon id="Fill-79" fill="#FFFFFF" mask="url(#mask-4)" points="129.517364 46.7780994 127.934568 36.833089 124.851898 37.3223064 126.434695 47.2665135"></polygon>
                <polygon id="Fill-80" fill="#FFFFFF" mask="url(#mask-4)" points="211.026237 24.3441482 211.736322 27.6811089 198.563525 30.4726203 197.853441 27.1356596"></polygon>
                <polygon id="Fill-81" fill="#FFFFFF" mask="url(#mask-4)" points="205.068288 20.4821424 201.723161 21.1906642 204.521636 34.3344654 207.865958 33.6259437"></polygon>
                <polygon id="Fill-82" fill="#FFFFFF" mask="url(#mask-4)" points="238.441949 62.4105631 239.152034 65.7475238 225.979237 68.5390352 225.269153 65.2020745"></polygon>
                <polygon id="Fill-83" fill="#FFFFFF" mask="url(#mask-4)" points="232.484081 58.548477 229.138953 59.2569988 231.937428 72.4008 235.28175 71.6922783"></polygon>
                <polygon id="Fill-84" fill="#FFFFFF" mask="url(#mask-4)" points="167.452233 39.0830874 174.744691 46.0445946 176.902318 43.7945159 169.610665 36.8330087"></polygon>
                <polygon id="Fill-85" fill="#FFFFFF" mask="url(#mask-4)" points="193.128076 129.777405 200.419729 136.738912 202.578161 134.488833 195.286508 127.527326"></polygon>
                <polygon id="Fill-86" fill="#FFFFFF" mask="url(#mask-4)" points="190.370419 79.3774095 200.462157 79.460954 200.487919 76.3473143 190.396987 76.2629665"></polygon>
                <polygon id="Fill-87" fill="#FFFFFF" mask="url(#mask-4)" points="135.135648 7.00392215 135.942343 3.68865093 149.028996 6.85771925 148.222301 10.1729905"></polygon>
                <polygon id="Fill-88" fill="#FFFFFF" mask="url(#mask-4)" points="138.832436 13.0577665 142.155021 13.8626857 145.331886 0.804838923 142.009301 -8.03312629e-05"></polygon>
                <polygon id="Fill-89" fill="#FFFFFF" mask="url(#mask-4)" points="193.128076 5.20120828 200.419729 12.1627155 202.578161 9.91183354 195.286508 2.95032629"></polygon>
                <polygon id="Fill-90" fill="#FFFFFF" mask="url(#mask-4)" points="254.36878 171.355099 252.785983 161.409285 249.702508 161.898503 251.28611 171.84271"></polygon>
                <polygon id="Fill-91" fill="#FFFFFF" mask="url(#mask-4)" points="135.135648 256.157118 135.942343 252.841043 149.028996 256.010915 148.222301 259.326186"></polygon>
                <polygon id="Fill-92" fill="#FFFFFF" mask="url(#mask-4)" points="138.832436 262.210239 142.155021 263.015159 145.331886 249.957312 142.009301 249.152393"></polygon>
                <polygon id="Fill-93" fill="#FFFFFF" mask="url(#mask-4)" points="213.307445 239.611609 211.736725 236.581514 223.697869 230.407253 225.268589 233.437348"></polygon>
                <polygon id="Fill-94" fill="#FFFFFF" mask="url(#mask-4)" points="220.077966 241.761113 223.114746 240.19385 216.927669 228.258231 213.890085 229.826297"></polygon>
                <polygon id="Fill-95" fill="#FFFFFF" mask="url(#mask-4)" points="139.825025 205.441742 138.2535 202.411647 150.215449 196.237386 151.786169 199.267482"></polygon>
                <polygon id="Fill-96" fill="#FFFFFF" mask="url(#mask-4)" points="146.595144 207.590443 149.631924 206.02318 143.444847 194.087561 140.408068 195.656431"></polygon>
                <polygon id="Fill-97" fill="#FFFFFF" mask="url(#mask-4)" points="153.552203 236.566733 163.644746 236.566733 163.644746 233.45229 153.552203 233.45229"></polygon>
                <polygon id="Fill-98" fill="#FFFFFF" mask="url(#mask-4)" points="243.567682 239.73789 241.984886 229.79288 238.901411 230.282097 240.485013 240.226304"></polygon>
                <polygon id="Fill-99" fill="#FFFFFF" mask="url(#mask-4)" points="129.517364 171.355099 127.934568 161.409285 124.851898 161.898503 126.434695 171.84271"></polygon>
                <polygon id="Fill-100" fill="#FFFFFF" mask="url(#mask-4)" points="211.026237 148.920425 211.736322 152.257386 198.563525 155.0497 197.853441 151.71274"></polygon>
                <polygon id="Fill-101" fill="#FFFFFF" mask="url(#mask-4)" points="205.068288 145.058419 201.723161 145.767744 204.521636 158.911545 207.865958 158.20222"></polygon>
                <polygon id="Fill-102" fill="#FFFFFF" mask="url(#mask-4)" points="238.441949 186.986759 239.152034 190.32372 225.979237 193.116035 225.269153 189.778271"></polygon>
                <polygon id="Fill-103" fill="#FFFFFF" mask="url(#mask-4)" points="232.484081 183.124754 229.138953 183.834079 231.937428 196.97788 235.28175 196.268555"></polygon>
                <polygon id="Fill-104" fill="#FFFFFF" mask="url(#mask-4)" points="167.452233 163.660087 174.744691 170.621594 176.902318 168.370712 169.610665 161.409205"></polygon>
                <polygon id="Fill-105" fill="#FFFFFF" mask="url(#mask-4)" points="193.128076 254.353601 200.419729 261.315911 202.578161 259.065029 195.286508 252.103522"></polygon>
                <polygon id="Fill-106" fill="#FFFFFF" mask="url(#mask-4)" points="190.370419 203.953606 200.462157 204.03715 200.487919 200.924314 190.396987 200.839163"></polygon>
                <polygon id="Fill-107" fill="#FFFFFF" mask="url(#mask-4)" points="135.135648 131.580118 135.942343 128.264847 149.028996 131.434719 148.222301 134.74999"></polygon>
                <polygon id="Fill-108" fill="#FFFFFF" mask="url(#mask-4)" points="138.832436 137.634043 142.155021 138.438962 145.331886 125.381116 142.009301 124.576196"></polygon>
                <polygon id="Fill-109" fill="#FFFFFF" mask="url(#mask-4)" points="193.128076 129.777405 200.419729 136.738912 202.578161 134.488833 195.286508 127.527326"></polygon>
                <polygon id="Fill-110" fill="#FFFFFF" mask="url(#mask-4)" points="254.36878 295.931295 252.785983 285.985482 249.702508 286.474699 251.28611 296.419709"></polygon>
                <polygon id="Fill-111" fill="#FFFFFF" mask="url(#mask-4)" points="135.135648 380.733395 135.942343 377.418123 149.028996 380.587995 148.222301 383.903266"></polygon>
                <polygon id="Fill-112" fill="#FFFFFF" mask="url(#mask-4)" points="138.832436 386.787239 142.155021 387.592158 145.331886 374.534311 142.009301 373.729392"></polygon>
                <polygon id="Fill-113" fill="#FFFFFF" mask="url(#mask-4)" points="213.307445 364.187805 211.736725 361.15771 223.697869 354.984253 225.268589 358.014348"></polygon>
                <polygon id="Fill-114" fill="#FFFFFF" mask="url(#mask-4)" points="220.077966 366.337309 223.114746 364.770046 216.927669 352.834427 213.890085 354.402494"></polygon>
                <polygon id="Fill-115" fill="#FFFFFF" mask="url(#mask-4)" points="139.825025 330.017939 138.2535 326.987843 150.215449 320.814386 151.786169 323.843678"></polygon>
                <polygon id="Fill-116" fill="#FFFFFF" mask="url(#mask-4)" points="146.595144 332.167443 149.631924 330.60018 143.444847 318.664561 140.408068 320.232627"></polygon>
                <polygon id="Fill-117" fill="#FFFFFF" mask="url(#mask-4)" points="153.552203 361.143652 163.644746 361.143652 163.644746 358.029209 153.552203 358.029209"></polygon>
                <polygon id="Fill-118" fill="#FFFFFF" mask="url(#mask-4)" points="243.567682 364.314086 241.984886 354.369076 238.901411 354.858293 240.485013 364.8025"></polygon>
                <polygon id="Fill-119" fill="#FFFFFF" mask="url(#mask-4)" points="129.517364 295.931295 127.934568 285.985482 124.851898 286.474699 126.434695 296.419709"></polygon>
                <polygon id="Fill-120" fill="#FFFFFF" mask="url(#mask-4)" points="211.026237 273.496621 211.736322 276.834385 198.563525 279.625896 197.853441 276.288936"></polygon>
                <polygon id="Fill-121" fill="#FFFFFF" mask="url(#mask-4)" points="205.068288 269.634615 201.723161 270.34394 204.521636 283.487742 207.865958 282.77922"></polygon>
                <polygon id="Fill-122" fill="#FFFFFF" mask="url(#mask-4)" points="238.441949 311.562956 239.152034 314.899916 225.979237 317.692231 225.269153 314.35527"></polygon>
                <polygon id="Fill-123" fill="#FFFFFF" mask="url(#mask-4)" points="232.484081 307.70095 229.138953 308.410275 231.937428 321.554076 235.28175 320.844751"></polygon>
                <polygon id="Fill-124" fill="#FFFFFF" mask="url(#mask-4)" points="167.452233 288.236283 174.744691 295.19779 176.902318 292.947712 169.610665 285.985401"></polygon>
                <polygon id="Fill-125" fill="#FFFFFF" mask="url(#mask-4)" points="193.128076 378.9306 200.419729 385.892108 202.578161 383.642029 195.286508 376.679718"></polygon>
                <polygon id="Fill-126" fill="#FFFFFF" mask="url(#mask-4)" points="190.370419 328.530605 200.462157 328.61415 200.487919 325.50051 190.396987 325.416162"></polygon>
                <polygon id="Fill-127" fill="#FFFFFF" mask="url(#mask-4)" points="135.135648 256.157118 135.942343 252.841043 149.028996 256.010915 148.222301 259.326186"></polygon>
                <polygon id="Fill-128" fill="#FFFFFF" mask="url(#mask-4)" points="138.832436 262.210239 142.155021 263.015159 145.331886 249.957312 142.009301 249.152393"></polygon>
                <polygon id="Fill-129" fill="#FFFFFF" mask="url(#mask-4)" points="193.128076 254.353601 200.419729 261.315911 202.578161 259.065029 195.286508 252.103522"></polygon>
                <polygon id="Fill-130" fill="#FFFFFF" mask="url(#mask-4)" points="129.517364 46.7780994 127.934568 36.833089 124.851898 37.3223064 126.434695 47.2665135"></polygon>
                <polygon id="Fill-131" fill="#FFFFFF" mask="url(#mask-4)" points="10.2842331 131.580118 11.090928 128.264847 24.1775805 131.434719 23.3708856 134.74999"></polygon>
                <polygon id="Fill-132" fill="#FFFFFF" mask="url(#mask-4)" points="13.9813432 137.634043 17.303928 138.438962 20.4807924 125.381116 17.1582076 124.576196"></polygon>
                <polygon id="Fill-133" fill="#FFFFFF" mask="url(#mask-4)" points="88.4560297 115.035333 86.8853093 112.005237 98.8464534 105.830976 100.417174 108.861072"></polygon>
                <polygon id="Fill-134" fill="#FFFFFF" mask="url(#mask-4)" points="95.2265508 117.184033 98.2633305 115.61677 92.0762542 103.681151 89.0386695 105.249217"></polygon>
                <polygon id="Fill-135" fill="#FFFFFF" mask="url(#mask-4)" points="14.9736102 80.8647429 13.4028898 77.8354509 25.3640339 71.6611901 26.9347542 74.6912853"></polygon>
                <polygon id="Fill-136" fill="#FFFFFF" mask="url(#mask-4)" points="21.7436483 83.0142468 24.780428 81.4469839 18.5933517 69.5113648 15.556572 71.0794311"></polygon>
                <polygon id="Fill-137" fill="#FFFFFF" mask="url(#mask-4)" points="28.7004661 111.989814 38.7930085 111.989814 38.7930085 108.875371 28.7004661 108.875371"></polygon>
                <polygon id="Fill-138" fill="#FFFFFF" mask="url(#mask-4)" points="118.716267 115.161694 117.13347 105.21588 114.050801 105.705097 115.633597 115.650108"></polygon>
                <polygon id="Fill-139" fill="#FFFFFF" mask="url(#mask-4)" points="4.66586864 46.7780994 3.08307203 36.833089 0.000402542373 37.3223064 1.58319915 47.2665135"></polygon>
                <polygon id="Fill-140" fill="#FFFFFF" mask="url(#mask-4)" points="86.174822 24.3441482 86.8849068 27.6811089 73.7121102 30.4726203 73.0020254 27.1356596"></polygon>
                <polygon id="Fill-141" fill="#FFFFFF" mask="url(#mask-4)" points="80.2168729 20.4821424 76.8717458 21.1906642 79.6702203 34.3344654 83.0145424 33.6259437"></polygon>
                <polygon id="Fill-142" fill="#FFFFFF" mask="url(#mask-4)" points="113.590534 62.4105631 114.300619 65.7475238 101.127822 68.5390352 100.417737 65.2020745"></polygon>
                <polygon id="Fill-143" fill="#FFFFFF" mask="url(#mask-4)" points="107.632665 58.548477 104.288343 59.2569988 107.086013 72.4008 110.430335 71.6922783"></polygon>
                <polygon id="Fill-144" fill="#FFFFFF" mask="url(#mask-4)" points="42.6012203 39.0830874 49.8928729 46.0445946 52.0513051 43.7945159 44.7588475 36.8330087"></polygon>
                <polygon id="Fill-145" fill="#FFFFFF" mask="url(#mask-4)" points="68.276661 129.777405 75.5691186 136.738912 77.7267458 134.488833 70.4350932 127.527326"></polygon>
                <polygon id="Fill-146" fill="#FFFFFF" mask="url(#mask-4)" points="65.5190042 79.3774095 75.6107415 79.460954 75.6373093 76.3473143 65.545572 76.2629665"></polygon>
                <polygon id="Fill-147" fill="#FFFFFF" mask="url(#mask-4)" points="10.2842331 7.00392215 11.090928 3.68865093 24.1775805 6.85771925 23.3708856 10.1729905"></polygon>
                <polygon id="Fill-148" fill="#FFFFFF" mask="url(#mask-4)" points="13.9813432 13.0577665 17.303928 13.8626857 20.4807924 0.804838923 17.1582076 -8.03312629e-05"></polygon>
                <polygon id="Fill-149" fill="#FFFFFF" mask="url(#mask-4)" points="68.276661 5.20120828 75.5691186 12.1627155 77.7267458 9.91183354 70.4350932 2.95032629"></polygon>
                <polygon id="Fill-150" fill="#FFFFFF" mask="url(#mask-4)" points="129.517364 171.355099 127.934568 161.409285 124.851898 161.898503 126.434695 171.84271"></polygon>
                <polygon id="Fill-151" fill="#FFFFFF" mask="url(#mask-4)" points="10.2842331 256.157118 11.090928 252.841043 24.1775805 256.010915 23.3708856 259.326186"></polygon>
                <polygon id="Fill-152" fill="#FFFFFF" mask="url(#mask-4)" points="13.9813432 262.210239 17.303928 263.015159 20.4807924 249.957312 17.1582076 249.152393"></polygon>
                <polygon id="Fill-153" fill="#FFFFFF" mask="url(#mask-4)" points="88.4560297 239.611609 86.8853093 236.581514 98.8464534 230.407253 100.417174 233.437348"></polygon>
                <polygon id="Fill-154" fill="#FFFFFF" mask="url(#mask-4)" points="95.2265508 241.761113 98.2633305 240.19385 92.0762542 228.258231 89.0386695 229.826297"></polygon>
                <polygon id="Fill-155" fill="#FFFFFF" mask="url(#mask-4)" points="14.9736102 205.441742 13.4028898 202.411647 25.3640339 196.237386 26.9347542 199.267482"></polygon>
                <polygon id="Fill-156" fill="#FFFFFF" mask="url(#mask-4)" points="21.7436483 207.590443 24.780428 206.02318 18.5933517 194.087561 15.556572 195.656431"></polygon>
                <polygon id="Fill-157" fill="#FFFFFF" mask="url(#mask-4)" points="28.7004661 236.566733 38.7930085 236.566733 38.7930085 233.45229 28.7004661 233.45229"></polygon>
                <polygon id="Fill-158" fill="#FFFFFF" mask="url(#mask-4)" points="118.716267 239.73789 117.13347 229.79288 114.050801 230.282097 115.633597 240.226304"></polygon>
                <polygon id="Fill-159" fill="#FFFFFF" mask="url(#mask-4)" points="4.66586864 171.355099 3.08307203 161.409285 0.000402542373 161.898503 1.58319915 171.84271"></polygon>
                <polygon id="Fill-160" fill="#FFFFFF" mask="url(#mask-4)" points="86.174822 148.920425 86.8849068 152.257386 73.7121102 155.0497 73.0020254 151.71274"></polygon>
                <polygon id="Fill-161" fill="#FFFFFF" mask="url(#mask-4)" points="80.2168729 145.058419 76.8717458 145.767744 79.6702203 158.911545 83.0145424 158.20222"></polygon>
                <polygon id="Fill-162" fill="#FFFFFF" mask="url(#mask-4)" points="113.590534 186.986759 114.300619 190.32372 101.127822 193.116035 100.417737 189.778271"></polygon>
                <polygon id="Fill-163" fill="#FFFFFF" mask="url(#mask-4)" points="107.632665 183.124754 104.288343 183.834079 107.086013 196.97788 110.430335 196.268555"></polygon>
                <polygon id="Fill-164" fill="#FFFFFF" mask="url(#mask-4)" points="42.6012203 163.660087 49.8928729 170.621594 52.0513051 168.370712 44.7588475 161.409205"></polygon>
                <polygon id="Fill-165" fill="#FFFFFF" mask="url(#mask-4)" points="68.276661 254.353601 75.5691186 261.315911 77.7267458 259.065029 70.4350932 252.103522"></polygon>
                <polygon id="Fill-166" fill="#FFFFFF" mask="url(#mask-4)" points="65.5190042 203.953606 75.6107415 204.03715 75.6373093 200.924314 65.545572 200.839163"></polygon>
                <polygon id="Fill-167" fill="#FFFFFF" mask="url(#mask-4)" points="10.2842331 131.580118 11.090928 128.264847 24.1775805 131.434719 23.3708856 134.74999"></polygon>
                <polygon id="Fill-168" fill="#FFFFFF" mask="url(#mask-4)" points="13.9813432 137.634043 17.303928 138.438962 20.4807924 125.381116 17.1582076 124.576196"></polygon>
                <polygon id="Fill-169" fill="#FFFFFF" mask="url(#mask-4)" points="68.276661 129.777405 75.5691186 136.738912 77.7267458 134.488833 70.4350932 127.527326"></polygon>
                <polygon id="Fill-170" fill="#FFFFFF" mask="url(#mask-4)" points="129.517364 295.931295 127.934568 285.985482 124.851898 286.474699 126.434695 296.419709"></polygon>
                <polygon id="Fill-171" fill="#FFFFFF" mask="url(#mask-4)" points="10.2842331 380.733395 11.090928 377.418123 24.1775805 380.587995 23.3708856 383.903266"></polygon>
                <polygon id="Fill-172" fill="#FFFFFF" mask="url(#mask-4)" points="13.9813432 386.787239 17.303928 387.592158 20.4807924 374.534311 17.1582076 373.729392"></polygon>
                <polygon id="Fill-173" fill="#FFFFFF" mask="url(#mask-4)" points="88.4560297 364.187805 86.8853093 361.15771 98.8464534 354.984253 100.417174 358.014348"></polygon>
                <polygon id="Fill-174" fill="#FFFFFF" mask="url(#mask-4)" points="95.2265508 366.337309 98.2633305 364.770046 92.0762542 352.834427 89.0386695 354.402494"></polygon>
                <polygon id="Fill-175" fill="#FFFFFF" mask="url(#mask-4)" points="14.9736102 330.017939 13.4028898 326.987843 25.3640339 320.814386 26.9347542 323.843678"></polygon>
                <polygon id="Fill-176" fill="#FFFFFF" mask="url(#mask-4)" points="21.7436483 332.167443 24.780428 330.60018 18.5933517 318.664561 15.556572 320.232627"></polygon>
                <polygon id="Fill-177" fill="#FFFFFF" mask="url(#mask-4)" points="28.7004661 361.143652 38.7930085 361.143652 38.7930085 358.029209 28.7004661 358.029209"></polygon>
                <polygon id="Fill-178" fill="#FFFFFF" mask="url(#mask-4)" points="118.716267 364.314086 117.13347 354.369076 114.050801 354.858293 115.633597 364.8025"></polygon>
                <polygon id="Fill-179" fill="#FFFFFF" mask="url(#mask-4)" points="4.66586864 295.931295 3.08307203 285.985482 0.000402542373 286.474699 1.58319915 296.419709"></polygon>
                <polygon id="Fill-180" fill="#FFFFFF" mask="url(#mask-4)" points="86.174822 273.496621 86.8849068 276.834385 73.7121102 279.625896 73.0020254 276.288936"></polygon>
                <polygon id="Fill-181" fill="#FFFFFF" mask="url(#mask-4)" points="80.2168729 269.634615 76.8717458 270.34394 79.6702203 283.487742 83.0145424 282.77922"></polygon>
                <polygon id="Fill-182" fill="#FFFFFF" mask="url(#mask-4)" points="113.590534 311.562956 114.300619 314.899916 101.127822 317.692231 100.417737 314.35527"></polygon>
                <polygon id="Fill-183" fill="#FFFFFF" mask="url(#mask-4)" points="107.632665 307.70095 104.288343 308.410275 107.086013 321.554076 110.430335 320.844751"></polygon>
                <polygon id="Fill-184" fill="#FFFFFF" mask="url(#mask-4)" points="42.6012203 288.236283 49.8928729 295.19779 52.0513051 292.947712 44.7588475 285.985401"></polygon>
                <polygon id="Fill-185" fill="#FFFFFF" mask="url(#mask-4)" points="68.276661 378.9306 75.5691186 385.892108 77.7267458 383.642029 70.4350932 376.679718"></polygon>
                <polygon id="Fill-186" fill="#FFFFFF" mask="url(#mask-4)" points="65.5190042 328.530605 75.6107415 328.61415 75.6373093 325.50051 65.545572 325.416162"></polygon>
                <polygon id="Fill-187" fill="#FFFFFF" mask="url(#mask-4)" points="10.2842331 256.157118 11.090928 252.841043 24.1775805 256.010915 23.3708856 259.326186"></polygon>
                <polygon id="Fill-188" fill="#FFFFFF" mask="url(#mask-4)" points="13.9813432 262.210239 17.303928 263.015159 20.4807924 249.957312 17.1582076 249.152393"></polygon>
                <polygon id="Fill-189" fill="#FFFFFF" mask="url(#mask-4)" points="68.276661 254.353601 75.5691186 261.315911 77.7267458 259.065029 70.4350932 252.103522"></polygon>
            </g>
        </g>
    </g>
</svg>