<?xml version="1.0" encoding="UTF-8"?>
<svg width="136px" height="150px" viewBox="0 0 136 150" version="1.1" xmlns="http://www.w3.org/2000/svg" xmlns:xlink="http://www.w3.org/1999/xlink">
    <!-- Generator: Sketch 47.1 (45422) - http://www.bohemiancoding.com/sketch -->
    <title>result_plus</title>
    <desc>Created with Sketch.</desc>
    <defs></defs>
    <g id="Page-1" stroke="none" stroke-width="1" fill="none" fill-rule="evenodd" opacity="0.150305707">
        <g id="Finish_Card-The-End-Copy" transform="translate(-275.000000, -37.000000)" fill="#FFFFFF">
            <g id="Group-5" transform="translate(247.000000, 5.000000)">
                <g id="Group-21" transform="translate(0.000000, 14.000000)">
                    <polygon id="Fill-1" points="99.2538462 77.5802467 110.354398 80.1377171 111.0388 77.4629016 99.9379835 74.9056824"></polygon>
                    <polygon id="Fill-2" points="102.438969 82.5543129 105.206908 83.2153846 107.853677 72.4888308 105.085478 71.8280149"></polygon>
                    <polygon id="Fill-7" points="103.133062 36.7426055 101.801944 34.3109638 111.937268 29.3562035 113.268385 31.788345"></polygon>
                    <polygon id="Fill-8" points="108.840512 38.589206 111.357312 37.3029958 106.229817 27.509603 103.713018 28.7958131"></polygon>
                    <polygon id="Fill-11" points="141.331715 58.2862779 141.934489 60.9676019 130.752574 63.2105459 130.149535 60.5292219"></polygon>
                    <polygon id="Fill-12" points="136.109858 54.9008437 133.334658 55.4835247 135.656172 66.2882134 138.430854 65.7055323"></polygon>
                    <polygon id="Fill-3" points="62.8412919 64.1338462 61.5101437 61.7019546 71.6457012 56.7474442 72.976585 59.1793357"></polygon>
                    <polygon id="Fill-4" points="68.5487117 66.2882134 71.0655114 65.0020032 65.938017 55.2086104 63.4212172 56.4948206"></polygon>
                    <polygon id="Fill-11" points="39.8855611 58.2862779 40.4883347 60.9676019 29.3064198 63.2105459 28.7033812 60.5292219"></polygon>
                    <polygon id="Fill-12" points="34.6637037 54.9008437 31.8885038 55.4835247 34.2100179 66.2882134 36.9846999 65.7055323"></polygon>
                    <polygon id="Fill-13" points="72.976585 23.9052067 73.57961 26.5863027 84.7615385 24.3436312 84.7615385 24.34238 84.1585134 21.6620347"></polygon>
                    <polygon id="Fill-14" points="78.9367895 18.5843672 76.1617075 19.1667923 78.4830807 29.971737 81.2579036 29.3890559"></polygon>
                    <polygon id="Fill-5" points="131.799196 121.261588 130.468047 118.829697 140.603605 113.875186 141.934489 116.307078"></polygon>
                    <polygon id="Fill-6" points="137.506615 123.415955 140.023415 122.129745 134.895921 112.336352 132.379121 113.622563"></polygon>
                    <polygon id="Fill-7" points="103.000348 137.701787 101.669231 135.270145 111.804555 130.315385 113.135672 132.747526"></polygon>
                    <polygon id="Fill-7-Copy" points="122.323425 159.440248 120.992308 157.008607 131.127631 152.053846 132.458749 154.485988"></polygon>
                    <polygon id="Fill-8" points="109.21211 140.187295 111.72891 138.901085 106.601415 129.107692 104.084615 130.393902"></polygon>
                    <polygon id="Fill-8-Copy" points="127.327494 160.718065 129.844294 159.431854 124.7168 149.638462 122.2 150.924672"></polygon>
                    <polygon id="Fill-9" points="162.990297 92.3315136 163.593322 95.0128376 152.411394 97.2557816 151.808369 94.5744577"></polygon>
                    <polygon id="Fill-10" points="157.448907 89.2538462 154.674979 89.8365272 156.996211 100.641216 159.771175 100.058535 157.449943 89.2538462"></polygon>
                    <polygon id="Fill-3" points="62.8412919 165.58 61.5101437 163.148108 71.6457012 158.193598 72.976585 160.62549"></polygon>
                    <polygon id="Fill-4" points="68.5487117 167.734367 71.0655114 166.448157 65.938017 156.654764 63.4212172 157.940974"></polygon>
                    <polygon id="Fill-5" points="30.3530417 121.261588 29.0218935 118.829697 39.157451 113.875186 40.4883347 116.307078"></polygon>
                    <polygon id="Fill-6" points="36.0604615 123.415955 38.5772612 122.129745 33.4497668 112.336352 30.932967 113.622563"></polygon>
                    <polygon id="Fill-9" points="61.5441432 92.3315136 62.1471682 95.0128376 50.9652398 97.2557816 50.3622147 94.5744577"></polygon>
                    <polygon id="Fill-10" points="56.0027531 89.2538462 53.228825 89.8365272 55.5500571 100.641216 58.3250211 100.058535 56.003789 89.2538462"></polygon>
                    <polygon id="Fill-13" points="72.976585 125.351361 73.57961 128.032457 84.7615385 125.789785 84.7615385 125.788534 84.1585134 123.108189"></polygon>
                    <polygon id="Fill-14" points="78.9367895 120.030521 76.1617075 120.612946 78.4830807 131.417891 81.2579036 130.83521"></polygon>
                </g>
            </g>
        </g>
    </g>
</svg>