<?xml version="1.0" encoding="UTF-8"?>
<svg width="136px" height="144px" viewBox="0 0 136 144" version="1.1" xmlns="http://www.w3.org/2000/svg" xmlns:xlink="http://www.w3.org/1999/xlink">
    <!-- Generator: Sketch 47.1 (45422) - http://www.bohemiancoding.com/sketch -->
    <title>result_minus</title>
    <desc>Created with Sketch.</desc>
    <defs></defs>
    <g id="Page-1" stroke="none" stroke-width="1" fill="none" fill-rule="evenodd" opacity="0.150305707">
        <g id="Finish_Card-The-End-Copy" transform="translate(-389.000000, -29.000000)" fill="#FFFFFF">
            <g id="Group-5" transform="translate(275.000000, 5.000000)">
                <g id="Group-22" transform="translate(79.000000, 0.000000)">
                    <polygon id="Fill-1" points="106.253846 79.9571698 117.354398 82.5146402 118.0388 79.8398246 106.937983 77.2826055"></polygon>
                    <polygon id="Fill-7" points="110.133062 39.1195285 108.801944 36.6878869 118.937268 31.7331266 120.268385 34.165268"></polygon>
                    <polygon id="Fill-11" points="148.331715 60.663201 148.934489 63.344525 137.752574 65.587469 137.149535 62.906145"></polygon>
                    <polygon id="Fill-3" points="69.8412919 66.5107692 68.5101437 64.0788777 78.6457012 59.1243672 79.976585 61.5562588"></polygon>
                    <polygon id="Fill-11" points="46.8855611 60.663201 47.4883347 63.344525 36.3064198 65.587469 35.7033812 62.906145"></polygon>
                    <polygon id="Fill-13" points="79.976585 26.2821298 80.57961 28.9632258 91.7615385 26.7205543 91.7615385 26.7193031 91.1585134 24.0389578"></polygon>
                    <polygon id="Fill-5" points="138.799196 123.638511 137.468047 121.20662 147.603605 116.252109 148.934489 118.684001"></polygon>
                    <polygon id="Fill-7" points="110.000348 140.07871 108.669231 137.647068 118.804555 132.692308 120.135672 135.124449"></polygon>
                    <polygon id="Fill-7-Copy" points="129.323425 161.817171 127.992308 159.38553 138.127631 154.430769 139.458749 156.862911"></polygon>
                    <polygon id="Fill-9" points="169.990297 94.7084367 170.593322 97.3897607 159.411394 99.6327047 158.808369 96.9513807"></polygon>
                    <polygon id="Fill-3" points="69.8412919 167.956923 68.5101437 165.525032 78.6457012 160.570521 79.976585 163.002413"></polygon>
                    <polygon id="Fill-5" points="37.3530417 123.638511 36.0218935 121.20662 46.157451 116.252109 47.4883347 118.684001"></polygon>
                    <polygon id="Fill-9" points="68.5441432 94.7084367 69.1471682 97.3897607 57.9652398 99.6327047 57.3622147 96.9513807"></polygon>
                    <polygon id="Fill-13" points="79.976585 127.728284 80.57961 130.40938 91.7615385 128.166708 91.7615385 128.165457 91.1585134 125.485112"></polygon>
                </g>
            </g>
        </g>
    </g>
</svg>