<svg width="1319" height="791" viewBox="0 0 1319 791" version="1.1" xmlns="http://www.w3.org/2000/svg" xmlns:xlink="http://www.w3.org/1999/xlink">
<title>4_bullets_red</title>
<desc>Created using Figma</desc>
<g id="Canvas" transform="translate(-26839 -6297)">
<g id="4_bullets_red">
<g id="Vector">
<use xlink:href="#path0_stroke" transform="translate(27605.1 6492.65)" fill="#FF0101"/>
</g>
<g id="Vector">
<use xlink:href="#path1_stroke" transform="matrix(0.846674 0.532113 -0.531852 0.846838 26763.8 6613.29)" fill="#FF0101"/>
</g>
<g id="Vector">
<use xlink:href="#path2_stroke" transform="matrix(0.639434 0.768846 -0.768631 0.639693 27030.4 6354.08)" fill="#FF0101"/>
</g>
<g id="Vector">
<use xlink:href="#path3_stroke" transform="matrix(0.446385 0.894841 -0.894719 0.44663 27179.4 6046)" fill="#FF0101"/>
</g>
<g id="Vector">
<use xlink:href="#path4_stroke" transform="matrix(0.627912 0.778284 -0.778074 0.628172 26927.5 6348.82)" fill="#FF0101"/>
</g>
<g id="Vector">
<use xlink:href="#path5_stroke" transform="matrix(0.880889 0.473323 -0.473072 0.881024 26919.9 6661.76)" fill="#FF0101"/>
</g>
<g id="Vector">
<use xlink:href="#path6_stroke" transform="matrix(0.798431 0.602086 -0.601823 0.798629 26981.8 6429.95)" fill="#FF0101"/>
</g>
</g>
</g>
<defs>
<path id="path0_stroke" d="M 0.810724 355.832L 7.17937 351.74L 5.55792 349.216L -0.810724 353.308L 0.810724 355.832ZM 15.6709 346.286L 28.4082 338.103L 26.7867 335.579L 14.0495 343.762L 15.6709 346.286ZM 36.8997 332.648L 49.637 324.466L 48.0156 321.942L 35.2783 330.124L 36.8997 332.648ZM 58.1285 319.011L 70.8658 310.829L 69.2444 308.305L 56.5071 316.487L 58.1285 319.011ZM 79.3574 305.374L 92.0947 297.191L 90.4732 294.667L 77.7359 302.85L 79.3574 305.374ZM 100.586 291.736L 113.323 283.554L 111.702 281.03L 98.9647 289.212L 100.586 291.736ZM 121.815 278.099L 134.552 269.917L 132.931 267.393L 120.194 275.575L 121.815 278.099ZM 143.044 264.462L 155.781 256.279L 154.16 253.755L 141.422 261.938L 143.044 264.462ZM 164.273 250.825L 177.01 242.642L 175.389 240.118L 162.651 248.3L 164.273 250.825ZM 185.501 237.187L 198.239 229.005L 196.617 226.481L 183.88 234.663L 185.501 237.187ZM 206.73 223.55L 219.468 215.368L 217.846 212.843L 205.109 221.026L 206.73 223.55ZM 227.959 209.913L 240.696 201.73L 239.075 199.206L 226.338 207.389L 227.959 209.913ZM 249.188 196.275L 261.925 188.093L 260.304 185.569L 247.567 193.751L 249.188 196.275ZM 270.417 182.638L 283.154 174.456L 281.533 171.932L 268.795 180.114L 270.417 182.638ZM 291.646 169.001L 304.383 160.818L 302.761 158.294L 290.024 166.477L 291.646 169.001ZM 312.874 155.363L 325.612 147.181L 323.99 144.657L 311.253 152.839L 312.874 155.363ZM 334.103 141.726L 346.841 133.544L 345.219 131.02L 332.482 139.202L 334.103 141.726ZM 355.332 128.089L 368.069 119.906L 366.448 117.382L 353.711 125.565L 355.332 128.089ZM 376.561 114.452L 389.298 106.269L 387.677 103.745L 374.939 111.927L 376.561 114.452ZM 397.79 100.814L 410.527 92.6319L 408.906 90.1078L 396.168 98.2902L 397.79 100.814ZM 419.019 87.177L 431.756 78.9946L 430.134 76.4705L 417.397 84.6529L 419.019 87.177ZM 440.247 73.5397L 452.985 65.3573L 451.363 62.8332L 438.626 71.0156L 440.247 73.5397ZM 461.476 59.9024L 474.214 51.72L 472.592 49.1959L 459.855 57.3783L 461.476 59.9024ZM 482.705 46.2651L 495.442 38.0827L 493.821 35.5587L 481.084 43.741L 482.705 46.2651ZM 503.934 32.6278L 516.671 24.4454L 515.05 21.9214L 502.312 30.1037L 503.934 32.6278ZM 525.163 18.9905L 537.9 10.8081L 536.279 8.28406L 523.541 16.4664L 525.163 18.9905ZM 546.391 5.35321L 552.76 1.26203L 551.139 -1.26203L 544.77 2.82915L 546.391 5.35321Z"/>
<path id="path1_stroke" d="M 0.810613 482.255L 7.05139 478.246L 5.43017 475.722L -0.810613 479.731L 0.810613 482.255ZM 15.3724 472.902L 27.854 464.886L 26.2328 462.361L 13.7512 470.378L 15.3724 472.902ZM 36.175 459.541L 48.6566 451.525L 47.0354 449L 34.5538 457.017L 36.175 459.541ZM 56.9776 446.18L 69.4592 438.164L 67.838 435.64L 55.3564 443.656L 56.9776 446.18ZM 77.7803 432.819L 90.2618 424.803L 88.6406 422.279L 76.159 430.295L 77.7803 432.819ZM 98.5829 419.458L 111.064 411.442L 109.443 408.918L 96.9616 416.934L 98.5829 419.458ZM 119.385 406.098L 131.867 398.081L 130.246 395.557L 117.764 403.573L 119.385 406.098ZM 140.188 392.737L 152.67 384.72L 151.048 382.196L 138.567 390.212L 140.188 392.737ZM 160.991 379.376L 173.472 371.359L 171.851 368.835L 159.369 376.852L 160.991 379.376ZM 181.793 366.015L 194.275 357.998L 192.654 355.474L 180.172 363.491L 181.793 366.015ZM 202.596 352.654L 215.077 344.637L 213.456 342.113L 200.975 350.13L 202.596 352.654ZM 223.398 339.293L 235.88 331.276L 234.259 328.752L 221.777 336.769L 223.398 339.293ZM 244.201 325.932L 256.683 317.916L 255.061 315.391L 242.58 323.408L 244.201 325.932ZM 265.004 312.571L 277.485 304.555L 275.864 302.03L 263.382 310.047L 265.004 312.571ZM 285.806 299.21L 298.288 291.194L 296.667 288.67L 284.185 296.686L 285.806 299.21ZM 306.609 285.849L 319.09 277.833L 317.469 275.309L 304.988 283.325L 306.609 285.849ZM 327.412 272.489L 339.893 264.472L 338.272 261.948L 325.79 269.964L 327.412 272.489ZM 348.214 259.128L 360.696 251.111L 359.074 248.587L 346.593 256.603L 348.214 259.128ZM 369.017 245.767L 381.498 237.75L 379.877 235.226L 367.396 243.242L 369.017 245.767ZM 389.819 232.406L 402.301 224.389L 400.68 221.865L 388.198 229.882L 389.819 232.406ZM 410.622 219.045L 423.104 211.028L 421.482 208.504L 409.001 216.521L 410.622 219.045ZM 431.425 205.684L 443.906 197.667L 442.285 195.143L 429.803 203.16L 431.425 205.684ZM 452.227 192.323L 464.709 184.307L 463.087 181.782L 450.606 189.799L 452.227 192.323ZM 473.03 178.962L 485.511 170.946L 483.89 168.421L 471.409 176.438L 473.03 178.962ZM 493.832 165.601L 506.314 157.585L 504.693 155.061L 492.211 163.077L 493.832 165.601ZM 514.635 152.24L 527.117 144.224L 525.495 141.7L 513.014 149.716L 514.635 152.24ZM 535.438 138.879L 547.919 130.863L 546.298 128.339L 533.816 136.355L 535.438 138.879ZM 556.24 125.519L 568.722 117.502L 567.101 114.978L 554.619 122.994L 556.24 125.519ZM 577.043 112.158L 589.524 104.141L 587.903 101.617L 575.422 109.633L 577.043 112.158ZM 597.845 98.7967L 610.327 90.7802L 608.706 88.256L 596.224 96.2725L 597.845 98.7967ZM 618.648 85.4358L 631.13 77.4193L 629.508 74.8951L 617.027 82.9116L 618.648 85.4358ZM 639.451 72.0749L 651.932 64.0584L 650.311 61.5342L 637.829 69.5507L 639.451 72.0749ZM 660.253 58.714L 672.735 50.6975L 671.114 48.1732L 658.632 56.1898L 660.253 58.714ZM 681.056 45.3531L 693.537 37.3366L 691.916 34.8123L 679.435 42.8289L 681.056 45.3531ZM 701.858 31.9922L 714.34 23.9756L 712.719 21.4514L 700.237 29.468L 701.858 31.9922ZM 722.661 18.6313L 735.143 10.6147L 733.521 8.09053L 721.04 16.1071L 722.661 18.6313ZM 743.464 5.27037L 749.704 1.2621L 748.083 -1.2621L 741.842 2.74617L 743.464 5.27037Z"/>
<path id="path2_stroke" d="M 0.810492 482.204L 7.05193 478.196L 5.43095 475.672L -0.810492 479.68L 0.810492 482.204ZM 15.3739 472.853L 27.8567 464.837L 26.2357 462.312L 13.7529 470.328L 15.3739 472.853ZM 36.1786 459.493L 48.6615 451.477L 47.0405 448.953L 34.5577 456.969L 36.1786 459.493ZM 56.9835 446.134L 69.4663 438.118L 67.8453 435.593L 55.3625 443.609L 56.9835 446.134ZM 77.7883 432.774L 90.2711 424.758L 88.6501 422.234L 76.1673 430.25L 77.7883 432.774ZM 98.593 419.415L 111.076 411.399L 109.455 408.874L 96.9721 416.89L 98.593 419.415ZM 119.398 406.055L 131.881 398.039L 130.26 395.515L 117.777 403.531L 119.398 406.055ZM 140.203 392.696L 152.686 384.68L 151.065 382.155L 138.582 390.171L 140.203 392.696ZM 161.007 379.336L 173.49 371.32L 171.869 368.796L 159.386 376.812L 161.007 379.336ZM 181.812 365.977L 194.295 357.961L 192.674 355.436L 180.191 363.452L 181.812 365.977ZM 202.617 352.617L 215.1 344.601L 213.479 342.077L 200.996 350.093L 202.617 352.617ZM 223.422 339.258L 235.905 331.242L 234.284 328.717L 221.801 336.733L 223.422 339.258ZM 244.227 325.898L 256.71 317.882L 255.089 315.358L 242.606 323.374L 244.227 325.898ZM 265.031 312.539L 277.514 304.523L 275.893 301.998L 263.41 310.014L 265.031 312.539ZM 285.836 299.179L 298.319 291.163L 296.698 288.639L 284.215 296.655L 285.836 299.179ZM 306.641 285.82L 319.124 277.804L 317.503 275.279L 305.02 283.295L 306.641 285.82ZM 327.446 272.46L 339.929 264.444L 338.308 261.92L 325.825 269.936L 327.446 272.46ZM 348.251 259.101L 360.734 251.085L 359.113 248.56L 346.63 256.576L 348.251 259.101ZM 369.055 245.741L 381.538 237.725L 379.917 235.201L 367.434 243.217L 369.055 245.741ZM 389.86 232.382L 402.343 224.366L 400.722 221.841L 388.239 229.857L 389.86 232.382ZM 410.665 219.022L 423.148 211.006L 421.527 208.482L 409.044 216.498L 410.665 219.022ZM 431.47 205.663L 443.953 197.647L 442.332 195.122L 429.849 203.138L 431.47 205.663ZM 452.275 192.303L 464.758 184.287L 463.137 181.763L 450.654 189.779L 452.275 192.303ZM 473.079 178.944L 485.562 170.928L 483.941 168.403L 471.458 176.419L 473.079 178.944ZM 493.884 165.584L 506.367 157.568L 504.746 155.044L 492.263 163.06L 493.884 165.584ZM 514.689 152.225L 527.172 144.209L 525.551 141.684L 513.068 149.7L 514.689 152.225ZM 535.494 138.865L 547.977 130.849L 546.356 128.325L 533.873 136.341L 535.494 138.865ZM 556.299 125.506L 568.782 117.49L 567.161 114.965L 554.678 122.981L 556.299 125.506ZM 577.103 112.146L 589.586 104.13L 587.965 101.606L 575.482 109.622L 577.103 112.146ZM 597.908 98.7865L 610.391 90.7708L 608.77 88.2465L 596.287 96.2622L 597.908 98.7865ZM 618.713 85.427L 631.196 77.4113L 629.575 74.887L 617.092 82.9027L 618.713 85.427ZM 639.518 72.0675L 652.001 64.0518L 650.38 61.5275L 637.897 69.5432L 639.518 72.0675ZM 660.323 58.708L 672.806 50.6923L 671.185 48.168L 658.702 56.1837L 660.323 58.708ZM 681.127 45.3485L 693.61 37.3328L 691.989 34.8085L 679.506 42.8242L 681.127 45.3485ZM 701.932 31.989L 714.415 23.9733L 712.794 21.449L 700.311 29.4647L 701.932 31.989ZM 722.737 18.6295L 735.22 10.6138L 733.599 8.08946L 721.116 16.1052L 722.737 18.6295ZM 743.542 5.27002L 749.783 1.26218L 748.162 -1.26218L 741.921 2.74566L 743.542 5.27002Z"/>
<path id="path3_stroke" d="M 0.81041 567.135L 7.10585 563.093L 5.48503 560.568L -0.81041 564.61L 0.81041 567.135ZM 15.4998 557.703L 28.0906 549.62L 26.4698 547.095L 13.8789 555.179L 15.4998 557.703ZM 36.4846 544.23L 49.0754 536.146L 47.4546 533.622L 34.8637 541.706L 36.4846 544.23ZM 57.4694 530.757L 70.0602 522.673L 68.4394 520.149L 55.8485 528.233L 57.4694 530.757ZM 78.4542 517.284L 91.045 509.2L 89.4242 506.676L 76.8333 514.76L 78.4542 517.284ZM 99.4389 503.811L 112.03 495.727L 110.409 493.202L 97.8181 501.286L 99.4389 503.811ZM 120.424 490.338L 133.015 482.254L 131.394 479.729L 118.803 487.813L 120.424 490.338ZM 141.409 476.865L 153.999 468.781L 152.379 466.256L 139.788 474.34L 141.409 476.865ZM 162.393 463.391L 174.984 455.307L 173.363 452.783L 160.773 460.867L 162.393 463.391ZM 183.378 449.918L 195.969 441.834L 194.348 439.31L 181.757 447.394L 183.378 449.918ZM 204.363 436.445L 216.954 428.361L 215.333 425.837L 202.742 433.921L 204.363 436.445ZM 225.348 422.972L 237.939 414.888L 236.318 412.364L 223.727 420.447L 225.348 422.972ZM 246.333 409.499L 258.923 401.415L 257.303 398.89L 244.712 406.974L 246.333 409.499ZM 267.317 396.026L 279.908 387.942L 278.287 385.417L 265.697 393.501L 267.317 396.026ZM 288.302 382.552L 300.893 374.469L 299.272 371.944L 286.681 380.028L 288.302 382.552ZM 309.287 369.079L 321.878 360.995L 320.257 358.471L 307.666 366.555L 309.287 369.079ZM 330.272 355.606L 342.863 347.522L 341.242 344.998L 328.651 353.082L 330.272 355.606ZM 351.257 342.133L 363.847 334.049L 362.227 331.525L 349.636 339.609L 351.257 342.133ZM 372.241 328.66L 384.832 320.576L 383.211 318.051L 370.62 326.135L 372.241 328.66ZM 393.226 315.187L 405.817 307.103L 404.196 304.578L 391.605 312.662L 393.226 315.187ZM 414.211 301.714L 426.802 293.63L 425.181 291.105L 412.59 299.189L 414.211 301.714ZM 435.196 288.24L 447.787 280.156L 446.166 277.632L 433.575 285.716L 435.196 288.24ZM 456.18 274.767L 468.771 266.683L 467.151 264.159L 454.56 272.243L 456.18 274.767ZM 477.165 261.294L 489.756 253.21L 488.135 250.686L 475.544 258.77L 477.165 261.294ZM 498.15 247.821L 510.741 239.737L 509.12 237.213L 496.529 245.296L 498.15 247.821ZM 519.135 234.348L 531.726 226.264L 530.105 223.739L 517.514 231.823L 519.135 234.348ZM 540.12 220.875L 552.711 212.791L 551.09 210.266L 538.499 218.35L 540.12 220.875ZM 561.104 207.401L 573.695 199.318L 572.075 196.793L 559.484 204.877L 561.104 207.401ZM 582.089 193.928L 594.68 185.844L 593.059 183.32L 580.468 191.404L 582.089 193.928ZM 603.074 180.455L 615.665 172.371L 614.044 169.847L 601.453 177.931L 603.074 180.455ZM 624.059 166.982L 636.65 158.898L 635.029 156.374L 622.438 164.458L 624.059 166.982ZM 645.044 153.509L 657.635 145.425L 656.014 142.9L 643.423 150.984L 645.044 153.509ZM 666.028 140.036L 678.619 131.952L 676.998 129.427L 664.408 137.511L 666.028 140.036ZM 687.013 126.563L 699.604 118.479L 697.983 115.954L 685.392 124.038L 687.013 126.563ZM 707.998 113.089L 720.589 105.006L 718.968 102.481L 706.377 110.565L 707.998 113.089ZM 728.983 99.6162L 741.574 91.5324L 739.953 89.0079L 727.362 97.0918L 728.983 99.6162ZM 749.968 86.1431L 762.558 78.0592L 760.938 75.5347L 748.347 83.6186L 749.968 86.1431ZM 770.952 72.6699L 783.543 64.5861L 781.922 62.0616L 769.332 70.1455L 770.952 72.6699ZM 791.937 59.1968L 804.528 51.1129L 802.907 48.5884L 790.316 56.6723L 791.937 59.1968ZM 812.922 45.7236L 825.513 37.6397L 823.892 35.1153L 811.301 43.1992L 812.922 45.7236ZM 833.907 32.2505L 846.498 24.1666L 844.877 21.6421L 832.286 29.726L 833.907 32.2505ZM 854.892 18.7773L 867.482 10.6934L 865.862 8.16897L 853.271 16.2529L 854.892 18.7773ZM 875.876 5.30418L 882.172 1.26223L 880.551 -1.26223L 874.256 2.77971L 875.876 5.30418Z"/>
<path id="path4_stroke" d="M 0.810486 482.202L 7.05196 478.194L 5.43098 475.67L -0.810486 479.677L 0.810486 482.202ZM 15.3739 472.85L 27.8569 464.835L 26.2359 462.31L 13.7529 470.326L 15.3739 472.85ZM 36.1788 459.491L 48.6618 451.475L 47.0408 448.951L 34.5578 456.966L 36.1788 459.491ZM 56.9837 446.131L 69.4667 438.116L 67.8457 435.591L 55.3627 443.607L 56.9837 446.131ZM 77.7886 432.772L 90.2716 424.756L 88.6506 422.232L 76.1676 430.248L 77.7886 432.772ZM 98.5935 419.412L 111.076 411.397L 109.455 408.872L 96.9725 416.888L 98.5935 419.412ZM 119.398 406.053L 131.881 398.037L 130.26 395.513L 117.777 403.529L 119.398 406.053ZM 140.203 392.694L 152.686 384.678L 151.065 382.154L 138.582 390.169L 140.203 392.694ZM 161.008 379.334L 173.491 371.319L 171.87 368.794L 159.387 376.81L 161.008 379.334ZM 181.813 365.975L 194.296 357.959L 192.675 355.435L 180.192 363.45L 181.813 365.975ZM 202.618 352.615L 215.101 344.6L 213.48 342.075L 200.997 350.091L 202.618 352.615ZM 223.423 339.256L 235.906 331.24L 234.285 328.716L 221.802 336.732L 223.423 339.256ZM 244.228 325.896L 256.711 317.881L 255.09 315.356L 242.607 323.372L 244.228 325.896ZM 265.033 312.537L 277.516 304.521L 275.895 301.997L 263.412 310.013L 265.033 312.537ZM 285.838 299.178L 298.321 291.162L 296.7 288.638L 284.217 296.653L 285.838 299.178ZM 306.643 285.818L 319.125 277.802L 317.504 275.278L 305.022 283.294L 306.643 285.818ZM 327.447 272.459L 339.93 264.443L 338.309 261.919L 325.826 269.934L 327.447 272.459ZM 348.252 259.099L 360.735 251.084L 359.114 248.559L 346.631 256.575L 348.252 259.099ZM 369.057 245.74L 381.54 237.724L 379.919 235.2L 367.436 243.215L 369.057 245.74ZM 389.862 232.38L 402.345 224.365L 400.724 221.84L 388.241 229.856L 389.862 232.38ZM 410.667 219.021L 423.15 211.005L 421.529 208.481L 409.046 216.497L 410.667 219.021ZM 431.472 205.662L 443.955 197.646L 442.334 195.122L 429.851 203.137L 431.472 205.662ZM 452.277 192.302L 464.76 184.286L 463.139 181.762L 450.656 189.778L 452.277 192.302ZM 473.082 178.943L 485.565 170.927L 483.944 168.403L 471.461 176.418L 473.082 178.943ZM 493.887 165.583L 506.37 157.568L 504.749 155.043L 492.266 163.059L 493.887 165.583ZM 514.691 152.224L 527.174 144.208L 525.553 141.684L 513.07 149.699L 514.691 152.224ZM 535.496 138.864L 547.979 130.849L 546.358 128.324L 533.875 136.34L 535.496 138.864ZM 556.301 125.505L 568.784 117.489L 567.163 114.965L 554.68 122.981L 556.301 125.505ZM 577.106 112.145L 589.589 104.13L 587.968 101.605L 575.485 109.621L 577.106 112.145ZM 597.911 98.7861L 610.394 90.7704L 608.773 88.246L 596.29 96.2617L 597.911 98.7861ZM 618.716 85.4266L 631.199 77.411L 629.578 74.8866L 617.095 82.9023L 618.716 85.4266ZM 639.521 72.0672L 652.004 64.0515L 650.383 61.5272L 637.9 69.5428L 639.521 72.0672ZM 660.326 58.7078L 672.809 50.6921L 671.188 48.1677L 658.705 56.1834L 660.326 58.7078ZM 681.131 45.3483L 693.614 37.3327L 691.993 34.8083L 679.51 42.824L 681.131 45.3483ZM 701.936 31.9889L 714.419 23.9732L 712.798 21.4489L 700.315 29.4645L 701.936 31.9889ZM 722.74 18.6295L 735.223 10.6138L 733.602 8.08942L 721.12 16.1051L 722.74 18.6295ZM 743.545 5.27002L 749.787 1.26219L 748.166 -1.26219L 741.924 2.74565L 743.545 5.27002Z"/>
<path id="path5_stroke" d="M 0.810636 482.265L 7.05129 478.256L 5.43002 475.732L -0.810636 479.74L 0.810636 482.265ZM 15.3722 472.912L 27.8535 464.895L 26.2322 462.371L 13.7509 470.388L 15.3722 472.912ZM 36.1743 459.551L 48.6557 451.534L 47.0344 449.01L 34.5531 457.026L 36.1743 459.551ZM 56.9765 446.189L 69.4578 438.173L 67.8366 435.648L 55.3553 443.665L 56.9765 446.189ZM 77.7787 432.828L 90.26 424.811L 88.6387 422.287L 76.1574 430.304L 77.7787 432.828ZM 98.5809 419.467L 111.062 411.45L 109.441 408.926L 96.9596 416.943L 98.5809 419.467ZM 119.383 406.106L 131.864 398.089L 130.243 395.565L 117.762 403.582L 119.383 406.106ZM 140.185 392.745L 152.667 384.728L 151.045 382.204L 138.564 390.22L 140.185 392.745ZM 160.987 379.383L 173.469 371.367L 171.847 368.843L 159.366 376.859L 160.987 379.383ZM 181.79 366.022L 194.271 358.006L 192.65 355.481L 180.168 363.498L 181.79 366.022ZM 202.592 352.661L 215.073 344.644L 213.452 342.12L 200.971 350.137L 202.592 352.661ZM 223.394 339.3L 235.875 331.283L 234.254 328.759L 221.773 336.776L 223.394 339.3ZM 244.196 325.939L 256.677 317.922L 255.056 315.398L 242.575 323.415L 244.196 325.939ZM 264.998 312.578L 277.48 304.561L 275.858 302.037L 263.377 310.053L 264.998 312.578ZM 285.801 299.216L 298.282 291.2L 296.661 288.676L 284.179 296.692L 285.801 299.216ZM 306.603 285.855L 319.084 277.839L 317.463 275.314L 304.981 283.331L 306.603 285.855ZM 327.405 272.494L 339.886 264.477L 338.265 261.953L 325.784 269.97L 327.405 272.494ZM 348.207 259.133L 360.688 251.116L 359.067 248.592L 346.586 256.609L 348.207 259.133ZM 369.009 245.772L 381.491 237.755L 379.869 235.231L 367.388 243.247L 369.009 245.772ZM 389.811 232.41L 402.293 224.394L 400.672 221.87L 388.19 229.886L 389.811 232.41ZM 410.614 219.049L 423.095 211.033L 421.474 208.508L 408.992 216.525L 410.614 219.049ZM 431.416 205.688L 443.897 197.671L 442.276 195.147L 429.795 203.164L 431.416 205.688ZM 452.218 192.327L 464.699 184.31L 463.078 181.786L 450.597 189.803L 452.218 192.327ZM 473.02 178.966L 485.501 170.949L 483.88 168.425L 471.399 176.442L 473.02 178.966ZM 493.822 165.605L 506.304 157.588L 504.682 155.064L 492.201 163.08L 493.822 165.605ZM 514.625 152.243L 527.106 144.227L 525.485 141.703L 513.003 149.719L 514.625 152.243ZM 535.427 138.882L 547.908 130.866L 546.287 128.341L 533.805 136.358L 535.427 138.882ZM 556.229 125.521L 568.71 117.504L 567.089 114.98L 554.608 122.997L 556.229 125.521ZM 577.031 112.16L 589.512 104.143L 587.891 101.619L 575.41 109.636L 577.031 112.16ZM 597.833 98.7987L 610.315 90.782L 608.693 88.2578L 596.212 96.2745L 597.833 98.7987ZM 618.635 85.4375L 631.117 77.4208L 629.496 74.8966L 617.014 82.9133L 618.635 85.4375ZM 639.438 72.0763L 651.919 64.0596L 650.298 61.5355L 637.816 69.5522L 639.438 72.0763ZM 660.24 58.7152L 672.721 50.6985L 671.1 48.1743L 658.619 56.191L 660.24 58.7152ZM 681.042 45.354L 693.523 37.3373L 691.902 34.8131L 679.421 42.8298L 681.042 45.354ZM 701.844 31.9928L 714.326 23.9761L 712.704 21.4519L 700.223 29.4686L 701.844 31.9928ZM 722.646 18.6316L 735.128 10.6149L 733.506 8.09074L 721.025 16.1074L 722.646 18.6316ZM 743.449 5.27045L 749.689 1.26209L 748.068 -1.26209L 741.827 2.74627L 743.449 5.27045Z"/>
<path id="path6_stroke" d="M 0.810582 482.242L 7.05153 478.234L 5.43037 475.709L -0.810582 479.718L 0.810582 482.242ZM 15.3728 472.889L 27.8547 464.873L 26.2335 462.349L 13.7516 470.365L 15.3728 472.889ZM 36.176 459.529L 48.6579 451.513L 47.0367 448.988L 34.5548 457.005L 36.176 459.529ZM 56.9791 446.168L 69.461 438.152L 67.8399 435.628L 55.358 443.644L 56.9791 446.168ZM 77.7823 432.808L 90.2642 424.791L 88.6431 422.267L 76.1611 430.284L 77.7823 432.808ZM 98.5855 419.447L 111.067 411.431L 109.446 408.907L 96.9643 416.923L 98.5855 419.447ZM 119.389 406.087L 131.871 398.07L 130.249 395.546L 117.767 403.562L 119.389 406.087ZM 140.192 392.726L 152.674 384.71L 151.053 382.186L 138.571 390.202L 140.192 392.726ZM 160.995 379.366L 173.477 371.349L 171.856 368.825L 159.374 376.841L 160.995 379.366ZM 181.798 366.005L 194.28 357.989L 192.659 355.464L 180.177 363.481L 181.798 366.005ZM 202.601 352.644L 215.083 344.628L 213.462 342.104L 200.98 350.12L 202.601 352.644ZM 223.404 339.284L 235.886 331.268L 234.265 328.743L 221.783 336.76L 223.404 339.284ZM 244.208 325.923L 256.69 317.907L 255.068 315.383L 242.587 323.399L 244.208 325.923ZM 265.011 312.563L 277.493 304.547L 275.872 302.022L 263.39 310.039L 265.011 312.563ZM 285.814 299.202L 298.296 291.186L 296.675 288.662L 284.193 296.678L 285.814 299.202ZM 306.617 285.842L 319.099 277.825L 317.478 275.301L 304.996 283.318L 306.617 285.842ZM 327.42 272.481L 339.902 264.465L 338.281 261.941L 325.799 269.957L 327.42 272.481ZM 348.224 259.121L 360.705 251.104L 359.084 248.58L 346.602 256.596L 348.224 259.121ZM 369.027 245.76L 381.509 237.744L 379.887 235.22L 367.406 243.236L 369.027 245.76ZM 389.83 232.4L 402.312 224.383L 400.691 221.859L 388.209 229.875L 389.83 232.4ZM 410.633 219.039L 423.115 211.023L 421.494 208.498L 409.012 216.515L 410.633 219.039ZM 431.436 205.678L 443.918 197.662L 442.297 195.138L 429.815 203.154L 431.436 205.678ZM 452.239 192.318L 464.721 184.302L 463.1 181.777L 450.618 189.794L 452.239 192.318ZM 473.043 178.957L 485.524 170.941L 483.903 168.417L 471.421 176.433L 473.043 178.957ZM 493.846 165.597L 506.328 157.581L 504.706 155.056L 492.225 163.073L 493.846 165.597ZM 514.649 152.236L 527.131 144.22L 525.51 141.696L 513.028 149.712L 514.649 152.236ZM 535.452 138.876L 547.934 130.859L 546.313 128.335L 533.831 136.352L 535.452 138.876ZM 556.255 125.515L 568.737 117.499L 567.116 114.975L 554.634 122.991L 556.255 125.515ZM 577.058 112.155L 589.54 104.138L 587.919 101.614L 575.437 109.63L 577.058 112.155ZM 597.862 98.7941L 610.343 90.7778L 608.722 88.2535L 596.24 96.2699L 597.862 98.7941ZM 618.665 85.4336L 631.147 77.4172L 629.525 74.893L 617.044 82.9093L 618.665 85.4336ZM 639.468 72.073L 651.95 64.0567L 650.329 61.5324L 637.847 69.5488L 639.468 72.073ZM 660.271 58.7125L 672.753 50.6961L 671.132 48.1719L 658.65 56.1882L 660.271 58.7125ZM 681.074 45.3519L 693.556 37.3356L 691.935 34.8114L 679.453 42.8277L 681.074 45.3519ZM 701.877 31.9914L 714.359 23.9751L 712.738 21.4508L 700.256 29.4671L 701.877 31.9914ZM 722.681 18.6308L 735.162 10.6145L 733.541 8.09026L 721.059 16.1066L 722.681 18.6308ZM 743.484 5.27029L 749.725 1.26212L 748.104 -1.26212L 741.863 2.74604L 743.484 5.27029Z"/>
</defs>
</svg>
