<?xml version="1.0" encoding="UTF-8"?>
<svg width="1343px" height="1591px" viewBox="0 0 1343 1591" version="1.1" xmlns="http://www.w3.org/2000/svg" xmlns:xlink="http://www.w3.org/1999/xlink">
    <!-- Generator: Sketch 47.1 (45422) - http://www.bohemiancoding.com/sketch -->
    <title>0_8_pattern</title>
    <desc>Created with Sketch.</desc>
    <defs></defs>
    <g id="-" stroke="none" stroke-width="1" fill="none" fill-rule="evenodd">
        <g id="1-1-Desktop-#8" transform="translate(-5.000000, -175.000000)" fill="#FFFFFF">
            <g id="Group" transform="translate(0.000000, -357.000000)">
                <path d="M756,780 L772,796 L756,796 L756,780 Z M756,796 L740,780 L756,780 L756,796 Z" id="Combined-Shape-Copy-11" transform="translate(756.000000, 788.000000) scale(-1, 1) rotate(22.000000) translate(-756.000000, -788.000000) "></path>
                <path d="M1003,674 L1038,709 L1003,709 L1003,674 Z M1003,709 L968,674 L1003,674 L1003,709 Z" id="Combined-Shape-Copy-15" transform="translate(1003.000000, 691.500000) scale(-1, 1) rotate(71.000000) translate(-1003.000000, -691.500000) "></path>
                <path d="M687.5,880 L733,926 L687.5,926 L687.5,880 Z M687.5,926 L642,880 L687.5,880 L687.5,926 Z" id="Combined-Shape-Copy-16" transform="translate(687.500000, 903.000000) scale(-1, 1) rotate(-165.000000) translate(-687.500000, -903.000000) "></path>
                <path d="M376,560 L418,596 L376,596 L376,560 Z M376,596 L334,560 L376,560 L376,596 Z" id="Combined-Shape-Copy-17" transform="translate(376.000000, 578.000000) scale(-1, 1) rotate(-112.000000) translate(-376.000000, -578.000000) "></path>
                <path d="M241,779 L260,798 L241,798 L241,779 Z M241,798 L222,779 L241,779 L241,798 Z" id="Combined-Shape-Copy-19" transform="translate(241.000000, 788.500000) scale(-1, 1) rotate(71.000000) translate(-241.000000, -788.500000) "></path>
                <path d="M1267.5,1313 L1281,1326 L1267.5,1326 L1267.5,1313 Z M1267.5,1326 L1254,1313 L1267.5,1313 L1267.5,1326 Z" id="Combined-Shape-Copy-30" transform="translate(1267.500000, 1319.500000) scale(-1, 1) rotate(22.000000) translate(-1267.500000, -1319.500000) "></path>
                <path d="M442.5,1992 L456,2005 L442.5,2005 L442.5,1992 Z M442.5,2005 L429,1992 L442.5,1992 L442.5,2005 Z" id="Combined-Shape-Copy-21" transform="translate(442.500000, 1998.500000) scale(-1, 1) rotate(22.000000) translate(-442.500000, -1998.500000) "></path>
                <path d="M1128.5,1851 L1142,1864 L1128.5,1864 L1128.5,1851 Z M1128.5,1864 L1115,1851 L1128.5,1851 L1128.5,1864 Z" id="Combined-Shape-Copy-31" transform="translate(1128.500000, 1857.500000) scale(-1, 1) rotate(22.000000) translate(-1128.500000, -1857.500000) "></path>
                <path d="M750.5,1324 L764,1337 L750.5,1337 L750.5,1324 Z M750.5,1337 L737,1324 L750.5,1324 L750.5,1337 Z" id="Combined-Shape-Copy-32" transform="translate(750.500000, 1330.500000) scale(-1, 1) rotate(22.000000) translate(-750.500000, -1330.500000) "></path>
                <path d="M317.5,1583 L331,1596 L317.5,1596 L317.5,1583 Z M317.5,1596 L304,1583 L317.5,1583 L317.5,1596 Z" id="Combined-Shape-Copy-23" transform="translate(317.500000, 1589.500000) scale(-1, 1) rotate(56.000000) translate(-317.500000, -1589.500000) "></path>
                <path d="M1003.5,1442 L1017,1455 L1003.5,1455 L1003.5,1442 Z M1003.5,1455 L990,1442 L1003.5,1442 L1003.5,1455 Z" id="Combined-Shape-Copy-33" transform="translate(1003.500000, 1448.500000) scale(-1, 1) rotate(56.000000) translate(-1003.500000, -1448.500000) "></path>
                <path d="M648,1904 L677,1933 L648,1933 L648,1904 Z M648,1933 L619,1904 L648,1904 L648,1933 Z" id="Combined-Shape-Copy-25" transform="translate(648.000000, 1918.500000) scale(-1, 1) rotate(71.000000) translate(-648.000000, -1918.500000) "></path>
                <path d="M1334,1763 L1363,1792 L1334,1792 L1334,1763 Z M1334,1792 L1305,1763 L1334,1763 L1334,1792 Z" id="Combined-Shape-Copy-34" transform="translate(1334.000000, 1777.500000) scale(-1, 1) rotate(71.000000) translate(-1334.000000, -1777.500000) "></path>
                <path d="M386,2075 L424,2113 L386,2113 L386,2075 Z M386,2113 L348,2075 L386,2075 L386,2113 Z" id="Combined-Shape-Copy-26" transform="translate(386.000000, 2094.000000) scale(-1, 1) rotate(-165.000000) translate(-386.000000, -2094.000000) "></path>
                <path d="M1072,1934 L1110,1972 L1072,1972 L1072,1934 Z M1072,1972 L1034,1934 L1072,1934 L1072,1972 Z" id="Combined-Shape-Copy-35" transform="translate(1072.000000, 1953.000000) scale(-1, 1) rotate(-165.000000) translate(-1072.000000, -1953.000000) "></path>
                <path d="M126,1809 L161,1839 L126,1839 L126,1809 Z M126,1839 L91,1809 L126,1809 L126,1839 Z" id="Combined-Shape-Copy-27" transform="translate(126.000000, 1824.000000) scale(-1, 1) rotate(-112.000000) translate(-126.000000, -1824.000000) "></path>
                <path d="M812,1668 L847,1698 L812,1698 L812,1668 Z M812,1698 L777,1668 L812,1668 L812,1698 Z" id="Combined-Shape-Copy-36" transform="translate(812.000000, 1683.000000) scale(-1, 1) rotate(-112.000000) translate(-812.000000, -1683.000000) "></path>
                <path d="M1192,2030 L1263,2101 L1192,2101 L1192,2030 Z M1192,2101 L1121,2030 L1192,2030 L1192,2101 Z" id="Combined-Shape-Copy-37" transform="translate(1192.000000, 2065.500000) scale(-1, 1) rotate(157.000000) translate(-1192.000000, -2065.500000) "></path>
                <path d="M13.5,1992 L29,2008 L13.5,2008 L13.5,1992 Z M13.5,2008 L-2,1992 L13.5,1992 L13.5,2008 Z" id="Combined-Shape-Copy-29" transform="translate(13.500000, 2000.000000) scale(-1, 1) rotate(71.000000) translate(-13.500000, -2000.000000) "></path>
                <path d="M699.5,1850 L715,1866 L699.5,1866 L699.5,1850 Z M699.5,1866 L684,1850 L699.5,1850 L699.5,1866 Z" id="Combined-Shape-Copy-38" transform="translate(699.500000, 1858.000000) scale(-1, 1) rotate(71.000000) translate(-699.500000, -1858.000000) "></path>
                <path d="M213.5,1346 L223,1356 L213.5,1356 L213.5,1346 Z M213.5,1356 L204,1346 L213.5,1346 L213.5,1356 Z" id="Combined-Shape-Copy-24" transform="translate(213.500000, 1351.000000) scale(-1, 1) rotate(22.000000) translate(-213.500000, -1351.000000) "></path>
                <path d="M899.5,1205 L909,1215 L899.5,1215 L899.5,1205 Z M899.5,1215 L890,1205 L899.5,1205 L899.5,1215 Z" id="Combined-Shape-Copy-39" transform="translate(899.500000, 1210.000000) scale(-1, 1) rotate(22.000000) translate(-899.500000, -1210.000000) "></path>
            </g>
        </g>
    </g>
</svg>