<svg id="Layer_1" data-name="Layer 1" xmlns="http://www.w3.org/2000/svg" viewBox="0 0 100 100"><defs><style>.cls-1{fill:#ff99a9;}.cls-2{fill:#ffccd4;}.cls-3{fill:#ffb3bf;}.cls-4{fill:#ff4a68;}.cls-5{fill:#ff667f;}</style></defs><title>3Artboard 8</title><polygon class="cls-1" points="65.76 24.29 65.76 31.16 69.17 31.16 72.63 27.75 69.17 24.29 65.76 24.29"/><polygon class="cls-2" points="33.96 24.29 30.67 27.54 30.67 75.71 65.9 75.71 69.19 72.46 69.14 24.29 33.96 24.29"/><polygon class="cls-3" points="50.07 75.54 50.07 24.29 33.96 24.29 30.67 27.55 30.67 75.54 50.07 75.54"/><path class="cls-4" d="M58.75,65.1c.06.34.45.45.72.56s.56-.1.77-.2c1.3-.63,3.06.11,4.45.11a.64.64,0,0,0,0-1.27c-1.62,0-3-.41-4.58-.14a.78.78,0,0,0-.13-.39,1,1,0,0,0-1.06-.6c0-.06,0-.12-.09-.18a.6.6,0,0,0-.4-.28,2.65,2.65,0,0,0,.44-2.28.63.63,0,0,0-.55-.31c-.85,0-1.58.86-2.13,1.4a41.36,41.36,0,0,0-3.75,4.38c-.5.65.61,1.28,1.1.64a45.83,45.83,0,0,1,3.31-3.87c-.28.47-.59.93-.9,1.36-.46.7.63,1.3,1.1.65a1.44,1.44,0,0,1,.41-.4l-.1.23h0l-.07.15c-.29.72.78,1,1.16.49a4.22,4.22,0,0,0,.27-.44,2,2,0,0,0,0,.4"/><polygon class="cls-5" points="66.02 69.28 30.67 69.28 27.37 72.5 30.67 75.71 66.02 75.71 62.73 72.5 66.02 69.28"/><polygon class="cls-1" points="66.02 69.28 30.67 69.28 27.37 72.5 62.73 72.5 66.02 69.28"/><path class="cls-4" d="M45.3,66.21a1.83,1.83,0,0,0-.54-.39,1.4,1.4,0,0,0-.57-.1h-.05a.73.73,0,0,0-.57-.48,1.16,1.16,0,0,0-.89.24c0-.11.05-.23.07-.32a2.1,2.1,0,0,0,.09-.88.51.51,0,0,0-.46-.41,2.46,2.46,0,0,0-1.49.57c-.44.3-.73.48-1,.38s-.38-1.06-.22-1.9a5.45,5.45,0,0,1,1.14-2.79c.24-.22.58-.45.87-.33a1.6,1.6,0,0,1,.67,1.34.51.51,0,1,0,1-.09A2.48,2.48,0,0,0,42,58.85a1.79,1.79,0,0,0-1.92.52,6,6,0,0,0-1.45,3.35c-.12.6-.41,2.59.87,3a2.08,2.08,0,0,0,1.92-.49l.27-.18a1.35,1.35,0,0,0,.09,1.09c.33.5.79.55,1.39.16l.07,0a.66.66,0,0,0,.33.33,1.27,1.27,0,0,0,.58.11.8.8,0,0,1,.18,0,.84.84,0,0,1,.26.19,2.7,2.7,0,0,0,.28.24.5.5,0,0,0,.71-.1.5.5,0,0,0-.1-.71l-.19-.17"/><path class="cls-4" d="M60.82,35.46H39.33a.68.68,0,1,1,0-1.36H60.82a.68.68,0,1,1,0,1.36"/><path class="cls-4" d="M60.82,31.82H39.33a.68.68,0,1,1,0-1.35H60.82a.68.68,0,1,1,0,1.35"/><path class="cls-4" d="M60.82,39.11H39.33a.68.68,0,1,1,0-1.36H60.82a.68.68,0,1,1,0,1.36"/><path class="cls-4" d="M46.66,42.76H39.33a.68.68,0,1,1,0-1.36h7.33a.68.68,0,1,1,0,1.36"/><path class="cls-5" d="M49.94,39.87A11.54,11.54,0,1,0,61.48,51.41,11.56,11.56,0,0,0,49.94,39.87M51.5,58.58,42,55.41l3.23-.53-3.95-7.59,12,2.89L57,47.82l2.36,1.82L56.72,51.3Z"/><path class="cls-5" d="M49.94,38.68A12.73,12.73,0,1,0,62.67,51.41,12.73,12.73,0,0,0,49.94,38.68m0,24.91A12.18,12.18,0,1,1,62.12,51.41,12.19,12.19,0,0,1,49.94,63.59"/><rect class="cls-5" x="56.69" y="48.78" width="0.54" height="0.54" transform="translate(-17.99 54.76) rotate(-45.09)"/></svg>