<svg id="Layer_1" data-name="Layer 1" xmlns="http://www.w3.org/2000/svg" viewBox="0 0 100 100"><defs><style>.cls-1{fill:#ffb3bf;}.cls-2{fill:#ff99a9;}.cls-3{fill:#cecdce;}.cls-4{fill:#ffe6ea;}.cls-5{fill:#ff4a68;}</style></defs><title>2Artboard 8</title><polygon class="cls-1" points="50.06 22.7 48.99 22.57 47.44 21.7 46.56 19.1 46.17 18.98 45.61 17.59 46.06 16.46 46.31 16.46 46.25 13.64 47.7 11.83 50.06 11.39 50.06 22.7"/><polygon class="cls-1" points="50.07 22.7 51.11 22.57 52.52 21.7 53.4 19.1 53.79 18.98 54.35 17.59 53.9 16.46 53.65 16.46 53.71 13.64 52.27 11.83 50.05 11.39 50.05 16.02 49.48 19.26 50.05 19.55 50.07 22.7"/><polygon class="cls-2" points="57.6 54.77 56.84 68.8 54.88 72.15 49.91 72.34 49.91 54.77 57.6 54.77"/><polygon class="cls-1" points="42.22 54.77 42.98 68.8 44.94 72.15 49.91 72.34 49.91 54.77 42.22 54.77"/><polygon class="cls-1" points="55.44 82.72 55.44 71.92 49.91 71.92 49.91 73.53 49.91 82.72 50.44 83.4 49.91 84.07 50.5 84.79 49.91 85.96 49.91 88.61 59.39 88.61 59.39 86.95 54.89 84.79 55.44 84.07 54.82 83.4 55.44 82.72"/><polygon class="cls-2" points="44.39 82.72 44.39 71.92 49.91 71.92 49.91 73.53 49.91 82.72 49.38 83.4 49.91 84.07 49.32 84.79 49.91 85.96 49.91 88.61 40.44 88.61 40.44 86.95 44.93 84.79 44.39 84.07 45 83.4 44.39 82.72"/><polygon class="cls-2" points="40.75 51.91 41.14 54.58 40.85 56.28 40.6 57.57 40.07 57.57 39.1 55.45 39.26 52.04 40.75 51.91"/><polygon class="cls-1" points="40.6 57.57 39.93 56.38 39.91 53.9 40.2 53.41 40.38 55.89 40.55 56.47 40.87 56.59 41.06 56.19 41.2 54.24 41.06 52.3 39.03 52.3 38.89 55.5 40.08 57.57 40.6 57.57"/><polygon class="cls-3" points="52.52 24.36 52.52 21.03 49.62 23.7 47.7 20.55 47.7 25.05 50.01 26.12 52.52 24.36"/><path class="cls-4" d="M50.75,55.73s.29-11.18.07-20.31C50.68,29.91,50,25.14,50,24c-1.31-.5-2.88-1.15-2.88-1.15l0,1.57-5.27,2.72L38.51,39.3l-1,10.19.76,1.1V52.3h3.28l.19-1.81,1.77-13.73-.33,10.38-1.43,8.58Z"/><polygon class="cls-2" points="59.25 51.91 58.86 54.58 59.15 56.28 59.4 57.57 59.93 57.57 60.9 55.45 60.74 52.04 59.25 51.91"/><polygon class="cls-1" points="59.4 57.57 60.07 56.38 60.09 53.9 59.8 53.41 59.62 55.89 59.45 56.47 59.13 56.59 58.94 56.19 58.8 54.24 58.94 52.3 60.97 52.3 61.11 55.5 59.92 57.57 59.4 57.57"/><path class="cls-4" d="M49.25,55.73S49,44.55,49.18,35.42C49.32,29.91,50,25.14,50,24c1.31-.5,2.88-1.15,2.88-1.15l0,1.57,5.27,2.72L61.49,39.3l1,10.19-.76,1.1V52.3H58.41l-.19-1.81L56.45,36.77l.33,10.38,1.43,8.58Z"/><rect class="cls-2" x="58.21" y="50.58" width="3.49" height="1.91"/><rect class="cls-2" x="38.3" y="50.58" width="3.49" height="1.91"/><polygon class="cls-2" points="51.5 22.21 48.83 22.21 46.7 19.53 47.67 27.97 52.45 27.97 53.28 19.44 51.5 22.21"/><path class="cls-5" d="M46.41,40l-.65,0L44.33,34.8l1.12-7.31.23-.27,4.14-1.42.45.32c0,4.12,0,10.54,0,10.54L50,37h-.49l-.34-.34V36h-.05l-1.38.44ZM45,34.83l1.11,3.94,1-2.71.22-.21,1.7-.52h.45l.14.14c0-1.94,0-5.89,0-8.87L46.1,27.8Z"/><path class="cls-5" d="M53.59,40l-1.3-3.54L50.86,36v.64l-.34.34H50l-.34-.34s0-6.42,0-10.54l.45-.32,4.14,1.42.23.27,1.12,7.31v.14l-1.41,5Zm-3.07-4.67.55,0,1.59.51.22.21,1,2.71L55,34.83l-1.08-7L50.4,26.6c0,3,0,6.93,0,8.87Z"/><rect class="cls-5" x="49.17" y="37.47" width="1.67" height="1.83"/><rect class="cls-5" x="49.46" y="23" width="1.08" height="1.19"/><rect class="cls-5" x="48.45" y="16.04" width="0.83" height="0.83" transform="translate(2.68 39.38) rotate(-45.01)"/><polygon class="cls-5" points="51.7 16.45 51.11 17.05 50.52 16.45 51.11 15.87 51.7 16.45"/><rect class="cls-5" x="49.46" y="24.78" width="1.08" height="1.19"/><rect class="cls-5" x="49.08" y="39.79" width="1.84" height="2.02"/><rect class="cls-5" x="49.08" y="42.37" width="1.84" height="2.02"/><rect class="cls-5" x="49.08" y="44.94" width="1.84" height="2.02"/><polygon class="cls-5" points="50.92 48.88 50.21 49.27 49.08 48.67 49.08 47.49 50.92 47.49 50.92 48.88"/><polygon class="cls-5" points="45.31 29.88 43.15 28.64 43.21 28.02 46.1 27.07 46.31 27.72 44.16 28.43 45.65 29.28 45.31 29.88"/><rect class="cls-5" x="36.87" y="33.14" width="10.65" height="0.68" transform="translate(-1.35 65.19) rotate(-74.5)"/><rect class="cls-5" x="35.36" y="44.32" width="9.76" height="0.69" transform="translate(-6.95 81.9) rotate(-86.26)"/><path class="cls-5" d="M39.92,50.58c0,.22.06.44.08.66a1.32,1.32,0,0,1,0,.33c0,.11,0,.22,0,.32l-.12,1.29-.25,2.58,0-.11c.14.26.27.52.41.77s.17.57.23.87c-.2-.22-.39-.45-.58-.68s-.27-.52-.4-.78l0-.11.25-2.58.12-1.29c0-.11,0-.21,0-.32a1.27,1.27,0,0,1,.08-.32c.07-.21.13-.42.21-.63"/><path class="cls-5" d="M39.92,50.78c.11.16.2.33.3.49a.8.8,0,0,1,.12.26c0,.09.05.18.08.27l.32,1.07v0l.07,1.5,0,.75a.49.49,0,0,1,0,.19l0,.19c0,.13-.06.25-.1.38-.05-.12-.1-.25-.14-.37l-.07-.19a.5.5,0,0,1,0-.19l0-.75-.07-1.5v0l-.32-1.07c0-.09-.05-.18-.08-.27a.81.81,0,0,1,0-.28c0-.19,0-.38,0-.58"/><path class="cls-5" d="M40.75,40.41l-.48-.07-.75-1,.07-.48,1-.75.48.07.75,1-.07.48Zm-.47-1.19.33.44.44-.33-.33-.44Z"/><path class="cls-5" d="M39.68,51.25l-.88-.87V49.9l.87-.88h.48l.88.87v.48l-.87.88Zm-.16-1.12.39.39.39-.39-.39-.39Z"/><path class="cls-5" d="M60.19,50.58c.08.21.14.42.21.63a1.34,1.34,0,0,1,.08.32c0,.11,0,.22,0,.32l.12,1.29.25,2.58,0,.11c-.13.26-.27.51-.4.78s-.37.46-.58.68c.07-.29.15-.58.23-.87s.27-.51.41-.77l0,.11-.25-2.58-.12-1.29c0-.11,0-.22,0-.32a1.43,1.43,0,0,1,0-.33c0-.22,0-.44.08-.66"/><path class="cls-5" d="M60.19,50.78c0,.2,0,.39,0,.58a.79.79,0,0,1,0,.28l-.08.27L59.73,53v0l-.07,1.5,0,.75a.5.5,0,0,1,0,.19l-.07.19c0,.12-.08.25-.14.37,0-.13-.07-.25-.1-.38l0-.19a.53.53,0,0,1,0-.19l0-.75.07-1.5v0l.32-1.07c0-.09.06-.18.08-.27a.81.81,0,0,1,.12-.26c.1-.16.19-.33.3-.49"/><path class="cls-5" d="M60.42,51.25h-.48l-.87-.88v-.48L60,49h.48l.87.88v.48Zm-.63-1.12.39.39.39-.39-.39-.39Z"/><rect class="cls-5" x="46.15" y="56.08" width="0.68" height="9" transform="translate(-8.47 7.57) rotate(-8.53)"/><rect class="cls-5" x="46.81" y="66.78" width="0.69" height="19.81"/><path class="cls-5" d="M47.35,67h-.48l-.85-.9v-.48l.9-.85h.48l.85.9v.48Zm-.61-1.13.38.4.4-.38-.38-.4Z"/><rect class="cls-5" x="49.06" y="60.23" width="9" height="0.68" transform="translate(-14.27 104.59) rotate(-81.5)"/><rect class="cls-5" x="52.54" y="66.78" width="0.69" height="19.81"/><path class="cls-5" d="M52.69,67l-.9-.85v-.48l.85-.9h.48l.9.85v.48l-.85.9Zm-.18-1.11.4.38.38-.4-.4-.38Z"/><path class="cls-5" d="M47.35,88.58h-.48l-.85-.9v-.48l.9-.85h.48l.85.9v.48Zm-.61-1.13.38.4.4-.38-.38-.4Z"/><path class="cls-5" d="M52.69,88.58l-.9-.85v-.48l.85-.9h.48l.9.85v.48l-.85.9Zm-.18-1.11.4.38.38-.4-.4-.38Z"/><polygon class="cls-5" points="54.87 29.96 54.53 29.36 56.02 28.51 53.87 27.8 54.08 27.15 56.97 28.1 57.03 28.72 54.87 29.96"/><rect class="cls-5" x="57.65" y="28.24" width="0.68" height="10.65" transform="translate(-6.87 16.76) rotate(-15.54)"/><rect class="cls-5" x="59.6" y="39.86" width="0.69" height="9.76" transform="translate(-2.78 3.99) rotate(-3.73)"/><path class="cls-5" d="M59.43,40.49l-1-.75-.07-.48.75-1,.48-.07,1,.75.07.48-.75,1Zm-.3-1.09.44.33.33-.44L59.46,39Z"/><polygon class="cls-5" points="49.22 18.91 49.99 19.68 50.76 18.9 49.99 17.21 49.22 18.91"/><path class="cls-5" d="M53.91,56.65l-.38,0L51.05,54.5,50,54.11l-1.05.39-2.48,2.11-.38,0-1-.54-.15-.45.69-1.46v-.71L44.3,52l-.09-.23V50.18L44.3,50l1.65-2,.26-.12h2l.16,0,1.6.87,1.6-.87.16,0h2l.26.12,1.65,2,.08.22v1.61L55.7,52l-1.3,1.47v.71l.7,1.46-.15.45Zm-4-3.23h.24l1.33.52,2.35,2,.54-.28-.62-1.38v-.92l.09-.23,1.3-1.47V50.3l-1.47-1.74H51.85l-1.69.92h-.33l-1.69-.92H46.36L44.9,50.3v1.36l1.29,1.47.09.23,0,1.07-.59,1.23.54.28,2.46-2.06Z"/><path class="cls-5" d="M46.73,87.46l-.21.17-.24.17-.15.1c-.05,0-.12,0-.18,0l-1.82.3-1.82.3c-.06,0-.12,0-.18,0L42,88.5l-.28-.08-.25-.09.21-.16.24-.17.15-.1c.05,0,.12,0,.18,0l1.82-.3,1.82-.3c.06,0,.12,0,.18,0l.17,0,.28.09.25.09"/><path class="cls-5" d="M53.31,87.46l.25-.09.28-.09.17,0c.06,0,.11,0,.18,0l1.82.3,1.82.3c.06,0,.13,0,.18,0l.15.1.24.17.21.16-.25.09-.28.08-.17.05c-.06,0-.11,0-.18,0l-1.82-.3-1.82-.3c-.06,0-.13,0-.18,0l-.15-.1-.24-.17-.21-.17"/><path class="cls-5" d="M51.62,20.48h-3l-.34-.34v-1l-1.36-1.89L46.81,17l.32-2.84.19-.27L50,12.57h.32L52.83,14l.18.28.16,3-.06.21L52,19.13v1Zm-2.71-.68h2.36V19l.06-.19,1.14-1.7-.14-2.67-2.2-1.2-2.35,1.17L47.5,17l1.35,1.87.07.2Z"/><path class="cls-5" d="M51.62,22.67h-3l-.34-.34V21.1l.34-.34h3l.34.34v1.22ZM48.92,22h2.35v-.54H48.92Z"/></svg>