<?xml version="1.0" encoding="UTF-8"?>
<svg width="35px" height="26px" viewBox="0 0 35 26" version="1.1" xmlns="http://www.w3.org/2000/svg" xmlns:xlink="http://www.w3.org/1999/xlink">
    <!-- Generator: Sketch 46.2 (44496) - http://www.bohemiancoding.com/sketch -->
    <title>instgm</title>
    <desc>Created with Sketch.</desc>
    <defs></defs>
    <g id="Page-1" stroke="none" stroke-width="1" fill="none" fill-rule="evenodd">
        <g id="instgm" fill="#4A4A4A">
            <g id="Group" transform="translate(12.000000, 7.000000)">
                <g id="Group-4">
                    <g id="Group-2">
                        <path d="M8.23610651,4 C7.68678595,3.38625064 6.88849981,3 6,3 C5.11150019,3 4.31321405,3.38625064 3.76389349,4 L0,4 L0,0 L12,0 L12,4 L8.23610651,4 Z M9,1 L9,2 L11,2 L11,1 L9,1 Z" id="Combined-Shape"></path>
                        <path d="M3.17070571,5 L0,5 L0,12 L12,12 L12,5 L8.82929429,5 C8.93984578,5.31277893 9,5.64936458 9,6 C9,7.65685425 7.65685425,9 6,9 C4.34314575,9 3,7.65685425 3,6 C3,5.64936458 3.06015422,5.31277893 3.17070571,5 Z" id="Combined-Shape"></path>
                        <circle id="Oval-3" cx="6" cy="6" r="2"></circle>
                    </g>
                </g>
            </g>
        </g>
    </g>
</svg>