<svg width="37" height="38" viewBox="0 0 37 38" version="1.1" xmlns="http://www.w3.org/2000/svg" xmlns:xlink="http://www.w3.org/1999/xlink">
<title>Group 2</title>
<desc>Created using Figma</desc>
<g id="Canvas" transform="translate(2934 -1952)">
<g id="Group 2">
<g id="Oval 9 Copy">
<use xlink:href="#path0_stroke" transform="translate(-2933.5 1953)" fill="#4A4A4A"/>
</g>
<g id="Page 1 Copy 5">
<mask id="mask0_outline" mask-type="alpha">
<g id="Clip 2">
<use xlink:href="#path1_fill" transform="translate(-2923.5 1966)" fill="#FFFFFF"/>
</g>
</mask>
<g id="Fill 1" mask="url(#mask0_outline)">
<use xlink:href="#path2_fill" transform="translate(-2923.5 1966)" fill="#4A4A4A"/>
</g>
</g>
</g>
</g>
<defs>
<path id="path0_stroke" d="M 17.9868 36.5C 28.1972 36.5 36.4737 28.2169 36.4737 18L 35.4737 18C 35.4737 27.6653 27.6442 35.5 17.9868 35.5L 17.9868 36.5ZM 36.4737 18C 36.4737 7.78308 28.1972 -0.5 17.9868 -0.5L 17.9868 0.5C 27.6442 0.5 35.4737 8.33467 35.4737 18L 36.4737 18ZM 17.9868 -0.5C 7.77649 -0.5 -0.5 7.78308 -0.5 18L 0.5 18C 0.5 8.33467 8.32947 0.5 17.9868 0.5L 17.9868 -0.5ZM -0.5 18C -0.5 28.2169 7.77649 36.5 17.9868 36.5L 17.9868 35.5C 8.32947 35.5 0.5 27.6653 0.5 18L -0.5 18Z"/>
<path id="path1_fill" fill-rule="evenodd" d="M 0 9L 0 0L 14.7749 0L 14.7749 9L 0 9Z"/>
<path id="path2_fill" fill-rule="evenodd" d="M 14.4358 0.609632C 14.5382 0.257948 14.4358 0 13.9472 0L 12.331 0C 11.9194 0 11.7298 0.223414 11.6274 0.468677C 11.6274 0.468677 10.8055 2.52381 9.6408 3.85865C 9.26424 4.24487 9.09314 4.36821 8.88768 4.36821C 8.78461 4.36821 8.63618 4.24487 8.63618 3.89389L 8.63618 0.609632C 8.63618 0.188175 8.51661 0 8.17441 0L 5.63399 0C 5.37768 0 5.22307 0.195928 5.22307 0.381284C 5.22307 0.780893 5.8051 0.873218 5.86488 1.99734L 5.86488 4.43868C 5.86488 4.97361 5.77074 5.07087 5.56528 5.07087C 5.01761 5.07087 3.68453 3.00658 2.8943 0.644871C 2.739 0.185356 2.58371 0 2.17073 0L 0.554535 0C 0.092079 0 0 0.223414 0 0.468677C 0 0.907753 0.548351 3.08622 2.55141 5.96664C 3.88724 7.93367 5.76936 9 7.48176 9C 8.50906 9 8.63618 8.76249 8.63618 8.35513L 8.63618 6.86805C 8.63618 6.39444 8.73376 6.3 9.05878 6.3C 9.2986 6.3 9.70952 6.42334 10.6688 7.37126C 11.7641 8.49538 11.9448 9 12.5612 9L 14.1781 9C 14.6399 9 14.8707 8.76249 14.7374 8.29522C 14.5918 7.83007 14.0681 7.15419 13.3741 6.35286C 12.9976 5.89616 12.432 5.40423 12.2609 5.15826C 12.0211 4.84252 12.0898 4.70157 12.2609 4.42106C 12.2609 4.42106 14.2303 1.57588 14.4358 0.609632Z"/>
</defs>
</svg>
