<svg width="251" height="31" viewBox="0 0 251 31" version="1.1" xmlns="http://www.w3.org/2000/svg" xmlns:xlink="http://www.w3.org/1999/xlink">
<title>yandex_press_logo_rgb-01</title>
<desc>Created using Figma</desc>
<g id="Canvas" transform="translate(3312 -859)">
<g id="yandex_press_logo_rgb-01">
<g id="_Path_">
<use xlink:href="#path0_fill" transform="translate(-3311.34 859.88)"/>
</g>
<g id="_Path_2">
<use xlink:href="#path1_fill" transform="translate(-3296.15 867.328)"/>
</g>
<g id="_Compound_Path_">
<use xlink:href="#path2_fill" transform="translate(-3285.27 867.69)"/>
</g>
<g id="_Compound_Path_2">
<use xlink:href="#path3_fill" transform="translate(-3270.04 867.315)"/>
</g>
<g id="_Path_3">
<use xlink:href="#path4_fill" transform="translate(-3257.82 867.7)"/>
</g>
<g id="_Compound_Path_3">
<use xlink:href="#path5_fill" transform="translate(-3246.34 867.32)"/>
</g>
<g id="_Path_4">
<use xlink:href="#path6_fill" transform="translate(-3234.82 867.69)"/>
</g>
<g id="_Compound_Path_4">
<use xlink:href="#path7_fill" transform="translate(-3219.81 867.69)"/>
</g>
<g id="_Path_5">
<use xlink:href="#path8_fill" transform="translate(-3208.52 867.323)"/>
</g>
<g id="_Path_6">
<use xlink:href="#path9_fill" transform="translate(-3196.73 867.7)"/>
</g>
<g id="_Compound_Path_5">
<use xlink:href="#path10_fill" transform="translate(-3183.8 867.69)"/>
</g>
<g id="_Compound_Path_6">
<use xlink:href="#path11_fill" transform="translate(-3171.8 867.32)"/>
</g>
<g id="_Compound_Path_7">
<use xlink:href="#path12_fill" transform="translate(-3152.65 859.88)" fill="#FF0000"/>
</g>
<g id="_Path_7">
<use xlink:href="#path13_fill" transform="translate(-3095.5 867.7)"/>
</g>
<g id="_Compound_Path_8">
<use xlink:href="#path14_fill" transform="translate(-3109.24 867.43)"/>
</g>
<g id="_Path_8">
<use xlink:href="#path15_fill" transform="translate(-3084.15 867.448)"/>
</g>
<g id="_Path_9">
<use xlink:href="#path16_fill" transform="translate(-3135.87 867.7)"/>
</g>
<g id="_Compound_Path_9">
<use xlink:href="#path17_fill" transform="translate(-3124.17 867.69)"/>
</g>
<g id="_Compound_Path_10">
<use xlink:href="#path18_fill" transform="translate(-3072.2 867.43)"/>
</g>
</g>
</g>
<defs>
<path id="path0_fill" d="M 2.85 19.78C 2.45804 20.7595 2.12413 21.7612 1.85 22.78L 1.66 22.78C 1.73 22.04 1.81 20.89 1.81 19.56L 1.81 0L 0 0L 0 26.48L 1.81 26.48L 9.55 6.7C 9.95076 5.76133 10.2849 4.79561 10.55 3.81L 10.7 3.81C 10.63 4.59 10.55 5.74 10.55 6.88L 10.55 26.48L 12.34 26.48L 12.34 0L 10.59 0L 2.85 19.78Z"/>
<path id="path1_fill" d="M 6.33 9.07248C 8.1054 8.30531 9.22601 6.52505 9.15 4.59248C 9.15 1.85248 7.59 0.00248104 4.67 0.00248104C 3.03185 -0.0487713 1.47034 0.69658 0.48 2.00248L 0.88 3.67248C 1.69422 2.38676 3.09848 1.59452 4.62 1.56248C 6.44 1.56248 7.44 2.78248 7.44 4.67248C 7.44 7.23248 5.92 8.52248 3.77 8.52248L 2.4 8.52248L 2.4 9.93248L 3.96 9.93248C 6.74 9.93248 7.89 11.5225 7.89 13.8625C 7.89 16.5625 6.33 17.9325 4.41 17.9325C 2.88794 17.9237 1.46437 17.1784 0.59 15.9325L 0 17.3725C 1.08205 18.7152 2.72592 19.4799 4.45 19.4425C 7.3 19.4425 9.67 17.4425 9.67 13.8125C 9.75854 11.6584 8.38828 9.7138 6.33 9.07248L 6.33 9.07248Z"/>
<path id="path2_fill" fill-rule="evenodd" d="M 3.56006 0L 11.6399 0L 11.6399 17.31L 13.3401 17.31L 13.3401 22.31L 11.97 22.31L 11.75 18.64L 1.59009 18.64L 1.37012 22.31L 0 22.31L 0 17.26L 0.780029 17.26C 1.92993 16.63 2.62988 14.08 3 10.56C 3.48999 6 3.56006 0 3.56006 0ZM 2.75 17.31L 9.86011 17.31L 9.86011 1.45001L 5.12012 1.45001C 5.12012 1.45001 5.01001 6.67999 4.53003 11.01C 4.18994 14.12 3.75 16.2 2.75 17.31Z"/>
<path id="path3_fill" fill-rule="evenodd" d="M 5.11011 0.00476074C 8.18994 0.00476074 9.92993 1.71472 9.92993 5.41473L 9.94995 15.6447C 9.94019 16.8041 10.0779 17.9601 10.3601 19.0847L 8.77002 19.0847C 8.52734 18.2644 8.37964 17.4188 8.33008 16.5648C 7.67651 18.2578 6.07373 19.3958 4.26001 19.4547C 1.73999 19.4547 0 17.4547 0 14.0447C 0 10.0347 2.21997 7.96472 6.21997 7.96472L 8.21997 7.96472L 8.21997 5.6347C 8.21997 2.78473 7.11011 1.56476 5.11011 1.56476C 3.54907 1.53735 2.07666 2.28674 1.17993 3.56476L 0.699951 1.89471C 1.80859 0.630249 3.42993 -0.0645752 5.11011 0.00476074ZM 4.59985 18.0148C 6.33984 18.0148 7.55981 16.3448 8.22998 14.3448L 8.22998 9.19476L 6.22998 9.19476C 3.1499 9.19476 1.66992 10.6047 1.66992 13.8647C 1.66992 16.4948 2.85986 18.0148 4.59985 18.0148Z"/>
<path id="path4_fill" d="M 0 1.44L 4.34 1.44L 4.34 18.66L 6.08 18.66L 6.08 1.44L 10.38 1.44L 10.38 0L 0 0L 0 1.44L 0 1.44Z"/>
<path id="path5_fill" fill-rule="evenodd" d="M 0 9.71002C 0 3.59003 2.30005 0 5.44995 0C 8.67993 0 10.75 3.38 10.1499 10.01L 1.69995 10.01C 1.81006 15.12 3.11011 17.9 5.81006 17.9C 7.31543 17.8687 8.71729 17.127 9.59009 15.9L 10.1499 17.31C 9.11035 18.6664 7.48877 19.4493 5.78003 19.42C 1.82007 19.42 0 15.83 0 9.71002ZM 1.75 8.67999L 8.53003 8.67999C 8.82007 3.67999 7.40991 1.48999 5.44995 1.48999C 3.48999 1.48999 1.8999 4.01001 1.75 8.67999Z"/>
<path id="path6_fill" d="M 2.93 12.01C 2.67 15.38 1.93 17.2 0.82 17.2C 0.541987 17.2209 0.262679 17.1834 0 17.09L 0.15 18.65C 0.384906 18.7465 0.636047 18.7974 0.89 18.8C 3.33 18.8 4 16.43 4.45 12.21C 4.75 9.28 4.97 1.39 4.97 1.39L 9.49 1.39L 9.49 18.69L 11.23 18.69L 11.23 0L 3.45 0C 3.45 0 3.15 9.01 2.93 12.01Z"/>
<path id="path7_fill" fill-rule="evenodd" d="M 1.73999 6.92999L 3.11011 6.92999C 6.66992 6.92999 9 8.81 9 12.74C 9 16.67 6.52002 18.67 3 18.67L 0 18.67L 0 0L 1.73999 0L 1.73999 6.92999ZM 1.69995 17.31L 2.81006 17.31C 5.47998 17.31 7.21997 15.94 7.21997 12.79C 7.21997 9.64001 5.66992 8.31 3 8.31L 1.69995 8.31L 1.69995 17.31Z"/>
<path id="path8_fill" d="M 5.9 17.8974C 3.01 17.8974 1.71 14.8974 1.71 9.74745C 1.71 4.59745 3.04 1.48745 5.9 1.48745C 7.38353 1.54138 8.74195 2.33317 9.52 3.59745L 10 1.74745C 8.98793 0.565823 7.48349 -0.0773531 5.93 0.00744639C 2.11 0.00744639 0 3.59745 0 9.74745C 0 15.8974 2.15 19.4174 5.89 19.4174C 7.57153 19.4531 9.16911 18.6841 10.19 17.3474L 9.63 15.9074C 8.77093 17.1229 7.38792 17.8607 5.9 17.8974Z"/>
<path id="path9_fill" d="M 0 1.44L 4.33 1.44L 4.33 18.66L 6.07 18.66L 6.07 1.44L 10.37 1.44L 10.37 0L 0 0L 0 1.44L 0 1.44Z"/>
<path id="path10_fill" fill-rule="evenodd" d="M 6.37012 8.78003C 8.05591 8.05499 9.10718 6.35199 9 4.52002C 9 1.52002 7.21997 0 3.92993 0L 0 0L 0 18.67L 4 18.67C 7.52002 18.67 9.8501 16.97 9.8501 13.3C 9.98657 11.1342 8.49878 9.20172 6.37012 8.78003ZM 1.69995 1.37L 3.80005 1.37C 5.94995 1.37 7.28003 2.21997 7.28003 4.58997C 7.28003 7.17999 5.83984 8.28998 3.80005 8.28998L 1.69995 8.28998L 1.69995 1.37ZM 1.69995 17.37L 4 17.37L 3.98999 17.31C 6.3999 17.31 8.10986 16.31 8.10986 13.41C 8.10986 10.71 6.65991 9.59998 3.95996 9.59998L 1.69995 9.59998L 1.69995 17.37Z"/>
<path id="path11_fill" fill-rule="evenodd" d="M 0 9.82001C 0 3.59003 2.47998 0 5.69995 0C 8.91992 0 11.3999 3.19 11.3999 9.59003C 11.3999 15.78 8.91992 19.41 5.69995 19.41C 2.47998 19.41 0 16.05 0 9.82001ZM 1.69995 9.70001C 1.69995 15.52 3.51001 18 5.69995 18L 5.69995 18.01C 7.88989 18.01 9.65991 15.34 9.69995 9.70001C 9.69995 3.84998 7.91992 1.44 5.69995 1.44C 3.47998 1.44 1.69995 3.88 1.69995 9.70001Z"/>
<path id="path12_fill" fill-rule="evenodd" d="M 5 15.63C 2.66992 14.44 1.11011 12.33 1.11011 8.33002C 1.11011 2.78003 4.6499 0 8.78003 0L 13.04 0L 13.04 26.48L 10.1899 26.48L 10.1899 16.33L 7.82007 16.33L 3.30005 26.48L 0 26.48L 5 15.63ZM 8.69995 13.96L 10.22 13.96L 10.22 2.40002L 8.69995 2.40002C 6.3999 2.40002 4.17993 4.07001 4.17993 8.33002C 4.17993 12.59 6.21997 13.96 8.69995 13.96Z"/>
<path id="path13_fill" d="M 10.3 0L 7.38 0L 2.89 8.62L 2.89 0L 0 0L 0 18.66L 2.89 18.66L 2.89 9.37L 7.82 18.66L 10.97 18.66L 5.67 8.77L 10.3 0L 10.3 0Z"/>
<path id="path14_fill" fill-rule="evenodd" d="M 3 10.26C 3 14.49 4.17993 16.71 6.47998 16.71C 7.80005 16.6733 9.07715 16.2336 10.1399 15.45L 10.8101 17.67C 9.49512 18.6798 7.87769 19.2155 6.21997 19.19C 2.37012 19.19 0 16.11 0 10.37C 0 4.37 1.62988 0 5.62988 0C 8.78003 0 10.78 2.34003 10.78 8.66998L 10.78 10.26L 3 10.26ZM 7.82007 7.89001C 7.82007 4.70001 7.30005 2.37 5.63013 2.37L 5.63013 2.38C 3.8501 2.38 3.23999 4.57001 3.04004 7.89001L 7.82007 7.89001Z"/>
<path id="path15_fill" d="M 6.47 16.7722C 4.14 16.7722 3.03 14.1022 3.03 9.44217C 3.03 4.78217 4.51 2.44217 6.59 2.44217C 7.73306 2.50667 8.81823 2.96618 9.66 3.74217L 10.07 1.00217C 9.05555 0.318533 7.85285 -0.0310867 6.63 0.0021706C 2.26 0.0021706 0 3.74217 0 9.59217C 0 15.9622 2.41 19.1822 6.41 19.1822C 7.83831 19.221 9.22827 18.7171 10.3 17.7722L 9.63 15.6222C 8.75357 16.3805 7.6288 16.7898 6.47 16.7722L 6.47 16.7722Z"/>
<path id="path16_fill" d="M 7.18 7.92L 2.89 7.92L 2.89 0L 0 0L 0 18.66L 2.89 18.66L 2.89 10.29L 7.18 10.29L 7.18 18.66L 10.04 18.66L 10.04 0L 7.18 0L 7.18 7.92L 7.18 7.92Z"/>
<path id="path17_fill" fill-rule="evenodd" d="M 3.04004 0L 11.71 0L 11.6899 16.31L 13.1699 16.31L 13.1699 22.31L 10.5901 22.31L 10.5901 18.67L 2.59009 18.67L 2.59009 22.3L 0 22.3L 0 16.3L 1.1499 16.3C 2.8501 12.33 3.04004 6.59003 3.04004 1.59003L 3.04004 0ZM 3.86011 16.31L 8.86011 16.31L 8.82007 2.31L 5.6001 2.31L 5.6001 2.67999C 5.6001 6.59998 5.42017 12.31 3.86011 16.31Z"/>
<path id="path18_fill" fill-rule="evenodd" d="M 10.52 5.92999L 10.52 14.71C 10.5354 16.1245 10.6626 17.5355 10.8999 18.93L 8.45996 18.93C 8.33154 18.4449 8.24463 17.9498 8.19995 17.45L 7.95996 17.45C 7.16187 18.5729 5.85718 19.2252 4.47998 19.19C 1.82007 19.19 0 17.19 0 13.52C 0 9.52002 2.04004 7 7.26001 7L 7.66992 7L 7.66992 5.89001C 7.66992 3.40997 6.86011 2.40997 5.22998 2.40997C 3.83887 2.48297 2.52271 3.06281 1.53003 4.03998L 0.969971 1.47998C 2.25195 0.52124 3.80933 0.00213623 5.40991 0C 8.70996 0 10.52 1.40997 10.52 5.92999ZM 5.19995 16.75C 6.21191 16.6774 7.12891 16.128 7.66992 15.27L 7.70996 9.19L 7.38013 9.19C 3.79004 9.19 3.01001 10.78 3.01001 13.19C 3.01001 15.34 3.71997 16.75 5.19995 16.75Z"/>
</defs>
</svg>
