<svg width="83" height="75" viewBox="0 0 83 75" version="1.1" xmlns="http://www.w3.org/2000/svg" xmlns:xlink="http://www.w3.org/1999/xlink">
<title>fond-zimina</title>
<desc>Created using Figma</desc>
<g id="Canvas" transform="translate(3299 -1082)">
<g id="fond-zimina">
<g id="Shape">
<use xlink:href="#path0_fill" transform="translate(-3299 1082.09)" fill="#981A31"/>
</g>
<g id="Shape">
<use xlink:href="#path1_fill" transform="translate(-3283.93 1114.77)" fill="#981A31"/>
</g>
<g id="Shape">
<use xlink:href="#path2_fill" transform="translate(-3298.34 1116.45)" fill="#981A31"/>
</g>
<g id="Shape">
<use xlink:href="#path3_fill" transform="translate(-3277.41 1099.13)" fill="#981A31"/>
</g>
<g id="Shape">
<use xlink:href="#path4_fill" transform="translate(-3241.05 1127.65)" fill="#981A31"/>
</g>
<g id="Shape">
<use xlink:href="#path5_fill" transform="translate(-3224.4 1127.66)" fill="#981A31"/>
</g>
<g id="Shape">
<use xlink:href="#path6_fill" transform="translate(-3268.41 1085.38)" fill="#981A31"/>
</g>
<g id="Shape">
<use xlink:href="#path7_fill" transform="translate(-3285.73 1086.23)" fill="#981A31"/>
</g>
<g id="Shape">
<use xlink:href="#path8_fill" transform="translate(-3273.72 1131.39)" fill="#981A31"/>
</g>
<g id="Shape">
<use xlink:href="#path9_fill" transform="translate(-3253.8 1127.65)" fill="#981A31"/>
</g>
<g id="Shape">
<use xlink:href="#path10_fill" transform="translate(-3245.16 1127.64)" fill="#981A31"/>
</g>
<g id="Shape">
<use xlink:href="#path11_fill" transform="translate(-3228.39 1127.64)" fill="#981A31"/>
</g>
<g id="Shape">
<use xlink:href="#path12_fill" transform="translate(-3219.84 1142.48)" fill="#981A31"/>
</g>
<g id="Shape">
<use xlink:href="#path13_fill" transform="translate(-3241.99 1142.47)" fill="#981A31"/>
</g>
<g id="Shape">
<use xlink:href="#path14_fill" transform="translate(-3250.46 1142.32)" fill="#981A31"/>
</g>
<g id="Shape">
<use xlink:href="#path15_fill" transform="translate(-3223.95 1142.31)" fill="#981A31"/>
</g>
<g id="Shape">
<use xlink:href="#path16_fill" transform="translate(-3237.36 1142.48)" fill="#981A31"/>
</g>
<g id="Shape">
<use xlink:href="#path17_fill" transform="translate(-3246.33 1142.47)" fill="#981A31"/>
</g>
<g id="Shape">
<use xlink:href="#path18_fill" transform="translate(-3233.65 1142.49)" fill="#981A31"/>
</g>
<g id="Shape">
<use xlink:href="#path19_fill" transform="translate(-3254.59 1105.04)" fill="#981A31"/>
</g>
<g id="Shape">
<use xlink:href="#path20_fill" transform="translate(-3281.74 1105.6)" fill="#981A31"/>
</g>
<g id="Shape">
<use xlink:href="#path21_fill" transform="translate(-3277.02 1091.22)" fill="#981A31"/>
</g>
<g id="Shape">
<use xlink:href="#path22_fill" transform="translate(-3270.45 1099.06)" fill="#981A31"/>
</g>
<g id="Shape">
<use xlink:href="#path23_fill" transform="translate(-3259.22 1119.59)" fill="#981A31"/>
</g>
<g id="Shape">
<use xlink:href="#path24_fill" transform="translate(-3253.77 1142.47)" fill="#981A31"/>
</g>
<g id="Shape">
<use xlink:href="#path25_fill" transform="translate(-3230.48 1142.51)" fill="#981A31"/>
</g>
<g id="Shape">
<use xlink:href="#path26_fill" transform="translate(-3225.93 1142.51)" fill="#981A31"/>
</g>
<g id="Shape">
<use xlink:href="#path27_fill" transform="translate(-3247.78 1113.8)" fill="#981A31"/>
</g>
</g>
</g>
<defs>
<path id="path0_fill" fill-rule="evenodd" d="M 0.108398 29.5635C 0.0732422 29.899 0.0380859 30.2343 0 30.568C 0 31.1377 0 31.7073 0.0187988 32.2864L 0.0480957 32.3999C 0.0783691 32.514 0.108398 32.6281 0.122803 32.7421C 0.245605 33.5775 0.481689 34.375 1.08594 35.0111C 1.86011 35.8275 2.85156 35.9889 3.89966 35.9889C 7.15747 35.9984 10.415 36.0079 13.6729 36.0079C 13.9939 36.0079 14.1733 36.0839 14.2959 36.4161C 14.6643 37.394 15.4292 38.0111 16.4299 38.0491C 18.4631 38.1321 20.5032 38.1134 22.5381 38.0947L 22.5425 38.0947L 23.408 38.087C 23.9841 38.0775 24.324 37.3086 23.9368 36.8813C 23.748 36.663 23.3704 36.5206 23.0776 36.5206C 21.927 36.5092 20.7764 36.5183 19.6257 36.5275L 19.5813 36.5278C 18.8301 36.5337 18.0784 36.5396 17.3271 36.5396C 16.0522 36.5396 15.5708 36.0269 15.5896 34.7357L 15.5974 34.647C 15.6064 34.5502 15.6157 34.4503 15.6086 34.3561C 15.5708 33.9478 15.7219 33.8148 16.1467 33.8148C 17.6812 33.8243 19.2156 33.8243 20.75 33.8243C 22.2844 33.8243 23.8188 33.8243 25.3533 33.8339C 25.5986 33.8339 25.8821 33.9478 26.0615 34.1091C 27.3079 35.1914 28.5449 36.2927 29.7817 37.394C 29.874 37.4698 29.9512 37.5607 30.0071 37.6265L 30.0098 37.6295L 30.0273 37.6503C 29.8647 37.7753 29.7021 37.8917 29.5425 38.006C 29.2292 38.2301 28.927 38.4463 28.6582 38.7041C 27.7915 39.53 26.9321 40.3612 26.0737 41.1915L 26.0671 41.1979C 24.9541 42.2745 23.8423 43.3497 22.7188 44.4098C 22.0955 44.9984 21.8311 45.6725 21.8218 46.5079L 21.8093 47.9017L 21.8052 48.3531L 21.801 48.7964L 21.8008 48.8107L 21.7996 48.9491C 21.7852 50.4473 21.771 51.9427 21.7651 53.4384C 21.7556 54.5396 21.2551 55.0143 20.0559 55.0143C 18.9133 55.0237 18.498 54.6155 18.498 53.4952C 18.498 52.6975 18.499 51.9008 18.5 51.1042C 18.5022 49.5126 18.5042 47.9221 18.498 46.3275C 18.4885 45.4731 18.4697 44.6187 18.4507 43.7643C 18.4414 43.337 18.2146 43.0807 17.7993 43.0237C 17.3555 42.9573 17.0249 43.1757 16.9211 43.6123C 16.8738 43.7927 16.8738 43.9825 16.8738 44.1725C 16.8833 47.2104 16.8928 50.2484 16.9116 53.2864C 16.9155 53.3894 16.9163 53.4908 16.917 53.5919C 16.918 53.7426 16.9192 53.8926 16.9304 54.0459C 17.0249 55.2421 17.771 56.1914 18.9229 56.4668C 19.4421 56.5902 20.0183 56.6091 20.5564 56.5807C 22.2939 56.4763 23.3796 55.2231 23.3704 53.4763C 23.3608 51.1598 23.3892 48.8339 23.4365 46.5079C 23.4458 46.2136 23.5969 45.8529 23.8047 45.644C 25.4163 44.0514 27.0562 42.4773 28.696 40.9031L 28.7092 40.8905L 28.7224 40.8779L 28.7356 40.8654L 28.7488 40.8528L 28.762 40.8402C 28.8533 40.7523 28.9441 40.6641 29.0349 40.5758L 29.0403 40.5707L 29.043 40.5681C 29.4009 40.2203 29.7588 39.8728 30.1406 39.5491C 30.5278 39.2073 31.0188 38.9889 31.4814 39.3212C 32.4634 40.0143 32.8979 40.8782 31.8591 41.8845C 30.7585 42.9469 29.6748 44.0322 28.5906 45.1183L 28.5806 45.1283C 28.2729 45.4364 27.9653 45.7445 27.6572 46.0522C 27.2134 46.4889 27.1663 46.9921 27.5156 47.3339C 27.8745 47.6757 28.3276 47.6377 28.762 47.2104C 29.2417 46.7386 29.719 46.2655 30.196 45.7926C 30.9956 44.9998 31.7949 44.2074 32.6052 43.4225C 33.5872 42.4731 34.3521 41.4573 33.9553 39.9573C 33.9963 39.9469 34.0325 39.9366 34.0654 39.9272C 34.1235 39.9106 34.1716 39.8969 34.2197 39.8909C 35.6267 39.7389 36.5332 38.932 36.9392 37.6123C 37.3359 36.3307 36.9675 35.2295 35.9666 34.318C 35.3594 33.7606 34.7629 33.1884 34.1658 32.6154L 34.1514 32.6016L 34.1372 32.5879L 34.1309 32.5817L 34.1067 32.5585C 33.7676 32.2328 33.4285 31.9071 33.0867 31.5839C 32.6311 31.149 32.1736 30.7166 31.7158 30.2842L 31.6797 30.25L 31.6436 30.2158C 31.1858 29.7834 30.7283 29.351 30.2727 28.9161C 29.9895 28.6503 29.6589 28.5934 29.3191 28.7548C 28.9885 28.9066 28.8186 29.2009 28.9131 29.5332C 28.998 29.818 29.1775 30.0934 29.3945 30.3022C 31.2561 32.0887 33.127 33.8564 34.998 35.6241L 35.0225 35.6472C 35.4097 36.0079 35.5605 36.4541 35.4568 36.9763C 35.3435 37.5743 35.0034 38.03 34.418 38.22C 33.7476 38.4384 33.1433 38.2389 32.624 37.7832C 32.0906 37.3088 31.5571 36.8361 31.0242 36.3638L 30.9619 36.3086C 29.6382 35.1355 28.3174 33.9648 27.0056 32.78C 26.5713 32.3813 26.0991 32.2104 25.5137 32.2104C 23.613 32.2168 21.7163 32.2147 19.8184 32.2125L 19.5344 32.2123C 18.6794 32.2113 17.8245 32.2104 16.9683 32.2104C 16.8596 32.2104 16.7476 32.2035 16.6255 32.1959C 16.5461 32.1909 16.4626 32.1857 16.3733 32.182L 16.3733 31.5743L 16.4299 27.7769C 16.4377 27.3595 16.4434 26.9414 16.449 26.5228L 16.4504 26.413C 16.4641 25.354 16.478 24.2917 16.5244 23.2295C 16.5435 22.8972 16.6943 22.4795 16.9304 22.28C 17.4875 21.8339 18.1675 21.8339 18.8096 22.1091C 19.4045 22.3561 19.5837 22.8877 19.5837 23.5048C 19.5837 25.1061 19.5923 26.6992 19.6008 28.2993L 19.6008 28.3203L 19.6016 28.4727L 19.6018 28.4969L 19.6025 28.6506L 19.6028 28.6788C 19.6121 29.5332 19.9521 30.2452 20.6509 30.7009C 21.7651 31.4414 22.9832 31.432 24.1636 30.9098C 25.2683 30.4257 25.5515 29.4098 25.5703 28.318C 25.5972 26.7565 25.6001 25.1902 25.603 23.6257L 25.603 23.5781C 25.6042 22.9424 25.6055 22.307 25.6082 21.6725C 25.6082 21.1029 25.2966 20.7421 24.834 20.7325C 24.3428 20.7231 24.0217 21.0934 24.0217 21.6914C 24.0176 22.3729 24.0154 23.0543 24.0132 23.7358L 24.0125 23.9403C 24.0103 24.7097 24.0078 25.4791 24.0029 26.2484L 24.0027 26.2664L 24.0027 26.2721C 23.9932 27.0619 23.9834 27.861 23.9275 28.6598C 23.8801 29.2769 23.5781 29.5522 22.9548 29.6187C 22.7188 29.6377 22.4827 29.6377 22.2466 29.6187C 21.5195 29.5427 21.1797 29.163 21.1797 28.432L 21.1514 23.3054C 21.1418 22.4984 20.8586 21.7959 20.292 21.2168C 19.0928 20.0016 16.7134 20.0586 15.5613 21.3307C 15.4763 21.4257 15.3818 21.53 15.363 21.5491C 14.8247 21.0364 14.3245 20.5522 13.8049 20.0491L 13.8496 20.0449C 13.9341 20.037 14.0078 20.03 14.0884 20.03C 14.5286 20.03 14.9695 20.0316 15.4109 20.0332L 15.4265 20.0332C 16.5229 20.037 17.6213 20.0408 18.7151 20.0206C 20.481 19.9921 21.5479 18.9098 21.614 17.144C 21.6707 15.5016 20.9341 14.3339 19.5933 14.0111C 19.2251 13.9257 18.8474 13.8877 18.4697 13.8877C 17.7285 13.8782 16.9895 13.8782 16.2507 13.8782C 15.5117 13.8782 14.7729 13.8782 14.0317 13.8687C 13.0117 13.8497 12.3604 13.1091 12.3979 12.0648C 12.4358 11.0966 12.9741 10.6693 14.0884 10.6978C 14.9666 10.7168 15.854 10.7263 16.7322 10.7168C 17.5632 10.7073 18.0352 10.2231 18.0352 9.37817C 18.0352 9.08472 18.0356 8.79053 18.0364 8.49609L 18.0364 8.45764C 18.0381 7.59351 18.0398 6.72693 18.0259 5.86548C 18.0259 5.5332 18.1392 5.35291 18.4224 5.20093C 20.2827 4.18518 22.209 3.34021 24.2295 2.73254C 24.7258 2.58105 25.2261 2.44629 25.7471 2.30603L 25.7544 2.30408C 26.0146 2.23401 26.2798 2.1626 26.5525 2.08704L 26.5525 2.68518L 26.5525 11.6566C 26.5525 11.8561 26.5525 12.0743 26.6091 12.2643C 26.7412 12.682 27.0623 12.8623 27.4873 12.7959C 27.8933 12.7295 28.1199 12.4731 28.1294 12.0459L 28.1294 11.6661C 28.1294 8.5332 28.1294 5.40027 28.1387 2.26746C 28.1387 2.10608 28.2332 1.82117 28.3088 1.81177C 29.1304 1.72632 29.9612 1.65027 30.7922 1.65027C 31.1792 1.65027 31.4436 1.92566 31.4436 2.37183C 31.4543 3.39832 31.4688 4.4248 31.4834 5.45129C 31.5078 7.15894 31.5322 8.8667 31.5381 10.5743C 31.5381 11.8561 32.1897 13.0332 33.3132 13.5175C 34.5032 14.03 35.6267 13.8212 36.5332 12.9193C 38.1384 11.3209 39.7185 9.69092 41.2988 8.06018L 42.3594 6.9668C 42.7371 6.57751 42.718 6.10291 42.3877 5.78003C 42.0571 5.45728 41.5378 5.50476 41.1694 5.88452C 40.6704 6.40332 40.1726 6.9231 39.6746 7.44336L 39.6616 7.45691L 39.6492 7.46997L 39.573 7.54944L 39.5024 7.62329C 38.6636 8.5 37.8237 9.37756 36.9771 10.2516C 36.4578 10.8022 35.9194 11.3434 35.3435 11.8275C 34.5598 12.4825 33.521 12.1693 33.2473 11.182C 33.1528 10.8307 33.1621 10.3655 33.3132 10.0427C 33.5588 9.51111 33.9082 8.98889 34.3142 8.57117C 35.4878 7.37476 36.6709 6.1908 37.8542 5.00684L 37.8738 4.98718L 37.8936 4.96741L 37.9131 4.94788L 37.9519 4.90906C 38.8208 4.03979 39.6899 3.17029 40.5557 2.2959C 40.905 1.94458 41.2734 1.84021 41.7456 1.93518C 43.2595 2.24512 44.634 2.9137 46.0032 3.57983L 46.0051 3.58069L 46.1741 3.66296C 46.958 4.04028 47.7231 4.45581 48.4961 4.87573L 48.5488 4.9043C 48.8477 5.06665 49.1477 5.22949 49.4507 5.39087C 49.4216 5.43164 49.3979 5.46606 49.3777 5.49597C 49.3313 5.5636 49.301 5.60767 49.2617 5.64722C 48.5159 6.39722 47.7676 7.14722 47.0193 7.89722C 46.2615 8.65662 45.5037 9.41614 44.7483 10.1757C 44.6052 10.3196 44.4612 10.4626 44.3171 10.6057L 44.29 10.6327C 43.7495 11.1694 43.2092 11.7062 42.7087 12.2832C 41.689 13.4509 41.689 14.8086 42.6331 16.0427C 42.6665 16.0856 42.7 16.1273 42.7346 16.1704L 42.7622 16.2047L 42.769 16.213L 42.7808 16.2274L 42.7849 16.2324C 42.844 16.3054 42.908 16.3846 42.9824 16.4795C 42.8857 16.4607 42.7986 16.4398 42.717 16.4202L 42.7136 16.4194C 42.5496 16.3801 42.4094 16.3466 42.2649 16.3466C 39.3564 16.337 36.4387 16.337 33.5305 16.3466C 33.0679 16.3466 32.7373 16.6693 32.7185 17.1061C 32.6995 17.5997 33.0679 17.9414 33.6533 17.9414C 34.3289 17.9414 35.0039 17.9408 35.6787 17.9402C 37.7102 17.9385 39.7393 17.9368 41.7739 17.9509C 41.991 17.9509 42.2742 18.0554 42.416 18.2168C 43.8135 19.8022 45.2014 21.3972 46.5706 23.0111C 46.7312 23.1914 46.8257 23.4763 46.835 23.7231C 46.8586 24.3746 46.8638 25.026 46.8689 25.6775C 46.8721 26.0703 46.8752 26.4633 46.8823 26.8561C 46.9011 28.2325 47.0051 29.5807 48.3743 30.2737C 48.2405 30.2737 48.1028 30.2708 47.9626 30.2677L 47.9553 30.2676C 47.6626 30.2611 47.3601 30.2545 47.0618 30.2737C 45.428 30.3782 44.3044 31.5934 44.3044 33.2357C 44.3044 33.4589 44.302 33.6796 44.2996 33.9004L 44.2991 33.9601C 44.2969 34.1609 44.2949 34.3619 44.2949 34.5648C 44.2949 35.5854 44.2903 36.6061 44.2854 37.6267C 44.2808 38.6472 44.2761 39.6678 44.2761 40.6884C 44.2761 41.3813 44.8428 41.78 45.3997 41.5048C 45.7776 41.3148 45.8625 40.9825 45.8625 40.5934L 45.8909 33.3307C 45.9001 32.3718 46.429 31.8687 47.4111 31.8591C 48.3269 31.8591 48.9407 32.4384 48.9502 33.3402C 48.9556 33.8279 48.9656 34.3147 48.9758 34.8009L 48.9758 34.8046L 48.9758 34.8082L 48.9758 34.8119L 48.9758 34.8156C 49.0007 36.0192 49.0256 37.2192 48.9785 38.4193C 48.8936 40.4034 50.4988 42.0743 52.9631 41.4003C 54.1719 41.068 54.9651 40.0522 55.05 38.7611C 55.0972 37.9446 55.135 37.1377 55.1729 36.2927L 55.8716 36.2927C 56.6235 36.2998 57.3752 36.3081 58.1272 36.3165C 60.3779 36.3414 62.6289 36.3662 64.8796 36.3591C 66.2017 36.3497 67.146 35.5618 67.3159 34.2325C 67.4387 33.2737 67.4197 32.2675 67.2781 31.3086C 66.4851 25.8307 64.823 20.6187 61.9526 15.8813C 58.2227 9.72949 53.0483 5.125 46.5422 2.06799C 45.2393 1.45093 43.8701 0.957275 42.5103 0.482544C 41.2168 0.036377 40.1213 0.368652 39.1394 1.38452C 37.853 2.74475 36.5291 4.06238 35.2043 5.38074L 35.1921 5.39294C 34.6438 5.93848 34.0952 6.48425 33.5493 7.0332C 33.4561 7.13489 33.3562 7.22375 33.2288 7.33679L 33.2249 7.34033L 33.1433 7.41296C 33.1379 7.37305 33.1328 7.3385 33.1279 7.30762L 33.1252 7.28979L 33.1238 7.28113C 33.1133 7.21545 33.1055 7.16699 33.1055 7.11865C 33.0979 6.49207 33.0874 5.86548 33.0769 5.23901C 33.061 4.29907 33.0452 3.35913 33.0396 2.41931C 33.03 1.2041 32.4067 0.349731 31.2266 0.102905C 30.6882 -0.0111084 30.1028 -0.0205078 29.5457 0.0268555C 26.7603 0.264282 24.0596 0.919312 21.4629 1.96362C 14.7776 4.65027 9.49927 9.1123 5.36328 14.97C 2.58716 18.9003 0.868652 23.2769 0.273926 28.0807C 0.214111 28.5544 0.164062 29.0315 0.114258 29.5079L 0.109619 29.5511L 0.108398 29.5635ZM 61.292 18.0956C 61.3108 18.0861 61.3342 18.0742 61.3672 18.0554L 61.4714 18.269L 61.4746 18.2756C 61.6309 18.5947 61.7935 18.9268 61.9622 19.3276C 60.9895 19.2991 60.3286 19.7738 59.7053 20.3624C 58.9465 21.082 58.1824 21.7909 57.4211 22.4969L 57.4019 22.5148L 56.6931 23.1725C 56.2117 23.6188 56.1267 24.1124 56.4761 24.4827C 56.8347 24.8529 57.2974 24.8054 57.7979 24.3402L 60.9141 21.4352C 61.6694 20.7422 61.9622 20.7516 62.6892 21.4922C 63.52 22.3466 63.5295 22.9636 62.6702 23.7991C 61.3767 25.0618 60.0642 26.3245 58.7422 27.5586C 58.5627 27.7295 58.2605 27.834 58.0056 27.8529C 57.6519 27.8802 57.2952 27.8851 56.9382 27.8899L 56.9355 27.8899C 56.4263 27.8969 55.9175 27.9038 55.4185 27.9763C 54.0964 28.1663 53.2466 29.1631 53.1521 30.5111C 53.1238 30.9763 53.105 31.47 53.2087 31.9257C 53.4639 33.0934 54.2759 33.7104 55.4089 33.9193C 55.8245 33.9954 56.2493 34.0143 56.6743 34.0143C 58.1414 34.0206 59.6125 34.0186 61.0825 34.0164L 61.3037 34.0161C 61.9644 34.0151 62.6245 34.0143 63.2839 34.0143C 63.8977 34.0143 64.2566 33.7295 64.2661 33.2358C 64.2756 32.7327 63.9072 32.4193 63.2747 32.4193L 56.6648 32.4193C 56.4099 32.4193 56.155 32.4193 55.9094 32.3813C 54.9841 32.2485 54.7007 31.8972 54.7102 30.9574C 54.729 29.951 55.1729 29.4858 56.2021 29.4763C 58.2134 29.4574 60.2341 29.4574 62.2454 29.4574C 62.8875 29.4479 63.2463 29.1631 63.2368 28.6409C 63.2273 28.1472 62.8779 27.8624 62.2642 27.8529L 62.0759 27.8496C 61.7031 27.8438 61.3232 27.8379 60.895 27.7485C 61.3374 27.3201 61.7812 26.8916 62.2312 26.4573C 62.8384 25.8716 63.4563 25.275 64.0962 24.6536C 64.1829 24.9572 64.2708 25.2532 64.3572 25.5439L 64.3633 25.5648L 64.3652 25.5712L 64.3665 25.575C 64.5303 26.1281 64.6887 26.663 64.8232 27.1979C 65.333 29.2104 65.8052 31.2231 65.824 33.3118C 65.824 33.4352 65.824 33.5681 65.8147 33.6915C 65.7485 34.4604 65.3896 34.8118 64.6343 34.8118C 63.6553 34.8118 62.6765 34.8025 61.6975 34.7932L 61.6599 34.7928C 60.4785 34.7833 59.2996 34.7714 58.1216 34.7594C 56.9553 34.7476 55.7903 34.7358 54.6252 34.7263C 53.7659 34.7168 53.5488 34.9542 53.5298 35.8181C 53.5205 36.7485 53.5015 37.6788 53.4448 38.6093C 53.3789 39.7675 52.1418 40.3845 51.1504 39.777C 50.7161 39.5206 50.5745 39.1029 50.5745 38.6093C 50.5745 38.2369 50.575 37.8641 50.5757 37.491C 50.5774 36.3606 50.5791 35.2274 50.5649 34.0997C 50.5637 34.0068 50.5637 33.9136 50.5637 33.8203C 50.5632 33.1212 50.5625 32.4148 50.1211 31.8118C 49.9106 31.5297 49.6743 31.2649 49.4326 30.9941C 49.3164 30.8639 49.199 30.7322 49.0825 30.5966C 49.1907 30.605 49.3025 30.6171 49.4172 30.6295L 49.4219 30.63L 49.4292 30.6309L 49.4385 30.6318C 49.5774 30.647 49.7205 30.6625 49.8662 30.6725C 51.613 30.7865 52.8877 29.7136 52.9539 27.9574C 52.9993 26.8029 52.9956 25.653 52.9919 24.5012L 52.9917 24.4229C 52.9902 23.9243 52.989 23.4254 52.9917 22.9257C 53.0012 22.2422 53.0012 21.5681 52.9917 20.8845C 52.9822 20.3434 52.6895 20.0111 52.2173 20.0016C 51.7358 19.9922 51.4053 20.3529 51.4053 20.9131L 51.4053 27.0839C 51.4053 27.3022 51.4053 27.5302 51.3865 27.7485C 51.3203 28.6693 50.886 29.1061 50.0173 29.087C 49.0447 29.0681 48.5442 28.6313 48.5159 27.701C 48.4688 26.3529 48.4404 25.0143 48.4404 23.6663C 48.4404 23.0016 48.2515 22.4604 47.8076 21.9858C 47.5022 21.6656 47.2144 21.3273 46.9167 20.9772L 46.9155 20.9757L 46.9106 20.9698L 46.9082 20.9669L 46.9053 20.9635L 46.9026 20.9603C 46.7727 20.8074 46.6406 20.6522 46.5046 20.4954L 47.1921 19.802C 47.6492 19.3403 48.0994 18.8856 48.5537 18.4352L 49.3452 17.6469C 51.1394 15.8606 52.9309 14.0769 54.7007 12.2643C 54.9873 11.9635 55.2249 11.613 55.47 11.2511C 55.5959 11.0648 55.7244 10.8755 55.8623 10.6884C 57.5713 12.4731 59.2048 14.3909 60.5269 16.6029C 59.5403 17.5254 58.5627 18.4448 57.5742 19.3748L 57.55 19.3976L 57.2561 19.6741L 57.0579 19.8605C 56.4551 20.4271 55.8472 20.9985 55.2295 21.5776C 55.2207 21.4211 55.2119 21.2738 55.2034 21.1324L 55.2007 21.0878L 55.1992 21.0631C 55.1819 20.7773 55.166 20.5149 55.1541 20.2485C 55.1487 20.1313 55.1462 20.0134 55.144 19.8954C 55.1382 19.6021 55.1323 19.3081 55.0784 19.0238C 54.7573 17.3529 53.511 16.5175 51.6035 16.6599C 50.1401 16.7643 49.1392 17.7991 49.1013 19.4131C 49.0608 21.2024 49.0686 22.9966 49.0764 24.7921L 49.0771 24.9457C 49.0798 25.614 49.0825 26.2826 49.0825 26.951C 49.0825 27.4163 49.3657 27.7104 49.7905 27.739C 50.2156 27.7675 50.5461 27.5206 50.6311 27.0745C 50.6594 26.9036 50.6594 26.7231 50.6594 26.5522L 50.6594 20.1061L 50.6594 19.7263C 50.697 18.4067 51.7546 17.7897 52.9255 18.4257C 53.3694 18.6725 53.5298 19.0902 53.5393 19.5745C 53.5535 20.1732 53.5637 20.772 53.574 21.3707C 53.5908 22.3669 53.6079 23.363 53.6433 24.3593C 53.6904 25.7263 54.4553 26.6757 55.5979 27.2833C 56.6553 27.8434 57.6846 27.5302 58.5344 26.8086C 59.5864 25.9081 60.5952 24.9501 61.5986 23.9971L 61.603 23.9928L 62.0471 23.5713C 62.4343 23.2104 62.4436 22.7074 62.1321 22.3845C 61.8015 22.0427 61.3105 22.0522 60.9141 22.432C 60.2939 23.0115 59.6777 23.5951 59.0632 24.1772C 58.7515 24.4727 58.4399 24.7678 58.1284 25.0618L 58.1228 25.067L 58.1208 25.0687C 57.991 25.1902 57.8516 25.3202 57.7036 25.432C 56.6931 26.2485 55.5317 25.8308 55.2485 24.5397C 55.135 24.0175 55.4185 23.6188 55.7678 23.2865C 56.6648 22.4131 57.5713 21.5586 58.4778 20.7042L 61.2444 18.1219C 61.2576 18.113 61.2708 18.1063 61.2878 18.0977L 61.292 18.0956ZM 5.38232 17.9034C 6.80811 17.5712 7.89404 18.0554 8.83838 18.9952C 8.91113 19.0641 8.98584 19.131 9.06055 19.1978L 9.07837 19.2137L 9.08521 19.2197C 9.16748 19.2928 9.24951 19.366 9.32935 19.4414C 9.6106 19.7025 9.89233 19.9629 10.1743 20.2234C 10.887 20.8815 11.6001 21.5403 12.3037 22.2136C 12.7852 22.6693 12.6436 23.4098 12.0676 23.5902C 11.7183 23.7041 11.4351 23.5807 11.1707 23.3339C 10.8577 23.0448 10.5457 22.7546 10.2341 22.4645L 10.1533 22.3893C 9.22241 21.5226 8.29224 20.6566 7.33691 19.8212C 6.64771 19.2136 5.97705 19.318 5.354 20.0111C 4.64575 20.818 4.63623 21.2073 5.40112 21.9382C 6.15283 22.6595 6.91089 23.3732 7.66821 24.0861L 7.71753 24.1323L 7.73047 24.1445L 7.76465 24.1766L 7.76831 24.1801L 7.77197 24.1835C 8.64429 25.0048 9.51611 25.8256 10.3774 26.6566C 10.8306 27.0934 11.2744 27.3402 11.9353 27.3497C 12.908 27.3687 13.739 27.7864 14.2395 28.6882C 15.4197 30.8054 14.0601 33.3402 11.6616 33.4066C 9.7832 33.4564 7.89941 33.4583 6.0144 33.4601L 6.00024 33.4601L 5.88892 33.4602L 5.77759 33.4603L 5.66626 33.4604C 5.14673 33.4611 4.6272 33.4615 4.10767 33.4636C 3.54102 33.4636 3.21045 33.1503 3.21045 32.6566C 3.21045 32.1439 3.5127 31.8782 4.11694 31.8782C 4.81348 31.8735 5.50977 31.8757 6.2063 31.8781L 6.2417 31.8782L 6.27686 31.8783C 6.97314 31.8806 7.66968 31.8828 8.36621 31.8782C 9.48047 31.8687 10.5945 31.8591 11.7183 31.8212C 12.3699 31.8022 12.7947 31.4889 12.9175 30.9382C 13.1819 29.7136 12.8892 28.9446 11.4634 28.9257L 11.1328 28.9257C 9.17505 28.9163 7.21729 28.8976 5.25928 28.8789L 5.18408 28.8782C 4.61743 28.8687 4.26807 28.5648 4.25854 28.0902C 4.25854 27.6155 4.61743 27.2927 5.17456 27.2832C 6.02441 27.2737 6.87427 27.2737 7.72412 27.2832C 7.86816 27.2832 8.01221 27.2911 8.17236 27.2999L 8.17676 27.3002C 8.32031 27.3081 8.47705 27.3167 8.65894 27.3212C 6.8269 25.5459 5.0896 23.8655 3.36157 22.1946C 2.4834 24.5205 1.91699 27.0269 1.70923 29.6661C 1.78979 29.6698 1.86475 29.6749 1.93604 29.6798C 2.04883 29.6875 2.15283 29.6946 2.25684 29.6946C 4.78735 29.7041 7.31812 29.7136 9.85815 29.7136C 9.89624 29.7136 9.93335 29.7125 9.96997 29.7114C 10.0422 29.7094 10.1133 29.7073 10.1885 29.7136C 10.6228 29.7421 10.925 30.0459 10.9534 30.4636C 10.9722 30.9003 10.6702 31.2516 10.2263 31.2991C 10.1035 31.3086 9.97144 31.3086 9.84863 31.3086C 8.64844 31.3041 7.45044 31.3018 6.25244 31.2994L 6.07178 31.2991C 4.81348 31.2968 3.55518 31.2943 2.29468 31.2896C 1.93823 31.2896 1.76123 31.2896 1.6792 31.3778C 1.59839 31.465 1.61011 31.6383 1.63354 31.9825C 1.75635 33.8718 2.28516 34.3655 4.15479 34.375C 6.23291 34.375 8.32007 34.384 10.3987 34.3929L 10.4563 34.3932L 10.5129 34.3934L 10.5684 34.3937L 10.6228 34.3939L 13.9656 34.3939C 13.9746 34.33 13.9839 34.2792 13.9919 34.2352L 13.9932 34.2284L 13.9939 34.2241C 14.0017 34.1816 14.0083 34.1454 14.0127 34.1091C 14.0505 33.5016 14.126 32.913 14.6548 32.4952C 14.7493 32.4193 14.7681 32.2104 14.7681 32.068C 14.7966 31.0143 14.825 29.9509 14.8342 28.8877C 14.8403 28.2576 14.8386 27.6272 14.8367 26.9774L 14.8364 26.9072C 14.8352 26.5614 14.8342 26.21 14.8342 25.8497C 14.7734 25.8998 14.7319 25.9303 14.6987 25.9547L 14.6956 25.957L 14.6929 25.9589L 14.6902 25.9608L 14.688 25.9624L 14.6797 25.9685C 14.6641 25.9799 14.6499 25.9902 14.636 26.0016C 13.1724 27.2357 12.0488 27.2357 10.6228 25.9731C 9.44189 24.9269 8.27002 23.8621 7.09814 22.797L 7.08521 22.7853L 7.07251 22.7737C 6.63818 22.3845 6.57202 21.8813 6.89307 21.53C 7.21411 21.1693 7.6958 21.1788 8.14893 21.5775C 8.36621 21.7721 8.58105 21.9691 8.7959 22.1661C 9.01074 22.3632 9.22559 22.5602 9.44263 22.7548C 9.6687 22.9568 9.89355 23.1594 10.1179 23.3619L 10.1257 23.369L 10.1282 23.3713L 10.1365 23.3789L 10.1448 23.3865C 10.7554 23.9368 11.364 24.4855 11.9922 25.0143C 12.4832 25.432 12.8418 25.4034 13.3423 24.9952C 14.4661 24.1123 14.5227 22.9921 13.4746 22.0332C 11.7065 20.4203 9.93799 18.8152 8.16992 17.2108L 7.99146 17.0487L 7.80127 16.8761L 7.66748 16.7548C 7.46558 16.5704 7.26392 16.39 7.04932 16.1981L 6.6853 15.8718C 6.44409 16.243 6.21558 16.6014 5.99219 16.9521L 5.9895 16.9563C 5.78516 17.277 5.58472 17.5913 5.38232 17.9034ZM 44.627 18.2991L 44.5759 18.2404L 44.5078 18.1619C 44.1921 17.7988 43.8787 17.4381 43.5679 17.0775C 45.126 17.818 46.344 17.2484 47.4583 16.1472C 48.5515 15.0542 49.6528 13.9697 50.7542 12.8851L 50.7781 12.8616L 50.8022 12.8378L 51.0198 12.6237C 51.5042 12.1466 51.9885 11.6694 52.4722 11.1914C 52.5571 11.1155 52.6328 11.03 52.6987 10.9446C 53.0105 10.5743 53.001 10.0997 52.6895 9.7959C 52.3684 9.49207 51.8962 9.50159 51.5469 9.84338C 51.1926 10.1949 50.8428 10.5488 50.4932 10.9026L 50.4751 10.9208C 50.1226 11.2776 49.77 11.6344 49.4128 11.9889C 48.7781 12.6215 48.1365 13.2506 47.4941 13.8804L 47.4497 13.924L 47.4033 13.9694C 47.0059 14.3591 46.6082 14.7494 46.2117 15.1409C 46.1929 15.155 46.1765 15.1715 46.1602 15.188C 46.1436 15.2047 46.127 15.2214 46.1079 15.2357C 45.1069 16.1377 43.8606 15.7295 43.5867 14.3909C 43.53 14.1534 43.6245 13.8687 43.7285 13.6313C 43.8135 13.4225 43.9927 13.2325 44.1533 13.0712C 46.3062 10.8972 48.4685 8.73254 50.6309 6.56799C 50.6609 6.53174 50.6987 6.49927 50.7463 6.4585L 50.7495 6.45581C 50.7761 6.43323 50.8057 6.40808 50.8386 6.37817C 51.0393 6.52551 51.2458 6.67261 51.4382 6.80957L 51.4587 6.82422L 51.5657 6.90027C 50.0298 8.17236 48.6409 9.58362 47.2561 10.9907C 46.5635 11.6943 45.8718 12.397 45.1636 13.0807C 44.8142 13.4225 44.8049 13.8972 45.1069 14.2295C 45.4187 14.5712 45.9097 14.5902 46.2874 14.2295C 46.7124 13.8248 47.1274 13.41 47.5422 12.9951C 47.8184 12.7189 48.0947 12.4426 48.374 12.1693C 48.6482 11.896 48.9214 11.6221 49.1941 11.3484L 49.2129 11.3296L 49.2192 11.3231C 50.0281 10.5118 50.8357 9.7019 51.6697 8.91296C 52.5762 8.05859 53.2654 8.15344 53.9641 9.16931C 54.3323 9.70093 54.3323 10.1757 53.9358 10.6884C 53.7659 10.8972 53.5864 11.0966 53.3975 11.2864C 51.4885 13.2129 49.5688 15.134 47.6504 17.0538L 45.749 18.9573C 45.7095 18.993 45.6702 19.0272 45.6284 19.0631L 45.6235 19.0674L 45.6184 19.0718C 45.5637 19.1191 45.5046 19.1702 45.4375 19.2325C 45.1655 18.9183 44.8955 18.6078 44.627 18.2991ZM 11.2178 17.7421C 11.5955 18.2643 12.0015 18.4731 12.5869 18.4446C 13.324 18.4119 14.0652 18.4199 14.8049 18.4279L 14.8108 18.428C 15.1401 18.4316 15.4692 18.4352 15.7974 18.4352C 16.0396 18.4352 16.2822 18.4358 16.5251 18.4364C 17.2583 18.4381 17.9941 18.4398 18.7246 18.4257C 19.3855 18.4066 19.8484 18.1409 19.9143 17.6282C 19.9805 17.1534 19.9709 16.6503 19.8577 16.1852C 19.6877 15.5111 19.074 15.4825 18.5168 15.4825C 17.6233 15.4712 16.7263 15.4701 15.8301 15.469L 15.761 15.4689C 15.1841 15.4681 14.6072 15.4673 14.0317 15.4636C 12.3508 15.4541 11.0667 14.3529 10.8589 12.6914C 10.8145 12.3065 10.8257 11.913 10.8379 11.4962C 10.8438 11.2961 10.8496 11.0906 10.8496 10.8782C 9.76367 12.0839 8.68726 13.2991 7.60132 14.5427C 7.72241 14.6536 7.83862 14.7612 7.95117 14.866L 7.97632 14.8892C 8.33667 15.2239 8.66406 15.528 9.01782 15.8054C 9.23486 15.9763 9.53711 16.1091 9.80151 16.1091C 11.6191 16.1396 13.4368 16.1458 15.2544 16.1517L 16.6001 16.1566C 17.1572 16.1566 17.5161 16.4889 17.5161 16.9636C 17.5161 17.4384 17.1572 17.7516 16.5906 17.7516C 16.2759 17.7516 15.9612 17.7494 15.6465 17.7472L 15.5991 17.7468L 15.5518 17.7465C 15.2371 17.7443 14.9224 17.7421 14.6077 17.7421C 13.8799 17.7357 13.1482 17.7378 12.3984 17.7399L 12.385 17.7399C 12.0012 17.741 11.6128 17.7421 11.2178 17.7421ZM 16.084 6.58521L 16.4207 6.33069L 16.4207 9.1123L 12.738 9.1123C 13.8411 8.28052 14.9204 7.46472 16.084 6.58521Z"/>
<path id="path1_fill" d="M 22.2278 9.19959C 20.9247 10.5952 19.7255 11.8768 18.4885 13.1869C 18.9418 13.5762 19.3383 13.9369 19.7633 14.2692C 20.3865 14.7534 20.6792 15.3705 20.6414 16.1585C 20.6225 16.6616 20.632 17.1743 20.6414 17.6774C 20.6509 20.5066 20.6603 23.3357 20.6981 26.1743C 20.6981 26.4211 20.8303 26.7249 21.0002 26.9053C 23.3703 29.3167 25.7498 31.7091 28.1388 34.092C 28.6298 34.5762 28.8753 35.1268 28.8564 35.8198C 28.8375 37.1015 28.847 38.3831 28.847 39.6648C 28.847 40.4717 28.9225 40.5477 29.744 40.5477C 41.8305 40.5477 53.9169 40.5477 66.0034 40.5477C 66.3339 40.5477 66.6644 40.5382 66.9949 40.5477C 67.5614 40.5572 67.9108 40.88 67.9014 41.3547C 67.8919 41.8198 67.552 42.1236 67.0232 42.1426C 66.9005 42.1521 66.7683 42.1426 66.6455 42.1426C 54.323 42.1426 42.0005 42.1236 29.6779 42.1616C 28.016 42.1616 27.1757 41.1078 27.2418 39.7217C 27.2984 38.4781 27.2701 37.2249 27.2418 35.9717C 27.2418 35.7344 27.1662 35.4401 27.0151 35.2882C 25.0322 33.2566 23.0209 31.2534 21.0191 29.2407C 20.9436 29.1648 20.8586 29.0888 20.6981 28.9369C 20.6886 29.1838 20.6697 29.3641 20.6697 29.535C 20.6697 30.1996 20.632 30.8641 20.6886 31.5287C 20.7075 31.8135 20.8397 32.1553 21.038 32.3452C 22.2372 33.5129 23.4553 34.6521 24.6828 35.7819C 25.1927 36.2471 25.4571 36.7977 25.4477 37.4907C 25.4288 38.7059 25.4477 39.9306 25.4382 41.1458C 25.4382 41.7629 25.1361 42.1141 24.6451 42.1141C 24.1635 42.1141 23.8519 41.7344 23.8519 41.1363C 23.8519 39.9971 23.833 38.8578 23.8613 37.7186C 23.8708 37.3483 23.748 37.1015 23.4836 36.8547C 22.2466 35.7059 21.0286 34.5382 19.7916 33.3895C 19.31 32.9433 19.0739 32.4116 19.0739 31.7566C 19.0834 31.0445 19.0739 30.3325 19.0739 29.6205C 19.0645 25.1774 19.0456 20.7344 19.0362 16.2819C 19.0362 15.9116 18.9229 15.6553 18.6396 15.4274C 18.2052 15.0857 17.7992 14.7249 17.3271 14.3262C 16.8266 14.8103 16.3167 15.266 15.8352 15.7597C 15.7407 15.8547 15.7691 16.092 15.7691 16.2629C 15.7691 19.4907 15.7596 22.7186 15.7691 25.9464C 15.7691 26.6395 15.5519 27.1901 15.0514 27.6743C 13.7011 29.0034 12.3697 30.342 11.0478 31.7091C 10.8589 31.9085 10.7173 32.2502 10.7078 32.5255C 10.6701 33.8072 10.6795 35.0888 10.6984 36.3705C 10.7078 36.9591 10.5096 37.4338 10.0846 37.8515C 8.97042 38.9528 7.87509 40.0635 6.77975 41.1743C 6.23208 41.7344 5.5711 42.0097 4.78737 42.0002C 3.51263 42.0002 2.23788 42.0002 0.96314 42.0002C 0.358817 42.0002 0 41.6964 0 41.2028C 0 40.6996 0.349374 40.4053 0.96314 40.4053C 2.17179 40.4053 3.38988 40.3958 4.59852 40.4053C 5.05176 40.4148 5.41058 40.2724 5.73163 39.9401C 6.73254 38.9148 7.74289 37.8895 8.77213 36.8831C 9.01763 36.6363 9.11206 36.3895 9.10262 36.0477C 9.08373 34.8135 9.10262 33.5793 9.09317 32.3452C 9.08373 31.6806 9.30091 31.13 9.78248 30.6458C 11.1328 29.3167 12.4547 27.9591 13.7956 26.63C 14.0505 26.3831 14.1733 26.1268 14.1638 25.7566C 14.1544 23.1268 14.1544 20.5066 14.1544 17.8768C 14.1544 17.7249 14.1544 17.573 14.1544 17.3357C 13.89 17.5066 13.7011 17.6395 13.4934 17.7439C 12.417 18.323 11.3122 18.4084 10.2829 17.6964C 9.21593 16.9559 8.53606 15.9686 8.6777 14.5825C 8.75324 13.9084 9.07429 13.3388 9.54642 12.8831C 11.5105 10.9844 13.484 9.10465 15.4575 7.22491C 15.8163 6.88313 16.279 6.90212 16.6 7.21541C 16.9116 7.5287 16.9022 8.04136 16.5339 8.40212C 14.9759 9.90212 13.4084 11.3831 11.841 12.8736C 11.4633 13.2344 11.0856 13.5857 10.7267 13.9654C 10.1319 14.592 10.1035 15.1426 10.5757 15.7882C 11.1516 16.5667 11.8598 16.8325 12.568 16.4053C 13.0968 16.0825 13.5784 15.6458 14.0127 15.1996C 16.685 12.4749 19.3478 9.74073 22.0011 7.00655C 22.1333 6.86415 22.2278 6.6268 22.2372 6.42744C 22.275 5.76288 22.2655 5.09832 22.2655 4.43377C 22.2655 2.2787 23.7858 1.02554 25.9104 1.41478C 27.4306 1.69959 28.3465 2.75339 28.3937 4.30086C 28.441 5.99073 28.4787 7.6806 28.5165 9.37048C 28.5354 10.073 28.7903 10.4243 29.4796 10.5667C 29.7724 10.6236 30.0745 10.6616 30.3672 10.6331C 31.066 10.5667 31.4059 10.2629 31.4531 9.55086C 31.5192 8.59199 31.5287 7.62364 31.5192 6.66478C 31.5098 4.78503 31.472 2.90529 31.4437 1.01605C 31.4342 0.360982 31.7081 0.00971596 32.2369 0.000222291C 32.7562 -0.00927138 33.0206 0.285032 33.03 0.940096C 33.0584 3.72174 33.0961 6.50339 33.0867 9.28503C 33.0867 10.5097 32.6429 11.554 31.4154 12.0002C 30.0745 12.4844 28.7714 12.342 27.6667 11.3452C 27.1473 10.88 26.9396 10.2534 26.9301 9.56035C 26.8924 7.87048 26.8546 6.1806 26.8168 4.49073C 26.7885 3.1901 25.5893 2.50655 24.4468 3.12364C 23.9841 3.37048 23.8708 3.79769 23.8613 4.28187C 23.833 6.6363 23.8047 8.99073 23.7575 11.3452C 23.748 11.6015 23.6441 11.9528 23.4647 12.0857C 23.2664 12.2376 22.8699 12.2945 22.6527 12.1996C 22.4355 12.1047 22.2278 11.7629 22.1994 11.5066C 22.19 10.823 22.2278 10.0825 22.2278 9.19959Z"/>
<path id="path2_fill" fill-rule="evenodd" d="M 11.9573 13.7762C 12.6282 13.1515 13.3015 12.5242 13.9878 11.8883L 14.0083 11.9982C 14.0774 12.3647 14.1333 12.6613 13.884 12.8947L 13.1548 13.5951C 11.9431 14.7592 10.7295 15.9253 9.50269 17.0718C 9.2478 17.3092 8.89844 17.4801 8.56787 17.5845C 7.9729 17.7744 7.31201 17.3851 6.86816 16.6636C 6.5188 16.1035 6.56592 15.6383 7.02881 15.1067C 7.26465 14.8408 7.52905 14.5845 7.79346 14.3376C 8.64331 13.526 9.49316 12.7167 10.343 11.9073C 11.1929 11.098 12.0427 10.2887 12.8926 9.47693C 13.3081 9.07812 13.3364 8.62244 12.9963 8.26172C 12.6943 7.93896 12.1938 7.93896 11.8162 8.29968L 10.8599 9.20996C 9.20312 10.7867 7.54419 12.3657 5.90503 13.9579C 5.3479 14.5085 4.99854 15.1921 5.04565 15.999C 5.11182 17.3947 5.87671 18.3724 7.08545 18.9611C 8.31299 19.5592 9.46484 19.2269 10.4563 18.382C 11.0537 17.8721 11.6206 17.3209 12.187 16.7704C 12.3901 16.5728 12.5935 16.3751 12.7981 16.1794C 13.0293 15.9584 13.2637 15.7373 13.5198 15.4961C 13.6924 15.3333 13.875 15.1613 14.0728 14.9738L 14.0728 16.9104C 14.0728 17.347 14.0706 17.7815 14.0681 18.2158C 14.0657 18.6501 14.0635 19.0846 14.0635 19.5212C 14.0635 20.0054 14.3467 20.3281 14.781 20.3756C 15.187 20.4231 15.5364 20.1572 15.6213 19.7206C 15.6592 19.5212 15.6687 19.3218 15.6687 19.1129L 15.697 9.71423C 15.7063 9.4104 15.7346 9.10669 15.8103 8.82178C 16.0369 8.01489 16.7168 7.64465 17.6704 7.77759C 18.4541 7.89148 18.8318 8.33765 18.8508 9.22058C 18.8696 10.1224 18.8792 11.0244 18.8884 11.9263C 18.8979 13.7776 18.9075 15.6288 18.9075 17.4801C 18.9075 17.8503 19.002 18.1351 19.3418 18.306C 19.9272 18.6003 20.4937 18.1731 20.4937 17.4136C 20.4937 16.6699 20.4915 15.9263 20.4895 15.1826C 20.4854 13.6953 20.4812 12.2079 20.4937 10.7206C 20.4937 10.4927 20.6165 10.1984 20.7864 10.037C 22.3916 8.46106 24.0254 6.89465 25.6589 5.34717C 26.1877 4.85352 26.4897 4.25537 26.603 3.54333C 26.9336 1.48328 25.9705 0.078125 24.063 0.0306396C 22.1519 -0.0131836 20.2351 -0.000732422 18.3215 0.0115967C 17.7485 0.0153809 17.1758 0.019043 16.6035 0.0212402C 16.1692 0.0306396 15.8857 0.343994 15.8669 0.78064C 15.8386 1.35034 16.1501 1.61609 16.8679 1.61609L 23.6191 1.61609C 23.6594 1.61609 23.6995 1.61548 23.7395 1.61487C 23.8594 1.61316 23.978 1.61145 24.0913 1.62561C 24.7429 1.70154 25.0168 1.98645 25.0452 2.64148C 25.0544 2.80286 25.0544 2.95471 25.0452 3.11609C 25.0168 3.89465 24.7524 4.17944 23.978 4.18896C 21.4568 4.22693 18.9453 4.24585 16.4241 4.25537C 13.8308 4.26172 11.2419 4.25964 8.65137 4.25745C 7.35571 4.25647 6.05957 4.25537 4.76245 4.25537C 4.60815 4.25537 4.45557 4.24707 4.30371 4.23877C 4.09351 4.22729 3.88501 4.21582 3.67651 4.22693C 3.12891 4.24585 2.82666 4.56873 2.82666 5.04333C 2.82666 5.52759 3.13843 5.80286 3.69556 5.81238C 4.32275 5.81714 4.94751 5.82422 5.57227 5.83142C 6.18921 5.8385 6.80615 5.84558 7.42529 5.85034L 11.2024 5.85034C 11.3047 5.85034 11.4114 5.85901 11.5166 5.86755C 11.5667 5.8717 11.6162 5.87573 11.665 5.87878C 10.8152 6.16357 10.1636 6.67627 9.55933 7.26489C 8.70166 8.11304 7.8418 8.96118 6.98193 9.80933C 6.09961 10.6796 5.21753 11.5497 4.33765 12.4199C 4.09229 12.6586 3.84033 12.8972 3.57056 13.1527L 3.41211 13.3029C 3.39331 13.2675 3.37573 13.2367 3.36011 13.2091C 3.32129 13.1405 3.29346 13.0912 3.28003 13.037C 3.17676 12.6794 3.06738 12.3239 2.95825 11.9685C 2.72852 11.2203 2.49927 10.4739 2.32642 9.71423C 2.01465 8.34717 1.76929 6.96106 1.5708 5.57495C 1.4104 4.47375 1.85425 3.90405 2.94946 3.79016C 3.54419 3.72974 4.14258 3.72314 4.74243 3.71655C 5.08569 3.71277 5.42944 3.70911 5.77295 3.69519C 5.98999 3.68579 6.22607 3.66675 6.41504 3.5813C 6.7644 3.41992 6.91528 3.10669 6.83032 2.71741C 6.75488 2.36609 6.52832 2.10034 6.15063 2.10986C 5.86743 2.11438 5.58325 2.11621 5.29858 2.11804C 4.38696 2.1239 3.47119 2.12976 2.57178 2.22375C 1.00439 2.38513 0.0505371 3.4104 0.00341797 4.99585C -0.0249023 5.94519 0.126221 6.91357 0.296143 7.85352C 0.664307 9.9231 1.13647 11.9642 1.89185 13.939C 2.50562 15.5338 3.64819 15.3345 4.51709 14.4801L 4.68701 14.3092C 5.14258 13.8583 5.59814 13.4062 6.05396 12.9539C 7.41235 11.606 8.77319 10.2555 10.1448 8.92627C 10.6453 8.45154 11.1741 7.97693 11.7595 7.63513C 12.4299 7.24585 13.1379 7.56873 13.6763 8.34717C 14.1294 9.0022 14.0918 9.52441 13.4968 10.1224C 13.2195 10.408 12.9282 10.6749 12.6362 10.9427C 12.5105 11.0579 12.3848 11.1731 12.2598 11.2902C 11.7214 11.7931 11.1829 12.2942 10.6421 12.7976C 9.97827 13.4155 9.31055 14.037 8.63403 14.6699C 8.97607 15.031 9.29468 15.3763 9.62524 15.7345L 9.72925 15.8472C 10.4778 15.1544 11.2158 14.4668 11.9573 13.7762ZM 12.9871 5.86926L 22.7791 5.86926C 21.9292 6.67627 21.1455 7.42627 20.324 8.23315C 19.9368 7.01794 19.1057 6.37244 17.916 6.21106C 16.7642 6.05908 15.7161 6.26794 14.8945 7.16992C 14.7847 7.07666 14.6797 6.97961 14.5759 6.88391C 14.3948 6.71643 14.218 6.55286 14.0256 6.41992C 13.8391 6.2887 13.6282 6.18616 13.387 6.06921C 13.262 6.00842 13.1289 5.94385 12.9871 5.86926Z"/>
<path id="path3_fill" d="M 14.582 14.3007C 14.9502 14.7754 15.2902 14.9748 15.8095 14.9653C 17.1315 14.9178 18.4534 14.9463 19.7754 14.9273C 20.2475 14.9178 20.7574 14.9463 20.9463 14.3672C 21.1634 13.6931 21.2484 12.9906 20.748 12.44C 20.5497 12.2121 20.0964 12.1267 19.7565 12.1172C 17.9907 12.0887 16.2344 12.0697 14.4687 12.1362C 13.0806 12.1836 11.6265 11.3197 11.6831 9.23112C 11.7209 7.71213 12.5141 6.5634 13.751 6.28808C 14.2326 6.18365 14.752 6.23112 15.2524 6.21213C 16.2155 6.19314 17.1692 6.18365 18.1324 6.15517C 18.4157 6.14567 18.529 6.24061 18.5195 6.53491C 18.5006 6.91466 18.5195 7.29441 18.5195 7.73112C 18.0663 7.7596 17.6225 7.79757 17.1787 7.79757C 16.3005 7.81656 15.4129 7.81656 14.5348 7.81656C 13.9116 7.81656 13.5527 8.0539 13.4017 8.6615C 13.3167 9.00327 13.3072 9.38302 13.345 9.73428C 13.4111 10.2564 13.7322 10.5128 14.2515 10.5128C 15.9795 10.5223 17.7169 10.5033 19.4449 10.5128C 19.9265 10.5128 20.4269 10.5412 20.8896 10.6647C 21.9661 10.9685 22.5987 11.8514 22.6742 13.133C 22.7026 13.5982 22.6648 14.0824 22.5704 14.5476C 22.2965 15.8197 21.4467 16.4938 20.0492 16.5223C 18.4157 16.5602 16.7727 16.5697 15.1391 16.5317C 14.7897 16.5223 14.3837 16.3039 14.1004 16.0666C 12.4385 14.6615 10.805 13.228 9.16196 11.7944C 8.35935 11.0919 7.61338 11.1299 7.00906 11.9178C 6.56526 12.4969 6.60303 13.0286 7.18847 13.5982C 8.17994 14.5666 9.19029 15.5159 10.2006 16.4748C 10.7105 16.9685 11.2299 17.4526 11.7398 17.9463C 12.1741 18.364 12.2119 18.8387 11.8625 19.1995C 11.5509 19.5223 11.0505 19.5033 10.6444 19.1235C 9.13363 17.69 7.61338 16.2659 6.12146 14.8134C 4.79006 13.5223 4.76173 11.9748 6.00815 10.6172C 6.06481 10.5602 6.11202 10.5033 6.197 10.4178C 6.11202 10.3419 6.03648 10.2754 5.9515 10.2185C 5.00724 9.60137 4.60121 8.69947 4.60121 7.6077C 4.60121 6.08871 4.64842 4.56973 4.66731 3.05074C 4.67675 2.47162 4.53511 1.95897 3.94023 1.75011C 3.25093 1.50327 2.51441 1.43681 1.94786 1.99694C 1.73068 2.21529 1.62681 2.652 1.61737 2.98428C 1.60792 5.0539 1.63625 7.12352 1.65514 9.20264C 1.65514 9.34504 1.66458 9.48745 1.65514 9.62985C 1.62681 10.0476 1.34353 10.3419 0.937503 10.3799C 0.550358 10.4178 0.172656 10.171 0.125444 9.75327C 0.0593457 9.1077 0.0593457 8.46213 0.0499031 7.81656C 0.0310181 6.23112 0.0593457 4.65517 0.00269041 3.06973C -0.0634074 1.35137 1.08858 -0.205591 3.43978 0.022257C 5.3755 0.21213 6.25366 1.22795 6.24422 3.19314C 6.23477 4.64567 6.20644 6.09821 6.18756 7.56023C 6.17812 8.54757 6.72578 9.1077 7.69837 9.07922C 7.96276 9.06973 8.23659 9.03175 8.49154 8.97479C 9.10531 8.82289 9.3697 8.5096 9.38858 7.86403C 9.40747 6.96213 9.39803 6.06023 9.38858 5.15833C 9.37914 4.12352 9.80406 3.66783 10.8239 3.67732C 14.176 3.7058 17.5281 3.73428 20.8707 3.77226C 21.5978 3.78175 22.051 4.21846 22.051 4.95897C 22.051 6.2596 22.051 7.55074 22.0322 8.85137C 22.0227 9.57289 21.5506 10.0191 20.8235 10.0191C 19.105 10.0286 17.3959 10.0191 15.6773 10.0191C 15.1108 10.0191 14.7708 9.7153 14.7708 9.22162C 14.7708 8.72795 15.1108 8.42416 15.6868 8.42416C 17.2448 8.41466 18.8028 8.42416 20.408 8.42416C 20.408 7.40833 20.408 6.43048 20.408 5.3577C 17.3109 5.3577 14.1854 5.3577 10.9844 5.3577C 10.9844 5.52859 10.9844 5.75643 10.9844 5.98428C 10.9844 6.66783 10.9938 7.34188 10.9655 8.02542C 10.9277 8.92732 10.6067 9.48745 9.7474 10.2185C 10.6728 11.0254 11.5981 11.8324 12.533 12.6204C 12.6557 12.7248 12.8823 12.7248 13.0617 12.7248C 14.7331 12.7343 16.395 12.7343 18.0663 12.7248C 18.4818 12.7248 18.8217 12.8387 18.9728 13.2564C 19.1711 13.7976 18.8028 14.3102 18.1985 14.3197C 17.1881 14.3387 16.1872 14.3292 15.1769 14.3292C 15.0163 14.3007 14.8558 14.3007 14.582 14.3007Z"/>
<path id="path4_fill" d="M 5.59943 8.91503C 5.89215 7.18718 6.17543 5.45933 6.46815 3.73148C 6.64755 2.6587 6.84585 1.58591 6.99693 0.503635C 7.05358 0.133382 7.19522 -0.00902346 7.57292 0.000470209C 8.56439 0.0194575 9.55586 0.0194575 10.5473 0.000470209C 10.925 -0.00902346 11.0761 0.123888 11.0761 0.522622C 11.0667 4.81376 11.0667 9.09541 11.0761 13.3865C 11.0761 13.7758 10.9156 13.9372 10.5473 13.9277C 10.0941 13.9182 9.6314 13.9277 9.17816 13.9277C 8.63993 13.9182 8.53606 13.8233 8.54551 13.2916C 8.58328 10.1017 8.62105 6.90237 8.65882 3.7125C 8.65882 3.65553 8.66826 3.59857 8.56439 3.52262C 8.46052 4.09224 8.34721 4.67136 8.24334 5.24098C 7.77122 7.96566 7.28965 10.6809 6.82696 13.415C 6.76086 13.8233 6.56257 13.9467 6.19431 13.9372C 5.78828 13.9277 5.37281 13.9087 4.96678 13.9372C 4.5041 13.9657 4.29636 13.7853 4.22082 13.3106C 3.85256 11.0701 3.44653 8.82958 3.05939 6.58908C 2.89886 5.6587 2.73834 4.71882 2.57782 3.78844C 2.55893 3.703 2.52116 3.61756 2.39841 3.54161C 2.41729 3.80743 2.45506 4.07326 2.45506 4.32958C 2.47395 6.18085 2.49283 8.03212 2.50228 9.88338C 2.51172 11.0226 2.49283 12.1619 2.51172 13.3011C 2.52116 13.7473 2.37008 13.9467 1.91684 13.9277C 1.47304 13.9087 1.03868 13.9087 0.594881 13.9277C 0.188851 13.9372 0 13.7948 0 13.3486C 0.00944255 9.07642 0.00944255 4.80427 0 0.532116C 0 0.152369 0.113311 -0.00902346 0.51934 0.000470209C 1.51081 0.0194575 2.50228 0.0194575 3.49374 0.000470209C 3.87144 -0.00902346 4.02253 0.133382 4.07918 0.503635C 4.51354 3.19984 4.96678 5.89604 5.41058 8.59224C 5.42947 8.69667 5.46724 8.8011 5.49556 8.90553C 5.53333 8.90553 5.56166 8.91503 5.59943 8.91503Z"/>
<path id="path5_fill" d="M 5.45779 7.67231C 5.42947 7.15016 5.36337 6.61851 5.36337 6.09636C 5.35393 4.27358 5.35393 2.46029 5.36337 0.637502C 5.36337 0.0394011 5.41058 0.00142643 6.0149 0.00142643C 6.43982 0.00142643 6.86473 0.00142643 7.28965 0.00142643C 7.84676 0.00142643 7.90341 0.0583885 7.90341 0.637502C 7.90341 3.74193 7.90341 6.83687 7.90341 9.9413C 7.90341 11.0616 7.89397 12.1913 7.91286 13.3116C 7.9223 13.7672 7.73345 13.9381 7.29909 13.9286C 6.76086 13.9097 6.23208 13.9097 5.69386 13.9286C 5.31615 13.9476 5.13675 13.7767 5.02344 13.416C 4.24915 10.9666 3.44653 8.51725 2.65336 6.07738C 2.62503 5.99193 2.58726 5.897 2.45506 5.81155C 2.45506 5.96345 2.45506 6.10586 2.45506 6.25776C 2.48339 8.64067 2.50228 11.0331 2.54005 13.416C 2.54949 13.7578 2.38896 13.9191 2.06792 13.9191C 1.54858 13.9286 1.02924 13.9191 0.509898 13.9191C 0.160523 13.9191 0 13.7672 0 13.397C 0.00944255 9.09636 0.00944255 4.79573 0 0.495097C 0 0.124844 0.160523 -0.00806724 0.51934 0.00142643C 1.11422 0.0204138 1.71854 0.0299074 2.31342 0.00142643C 2.70057 -0.0175609 2.87053 0.153325 2.98385 0.495097C 3.71092 2.71662 4.44744 4.92864 5.18396 7.14067C 5.25006 7.33054 5.3256 7.51092 5.3917 7.70079C 5.41058 7.68181 5.43891 7.67231 5.45779 7.67231Z"/>
<path id="path6_fill" d="M 8.07924 10.7005C 8.60802 10.7005 9.00461 10.691 9.39176 10.7005C 9.96775 10.7195 10.2888 11.0233 10.2888 11.517C 10.2888 12.0297 9.98663 12.2955 9.38231 12.2955C 7.58823 12.2955 5.79414 12.2955 4.00006 12.2955C 3.59403 12.2955 3.17856 12.3145 2.77253 12.3524C 2.01712 12.4284 1.64887 12.9031 1.60165 13.8145C 1.56388 14.574 1.83772 15.0012 2.58368 15.1436C 3.17856 15.248 3.80177 15.2955 4.40609 15.305C 6.03965 15.3335 7.67321 15.324 9.31621 15.324C 9.92054 15.324 10.2794 15.6088 10.2888 16.1119C 10.2982 16.6436 10.0055 16.9284 9.36343 16.9189C 7.19164 16.8999 5.01985 16.8904 2.85751 16.805C 1.76218 16.7575 0.761266 16.3588 0.298581 15.248C -0.192432 14.0613 -0.0791213 12.8841 0.647955 11.8208C 1.11064 11.1372 1.81883 10.8145 2.62145 10.767C 3.52793 10.71 4.44386 10.7385 5.35034 10.6816C 5.58641 10.6721 5.87913 10.5676 6.03965 10.4062C 8.01314 8.45054 9.96775 6.48535 11.9318 4.52016C 11.9885 4.4632 12.0451 4.40624 12.1018 4.34927C 12.9799 3.42839 12.9327 2.66889 11.9318 1.88092C 11.5163 1.55813 11.1009 1.50117 10.6759 1.79548C 10.2888 2.0613 9.93942 2.38408 9.59949 2.71636C 8.16422 4.13092 6.72896 5.55497 5.30313 6.98851C 5.00097 7.28282 4.66104 7.40624 4.28334 7.19737C 3.93396 7.017 3.80177 6.69421 3.89619 6.31446C 3.93396 6.15307 4.03783 5.99168 4.15114 5.87775C 5.72805 4.29231 7.31439 2.70687 8.91018 1.13092C 9.59005 0.466362 10.3455 -0.0273087 11.3652 0.00117236C 13.4521 0.0581344 14.9912 2.69737 13.9714 4.52016C 13.7637 4.89041 13.4898 5.22269 13.1877 5.52649C 11.6391 7.10244 10.0811 8.6594 8.52304 10.2259C 8.40029 10.3493 8.28698 10.4727 8.07924 10.7005Z"/>
<path id="path7_fill" d="M 3.76926 9.21911C 2.79668 9.21911 1.81465 9.2286 0.842071 9.21911C 0.379386 9.20961 0.0677823 8.95328 0.011127 8.53556C -0.0455283 8.14632 0.114995 7.84252 0.473812 7.69062C 0.624893 7.62417 0.813744 7.62417 0.983709 7.62417C 2.61727 7.61468 4.26027 7.59569 5.89383 7.60518C 6.27154 7.60518 6.38485 7.48176 6.3754 7.11151C 6.35652 6.3805 6.35652 5.65898 6.3754 4.92797C 6.42262 2.82987 7.88621 1.61468 9.95413 1.95645C 11.701 2.24126 12.6736 3.42797 12.683 5.31721C 12.6925 6.85518 12.683 8.38366 12.7114 9.92164C 12.7302 10.833 13.1268 11.1843 14.09 11.2223C 15.0437 11.2602 15.4686 10.928 15.5819 10.0451C 15.6102 9.8267 15.6197 9.60835 15.6197 9.3805C 15.6008 6.57986 15.5819 3.77923 15.5536 0.988093C 15.5536 0.551384 15.6574 0.200118 16.1012 0.0482197C 16.6678 -0.141654 17.1399 0.247587 17.1399 0.893156C 17.1682 3.69379 17.1871 6.49442 17.1966 9.28556C 17.1966 9.74126 17.1871 10.2064 17.0927 10.6526C 16.7528 12.2191 15.4119 13.0356 13.6651 12.7887C 11.9843 12.5514 11.1628 11.6685 11.1061 9.94063C 11.0589 8.48809 11.0872 7.03556 11.0778 5.58303C 11.0778 5.29822 11.0589 5.01341 11.0211 4.73809C 10.8984 3.93113 10.1619 3.45645 9.16096 3.5229C 8.36778 3.57987 7.99008 3.98809 7.9712 4.871C 7.95231 5.7729 7.95231 6.6748 7.95231 7.5767C 7.95231 8.76341 7.53684 9.19063 6.3754 9.19063C 5.50669 9.19063 4.64742 9.19063 3.7787 9.19063C 3.76926 9.20961 3.76926 9.21911 3.76926 9.21911Z"/>
<path id="path8_fill" d="M 6.14993 15.1526C 5.85721 15.4564 5.54561 15.7507 5.29066 16.083C 5.16791 16.2444 5.11125 16.4817 5.11125 16.6906C 5.09237 17.9248 5.10181 19.1589 5.10181 20.3931C 5.10181 21.0102 4.91296 21.5324 4.46916 21.9691C 3.45881 22.9659 2.46734 23.9817 1.46643 24.9881C 1.04151 25.4153 0.569386 25.4532 0.229454 25.102C -0.110478 24.7602 -0.0727076 24.276 0.342764 23.8488C 1.27758 22.9089 2.20295 21.9596 3.1472 21.0292C 3.41159 20.7634 3.5249 20.4786 3.5249 20.1083C 3.50602 18.8931 3.5249 17.6684 3.51546 16.4532C 3.51546 15.8646 3.70431 15.3805 4.11978 14.9627C 4.73355 14.3551 5.33787 13.7191 5.96108 13.121C 6.19714 12.8931 6.29157 12.6653 6.29157 12.333C 6.28213 8.64945 6.28213 4.9659 6.28213 1.27287C 6.28213 1.14945 6.28213 1.01654 6.28213 0.89312C 6.31046 0.342487 6.65039 -0.0182723 7.12251 0.00071502C 7.5852 0.0197024 7.86848 0.361475 7.87792 0.912107C 7.88736 2.36464 7.87792 3.82666 7.87792 5.2792C 7.87792 11.6494 7.87792 18.0292 7.87792 24.3994C 7.87792 24.5703 7.88736 24.7507 7.86848 24.9216C 7.82126 25.3203 7.5852 25.5482 7.19805 25.5957C 6.81091 25.6431 6.49931 25.4912 6.37655 25.1115C 6.30101 24.8931 6.30101 24.6463 6.30101 24.4089C 6.29157 21.5134 6.30101 18.6178 6.30101 15.7222C 6.30101 15.5513 6.30101 15.3805 6.30101 15.2096C 6.24436 15.2001 6.19714 15.1811 6.14993 15.1526Z"/>
<path id="path9_fill" d="M 3.72505 13.9276C 2.7147 13.9276 1.71379 13.9276 0.703434 13.9276C 0.117996 13.9276 0.108553 13.8422 0.0330129 13.282C -0.146395 11.9529 0.439043 10.8611 0.977268 9.74089C 2.11037 7.39595 3.18682 5.03203 4.33881 2.69659C 4.61265 2.14595 4.32937 1.88963 3.81947 1.91811C 3.00742 1.94659 2.18591 1.90861 1.36441 1.9276C 0.94894 1.93709 0.807302 1.75671 0.816744 1.35798C 0.83563 -0.236956 0.675106 0.0193726 2.12926 0.00987894C 3.68728 0.000385265 5.2453 0.0193726 6.80332 0.000385264C 7.25656 -0.00910841 7.37932 0.161778 7.40764 0.60798C 7.48318 1.60482 7.21879 2.48773 6.79388 3.37064C 5.53802 5.9719 4.33882 8.59216 3.12073 11.2124C 2.84689 11.8105 2.95076 11.9719 3.61174 11.9719C 4.67875 11.9719 5.7552 11.9814 6.82221 11.9624C 7.24712 11.9529 7.43597 12.1143 7.3982 12.551C 7.37932 12.7979 7.37932 13.0542 7.3982 13.3105C 7.43597 13.7662 7.23768 13.9371 6.79388 13.9371C 5.77408 13.9181 4.75429 13.9276 3.72505 13.9276Z"/>
<path id="path10_fill" d="M 2.52116 6.97914C 2.52116 9.08674 2.52116 11.1848 2.52116 13.2924C 2.52116 13.8431 2.44562 13.919 1.90739 13.9285C 1.45415 13.938 0.991468 13.9285 0.538225 13.9285C 0.179408 13.9285 0 13.7956 0 13.3969C 0.00944255 9.10572 0.00944255 4.82408 0 0.53294C 0 0.1437 0.141638 -0.00819908 0.528783 0.00129459C 1.0198 0.0202819 1.50137 0.0202819 1.99238 0.00129459C 2.41729 -0.0176927 2.5306 0.172181 2.5306 0.570915C 2.51172 2.70699 2.52116 4.84307 2.52116 6.97914Z"/>
<path id="path11_fill" d="M 1.07349e-14 6.99158C 1.07349e-14 4.88398 1.07349e-14 2.78588 1.07349e-14 0.678286C 1.07349e-14 0.0517033 0.0377702 0.0137286 0.670421 0.0137286C 1.09534 0.0137286 1.52025 0.0422097 1.94516 0.00423497C 2.41729 -0.0337397 2.54949 0.184615 2.54005 0.621324C 2.52116 1.97892 2.5306 3.33651 2.5306 4.7036C 2.5306 7.5517 2.5306 10.3998 2.5306 13.2384C 2.5306 13.8365 2.44562 13.922 1.86018 13.9314C 1.45415 13.9314 1.03868 13.9314 0.632651 13.9314C 0.0755404 13.922 0 13.8555 0 13.2954C 1.07349e-14 11.1973 1.07349e-14 9.08968 1.07349e-14 6.99158Z"/>
<path id="path12_fill" d="M 0.718389 3.03797C 0.718389 5.65823 0.718389 8.26899 0.718389 10.8797C 0.718389 11.0222 0.756159 11.193 0.690061 11.2975C 0.623964 11.4114 0.472883 11.5253 0.35013 11.5348C 0.255704 11.5443 0.104623 11.4114 0.0479681 11.307C -0.00868715 11.193 0.010198 11.0316 0.010198 10.8892C 0.010198 7.49051 0.010198 4.08228 0.010198 0.683544C 0.010198 0.607595 -0.0181297 0.512658 0.0196405 0.446203C 0.114066 0.28481 0.236819 0.142405 0.340687 0C 0.482325 0.123418 0.699504 0.218354 0.746717 0.360759C 0.954453 1.12025 1.11498 1.88924 1.29438 2.65823C 1.70041 4.41456 2.10644 6.16139 2.51247 7.91772C 2.5408 8.04114 2.58801 8.15506 2.63523 8.31646C 2.63523 5.74367 2.63523 3.21835 2.63523 0.702532C 2.63523 0.560127 2.59746 0.398734 2.66355 0.28481C 2.72965 0.170886 2.87129 0.0379747 2.99404 0.028481C 3.08847 0.0189873 3.24899 0.151899 3.2962 0.256329C 3.35286 0.389241 3.34342 0.560127 3.34342 0.721519C 3.34342 4.11076 3.34342 7.49051 3.34342 10.8797C 3.34342 10.9557 3.37175 11.0506 3.33398 11.1171C 3.23955 11.2785 3.12624 11.4209 3.02237 11.5728C 2.89018 11.4494 2.673 11.3449 2.63523 11.193C 2.38972 10.2437 2.18198 9.28481 1.96481 8.33544C 1.5871 6.65506 1.2094 4.98418 0.822257 3.3038C 0.803372 3.19937 0.756159 3.12342 0.718389 3.03797Z"/>
<path id="path13_fill" d="M 0.671176 3.16139C 0.671176 3.37025 0.671176 3.57911 0.671176 3.78797C 0.671176 6.20886 0.680619 8.62975 0.680619 11.0506C 0.680619 11.1741 0.680619 11.3259 0.623964 11.4114C 0.567308 11.4968 0.406785 11.5633 0.31236 11.5443C 0.217934 11.5348 0.0857383 11.4304 0.0479681 11.3354C 0.000755403 11.193 0.010198 11.0222 0.010198 10.8703C 0.010198 7.48101 0.010198 4.10127 0.010198 0.712025C 0.010198 0.636076 -0.0181297 0.541139 0.0196405 0.474684C 0.104623 0.313291 0.208491 0.161392 0.31236 0.00949367C 0.46344 0.142405 0.699504 0.246835 0.746717 0.398734C 0.973338 1.25316 1.15275 2.11709 1.35104 2.98101C 1.72874 4.61392 2.10644 6.23734 2.48415 7.87025C 2.51247 8.00316 2.55969 8.13608 2.673 8.25949C 2.65411 7.89873 2.62578 7.53797 2.62578 7.17722C 2.62578 5.01266 2.62578 2.83861 2.62578 0.674051C 2.62578 0.579114 2.58801 0.46519 2.63523 0.389241C 2.72021 0.246835 2.85241 0.123418 2.96572 0C 3.08847 0.132911 3.22066 0.265823 3.32453 0.417722C 3.37175 0.484177 3.33398 0.598101 3.33398 0.693038C 3.33398 4.08228 3.33398 7.46203 3.33398 10.8513C 3.33398 10.9272 3.3623 11.0222 3.32453 11.0886C 3.23955 11.25 3.12624 11.4019 3.03181 11.5538C 2.89018 11.4209 2.66355 11.307 2.61634 11.1551C 2.34251 10.0728 2.10644 8.97152 1.85149 7.87975C 1.52101 6.43671 1.19996 4.98418 0.86947 3.53165C 0.841142 3.39873 0.793929 3.26582 0.756159 3.14241C 0.718389 3.16139 0.699504 3.16139 0.671176 3.16139Z"/>
<path id="path14_fill" fill-rule="evenodd" d="M 0 2.09875L 0 5.9342C 0 7.0354 0 8.14624 0.00952148 9.25696C 0.0114746 9.35706 0.0126953 9.45715 0.013916 9.55725C 0.0178223 9.91284 0.0219727 10.2684 0.0661621 10.624C 0.179443 11.5165 0.623291 11.9056 1.4541 11.9056C 2.28516 11.9056 2.729 11.5165 2.85156 10.6335C 2.8894 10.3772 2.89893 10.1019 2.89893 9.83606L 2.89893 2.06079C 2.89893 1.79492 2.87988 1.52905 2.84229 1.26331C 2.71948 0.399414 2.28516 0.0101318 1.47314 0.000610352C 0.651611 -0.0183105 0.188965 0.389893 0.0566406 1.25378C 0.0187988 1.52905 0 1.81396 0 2.09875ZM 2.19995 3.94055L 2.19995 5.98169L 2.19995 9.86462C 2.19995 10.0829 2.19067 10.3108 2.17163 10.5292C 2.12451 11.0513 1.89795 11.2792 1.44458 11.2697C 0.991455 11.2601 0.783691 11.0323 0.736328 10.5006L 0.735596 10.4863C 0.726562 10.3013 0.717529 10.1162 0.717529 9.93103L 0.717529 1.96582C 0.717529 1.78064 0.726562 1.59534 0.735596 1.41016L 0.736328 1.39624C 0.783691 0.845581 1.01025 0.589233 1.4729 0.598755C 1.90723 0.608276 2.15283 0.845581 2.17163 1.3772C 2.19995 2.23169 2.19995 3.08606 2.19995 3.94055Z"/>
<path id="path15_fill" fill-rule="evenodd" d="M 2.84546 7.26501C 2.84375 6.8407 2.84229 6.41602 2.84229 5.9906C 2.84229 5.55139 2.84375 5.11304 2.84546 4.67517C 2.84912 3.57971 2.85303 2.48779 2.83276 1.39575C 2.81396 0.493774 2.28516 0.00964355 1.4353 0.00012207C 0.575928 -0.00939941 0.0849609 0.465332 0.0187988 1.36719L 0.0168457 1.40222C 0.00830078 1.55066 0 1.69226 0 1.84192L 0 10.054C 0 10.2913 0.00952148 10.5286 0.0378418 10.766C 0.122803 11.4401 0.585449 11.8672 1.26538 11.9147C 2.22852 11.9812 2.81396 11.459 2.83276 10.4526C 2.85303 9.38757 2.84912 8.32739 2.84546 7.26501ZM 2.17163 1.85144L 2.17163 5.9812L 2.17163 10.054C 2.17163 10.2914 2.15283 10.5287 2.10571 10.7565C 2.03955 11.0983 1.82227 11.2692 1.4729 11.2787C 1.11401 11.2882 0.849854 11.1648 0.764648 10.7946C 0.717529 10.5667 0.689209 10.3293 0.689209 10.0919C 0.679688 7.32935 0.679688 4.55713 0.689209 1.79456C 0.689209 1.55713 0.717529 1.31982 0.77417 1.09192C 0.849854 0.750244 1.09521 0.607788 1.43506 0.607788C 1.77515 0.607788 2.02051 0.769165 2.09619 1.10144C 2.15283 1.33875 2.17163 1.60461 2.17163 1.85144Z"/>
<path id="path16_fill" fill-rule="evenodd" d="M 0.00415039 0.655273L 0.00415039 5.72485C 0.00415039 6.23364 0.00317383 6.74353 0.00219727 7.25415C 0 8.27734 -0.00195312 9.30334 0.00415039 10.3293C 0.0090332 11.048 -0.0361328 11.3539 0.09375 11.4814C 0.2229 11.6083 0.525391 11.5587 1.22217 11.5635C 2.29883 11.573 2.82764 11.0983 2.83691 10.035C 2.86523 7.39575 2.88428 4.75659 2.84644 2.11731C 2.81812 0.294556 2.44971 -0.00927734 0.636963 0.000244141C 0.0324707 0.000244141 0.00415039 0.0286865 0.00415039 0.655273ZM 0.684082 3.83569L 0.684082 0.645752C 1.69434 0.427368 2.15723 0.740723 2.1665 1.69958C 2.19482 4.39575 2.18555 7.10144 2.1665 9.79773C 2.1665 10.6141 1.9021 10.9369 1.37329 10.9939C 0.854004 11.0508 0.684082 10.8989 0.684082 10.3768L 0.684082 3.83569Z"/>
<path id="path17_fill" d="M 0.00236064 5.34162C 0.00236064 3.75618 -0.00708191 2.18023 0.0118032 0.594783C 0.0118032 0.414404 0.077901 0.167568 0.200654 0.0631378C 0.40839 -0.117242 0.672782 0.110606 0.672782 0.471366C 0.682224 1.58213 0.672782 2.68339 0.672782 3.79415C 0.672782 5.75934 0.672782 7.71504 0.672782 9.68023C 0.672782 9.92706 0.691667 10.1834 0.738879 10.4302C 0.833305 10.9429 1.05048 11.1233 1.53205 11.1233C 1.99474 11.1233 2.2308 10.9144 2.30634 10.4112C 2.35356 10.0695 2.38188 9.7182 2.38188 9.37643C 2.39133 6.49985 2.38188 3.61377 2.38188 0.737188C 2.38188 0.594783 2.34411 0.433391 2.40077 0.319467C 2.45742 0.196049 2.59906 0.0441505 2.70293 0.0441505C 2.81624 0.0441505 2.94844 0.186556 3.02398 0.309973C 3.08063 0.385923 3.0523 0.528328 3.0523 0.632758C 3.04286 3.76567 3.0523 6.89858 3.02398 10.0315C 3.01453 11.3701 2.13638 12.0536 0.974943 11.6739C 0.389505 11.484 0.0401308 11.0093 0.0306883 10.2404C 0.0118032 8.60744 0.0212457 6.98402 0.0212457 5.35111C 0.0212457 5.34162 0.0118032 5.34162 0.00236064 5.34162Z"/>
<path id="path18_fill" fill-rule="evenodd" d="M 3.40356 10.9456C 3.39819 10.9254 3.39258 10.905 3.38965 10.8846L 3.39917 10.8846C 3.34424 10.4585 3.29199 10.0298 3.23975 9.59973C 3.19287 9.21545 3.146 8.83008 3.09692 8.4447L 3.09546 8.43237C 2.7749 5.78784 2.45435 3.14307 2.12427 0.498535C 2.09595 0.242188 2.03931 -0.0710449 1.69946 0.0144043C 1.53882 0.0617676 1.35962 0.327637 1.3313 0.508057C 1.19751 1.4032 1.0874 2.30444 0.977539 3.20215L 0.887451 3.93518L 0.00927734 11.027C -0.019043 11.2833 -0.000244141 11.5302 0.330322 11.5492C 0.651367 11.5681 0.717529 11.3499 0.736328 11.084C 0.758301 10.8551 0.781006 10.6262 0.803955 10.3973C 0.850342 9.93311 0.896729 9.46899 0.93457 9.00488C 0.962891 8.60608 1.13281 8.41626 1.55786 8.41626C 2.33203 8.41626 2.41699 8.4447 2.48315 8.96692C 2.56812 9.69788 2.6438 10.4384 2.71924 11.179C 2.74756 11.4542 2.89868 11.6251 3.14404 11.5302C 3.23706 11.4941 3.29761 11.3436 3.35449 11.2025C 3.37256 11.1575 3.39014 11.1135 3.40845 11.0745C 3.42798 11.0349 3.41602 10.991 3.40356 10.9456ZM 1.69946 2.62512L 1.7561 2.62512C 1.8457 3.42261 1.93799 4.22009 2.03003 5.01758C 2.12207 5.81494 2.21436 6.61243 2.30396 7.40991C 2.35107 7.84668 2.06787 7.89417 1.7373 7.89417C 1.39746 7.89417 1.07642 7.8656 1.12354 7.40039C 1.21265 6.54004 1.3186 5.68811 1.42554 4.82861L 1.44458 4.67578L 1.69946 2.62512Z"/>
<path id="path19_fill" d="M 0.00419669 3.77848C 0.00419669 2.82911 0.00419669 1.87975 0.00419669 0.93038C 0.00419669 0.313291 0.287473 0 0.825698 0C 1.32615 0.00949367 1.59054 0.303797 1.59054 0.920886C 1.59999 2.83861 1.59999 4.74684 1.59054 6.66456C 1.59054 7.29114 1.30727 7.62342 0.797371 7.62342C 0.287473 7.62342 0.00419669 7.29114 0.00419669 6.66456C -0.00524586 5.7057 0.00419669 4.73734 0.00419669 3.77848Z"/>
<path id="path20_fill" d="M 0.00419669 3.78817C 0.00419669 2.83881 -0.00524586 1.88944 0.00419669 0.940071C 0.0136392 0.322983 0.306358 -0.00929573 0.816256 0.000197938C 1.30727 0.00969161 1.59054 0.332476 1.59054 0.930578C 1.59054 2.85779 1.59999 4.78501 1.59054 6.71222C 1.59054 7.30083 1.29783 7.62362 0.797371 7.62362C 0.306358 7.62362 0.00419669 7.30083 0.00419669 6.72172C -0.00524586 5.75336 0.00419669 4.77551 0.00419669 3.78817Z"/>
<path id="path21_fill" d="M 0 3.82613C 0 2.86727 0 1.89892 0 0.940056C 0 0.351449 0.292719 0.0096766 0.764846 0.000182932C 1.23697 -0.00931074 1.57691 0.351449 1.58635 0.911575C 1.59579 2.83879 1.59579 4.76601 1.58635 6.69322C 1.58635 7.25335 1.23697 7.59512 0.755404 7.57613C 0.283276 7.55714 0.00944255 7.24385 0.00944255 6.67423C 0 5.72487 0 4.7755 0 3.82613Z"/>
<path id="path22_fill" d="M 0.00616656 3.62679C 0.00616656 2.72489 0.00616656 1.82299 0.00616656 0.921096C 0.00616656 0.332488 0.289443 0.00970324 0.780456 0.00020957C 1.28091 -0.0092841 1.58307 0.304007 1.58307 0.892615C 1.59251 2.44008 1.58307 3.98755 1.59251 5.54451C 1.59251 5.84831 1.62084 6.14261 1.63028 6.44641C 1.63973 7.01603 1.34701 7.38629 0.884324 7.41477C 0.383868 7.45274 0.0344942 7.12996 0.0156091 6.52236C -0.0127185 5.5635 0.00616656 4.59515 0.00616656 3.62679L 0.00616656 3.62679Z"/>
<path id="path23_fill" d="M 1.59343 3.68428C 1.59343 4.59567 1.60287 5.51656 1.59343 6.42795C 1.59343 6.99757 1.28183 7.34883 0.809699 7.34883C 0.337571 7.34883 0.00708191 6.98807 0.00708191 6.42795C -0.00236064 4.58618 -0.00236064 2.73491 0.00708191 0.893138C 0.00708191 0.333012 0.347014 -0.0182543 0.828584 0.000733026C 1.30071 0.0102267 1.59343 0.342505 1.59343 0.893138C 1.60287 1.82352 1.59343 2.7539 1.59343 3.68428Z"/>
<path id="path24_fill" d="M 2.44326 5.23101C 2.44326 5.43038 2.44326 5.58228 2.44326 5.78165C 2.04667 5.78165 1.67841 5.79114 1.30071 5.78165C 0.875796 5.76266 0.70583 5.94304 0.715273 6.37025C 0.724716 7.87025 0.724716 9.37025 0.715273 10.8703C 0.715273 11.0127 0.743601 11.1741 0.686945 11.288C 0.63029 11.4019 0.469767 11.5443 0.365899 11.5443C 0.252588 11.5443 0.101507 11.4019 0.0354096 11.288C -0.0212457 11.1741 0.00708191 11.0127 0.00708191 10.8703C 0.00708191 7.49051 0.00708191 4.11076 0.00708191 0.721519C 0.00708191 0.0379747 0.0448521 0 0.734158 0C 1.42346 0 2.11277 0 2.82096 0C 2.82096 0.199367 2.82096 0.351266 2.82096 0.550633C 2.30162 0.550633 1.80117 0.56962 1.30071 0.550633C 0.875796 0.531646 0.70583 0.712025 0.715273 1.13924C 0.734158 2.30696 0.734158 3.47468 0.715273 4.64241C 0.70583 5.06962 0.866354 5.25 1.30071 5.22152C 1.66897 5.21203 2.04667 5.23101 2.44326 5.23101Z"/>
<path id="path25_fill" d="M 0 0.522152C 0 0.313291 0 0.170886 0 0C 1.32196 0 2.63447 0 3.96587 0C 3.96587 0.161392 3.96587 0.313291 3.96587 0.522152C 3.62594 0.522152 3.30489 0.522152 2.9744 0.522152C 2.39841 0.522152 2.32287 0.598101 2.32287 1.17722C 2.32287 4.35759 2.32287 7.52848 2.32287 10.7089C 2.32287 10.8703 2.36064 11.0506 2.30398 11.1741C 2.23788 11.3165 2.07736 11.4114 1.95461 11.5253C 1.85074 11.4114 1.71854 11.307 1.66189 11.1741C 1.61468 11.0696 1.65245 10.9272 1.65245 10.8038C 1.65245 7.62342 1.65245 4.45253 1.65245 1.27215C 1.65245 0.579114 1.59579 0.522152 0.897042 0.522152C 0.604323 0.512658 0.330489 0.522152 0 0.522152Z"/>
<path id="path26_fill" d="M 0.0123331 5.75316C 0.0123331 4.0443 0.0123331 2.33544 0.0123331 0.636076C 0.0123331 0.512658 -0.0254371 0.36076 0.0312182 0.265823C 0.0973161 0.142405 0.238954 0 0.352265 0C 0.456133 0 0.597771 0.151899 0.663869 0.265823C 0.720524 0.36076 0.682754 0.512658 0.682754 0.636076C 0.682754 4.0538 0.682754 7.46202 0.682754 10.8797C 0.682754 11.0032 0.711082 11.1551 0.663869 11.25C 0.597771 11.3639 0.456133 11.5158 0.352265 11.5063C 0.238954 11.5063 0.0973161 11.3639 0.0312182 11.25C -0.0254371 11.1551 0.0123331 11.0032 0.0123331 10.8797C 0.0123331 9.17089 0.0123331 7.46203 0.0123331 5.75316Z"/>
<path id="path27_fill" d="M 1.65288 4.10449C 1.65288 4.67411 1.66233 5.24373 1.65288 5.81335C 1.64344 6.37347 1.33184 6.72474 0.850267 6.72474C 0.368697 6.72474 0.0759785 6.38297 0.0665359 5.80385C 0.0476509 4.18993 0.0287658 2.5855 0.000438114 0.971576C -0.00900443 0.534867 0.132634 0.193095 0.576434 0.041196C 1.08633 -0.12969 1.57734 0.250057 1.58679 0.829171C 1.59623 1.92094 1.58679 3.01272 1.58679 4.09499C 1.60567 4.10449 1.62456 4.10449 1.65288 4.10449Z"/>
</defs>
</svg>
