<svg width="75" height="75" viewBox="0 0 75 75" version="1.1" xmlns="http://www.w3.org/2000/svg" xmlns:xlink="http://www.w3.org/1999/xlink">
<title>VK.com-logo</title>
<desc>Created using Figma</desc>
<g id="Canvas" transform="translate(2827 -1082)">
<g id="VK.com-logo">
<g id="Shape">
<use xlink:href="#path0_fill" transform="translate(-2827 1082)" fill="#5181B8"/>
</g>
<g id="Shape">
<use xlink:href="#path1_fill" transform="translate(-2814.42 1105.83)" fill="#FFFFFF"/>
</g>
</g>
</g>
<defs>
<path id="path0_fill" d="M 26 0C 47 0 28 0 49 0C 70 0 75 5 75 26C 75 47 75 28 75 49C 75 70 70 75 49 75C 28 75 47 75 26 75C 5 75 0 70 0 49C 0 28 0 37.7267 0 26C 0 5 5 0 26 0Z"/>
<path id="path1_fill" d="M 48.8413 2.01024C 49.1888 0.851473 48.8413 0 47.1875 0L 41.7188 0C 40.3282 0 39.6872 0.735548 39.3395 1.54664C 39.3395 1.54664 36.5585 8.32537 32.6188 12.7286C 31.3442 14.0032 30.7647 14.4087 30.0695 14.4087C 29.7219 14.4087 29.2187 14.0032 29.2187 12.8445L 29.2187 2.01024C 29.2187 0.61972 28.8151 0 27.6563 0L 19.0625 0C 18.1936 0 17.671 0.645374 17.671 1.25702C 17.671 2.57521 19.6407 2.8792 19.8438 6.58726L 19.8438 14.6406C 19.8438 16.4062 19.5249 16.7264 18.8296 16.7264C 16.9757 16.7264 12.466 9.91736 9.79134 2.12607C 9.26716 0.611715 8.74143 0 7.34377 0L 1.87502 0C 0.312519 0 0 0.735548 0 1.54664C 0 2.99512 1.85403 10.1794 8.63266 19.6811C 13.1517 26.17 19.5188 29.6875 25.3125 29.6875C 28.7887 29.6875 29.2188 28.9062 29.2188 27.5605L 29.2188 22.6562C 29.2188 21.0938 29.5481 20.7819 30.6489 20.7819C 31.46 20.7819 32.8505 21.1875 36.0951 24.3161C 39.803 28.0241 40.4143 29.6875 42.5 29.6875L 47.9688 29.6875C 49.5313 29.6875 50.3125 28.9062 49.8618 27.3645C 49.3686 25.8279 47.5983 23.5985 45.2492 20.9557C 43.9745 19.4494 42.0626 17.8272 41.4832 17.0159C 40.6721 15.9731 40.9038 15.5095 41.4832 14.5826C 41.4832 14.5826 48.1461 5.19674 48.8413 2.01024Z"/>
</defs>
</svg>
