<svg width="84" height="74" viewBox="0 0 84 74" version="1.1" xmlns="http://www.w3.org/2000/svg" xmlns:xlink="http://www.w3.org/1999/xlink">
<title>cafe-digital</title>
<desc>Created using Figma</desc>
<g id="Canvas" transform="translate(3302 -1266)">
<g id="cafe-digital">
<g id="Shape">
<use xlink:href="#path0_fill" transform="translate(-3245 1266.23)" fill="#94C139"/>
</g>
<g id="Shape">
<use xlink:href="#path1_fill" transform="translate(-3301.34 1301.96)" fill="#94C139"/>
</g>
<g id="Shape">
<use xlink:href="#path2_fill" transform="translate(-3246.42 1324.61)" fill="#94C139"/>
</g>
<g id="Shape">
<use xlink:href="#path3_fill" transform="translate(-3288.58 1277.28)" fill="#ED008C"/>
</g>
<g id="Shape">
<use xlink:href="#path4_fill" transform="translate(-3281.3 1302.15)" fill="#94C139"/>
</g>
<g id="Shape">
<use xlink:href="#path5_fill" transform="translate(-3280.78 1266.09)" fill="#94C139"/>
</g>
<g id="Shape">
<use xlink:href="#path6_fill" transform="translate(-3301.8 1266.17)" fill="#94C139"/>
</g>
<g id="Shape">
<use xlink:href="#path7_fill" transform="translate(-3273.73 1277.28)" fill="#FA69BE"/>
</g>
<g id="Shape">
<use xlink:href="#path8_fill" transform="translate(-3273.34 1314.45)" fill="#92278F"/>
</g>
<g id="Shape">
<use xlink:href="#path9_fill" transform="translate(-3288.58 1302.27)" fill="#C7158D"/>
</g>
<g id="Shape">
<use xlink:href="#path10_fill" transform="translate(-3270.57 1282.92)" fill="#DB3395"/>
</g>
<g id="Shape">
<use xlink:href="#path11_fill" transform="translate(-3282.19 1283.71)" fill="#CF027A"/>
</g>
<g id="Shape">
<use xlink:href="#path12_fill" transform="translate(-3282.19 1302.27)" fill="#AB0C76"/>
</g>
<g id="Shape">
<use xlink:href="#path13_fill" transform="translate(-3269.55 1314.45)" fill="#750771"/>
</g>
</g>
</g>
<defs>
<path id="path0_fill" d="M 0.488897 11.8002C 0.409904 11.8002 0.330912 11.8002 0.251919 11.7608C 0.0149412 11.6425 -0.0640514 11.3666 0.0544375 11.1301L 5.7814 0.251404C 5.89989 0.0149107 6.17636 -0.0639205 6.41334 0.0543263C 6.65032 0.172573 6.72931 0.448482 6.61082 0.684976L 0.88386 11.5637C 0.804867 11.6819 0.646882 11.8002 0.488897 11.8002Z"/>
<path id="path1_fill" d="M 0.473956 0.98539C 0.197482 0.98539 0 0.788312 0 0.512403C 0 0.236494 0.197482 0.0394156 0.473956 0.0394156L 13.9422 0L 13.9422 0C 14.2187 0 14.4162 0.197078 14.4162 0.472987C 14.4162 0.748896 14.2187 0.945974 13.9422 0.945974L 0.473956 0.98539L 0.473956 0.98539Z"/>
<path id="path2_fill" d="M 7.63773 14.4804C 7.47974 14.4804 7.32176 14.4016 7.20327 14.2439L 0.0544375 0.684976C -0.0640514 0.448482 0.0149412 0.172573 0.251919 0.0543263C 0.488897 -0.0639205 0.765371 0.0149107 0.88386 0.251404L 8.07219 13.8104C 8.19068 14.0469 8.11168 14.3228 7.87471 14.441C 7.79571 14.4804 7.71672 14.4804 7.63773 14.4804Z"/>
<path id="path3_fill" fill-rule="evenodd" d="M 43.7224 48.8359L 14.7321 49.3089L 0 25.1077L 14.1792 0L 44.7888 0L 37.9559 12.2188L 21.565 12.1794L 13.8237 24.9895L 21.7625 37.2083L 37.245 37.2083L 43.7224 48.8359Z"/>
<path id="path4_fill" fill-rule="evenodd" d="M 0.454102 36.9718L 42.5967 37.0507C 42.7546 37.0507 42.9128 36.9718 42.9917 36.8142L 63.0559 0.709473C 63.1348 0.551758 63.1348 0.394165 63.0559 0.23645C 62.9768 0.0788574 62.8188 0 62.6609 0L 21.3872 0C 21.2292 0 21.0713 0.0788574 20.9922 0.23645L 0.0593262 36.2623C -0.0197754 36.42 -0.0197754 36.5776 0.0593262 36.7354C 0.138184 36.8929 0.296143 36.9718 0.454102 36.9718ZM 42.3203 36.0653L 1.24414 36.0259L 21.6638 0.906616L 61.8708 0.906616L 42.3203 36.0653Z"/>
<path id="path5_fill" fill-rule="evenodd" d="M 20.4788 36.8142C 20.5579 36.9718 20.7158 37.0507 20.8738 37.0507L 62.1475 37.0112C 62.3054 37.0112 62.4634 36.9324 62.5425 36.7748C 62.6213 36.6171 62.6213 36.4595 62.5425 36.3018L 42.3599 0.354736C 42.2808 0.197021 42.1228 0.118286 41.9648 0.118286L 0.454102 0C 0.296143 0 0.138184 0.0788574 0.0593262 0.23645C -0.0197754 0.394165 -0.0197754 0.551758 0.0593262 0.709473L 20.4788 36.8142ZM 21.1504 36.1046L 1.28369 0.945923L 41.728 1.06421L 61.3577 36.1046L 21.1504 36.1046Z"/>
<path id="path6_fill" fill-rule="evenodd" d="M 20.5183 72.7218C 20.5974 72.8794 20.7554 72.9583 20.9133 72.9583C 21.1108 72.9583 21.2688 72.8794 21.3083 72.7218L 42.2412 36.6959C 42.3203 36.5382 42.3203 36.3806 42.2412 36.2229L 21.6638 0.23645C 21.5847 0.0788574 21.4268 0 21.2688 0C 21.1108 0 20.9529 0.0788574 20.8738 0.23645L 0.0593262 36.3018C -0.0197754 36.4595 -0.0197754 36.6171 0.0593262 36.7748L 20.5183 72.7218ZM 20.9133 71.5787L 1.00708 36.5776L 21.3081 1.45837L 41.2932 36.4988L 20.9133 71.5787Z"/>
<path id="path7_fill" fill-rule="evenodd" d="M 0 0L 6.91185 12.1794L 23.1053 12.2188L 29.9382 0L 0 0Z"/>
<path id="path8_fill" fill-rule="evenodd" d="M 7.06984 0.0394156L 0 12.2188L 28.7928 12.2188L 22.1574 0L 7.06984 0.0394156Z"/>
<path id="path9_fill" fill-rule="evenodd" d="M 0 0.118247L 13.8237 0L 21.486 11.7853L 14.3767 24.0435L 0 0.118247Z"/>
<path id="path10_fill" fill-rule="evenodd" d="M 3.71265 6.58241L 0 0L 23.6188 0L 19.7087 6.62182L 3.71265 6.58241Z"/>
<path id="path11_fill" fill-rule="evenodd" d="M 7.4253 18.5647L 0 18.6436L 10.901 0L 14.6531 6.58241L 7.4253 18.5647Z"/>
<path id="path12_fill" fill-rule="evenodd" d="M 0 0.0788312L 7.4253 0L 15.0876 11.7853L 11.5329 17.8947L 0 0.0788312Z"/>
<path id="path13_fill" fill-rule="evenodd" d="M 3.27819 0.0394156L 18.3658 0L 21.4465 5.67585L 0 5.71526L 3.27819 0.0394156Z"/>
</defs>
</svg>
