<svg width="243" height="50" viewBox="0 0 243 50" version="1.1" xmlns="http://www.w3.org/2000/svg" xmlns:xlink="http://www.w3.org/1999/xlink">
<title>netfilm</title>
<desc>Created using Figma</desc>
<g id="Canvas" transform="translate(3143 -1095)">
<g id="netfilm">
<g id="Shape">
<use xlink:href="#path0_fill" transform="translate(-3107.4 1104.98)"/>
</g>
<g id="Shape">
<use xlink:href="#path1_fill" transform="translate(-3076.8 1104.98)"/>
</g>
<g id="Shape">
<use xlink:href="#path2_fill" transform="translate(-3142.81 1104.98)"/>
</g>
<g id="Shape">
<use xlink:href="#path3_fill" transform="translate(-3044.2 1095.14)"/>
</g>
<g id="Shape">
<use xlink:href="#path4_fill" transform="translate(-3015.6 1104.98)"/>
</g>
<g id="Shape">
<use xlink:href="#path5_fill" transform="translate(-2985.22 1104.98)"/>
</g>
<g id="Shape">
<use xlink:href="#path6_fill" transform="translate(-2959.41 1104.98)"/>
</g>
<g id="Shape">
<use xlink:href="#path7_fill" transform="translate(-2932.75 1104.98)"/>
</g>
</g>
</g>
<defs>
<path id="path0_fill" d="M 25.2201 22.7594L 25.7863 23.3726L 25.7863 29.5047L 25.2201 30.0708L 0.542621 30.0708L 0 29.5047L 0 0.542453L 0.542621 0L 25.2201 0L 25.7863 0.542453L 25.7863 6.74528L 25.2201 7.28774L 9.93233 7.28774L 9.93233 11.2028L 20.5488 11.2028L 21.0915 11.7689L 21.0915 16.5802L 20.5488 17.1462L 9.93233 17.1462L 9.93233 22.7594L 25.2201 22.7594Z"/>
<path id="path1_fill" d="M 25.9515 0L 26.5177 0.542453L 26.5177 6.74528L 25.9515 7.28774L 18.2604 7.28774L 18.2604 29.5047L 17.6942 30.0708L 8.84709 30.0708L 8.28087 29.5047L 8.28087 7.28774L 0.542621 7.28774L 0 6.74528L 0 0.542453L 0.542621 0L 25.9515 0Z"/>
<path id="path2_fill" d="M 29.1836 0L 29.7026 0.542453L 29.7026 29.5047L 29.1364 30.0708L 20.3129 30.0708L 19.7703 29.5047L 9.88515 15.0236L 9.88515 29.5047L 9.31893 30.0708L 0.542621 30.0708L 0 29.5047L 0 0.542453L 0.542621 0L 9.27175 0L 9.88515 0.542453L 19.7703 15.0236L 19.7703 0.542453L 20.3601 0L 29.1836 0Z"/>
<path id="path3_fill" d="M 17.4111 49.1745L 16.8449 49.7406L 7.95058 49.7406L 7.40796 49.1745L 7.40796 32.5943L 0 25.3774L 0 24.3396L 7.40796 17.1226L 7.40796 0.542453L 7.95058 0L 16.8449 0L 17.4111 0.542453L 17.4111 17.1226L 17.1044 18.1132L 10.1918 24.8585L 17.1044 31.6038L 17.4111 32.5943L 17.4111 49.1745Z"/>
<path id="path4_fill" d="M 25.3617 0L 25.9986 0.542453L 25.9986 6.74528L 25.3617 7.28774L 9.95592 7.28774L 9.95592 11.1321L 20.6196 11.1321L 21.233 11.7689L 21.233 16.4151L 20.6196 17.0991L 9.95592 17.0991L 9.95592 29.5047L 9.4133 30.0708L 0.542621 30.0708L 0 29.5047L 0 0.542453L 0.542621 0L 25.3617 0Z"/>
<path id="path5_fill" d="M 15.1698 7.28774L 15.1698 22.7594L 19.9354 22.7594L 20.5252 23.2783L 20.5252 29.5047L 19.9826 30.0708L 0.542621 30.0708L 0 29.5047L 0 23.2783L 0.542621 22.7594L 5.33184 22.7594L 5.33184 7.28774L 0.542621 7.28774L 0 6.74528L 0 0.542453L 0.542621 0L 19.9826 0L 20.5252 0.542453L 20.5252 6.74528L 19.9354 7.28774L 15.1698 7.28774Z"/>
<path id="path6_fill" d="M 21.233 22.7594L 21.7992 23.2783L 21.7992 29.5047L 21.233 30.0708L 0.566214 30.0708L 0 29.5047L 0 0.542453L 0.566214 0L 9.38971 0L 9.97951 0.542453L 9.97951 22.7594L 21.233 22.7594Z"/>
<path id="path7_fill" d="M 32.1798 0L 32.746 0.542453L 32.746 29.5047L 32.1798 30.0708L 23.4271 30.0708L 22.8609 29.5047L 22.8609 12.6179L 16.892 18.7264L 15.9483 18.7264L 9.93233 12.6179L 9.93233 29.5047L 9.36612 30.0708L 0.566214 30.0708L 0 29.5047L 0 0.542453L 0.566214 0L 9.36612 0L 10.4042 0.542453L 16.373 6.65094L 22.3418 0.542453L 23.4271 0L 32.1798 0Z"/>
</defs>
</svg>
