<?xml version="1.0" encoding="UTF-8"?>
<svg width="640px" height="480px" viewBox="0 0 640 480" version="1.1" xmlns="http://www.w3.org/2000/svg" xmlns:xlink="http://www.w3.org/1999/xlink">
    <!-- Generator: Sketch 47.1 (45422) - http://www.bohemiancoding.com/sketch -->
    <title>red_squares</title>
    <desc>Created with Sketch.</desc>
    <defs></defs>
    <g id="Page-1" stroke="none" stroke-width="1" fill="none" fill-rule="evenodd">
        <g id="red_squares" fill="#FF4A68">
            <rect id="Rectangle-Copy-1243" transform="translate(90.000000, 290.000000) scale(-1, 1) rotate(90.000000) translate(-90.000000, -290.000000) " x="80" y="280" width="20" height="20"></rect>
            <rect id="Rectangle-Copy-1267" transform="translate(90.000000, 410.000000) scale(-1, 1) rotate(90.000000) translate(-90.000000, -410.000000) " x="80" y="400" width="20" height="20"></rect>
            <rect id="Rectangle-Copy-1285" transform="translate(50.000000, 50.000000) scale(-1, 1) rotate(90.000000) translate(-50.000000, -50.000000) " x="40" y="40" width="20" height="20"></rect>
            <rect id="Rectangle-Copy-1287" transform="translate(30.000000, 110.000000) scale(-1, 1) rotate(90.000000) translate(-30.000000, -110.000000) " x="20" y="100" width="20" height="20"></rect>
            <rect id="Rectangle-Copy-1289" transform="translate(430.000000, 150.000000) scale(-1, 1) rotate(90.000000) translate(-430.000000, -150.000000) " x="420" y="140" width="20" height="20"></rect>
            <rect id="Rectangle-Copy-1294" transform="translate(170.000000, 290.000000) scale(-1, 1) rotate(90.000000) translate(-170.000000, -290.000000) " x="160" y="280" width="20" height="20"></rect>
            <rect id="Rectangle-Copy-1296" transform="translate(490.000000, 310.000000) scale(-1, 1) rotate(90.000000) translate(-490.000000, -310.000000) " x="480" y="300" width="20" height="20"></rect>
            <rect id="Rectangle-Copy-1317" transform="translate(570.000000, 190.000000) scale(-1, 1) rotate(90.000000) translate(-570.000000, -190.000000) " x="560" y="180" width="20" height="20"></rect>
            <rect id="Rectangle-Copy-1320" transform="translate(50.000000, 410.000000) scale(-1, 1) rotate(90.000000) translate(-50.000000, -410.000000) " x="40" y="400" width="20" height="20"></rect>
            <rect id="Rectangle-Copy-1341" transform="translate(12.000000, 50.000000) scale(-1, 1) rotate(90.000000) translate(-12.000000, -50.000000) " x="2" y="40" width="20" height="20"></rect>
            <rect id="Rectangle-Copy-1345" transform="translate(570.000000, 290.000000) scale(-1, 1) rotate(90.000000) translate(-570.000000, -290.000000) " x="560" y="280" width="20" height="20"></rect>
            <rect id="Rectangle-Copy-1350" transform="translate(130.000000, 310.000000) scale(-1, 1) rotate(90.000000) translate(-130.000000, -310.000000) " x="120" y="300" width="20" height="20"></rect>
            <rect id="Rectangle-Copy-1373" transform="translate(250.000000, 170.000000) scale(-1, 1) rotate(90.000000) translate(-250.000000, -170.000000) " x="240" y="160" width="20" height="20"></rect>
            <rect id="Rectangle-Copy-1380" transform="translate(250.000000, 410.000000) scale(-1, 1) rotate(90.000000) translate(-250.000000, -410.000000) " x="240" y="400" width="20" height="20"></rect>
            <rect id="Rectangle-Copy-1429" transform="translate(290.000000, 210.000000) scale(-1, 1) rotate(90.000000) translate(-290.000000, -210.000000) " x="280" y="200" width="20" height="20"></rect>
            <rect id="Rectangle-Copy-1453" transform="translate(112.000000, 110.000000) scale(-1, 1) rotate(90.000000) translate(-112.000000, -110.000000) " x="102" y="100" width="20" height="20"></rect>
            <rect id="Rectangle-Copy-1477" transform="translate(90.000000, 230.000000) scale(-1, 1) rotate(90.000000) translate(-90.000000, -230.000000) " x="80" y="220" width="20" height="20"></rect>
            <rect id="Rectangle-Copy-1505" transform="translate(470.000000, 70.000000) scale(-1, 1) rotate(90.000000) translate(-470.000000, -70.000000) " x="460" y="60" width="20" height="20"></rect>
            <rect id="Rectangle-Copy-1510" transform="translate(190.000000, 330.000000) scale(-1, 1) rotate(90.000000) translate(-190.000000, -330.000000) " x="180" y="320" width="20" height="20"></rect>
            <rect id="Rectangle-Copy-1512" transform="translate(370.000000, 310.000000) scale(-1, 1) rotate(90.000000) translate(-370.000000, -310.000000) " x="360" y="300" width="20" height="20"></rect>
            <rect id="Rectangle-Copy-1533" transform="translate(330.000000, 230.000000) scale(-1, 1) rotate(90.000000) translate(-330.000000, -230.000000) " x="320" y="220" width="20" height="20"></rect>
            <rect id="Rectangle-Copy-1536" transform="translate(70.000000, 470.000000) scale(-1, 1) rotate(90.000000) translate(-70.000000, -470.000000) " x="60" y="460" width="20" height="20"></rect>
            <rect id="Rectangle-Copy-1559" transform="translate(190.000000, 130.000000) scale(-1, 1) rotate(90.000000) translate(-190.000000, -130.000000) " x="180" y="120" width="20" height="20"></rect>
            <rect id="Rectangle-Copy-1563" transform="translate(90.000000, 350.000000) scale(-1, 1) rotate(90.000000) translate(-90.000000, -350.000000) " x="80" y="340" width="20" height="20"></rect>
            <rect id="Rectangle-Copy-1575" transform="translate(90.000000, 10.000000) scale(-1, 1) rotate(90.000000) translate(-90.000000, -10.000000) " x="80" y="0" width="20" height="20"></rect>
            <rect id="Rectangle-Copy-1577" transform="translate(210.000000, 10.000000) scale(-1, 1) rotate(90.000000) translate(-210.000000, -10.000000) " x="200" y="0" width="20" height="20"></rect>
            <rect id="Rectangle-Copy-1605" transform="translate(90.000000, 70.000000) scale(-1, 1) rotate(90.000000) translate(-90.000000, -70.000000) " x="80" y="60" width="20" height="20"></rect>
            <rect id="Rectangle-Copy-1614" transform="translate(150.000000, 370.000000) scale(-1, 1) rotate(90.000000) translate(-150.000000, -370.000000) " x="140" y="360" width="20" height="20"></rect>
            <rect id="Rectangle-Copy-1616" transform="translate(291.000000, 370.000000) scale(-1, 1) rotate(90.000000) translate(-291.000000, -370.000000) " x="281" y="360" width="20" height="20"></rect>
            <rect id="Rectangle-Copy-1630" transform="translate(290.000000, 10.000000) scale(-1, 1) rotate(90.000000) translate(-290.000000, -10.000000) " x="280" y="0" width="20" height="20"></rect>
            <rect id="Rectangle-Copy-1633" transform="translate(50.000000, 250.000000) scale(-1, 1) rotate(90.000000) translate(-50.000000, -250.000000) " x="40" y="240" width="20" height="20"></rect>
            <rect id="Rectangle-Copy-1686" transform="translate(590.000000, 10.000000) scale(-1, 1) rotate(90.000000) translate(-590.000000, -10.000000) " x="580" y="0" width="20" height="20"></rect>
            <rect id="Rectangle-Copy-1689" transform="translate(10.000000, 250.000000) scale(-1, 1) rotate(90.000000) translate(-10.000000, -250.000000) " x="0" y="240" width="20" height="20"></rect>
            <rect id="Rectangle-Copy-1691" transform="translate(131.000000, 250.000000) scale(-1, 1) rotate(90.000000) translate(-131.000000, -250.000000) " x="121" y="240" width="20" height="20"></rect>
            <rect id="Rectangle-Copy-1693" transform="translate(250.000000, 250.000000) scale(-1, 1) rotate(90.000000) translate(-250.000000, -250.000000) " x="240" y="240" width="20" height="20"></rect>
            <rect id="Rectangle-Copy-1721" transform="translate(570.000000, 90.000000) scale(-1, 1) rotate(90.000000) translate(-570.000000, -90.000000) " x="560" y="80" width="20" height="20"></rect>
            <rect id="Rectangle-Copy-1728" transform="translate(271.000000, 310.000000) scale(-1, 1) rotate(90.000000) translate(-271.000000, -310.000000) " x="261" y="300" width="20" height="20"></rect>
            <rect id="Rectangle-Copy-1754" transform="translate(151.000000, 430.000000) scale(-1, 1) rotate(90.000000) translate(-151.000000, -430.000000) " x="141" y="420" width="20" height="20"></rect>
            <rect id="Rectangle-Copy-1797" transform="translate(90.000000, 190.000000) scale(-1, 1) rotate(90.000000) translate(-90.000000, -190.000000) " x="80" y="180" width="20" height="20"></rect>
            <rect id="Rectangle-Copy-1825" transform="translate(450.000000, 10.000000) scale(-1, 1) rotate(90.000000) translate(-450.000000, -10.000000) " x="440" y="0" width="20" height="20"></rect>
            <rect id="Rectangle-Copy-1832" transform="translate(370.000000, 270.000000) scale(-1, 1) rotate(90.000000) translate(-370.000000, -270.000000) " x="360" y="260" width="20" height="20"></rect>
            <rect id="Rectangle-Copy-1853" transform="translate(310.000000, 170.000000) scale(-1, 1) rotate(90.000000) translate(-310.000000, -170.000000) " x="300" y="160" width="20" height="20"></rect>
            <rect id="Rectangle-Copy-1879" transform="translate(190.000000, 90.000000) scale(-1, 1) rotate(90.000000) translate(-190.000000, -90.000000) " x="180" y="80" width="20" height="20"></rect>
            <rect id="Rectangle-Copy-1903" transform="translate(210.000000, 210.000000) scale(-1, 1) rotate(90.000000) translate(-210.000000, -210.000000) " x="200" y="200" width="20" height="20"></rect>
            <rect id="Rectangle-Copy-1929" transform="translate(290.000000, 90.000000) scale(-1, 1) rotate(90.000000) translate(-290.000000, -90.000000) " x="280" y="80" width="20" height="20"></rect>
            <rect id="Rectangle-Copy-1932" transform="translate(52.000000, 330.000000) scale(-1, 1) rotate(90.000000) translate(-52.000000, -330.000000) " x="42" y="320" width="20" height="20"></rect>
            <rect id="Rectangle-Copy-1936" transform="translate(490.000000, 250.000000) scale(-1, 1) rotate(90.000000) translate(-490.000000, -250.000000) " x="480" y="240" width="20" height="20"></rect>
            <rect id="Rectangle-Copy-1955" transform="translate(150.000000, 210.000000) scale(-1, 1) rotate(90.000000) translate(-150.000000, -210.000000) " x="140" y="200" width="20" height="20"></rect>
            <rect id="Rectangle-Copy-1957" transform="translate(570.000000, 390.000000) scale(-1, 1) rotate(90.000000) translate(-570.000000, -390.000000) " x="560" y="380" width="20" height="20"></rect>
            <rect id="Rectangle-Copy-1985" transform="translate(250.000000, 70.000000) scale(-1, 1) rotate(90.000000) translate(-250.000000, -70.000000) " x="240" y="60" width="20" height="20"></rect>
            <rect id="Rectangle-Copy-1988" transform="translate(12.000000, 330.000000) scale(-1, 1) rotate(90.000000) translate(-12.000000, -330.000000) " x="2" y="320" width="20" height="20"></rect>
            <rect id="Rectangle-Copy-1992" transform="translate(250.000000, 330.000000) scale(-1, 1) rotate(90.000000) translate(-250.000000, -330.000000) " x="240" y="320" width="20" height="20"></rect>
            <rect id="Rectangle-Copy-2009" transform="translate(30.000000, 210.000000) scale(-1, 1) rotate(90.000000) translate(-30.000000, -210.000000) " x="20" y="200" width="20" height="20"></rect>
            <rect id="Rectangle-Copy-2037" transform="translate(50.000000, 170.000000) scale(-1, 1) rotate(90.000000) translate(-50.000000, -170.000000) " x="40" y="160" width="20" height="20"></rect>
            <rect id="Rectangle-Copy-2039" transform="translate(150.000000, 150.000000) scale(-1, 1) rotate(90.000000) translate(-150.000000, -150.000000) " x="140" y="140" width="20" height="20"></rect>
            <rect id="Rectangle-Copy-2060" transform="translate(152.000000, 30.000000) scale(-1, 1) rotate(90.000000) translate(-152.000000, -30.000000) " x="142" y="20" width="20" height="20"></rect>
            <rect id="Rectangle-Copy-2062" transform="translate(390.000000, 10.000000) scale(-1, 1) rotate(90.000000) translate(-390.000000, -10.000000) " x="380" y="0" width="20" height="20"></rect>
            <rect id="Rectangle-Copy-2113" transform="translate(630.000000, 330.000000) scale(-1, 1) rotate(90.000000) translate(-630.000000, -330.000000) " x="620" y="320" width="20" height="20"></rect>
            <rect id="Rectangle-Copy-2145" transform="translate(330.000000, 130.000000) scale(-1, 1) rotate(90.000000) translate(-330.000000, -130.000000) " x="320" y="120" width="20" height="20"></rect>
            <rect id="Rectangle-Copy-2150" transform="translate(210.000000, 370.000000) scale(-1, 1) rotate(90.000000) translate(-210.000000, -370.000000) " x="200" y="360" width="20" height="20"></rect>
            <rect id="Rectangle-Copy-2152" transform="translate(330.000000, 350.000000) scale(-1, 1) rotate(90.000000) translate(-330.000000, -350.000000) " x="320" y="340" width="20" height="20"></rect>
            <rect id="Rectangle-Copy-2166" transform="translate(330.000000, 30.000000) scale(-1, 1) rotate(90.000000) translate(-330.000000, -30.000000) " x="320" y="20" width="20" height="20"></rect>
            <rect id="Rectangle-Copy-2171" transform="translate(190.000000, 250.000000) scale(-1, 1) rotate(90.000000) translate(-190.000000, -250.000000) " x="180" y="240" width="20" height="20"></rect>
            <rect id="Rectangle-Copy-2173" transform="translate(510.000000, 430.000000) scale(-1, 1) rotate(90.000000) translate(-510.000000, -430.000000) " x="500" y="420" width="20" height="20"></rect>
        </g>
    </g>
</svg>