<?xml version="1.0" encoding="UTF-8"?>
<svg width="440px" height="440px" viewBox="0 0 440 440" version="1.1" xmlns="http://www.w3.org/2000/svg" xmlns:xlink="http://www.w3.org/1999/xlink">
    <!-- Generator: Sketch 47.1 (45422) - http://www.bohemiancoding.com/sketch -->
    <title>jail</title>
    <desc>Created with Sketch.</desc>
    <defs></defs>
    <g id="Page-1" stroke="none" stroke-width="1" fill="none" fill-rule="evenodd">
        <g id="17_Buharin_desktop_share_1" transform="translate(-577.000000, -286.000000)" fill="#FF4A68">
            <g id="jail" transform="translate(577.000000, 286.000000)">
                <g id="Group">
                    <rect id="Rectangle-Copy-1486" x="0" y="380" width="20" height="60"></rect>
                    <rect id="Rectangle-Copy-1498" x="100" y="380" width="20" height="60"></rect>
                    <rect id="Rectangle-Copy-1508" x="200" y="380" width="20" height="60"></rect>
                    <rect id="Rectangle-Copy-1517" x="300" y="380" width="20" height="60"></rect>
                    <rect id="Rectangle-Copy-1492" x="20" y="320" width="20" height="60"></rect>
                    <rect id="Rectangle-Copy-1499" x="120" y="320" width="20" height="60"></rect>
                    <rect id="Rectangle-Copy-1509" x="220" y="320" width="20" height="60"></rect>
                    <rect id="Rectangle-Copy-1518" x="320" y="320" width="20" height="60"></rect>
                    <rect id="Rectangle-Copy-1493" x="40" y="260" width="20" height="60"></rect>
                    <rect id="Rectangle-Copy-1500" x="140" y="260" width="20" height="60"></rect>
                    <rect id="Rectangle-Copy-1511" x="240" y="260" width="20" height="60"></rect>
                    <rect id="Rectangle-Copy-1519" x="340" y="260" width="20" height="60"></rect>
                    <rect id="Rectangle-Copy-1494" x="60" y="200" width="20" height="60"></rect>
                    <rect id="Rectangle-Copy-1501" x="160" y="200" width="20" height="60"></rect>
                    <rect id="Rectangle-Copy-1513" x="260" y="200" width="20" height="60"></rect>
                    <rect id="Rectangle-Copy-1520" x="360" y="200" width="20" height="60"></rect>
                    <rect id="Rectangle-Copy-1495" x="80" y="140" width="20" height="60"></rect>
                    <rect id="Rectangle-Copy-1495" x="100" y="180" width="80" height="20"></rect>
                    <rect id="Rectangle-Copy-1526" x="60" y="300" width="80" height="20"></rect>
                    <rect id="Rectangle-Copy-1534" x="20" y="420" width="80" height="20"></rect>
                    <rect id="Rectangle-Copy-1541" x="120" y="0" width="320" height="20"></rect>
                    <rect id="Rectangle-Copy-1530" x="140" y="60" width="80" height="20"></rect>
                    <rect id="Rectangle-Copy-1524" x="200" y="180" width="80" height="20"></rect>
                    <rect id="Rectangle-Copy-1527" x="160" y="300" width="80" height="20"></rect>
                    <rect id="Rectangle-Copy-1535" x="120" y="420" width="80" height="20"></rect>
                    <rect id="Rectangle-Copy-1531" x="240" y="60" width="80" height="20"></rect>
                    <rect id="Rectangle-Copy-1525" x="300" y="180" width="80" height="20"></rect>
                    <rect id="Rectangle-Copy-1529" x="260" y="300" width="80" height="20"></rect>
                    <rect id="Rectangle-Copy-1539" x="220" y="420" width="80" height="20"></rect>
                    <rect id="Rectangle-Copy-1532" x="340" y="60" width="80" height="20"></rect>
                    <rect id="Rectangle-Copy-1503" x="180" y="140" width="20" height="60"></rect>
                    <rect id="Rectangle-Copy-1514" x="280" y="140" width="20" height="60"></rect>
                    <rect id="Rectangle-Copy-1521" x="380" y="140" width="20" height="60"></rect>
                    <rect id="Rectangle-Copy-1496" x="100" y="80" width="20" height="60"></rect>
                    <rect id="Rectangle-Copy-1504" x="200" y="80" width="20" height="60"></rect>
                    <rect id="Rectangle-Copy-1515" x="300" y="80" width="20" height="60"></rect>
                    <rect id="Rectangle-Copy-1522" x="400" y="80" width="20" height="60"></rect>
                    <rect id="Rectangle-Copy-1497" x="120" y="20" width="20" height="60"></rect>
                    <rect id="Rectangle-Copy-1507" x="220" y="20" width="20" height="60"></rect>
                    <rect id="Rectangle-Copy-1516" x="320" y="20" width="20" height="60"></rect>
                    <rect id="Rectangle-Copy-1523" x="420" y="20" width="20" height="60"></rect>
                </g>
            </g>
        </g>
    </g>
</svg>