<?xml version="1.0" encoding="utf-8"?>
<!-- Generator: Adobe Illustrator 20.1.0, SVG Export Plug-In . SVG Version: 6.00 Build 0)  -->
<svg version="1.1" id="Слой_1" xmlns="http://www.w3.org/2000/svg" xmlns:xlink="http://www.w3.org/1999/xlink" x="0px" y="0px"
	 viewBox="0 0 36 82.7" style="enable-background:new 0 0 36 82.7;" xml:space="preserve">
<style type="text/css">
	.st0{fill:#FFFFFF;}
</style>
<g>
	<path class="st0" d="M36,18v24c0,9.9-8.1,18-18,18S0,51.9,0,42V18C0,8.1,8.1,0,18,0S36,8.1,36,18z M34,18c0-8.8-7.2-16-16-16
		S2,9.2,2,18v24c0,8.8,7.2,16,16,16s16-7.2,16-16V18z"/>
	<polygon class="st0" points="9.2,70.8 7.8,72.2 18.2,82.7 28.7,72.2 27.3,70.8 18.2,79.9 	"/>
	<rect x="17" y="13" class="st0" width="2" height="11"/>
</g>
</svg>
