<?xml version="1.0" encoding="utf-8"?>
<!-- Generator: Adobe Illustrator 20.1.0, SVG Export Plug-In . SVG Version: 6.00 Build 0)  -->
<svg version="1.1" id="Слой_1" xmlns="http://www.w3.org/2000/svg" xmlns:xlink="http://www.w3.org/1999/xlink" x="0px" y="0px"
	 viewBox="0 0 72 72" style="enable-background:new 0 0 72 72;" xml:space="preserve">
<style type="text/css">
	.st0{fill:url(#SVGID_1_);}
	.st1{fill:url(#SVGID_2_);}
	.st2{fill:none;}
	.st3{fill:#363636;}
	.st4{fill:#E4E4E4;}
	.st5{fill:#EAEAEA;}
	.st6{fill:#D7D7D7;}
	.st7{fill:#E697A6;}
	.st8{fill:#E27F91;}
</style>
<g id="upic-woman-56x56_2_">
	<linearGradient id="SVGID_1_" gradientUnits="userSpaceOnUse" x1="36.121" y1="0" x2="36.121" y2="72">
		<stop  offset="0" style="stop-color:#FFFFFF"/>
		<stop  offset="1" style="stop-color:#BABABA"/>
	</linearGradient>
	<ellipse class="st0" cx="36.1" cy="36" rx="35.9" ry="36"/>
	<linearGradient id="SVGID_2_" gradientUnits="userSpaceOnUse" x1="36.121" y1="0" x2="36.121" y2="72">
		<stop  offset="0" style="stop-color:#FFFFFF"/>
		<stop  offset="1" style="stop-color:#BABABA"/>
	</linearGradient>
	<ellipse class="st1" cx="36.1" cy="36" rx="35.9" ry="36"/>
	<g>
		<path class="st2" d="M13.7,49.9l7.7-2.5V28l4-5.6v-4.2l-1-2.8l3.6-6.6l7.2-0.8l7.3,0.8l3.8,6.6l-1,4.2v2.3l4,6.3v19l7.8,2.6
			l4.9,10.9c6-6.4,9.7-15.1,9.7-24.6c0-19.9-16.1-36-35.9-36C16.1,0,0,16.1,0,36c0,9.3,3.5,17.8,9.3,24.2L13.7,49.9z"/>
		<polygon class="st3" points="35.4,38.8 35.5,38.8 35.4,35.1 		"/>
		<path class="st3" d="M28.4,40.5c0,0,0,0.2,0,0.4v-3.3l0-0.4l-1.9-6.5l-0.8-0.3l-1.3-4l1.2-3.2h-0.2v-1.1l-4,5.6v19.4l7-2.5V40.5z"
			/>
		<polygon class="st3" points="26.3,20.4 26.4,20.8 26.4,23.4 26.3,23.4 		"/>
		<path class="st3" d="M45.2,23.4l1.1,3.2l-1.4,3.7l-1.1,0.4l-2.3,6.6v3.6c0-0.3,0-0.4,0-0.4v4.4l8,2.2v-19l-4-6.3v1.6H45.2z"/>
		<polygon class="st3" points="44.9,21.4 44.6,20.7 44.5,23.4 45.1,23.4 45.2,23.4 45.4,23.4 45.4,21.8 45.4,19.6 		"/>
		<polygon class="st3" points="25.6,23.4 25.7,23.4 26.4,23.4 26.4,20.8 26.1,21.4 25.4,18.1 25.4,22.4 25.4,23.4 		"/>
		<path class="st4" d="M38.1,39.5l-2.5,0.3l-0.1-1.1l-0.1,0v1.1l-3.2-0.3l-3.8-1.8v3.3c2,0.6,4,1.6,6.5,2.6c2.5-1,5.5-2,6.5-2.6
			v-3.6L38.1,39.5z"/>
		<polygon class="st5" points="35.4,39.8 35.4,38.8 35.4,35.1 35.5,32 34.1,31.3 35.4,23.2 35.4,14.4 35.3,14.4 32,14.4 26.2,20 
			26.3,23.4 26.2,23.4 25.7,23.4 25.6,24 24.6,26.9 26,30.5 26.9,30.8 29.1,37.3 29.8,37.7 32.9,39.5 		"/>
		<polygon class="st6" points="35.4,23.2 34.1,31.3 35.6,32 35.6,35.1 35.6,38.8 35.6,39.8 38.2,39.5 41.7,37.3 43.9,30.9 
			44.9,30.6 46.3,27.1 45.2,24 45.1,23.4 44.5,23.4 44.6,20.3 38.5,14.4 35.9,14.4 35.4,14.4 		"/>
		<path class="st7" d="M48.7,47.1l-7.3-2.2v-4.4c0,0,0.3,0.2-0.3,0.4c-1.2,0.6-3.2,1.6-5.7,2.6c0,0,0.2-0.2,0.3-0.2
			c-0.1,5.8,0.1-3.8,0.1,28.2c0,0,0,0,0,0c10.3,0,19.6-4.1,26.2-11.1l-5.2-10.8L48.7,47.1z"/>
		<path class="st8" d="M35.8,43.6c0,0-0.1,0-0.1,0c-2.5-1-5-2-6.2-2.6c-0.6-0.3-1.1-0.4-1.1-0.4v4.4l-7.3,2.5l-7.5,2.5L9.2,60.2
			C15.8,67.4,25.3,72,35.8,72C35.8,40.6,35.8,49.3,35.8,43.6z"/>
		<polygon class="st3" points="35.9,14.4 38.5,14.4 44.6,20.7 44.8,21.2 45.3,19.4 46.3,15.3 42.6,8.7 35.3,7.5 		"/>
		<polygon class="st3" points="25.7,21.4 26.2,20.8 26.2,20.4 32,14.4 35.3,14.4 35.6,14.4 35.9,14.4 35.3,7.5 27.9,8.5 24.2,15.3 
			24.9,18.1 		"/>
	</g>
</g>
</svg>
