<?xml version="1.0" encoding="utf-8"?>
<!-- Generator: Adobe Illustrator 20.1.0, SVG Export Plug-In . SVG Version: 6.00 Build 0)  -->
<svg version="1.1" id="Слой_1" xmlns="http://www.w3.org/2000/svg" xmlns:xlink="http://www.w3.org/1999/xlink" x="0px" y="0px"
	 viewBox="0 0 72 72" style="enable-background:new 0 0 72 72;" xml:space="preserve">
<style type="text/css">
	.st0{fill:url(#SVGID_1_);}
	.st1{fill:none;}
	.st2{fill:#CBCBCC;}
	.st3{fill:#E27F91;}
	.st4{fill:#E697A6;}
	.st5{fill:#EAEAEA;}
	.st6{fill:#D7D7D7;}
	.st7{fill:#585857;}
	.st8{fill:#222221;}
	.st9{fill:#3E3E3D;}
	.st10{fill:#6F6F6E;}
</style>
<g id="upic-man-56x56_2_">
	<linearGradient id="SVGID_1_" gradientUnits="userSpaceOnUse" x1="35.9839" y1="0" x2="35.9839" y2="71.9999">
		<stop  offset="0" style="stop-color:#FFFFFF"/>
		<stop  offset="1" style="stop-color:#BABABA"/>
	</linearGradient>
	<ellipse class="st0" cx="36" cy="36" rx="36" ry="36"/>
	<g>
		<path class="st1" d="M34,71.9c0.1,0,0.2,0,0.3,0l0,0L34,71.9z"/>
		<polygon class="st1" points="36.6,38.7 36.6,38.7 36.6,34.9 		"/>
		<path class="st1" d="M9.9,50.2L29,43.9l0.5-3.7c0,0-0.9,0.1,1.1,0.3v-2.8l-0.9-0.2l-2.3-6.2l-1-0.3l-1.4-3.6l1-2.9h0.6l-0.1-5
			c0,0.1,0,0.2,0,0.2l0-0.5c0,0,0-0.1,0-0.3l0-0.2c-0.7-0.3-2.9-1.5-3.3-3.9c-0.3-1.8,0.4-3.8,1.5-5.3c0.5-0.7,1.1-1.2,1.8-1.6
			C29.2,6.4,33.3,6.4,36,8c4.4,2.6,9.8,1.5,12.2,4.1c0.7,0.7,1.1,1.7,1.6,3.6c0.5,1.8-3.6,4.5-4,4.8l0,1.3l0,0.2c0,0,0-0.3,0-0.3
			l-0.1,2.7h0.6l1.1,2.9l-1.3,3.5l-0.9,0.3l-1.6,6.2l0.1,0.2v2.7c0-0.1-0.2-0.1-0.2-0.1l-0.1,3.7l19,6.3l1.5,8.8
			c5.2-6.2,8.3-14.2,8.3-23C72,16.1,55.9,0,36,0C16.1,0,0,16.1,0,36c0,8.7,3.1,16.7,8.3,23L9.9,50.2z"/>
		<path class="st2" d="M43.6,40.2v-2.7l-4.4,1.8l-2.7,0.3l0.1-1l0.1,0v1l-2.3-0.3l-3.7-1.8v2.8c1,0.5,4,1.6,6.3,2.5
			C39.5,41.9,41.6,40.6,43.6,40.2z"/>
		<path class="st3" d="M36.6,64.7l-2.4-12.1c0,0,1.8-8.4,1.8-9.7c-2.3-0.9-5-2-6.2-2.5c-0.4-0.2-0.6-0.3-0.6-0.3L29,43.9L9.9,50.2
			L8.3,59c6.2,7.5,15.4,12.4,25.7,13l0.3,0L36.6,64.7z"/>
		<path class="st4" d="M43,43.9l-0.1-3.7c0,0-0.1,0-0.3,0.1c-0.9,0.4-4,1.6-6.6,2.6c0,1.3-1.8,9.7-1.8,9.7l2.4,12.1l-2.3,7.2l0,0
			c0.6,0,1.1,0,1.7,0c11.1,0,21.1-5.1,27.7-13l-1.6-8.8L43,43.9z"/>
		<path class="st5" d="M26.4,18.6l0,0.2C26.4,18.7,26.4,18.7,26.4,18.6C26.5,18.6,26.4,18.6,26.4,18.6z"/>
		<path class="st5" d="M36.6,39.7v-1v-3.9L36.4,34l-0.4,0l-3.3,0.6v-1l2.4-1.2h1.1l0-0.3l-1.6-1.5l2-6.8v-3.4c-1,0-0.8,0-1.1,0
			c-4.7-0.2-6.4-1.7-6.9-2.7c-1.4,0.7-2,1.3-2.1,1.6l0.1,5H26l-1.1,2.9l1.3,3.5l0.9,0.3l2.1,6.2l0.5,0.2l4.1,1.8L36.6,39.7z"/>
		<path class="st6" d="M45.8,20.5l0,1.3L45.8,20.5C45.8,20.5,45.8,20.5,45.8,20.5L45.8,20.5z"/>
		<path class="st6" d="M43.1,19.2c-1,0.6-3.5,1.3-6.5,1.2v3.4l-2,6.9l1.7,1.4l-0.1,0.3h0.7l2.7,1.2v1l-3-0.6l0,0.8v3.9l-0.2,1
			l2.4-0.3l3.9-1.8l0.4-0.2l2.1-6.2l0.9-0.3l1.3-3.6l-1.1-2.9h-0.6l0.2-2.7C45.9,21.6,45,20.5,43.1,19.2z"/>
		<path class="st7" d="M34.6,13.8c8.1,0,11.1,5.5,11.1,5.5l0,1.1l0,0c0,0,0,0,0,0c0.4-0.2,4.5-3,4-4.8c-0.5-1.8-0.9-2.8-1.6-3.6
			C45.8,9.6,40.4,10.6,36,8c-2.7-1.6-6.8-1.7-9.6-0.2c-0.6,0.3-1.2,0.9-1.8,1.6c-1.1,1.5-1.8,3.5-1.5,5.3c0.4,2.4,2.6,3.6,3.3,3.9
			c0,0,0,0,0,0C26.7,17.3,28,13.9,34.6,13.8z"/>
		<path class="st8" d="M42.8,19.2c-1.8-1.3-4.5-2.5-8.1-2.6c-3-0.1-5,0.5-6.2,1.1c0.5,1,2.1,2.4,6.8,2.7c0.3,0,0.6,0,0.9,0
			C39.8,20.5,41.8,19.8,42.8,19.2z"/>
		<path class="st9" d="M28.5,17.7c1.2-0.6,3.2-1.2,6.2-1.1c3.6,0.1,6.3,1.3,8.1,2.6c2,1.3,2.9,2.7,3,2.8c0,0,0,0,0,0l0-0.2l0-1.3
			l0-1.1c0,0-3-5.6-11.1-5.5c-6.6,0-7.9,3.5-8.2,4.8c0,0.1,0,0.1,0,0.2c0,0.2,0,0.3,0,0.3l0,0.6c0,0,0,0,0-0.1
			C26.6,19.3,27.1,18.5,28.5,17.7z"/>
		<polygon class="st10" points="39.6,34.6 39.6,33.6 36.9,32.4 36.1,32.4 35,32.4 32.6,33.6 32.6,34.6 35.8,34 36.4,34 		"/>
	</g>
</g>
</svg>
