<?xml version="1.0" encoding="UTF-8"?>
<svg width="349px" height="201px" viewBox="0 0 349 201" version="1.1" xmlns="http://www.w3.org/2000/svg" xmlns:xlink="http://www.w3.org/1999/xlink">
    <!-- Generator: Sketch 47.1 (45422) - http://www.bohemiancoding.com/sketch -->
    <title>ep_end_pattern</title>
    <desc>Created with Sketch.</desc>
    <defs>
        <circle id="path-1" cx="180" cy="180" r="180"></circle>
    </defs>
    <g id="-" stroke="none" stroke-width="1" fill="none" fill-rule="evenodd">
        <g id="1-1-Desktop-#21.2" transform="translate(-407.000000, -977.000000)">
            <g id="Group-5" transform="translate(348.000000, 907.000000)">
                <g id="Group-19-Copy-4" transform="translate(239.206689, 239.206689) rotate(-25.000000) translate(-239.206689, -239.206689) translate(59.206689, 59.206689)">
                    <mask id="mask-2" fill="white">
                        <use xlink:href="#path-1"></use>
                    </mask>
                    <g id="Mask"></g>
                    <g id="Group-19" mask="url(#mask-2)" fill="#FFFFFF">
                        <g transform="translate(-10.000000, -14.000000)">
                            <polygon id="Fill-4" points="259.987064 131.580118 260.793758 128.264847 273.880411 131.434719 273.073716 134.74999"></polygon>
                            <polygon id="Fill-6" points="263.683852 137.634043 267.006436 138.438962 270.183301 125.381116 266.860716 124.576196"></polygon>
                            <polygon id="Fill-8" points="338.15886 115.035333 336.58814 112.005237 348.549284 105.830976 350.120004 108.861072"></polygon>
                            <polygon id="Fill-10" points="344.928979 117.184033 347.965758 115.61677 341.778682 103.681151 338.741903 105.249217"></polygon>
                            <polygon id="Fill-12" points="264.676038 80.8647429 263.105318 77.8354509 275.066462 71.6611901 276.637182 74.6912853"></polygon>
                            <polygon id="Fill-14" points="271.446559 83.0142468 274.483339 81.4469839 268.296263 69.5113648 265.258678 71.0794311"></polygon>
                            <polygon id="Fill-16" points="278.403136 111.989814 288.495678 111.989814 288.495678 108.875371 278.403136 108.875371"></polygon>
                            <polygon id="Fill-18" points="368.419178 115.161694 366.835576 105.21588 363.752907 105.705097 365.336508 115.650108"></polygon>
                            <polygon id="Fill-19" points="254.36878 46.7780994 252.785983 36.833089 249.702508 37.3223064 251.28611 47.2665135"></polygon>
                            <polygon id="Fill-25" points="317.979492 129.777405 325.271144 136.738912 327.429576 134.488833 320.137119 127.527326"></polygon>
                            <polygon id="Fill-26" points="315.221835 79.3774095 325.313572 79.460954 325.339335 76.3473143 315.247597 76.2629665"></polygon>
                            <polygon id="Fill-30" points="379.220195 171.355099 377.636593 161.409285 374.553924 161.898503 376.137525 171.84271"></polygon>
                            <polygon id="Fill-31" points="259.987064 256.157118 260.793758 252.841043 273.880411 256.010915 273.073716 259.326186"></polygon>
                            <polygon id="Fill-32" points="263.683852 262.210239 267.006436 263.015159 270.183301 249.957312 266.860716 249.152393"></polygon>
                            <polygon id="Fill-33" points="338.15886 239.611609 336.58814 236.581514 348.549284 230.407253 350.120004 233.437348"></polygon>
                            <polygon id="Fill-34" points="344.928979 241.761113 347.965758 240.19385 341.778682 228.258231 338.741903 229.826297"></polygon>
                            <polygon id="Fill-35" points="264.676038 205.441742 263.105318 202.411647 275.066462 196.237386 276.637182 199.267482"></polygon>
                            <polygon id="Fill-36" points="271.446559 207.590443 274.483339 206.02318 268.296263 194.087561 265.258678 195.656431"></polygon>
                            <polygon id="Fill-37" points="278.403136 236.566733 288.495678 236.566733 288.495678 233.45229 278.403136 233.45229"></polygon>
                            <polygon id="Fill-39" points="254.36878 171.355099 252.785983 161.409285 249.702508 161.898503 251.28611 171.84271"></polygon>
                            <polygon id="Fill-40" points="335.87725 148.920425 336.58814 152.257386 323.415343 155.0497 322.704453 151.71274"></polygon>
                            <polygon id="Fill-41" points="329.919703 145.058419 326.574576 145.767744 329.372246 158.911545 332.717373 158.20222"></polygon>
                            <polygon id="Fill-42" points="363.293445 186.986759 364.00353 190.32372 350.830733 193.116035 350.120648 189.778271"></polygon>
                            <polygon id="Fill-43" points="357.335496 183.124754 353.990369 183.834079 356.788843 196.97788 360.133165 196.268555"></polygon>
                            <polygon id="Fill-44" points="292.303648 163.660087 299.596106 170.621594 301.753733 168.370712 294.462081 161.409205"></polygon>
                            <polygon id="Fill-45" points="317.979492 254.353601 325.271144 261.315911 327.429576 259.065029 320.137119 252.103522"></polygon>
                            <polygon id="Fill-46" points="315.221835 203.953606 325.313572 204.03715 325.339335 200.924314 315.247597 200.839163"></polygon>
                            <polygon id="Fill-47" points="259.987064 131.580118 260.793758 128.264847 273.880411 131.434719 273.073716 134.74999"></polygon>
                            <polygon id="Fill-48" points="263.683852 137.634043 267.006436 138.438962 270.183301 125.381116 266.860716 124.576196"></polygon>
                            <polygon id="Fill-49" points="317.979492 129.777405 325.271144 136.738912 327.429576 134.488833 320.137119 127.527326"></polygon>
                            <polygon id="Fill-60" points="335.87725 273.496621 336.58814 276.834385 323.415343 279.625896 322.704453 276.288936"></polygon>
                            <polygon id="Fill-61" points="329.919703 269.634615 326.574576 270.34394 329.372246 283.487742 332.717373 282.77922"></polygon>
                            <polygon id="Fill-67" points="259.987064 256.157118 260.793758 252.841043 273.880411 256.010915 273.073716 259.326186"></polygon>
                            <polygon id="Fill-68" points="263.683852 262.210239 267.006436 263.015159 270.183301 249.957312 266.860716 249.152393"></polygon>
                            <polygon id="Fill-69" points="317.979492 254.353601 325.271144 261.315911 327.429576 259.065029 320.137119 252.103522"></polygon>
                            <polygon id="Fill-70" points="254.36878 46.7780994 252.785983 36.833089 249.702508 37.3223064 251.28611 47.2665135"></polygon>
                            <polygon id="Fill-71" points="135.135648 131.580118 135.942343 128.264847 149.028996 131.434719 148.222301 134.74999"></polygon>
                            <polygon id="Fill-72" points="138.832436 137.634043 142.155021 138.438962 145.331886 125.381116 142.009301 124.576196"></polygon>
                            <polygon id="Fill-73" points="213.307445 115.035333 211.736725 112.005237 223.697869 105.830976 225.268589 108.861072"></polygon>
                            <polygon id="Fill-74" points="220.077966 117.184033 223.114746 115.61677 216.927669 103.681151 213.890085 105.249217"></polygon>
                            <polygon id="Fill-75" points="139.825025 80.8647429 138.2535 77.8354509 150.215449 71.6611901 151.786169 74.6912853"></polygon>
                            <polygon id="Fill-76" points="146.595144 83.0142468 149.631924 81.4469839 143.444847 69.5113648 140.408068 71.0794311"></polygon>
                            <polygon id="Fill-77" points="153.552203 111.989814 163.644746 111.989814 163.644746 108.875371 153.552203 108.875371"></polygon>
                            <polygon id="Fill-78" points="243.567682 115.161694 241.984886 105.21588 238.901411 105.705097 240.485013 115.650108"></polygon>
                            <polygon id="Fill-79" points="129.517364 46.7780994 127.934568 36.833089 124.851898 37.3223064 126.434695 47.2665135"></polygon>
                            <polygon id="Fill-80" points="211.026237 24.3441482 211.736322 27.6811089 198.563525 30.4726203 197.853441 27.1356596"></polygon>
                            <polygon id="Fill-81" points="205.068288 20.4821424 201.723161 21.1906642 204.521636 34.3344654 207.865958 33.6259437"></polygon>
                            <polygon id="Fill-82" points="238.441949 62.4105631 239.152034 65.7475238 225.979237 68.5390352 225.269153 65.2020745"></polygon>
                            <polygon id="Fill-83" points="232.484081 58.548477 229.138953 59.2569988 231.937428 72.4008 235.28175 71.6922783"></polygon>
                            <polygon id="Fill-84" points="167.452233 39.0830874 174.744691 46.0445946 176.902318 43.7945159 169.610665 36.8330087"></polygon>
                            <polygon id="Fill-85" points="193.128076 129.777405 200.419729 136.738912 202.578161 134.488833 195.286508 127.527326"></polygon>
                            <polygon id="Fill-86" points="190.370419 79.3774095 200.462157 79.460954 200.487919 76.3473143 190.396987 76.2629665"></polygon>
                            <polygon id="Fill-87" points="135.135648 7.00392215 135.942343 3.68865093 149.028996 6.85771925 148.222301 10.1729905"></polygon>
                            <polygon id="Fill-88" points="138.832436 13.0577665 142.155021 13.8626857 145.331886 0.804838923 142.009301 -8.03312628e-05"></polygon>
                            <polygon id="Fill-89" points="193.128076 5.20120828 200.419729 12.1627155 202.578161 9.91183354 195.286508 2.95032629"></polygon>
                            <polygon id="Fill-90" points="254.36878 171.355099 252.785983 161.409285 249.702508 161.898503 251.28611 171.84271"></polygon>
                            <polygon id="Fill-93" points="213.307445 239.611609 211.736725 236.581514 223.697869 230.407253 225.268589 233.437348"></polygon>
                            <polygon id="Fill-94" points="220.077966 241.761113 223.114746 240.19385 216.927669 228.258231 213.890085 229.826297"></polygon>
                            <polygon id="Fill-95" points="139.825025 205.441742 138.2535 202.411647 150.215449 196.237386 151.786169 199.267482"></polygon>
                            <polygon id="Fill-96" points="146.595144 207.590443 149.631924 206.02318 143.444847 194.087561 140.408068 195.656431"></polygon>
                            <polygon id="Fill-98" points="243.567682 239.73789 241.984886 229.79288 238.901411 230.282097 240.485013 240.226304"></polygon>
                            <polygon id="Fill-99" points="129.517364 171.355099 127.934568 161.409285 124.851898 161.898503 126.434695 171.84271"></polygon>
                            <polygon id="Fill-100" points="211.026237 148.920425 211.736322 152.257386 198.563525 155.0497 197.853441 151.71274"></polygon>
                            <polygon id="Fill-101" points="205.068288 145.058419 201.723161 145.767744 204.521636 158.911545 207.865958 158.20222"></polygon>
                            <polygon id="Fill-102" points="238.441949 186.986759 239.152034 190.32372 225.979237 193.116035 225.269153 189.778271"></polygon>
                            <polygon id="Fill-103" points="232.484081 183.124754 229.138953 183.834079 231.937428 196.97788 235.28175 196.268555"></polygon>
                            <polygon id="Fill-104" points="167.452233 163.660087 174.744691 170.621594 176.902318 168.370712 169.610665 161.409205"></polygon>
                            <polygon id="Fill-106" points="190.370419 203.953606 200.462157 204.03715 200.487919 200.924314 190.396987 200.839163"></polygon>
                            <polygon id="Fill-107" points="135.135648 131.580118 135.942343 128.264847 149.028996 131.434719 148.222301 134.74999"></polygon>
                            <polygon id="Fill-108" points="138.832436 137.634043 142.155021 138.438962 145.331886 125.381116 142.009301 124.576196"></polygon>
                            <polygon id="Fill-109" points="193.128076 129.777405 200.419729 136.738912 202.578161 134.488833 195.286508 127.527326"></polygon>
                            <polygon id="Fill-130" points="129.517364 46.7780994 127.934568 36.833089 124.851898 37.3223064 126.434695 47.2665135"></polygon>
                            <polygon id="Fill-132" points="13.9813432 137.634043 17.303928 138.438962 20.4807924 125.381116 17.1582076 124.576196"></polygon>
                            <polygon id="Fill-133" points="88.4560297 115.035333 86.8853093 112.005237 98.8464534 105.830976 100.417174 108.861072"></polygon>
                            <polygon id="Fill-134" points="95.2265508 117.184033 98.2633305 115.61677 92.0762542 103.681151 89.0386695 105.249217"></polygon>
                            <polygon id="Fill-137" points="28.7004661 111.989814 38.7930085 111.989814 38.7930085 108.875371 28.7004661 108.875371"></polygon>
                            <polygon id="Fill-138" points="118.716267 115.161694 117.13347 105.21588 114.050801 105.705097 115.633597 115.650108"></polygon>
                            <polygon id="Fill-140" points="86.174822 24.3441482 86.8849068 27.6811089 73.7121102 30.4726203 73.0020254 27.1356596"></polygon>
                            <polygon id="Fill-141" points="80.2168729 20.4821424 76.8717458 21.1906642 79.6702203 34.3344654 83.0145424 33.6259437"></polygon>
                            <polygon id="Fill-142" points="113.590534 62.4105631 114.300619 65.7475238 101.127822 68.5390352 100.417737 65.2020745"></polygon>
                            <polygon id="Fill-143" points="107.632665 58.548477 104.288343 59.2569988 107.086013 72.4008 110.430335 71.6922783"></polygon>
                            <polygon id="Fill-145" points="68.276661 129.777405 75.5691186 136.738912 77.7267458 134.488833 70.4350932 127.527326"></polygon>
                            <polygon id="Fill-146" points="65.5190042 79.3774095 75.6107415 79.460954 75.6373093 76.3473143 65.545572 76.2629665"></polygon>
                            <polygon id="Fill-149" points="68.276661 5.20120828 75.5691186 12.1627155 77.7267458 9.91183354 70.4350932 2.95032629"></polygon>
                            <polygon id="Fill-150" points="129.517364 171.355099 127.934568 161.409285 124.851898 161.898503 126.434695 171.84271"></polygon>
                            <polygon id="Fill-160" points="86.174822 148.920425 86.8849068 152.257386 73.7121102 155.0497 73.0020254 151.71274"></polygon>
                            <polygon id="Fill-161" points="80.2168729 145.058419 76.8717458 145.767744 79.6702203 158.911545 83.0145424 158.20222"></polygon>
                            <polygon id="Fill-162" points="113.590534 186.986759 114.300619 190.32372 101.127822 193.116035 100.417737 189.778271"></polygon>
                            <polygon id="Fill-163" points="107.632665 183.124754 104.288343 183.834079 107.086013 196.97788 110.430335 196.268555"></polygon>
                            <polygon id="Fill-164" points="42.6012203 163.660087 49.8928729 170.621594 52.0513051 168.370712 44.7588475 161.409205"></polygon>
                            <polygon id="Fill-169" points="68.276661 129.777405 75.5691186 136.738912 77.7267458 134.488833 70.4350932 127.527326"></polygon>
                        </g>
                    </g>
                </g>
            </g>
        </g>
    </g>
</svg>