<?xml version="1.0" encoding="UTF-8"?>
<svg width="1327px" height="503px" viewBox="0 0 1327 503" version="1.1" xmlns="http://www.w3.org/2000/svg" xmlns:xlink="http://www.w3.org/1999/xlink">
    <!-- Generator: Sketch 47.1 (45422) - http://www.bohemiancoding.com/sketch -->
    <title>Group 8 Copy 3</title>
    <desc>Created with Sketch.</desc>
    <defs></defs>
    <g id="-" stroke="none" stroke-width="1" fill="none" fill-rule="evenodd" stroke-linecap="square">
        <g id="1-1-Desktop-#11" transform="translate(-23.000000, -518.000000)" stroke="#FF4A68" stroke-width="5">
            <g id="Group-11" transform="translate(23.000000, 518.000000)">
                <g id="Group-8" transform="translate(1001.000000, 0.000000)">
                    <g id="Group-7" transform="translate(105.681818, 225.874346)">
                        <path d="M73.2954545,76.1793194 L218.821005,76.1793194" id="Line"></path>
                        <path d="M0.568181818,1.59816754 L146.093733,1.59816754" id="Line-Copy"></path>
                    </g>
                    <g id="Group-7-Copy" transform="translate(69.318182, 114.002618)">
                        <path d="M52.6867512,76.1793194 L158.728625,76.1793194" id="Line"></path>
                        <path d="M0.414023961,1.59816754 L106.455898,1.59816754" id="Line-Copy"></path>
                    </g>
                    <g id="Group-7-Copy-2" transform="translate(0.000000, 345.204188)">
                        <path d="M67.5739958,60.7303665 L202.946601,60.7303665" id="Line"></path>
                        <path d="M0.528541226,1.06544503 L135.901147,1.06544503" id="Line-Copy"></path>
                    </g>
                    <g id="Group-7-Copy-3" transform="translate(113.636364, 0.000000)">
                        <path d="M43.516561,60.7303665 L129.252544,60.7303665" id="Line"></path>
                        <path d="M0.334742777,1.06544503 L86.0707262,1.06544503" id="Line-Copy"></path>
                    </g>
                </g>
                <g id="Group-8-Copy" transform="translate(705.000000, 0.000000)">
                    <g id="Group-7" transform="translate(77.390476, 278.178344)">
                        <path d="M54.0094004,93.9525347 L161.243168,93.9525347" id="Line"></path>
                        <path d="M0.418677523,1.9710322 L107.652445,1.9710322" id="Line-Copy"></path>
                    </g>
                    <g id="Group-7-Copy" transform="translate(51.214286, 140.687898)">
                        <path d="M38.8214621,93.9525347 L116.956866,93.9525347" id="Line"></path>
                        <path d="M0.3050675,1.9710322 L78.4404716,1.9710322" id="Line-Copy"></path>
                    </g>
                    <g id="Group-7-Copy-2" transform="translate(0.000000, 425.261146)">
                        <path d="M49.5289525,75.4157698 L148.75149,75.4157698" id="Line"></path>
                        <path d="M0.387398925,1.32308368 L99.6099367,1.32308368" id="Line-Copy"></path>
                    </g>
                    <g id="Group-7-Copy-3" transform="translate(83.080952, 0.000000)">
                        <path d="M32.1136951,75.4157698 L95.3838426,75.4157698" id="Line"></path>
                        <path d="M0.247028424,1.32308368 L63.5171759,1.32308368" id="Line-Copy"></path>
                    </g>
                </g>
                <g id="Group-8-Copy-2" transform="translate(342.000000, 23.000000)">
                    <g id="Group-7" transform="translate(105.681818, 225.874346)">
                        <path d="M73.2954545,76.1793194 L218.821005,76.1793194" id="Line"></path>
                        <path d="M0.568181818,1.59816754 L146.093733,1.59816754" id="Line-Copy"></path>
                    </g>
                    <g id="Group-7-Copy" transform="translate(69.318182, 114.002618)">
                        <path d="M52.6867512,76.1793194 L158.728625,76.1793194" id="Line"></path>
                        <path d="M0.414023961,1.59816754 L106.455898,1.59816754" id="Line-Copy"></path>
                    </g>
                    <g id="Group-7-Copy-2" transform="translate(0.000000, 345.204188)">
                        <path d="M67.1964874,60.7303665 L201.812821,60.7303665" id="Line"></path>
                        <path d="M0.525588482,1.06544503 L135.141922,1.06544503" id="Line-Copy"></path>
                    </g>
                    <g id="Group-7-Copy-3" transform="translate(112.500000, 0.000000)">
                        <path d="M43.8982852,60.7303665 L130.386339,60.7303665" id="Line"></path>
                        <path d="M0.337679117,1.06544503 L86.8257326,1.06544503" id="Line-Copy"></path>
                    </g>
                </g>
                <g id="Group-8-Copy-3" transform="translate(164.000000, 228.000000) rotate(-180.000000) translate(-164.000000, -228.000000) translate(1.000000, 24.000000)">
                    <g id="Group-7" transform="translate(105.681818, 225.874346)">
                        <path d="M73.2954545,76.1793194 L218.821005,76.1793194" id="Line"></path>
                        <path d="M0.568181818,1.59816754 L146.093733,1.59816754" id="Line-Copy"></path>
                    </g>
                    <g id="Group-7-Copy" transform="translate(69.318182, 114.002618)">
                        <path d="M52.6867512,76.1793194 L158.728625,76.1793194" id="Line"></path>
                        <path d="M0.414023961,1.59816754 L106.455898,1.59816754" id="Line-Copy"></path>
                    </g>
                    <g id="Group-7-Copy-2" transform="translate(0.000000, 345.204188)">
                        <path d="M67.1964874,60.7303665 L201.812821,60.7303665" id="Line"></path>
                        <path d="M0.525588482,1.06544503 L135.141922,1.06544503" id="Line-Copy"></path>
                    </g>
                    <g id="Group-7-Copy-3" transform="translate(112.500000, 0.000000)">
                        <path d="M43.8982852,60.7303665 L130.386339,60.7303665" id="Line"></path>
                        <path d="M0.337679117,1.06544503 L86.8257326,1.06544503" id="Line-Copy"></path>
                    </g>
                </g>
            </g>
        </g>
    </g>
</svg>