<svg version="1.1" class="map-svg" xmlns="http://www.w3.org/2000/svg" xmlns:xlink="http://www.w3.org/1999/xlink" x="0px" y="0px"
	 viewBox="0 0 320 200" style="enable-background:new 0 0 320 200;" xml:space="preserve">
<style type="text/css">
	.st0{fill:#817D8D;}
	.st1{opacity:0.5;}
	.st2{opacity:0.55;enable-background:new    ;}
	.st3{fill:#38019D;}
	.st4{opacity:0.75;fill:#FFFFFF;enable-background:new    ;}
	.st5{fill:#494949;}
	.st6{font-family:'TTNorms-Medium';}
	.st7{font-size:10px;}
</style>
<rect id="background" class="st0" width="320" height="200"/>
<g id="ukrain-1929">
	<rect x="36" y="-35" class="st3" width="2" height="2"/>
	<rect x="34" y="-37" class="st3" width="2" height="2"/>
	<rect x="36" y="-39" class="st3" width="2" height="2"/>
	<rect x="32" y="-39" class="st3" width="2" height="2"/>
	<rect x="38" y="-37" class="st3" width="2" height="2"/>
	<rect x="38" y="-41" class="st3" width="2" height="2"/>
	<rect x="36" y="-41" class="st3" width="2" height="2"/>
	<rect x="34" y="-41" class="st3" width="2" height="2"/>
	<rect x="32" y="-43" class="st3" width="2" height="2"/>
	<rect x="34" y="-43" class="st3" width="2" height="2"/>
	<rect x="38" y="-43" class="st3" width="2" height="2"/>
	<rect x="40" y="-43" class="st3" width="2" height="2"/>
	<rect x="32" y="-45" class="st3" width="2" height="2"/>
	<rect x="34" y="-45" class="st3" width="2" height="2"/>
	<rect x="36" y="-45" class="st3" width="2" height="2"/>
	<rect x="38" y="-45" class="st3" width="2" height="2"/>
	<rect x="40" y="-45" class="st3" width="2" height="2"/>
	<rect x="32" y="-49" class="st3" width="2" height="2"/>
	<rect x="34" y="-49" class="st3" width="2" height="2"/>
	<rect x="36" y="-49" class="st3" width="2" height="2"/>
	<rect x="38" y="-49" class="st3" width="2" height="2"/>
	<rect x="40" y="-49" class="st3" width="2" height="2"/>
	<rect x="40" y="-39" class="st3" width="2" height="2"/>
	<rect x="36" y="-47" class="st3" width="2" height="2"/>
	<rect x="32" y="-47" class="st3" width="2" height="2"/>
	<rect x="40" y="-47" class="st3" width="2" height="2"/>
	<rect x="36" y="-51" class="st3" width="2" height="2"/>
	<rect x="32" y="-51" class="st3" width="2" height="2"/>
	<rect x="40" y="-51" class="st3" width="2" height="2"/>
	<rect x="32" y="-53" class="st3" width="2" height="2"/>
	<rect x="34" y="-53" class="st3" width="2" height="2"/>
	<rect x="36" y="-53" class="st3" width="2" height="2"/>
	<rect x="38" y="-53" class="st3" width="2" height="2"/>
	<rect x="40" y="-53" class="st3" width="2" height="2"/>
	<rect x="32" y="-57" class="st3" width="2" height="2"/>
	<rect x="34" y="-57" class="st3" width="2" height="2"/>
	<rect x="36" y="-57" class="st3" width="2" height="2"/>
	<rect x="38" y="-57" class="st3" width="2" height="2"/>
	<rect x="34" y="-59" class="st3" width="2" height="2"/>
	<rect x="38" y="-59" class="st3" width="2" height="2"/>
	<rect x="34" y="-63" class="st3" width="2" height="2"/>
	<rect x="38" y="-63" class="st3" width="2" height="2"/>
	<rect x="40" y="-57" class="st3" width="2" height="2"/>
	<rect x="32" y="-61" class="st3" width="2" height="2"/>
	<rect x="36" y="-61" class="st3" width="2" height="2"/>
	<rect x="36" y="-65" class="st3" width="2" height="2"/>
	<rect x="40" y="-61" class="st3" width="2" height="2"/>
	<rect x="34" y="-55" class="st3" width="2" height="2"/>
	<rect x="32" y="-55" class="st3" width="2" height="2"/>
	<rect x="38" y="-55" class="st3" width="2" height="2"/>
	<rect x="40" y="-55" class="st3" width="2" height="2"/>
</g>
<g id="kavkaz-1929">
	<rect x="24" y="-85" class="st3" width="2" height="2"/>
	<rect x="26" y="-87" class="st3" width="2" height="2"/>
	<rect x="28" y="-87" class="st3" width="2" height="2"/>
	<rect x="30" y="-87" class="st3" width="2" height="2"/>
	<rect x="26" y="-91" class="st3" width="2" height="2"/>
	<rect x="28" y="-91" class="st3" width="2" height="2"/>
	<rect x="30" y="-91" class="st3" width="2" height="2"/>
	<rect x="26" y="-89" class="st3" width="2" height="2"/>
	<rect x="30" y="-89" class="st3" width="2" height="2"/>
	<rect x="28" y="-85" class="st3" width="2" height="2"/>
	<rect x="32" y="-85" class="st3" width="2" height="2"/>
	<rect x="24" y="-93" class="st3" width="2" height="2"/>
	<rect x="28" y="-93" class="st3" width="2" height="2"/>
	<rect x="32" y="-93" class="st3" width="2" height="2"/>
</g>
<g id="siberia-1929_4_">
	<rect x="158" y="-89" class="st3" width="2" height="2"/>
	<rect x="160" y="-91" class="st3" width="2" height="2"/>
	<rect x="162" y="-91" class="st3" width="2" height="2"/>
	<rect x="164" y="-91" class="st3" width="2" height="2"/>
	<rect x="160" y="-95" class="st3" width="2" height="2"/>
	<rect x="162" y="-95" class="st3" width="2" height="2"/>
	<rect x="164" y="-95" class="st3" width="2" height="2"/>
	<rect x="160" y="-93" class="st3" width="2" height="2"/>
	<rect x="158" y="-93" class="st3" width="2" height="2"/>
	<rect x="164" y="-93" class="st3" width="2" height="2"/>
	<rect x="162" y="-93" class="st3" width="2" height="2"/>
	<rect x="166" y="-93" class="st3" width="2" height="2"/>
	<rect x="166" y="-89" class="st3" width="2" height="2"/>
	<rect x="158" y="-97" class="st3" width="2" height="2"/>
	<rect x="166" y="-97" class="st3" width="2" height="2"/>
</g>
<g id="kazahstan-1929">
	<rect x="82" y="-124" class="st3" width="2" height="2"/>
	<rect x="84" y="-126" class="st3" width="2" height="2"/>
	<rect x="86" y="-126" class="st3" width="2" height="2"/>
	<rect x="88" y="-126" class="st3" width="2" height="2"/>
	<rect x="82" y="-130" class="st3" width="2" height="2"/>
	<rect x="86" y="-130" class="st3" width="2" height="2"/>
	<rect x="90" y="-130" class="st3" width="2" height="2"/>
	<rect x="84" y="-128" class="st3" width="2" height="2"/>
	<rect x="88" y="-128" class="st3" width="2" height="2"/>
	<rect x="86" y="-124" class="st3" width="2" height="2"/>
	<rect x="90" y="-124" class="st3" width="2" height="2"/>
	<rect x="86" y="-132" class="st3" width="2" height="2"/>
</g>
<g id="north-west-1929">
	<rect x="87" y="-39" class="st3" width="2" height="2"/>
	<rect x="89" y="-39" class="st3" width="2" height="2"/>
	<rect x="91" y="-39" class="st3" width="2" height="2"/>
	<rect x="87" y="-43" class="st3" width="2" height="2"/>
	<rect x="85" y="-45" class="st3" width="2" height="2"/>
	<rect x="89" y="-43" class="st3" width="2" height="2"/>
	<rect x="91" y="-43" class="st3" width="2" height="2"/>
	<rect x="93" y="-45" class="st3" width="2" height="2"/>
	<rect x="87" y="-41" class="st3" width="2" height="2"/>
	<rect x="91" y="-41" class="st3" width="2" height="2"/>
	<rect x="89" y="-37" class="st3" width="2" height="2"/>
	<rect x="89" y="-45" class="st3" width="2" height="2"/>
</g>
<g id="belarus-1929">
	<rect x="46" y="-32" class="st3" width="2" height="2"/>
	<rect x="48" y="-34" class="st3" width="2" height="2"/>
	<rect x="50" y="-34" class="st3" width="2" height="2"/>
	<rect x="52" y="-34" class="st3" width="2" height="2"/>
	<rect x="50" y="-38" class="st3" width="2" height="2"/>
	<rect x="48" y="-36" class="st3" width="2" height="2"/>
	<rect x="52" y="-36" class="st3" width="2" height="2"/>
	<rect x="54" y="-32" class="st3" width="2" height="2"/>
</g>
<g id="n.volga-1929">
	<rect x="45" y="-77" class="st3" width="2" height="2"/>
	<rect x="43" y="-79" class="st3" width="2" height="2"/>
	<rect x="45" y="-79" class="st3" width="2" height="2"/>
	<rect x="51" y="-79" class="st3" width="2" height="2"/>
	<rect x="49" y="-79" class="st3" width="2" height="2"/>
	<rect x="45" y="-81" class="st3" width="2" height="2"/>
	<rect x="47" y="-81" class="st3" width="2" height="2"/>
	<rect x="49" y="-81" class="st3" width="2" height="2"/>
	<rect x="47" y="-77" class="st3" width="2" height="2"/>
	<rect x="49" y="-77" class="st3" width="2" height="2"/>
</g>
<g id="ural-1929">
	<rect x="116" y="-93" class="st3" width="2" height="2"/>
	<rect x="114" y="-95" class="st3" width="2" height="2"/>
	<rect x="116" y="-95" class="st3" width="2" height="2"/>
	<rect x="122" y="-95" class="st3" width="2" height="2"/>
	<rect x="120" y="-95" class="st3" width="2" height="2"/>
	<rect x="116" y="-97" class="st3" width="2" height="2"/>
	<rect x="118" y="-97" class="st3" width="2" height="2"/>
	<rect x="118" y="-99" class="st3" width="2" height="2"/>
	<rect x="120" y="-97" class="st3" width="2" height="2"/>
	<rect x="118" y="-93" class="st3" width="2" height="2"/>
	<rect x="118" y="-91" class="st3" width="2" height="2"/>
	<rect x="120" y="-93" class="st3" width="2" height="2"/>
</g>
<g id="sr.volga-1929">
	<rect x="60" y="-80" class="st3" width="2" height="2"/>
	<rect x="62" y="-80" class="st3" width="2" height="2"/>
	<rect x="68" y="-80" class="st3" width="2" height="2"/>
	<rect x="66" y="-80" class="st3" width="2" height="2"/>
	<rect x="62" y="-82" class="st3" width="2" height="2"/>
	<rect x="64" y="-80" class="st3" width="2" height="2"/>
	<rect x="60" y="-84" class="st3" width="2" height="2"/>
	<rect x="62" y="-84" class="st3" width="2" height="2"/>
	<rect x="68" y="-84" class="st3" width="2" height="2"/>
	<rect x="66" y="-84" class="st3" width="2" height="2"/>
	<rect x="64" y="-84" class="st3" width="2" height="2"/>
	<rect x="66" y="-82" class="st3" width="2" height="2"/>
	<rect x="64" y="-78" class="st3" width="2" height="2"/>
</g>
<g id="chernozemye-1929">
	<rect x="53" y="-57" class="st3" width="2" height="2"/>
	<rect x="55" y="-57" class="st3" width="2" height="2"/>
	<rect x="61" y="-57" class="st3" width="2" height="2"/>
	<rect x="59" y="-57" class="st3" width="2" height="2"/>
	<rect x="55" y="-59" class="st3" width="2" height="2"/>
	<rect x="57" y="-57" class="st3" width="2" height="2"/>
	<rect x="53" y="-61" class="st3" width="2" height="2"/>
	<rect x="55" y="-61" class="st3" width="2" height="2"/>
	<rect x="61" y="-61" class="st3" width="2" height="2"/>
	<rect x="59" y="-61" class="st3" width="2" height="2"/>
	<rect x="57" y="-61" class="st3" width="2" height="2"/>
	<rect x="59" y="-59" class="st3" width="2" height="2"/>
	<rect x="57" y="-59" class="st3" width="2" height="2"/>
	<rect x="55" y="-63" class="st3" width="2" height="2"/>
	<rect x="53" y="-65" class="st3" width="2" height="2"/>
	<rect x="55" y="-65" class="st3" width="2" height="2"/>
	<rect x="61" y="-65" class="st3" width="2" height="2"/>
	<rect x="59" y="-65" class="st3" width="2" height="2"/>
	<rect x="57" y="-65" class="st3" width="2" height="2"/>
	<rect x="59" y="-63" class="st3" width="2" height="2"/>
	<rect x="57" y="-63" class="st3" width="2" height="2"/>
</g>
<g id="center-1929">
	<rect x="73" y="-36" class="st3" width="2" height="2"/>
	<rect x="71" y="-38" class="st3" width="2" height="2"/>
	<rect x="75" y="-38" class="st3" width="2" height="2"/>
	<rect x="73" y="-40" class="st3" width="2" height="2"/>
	<rect x="71" y="-40" class="st3" width="2" height="2"/>
	<rect x="75" y="-40" class="st3" width="2" height="2"/>
	<rect x="71" y="-42" class="st3" width="2" height="2"/>
	<rect x="75" y="-42" class="st3" width="2" height="2"/>
	<rect x="71" y="-48" class="st3" width="2" height="2"/>
	<rect x="75" y="-48" class="st3" width="2" height="2"/>
	<rect x="73" y="-44" class="st3" width="2" height="2"/>
	<rect x="71" y="-44" class="st3" width="2" height="2"/>
	<rect x="75" y="-44" class="st3" width="2" height="2"/>
	<rect x="73" y="-46" class="st3" width="2" height="2"/>
	<rect x="71" y="-46" class="st3" width="2" height="2"/>
	<rect x="69" y="-46" class="st3" width="2" height="2"/>
	<rect x="75" y="-46" class="st3" width="2" height="2"/>
	<rect x="77" y="-46" class="st3" width="2" height="2"/>
	<rect x="71" y="-52" class="st3" width="2" height="2"/>
	<rect x="75" y="-52" class="st3" width="2" height="2"/>
	<rect x="73" y="-50" class="st3" width="2" height="2"/>
	<rect x="71" y="-50" class="st3" width="2" height="2"/>
	<rect x="69" y="-50" class="st3" width="2" height="2"/>
	<rect x="75" y="-50" class="st3" width="2" height="2"/>
	<rect x="77" y="-50" class="st3" width="2" height="2"/>
	<rect x="71" y="-56" class="st3" width="2" height="2"/>
	<rect x="75" y="-56" class="st3" width="2" height="2"/>
	<rect x="73" y="-54" class="st3" width="2" height="2"/>
	<rect x="71" y="-54" class="st3" width="2" height="2"/>
	<rect x="69" y="-54" class="st3" width="2" height="2"/>
	<rect x="75" y="-54" class="st3" width="2" height="2"/>
	<rect x="77" y="-54" class="st3" width="2" height="2"/>
	<rect x="71" y="-60" class="st3" width="2" height="2"/>
	<rect x="75" y="-60" class="st3" width="2" height="2"/>
	<rect x="71" y="-62" class="st3" width="2" height="2"/>
	<rect x="75" y="-62" class="st3" width="2" height="2"/>
	<rect x="73" y="-58" class="st3" width="2" height="2"/>
	<rect x="71" y="-58" class="st3" width="2" height="2"/>
	<rect x="73" y="-60" class="st3" width="2" height="2"/>
	<rect x="71" y="-64" class="st3" width="2" height="2"/>
	<rect x="75" y="-64" class="st3" width="2" height="2"/>
	<rect x="71" y="-66" class="st3" width="2" height="2"/>
	<rect x="75" y="-66" class="st3" width="2" height="2"/>
	<rect x="73" y="-64" class="st3" width="2" height="2"/>
	<rect x="73" y="-68" class="st3" width="2" height="2"/>
	<rect x="69" y="-58" class="st3" width="2" height="2"/>
	<rect x="75" y="-58" class="st3" width="2" height="2"/>
	<rect x="77" y="-58" class="st3" width="2" height="2"/>
</g>
<g id="pins">
	<g id="Group-22-Copy-3" transform="translate(198.000000, 228.000000)">
		<polygon id="pin_x2F_Финляндия-right-Copy-6" class="st4" points="-123.6,-152.7 -132.7,-144.5 -132.7,-152.7 
			-132.7,-157.3 -132.7,-165.5 -41.3,-165.5 -41.3,-152.7 		"/>
		<text transform="matrix(1 0 0 1 -122.7715 -154.8273)" class="st5 st6 st7">Средняя Волга</text>
	</g>
	<g id="Group-25-Copy-5" transform="translate(21.000000, 82.000000)">
		<polygon id="Shape-Copy-4" class="st4" points="107.1,-52.7 107.1,-65.5 28.9,-65.5 28.9,-57.3 28.9,-52.7 28.9,-44.5 38,-52.7 		
			"/>
		<text transform="matrix(1 0 0 1 37.9592 -54.827)" class="st5 st6 st7">Белоруссия</text>
	</g>
	<g id="Group-29-Copy-3" transform="translate(310.000000, 285.000000)">
		<polygon id="pin_x2F_Финляндия-right-Copy-9" class="st4" points="-182,-181.3 -191.2,-189.5 -191.2,-181.3 
			-191.2,-176.7 -191.2,-168.5 -148.8,-168.5 -148.8,-181.3 		"/>
		<text transform="matrix(1 0 0 1 -181.2954 -171.9602)" class="st5 st6 st7">Урал</text>
	</g>
	<g id="Group-23-Copy-3" transform="translate(218.000000, 356.000000)">
		<polygon id="pin_x2F_Финляндия-right-Copy-4" class="st4" points="-122,-234.7 -131.1,-226.5 -131.1,-234.7 
			-131.1,-239.3 -131.1,-247.5 -62.9,-247.5 -62.9,-234.7 		"/>
		<text transform="matrix(1 0 0 1 -121.1844 -236.8277)" class="st5 st6 st7">Казахстан</text>
	</g>
	<g id="Group-27-Copy-2" transform="translate(50.000000, 267.000000)">
		<polygon id="pin_x2F_Финляндия-right-Copy-3_1_" class="st4" points="-12.4,-169.3 -21.5,-177.5 -21.5,-169.3 
			-21.5,-164.7 -21.5,-156.5 83.5,-156.5 83.5,-169.3 		"/>
		<text transform="matrix(1 0 0 1 -11.6361 -159.1015)" class="st5 st6 st7">Северный Кавказ</text>
	</g>
	<g id="Group-26-Copy-5" transform="translate(134.000000, 186.000000)">
		<polygon id="pin_x2F_Финляндия-right-Copy-8" class="st4" points="69.7,-130.7 69.7,-143.5 -75.7,-143.5 -75.7,-135.3 
			-75.7,-130.7 -75.7,-122.5 -66.6,-130.7 		"/>
		<text transform="matrix(1 0 0 1 -65.7634 -132.9621)" class="st5 st6 st7">Центральное Черноземье</text>
	</g>
	<g id="Group-20-Copy-3" transform="translate(126.000000, 144.000000)">
		<polygon id="Shape-Copy-2" class="st4" points="-61.5,-97.7 -52.4,-89.5 -52.4,-97.7 -52.4,-102.3 -52.4,-110.5 -99.6,-110.5 
			-99.6,-97.7 		"/>
		<text transform="matrix(1 0 0 1 -90.6139 -100.687)" class="st5 st6 st7">Центр</text>
	</g>
	<g id="Group-31-Copy-3" transform="translate(0.000000, 132.000000)">
		<polygon id="Shape-Copy-5" class="st4" points="98.9,-89.8 98.9,-102.3 37.1,-102.3 37.1,-94.2 37.1,-89.8 37.1,-81.7 46.2,-89.8 
					"/>
		<text transform="matrix(1 0 0 1 45.6877 -92.0002)" class="st5 st6 st7">Украина</text>
	</g>
	
		<g id="Group-27-Copy-3" transform="translate(463.000000, 265.000000) scale(-1, 1) translate(-463.000000, -265.000000) translate(398.000000, 252.000000)">
		<polygon id="pin_x2F_Финляндия-right-Copy-3_2_" class="st4" points="308.9,-165.7 308.9,-178.5 365.1,-178.5 
			365.1,-170.3 365.1,-165.7 365.1,-157.5 356,-165.7 		"/>
		<text transform="matrix(-1 0 0 1 356.1883 -167.8274)" class="st5 st6 st7">Сибирь</text>
	</g>
	<g id="Group-21-Copy-3" transform="translate(228.000000, 108.000000)">
		<polygon id="Shape-Copy-6" class="st4" points="-129.7,-72 -137.7,-64.7 -137.7,-72 -137.7,-76.1 -137.7,-83.3 -50.3,-83.3 
			-50.3,-72 		"/>
		<text transform="matrix(1 0 0 1 -128.9828 -74.3431)" class="st5 st6 st7">Северо-Запад</text>
	</g>
	<g id="Group-24-Copy-2" transform="translate(0.000000, 215.000000)">
		<polygon id="pin_x2F_Латвия-right-Copy-3" class="st4" points="135.9,-142.7 135.9,-155.5 48.1,-155.5 48.1,-147.3 
			48.1,-142.7 48.1,-134.5 57.3,-142.7 		"/>
		<text transform="matrix(1 0 0 1 57.131 -145.6873)" class="st5 st6 st7">Нижняя Волга</text>
	</g>
</g>
</svg>
