<?xml version="1.0" encoding="utf-8"?>
<!-- Generator: Adobe Illustrator 20.1.0, SVG Export Plug-In . SVG Version: 6.00 Build 0)  -->
<svg version="1.1" id="Слой_1" xmlns="http://www.w3.org/2000/svg" xmlns:xlink="http://www.w3.org/1999/xlink" x="0px" y="0px"
	 viewBox="0 0 100 100" style="enable-background:new 0 0 100 100;" xml:space="preserve">
<style type="text/css">
	.st0{fill:#FFFFFF;}
	.st1{fill:#979797;}
</style>
<rect x="0" y="0" class="st0" width="100" height="100"/>
<circle class="st1" cx="80.9" cy="67.9" r="5.5"/>
<circle class="st1" cx="25" cy="69.9" r="3"/>
<path class="st1" d="M22,26.5c-5.5,0-10-4.5-10-10s4.5-10,10-10s10,4.5,10,10S27.5,26.5,22,26.5z M22,11.5c-2.8,0-5,2.2-5,5
	s2.2,5,5,5s5-2.2,5-5S24.7,11.5,22,11.5z"/>
<rect x="71.5" y="16.8" class="st1" width="18" height="18"/>
<rect x="44.9" y="33.8" class="st1" width="5" height="5"/>
<polygon class="st1" points="58.6,81.4 55.7,78.6 50.1,84.2 44.4,78.6 41.6,81.4 47.2,87.1 41.6,92.7 44.4,95.6 50.1,89.9 
	55.7,95.6 58.6,92.7 52.9,87.1 "/>
</svg>
