<?xml version="1.0" encoding="utf-8"?>
<!-- Generator: Adobe Illustrator 20.1.0, SVG Export Plug-In . SVG Version: 6.00 Build 0)  -->
<svg version="1.1" id="Слой_1" xmlns="http://www.w3.org/2000/svg" xmlns:xlink="http://www.w3.org/1999/xlink" x="0px" y="0px"
	 viewBox="0 0 23 23" style="enable-background:new 0 0 23 23;" xml:space="preserve">
<style type="text/css">
	.st0{opacity:0.75;fill:#F1FF6A;}
</style>
<path class="st0" d="M18.2,1.4l3.4,3.4l-6.7,6.7l6.7,6.7l-3.4,3.4l-6.7-6.7l-6.7,6.7l-3.4-3.4l6.7-6.7L1.4,4.8l3.4-3.4l6.7,6.7
	L18.2,1.4 M18.2,0l-0.7,0.7l-6,6l-6-6L4.8,0L4.1,0.7L0.7,4.1L0,4.8l0.7,0.7l6,6l-6,6L0,18.2l0.7,0.7l3.4,3.4L4.8,23l0.7-0.7l6-6l6,6
	l0.7,0.7l0.7-0.7l3.4-3.4l0.7-0.7l-0.7-0.7l-6-6l6-6L23,4.8l-0.7-0.7l-3.4-3.4L18.2,0L18.2,0z"/>
</svg>
