<?xml version="1.0" encoding="utf-8"?>
<!-- Generator: Adobe Illustrator 20.1.0, SVG Export Plug-In . SVG Version: 6.00 Build 0)  -->
<svg version="1.1" id="Слой_1" xmlns="http://www.w3.org/2000/svg" xmlns:xlink="http://www.w3.org/1999/xlink" x="0px" y="0px"
	 viewBox="0 0 56 56" style="enable-background:new 0 0 56 56;" xml:space="preserve">
<style type="text/css">
	.st0{fill:#FFFFFF;}
</style>
<g id="Comments">
</g>
<g id="fb">
	<path class="st0" d="M28,56C12.6,56,0,43.4,0,28S12.6,0,28,0s28,12.6,28,28S43.5,56,28,56z M28,1C13.1,1,1,13.1,1,28s12.1,27,27,27
		s27-12.1,27-27S42.9,1,28,1z"/>
	<path id="fb-8x15_1_" class="st0" d="M25,41V27.2h-4.8v-3.5H25v-3.5c0-2.8,2.5-5.1,5.5-5.1h3.7v3.5h-3.7c-0.9,0-1.7,0.7-1.7,1.5
		v3.5H34v3.5h-5.2V41H25z"/>
</g>
</svg>
