<?xml version="1.0" encoding="utf-8"?>
<!-- Generator: Adobe Illustrator 20.1.0, SVG Export Plug-In . SVG Version: 6.00 Build 0)  -->
<svg version="1.1" id="Слой_1" xmlns="http://www.w3.org/2000/svg" xmlns:xlink="http://www.w3.org/1999/xlink" x="0px" y="0px"
	 viewBox="0 0 24 168" style="enable-background:new 0 0 24 168;" xml:space="preserve">
<style type="text/css">
	.st0{fill:#E8E8E8;}
	.st1{fill:#D5D5D5;}
	.st2{fill:#C2C2C1;}
	.st3{fill:#4A4A4A;}
	.st4{fill-rule:evenodd;clip-rule:evenodd;fill:#4A4A4A;}
</style>
<g>
	<rect x="0.1" y="0.1" class="st0" width="23.9" height="167.9"/>
	<rect x="0.1" y="96.1" class="st1" width="11.9" height="36"/>
	<rect x="12" y="132.1" class="st1" width="11.9" height="36"/>
	<rect x="12" y="96.1" class="st2" width="11.9" height="36"/>
	<rect x="0.1" y="132.1" class="st2" width="11.9" height="36"/>
	<rect x="5.7" y="36.1" class="st2" width="11.9" height="12"/>
	<rect x="0" y="0.1" class="st1" width="12" height="36"/>
	<rect x="0.1" y="0.1" class="st2" width="23.9" height="12.1"/>
	<path class="st3" d="M19.2,28.9H5.2v-3.4l-3.8-4.1V8.9L11.9,2l10.7,6.9l0.2,12.4l-3.6,4.2V28.9z M6.2,27.9h12v-2.8l3.6-4.1
		L21.6,9.5l-9.7-6.3L2.4,9.5v11.5l3.8,4.1V27.9z"/>
	<path class="st3" d="M18.4,68l-3.2-6.7H8.8l-3.1,6.6l-4.5-4.9l1.8-14.3l9.1-5l8.7,5l1.8,14.3L18.4,68z M2.3,62.7l3.2,3.4l2.7-5.9
		h7.7l2.8,5.8l2.9-3.4l-1.7-13.3l-7.8-4.5L4,49.4L2.3,62.7z"/>
	<polygon class="st4" points="17.7,12.7 19.5,14.8 17.7,17.1 16.1,14.9 	"/>
	<polygon class="st4" points="12,15.8 14.2,19.4 12,21.7 9.8,19.5 	"/>
	<polygon class="st4" points="6.2,12.7 8,14.8 6.2,17.1 4.6,14.9 	"/>
	<g>
		<path class="st3" d="M6.2,129.5l-2.3-3l2.3-3l2.4,2.9L6.2,129.5z M5.2,126.5l1,1.4l1.1-1.5l-1.1-1.3L5.2,126.5z"/>
		<path class="st3" d="M6.3,164.9l-2.3-3l2.3-3l2.4,2.9L6.3,164.9z M5.3,161.9l1,1.4l1.1-1.5l-1.1-1.3L5.3,161.9z"/>
		<path class="st3" d="M17.7,129.5l-2.3-3l2.3-3l2.4,2.9L17.7,129.5z M16.7,126.5l1,1.4l1.1-1.5l-1.1-1.3L16.7,126.5z"/>
		<path class="st3" d="M17.9,164.9l-2.3-3l2.3-3l2.4,2.9L17.9,164.9z M16.9,161.9l1,1.4l1.1-1.5l-1.1-1.3L16.9,161.9z"/>
	</g>
	<path class="st4" d="M5,30v4h14v-4H5z M18,33H6v-2h12V33z"/>
	<rect x="10.8" y="35" class="st4" width="2.7" height="2.8"/>
	<rect x="10.8" y="63.9" class="st4" width="2.7" height="2.8"/>
	<rect x="10.8" y="71.3" class="st4" width="2.7" height="2.8"/>
	<rect x="10.8" y="38.8" class="st4" width="2.7" height="2.8"/>
	<rect x="10.8" y="67.6" class="st4" width="2.7" height="2.8"/>
	<rect x="10.8" y="75" class="st4" width="2.7" height="2.8"/>
	<rect x="10.8" y="78.8" class="st4" width="2.7" height="2.8"/>
	<rect x="10.8" y="43.4" class="st4" width="2.7" height="19.5"/>
	<path class="st3" d="M7.4,103.3l-5.1-2.1l-1.9-9.5l-0.1-6.4l2.1-5.1l6.7-0.1l2.9,4.2l3.2-4.1l6.3,0l2.1,5.2l0,6.5l-0.8,3.5l-1,5.8
		l-5,2.1l-2.9-6.8L12,94.4l-2,2.1L7.4,103.3z M12,92.9l2.7,3.2l2.5,5.9l3.6-1.5l0.9-5.3l0.8-3.5v-6.2l-1.7-4.3l-5.2,0L12,86
		l-3.3-4.9l-5.6,0.1l-1.8,4.3l0,6.1l1.9,8.9l3.6,1.5l2.4-6.1L12,92.9z"/>
	<polygon class="st3" points="5.7,123 2.9,103 3.9,102.9 6.7,122.8 	"/>
	<polygon class="st3" points="18.3,123.1 17.3,123 20.2,103 21.2,103.2 	"/>
	<rect x="5.8" y="130.8" class="st3" width="1" height="27.5"/>
	<rect x="17.3" y="130.8" class="st3" width="1" height="27.5"/>
	<rect x="0.2" y="164.8" class="st3" width="5.1" height="1"/>
	<rect x="18.9" y="164.8" class="st3" width="5.1" height="1"/>
</g>
</svg>
