<?xml version="1.0" encoding="utf-8"?>
<!-- Generator: Adobe Illustrator 20.1.0, SVG Export Plug-In . SVG Version: 6.00 Build 0)  -->
<svg version="1.1" xmlns="http://www.w3.org/2000/svg" xmlns:xlink="http://www.w3.org/1999/xlink" x="0px" y="0px"
	 viewBox="0 0 143 56" style="enable-background:new 0 0 143 56;" xml:space="preserve">
<style type="text/css">
	.st0{fill:#FFFFFF;}
	.st1{fill-rule:evenodd;clip-rule:evenodd;fill:#FFFFFF;}
</style>
<g id="Layers">
	<g id="fb">
		<path class="st0" d="M115,56c-15.4,0-28-12.6-28-28S99.6,0,115,0s28,12.6,28,28S130.5,56,115,56z M115,1c-14.9,0-27,12.1-27,27
			s12.1,27,27,27s27-12.1,27-27S129.9,1,115,1z"/>
		<path id="fb-8x15_1_" class="st1" d="M112,41V27.2h-4.8v-3.5h4.8v-3.5c0-2.8,2.5-5.1,5.5-5.1h3.7v3.5h-3.7c-0.9,0-1.7,0.7-1.7,1.5
			v3.5h5.2v3.5h-5.2V41H112z"/>
	</g>
	<g id="vk">
		<path class="st0" d="M28,56C12.6,56,0,43.4,0,28S12.6,0,28,0s28,12.6,28,28S43.4,56,28,56z M28,1C13.1,1,1,13.1,1,28
			s12.1,27,27,27s27-12.1,27-27S42.9,1,28,1z"/>
		<path id="vk-13x8_2_" class="st1" d="M38.2,22.7c0.2-0.5,0-0.9-0.8-0.9h-2.5c-0.6,0-0.9,0.3-1.1,0.7c0,0-1.3,3.2-3.1,5.3
			c-0.6,0.6-0.9,0.8-1.2,0.8c-0.2,0-0.4-0.2-0.4-0.7v-5.1c0-0.7-0.2-0.9-0.7-0.9h-4c-0.4,0-0.6,0.3-0.6,0.6c0,0.6,0.9,0.8,1,2.5v3.8
			c0,0.8-0.1,1-0.5,1c-0.9,0-2.9-3.2-4.2-6.9c-0.2-0.7-0.5-1-1.1-1h-2.5c-0.7,0-0.9,0.3-0.9,0.7c0,0.7,0.9,4.1,4,8.6
			c2.1,3.1,5,4.7,7.7,4.7c1.6,0,1.8-0.4,1.8-1v-2.3c0-0.7,0.2-0.9,0.7-0.9c0.4,0,1,0.2,2.5,1.7c1.7,1.7,2,2.5,2.9,2.5h2.5
			c0.7,0,1.1-0.4,0.9-1.1c-0.2-0.7-1-1.8-2.1-3c-0.6-0.7-1.5-1.5-1.7-1.9c-0.4-0.5-0.3-0.7,0-1.1C34.8,28.7,37.9,24.2,38.2,22.7"/>
	</g>
</g>
<g id="Comments">
</g>
</svg>
