<svg xmlns="http://www.w3.org/2000/svg" viewBox="0 0 90 66"><defs><style>.cls-1{fill:#ff4c6b;}</style></defs><title>tractor-start</title><g id="Слой_2" data-name="Слой 2"><g id="Слой_1-2" data-name="Слой 1"><rect class="cls-1" x="36" width="6" height="6"/><rect class="cls-1" x="36" y="6" width="6" height="6"/><rect class="cls-1" x="36" y="12" width="6" height="6"/><rect class="cls-1" x="36" y="18" width="6" height="6"/><rect class="cls-1" x="36" y="24" width="6" height="6"/><rect class="cls-1" x="30" y="24" width="6" height="6"/><rect class="cls-1" x="24" y="24" width="6" height="6"/><rect class="cls-1" x="18" y="24" width="6" height="6"/><rect class="cls-1" x="12" y="24" width="6" height="6"/><rect class="cls-1" x="66" y="24" width="6" height="6"/><rect class="cls-1" x="78" y="24" width="6" height="6"/><rect class="cls-1" x="60" y="24" width="6" height="6"/><rect class="cls-1" x="54" y="24" width="6" height="6"/><rect class="cls-1" x="48" y="24" width="6" height="6"/><rect class="cls-1" x="42" y="24" width="6" height="6"/><rect class="cls-1" x="36" y="30" width="6" height="6"/><rect class="cls-1" x="30" y="30" width="6" height="6"/><rect class="cls-1" x="24" y="30" width="6" height="6"/><rect class="cls-1" x="18" y="30" width="6" height="6"/><rect class="cls-1" x="12" y="30" width="6" height="6"/><rect class="cls-1" x="66" y="30" width="6" height="6"/><rect class="cls-1" x="72" y="30" width="6" height="6"/><rect class="cls-1" x="60" y="30" width="6" height="6"/><rect class="cls-1" x="54" y="30" width="6" height="6"/><rect class="cls-1" x="48" y="30" width="6" height="6"/><rect class="cls-1" x="42" y="30" width="6" height="6"/><rect class="cls-1" x="36" y="36" width="6" height="6"/><rect class="cls-1" x="30" y="36" width="6" height="6"/><rect class="cls-1" x="24" y="36" width="6" height="6"/><rect class="cls-1" x="18" y="36" width="6" height="6"/><rect class="cls-1" x="12" y="36" width="6" height="6"/><rect class="cls-1" x="78" y="36" width="6" height="6"/><rect class="cls-1" x="60" y="36" width="6" height="6"/><rect class="cls-1" x="54" y="36" width="6" height="6"/><rect class="cls-1" x="48" y="36" width="6" height="6"/><rect class="cls-1" x="42" y="36" width="6" height="6"/><rect class="cls-1" x="30" y="42" width="6" height="6"/><rect class="cls-1" x="18" y="42" width="6" height="6"/><rect class="cls-1" x="12" y="42" width="6" height="6"/><rect class="cls-1" x="6" y="42" width="6" height="6"/><rect class="cls-1" x="72" y="42" width="6" height="6"/><rect class="cls-1" x="84" y="42" width="6" height="6"/><rect class="cls-1" x="66" y="42" width="6" height="6"/><rect class="cls-1" x="54" y="42" width="6" height="6"/><rect class="cls-1" x="42" y="42" width="6" height="6"/><rect class="cls-1" x="36" y="48" width="6" height="6"/><rect class="cls-1" x="30" y="48" width="6" height="6"/><rect class="cls-1" x="24" y="48" width="6" height="6"/><rect class="cls-1" x="18" y="48" width="6" height="6"/><rect class="cls-1" y="48" width="6" height="6"/><rect class="cls-1" x="72" y="48" width="6" height="6"/><rect class="cls-1" x="84" y="48" width="6" height="6"/><rect class="cls-1" x="66" y="48" width="6" height="6"/><rect class="cls-1" x="54" y="48" width="6" height="6"/><rect class="cls-1" x="48" y="48" width="6" height="6"/><rect class="cls-1" x="42" y="48" width="6" height="6"/><rect class="cls-1" x="18" y="54" width="6" height="6"/><rect class="cls-1" y="54" width="6" height="6"/><rect class="cls-1" x="78" y="54" width="6" height="6"/><rect class="cls-1" x="60" y="54" width="6" height="6"/><rect class="cls-1" x="12" y="60" width="6" height="6"/><rect class="cls-1" x="6" y="60" width="6" height="6"/><rect class="cls-1" x="66" y="60" width="6" height="6"/><rect class="cls-1" x="72" y="60" width="6" height="6"/></g></g></svg>