<?xml version="1.0" encoding="utf-8"?>
<!-- Generator: Adobe Illustrator 20.1.0, SVG Export Plug-In . SVG Version: 6.00 Build 0)  -->
<svg version="1.1" id="Слой_1" xmlns="http://www.w3.org/2000/svg" xmlns:xlink="http://www.w3.org/1999/xlink" x="0px" y="0px"
	 viewBox="0 0 1460 721" style="enable-background:new 0 0 1460 721;" xml:space="preserve">
<style type="text/css">
	.st0{fill:#959595;}
</style>
<g>
	<polygon class="st0" points="1141,281 1141,301 1280,301 1280,221.2 1140.5,220.1 1140.3,240.1 1260,241 1260,281 	"/>
	<polygon class="st0" points="442,560 760,560 1079,560 1099,560 1099,181 1320,181 1320,341 1120,341 1120,560 1180.2,560 
		1180.3,381 1160.3,381 1159.3,540 1141,540 1141,361 1340,361 1340,161 1079,161 1079,540.6 780,540 780,181 1021,181 1021,222 
		820,222 820,500 1062,500 1062,480 840,480 840,242 1041,242 1041,181 1041,161 760,161 760,540 461,540 461,181 700.4,181 
		700.5,222 500,222 500,500 741,500 741,480 520,480 520,242 721.2,242 721.2,167.3 721,167.2 721,161 441,161 441,540 141,540 
		141,181 381,181 381,221 180,221 180,500 421,500 421,480 200,480 200,241 400,241 400,161 121,161 121,560 441,560 	"/>
	<path class="st0" d="M0,0v720h1460V0H0z M1440,41H120v20h1320v19H120v20h1320v21H120v20h1320v559h-19V160h-20v540h-20V160h-20v540
		h-20V381h-20v319H101V40H81v660H61V40H41v660H20V20h1420V41z"/>
	<polygon class="st0" points="1220,381 1200,381 1200,581 121,581 121,601 1220,601 	"/>
	<polygon class="st0" points="1260,381 1240,381 1240,620 120,620 120,640 1260,640 	"/>
	<polygon class="st0" points="1280,661 121,661 121,681 1300,681 1300,381 1280,381 	"/>
</g>
</svg>
