<svg id="Layer_1" data-name="Layer 1" xmlns="http://www.w3.org/2000/svg" viewBox="0 0 269.23 58"><defs><style>.cls-1{fill:white;}#_Path_ {fill: white}#_Path_2 {fill: white}#_Path_3 {fill: white}#_Path_4 {fill: white}#_Path_5 {fill: white}#_Path_6 {fill: white}#_Path_7 {fill: white}#_Path_8 {fill: white}#_Path_9 {fill: white}#_Compound_Path_10{fill: white}#_Compound_Path_9{fill: white}#_Compound_Path_8{fill: white}#_Compound_Path_7{fill: white}#_Compound_Path_6{fill: white}#_Compound_Path_5{fill: white}#_Compound_Path_4{fill: white}#_Compound_Path_3{fill: white}#_Compound_Path_2{fill: white}#_Compound_Path_{fill: white}</style></defs><title>yandex_press_logo_rgb</title><g id="_Group_" data-name="&lt;Group&gt;"><path id="_Path_" data-name="&lt;Path&gt;" d="M10.51,34.66a26.86,26.86,0,0,0-1,3H9.32c.07-.74.15-1.89.15-3.22V14.88H7.66V41.36H9.47l7.74-19.78a21.74,21.74,0,0,0,1-2.89h.15c-.07.78-.15,1.93-.15,3.07v19.6H20V14.88H18.25Z"/><path id="_Path_2" data-name="&lt;Path&gt;" d="M29.18,31.4A4.68,4.68,0,0,0,32,26.92c0-2.74-1.56-4.59-4.48-4.59a5.06,5.06,0,0,0-4.19,2L23.73,26a4.54,4.54,0,0,1,3.74-2.11c1.82,0,2.82,1.22,2.82,3.11,0,2.56-1.52,3.85-3.67,3.85H25.25v1.41h1.56c2.78,0,3.93,1.59,3.93,3.93,0,2.7-1.56,4.07-3.48,4.07a4.7,4.7,0,0,1-3.82-2l-.59,1.44a5.56,5.56,0,0,0,4.45,2.07c2.85,0,5.22-2,5.22-5.63A4.76,4.76,0,0,0,29.18,31.4Z"/><path id="_Compound_Path_" data-name="&lt;Compound Path&gt;" d="M45.37,22.69H37.29s-.07,6-.56,10.56c-.37,3.52-1.07,6.07-2.22,6.7h-.78V45h1.37l.22-3.67H45.48L45.7,45h1.37V40h-1.7ZM43.59,40H36.48c1-1.11,1.44-3.19,1.78-6.3.48-4.33.59-9.56.59-9.56h4.74Z"/><path id="_Compound_Path_2" data-name="&lt;Compound Path&gt;" d="M58.89,27.73c0-3.7-1.74-5.41-4.82-5.41a5.56,5.56,0,0,0-4.41,1.89l.48,1.67a4.7,4.7,0,0,1,3.93-2c2,0,3.11,1.22,3.11,4.07v2.33h-2c-4,0-6.22,2.07-6.22,6.08,0,3.41,1.74,5.41,4.26,5.41a4.52,4.52,0,0,0,4.07-2.89,11.16,11.16,0,0,0,.44,2.52h1.59a13.67,13.67,0,0,1-.41-3.44Zm-1.7,8.93c-.67,2-1.89,3.67-3.63,3.67s-2.93-1.52-2.93-4.15c0-3.26,1.48-4.67,4.56-4.67h2Z"/><polygon id="_Path_3" data-name="&lt;Path&gt;" points="61.18 24.14 65.52 24.14 65.52 41.36 67.26 41.36 67.26 24.14 71.56 24.14 71.56 22.7 61.18 22.7 61.18 24.14"/><path id="_Compound_Path_3" data-name="&lt;Compound Path&gt;" d="M78.11,22.32c-3.15,0-5.45,3.59-5.45,9.71s1.82,9.71,5.78,9.71a5.39,5.39,0,0,0,4.37-2.11l-.56-1.41a4.76,4.76,0,0,1-3.78,2c-2.7,0-4-2.78-4.11-7.89h8.45C83.41,25.7,81.34,22.32,78.11,22.32ZM81.19,31H74.41c.15-4.67,1.74-7.19,3.7-7.19S81.48,26,81.19,31Z"/><path id="_Path_4" data-name="&lt;Path&gt;" d="M87.11,34.7c-.26,3.37-1,5.19-2.11,5.19a2,2,0,0,1-.82-.11l.15,1.56a2,2,0,0,0,.74.15c2.44,0,3.11-2.37,3.56-6.59.3-2.93.52-10.82.52-10.82h4.52v17.3h1.74V22.69H87.63S87.33,31.7,87.11,34.7Z"/><path id="_Compound_Path_4" data-name="&lt;Compound Path&gt;" d="M102.3,29.62h-1.37V22.69H99.19V41.36h3c3.52,0,6-2,6-5.93S105.86,29.62,102.3,29.62ZM102,40h-1.11V31h1.3c2.67,0,4.22,1.33,4.22,4.48S104.67,40,102,40Z"/><path id="_Path_5" data-name="&lt;Path&gt;" d="M116.38,40.22c-2.89,0-4.19-3-4.19-8.15s1.33-8.26,4.19-8.26A4.44,4.44,0,0,1,120,25.92l.48-1.85a5,5,0,0,0-4.07-1.74c-3.82,0-5.93,3.59-5.93,9.74s2.15,9.67,5.89,9.67a5.27,5.27,0,0,0,4.3-2.07l-.56-1.44A4.71,4.71,0,0,1,116.38,40.22Z"/><polygon id="_Path_6" data-name="&lt;Path&gt;" points="122.27 24.14 126.6 24.14 126.6 41.36 128.34 41.36 128.34 24.14 132.64 24.14 132.64 22.7 122.27 22.7 122.27 24.14"/><path id="_Compound_Path_5" data-name="&lt;Compound Path&gt;" d="M141.57,31.47a4.36,4.36,0,0,0,2.63-4.26c0-3-1.78-4.52-5.07-4.52h-3.93V41.36h4c3.52,0,5.85-1.7,5.85-5.37A4.33,4.33,0,0,0,141.57,31.47Zm-4.67-7.41H139c2.15,0,3.48.85,3.48,3.22,0,2.59-1.44,3.7-3.48,3.7H136.9Zm2.3,16h-2.3V32.29h2.26c2.7,0,4.15,1.11,4.15,3.81C143.31,39,141.6,40,139.19,40Z"/><path id="_Compound_Path_6" data-name="&lt;Compound Path&gt;" d="M152.9,22.32c-3.22,0-5.7,3.59-5.7,9.82s2.48,9.59,5.7,9.59,5.7-3.63,5.7-9.82C158.6,25.51,156.12,22.32,152.9,22.32Zm0,18c-2.19,0-4-2.48-4-8.3s1.78-8.26,4-8.26,4,2.41,4,8.26C156.86,37.66,155.09,40.33,152.9,40.33Z"/><path id="_Compound_Path_7" data-name="&lt;Compound Path&gt;" class="cls-1" d="M167.46,23.21c0,4,1.56,6.11,3.89,7.3l-5,10.85h3.3l4.52-10.15h2.37V41.36h2.85V14.88h-4.26C171,14.88,167.46,17.66,167.46,23.21Zm9.11,5.63h-1.52c-2.48,0-4.52-1.37-4.52-5.63s2.22-5.93,4.52-5.93h1.52Z"/><polygon id="_Path_7" data-name="&lt;Path&gt;" points="233.8 22.7 230.88 22.7 226.39 31.32 226.39 22.7 223.5 22.7 223.5 41.36 226.39 41.36 226.39 32.07 231.32 41.36 234.47 41.36 229.17 31.47 233.8 22.7"/><path id="_Compound_Path_8" data-name="&lt;Compound Path&gt;" d="M216.24,39.14c-2.3,0-3.48-2.22-3.48-6.45h7.78V31.1c0-6.33-2-8.67-5.15-8.67-4,0-5.63,4.37-5.63,10.37,0,5.74,2.37,8.82,6.22,8.82a7.35,7.35,0,0,0,4.59-1.52l-.67-2.22A6.47,6.47,0,0,1,216.24,39.14Zm-.85-14.34c1.67,0,2.19,2.33,2.19,5.52H212.8C213,27,213.61,24.81,215.39,24.81Z"/><path id="_Path_8" data-name="&lt;Path&gt;" d="M241.32,39.22c-2.33,0-3.44-2.67-3.44-7.33s1.48-7,3.56-7a4.94,4.94,0,0,1,3.07,1.3l.41-2.74a5.87,5.87,0,0,0-3.44-1c-4.37,0-6.63,3.74-6.63,9.59,0,6.37,2.41,9.59,6.41,9.59a5.65,5.65,0,0,0,3.89-1.41l-.67-2.15A4.72,4.72,0,0,1,241.32,39.22Z"/><polygon id="_Path_9" data-name="&lt;Path&gt;" points="190.31 30.62 186.02 30.62 186.02 22.7 183.13 22.7 183.13 41.36 186.02 41.36 186.02 32.99 190.31 32.99 190.31 41.36 193.17 41.36 193.17 22.7 190.31 22.7 190.31 30.62"/><path id="_Compound_Path_9" data-name="&lt;Compound Path&gt;" d="M206.54,22.69h-8.67v1.59c0,5-.19,10.74-1.89,14.71h-1.15v6h2.59V41.36h8V45H208V39h-1.48ZM203.69,39h-5c1.56-4,1.74-9.71,1.74-13.63V25h3.22Z"/><path id="_Compound_Path_10" data-name="&lt;Compound Path&gt;" d="M257.32,37.14V28.36c0-4.52-1.81-5.93-5.11-5.93a7.43,7.43,0,0,0-4.44,1.48l.56,2.56a5.7,5.7,0,0,1,3.7-1.63c1.63,0,2.44,1,2.44,3.48v1.11h-.41c-5.22,0-7.26,2.52-7.26,6.52,0,3.67,1.82,5.67,4.48,5.67a4.14,4.14,0,0,0,3.48-1.74H255a8.87,8.87,0,0,0,.26,1.48h2.44A26.88,26.88,0,0,1,257.32,37.14Zm-2.85.56A3.19,3.19,0,0,1,252,39.18c-1.48,0-2.19-1.41-2.19-3.56,0-2.41.78-4,4.37-4h.33Z"/></g></svg>