<?xml version="1.0" encoding="UTF-8"?>
<svg width="235px" height="248px" viewBox="0 0 235 248" version="1.1" xmlns="http://www.w3.org/2000/svg" xmlns:xlink="http://www.w3.org/1999/xlink">
    <!-- Generator: Sketch 47.1 (45422) - http://www.bohemiancoding.com/sketch -->
    <title>19_emoji_cry</title>
    <desc>Created with Sketch.</desc>
    <defs></defs>
    <g id="Page-1" stroke="none" stroke-width="1" fill="none" fill-rule="evenodd">
        <g id="19_Boldyrev_desktop" transform="translate(-301.000000, -464.000000)">
            <g id="Group-2" transform="translate(301.000000, 464.000000)">
                <g id="Page-1">
                    <g id="Group-3" fill="#F7C155">
                        <path d="M234.575817,117.316903 C234.575817,52.5425624 182.065996,0.0287973621 117.287711,0.0287973621 C52.5133705,0.0287973621 -0.000394484412,52.5425624 -0.000394484412,117.316903 C-0.000394484412,182.095188 52.5133705,234.605008 117.287711,234.605008 C182.065996,234.605008 234.575817,182.095188 234.575817,117.316903" id="Fill-1"></path>
                    </g>
                    <path d="M125,169.024 C125,169.016 125,169.008 125,169 C125,169.008 125,169.016 125,169.024" id="Fill-4" fill="#28241B"></path>
                    <path d="M125.02,169.404 C125.016,169.268 125.008,169.14 125,169 C125.008,169.144 125.016,169.276 125.02,169.404" id="Fill-6" fill="#28241B"></path>
                    <path d="M88.394696,190.546384 C106.030427,188.19172 123.910715,188.321877 141.510946,190.928968 C144.922913,191.433821 148.19288,189.197481 148.82794,185.813391 C148.855551,185.683233 148.875273,185.553076 148.89894,185.426863 C149.537945,182.042772 147.080539,178.741509 143.396403,178.193271 C124.608886,175.412637 105.52159,175.274591 86.6906845,177.787022 C82.9986594,178.280042 80.4978646,181.545808 81.0855908,184.937787 C81.1092577,185.064 81.12898,185.194157 81.1526469,185.324314 C81.7403731,188.720237 84.9748395,190.996019 88.394696,190.546384" id="Fill-8" fill="#FEFEFE"></path>
                    <path d="M137,118 C137,124.628571 142.373682,130 149,130 C155.626318,130 161,124.628571 161,118 C161,111.371429 155.626318,106 149,106 C142.373682,106 137,111.371429 137,118" id="Fill-10" fill="#FEFEFE"></path>
                    <path d="M68,118 C68,124.628571 73.3705152,130 79.9979595,130 C86.6254038,130 92,124.628571 92,118 C92,111.371429 86.6254038,106 79.9979595,106 C73.3705152,106 68,111.371429 68,118" id="Fill-12" fill="#FEFEFE"></path>
                    <path d="M112.067789,186.881755 C121.529211,186.881755 130.990633,187.576603 140.381006,188.970247 C142.500649,189.238711 144.505823,187.880599 144.8887,185.84343 C145.129479,184.556382 144.912384,183.616758 144.351882,182.827158 C143.704542,181.91517 142.705903,181.32297 141.537533,181.153206 C122.962042,178.397501 104.106301,178.263269 85.4873907,180.746561 C84.3150744,180.904481 83.3085401,181.484838 82.6454117,182.377086 C82.0730687,183.166686 81.8441315,184.098414 82.0020192,185.010402 C82.4164745,187.434475 84.4413846,188.871547 86.5333969,188.575447 C95.0080206,187.446319 103.537905,186.881755 112.067789,186.881755 M140.996768,194 C140.554682,194 140.104702,193.964468 139.654722,193.9013 C122.255495,191.315359 104.603647,191.196919 87.188631,193.518344 L87.1846838,193.522292 C82.4322632,194.153972 77.9758822,190.960039 77.1588132,186.246127 C76.7009388,183.600966 77.2456514,181.319022 78.6311162,179.427929 C80.0797361,177.457877 82.3414778,176.139245 84.8282095,175.803665 C103.908941,173.269048 123.234399,173.40328 142.263817,176.222153 C144.750549,176.589317 146.988607,177.939533 148.409597,179.929325 C149.763484,181.840158 150.280566,184.133946 149.854269,186.392203 C148.989834,190.995571 145.255789,194 140.996768,194" id="Fill-14" fill="#28241B"></path>
                    <path d="M147,109.949475 C142.010638,109.949475 137.946249,114.005458 137.946249,119.001959 C137.946249,123.986704 142.010638,128.050525 147,128.050525 C151.993281,128.050525 156.053751,123.986704 156.053751,119.001959 C156.053751,114.005458 151.993281,109.949475 147,109.949475 M147,133 C139.278835,133 133,126.718125 133,119.001959 C133,111.281875 139.278835,105 147,105 C154.721165,105 161,111.281875 161,119.001959 C161,126.718125 154.721165,133 147,133" id="Fill-16" fill="#28241B"></path>
                    <path d="M80,109.949475 C75.0106383,109.949475 70.950168,114.005458 70.950168,119.001959 C70.950168,123.986704 75.0106383,128.050525 80,128.050525 C84.9893617,128.050525 89.0537514,123.986704 89.0537514,119.001959 C89.0537514,114.005458 84.9893617,109.949475 80,109.949475 M80,133 C72.2788354,133 66,126.718125 66,119.001959 C66,111.281875 72.2788354,105 80,105 C87.7211646,105 94,111.281875 94,119.001959 C94,126.718125 87.7211646,133 80,133" id="Fill-18" fill="#28241B"></path>
                    <path d="M137.438217,83 C136.870548,83 136.294769,82.8251569 135.82036,82.4680306 C134.668803,81.6086954 133.671327,80.794001 132.819824,80.0760283 C131.781801,79.1906526 131.720979,77.7026263 132.686016,76.7540095 C133.642944,75.7979526 135.260801,75.7458716 136.298824,76.6275272 C137.081396,77.293419 137.997776,78.0374322 139.060128,78.8372463 C140.154918,79.6556608 140.317109,81.136247 139.421003,82.1406648 C138.918211,82.7098349 138.180241,83 137.438217,83" id="Fill-20" fill="#28241B"></path>
                    <path d="M150.285469,91.6386611 C149.924968,91.6386611 149.56037,91.565652 149.212158,91.4196336 C147.172049,90.5435232 145.177003,89.5636629 143.272081,88.5107935 C142.0431,87.8306552 141.633439,86.3397305 142.358538,85.1869537 C143.083638,84.0341769 144.677217,83.6614458 145.898005,84.3338989 C147.565323,85.2561203 149.384216,86.1552862 151.362876,87.0044985 C152.6615,87.5616739 153.230928,89.0026449 152.63692,90.2207457 C152.20268,91.1122264 151.268654,91.6386611 150.285469,91.6386611 M165.418327,96 C165.274946,96 165.127468,95.9923148 164.97999,95.9692593 C162.780114,95.6157411 160.580237,95.1469452 158.437713,94.5859271 C157.061253,94.2208812 156.262415,92.8759749 156.655689,91.5887075 C157.04077,90.2937549 158.482775,89.54445 159.842848,89.9133386 C161.932116,90.4666714 163.943549,90.8816711 165.848471,91.181393 C167.257703,91.4081058 168.204018,92.6607899 167.962319,93.9826406 C167.749295,95.1661581 166.655502,96 165.418327,96" id="Fill-22" fill="#28241B"></path>
                    <path d="M175.080625,97 C174.812134,97 174.540015,97 174.26064,96.9922069 C172.994381,96.9727243 171.982099,95.8583155 172.00024,94.498425 C172.018381,93.1463276 173.070574,92.1955733 174.32232,92.0747807 C175.563182,92.105953 176.640773,92.0669876 177.598631,92.0163327 C178.835864,91.8487817 179.935224,92.9943628 179.996904,94.3503567 C180.062213,95.7063506 179.086213,96.8597248 177.823582,96.9259658 C176.999969,96.9688277 176.08565,97 175.080625,97" id="Fill-24" fill="#28241B"></path>
                    <path d="M95.5629423,83 C94.8205822,83 94.0863352,82.7098294 93.5792586,82.1406485 C92.6827471,81.1399318 92.8450116,79.6593175 93.9402971,78.8371674 C94.9990731,78.0373381 95.9158677,77.2970309 96.6947374,76.6311265 C97.7291737,75.745734 99.3477622,75.797816 100.313236,76.7501709 C101.27871,77.7025258 101.217861,79.1905803 100.183425,80.0722527 C99.3355924,80.790239 98.333609,81.608669 97.1815309,82.4680205 C96.7069072,82.8251536 96.1349248,83 95.5629423,83" id="Fill-26" fill="#28241B"></path>
                    <path d="M83.7148637,91.6405224 C82.731718,91.6405224 81.7977296,91.1143123 81.3594104,90.223212 C80.769523,89.005631 81.3389282,87.565275 82.6374998,87.0083373 C84.6160806,86.1594875 86.4349001,85.2607053 88.1021514,84.3388774 C89.3310835,83.6551884 90.916406,84.0392834 91.6414759,85.1915682 C92.3665459,86.343853 91.9569019,87.8341414 90.7279697,88.5139895 C88.8231249,89.5664096 86.8281584,90.5458518 84.7881311,91.4215882 C84.4399336,91.5675443 84.071254,91.6405224 83.7148637,91.6405224 M68.5826127,96 C67.3413912,96 66.2476416,95.166514 66.0387232,93.9835015 C65.7929368,92.6622149 66.7433109,91.4100654 68.14839,91.1834494 C70.0573313,90.8838553 72.0686835,90.4690328 74.1619646,89.919777 C75.5301757,89.5664096 76.9680263,90.3115538 77.3489952,91.6021129 C77.7381571,92.8888309 76.9311583,94.2293223 75.5547543,94.5903715 C73.4000267,95.1511502 71.2002381,95.6159051 69.0168354,95.9692724 C68.8693635,95.9923181 68.7259881,96 68.5826127,96" id="Fill-28" fill="#28241B"></path>
                    <path d="M57.9207676,97 C56.9161965,97 55.998664,96.9688115 55.17905,96.9259274 C53.9169895,96.859652 52.9378046,95.7056792 53.0030836,94.3489815 C53.064736,92.9922837 54.1418393,91.8617023 55.4002732,92.013746 C56.361325,92.0605287 57.4456816,92.0956157 58.6787292,92.0722244 C59.8936438,92.2203695 60.981627,93.1443275 60.99976,94.4971266 C61.0178931,95.8577229 60.0060687,96.9727101 58.7440082,96.9922029 C58.4611326,97 58.1891368,97 57.9207676,97" id="Fill-30" fill="#28241B"></path>
                    <path d="M55.5,144.499246 C54.1172742,144.499246 53,143.382393 53,142.000189 L53,134.499057 C53,133.116853 54.1172742,132 55.5,132 C56.8827258,132 58,133.116853 58,134.499057 L58,142.000189 C58,143.382393 56.8827258,144.499246 55.5,144.499246 M55.5,163.002565 C54.1172742,163.002565 53,161.885712 53,160.499547 L53,152.998416 C53,151.620172 54.1172742,150.503319 55.5,150.503319 C56.8827258,150.503319 58,151.620172 58,152.998416 L58,160.499547 C58,161.885712 56.8827258,163.002565 55.5,163.002565 M55.5,181.501924 C54.1172742,181.501924 53,180.385071 53,179.002867 L53,171.501735 C53,170.119531 54.1172742,169.002678 55.5,169.002678 C56.8827258,169.002678 58,170.119531 58,171.501735 L58,179.002867 C58,180.385071 56.8827258,181.501924 55.5,181.501924 M55.5,199.997322 C54.1172742,199.997322 53,198.876509 53,197.498265 L53,189.997133 C53,188.61889 54.1172742,187.494116 55.5,187.494116 C56.8827258,187.494116 58,188.61889 58,189.997133 L58,197.498265 C58,198.876509 56.8827258,199.997322 55.5,199.997322 M55.5,218.500641 C54.1172742,218.500641 53,217.379828 53,216.001584 L53,208.496492 C53,207.118248 54.1172742,205.997435 55.5,205.997435 C56.8827258,205.997435 58,207.118248 58,208.496492 L58,216.001584 C58,217.379828 56.8827258,218.500641 55.5,218.500641 M55.5,237 C54.1172742,237 53,235.883147 53,234.500943 L53,226.999811 C53,225.617607 54.1172742,224.500754 55.5,224.500754 C56.8827258,224.500754 58,225.617607 58,226.999811 L58,234.500943 C58,235.883147 56.8827258,237 55.5,237" id="Fill-32" fill="#0099BD"></path>
                    <path d="M68.5,155.499246 C67.1172742,155.499246 66,154.382393 66,153.000189 L66,145.499057 C66,144.116853 67.1172742,143 68.5,143 C69.8827258,143 71,144.116853 71,145.499057 L71,153.000189 C71,154.382393 69.8827258,155.499246 68.5,155.499246 M68.5,174.002565 C67.1172742,174.002565 66,172.881752 66,171.499547 L66,163.998416 C66,162.620172 67.1172742,161.503319 68.5,161.503319 C69.8827258,161.503319 71,162.620172 71,163.998416 L71,171.499547 C71,172.881752 69.8827258,174.002565 68.5,174.002565 M68.5,192.501924 C67.1172742,192.501924 66,191.385071 66,190.002867 L66,182.501735 C66,181.119531 67.1172742,180.002678 68.5,180.002678 C69.8827258,180.002678 71,181.119531 71,182.501735 L71,190.002867 C71,191.385071 69.8827258,192.501924 68.5,192.501924 M68.5,210.997322 C67.1172742,210.997322 66,209.876509 66,208.498265 L66,200.997133 C66,199.61889 67.1172742,198.494116 68.5,198.494116 C69.8827258,198.494116 71,199.61889 71,200.997133 L71,208.498265 C71,209.876509 69.8827258,210.997322 68.5,210.997322 M68.5,229.500641 C67.1172742,229.500641 66,228.379828 66,227.001584 L66,219.496492 C66,218.118248 67.1172742,216.997435 68.5,216.997435 C69.8827258,216.997435 71,218.118248 71,219.496492 L71,227.001584 C71,228.379828 69.8827258,229.500641 68.5,229.500641 M68.5,248 C67.1172742,248 66,246.879187 66,245.500943 L66,237.999811 C66,236.617607 67.1172742,235.500754 68.5,235.500754 C69.8827258,235.500754 71,236.617607 71,237.999811 L71,245.500943 C71,246.879187 69.8827258,248 68.5,248" id="Fill-34" fill="#0099BD"></path>
                </g>
            </g>
        </g>
    </g>
</svg>