<?xml version="1.0" encoding="UTF-8"?>
<svg width="48px" height="48px" viewBox="0 0 48 48" version="1.1" xmlns="http://www.w3.org/2000/svg" xmlns:xlink="http://www.w3.org/1999/xlink">
    <!-- Generator: Sketch 47.1 (45422) - http://www.bohemiancoding.com/sketch -->
    <title>browser_issue_emoji</title>
    <desc>Created with Sketch.</desc>
    <defs>
        <polygon id="path-1" points="0 46.9040807 0 0.419011882 47.57104 0.419011882 47.57104 46.9040807"></polygon>
    </defs>
    <g id="Page-1" stroke="none" stroke-width="1" fill="none" fill-rule="evenodd">
        <g id="iPad" transform="translate(-644.000000, -397.000000)">
            <g id="Group-2" transform="translate(244.000000, 251.000000)">
                <g id="Group" transform="translate(400.000000, 146.000000)">
                    <g id="Page-1">
                        <g id="Group-3" transform="translate(0.000000, 0.363118)">
                            <mask id="mask-2" fill="white">
                                <use xlink:href="#path-1"></use>
                            </mask>
                            <g id="Clip-2"></g>
                            <path d="M47.57104,23.661429 C47.57104,10.8252814 36.92224,0.418777361 23.78544,0.418777361 C10.64944,0.418777361 -0.00016,10.8252814 -0.00016,23.661429 C-0.00016,36.4983583 10.64944,46.9040807 23.78544,46.9040807 C36.92224,46.9040807 47.57104,36.4983583 47.57104,23.661429" id="Fill-1" fill="#F7C155" mask="url(#mask-2)"></path>
                        </g>
                        <path d="M24.87376,33.8079894 C24.87376,33.8060663 24.87376,33.8041432 24.87376,33.8022201 C24.87376,33.8041432 24.87376,33.8060663 24.87376,33.8079894" id="Fill-4" fill="#28241B"></path>
                        <path d="M24.88844,34.0367417 C24.88744,34.0040494 24.88644,33.9732802 24.88344,33.9405879 C24.88644,33.9742417 24.88744,34.0059725 24.88844,34.0367417" id="Fill-6" fill="#28241B"></path>
                        <path d="M24.86592,36.1249844 C24.86592,36.1230613 24.86592,36.1211382 24.86592,36.1192151 C24.86592,36.1211382 24.86592,36.1230613 24.86592,36.1249844" id="Fill-8" fill="#28241B"></path>
                        <path d="M24.8806,36.3537367 C24.8796,36.3210444 24.8776,36.2893136 24.8756,36.2575829 C24.8776,36.2912367 24.8796,36.3229675 24.8806,36.3537367" id="Fill-10" fill="#28241B"></path>
                        <path d="M37.14912,16.4265947 C37.24112,15.9083021 36.81872,15.4392589 36.28112,15.4619293 L23.90032,15.980222 C23.62832,15.980222 23.43152,16.201454 23.43472,16.4539556 L23.10752,16.4539556 C23.11072,16.201454 22.91472,15.980222 22.64192,15.980222 L10.22432,15.4603659 C9.47792,15.429878 8.90592,16.0990463 9.06992,16.8104284 L10.72912,23.9836617 C10.77312,24.2025485 10.96992,24.3604597 11.19792,24.3604597 L20.21552,24.4878831 C20.43632,24.4878831 20.62832,24.3401345 20.68032,24.1298468 L23.00352,16.8800031 L23.53872,16.8800031 L25.86192,24.1298468 C25.91392,24.3401345 26.10592,24.4878831 26.32672,24.4878831 L35.34432,24.3604597 C35.57312,24.3604597 35.76912,24.2025485 35.81392,23.9836617 L37.14912,16.4265947 Z" id="Fill-12" fill="#FEFEFE"></path>
                        <path d="M23.39952,32.2896341 C18.43792,32.2896341 14.80272,31.6189024 12.44832,30.8137117 C12.39312,30.79495 12.33712,30.8387273 12.34432,30.8950125 C12.89712,35.2930738 17.56032,38.7272514 23.23152,38.7272514 C28.95472,38.7272514 33.65072,35.2305347 34.13312,30.7754065 C34.13952,30.7167761 34.07952,30.6745622 34.02432,30.6972326 C31.76272,31.6454816 28.49712,32.2896341 23.39952,32.2896341" id="Fill-14" fill="#FEFEFE"></path>
                        <path d="M16.10928,23.1252345 C15.83008,23.1252345 15.60448,22.9047842 15.60448,22.6319575 L15.60448,17.4083802 C15.60448,17.1355535 15.83008,16.9151032 16.10928,16.9151032 C16.38848,16.9151032 16.61408,17.1355535 16.61408,17.4083802 L16.61408,22.6319575 C16.61408,22.9047842 16.38848,23.1252345 16.10928,23.1252345" id="Fill-16" fill="#28241B"></path>
                        <path d="M18.7816,20.5132114 L13.436,20.5132114 C13.1576,20.5132114 12.9312,20.2927611 12.9312,20.0199343 C12.9312,19.7471076 13.1576,19.5266573 13.436,19.5266573 L18.7816,19.5266573 C19.0608,19.5266573 19.2864,19.7471076 19.2864,20.0199343 C19.2864,20.2927611 19.0608,20.5132114 18.7816,20.5132114" id="Fill-18" fill="#28241B"></path>
                        <path d="M30.564,23.1252345 C30.2848,23.1252345 30.0592,22.9047842 30.0592,22.6319575 L30.0592,17.4083802 C30.0592,17.1355535 30.2848,16.9151032 30.564,16.9151032 C30.8432,16.9151032 31.0688,17.1355535 31.0688,17.4083802 L31.0688,22.6319575 C31.0688,22.9047842 30.8432,23.1252345 30.564,23.1252345" id="Fill-20" fill="#28241B"></path>
                        <path d="M33.23664,20.5132114 L27.89104,20.5132114 C27.61184,20.5132114 27.38624,20.2927611 27.38624,20.0199343 C27.38624,19.7471076 27.61184,19.5266573 27.89104,19.5266573 L33.23664,19.5266573 C33.51584,19.5266573 33.74144,19.7471076 33.74144,20.0199343 C33.74144,20.2927611 33.51584,20.5132114 33.23664,20.5132114" id="Fill-22" fill="#28241B"></path>
                        <path d="M34.0148,31.1502502 C34.0148,31.1510319 34.0132,31.1510319 34.0124,31.1510319 C34.0132,31.1510319 34.0148,31.1510319 34.0148,31.1502502 M12.7524,31.4981238 C13.642,35.3818011 17.9172,38.2335835 23.022,38.2335835 C28.0948,38.2335835 32.4476,35.2958099 33.3052,31.4262039 C30.7644,32.3392745 27.4444,32.7833021 23.1892,32.7833021 C18.2164,32.7833021 14.8444,32.1274234 12.7524,31.4981238 M23.022,39.2201376 C17.1212,39.2201376 12.2252,35.6671357 11.6332,30.9548155 L11.5988,30.6819887 L11.8476,30.4412133 C12.0052,30.3169168 12.2148,30.2833021 12.4068,30.3489681 C14.3372,31.0087555 17.7772,31.7959662 23.1892,31.7959662 C27.7124,31.7959662 31.1228,31.2878361 33.6148,30.2442151 L33.8812,30.1324265 L34.1916,30.3090994 C34.358,30.4287054 34.4476,30.627267 34.4252,30.8281739 C33.9076,35.612414 29.0044,39.2201376 23.022,39.2201376" id="Fill-24" fill="#28241B"></path>
                    </g>
                </g>
            </g>
        </g>
    </g>
</svg>