<?xml version="1.0" encoding="utf-8"?>
<!-- Generator: Adobe Illustrator 21.1.0, SVG Export Plug-In . SVG Version: 6.00 Build 0)  -->
<svg version="1.1" id="Layer_1" xmlns="http://www.w3.org/2000/svg" xmlns:xlink="http://www.w3.org/1999/xlink" x="0px" y="0px"
	 viewBox="0 0 466 190" style="enable-background:new 0 0 466 190;" xml:space="preserve">
<g id="XMLID_1068_">
	<g id="XMLID_1093_">
		<path id="XMLID_1111_" d="M85.8,28.4v0.2c0,0,0-0.1,0-0.1C85.8,28.5,85.8,28.4,85.8,28.4z"/>
		<path id="XMLID_1108_" d="M91,19.2c-2.4,0-4.2,1.1-5.3,2.9l-0.5-2.3h-3.1l0.5,2.4v21.2h3.1v-8.5c1.1,1.8,2.9,2.9,5.3,2.9
			c4.6,0,8.4-4.2,8.4-9.3C99.4,23.4,95.7,19.2,91,19.2z M91,35.1c-3,0-5.2-2.9-5.3-6.5c0,0,0-0.1,0-0.1c0,0,0-0.1,0-0.1
			c0-3.6,2.2-6.5,5.3-6.5c3.1,0,5.3,3,5.3,6.6C96.3,32.2,94.1,35.1,91,35.1z"/>
		<polygon id="XMLID_1107_" points="31.3,14.1 31.3,38 28.1,38 28.1,19 17.7,38 14,38 14,14.1 17.1,14.1 17.1,32.6 28.4,14.1 		"/>
		<polygon id="XMLID_1106_" points="115.7,19.8 115.7,37.5 112.6,37.5 112.6,24.8 105.2,37.5 101.9,37.5 101.9,19.8 105,19.8 
			105,32.6 112.5,19.8 		"/>
		<polygon id="XMLID_1105_" points="132.6,19.8 132.6,19.9 132.6,19.8 		"/>
		<polygon id="XMLID_1104_" points="132.6,19.8 132.6,19.9 132.6,19.8 		"/>
		<g id="XMLID_1102_">
			<polygon id="XMLID_1103_" points="57.6,22.7 57.6,35.1 58.5,38 55.3,38 54.4,35.1 54.4,22.7 51,22.7 51,20 61,20 61,22.7 			"/>
		</g>
		<path id="XMLID_1099_" d="M71,19.4c-4.6,0-8.4,4.2-8.4,9.3c0,5.1,3.8,9.3,8.4,9.3s8.4-4.2,8.4-9.3C79.4,23.5,75.7,19.4,71,19.4z
			 M71,35.3c-3.1,0-5.3-3-5.3-6.6c0-3.7,2.2-6.6,5.3-6.6c3.1,0,5.3,3,5.3,6.6C76.3,32.3,74.1,35.3,71,35.3z"/>
		<path id="XMLID_1097_" d="M47.6,32.4c-0.8,1.7-2.6,3.4-4.7,3.4c-3.1,0-5.3-3.1-5.3-6.7c0-3.7,2.2-6.5,5.3-6.5
			c2.2,0,3.9,1.6,4.7,3.7h3.2c-1.1-3.5-4.3-6.5-8-6.5c-4.6,0-8.4,4.1-8.4,9.2c0,5.1,3.8,9.5,8.4,9.5c3.7,0,6.8-2.6,8-6.1H47.6z"/>
		<path id="XMLID_1094_" d="M132.6,20l-0.3-0.1V20H124c-2.4,0-4.5,2.2-4.5,4.8s1.9,4.8,4.4,4.8h0.1l-4.8,8.3h3.1l4.8-8.3h2.5V38h2.8
			V20H132.6z M123.9,26.9c-0.8,0-1.5-1-1.5-2.1c0-1,0.7-2.1,1.6-2.1h5.6v4.2H123.9z"/>
	</g>
	<g id="XMLID_1075_">
		<path id="XMLID_1090_" d="M323.6,158h-7.7v-8h11.3v-2.4h-14.4v23.7h10.7c0,0,0,0,0.1,0c3.6,0,6.6-3,6.6-6.6
			C330.1,161,327.2,158,323.6,158z M323.5,168.2h-7.6v-7.5h7.7c2,0,3.7,1.7,3.7,3.8C327.2,166.5,325.5,168.2,323.5,168.2z"/>
		<polygon id="XMLID_1089_" points="433.1,153.9 433.1,156.3 426.1,156.3 426.1,171.5 423,171.5 423,153.9 		"/>
		<path id="XMLID_1086_" d="M361,168.9v-15.3h-11.5v11.7h0l-2.1,3.5h-2v6h3.1v-3.5H360v3.5h3.1v-6H361z M357.9,168.9h-7.4l2.1-3.5h0
			V156h5.3V168.9z"/>
		<path id="XMLID_1085_" d="M323.5,171.3L323.5,171.3L323.5,171.3C323.5,171.3,323.5,171.3,323.5,171.3z"/>
		<path id="XMLID_1082_" d="M442.7,153.2c-4.6,0-8.4,4.2-8.4,9.3s3.8,9.3,8.4,9.3c4.6,0,8.4-4.2,8.4-9.3S447.4,153.2,442.7,153.2z
			 M442.7,169.1c-3.1,0-5.3-3-5.3-6.6c0-3.7,2.2-6.6,5.3-6.6c3.1,0,5.3,3,5.3,6.6C448,166.1,445.8,169.1,442.7,169.1z"/>
		<path id="XMLID_1079_" d="M412.6,153.2c-4.3,0-7.8,4.1-7.8,9.2c0,5.1,3.6,9.2,7.9,9.2c2.6,0,4.9-1.3,6.4-3.5l-2.4-1.1
			c-1,1.3-2.5,2-4,2c-3.2,0-4.7-2.1-5-5.1c0-0.1,0-0.2,0-0.2h12.5v-3.1C419.9,155.7,416.8,153.2,412.6,153.2z M407.9,161.2
			c0.4-3.1,2-4.8,4.9-4.8c2.7,0,5,1.6,5.2,4.8H407.9z"/>
		<polygon id="XMLID_1078_" points="345.9,153.9 339.9,171.3 333.8,177.8 330.5,177.8 336.6,171.2 336.6,171.2 330.5,153.9 
			333.6,153.9 338.3,168.7 342.8,153.9 		"/>
		<polygon id="XMLID_1077_" points="379.6,153.9 373.6,171.3 367.5,177.8 364.2,177.8 370.3,171.2 370.3,171.2 364.2,153.9 
			367.3,153.9 371.9,168.7 376.5,153.9 		"/>
		<polygon id="XMLID_1076_" points="403.9,171.5 401.9,175 398.8,175 400.8,171.5 381.8,171.5 381.8,153.9 385,153.9 385,168.4 
			389.8,168.4 389.8,153.9 392.9,153.9 392.9,168.4 397.8,168.4 397.8,153.9 400.9,153.9 400.9,171.5 		"/>
	</g>
	<circle id="XMLID_1070_" cx="180.2" cy="84.7" r="7.8"/>
	<path id="XMLID_1171_" d="M247.3,31.7c-42.4,0-80.7,6.3-107.9,16.4c-1.3-2.4-3.9-4.1-6.8-4.1c-4.3,0-7.8,3.5-7.8,7.8
		c0,0.8,0.1,1.7,0.4,2.4C108,62.8,97.8,73.4,97.8,84.8c0,29.4,66.9,53.2,149.5,53.2c20.6,0,40.2-1.5,58.1-4.2
		c1.1,2.9,3.9,4.9,7.2,4.9c4.2,0,7.6-3.4,7.7-7.5c45.6-9.1,76.4-26.5,76.4-46.4C396.9,55.5,329.9,31.7,247.3,31.7z M383.1,103.1
		c-7.2,6.1-17.7,11.6-31.1,16.3c-9.6,3.4-20.4,6.3-32.1,8.7c-1.1-2.9-3.9-4.9-7.2-4.9c-4.2,0-7.6,3.3-7.7,7.5
		c-18.2,2.7-37.6,4.1-57.6,4.1c-20,0-39.5-1.4-57.7-4.1c-17.6-2.6-33.4-6.4-46.9-11.2c-13.4-4.8-23.8-10.3-31.1-16.3
		c-7.1-5.9-10.6-12.1-10.6-18.3c0-6.2,3.6-12.4,10.6-18.3c4.1-3.4,9.2-6.7,15.2-9.7c1.4,1.6,3.5,2.6,5.8,2.6c4.3,0,7.8-3.5,7.8-7.8
		c0-0.2,0-0.5,0-0.7c0.8-0.3,1.5-0.6,2.3-0.8c13.5-4.8,29.3-8.6,46.9-11.2c18.3-2.7,37.7-4.1,57.7-4.1c20,0,39.5,1.4,57.7,4.1
		c17.6,2.7,33.4,6.4,46.9,11.2c13.4,4.8,23.8,10.3,31.1,16.3c7.1,5.9,10.6,12.1,10.6,18.3C393.8,91,390.2,97.2,383.1,103.1z"/>
</g>
</svg>
