<svg width="68" height="72" viewBox="0 0 68 72" version="1.1" xmlns="http://www.w3.org/2000/svg" xmlns:xlink="http://www.w3.org/1999/xlink">
<title>Page 1</title>
<desc>Created using Figma</desc>
<g id="Canvas" transform="translate(-57093 21939)">
<g id="Page 1">
<g id="Fill 1">
<use xlink:href="#path0_fill" transform="translate(57135.1 -21939)" fill="#4633AC"/>
</g>
<g id="Fill 2">
<use xlink:href="#path0_fill" transform="translate(57148.9 -21939)" fill="#4633AC"/>
</g>
<g id="Fill 3">
<use xlink:href="#path1_fill" transform="translate(57135.1 -21939)" fill="#4633AC"/>
</g>
<g id="Fill 4">
<use xlink:href="#path2_fill" transform="translate(57114.3 -21929.8)" fill="#9798D5"/>
</g>
<g id="Fill 5">
<use xlink:href="#path0_fill" transform="translate(57128.2 -21929.8)" fill="#9798D5"/>
</g>
<g id="Fill 6">
<use xlink:href="#path3_fill" transform="translate(57114.3 -21929.8)" fill="#9798D5"/>
</g>
<g id="Fill 7">
<use xlink:href="#path0_fill" transform="translate(57093 -21939)" fill="#CACBE9"/>
</g>
<g id="Fill 8">
<use xlink:href="#path0_fill" transform="translate(57106.8 -21939)" fill="#CACBE9"/>
</g>
<g id="Fill 9">
<use xlink:href="#path1_fill" transform="translate(57093 -21939)" fill="#CACBE9"/>
</g>
<g id="Fill 10">
<use xlink:href="#path4_fill" transform="translate(57154.1 -21884.3)" fill="#6C66C0"/>
</g>
<g id="Fill 11">
<use xlink:href="#path5_fill" transform="translate(57157.5 -21880.8)" fill="#6C66C0"/>
</g>
<g id="Fill 12">
<use xlink:href="#path6_fill" transform="translate(57147.2 -21880.8)" fill="#6C66C0"/>
</g>
<g id="Fill 13">
<use xlink:href="#path7_fill" transform="translate(57112.6 -21901.6)" fill="#6C66C0"/>
</g>
<g id="Fill 14">
<use xlink:href="#path8_fill" transform="translate(57109.1 -21877.4)" fill="#6C66C0"/>
</g>
<g id="Fill 15">
<use xlink:href="#path4_fill" transform="translate(57154.1 -21873.9)" fill="#6C66C0"/>
</g>
<g id="Fill 16">
<use xlink:href="#path4_fill" transform="translate(57143.7 -21873.9)" fill="#6C66C0"/>
</g>
<g id="Fill 17">
<use xlink:href="#path9_fill" transform="translate(57112.6 -21870.5)" fill="#6C66C0"/>
</g>
<g id="Fill 18">
<use xlink:href="#path10_fill" transform="translate(57147.2 -21870.5)" fill="#6C66C0"/>
</g>
</g>
</g>
<defs>
<path id="path0_fill" fill-rule="evenodd" d="M 0 13.824L 1.72881 13.824L 1.72881 0L 0 0L 0 13.824Z"/>
<path id="path1_fill" fill-rule="evenodd" d="M 6.91525 0L 6.91525 11.52L 4.61017 11.52L 4.61017 16.128L 0 16.128L 0 20.736L 1.72881 20.736L 1.72881 23.0406L 4.61017 23.0406L 4.61017 24.768L 0 24.768L 0 29.952L 1.72881 29.952L 1.72881 31.68L 4.61017 31.68L 4.61017 34.56L 0 34.56L 0 38.5926L 1.72881 38.5926L 1.72881 40.896L 4.61017 40.896L 4.61017 43.7766L 6.91525 43.7766L 6.91525 61.632L 8.64464 61.632L 8.64464 43.7766L 10.9492 43.7766L 10.9492 40.896L 13.8311 40.896L 13.8311 38.5926L 15.5593 38.5926L 15.5593 34.56L 10.9492 34.56L 10.9492 36.864L 8.64464 36.864L 8.64464 34.56L 10.9492 34.56L 10.9492 31.68L 13.8311 31.68L 13.8311 29.952L 15.5593 29.952L 15.5593 24.768L 10.9492 24.768L 10.9492 27.648L 8.64464 27.648L 8.64464 24.768L 10.9492 24.768L 10.9492 23.0406L 13.8311 23.0406L 13.8311 20.736L 15.5593 20.736L 15.5593 16.128L 10.9492 16.128L 10.9492 18.432L 8.64464 18.432L 8.64464 16.128L 10.9492 16.128L 10.9492 11.52L 8.64464 11.52L 8.64464 0L 6.91525 0ZM 4.60938 18.4315L 6.91446 18.4315L 6.91446 16.127L 4.60938 16.127L 4.60938 18.4315ZM 4.60938 27.6476L 6.91446 27.6476L 6.91446 24.7676L 4.60938 24.7676L 4.60938 27.6476ZM 4.60938 36.8645L 6.91446 36.8645L 6.91446 34.5605L 4.60938 34.5605L 4.60938 36.8645Z"/>
<path id="path2_fill" fill-rule="evenodd" d="M 0 13.824L 2.30508 13.824L 2.30508 0L 0 0L 0 13.824Z"/>
<path id="path3_fill" fill-rule="evenodd" d="M 11.5254 18.432L 9.22034 18.432L 9.22034 16.128L 11.5254 16.128L 11.5254 11.52L 9.22034 11.52L 9.22034 0L 6.91525 0L 6.91525 11.52L 4.61017 11.52L 4.61017 16.128L 6.91525 16.128L 6.91525 18.432L 4.61017 18.432L 4.61017 16.128L 0 16.128L 0 20.736L 2.30508 20.736L 2.30508 23.04L 4.61017 23.04L 4.61017 25.344L 6.91525 25.344L 6.91525 27.648L 4.61017 27.648L 4.61017 25.344L 0 25.344L 0 29.952L 2.30508 29.952L 2.30508 31.68L 4.61017 31.68L 4.61017 34.56L 6.91525 34.56L 6.91525 36.864L 4.61017 36.864L 4.61017 34.56L 0 34.56L 0 38.592L 2.30508 38.592L 2.30508 41.472L 4.61017 41.472L 4.61017 43.776L 6.91525 43.776L 6.91525 49.536L 9.22034 49.536L 9.22034 43.776L 11.5254 43.776L 11.5254 41.472L 13.8305 41.472L 13.8305 38.592L 15.5593 38.592L 15.5593 34.56L 11.5254 34.56L 11.5254 36.864L 9.22034 36.864L 9.22034 34.56L 11.5254 34.56L 11.5254 31.68L 13.8305 31.68L 13.8305 29.952L 15.5593 29.952L 15.5593 25.344L 11.5254 25.344L 11.5254 27.648L 9.22034 27.648L 9.22034 25.344L 11.5254 25.344L 11.5254 23.04L 13.8305 23.04L 13.8305 20.736L 15.5593 20.736L 15.5593 16.128L 11.5254 16.128L 11.5254 18.432Z"/>
<path id="path4_fill" fill-rule="evenodd" d="M 0 3.456L 3.45763 3.456L 3.45763 0L 0 0L 0 3.456Z"/>
<path id="path5_fill" fill-rule="evenodd" d="M 0 0L 0 3.456L 0 6.91258L 3.45763 6.91258L 3.45763 0L 0 0Z"/>
<path id="path6_fill" fill-rule="evenodd" d="M 0 0L 0 3.456L 0 6.912L 3.45763 6.912L 6.91525 6.912L 6.91525 3.456L 6.91525 0L 3.45763 0L 0 0Z"/>
<path id="path7_fill" fill-rule="evenodd" d="M 24.2031 24.1923L 27.6608 24.1923L 27.6608 20.7363L 24.2031 20.7363L 24.2031 24.1923ZM 17.2891 24.1923L 20.7467 24.1923L 20.7467 20.7363L 17.2891 20.7363L 17.2891 24.1923ZM 10.3711 24.1923L 13.8287 24.1923L 13.8287 20.7363L 10.3711 20.7363L 10.3711 24.1923ZM 31.1186 20.736L 34.5763 20.736L 34.5763 17.28L 38.0339 17.28L 41.4915 17.28L 41.4915 13.824L 38.0339 13.824L 38.0339 10.368L 34.5763 10.368L 31.1186 10.368L 27.661 10.368L 24.2034 10.368L 20.7458 10.368L 20.7458 6.912L 20.7458 3.456L 20.7458 0L 17.2881 0L 17.2881 3.456L 17.2881 6.912L 17.2881 10.368L 13.8305 10.368L 10.3729 10.368L 6.91525 10.368L 3.45763 10.368L 3.45763 13.824L 3.45763 17.28L 3.45763 20.736L 0 20.736L 0 24.192L 3.45763 24.192L 6.91525 24.192L 6.91525 27.648L 6.91525 31.104L 10.3729 31.104L 10.3729 27.648L 13.8305 27.648L 17.2881 27.648L 20.7458 27.648L 24.2034 27.648L 27.661 27.648L 31.1186 27.648L 31.1186 24.192L 31.1186 20.736Z"/>
<path id="path8_fill" fill-rule="evenodd" d="M 3.45763 0L 0 0L 0 3.456L 0 6.912L 3.45763 6.912L 3.45763 3.456L 3.45763 0Z"/>
<path id="path9_fill" fill-rule="evenodd" d="M 3.45705 0L 0 0L 0 3.456L 3.45705 3.456L 6.91468 3.456L 6.91468 0L 3.45705 0Z"/>
<path id="path10_fill" fill-rule="evenodd" d="M 3.45763 0L 0 0L 0 3.456L 3.45763 3.456L 6.91525 3.456L 6.91525 0L 3.45763 0Z"/>
</defs>
</svg>
