<?xml version="1.0" encoding="UTF-8"?>
<svg width="98px" height="111px" viewBox="0 0 98 111" version="1.1" xmlns="http://www.w3.org/2000/svg" xmlns:xlink="http://www.w3.org/1999/xlink">
    <!-- Generator: Sketch 47.1 (45422) - http://www.bohemiancoding.com/sketch -->
    <title>icon_menu_ship</title>
    <desc>Created with Sketch.</desc>
    <defs></defs>
    <g id="Page-1" stroke="none" stroke-width="1" fill="none" fill-rule="evenodd">
        <g id="Navigation-1920" transform="translate(-1048.000000, -841.000000)" fill-rule="nonzero">
            <g id="Group-3" transform="translate(1048.000000, 841.000000)">
                <g id="icon-pink4-copy-3">
                    <polygon id="Shape" fill="#FF667F" points="63.065323 90.7780769 95.6077745 90.7780769 97.6846475 88.5388869 92.7860919 88.5388869"></polygon>
                    <rect id="Rectangle-path" fill="#FF667F" x="89.5633579" y="62.0875524" width="1" height="27.852634"></rect>
                    <rect id="Rectangle-path" fill="#FF8094" x="88.4318202" y="66.3058974" width="3.16544092" height="1"></rect>
                    <rect id="Rectangle-path" fill="#FF8094" x="86.8276148" y="73.5724301" width="6.37385163" height="1"></rect>
                    <path d="M80.2102677,68.6462121 C80.2102677,70.7844553 81.9288828,72.5178438 84.048902,72.5178438 C86.1689211,72.5178438 87.8875362,70.7844553 87.8875362,68.6462121 C87.8875362,66.507969 86.1689211,64.7745804 84.048902,64.7745804 C83.0308329,64.7745804 82.0544613,65.1824833 81.3345777,65.9085551 C80.6146941,66.6346269 80.2102677,67.6193916 80.2102677,68.6462121" id="Shape" fill="#FFE6EA"></path>
                    <path d="M71.0863498,65.8725058 C71.0863498,68.010749 72.8049649,69.7441375 74.924984,69.7441375 C77.0450032,69.7441375 78.7636183,68.010749 78.7636183,65.8725058 C78.7636183,63.7342627 77.0450032,62.0008741 74.924984,62.0008741 C72.8049649,62.0008741 71.0863498,63.7342627 71.0863498,65.8725058" id="Shape" fill="#FFE6EA"></path>
                    <path d="M76.070845,68.5017483 C76.070845,70.3846788 77.5842523,71.9110956 79.4511349,71.9110956 C81.3180174,71.9110956 82.8314247,70.3846788 82.8314247,68.5017483 C82.8314247,66.6188177 81.3180174,65.0924009 79.4511349,65.0924009 C77.5842523,65.0924009 76.070845,66.6188177 76.070845,68.5017483" id="Shape" fill="#ECECEC"></path>
                    <path d="M85.194763,74.8292657 C85.194763,75.5074399 85.7398461,76.0572086 86.4122402,76.0572086 C87.0846344,76.0572086 87.6297175,75.5074399 87.6297175,74.8292657 C87.6297175,74.1510916 87.0846344,73.6013228 86.4122402,73.6013228 C85.7398461,73.6013228 85.194763,74.1510916 85.194763,74.8292657" id="Shape" fill="#FFE6EA"></path>
                    <path d="M67.0615131,64.9623834 C67.0615131,65.6405576 67.6065963,66.1903263 68.2789904,66.1903263 C68.9513846,66.1903263 69.4964677,65.6405576 69.4964677,64.9623834 C69.4964677,64.2842093 68.9513846,63.7344406 68.2789904,63.7344406 C67.6065963,63.7344406 67.0615131,64.2842093 67.0615131,64.9623834" id="Shape" fill="#FFE6EA"></path>
                    <path d="M82.7454851,71.4921503 C82.7454851,73.1915749 84.1113994,74.5692308 85.79634,74.5692308 C87.4812806,74.5692308 88.8471948,73.1915749 88.8471948,71.4921503 C88.8471948,69.7927258 87.4812806,68.4150699 85.79634,68.4150699 C84.1113994,68.4150699 82.7454851,69.7927258 82.7454851,71.4921503" id="Shape" fill="#ECECEC"></path>
                    <rect id="Rectangle-path" fill="#FF667F" x="79.9381258" y="71.1743298" width="2.8360059" height="9.67907925"></rect>
                    <rect id="Rectangle-path" fill="#FF8094" x="79.1216998" y="75.2048718" width="4.44021125" height="18.6358392"></rect>
                    <rect id="Rectangle-path" fill="#FF8094" x="79.4654581" y="71.1743298" width="3.76701793" height="1"></rect>
                    <rect id="Rectangle-path" fill="#FFFFFF" x="79.4654581" y="73.5724301" width="3.76701793" height="1"></rect>
                    <rect id="Rectangle-path" fill="#FF667F" x="85.5958143" y="76.9384382" width="1.57555883" height="5.38850233"></rect>
                    <rect id="Rectangle-path" fill="#FF8094" x="85.1517932" y="79.1920746" width="2.47792434" height="10.3869522"></rect>
                    <rect id="Rectangle-path" fill="#FF8094" x="85.3379956" y="76.9528846" width="2.10551953" height="1"></rect>
                    <rect id="Rectangle-path" fill="#FFFFFF" x="85.3379956" y="78.2963986" width="2.10551953" height="1"></rect>
                    <path d="M70.8142078,57.0457634 C70.8142078,60.5323763 73.6165764,63.3588345 77.0734733,63.3588345 C80.5303702,63.3588345 83.3327389,60.5323763 83.3327389,57.0457634 C83.3327389,53.5591505 80.5303702,50.7326923 77.0734733,50.7326923 C73.6165764,50.7326923 70.8142078,53.5591505 70.8142078,57.0457634" id="Shape" fill="#FFE6EA"></path>
                    <path d="M59.513154,55.5 C59.4586602,57.3338353 60.8881287,58.865158 62.7063176,58.9206865 C64.5245065,58.976215 66.0432192,57.5349314 66.0988358,55.7011304 C66.1544524,53.8673293 64.7259216,52.3351166 62.9077671,52.2784557 C62.0339394,52.2512238 61.185214,52.5754299 60.5485101,53.1796725 C59.9118062,53.783915 59.5393444,54.6186359 59.513154,55.5" id="Shape" fill="#FFE6EA"></path>
                    <path d="M65.2424589,52.6107226 C65.2503702,54.8967769 67.09141,56.745021 69.3579928,56.7423612 C71.6245756,56.7397014 73.4613464,54.8871415 73.4639835,52.6010749 C73.4666206,50.3150082 71.6341289,48.4581425 69.3675583,48.4501632 C67.0893288,48.4501632 65.2424589,50.3129091 65.2424589,52.6107226" id="Shape" fill="#ECECEC"></path>
                    <path d="M56.4622992,53.8242191 C56.4622992,55.0130185 57.4177979,55.9767308 58.5964652,55.9767308 C59.7751326,55.9767308 60.7306313,55.0130185 60.7306313,53.8242191 C60.7306313,52.6354198 59.7751326,51.6717075 58.5964652,51.6717075 C57.4177979,51.6717075 56.4622992,52.6354198 56.4622992,53.8242191" id="Shape" fill="#FFE6EA"></path>
                    <path d="M74.4809629,59.9928263 C74.4809629,62.8150041 76.1665125,65.359292 78.7516426,66.4392927 C81.3367727,67.5192934 84.3123862,66.9223191 86.2909591,64.9267381 C88.269532,62.9311571 88.8614183,59.9299648 87.7906224,57.3226125 C86.7198264,54.7152603 84.1972232,53.0152214 81.3990985,53.0152214 C77.5783177,53.0152214 74.4809629,56.1392016 74.4809629,59.9928263" id="Shape" fill="#ECECEC"></path>
                    <polygon id="Shape" fill="#FF667F" points="95.6077745 90.7780769 91.2535028 104.646608 94.9202579 95.6609557 97.6846475 88.5388869"></polygon>
                    <rect id="Rectangle-path" fill="#FF667F" x="78.5630926" y="42.0648601" width="1.54691231" height="47.5719522"></rect>
                    <rect id="Rectangle-path" fill="#FF8094" x="76.6294522" y="49.2880536" width="5.39986981" height="1.17015734"></rect>
                    <rect id="Rectangle-path" fill="#FF8094" x="73.8937092" y="61.6975" width="10.8713559" height="1.17015734"></rect>
                    <polygon id="Shape" fill="#FF99A9" points="91.2535028 104.646608 67.9782019 104.646608 63.065323 90.7780769 74.6385188 86.6608566 84.0345787 86.6608566 95.6077745 90.7780769"></polygon>
                    <polygon id="Shape" fill="#FF8094" points="82.3730803 104.646608 76.3143405 104.646608 74.6385188 86.6608566 84.0345787 86.6608566"></polygon>
                    <polygon id="Shape" fill="#FF667F" points="13.9078875 86.1696795 71.1866126 86.1696795 74.867691 82.2113695 66.2450872 82.2113695"></polygon>
                    <rect id="Rectangle-path" fill="#FF667F" x="60.5587521" y="34.1193473" width="1.60420535" height="49.0310373"></rect>
                    <rect id="Rectangle-path" fill="#FF8094" x="58.5678187" y="41.573683" width="5.57174896" height="1.2134965"></rect>
                    <rect id="Rectangle-path" fill="#FF8094" x="55.7461361" y="54.3587354" width="11.2151142" height="1.2134965"></rect>
                    <path d="M31.9408745,45.9075991 C31.9408745,47.5436441 32.9180047,49.0185937 34.4166308,49.644681 C35.915257,50.2707684 37.6402503,49.9246963 38.7872491,48.7678378 C39.9342479,47.6109792 40.2773704,45.8711576 39.6566191,44.359649 C39.0358678,42.8481405 37.5734891,41.8626107 35.9513879,41.8626107 C33.7364425,41.8626107 31.9408745,43.6736137 31.9408745,45.9075991" id="Shape" fill="#FFE6EA"></path>
                    <path d="M36.4383788,41.1980769 C36.4383788,44.8362817 39.3625895,47.7856294 42.9697863,47.7856294 C46.5769831,47.7856294 49.5011938,44.8362817 49.5011938,41.1980769 C49.5011938,37.5598722 46.5769831,34.6105245 42.9697863,34.6105245 C39.3625895,34.6105245 36.4383788,37.5598722 36.4383788,41.1980769" id="Shape" fill="#ECECEC"></path>
                    <path d="M52.1509973,57.1902273 C52.151016,58.8718101 53.5012049,60.235733 55.1684538,60.2383769 C56.8357026,60.2410209 58.1901373,58.881387 58.1953989,57.1998126 C58.2006604,55.5182381 56.854761,54.1500092 55.1875289,54.1420396 C54.3835106,54.1381963 53.6111153,54.4576463 53.0412396,55.0297094 C52.471364,55.6017726 52.1509883,56.3792884 52.1509973,57.1902273" id="Shape" fill="#FFE6EA"></path>
                    <path d="M21.8000049,41.9637354 C21.8000049,43.66316 23.1659191,45.0408159 24.8508597,45.0408159 C26.5358003,45.0408159 27.9017146,43.66316 27.9017146,41.9637354 C27.9017146,40.2643108 26.5358003,38.886655 24.8508597,38.886655 C23.1659191,38.886655 21.8000049,40.2643108 21.8000049,41.9637354" id="Shape" fill="#FFE6EA"></path>
                    <path d="M49.4868705,52.1628846 C49.4868705,55.1707864 51.9044746,57.6091725 54.8867404,57.6091725 C57.8690061,57.6091725 60.2866102,55.1707864 60.2866102,52.1628846 C60.2866102,49.1549829 57.8690061,46.7165967 54.8867404,46.7165967 C51.9044746,46.7165967 49.4868705,49.1549829 49.4868705,52.1628846" id="Shape" fill="#ECECEC"></path>
                    <rect id="Rectangle-path" fill="#FF667F" x="43.6000098" y="51.6428147" width="4.98449521" height="17.0322902"></rect>
                    <rect id="Rectangle-path" fill="#FF8094" x="42.1820069" y="58.7359907" width="7.82050111" height="32.8221911"></rect>
                    <rect id="Rectangle-path" fill="#FF8094" x="42.7692606" y="51.6428147" width="6.64599361" height="1.27128205"></rect>
                    <rect id="Rectangle-path" fill="#FFFFFF" x="42.7692606" y="55.8900524" width="6.64599361" height="1.25683566"></rect>
                    <rect id="Rectangle-path" fill="#FF667F" x="53.5833235" y="61.8130711" width="2.77871285" height="9.49127622"></rect>
                    <rect id="Rectangle-path" fill="#FF8094" x="52.7812208" y="65.7713811" width="4.35427168" height="18.2891259"></rect>
                    <rect id="Rectangle-path" fill="#FF8094" x="53.1106559" y="61.8130711" width="3.70972488" height="1"></rect>
                    <rect id="Rectangle-path" fill="#FFFFFF" x="53.1106559" y="64.1822786" width="3.70972488" height="1"></rect>
                    <path d="M28.1022402,30.6666608 C28.0732268,34.6814148 30.4487129,38.3171508 34.1179545,39.8738497 C37.7871962,41.4305485 42.0251222,40.6005942 44.8501379,37.7720618 C47.6751536,34.9435293 48.5290135,30.6753591 47.0124647,26.9632876 C45.4959159,23.2512161 41.9086405,20.828778 37.927998,20.8286713 C35.3233602,20.8286685 32.8256104,21.873239 30.9851972,23.7321824 C29.144784,25.5911259 28.1127611,28.1118679 28.1165635,30.7388928" id="Shape" fill="#FFE6EA"></path>
                    <path d="M8.73718988,24.2380186 C8.73718988,29.4559702 12.9311237,33.6859557 18.1046033,33.6859557 C23.2780829,33.6859557 27.4720167,29.4559702 27.4720167,24.2380186 C27.4720167,19.0200671 23.2780829,14.7900816 18.1046033,14.7900816 C12.9343943,14.7980368 8.74507732,19.0233658 8.73718988,24.2380186" id="Shape" fill="#FFE6EA"></path>
                    <path d="M17.1879145,21.0164744 C17.1879145,26.8328149 21.8628041,31.5478904 27.6295726,31.5478904 C33.3963411,31.5478904 38.0712307,26.8328149 38.0712307,21.0164744 C38.0712307,15.2001339 33.3963411,10.4850583 27.6295726,10.4850583 C21.8628041,10.4850583 17.1879145,15.2001339 17.1879145,21.0164744" id="Shape" fill="#ECECEC"></path>
                    <path d="M44.702901,44.636317 C44.7029315,46.8651296 46.0356474,48.8739182 48.0783685,49.7241235 C50.1210896,50.5743288 52.4705432,50.0981038 54.0290021,48.5179534 C55.587461,46.937803 56.0472552,44.5656796 55.1935567,42.5099022 C54.3398582,40.4541248 52.3412035,39.1205438 50.1314173,39.1322436 C47.1175095,39.1322436 44.6742545,41.5965012 44.6742545,44.636317" id="Shape" fill="#FFE6EA"></path>
                    <path d="M0.143232621,19.2540152 C0.143232621,21.5199146 1.9644516,23.356789 4.21103906,23.356789 C6.45762652,23.356789 8.27884549,21.5199146 8.27884549,19.2540152 C8.27884549,16.9881157 6.45762652,15.1512413 4.21103906,15.1512413 C1.9644516,15.1512413 0.143232621,16.9881157 0.143232621,19.2540152" id="Shape" fill="#FFE6EA"></path>
                    <path d="M37.7131491,32.94919 C37.7131491,39.188392 42.727914,44.2462646 48.9139401,44.2462646 C55.0999661,44.2462646 60.114731,39.188392 60.114731,32.94919 C60.114731,26.709988 55.0999661,21.6521154 48.9139401,21.6521154 C42.727914,21.6521154 37.7131491,26.709988 37.7131491,32.94919" id="Shape" fill="#ECECEC"></path>
                    <polygon id="Shape" fill="#FF667F" points="71.2009359 86.1696795 63.5236674 110.584073 69.9977819 94.7508333 74.867691 82.2113695"></polygon>
                    <rect id="Rectangle-path" fill="#FF667F" x="41.1937018" y="0.415926573" width="2.73574306" height="83.7457051"></rect>
                    <rect id="Rectangle-path" fill="#FF8094" x="37.7990887" y="13.1287471" width="9.51064603" height="2.06583333"></rect>
                    <rect id="Rectangle-path" fill="#FF8094" x="32.9864726" y="34.9861305" width="19.1502014" height="2.06583333"></rect>
                    <polygon id="Shape" fill="#FF99A9" points="63.5236674 110.584073 22.5448145 110.584073 13.9078875 86.1696795 34.2898895 78.9175932 50.8189339 78.9175932 71.2009359 86.1696795"></polygon>
                    <polygon id="Shape" fill="#FF8094" points="47.8826652 110.584073 37.2261582 110.584073 34.2898895 78.9175932 50.8189339 78.9175932"></polygon>
                </g>
            </g>
        </g>
    </g>
</svg>