<?xml version="1.0" encoding="UTF-8"?>
<svg width="94px" height="108px" viewBox="0 0 94 108" version="1.1" xmlns="http://www.w3.org/2000/svg" xmlns:xlink="http://www.w3.org/1999/xlink">
    <!-- Generator: Sketch 47.1 (45422) - http://www.bohemiancoding.com/sketch -->
    <title>icon_menu_empire</title>
    <desc>Created with Sketch.</desc>
    <defs></defs>
    <g id="Page-1" stroke="none" stroke-width="1" fill="none" fill-rule="evenodd">
        <g id="Navigation-1920" transform="translate(-1052.000000, -410.000000)" fill-rule="nonzero">
            <g id="Group-4" transform="translate(1052.000000, 410.000000)">
                <g id="icon-01-copy">
                    <g id="Group" transform="translate(7.718894, 27.525151)">
                        <path d="M42.9170507,80.4346076 L42.9170507,15.138833 C41.3732719,14.527163 41.6820276,12.8450704 40.9101382,10.2454728 C39.8294931,6.72837022 36.8963134,5.50503018 36.8963134,5.50503018 L38.2857143,3.0583501 C38.2857143,3.0583501 32.4193548,2.75251509 30.2580645,2.75251509 C28.0967742,2.75251509 26.2442396,4.28169014 26.2442396,4.28169014 C26.2442396,4.28169014 27.1705069,4.89336016 27.9423963,6.1167002 C28.7142857,7.34004024 29.0230415,8.41046278 29.0230415,8.41046278 C29.0230415,8.41046278 32.1105991,7.95171026 33.8087558,9.78672032 C35.1981567,11.4688129 34.4262673,14.221328 34.4262673,14.221328 L35.8156682,13.6096579 C35.8156682,13.6096579 35.5069124,15.444668 35.0437788,16.2092555 C34.5806452,16.9738431 33.6543779,17.4325956 33.6543779,17.4325956 C33.6543779,17.4325956 35.8156682,23.2434608 31.8018433,25.5372233 C27.7880184,27.8309859 24.2373272,23.8551308 24.2373272,23.8551308 C24.2373272,23.8551308 26.0898618,22.0201207 26.0898618,18.8088531 C26.2442396,15.5975855 20.0691244,11.4688129 18.5253456,8.56338028 C17.4447005,6.57545272 15.1290323,-7.10542736e-15 15.1290323,-7.10542736e-15 C15.1290323,-7.10542736e-15 13.8940092,1.83501006 13.8940092,5.04627767 C13.8940092,7.49295775 14.0483871,9.63380282 14.0483871,9.63380282 L10.0345622,3.36418511 C10.0345622,3.36418511 10.0345622,6.42253521 10.6520737,9.0221328 C11.4239631,12.5392354 11.578341,13.4567404 11.578341,13.4567404 L6.02073733,8.41046278 C6.02073733,8.41046278 6.32949309,11.6217304 7.56451613,14.3742455 C8.95391705,17.2796781 9.57142857,18.5030181 9.57142857,18.5030181 L2.93317972,13.1509054 C2.93317972,13.1509054 5.09447005,17.5855131 5.86635945,18.9617706 C6.63824885,20.1851107 9.10829493,23.7022133 9.10829493,23.7022133 L1.23502304,19.5734406 C1.23502304,19.5734406 4.16820276,23.7022133 5.24884793,24.9255533 C6.17511521,25.9959759 9.10829493,28.7484909 9.10829493,28.7484909 L0,25.8430584 C0,25.8430584 2.62442396,29.054326 3.70506912,30.1247485 C4.47695853,31.0422535 7.25576037,33.3360161 7.25576037,33.3360161 L0.15437788,31.806841 C0.15437788,31.806841 2.3156682,34.1006036 4.78571429,35.4768612 C7.25576037,36.8531187 8.64516129,37.3118712 8.64516129,37.3118712 L1.69815668,39.7585513 C1.69815668,39.7585513 3.70506912,40.3702213 6.32949309,40.8289738 C8.79953917,41.1348089 10.4976959,40.8289738 10.4976959,40.8289738 L5.09447005,44.9577465 C5.09447005,44.9577465 7.56451613,45.2635815 10.9608295,44.3460765 C13.7396313,43.5814889 14.9746544,42.5110664 14.9746544,42.5110664 L10.4976959,49.2394366 C10.4976959,49.2394366 14.0483871,48.1690141 15.1290323,47.7102616 C15.9009217,47.4044266 17.9078341,46.028169 17.9078341,46.028169 L15.2834101,52.7565392 C15.2834101,52.7565392 18.6797235,49.3923541 19.6059908,48.0160966 C20.3778802,47.0985915 22.0760369,44.0402414 22.0760369,44.0402414 L20.6866359,49.8511066 L25.781106,44.0402414 L25.9354839,48.4748491 L29.640553,43.7344064 L32.7281106,45.722334 L33.0368664,43.7344064 C33.0368664,43.7344064 35.0437788,45.8752515 35.0437788,47.0985915 C35.0437788,48.1690141 31.4930876,47.5573441 29.1774194,47.7102616 C26.8617512,47.8631791 27.4792627,55.2032193 27.4792627,55.2032193 L28.2511521,57.1911469 C28.2511521,57.1911469 30.2580645,57.8028169 31.9562212,57.1911469 C33.1912442,56.5794769 35.9700461,53.6740443 35.5069124,52.2977867 C35.0437788,50.9215292 39.8294931,50.3098592 40.2926267,53.6740443 C41.218894,59.637827 38.1313364,60.249497 34.1175115,61.6257545 C30.1036866,63.0020121 26.7073733,62.2374245 25.781106,65.2957746 C24.8548387,68.2012072 30.1036866,72.7887324 30.1036866,72.7887324 L31.0299539,68.9657948 L27.7880184,66.2132797 L40.6013825,60.249497 C40.6013825,60.249497 29.640553,70.8008048 32.7281106,73.7062374 C35.5069124,76.305835 36.2788018,72.9416499 36.2788018,72.9416499 L34.4262673,72.4828974 L40.1382488,67.5895372 L38.59447,75.5412475 L42.9170507,80.4346076 L42.9170507,80.4346076 L42.9170507,80.4346076 Z" id="Shape" fill="#FF8094"></path>
                        <path d="M42.9170507,80.4346076 L42.9170507,15.138833 C44.4608295,14.527163 44.3064516,12.8450704 45.2327189,10.2454728 C46.3133641,6.72837022 49.2465438,5.50503018 49.2465438,5.50503018 L47.8571429,3.0583501 C47.8571429,3.0583501 53.7235023,2.75251509 55.8847926,2.75251509 C58.0460829,2.75251509 59.8986175,4.28169014 59.8986175,4.28169014 C59.8986175,4.28169014 58.9723502,4.89336016 58.2004608,6.1167002 C57.4285714,7.34004024 57.1198157,8.41046278 57.1198157,8.41046278 C57.1198157,8.41046278 53.8778802,7.95171026 52.3341014,9.93963783 C50.7903226,11.9275654 51.7165899,14.221328 51.7165899,14.221328 L50.3271889,13.6096579 C50.3271889,13.6096579 50.6359447,15.444668 51.0990783,16.2092555 C51.562212,16.9738431 52.4884793,17.4325956 52.4884793,17.4325956 C52.4884793,17.4325956 50.3271889,23.2434608 54.3410138,25.5372233 C58.3548387,27.8309859 61.90553,23.8551308 61.90553,23.8551308 C61.90553,23.8551308 60.0529954,22.0201207 60.0529954,18.8088531 C59.8986175,15.5975855 66.0737327,11.4688129 67.6175115,8.56338028 C68.6981567,6.57545272 71.0138249,0 71.0138249,0 C71.0138249,0 72.2488479,1.68209256 72.2488479,4.89336016 C72.2488479,7.34004024 72.09447,9.48088531 72.09447,9.48088531 L76.1082949,3.21126761 C76.1082949,3.21126761 76.1082949,6.26961771 75.4907834,8.86921529 C74.718894,12.3863179 74.5645161,13.3038229 74.5645161,13.3038229 L80.1221198,8.25754527 C80.1221198,8.25754527 79.8133641,11.4688129 78.578341,14.221328 C77.1889401,17.1267606 76.5714286,18.3501006 76.5714286,18.3501006 L83.2096774,12.9979879 C83.2096774,12.9979879 81.0483871,17.4325956 80.2764977,18.8088531 C79.5046083,20.0321932 77.0345622,23.5492958 77.0345622,23.5492958 L84.9078341,19.4205231 C84.9078341,19.4205231 81.9746544,23.5492958 80.8940092,24.7726358 C79.9677419,25.8430584 77.0345622,28.5955734 77.0345622,28.5955734 L86.1428571,25.8430584 C86.1428571,25.8430584 83.5184332,29.054326 82.437788,30.1247485 C81.6658986,31.0422535 78.8870968,33.3360161 78.8870968,33.3360161 L85.9884793,31.806841 C85.9884793,31.806841 83.8271889,34.1006036 81.3571429,35.4768612 C78.8870968,36.8531187 77.4976959,37.3118712 77.4976959,37.3118712 L84.4447005,39.7585513 C84.4447005,39.7585513 82.437788,40.3702213 79.8133641,40.8289738 C77.343318,41.1348089 75.6451613,40.8289738 75.6451613,40.8289738 L81.0483871,44.9577465 C81.0483871,44.9577465 78.578341,45.2635815 75.1820276,44.3460765 C72.4032258,43.5814889 71.1682028,42.5110664 71.1682028,42.5110664 L75.6451613,49.2394366 C75.6451613,49.2394366 72.09447,48.1690141 71.0138249,47.7102616 C70.2419355,47.4044266 68.235023,46.028169 68.235023,46.028169 L70.859447,52.7565392 C70.859447,52.7565392 67.4631336,49.3923541 66.5368664,48.0160966 C65.764977,47.0985915 64.0668203,44.0402414 64.0668203,44.0402414 L65.4562212,49.8511066 L60.3617512,44.0402414 L60.2073733,48.4748491 L56.5023041,43.7344064 L53.4147465,45.722334 L53.1059908,43.7344064 C53.1059908,43.7344064 51.0990783,45.8752515 51.0990783,47.0985915 C51.0990783,48.1690141 54.6497696,47.5573441 56.9654378,47.7102616 C59.281106,47.8631791 57.7373272,55.5090543 57.7373272,55.5090543 L57.7373272,57.1911469 C57.7373272,57.1911469 55.7304147,57.8028169 54.0322581,57.1911469 C52.797235,56.5794769 50.0184332,53.6740443 50.4815668,52.2977867 C50.9447005,50.9215292 46.1589862,50.3098592 45.6958525,53.6740443 C44.7695853,59.637827 47.8571429,60.249497 51.8709677,61.6257545 C55.8847926,63.0020121 59.281106,62.2374245 60.2073733,65.2957746 C61.1336406,68.2012072 55.8847926,72.7887324 55.8847926,72.7887324 L54.9585253,68.9657948 L58.2004608,66.6720322 L45.3870968,60.7082495 C45.3870968,60.7082495 56.3479263,71.2595573 53.2603687,74.1649899 C50.4815668,76.7645875 49.7096774,73.4004024 49.7096774,73.4004024 L51.562212,72.9416499 L45.8502304,68.0482897 L47.2396313,76 L42.9170507,80.4346076 L42.9170507,80.4346076 L42.9170507,80.4346076 Z" id="Shape" fill="#FF99A9"></path>
                    </g>
                    <g id="Group" transform="translate(10.806452, 25.995976)">
                        <path d="M2.77880184,7.95171026 C0.926267281,6.57545272 2.00691244,4.43460765 3.55069124,2.75251509 C5.24884793,1.22334004 7.56451613,0.152917505 8.79953917,2.14084507 C9.57142857,3.36418511 9.88018433,4.43460765 9.88018433,5.65794769 C8.95391705,5.9637827 8.49078341,6.26961771 7.71889401,6.88128773 C6.94700461,7.64587525 6.48387097,8.25754527 6.17511521,9.0221328 C4.94009217,9.1750503 3.859447,8.71629779 2.77880184,7.95171026 Z" id="Shape" fill="#FFE6EA"></path>
                        <g>
                            <ellipse id="Oval" fill="#FFFFFF" transform="translate(2.880298, 2.073495) rotate(-41.712524) translate(-2.880298, -2.073495) " cx="2.78352575" cy="2.07421176" rx="1" ry="1"></ellipse>
                            <path d="M3.24193548,3.0583501 C2.93317972,3.21126761 2.47004608,3.0583501 2.16129032,2.59959759 C2.00691244,2.44668008 1.85253456,2.14084507 1.85253456,1.83501006 C1.85253456,1.52917505 1.85253456,1.37625755 2.00691244,1.22334004 C2.3156682,0.91750503 2.93317972,1.07042254 3.39631336,1.52917505 C3.70506912,1.83501006 3.70506912,2.14084507 3.70506912,2.44668008 C3.70506912,2.59959759 3.55069124,2.75251509 3.55069124,2.9054326 C3.39631336,3.0583501 3.39631336,3.0583501 3.24193548,3.0583501 Z M2.3156682,1.52917505 C2.3156682,1.52917505 2.16129032,1.68209256 2.3156682,1.52917505 C2.16129032,1.68209256 2.16129032,1.83501006 2.16129032,1.83501006 C2.16129032,1.98792757 2.3156682,2.14084507 2.47004608,2.29376258 C2.77880184,2.59959759 3.0875576,2.75251509 3.24193548,2.59959759 C3.24193548,2.59959759 3.24193548,2.44668008 3.39631336,2.44668008 C3.39631336,2.29376258 3.24193548,1.98792757 3.0875576,1.83501006 C2.77880184,1.68209256 2.47004608,1.52917505 2.3156682,1.52917505 Z" id="Shape" fill="#FFE6EA"></path>
                            <polygon id="Shape" fill="#FFE6EA" points="1.69815668 0.764587525 2.00691244 1.37625755 1.38940092 1.07042254 1.08064516 0.458752515"></polygon>
                            <polygon id="Shape" fill="#FFE6EA" points="1.23502304 1.52917505 1.85253456 1.22334004 1.5437788 1.83501006 0.926267281 2.14084507"></polygon>
                            <polygon id="Shape" fill="#FFE6EA" points="2.16129032 0.61167002 2.77880184 0.458752515 2.47004608 1.07042254 1.85253456 1.22334004"></polygon>
                        </g>
                    </g>
                    <path d="M44.4608295,8.10462777 C44.4608295,8.10462777 47.2396313,11.9275654 49.2465438,11.1629779 C51.2534562,10.3983903 50.7903226,5.65794769 50.7903226,5.65794769 L55.421659,10.3983903 L54.6497696,14.527163 L52.4884793,17.8913481 L48.937788,18.1971831 L47.0852535,17.4325956 L44.4608295,8.10462777 Z" id="Shape" fill="#FFFFFF"></path>
                    <path d="M47.3940092,22.7847082 C47.3940092,22.7847082 50.4815668,22.0201207 53.7235023,20.7967807 C56.9654378,19.5734406 58.6635945,18.6559356 58.6635945,18.6559356 L52.1797235,17.1267606 L47.3940092,22.7847082 Z" id="Shape" fill="#FFFFFF"></path>
                    <path d="M40.9101382,17.1267606 C38.59447,13.4567404 44.4608295,8.10462777 44.4608295,8.10462777 C44.4608295,8.10462777 47.0852535,17.7384306 51.2534562,16.2092555 C55.2672811,14.6800805 50.7903226,5.65794769 50.7903226,5.65794769 C50.7903226,5.65794769 58.8179724,5.81086519 59.5898618,10.0925553 C60.0529954,13.3038229 59.8986175,16.362173 58.6635945,18.6559356 C56.5023041,18.3501006 54.9585253,18.6559356 52.6428571,19.5734406 C50.3271889,20.4909457 48.7834101,21.4084507 47.3940092,22.7847082 C44.7695853,21.7142857 42.4539171,19.7263581 40.9101382,17.1267606 Z" id="Shape" fill="#FFE6EA"></path>
                    <g id="Group" transform="translate(43.225806, 0.000000)">
                        <ellipse id="Oval" fill="#FFFFFF" transform="translate(3.703757, 5.046782) rotate(-21.070421) translate(-3.703757, -5.046782) " cx="3.70375674" cy="5.04678229" rx="1.23497108" ry="1.98784393"></ellipse>
                        <path d="M4.16820276,7.34004024 C3.39631336,7.34004024 2.62442396,6.72837022 2.16129032,5.65794769 C2.00691244,5.04627767 1.85253456,4.43460765 2.00691244,3.97585513 C2.16129032,3.36418511 2.47004608,3.0583501 2.93317972,2.75251509 C3.859447,2.44668008 4.94009217,3.0583501 5.40322581,4.43460765 C5.71198157,5.19919517 5.71198157,5.9637827 5.40322581,6.57545272 C5.24884793,6.88128773 4.94009217,7.18712274 4.63133641,7.34004024 C4.32258065,7.34004024 4.16820276,7.34004024 4.16820276,7.34004024 Z M3.24193548,3.51710262 L3.24193548,3.51710262 C2.77880184,3.67002012 2.77880184,3.97585513 2.62442396,4.12877264 C2.62442396,4.43460765 2.62442396,4.89336016 2.77880184,5.35211268 C3.0875576,6.26961771 3.859447,6.72837022 4.16820276,6.57545272 C4.32258065,6.57545272 4.47695853,6.42253521 4.47695853,6.26961771 C4.63133641,5.9637827 4.63133641,5.35211268 4.47695853,4.74044266 C4.16820276,3.97585513 3.70506912,3.51710262 3.24193548,3.51710262 Z" id="Shape" fill="#FFE6EA"></path>
                        <polygon id="Shape" fill="#FFE6EA" points="2.77880184 1.37625755 2.77880184 2.9054326 1.85253456 1.68209256 1.85253456 0.30583501"></polygon>
                        <polygon id="Shape" fill="#FFE6EA" points="1.38940092 2.44668008 2.77880184 2.44668008 1.69815668 3.51710262 0.15437788 3.51710262"></polygon>
                        <polygon id="Shape" fill="#FFE6EA" points="3.70506912 1.52917505 5.24884793 1.52917505 4.01382488 2.59959759 2.62442396 2.59959759"></polygon>
                    </g>
                    <ellipse id="Oval" fill="#FFE6EA" transform="translate(49.707424, 12.538930) rotate(-21.075768) translate(-49.707424, -12.538930) " cx="49.7074235" cy="12.5389296" rx="1.6981463" ry="6.26957937"></ellipse>
                    <path d="M41.9907834,38.3822938 C41.9907834,38.3822938 40.9101382,37.7706237 39.5207373,37.7706237 C37.9769585,37.9235412 37.0506912,38.0764588 35.8156682,37.9235412 C34.5806452,37.7706237 34.4262673,36.7002012 34.4262673,36.7002012 C34.4262673,36.7002012 33.5,36.5472837 33.5,37.3118712 C33.5,38.0764588 33.9631336,38.5352113 35.3525346,38.6881288 C36.8963134,38.8410463 39.0576037,38.2293763 39.983871,38.2293763 C40.9101382,38.2293763 42.1451613,38.8410463 42.1451613,38.8410463 L41.9907834,38.3822938 Z" id="Shape" fill="#FFE6EA"></path>
                    <path d="M60.0529954,38.3822938 C60.0529954,38.3822938 61.1336406,37.7706237 62.5230415,37.7706237 C64.0668203,37.9235412 64.9930876,38.0764588 66.2281106,37.9235412 C67.4631336,37.7706237 67.6175115,36.7002012 67.6175115,36.7002012 C67.6175115,36.7002012 68.5437788,36.5472837 68.5437788,37.3118712 C68.5437788,38.0764588 68.0806452,38.5352113 66.6912442,38.6881288 C65.1474654,38.8410463 62.9861751,38.2293763 62.0599078,38.2293763 C61.1336406,38.2293763 59.8986175,38.8410463 59.8986175,38.8410463 L60.0529954,38.3822938 Z" id="Shape" fill="#FFE6EA"></path>
                    <path d="M34.5806452,31.3480885 C34.5806452,31.3480885 32.4193548,31.806841 32.4193548,33.9476861 C32.4193548,35.6297787 34.5806452,36.3943662 34.5806452,36.3943662 C34.5806452,36.3943662 34.5806452,35.1710262 35.1981567,35.0181087 C35.9700461,34.8651911 37.0506912,36.3943662 37.0506912,36.3943662 C37.0506912,36.3943662 38.4400922,35.9356137 39.6751152,36.5472837 C40.9101382,37.1589537 41.9907834,38.6881288 41.9907834,38.6881288 C41.9907834,38.6881288 40.6013825,37.6177062 39.3663594,37.9235412 C37.6682028,38.2293763 38.2857143,38.9939638 37.359447,39.1468813 C36.4331797,39.2997988 36.2788018,38.8410463 36.2788018,38.8410463 C36.2788018,38.8410463 36.124424,40.2173038 37.359447,40.5231388 C38.59447,40.8289738 39.6751152,40.5231388 39.6751152,40.5231388 C39.6751152,40.5231388 38.4400922,39.2997988 39.3663594,38.8410463 C40.2926267,38.2293763 41.3732719,38.8410463 41.5276498,39.4527163 C41.5276498,40.2173038 41.3732719,40.3702213 41.3732719,40.3702213 C41.3732719,40.3702213 41.5276498,40.8289738 42.1451613,40.6760563 C43.5345622,40.2173038 43.3801843,38.0764588 43.3801843,38.0764588 L39.5207373,34.4064386 L34.5806452,31.3480885 Z" id="Shape" fill="#FFFFFF"></path>
                    <path d="M67.4631336,31.3480885 C67.4631336,31.3480885 69.624424,31.806841 69.624424,33.9476861 C69.624424,35.6297787 67.4631336,36.3943662 67.4631336,36.3943662 C67.4631336,36.3943662 67.4631336,35.1710262 66.8456221,35.0181087 C66.0737327,34.8651911 64.9930876,36.3943662 64.9930876,36.3943662 C64.9930876,36.3943662 63.6036866,35.9356137 62.3686636,36.5472837 C61.1336406,37.1589537 60.0529954,38.6881288 60.0529954,38.6881288 C60.0529954,38.6881288 61.4423963,37.6177062 62.6774194,37.9235412 C64.375576,38.2293763 63.7580645,38.9939638 64.6843318,39.1468813 C65.4562212,39.1468813 65.764977,38.8410463 65.764977,38.8410463 C65.764977,38.8410463 65.9193548,40.2173038 64.6843318,40.5231388 C63.4493088,40.8289738 62.3686636,40.5231388 62.3686636,40.5231388 C62.3686636,40.5231388 63.6036866,39.2997988 62.6774194,38.8410463 C61.7511521,38.2293763 60.6705069,38.8410463 60.516129,39.4527163 C60.516129,40.2173038 60.6705069,40.3702213 60.6705069,40.3702213 C60.6705069,40.3702213 60.516129,40.8289738 59.8986175,40.6760563 C58.5092166,40.2173038 58.6635945,38.0764588 58.6635945,38.0764588 L62.5230415,34.4064386 L67.4631336,31.3480885 Z" id="Shape" fill="#FFFFFF"></path>
                    <g id="Group" transform="translate(0.000000, 55.050302)" fill="#FFE6EA">
                        <ellipse id="Oval" transform="translate(2.155764, 31.458342) rotate(-55.292889) translate(-2.155764, -31.458342) " cx="2.15576359" cy="31.4583421" rx="1" ry="1"></ellipse>
                        <ellipse id="Oval" transform="translate(3.828031, 29.016097) rotate(-55.284916) translate(-3.828031, -29.016097) " cx="3.82803111" cy="29.0160966" rx="1.38941082" ry="1.37626735"></ellipse>
                        <ellipse id="Oval" transform="translate(5.534818, 26.800475) rotate(-55.289626) translate(-5.534818, -26.800475) " cx="5.53481751" cy="26.8004748" rx="1.85244227" ry="1.83491864"></ellipse>
                        <rect id="Rectangle-path" transform="translate(2.835379, 30.607632) rotate(-55.292889) translate(-2.835379, -30.607632) " x="2.12109272" y="28.6199351" width="1.38944592" height="3.97598389"></rect>
                        <ellipse id="Oval" transform="translate(13.926274, 14.809112) rotate(-55.289626) translate(-13.926274, -14.809112) " cx="13.9262742" cy="14.8091123" rx="1.69807208" ry="1.68200875"></ellipse>
                        <rect id="Rectangle-path" transform="translate(12.490949, 16.911570) rotate(-55.289626) translate(-12.490949, -16.911570) " x="11.7766628" y="14.9240324" width="1.3893317" height="3.97565705"></rect>
                        <polygon id="Shape" points="12.6589862 17.7384306 11.7327189 16.9738431 10.4976959 17.5855131 6.02073733 24.0080483 6.02073733 25.2313883 6.79262673 25.6901408 8.02764977 25.2313883 12.3502304 18.9617706"></polygon>
                        <polygon id="Shape" points="17.2903226 12.3863179 21.921659 4.43460765 22.6935484 4.12877264 23.156682 3.36418511 22.2304147 2.75251509 22.2304147 2.75251509 21.4585253 2.14084507 20.8410138 2.9054326 20.8410138 3.82293763 14.9746544 10.8571429 14.6658986 13.7625755 14.6658986 13.7625755"></polygon>
                        <ellipse id="Oval" transform="translate(22.687667, 2.135921) rotate(-25.214542) translate(-22.687667, -2.135921) " cx="22.6876666" cy="2.13592113" rx="1" ry="1"></ellipse>
                    </g>
                    <g id="Group" transform="translate(75.645161, 29.054326)" fill="#FFE6EA">
                        <ellipse id="Oval" transform="translate(14.420114, 4.694460) rotate(-61.138501) translate(-14.420114, -4.694460) " cx="14.4201136" cy="4.69446036" rx="1.69817785" ry="1.68211352"></ellipse>
                        <path d="M17.1359447,2.14084507 L16.5184332,1.83501006 L16.8271889,1.22334004 C16.9815668,1.07042254 16.8271889,0.764587525 16.6728111,0.61167002 C16.5184332,0.458752515 16.2096774,0.61167002 16.0552995,0.764587525 L15.7465438,1.37625755 L15.1290323,1.07042254 C14.9746544,0.91750503 14.6658986,1.07042254 14.5115207,1.22334004 C14.3571429,1.37625755 14.5115207,1.68209256 14.6658986,1.83501006 L15.2834101,2.14084507 L14.9746544,2.75251509 C14.8202765,2.9054326 14.9746544,3.21126761 15.1290323,3.36418511 C15.2834101,3.51710262 15.5921659,3.36418511 15.7465438,3.21126761 L16.0552995,2.59959759 L16.6728111,2.9054326 C16.8271889,3.0583501 17.1359447,2.9054326 17.2903226,2.75251509 C17.4447005,2.44668008 17.4447005,2.29376258 17.1359447,2.14084507 Z" id="Shape"></path>
                        <ellipse id="Oval" transform="translate(9.893029, 12.711558) rotate(-61.138501) translate(-9.893029, -12.711558) " cx="9.89302857" cy="12.7115581" rx="7.71899022" ry="6.8813735"></ellipse>
                    </g>
                    <path d="M22.2304147,82.5754527 C22.3847926,82.4225352 22.3847926,82.1167002 22.5391705,81.9637827 C22.8479263,81.3521127 23.9285714,81.1991952 23.9285714,81.1991952 C23.9285714,81.1991952 23.4654378,81.8108652 23.4654378,82.1167002 C23.4654378,82.4225352 23.3110599,82.5754527 23.3110599,82.8812877 C23.9285714,83.0342052 24.5460829,83.3400402 24.5460829,83.3400402 C24.5460829,83.3400402 24.7004608,83.1871227 25.0092166,83.1871227 C25.0092166,82.8812877 25.0092166,82.5754527 25.0092166,82.1167002 C25.1635945,81.3521127 25.9354839,81.1991952 25.9354839,81.1991952 C25.9354839,81.1991952 25.781106,81.3521127 25.781106,81.5050302 C25.781106,81.5050302 25.9354839,81.8108652 26.2442396,82.2696177 C26.3986175,82.4225352 26.5529954,82.7283702 26.5529954,82.8812877 C27.1705069,82.8812877 27.7880184,83.0342052 27.7880184,83.3400402 C27.7880184,83.7987928 28.40553,85.3279678 28.40553,85.3279678 C28.40553,85.3279678 28.40553,84.2575453 28.5599078,83.6458753 C28.7142857,83.1871227 28.8686636,82.8812877 28.8686636,82.8812877 C28.8686636,82.8812877 28.40553,82.2696177 28.5599078,81.8108652 C28.7142857,81.3521127 29.1774194,81.0462777 30.1036866,81.0462777 C30.1036866,80.8933602 30.1036866,80.8933602 30.2580645,80.7404427 C30.4124424,80.2816901 30.2580645,79.8229376 30.2580645,79.8229376 C30.2580645,79.8229376 30.875576,79.9758551 31.1843318,80.4346076 C31.3387097,80.5875252 31.3387097,80.8933602 31.3387097,81.1991952 C32.1105991,81.5050302 32.4193548,81.9637827 32.1105991,82.7283702 C31.8018433,83.6458753 30.4124424,83.6458753 30.7211982,84.5633803 C31.0299539,85.4808853 31.3387097,85.9396378 31.9562212,85.4808853 C32.5737327,85.1750503 33.3456221,84.2575453 33.6543779,83.9517103 C33.9631336,83.7987928 35.0437788,81.5050302 35.0437788,81.5050302 L37.8225806,84.8692153 C37.8225806,84.8692153 36.2788018,85.0221328 35.5069124,85.7867203 C34.735023,86.5513078 31.8018433,88.3863179 27.4792627,87.9275654 C23.156682,87.4688129 21.1497696,84.8692153 21.3041475,83.6458753 C21.3041475,82.7283702 21.7672811,82.5754527 22.2304147,82.5754527 Z" id="Shape" fill="#FF8094"></path>
                    <path d="M78.7327189,82.5754527 C78.578341,82.4225352 78.578341,82.1167002 78.4239631,81.9637827 C78.1152074,81.3521127 77.0345622,81.1991952 77.0345622,81.1991952 C77.0345622,81.1991952 77.4976959,81.8108652 77.4976959,82.1167002 C77.4976959,82.4225352 77.6520737,82.5754527 77.6520737,82.8812877 C77.0345622,83.0342052 76.4170507,83.3400402 76.4170507,83.3400402 C76.4170507,83.3400402 76.2626728,83.1871227 75.9539171,83.1871227 C75.9539171,82.8812877 75.9539171,82.5754527 75.9539171,82.1167002 C75.6451613,81.1991952 74.8732719,81.0462777 74.8732719,81.0462777 C74.8732719,81.0462777 75.0276498,81.1991952 75.0276498,81.3521127 C75.0276498,81.3521127 74.8732719,81.6579477 74.5645161,82.1167002 C74.4101382,82.2696177 74.2557604,82.5754527 74.2557604,82.7283702 C73.6382488,82.7283702 73.0207373,82.8812877 73.0207373,83.1871227 C73.0207373,83.6458753 72.4032258,85.1750503 72.4032258,85.1750503 C72.4032258,85.1750503 72.4032258,84.1046278 72.2488479,83.4929577 C72.09447,83.0342052 71.9400922,82.7283702 71.9400922,82.7283702 C71.9400922,82.7283702 72.4032258,82.1167002 72.2488479,81.6579477 C72.09447,81.1991952 71.6313364,80.8933602 70.7050691,80.8933602 C70.7050691,80.7404427 70.7050691,80.7404427 70.5506912,80.5875252 C70.3963134,80.1287726 70.5506912,79.6700201 70.5506912,79.6700201 C70.5506912,79.6700201 69.9331797,79.8229376 69.624424,80.2816901 C69.4700461,80.4346076 69.4700461,80.7404427 69.4700461,81.0462777 C68.6981567,81.3521127 68.3894009,81.8108652 68.6981567,82.5754527 C69.0069124,83.4929577 70.3963134,83.4929577 70.0875576,84.4104628 C69.7788018,85.3279678 69.4700461,85.7867203 68.8525346,85.3279678 C68.235023,85.0221328 67.4631336,84.1046278 67.1543779,83.7987928 C66.8456221,83.6458753 65.764977,81.3521127 65.764977,81.3521127 L62.9861751,84.7162978 C62.9861751,84.7162978 64.5299539,84.8692153 65.3018433,85.6338028 C66.0737327,86.3983903 69.0069124,88.2334004 73.3294931,87.7746479 C77.6520737,87.3158954 79.6589862,84.7162978 79.5046083,83.4929577 C79.6589862,82.7283702 79.1958525,82.5754527 78.7327189,82.5754527 Z" id="Shape" fill="#FF8094"></path>
                    <g id="Group" transform="translate(64.838710, 15.291751)">
                        <path d="M5.86635945,0 C5.86635945,0 4.78571429,0.30583501 3.55069124,0.91750503 C2.3156682,1.68209256 1.5437788,2.44668008 1.5437788,2.44668008 L4.32258065,2.59959759 L5.86635945,0 Z" id="Shape" fill="#FFFFFF"></path>
                        <path d="M8.95391705,1.98792757 C10.4976959,3.67002012 8.95391705,5.65794769 6.94700461,6.72837022 C4.94009217,7.95171026 2.47004608,8.25754527 1.69815668,6.1167002 C1.23502304,4.89336016 1.23502304,3.51710262 1.5437788,2.44668008 C2.47004608,2.44668008 3.0875576,2.14084507 4.01382488,1.68209256 C4.94009217,1.22334004 5.55760369,0.61167002 5.86635945,3.55271368e-15 C6.94700461,0.30583501 8.02764977,1.07042254 8.95391705,1.98792757 Z" id="Shape" fill="#FFE6EA"></path>
                        <g transform="translate(6.175115, 6.116700)">
                            <ellipse id="Oval" fill="#FFFFFF" transform="translate(1.300447, 1.097126) rotate(-30.378103) translate(-1.300447, -1.097126) " cx="1.04928996" cy="1.09750637" rx="1" ry="1"></ellipse>
                            <path d="M1.23502304,2.14084507 L1.23502304,2.14084507 C0.771889401,2.14084507 0.617511521,1.83501006 0.463133641,1.52917505 C0.30875576,1.22334004 0.15437788,0.91750503 0.30875576,0.61167002 C0.30875576,0.458752515 0.463133641,0.30583501 0.617511521,0.30583501 C0.926267281,0.152917505 1.5437788,0.30583501 1.69815668,0.764587525 L1.69815668,0.764587525 C2.00691244,1.22334004 2.00691244,1.83501006 1.5437788,1.98792757 C1.5437788,2.14084507 1.38940092,2.14084507 1.23502304,2.14084507 Z M0.771889401,0.61167002 L0.771889401,0.61167002 C0.617511521,0.61167002 0.617511521,0.764587525 0.617511521,0.764587525 C0.617511521,0.91750503 0.617511521,1.22334004 0.771889401,1.37625755 C0.926267281,1.52917505 1.08064516,1.68209256 1.23502304,1.83501006 L1.38940092,1.83501006 C1.5437788,1.68209256 1.5437788,1.37625755 1.38940092,1.07042254 L1.38940092,1.07042254 C1.23502304,0.764587525 0.926267281,0.61167002 0.771889401,0.61167002 Z" id="Shape" fill="#FFE6EA"></path>
                        </g>
                        <polygon id="Shape" fill="#FFE6EA" points="7.87327189 8.86921529 7.71889401 8.25754527 8.18202765 8.56338028 8.33640553 9.1750503"></polygon>
                        <polygon id="Shape" fill="#FFE6EA" points="8.33640553 8.25754527 7.71889401 8.41046278 8.18202765 7.95171026 8.79953917 7.79879276"></polygon>
                        <polygon id="Shape" fill="#FFE6EA" points="7.41013825 8.71629779 6.79262673 8.86921529 7.25576037 8.41046278 7.87327189 8.25754527"></polygon>
                    </g>
                </g>
            </g>
        </g>
    </g>
</svg>