<?xml version="1.0" encoding="UTF-8"?>
<svg width="98px" height="92px" viewBox="0 0 98 92" version="1.1" xmlns="http://www.w3.org/2000/svg" xmlns:xlink="http://www.w3.org/1999/xlink">
    <!-- Generator: Sketch 47.1 (45422) - http://www.bohemiancoding.com/sketch -->
    <title>icon_menu_money</title>
    <desc>Created with Sketch.</desc>
    <defs>
        <polygon id="path-1" points="94.329971 62.288942 94.329971 0.171855072 0.0970057971 0.171855072 0.0970057971 62.288942"></polygon>
    </defs>
    <g id="Page-1" stroke="none" stroke-width="1" fill="none" fill-rule="evenodd">
        <g id="Navigation-1920" transform="translate(-1039.000000, -729.000000)">
            <g id="Group-6" transform="translate(1039.000000, 728.000000)">
                <g id="Page-1">
                    <g id="Group-78" transform="translate(2.840580, 1.249145)">
                        <polygon id="Fill-1" fill="#FF99A9" points="94.2352377 40.8147275 10.466542 62.4926116 0.00184637681 22.0526986 83.770542 0.374814493"></polygon>
                        <polygon id="Fill-3" fill="#FFB3BF" points="45.8776348 9.97753623 42.1763594 10.9348116 12.201142 61.8408406 15.9024174 60.8821449"></polygon>
                        <polygon id="Fill-5" fill="#FFB3BF" points="51.2356783 8.59076522 47.5358232 9.54804058 17.5606058 60.4540696 21.2604609 59.4967942"></polygon>
                        <polygon id="Fill-7" fill="#FFB3BF" points="35.1604116 12.7510783 31.4591362 13.7083536 8.14081739 53.3088754 9.09951304 57.011571"></polygon>
                        <polygon id="Fill-9" fill="#FFB3BF" points="56.5937217 7.20456232 52.8924464 8.16183768 22.9186493 59.0678667 26.6199246 58.109171"></polygon>
                        <polygon id="Fill-11" fill="#FFB3BF" points="61.9524754 5.81750725 58.2512 6.77478261 28.2774029 57.6808116 31.9786783 56.7221159"></polygon>
                        <polygon id="Fill-13" fill="#FFB3BF" points="19.0845768 16.9111072 15.3847217 17.8683826 3.98121449 37.2340348 4.93848986 40.9338899"></polygon>
                        <polygon id="Fill-15" fill="#FFB3BF" points="36.8181739 12.3221507 9.45486957 58.3821507 10.3198261 61.7169913 10.397942 61.6971072 40.4470145 11.0779768"></polygon>
                        <polygon id="Fill-17" fill="#FFB3BF" points="67.3105188 4.43087826 63.6106638 5.38815362 33.6354464 56.2927623 37.3353014 55.335487"></polygon>
                        <polygon id="Fill-19" fill="#FFB3BF" points="24.4436145 15.5244783 20.7423391 16.4817536 5.36770145 42.5923623 6.32497681 46.2936377"></polygon>
                        <polygon id="Fill-21" fill="#FFB3BF" points="2.59430145 31.8752812 3.55157681 35.5765565 13.7265333 18.2973101 10.025258 19.2560058"></polygon>
                        <polygon id="Fill-23" fill="#FFB3BF" points="29.8013739 14.1378493 26.1015188 15.0951246 6.75433043 47.9521101 7.7116058 51.6519652"></polygon>
                        <polygon id="Fill-25" fill="#FFB3BF" points="72.6692725 3.04424928 68.9679971 4.00152464 38.9927797 54.9075536 42.6954754 53.948858"></polygon>
                        <polygon id="Fill-27" fill="#FFB3BF" points="91.9897594 31.9410406 91.0310638 28.2397652 81.8616725 43.8132435 85.5629478 42.8559681"></polygon>
                        <polygon id="Fill-29" fill="#FFB3BF" points="89.2163594 21.2242435 88.2590841 17.5229681 71.1445913 46.5863594 74.8458667 45.6290841"></polygon>
                        <polygon id="Fill-31" fill="#FFB3BF" points="8.36777971 19.6847913 -0.000568115942 21.8507333 2.16537391 30.2176609"></polygon>
                        <polygon id="Fill-33" fill="#FFB3BF" points="87.2202841 42.4264725 94.2336754 40.611342 92.4185449 33.599371"></polygon>
                        <polygon id="Fill-35" fill="#FFB3BF" points="90.6027043 26.582287 89.645429 22.8824319 76.503487 45.2008667 80.203342 44.242171"></polygon>
                        <polygon id="Fill-37" fill="#FFB3BF" points="83.3860696 0.270565217 79.6847942 1.22926087 49.7109971 52.1338696 53.4122725 51.1751739"></polygon>
                        <polygon id="Fill-39" fill="#FFB3BF" points="87.8294464 15.8654899 86.872171 12.1642145 65.7865478 47.9739826 69.4878232 47.015287"></polygon>
                        <polygon id="Fill-41" fill="#FFB3BF" points="78.0273159 1.65762029 74.3274609 2.61489565 44.3522435 53.5195043 48.0520986 52.562229"></polygon>
                        <polygon id="Fill-43" fill="#FFB3BF" points="86.4426754 10.5070203 85.4854 6.80574493 60.4286464 49.3604696 64.1285014 48.4031942"></polygon>
                        <polygon id="Fill-45" fill="#FFB3BF" points="85.0560464 5.14826667 84.098771 1.4469913 55.0694667 50.7466725 58.770742 49.7893971"></polygon>
                        <path d="M52.1230754,30.2886754 C52.7934522,32.8778638 51.2368145,35.5196029 48.6490464,36.1899797 L14.3689304,45.0611101 C11.779742,45.7300667 9.1380029,44.1748493 8.46762609,41.5856609 L8.3951913,41.3044435 C7.72481449,38.7166754 9.28145217,36.0735159 11.8706406,35.4045594 L46.1493362,26.533429 C48.7385246,25.8630522 51.3802638,27.4182696 52.0506406,30.007458 L52.1230754,30.2886754 Z" id="Fill-47" fill="#FF8094"></path>
                        <path d="M86.1094754,21.4932464 C86.7798522,24.0824348 85.2232145,26.7241739 82.6340261,27.3945507 L48.3553304,36.2656812 C45.766142,36.936058 43.1244029,35.3794203 42.4540261,32.7902319 L42.3815913,32.5090145 C41.7126348,29.9212464 43.2678522,27.278087 45.8570406,26.6091304 L80.1357362,17.738 C82.7249246,17.0676232 85.3666638,18.6228406 86.0370406,21.212029 L86.1094754,21.4932464 Z" id="Fill-49" fill="#FF8094"></path>
                        <path d="M32.7604058,35.1494754 C30.8032464,27.5892725 35.3467536,19.8728377 42.9069565,17.9170986 C50.4685797,15.9599391 58.1835942,20.5034464 60.1407536,28.0636493 C62.0964928,35.6252725 57.5544058,43.340287 49.9927826,45.2974464 C42.4325797,47.2531855 34.7175652,42.7096783 32.7604058,35.1494754" id="Fill-51" fill="#FFE6EA"></path>
                        <path d="M46.3152261,14.6348087 L46.3152261,14.6348087 C44.9332841,14.646171 43.5485014,14.8293884 42.1992261,15.1787797 C37.8105304,16.3150116 34.1277188,19.090258 31.8282696,22.9960551 C29.5288203,26.9018522 28.8868493,31.4695043 30.0230812,35.8582 C31.9788203,43.414142 38.7891101,48.6450696 46.5850812,48.5783159 C47.9684435,48.5669536 49.3532261,48.3837362 50.7025014,48.0343449 C55.0897768,46.8995333 58.7725884,44.1228667 61.073458,40.2170696 C63.3729072,36.3112725 64.013458,31.7436203 62.8786464,27.3549246 C60.9229072,19.7989826 54.1111971,14.5680551 46.3152261,14.6348087 M46.339371,17.4626058 C52.6767043,17.4086348 58.481429,21.6510406 60.1403275,28.0636493 C62.097487,35.6252725 57.5539797,43.340287 49.9937768,45.2960261 C48.8461826,45.594287 47.6943275,45.7405768 46.5609362,45.7505188 C40.2236029,45.8044899 34.4202986,41.5635043 32.7599797,35.1494754 C30.8042406,27.5892725 35.3463275,19.8728377 42.9079507,17.9170986 C44.0555449,17.620258 45.2059797,17.4725478 46.339371,17.4626058" id="Fill-53" fill="#FF8094"></path>
                        <path d="M46.3271565,19.9802116 L46.8413014,20.0810522 L51.7753884,39.1484435 L55.3090696,41.5885014 L46.6552435,43.8268783 L46.1666638,43.4675449 L54.2126058,41.3854 L51.3535623,39.4012551 L46.3271565,19.9802116 Z M45.4053884,19.8935739 L50.4744029,39.4850522 L52.9897362,40.709342 L45.7064899,42.5940667 L47.3966348,40.2818348 L43.5476493,25.4071391 C42.9809536,25.9141826 42.3673884,26.2536319 41.7012725,26.425487 C40.6644609,26.6939217 39.7554754,26.4780377 38.9728957,25.7792551 L39.1092435,25.7437478 C39.9415333,26.1286464 40.7582,26.2181246 41.5592435,26.0107623 C42.3134174,25.8161826 42.9326638,25.445487 43.4155623,24.9000957 L43.1457072,23.8519217 C42.5236203,24.6131971 41.7026928,25.127342 40.6772435,25.3915159 C40.1133884,25.5378058 39.6091855,25.5307043 39.1646348,25.3687913 C38.7200841,25.2068783 38.4473884,24.9341826 38.3479681,24.5521246 C38.2030986,23.9882696 38.3919971,23.6260957 38.9160841,23.4670232 C39.3833594,23.3221536 39.6759391,23.4755449 39.7924029,23.9257768 C39.812287,24.0038928 39.822229,24.0862696 39.8193884,24.171487 C39.8236493,24.2297188 39.8279101,24.2709072 39.8335913,24.2936319 C39.8904029,24.4711681 40.0665188,24.5222986 40.3605188,24.4456029 C41.1033304,24.2538638 41.7623449,23.7766464 42.3347217,23.015371 C42.9070986,22.2540957 43.2593304,21.3877188 43.3928377,20.4148203 L45.4053884,19.8935739 Z" id="Fill-55" fill="#FF4A68"></path>
                        <g id="Group-59">
                            <mask id="mask-2" fill="white">
                                <use xlink:href="#path-1"></use>
                            </mask>
                            <g id="Clip-58"></g>
                            <path d="M21.6428029,56.693 C20.4014696,51.8952609 15.5057304,49.0134928 10.7079913,50.2548261 C10.466542,50.3173188 10.2407159,50.4096377 10.0092087,50.4905942 L5.37054203,32.5665362 C5.53813623,32.5352899 5.70573043,32.5168261 5.87332464,32.4727971 C10.6710638,31.2314638 13.5528319,26.3357246 12.3114986,21.5379855 C12.2830928,21.4272029 12.2362232,21.3263623 12.2021362,21.217 L72.7618754,5.54552174 C72.7789188,5.61937681 72.7846,5.69323188 72.8044841,5.76708696 C74.0458174,10.5648261 78.9401362,13.4465942 83.7378754,12.2052609 C83.9736435,12.1441884 84.1937884,12.0547101 84.4181942,11.9751739 L89.0568609,29.8963913 C88.8949478,29.9276377 88.7344551,29.9446812 88.5739623,29.9872899 C83.7762232,31.2286232 80.8944551,36.1243623 82.1357884,40.9206812 C82.1641942,41.0314638 82.2096435,41.1308841 82.2423101,41.2388261 L21.6839913,56.9103043 C21.6669478,56.8378696 21.6612667,56.7654348 21.6428029,56.693 L21.6428029,56.693 Z M83.8642812,0.171144928 L0.0970057971,21.849029 L10.5617014,62.288942 L94.3303971,40.611058 L83.8642812,0.171144928 Z" id="Fill-57" fill="#FF99A9" mask="url(#mask-2)"></path>
                        </g>
                        <path d="M11.7798841,41.8012609 C12.1974493,42.046971 12.6448406,42.1080435 13.122058,41.9844783 C13.6006957,41.860913 13.9614493,41.591058 14.2071594,41.1734928 C14.4514493,40.7559275 14.5125217,40.3071159 14.3889565,39.8313188 C14.2653913,39.3541014 13.9955362,38.9933478 13.5793913,38.7462174 C13.1618261,38.5019275 12.7158551,38.4422754 12.2372174,38.5658406 C11.76,38.6894058 11.3978261,38.9592609 11.1521159,39.3754058 C10.9078261,39.7915507 10.8467536,40.238942 10.9703188,40.7161594 C11.0938841,41.1919565 11.3637391,41.5555507 11.7798841,41.8012609 M10.5129855,39.043058 C10.8623768,38.4635797 11.3793623,38.0857826 12.0667826,37.9068261 C12.7542029,37.7292899 13.391913,37.8102464 13.9770725,38.1468551 C14.5622319,38.4834638 14.940029,38.9819855 15.1118841,39.6438406 C15.2823188,40.3042754 15.1928406,40.924942 14.8462899,41.503 C14.4968986,42.0824783 13.979913,42.4616957 13.2924928,42.6392319 C12.6050725,42.8167681 11.9673623,42.7372319 11.3822029,42.3992029 C10.7970435,42.0625942 10.4192464,41.5626522 10.2473913,40.9022174 C10.0769565,40.2403623 10.1650145,39.6211159 10.5129855,39.043058" id="Fill-60" fill="#FF4A68"></path>
                        <path d="M16.8409449,39.2465855 C16.8636696,39.5633101 16.860829,39.8246435 16.8338435,40.0305855 C16.8040174,40.2365275 16.7685101,40.4183246 16.7273217,40.5759768 C16.6875536,40.7350493 16.6449449,40.8500928 16.6051768,40.9225275 L16.5469449,41.0262087 L18.8804812,40.4225855 L18.0297275,37.1346145 L16.4858725,37.5351362 L16.6719304,38.2566435 C16.7614087,38.5989333 16.8168,38.9284406 16.8409449,39.2465855 L16.8409449,39.2465855 Z M15.8240174,41.213687 C15.8410609,41.189542 15.8623652,41.1526145 15.8850899,41.1029043 C15.9106551,41.0517739 15.9475826,40.9409913 16.0001333,40.7677159 C16.0512638,40.5972812 16.0896116,40.4126435 16.1123362,40.2180638 C16.1364812,40.0220638 16.1379014,39.7621507 16.1151768,39.4397449 C16.0938725,39.1187594 16.0384812,38.7864116 15.9504232,38.4441217 L15.5925101,37.0636 L18.5836406,36.289542 L19.604829,40.2351072 L20.1644232,40.0902377 L20.5890899,41.733513 L19.8633217,41.9209913 L19.6090899,40.9353101 L16.4532058,41.7519768 L16.708858,42.737658 L15.9859304,42.9251362 L15.5612638,41.2818609 L15.8240174,41.213687 Z" id="Fill-62" fill="#FF4A68"></path>
                        <polygon id="Fill-64" fill="#FF4A68" points="24.0764696 39.7794783 23.2171942 36.4602609 21.5114261 40.4427536 20.8893391 40.6046667 19.6977159 36.0015072 20.4206435 35.814029 21.2799188 39.136087 22.9842667 35.1507536 23.6077739 34.9902609 24.7993971 39.592"></polygon>
                        <polygon id="Fill-66" fill="#FF4A68" points="29.4744232 38.3826232 28.7514957 38.5701014 28.2330899 36.5632319 25.9634667 37.1512319 26.4832928 39.1566812 25.7603652 39.3441594 24.568742 34.741 25.2916696 34.5535217 25.7944522 36.495058 28.0626551 35.9084783 27.5612928 33.966942 28.2828 33.7794638"></polygon>
                        <path d="M64.1455449,25.200913 L64.5702116,26.8441884 L65.6879797,26.5558696 C65.9152261,26.4962174 66.0885014,26.366971 66.2078058,26.1681304 C66.3271101,25.9707101 66.3583565,25.7548261 66.2972841,25.5218986 C66.2376319,25.2903913 66.1069652,25.1156957 65.9052841,24.9992319 C65.7036029,24.8827681 65.4891391,24.852942 65.2618928,24.9111739 L64.1455449,25.200913 Z M65.0928783,24.2535797 C65.5317478,24.1399565 65.9351101,24.1882464 66.3058058,24.3998696 C66.6779217,24.6114928 66.9165304,24.9225362 67.0230522,25.3344203 C67.1295739,25.7463043 67.071342,26.1340435 66.8497768,26.4976377 C66.6267913,26.8612319 66.2972841,27.0998406 65.8584145,27.2134638 L64.7406464,27.5017826 L65.1667333,29.1464783 L64.4438058,29.3325362 L63.2536029,24.7293768 L65.0928783,24.2535797 Z" id="Fill-68" fill="#FF4A68"></path>
                        <path d="M69.4170928,25.6963101 L69.9127739,23.0062812 L70.6697884,22.8102812 L69.9283971,26.7217594 C69.8431797,27.1847739 69.712513,27.5384261 69.5349768,27.7841362 C69.3574406,28.0298464 69.0861652,28.2002812 68.722571,28.2940203 C68.6430348,28.3153246 68.5634986,28.3252667 68.482542,28.3295275 C68.4001652,28.3323681 68.3376725,28.3295275 68.2950638,28.3224261 L68.2354116,28.3167449 L68.0734986,27.6918174 C68.1714986,27.7117014 68.3092667,27.7003391 68.4853826,27.6563101 C68.6998464,27.6009188 68.8574986,27.5142812 68.9583391,27.3978174 C69.0591797,27.2799333 69.1301942,27.1208609 69.1713826,26.9177594 L69.2494986,26.5442232 L66.7895565,23.8144261 L67.546571,23.6184261 L69.4170928,25.6963101 Z" id="Fill-70" fill="#FF4A68"></path>
                        <path d="M74.0530609,26.1441275 C74.2661043,26.0887362 74.4280174,25.9694319 74.5359594,25.7890551 C74.6424812,25.607258 74.6680464,25.4084174 74.6126551,25.1925333 C74.5558435,24.9780696 74.4379594,24.8175768 74.2561623,24.7096348 C74.0743652,24.603113 73.8755246,24.5775478 73.6624812,24.6329391 L72.4779594,24.9383014 L72.8685391,26.4509101 L74.0530609,26.1441275 Z M72.3160464,27.2959826 L71.1258435,22.6928232 L74.1496406,21.9102435 L74.3200754,22.5678377 L72.0177855,23.1643594 L72.3075246,24.2807072 L73.4920464,23.9739246 C73.916713,23.8645623 74.3058725,23.9085913 74.6566841,24.1074319 C75.0074957,24.3076928 75.2333217,24.6059536 75.3370029,25.0050551 C75.4406841,25.4041565 75.3881333,25.7762725 75.1779304,26.1199826 C74.9677275,26.465113 74.6495826,26.6923594 74.2234957,26.8017217 L72.3160464,27.2959826 Z" id="Fill-72" fill="#FF4A68"></path>
                        <path d="M80.2000754,25.2554522 L79.4771478,25.4429304 L78.4559594,21.4973652 L76.7814377,21.9305536 L76.9674957,22.6534812 C77.1393507,23.3139159 77.2501333,23.8763507 77.3012638,24.3379449 C77.3523942,24.7995391 77.3424522,25.1631333 77.272858,25.4273072 C77.2032638,25.6914812 77.1024232,25.8874812 76.9703362,26.0181478 C76.8382493,26.1473942 76.660713,26.239713 76.4377275,26.2979449 C76.3596116,26.317829 76.2729739,26.3306116 76.1820754,26.337713 C76.0883362,26.3419739 76.0159014,26.3433942 75.9633507,26.337713 L75.8866551,26.337713 L75.7076986,25.6474522 C75.8497275,25.6559739 75.9761333,25.6460319 76.0840754,25.6190464 C76.2104812,25.5863797 76.3113217,25.5253072 76.3865971,25.4386696 C76.4604522,25.3520319 76.5158435,25.2114232 76.552771,25.0182638 C76.5882783,24.8236841 76.5797565,24.5453072 76.5286261,24.181713 C76.4746551,23.8181188 76.3794957,23.3721478 76.2431478,22.8409594 L75.8852348,21.4604377 L79.0084522,20.6522928 L80.2000754,25.2554522 Z" id="Fill-74" fill="#FF4A68"></path>
                        <path d="M82.8321565,23.8722319 C83.0594029,23.814 83.231258,23.6847536 83.3519826,23.485913 C83.471287,23.2870725 83.501113,23.0711884 83.4414609,22.8396812 C83.3818087,22.6067536 83.2525623,22.432058 83.0508812,22.3155942 C82.8506203,22.1991304 82.6347362,22.1693043 82.4074899,22.2289565 L81.2897217,22.5172754 L81.7143884,24.161971 L82.8321565,23.8722319 Z M81.1633159,25.0056232 L79.9716928,20.4038841 L80.6946203,20.2164058 L81.119287,21.8596812 L82.2370551,21.5713623 C82.6759246,21.4577391 83.079287,21.506029 83.4499826,21.7162319 C83.8220986,21.9278551 84.0607072,22.2388986 84.167229,22.6522029 C84.2737507,23.064087 84.2155188,23.4518261 83.9939536,23.8154203 C83.7709681,24.1775942 83.4414609,24.4162029 83.0025913,24.5298261 L81.1633159,25.0056232 Z" id="Fill-76" fill="#FF4A68"></path>
                    </g>
                    <polygon id="Fill-79" fill="#FF99A9" points="0.00127826087 51.7073565 10.4659739 92.1472696 94.2346696 70.4693855 83.7699739 30.0294725"></polygon>
                    <polygon id="Fill-80" fill="#FFB3BF" points="42.1762174 40.5903217 12.2024203 91.4963507 15.9022754 90.5376551 45.8774928 39.6330464"></polygon>
                    <polygon id="Fill-81" fill="#FFB3BF" points="51.2356783 38.2457072 47.5358232 39.2029826 17.5606058 90.1090116 21.2604609 89.1517362"></polygon>
                    <polygon id="Fill-82" fill="#FFB3BF" points="35.1604116 42.4060203 31.4591362 43.3632957 8.14081739 82.9638174 9.09951304 86.666513"></polygon>
                    <polygon id="Fill-83" fill="#FFB3BF" points="56.5937217 36.8595043 52.8924464 37.8167797 22.9186493 88.7228087 26.6199246 87.764113"></polygon>
                    <polygon id="Fill-84" fill="#FFB3BF" points="61.9524754 35.4724493 58.2512 36.4297246 28.2774029 87.3357536 31.9786783 86.377058"></polygon>
                    <polygon id="Fill-85" fill="#FFB3BF" points="19.0845768 46.5660493 15.3847217 47.5233246 3.98121449 66.8889768 4.93848986 70.5888319"></polygon>
                    <polygon id="Fill-86" fill="#FFB3BF" points="36.8177478 41.9772348 9.45586377 88.0372348 10.3194 91.3720754 10.3989362 91.350771 40.4465884 40.7330609"></polygon>
                    <polygon id="Fill-87" fill="#FFB3BF" points="67.3105188 34.0858203 63.6106638 35.0430957 33.6354464 85.9477043 37.3353014 84.990429"></polygon>
                    <polygon id="Fill-88" fill="#FFB3BF" points="24.4436145 45.1794203 20.7423391 46.1366957 5.36770145 72.2473043 6.32497681 75.9485797"></polygon>
                    <polygon id="Fill-89" fill="#FFB3BF" points="2.59430145 61.5302232 3.55157681 65.2314986 13.7265333 47.9522522 10.025258 48.9109478"></polygon>
                    <polygon id="Fill-90" fill="#FFB3BF" points="29.8013739 43.7927913 26.1015188 44.7500667 6.75433043 77.6070522 7.7116058 81.3069072"></polygon>
                    <polygon id="Fill-91" fill="#FFB3BF" points="72.6692725 32.6991913 68.9679971 33.6564667 38.9927797 84.5624957 42.6954754 83.6038"></polygon>
                    <polygon id="Fill-92" fill="#FFB3BF" points="91.9897594 61.5959826 91.0310638 57.8947072 81.8616725 73.4681855 85.5629478 72.5109101"></polygon>
                    <polygon id="Fill-93" fill="#FFB3BF" points="89.2163594 50.8791855 88.2590841 47.1779101 71.1445913 76.2413014 74.8458667 75.2840261"></polygon>
                    <polygon id="Fill-94" fill="#FFB3BF" points="0 51.5053913 2.16594203 59.8723188 8.36692754 49.3394493"></polygon>
                    <polygon id="Fill-95" fill="#FFB3BF" points="87.2202841 72.0814145 94.2336754 70.2662841 92.4185449 63.254313"></polygon>
                    <polygon id="Fill-96" fill="#FFB3BF" points="90.6027043 56.237229 89.645429 52.5373739 76.503487 74.8558087 80.203342 73.897113"></polygon>
                    <polygon id="Fill-97" fill="#FFB3BF" points="83.3860696 29.9255072 79.6847942 30.8842029 49.7109971 81.7888116 53.4122725 80.8301159"></polygon>
                    <polygon id="Fill-98" fill="#FFB3BF" points="87.8294464 45.5204319 86.872171 41.8191565 65.7865478 77.6289246 69.4878232 76.670229"></polygon>
                    <polygon id="Fill-99" fill="#FFB3BF" points="78.0273159 31.3125623 74.3274609 32.2698377 44.3522435 83.1744464 48.0520986 82.217171"></polygon>
                    <polygon id="Fill-100" fill="#FFB3BF" points="86.4426754 40.1619623 85.4854 36.460687 60.4286464 79.0154116 64.1285014 78.0581362"></polygon>
                    <polygon id="Fill-101" fill="#FFB3BF" points="85.0560464 34.8032087 84.098771 31.1019333 55.0694667 80.4016145 58.770742 79.4443391"></polygon>
                    <g id="Group-132" transform="translate(0.000000, 29.654942)">
                        <path d="M52.1230754,30.2886754 C52.7934522,32.8778638 51.2368145,35.5196029 48.6490464,36.1899797 L14.3689304,45.0611101 C11.779742,45.7300667 9.1380029,44.1748493 8.46762609,41.5856609 L8.3951913,41.3044435 C7.72481449,38.7166754 9.28145217,36.0735159 11.8706406,35.4045594 L46.1493362,26.533429 C48.7385246,25.8630522 51.3802638,27.4182696 52.0506406,30.007458 L52.1230754,30.2886754 Z" id="Fill-102" fill="#FF8094"></path>
                        <path d="M86.1094754,21.4932464 C86.7798522,24.0824348 85.2232145,26.7241739 82.6340261,27.3945507 L48.3553304,36.2656812 C45.766142,36.936058 43.1244029,35.3794203 42.4540261,32.7902319 L42.3815913,32.5090145 C41.7126348,29.9212464 43.2678522,27.278087 45.8570406,26.6091304 L80.1357362,17.738 C82.7249246,17.0676232 85.3666638,18.6228406 86.0370406,21.212029 L86.1094754,21.4932464 Z" id="Fill-104" fill="#FF8094"></path>
                        <path d="M32.7604058,35.1494754 C30.8032464,27.5892725 35.3467536,19.8728377 42.9069565,17.9170986 C50.4685797,15.9599391 58.1835942,20.5034464 60.1407536,28.0636493 C62.0964928,35.6252725 57.5544058,43.340287 49.9927826,45.2974464 C42.4325797,47.2531855 34.7175652,42.7096783 32.7604058,35.1494754" id="Fill-106" fill="#FFE6EA"></path>
                        <path d="M46.3152261,14.6348087 L46.3152261,14.6348087 C44.9332841,14.646171 43.5470812,14.8293884 42.1992261,15.1787797 C37.8105304,16.3150116 34.1277188,19.090258 31.8282696,22.9960551 C29.5288203,26.9018522 28.8868493,31.4695043 30.0230812,35.8582 C31.9788203,43.414142 38.7891101,48.6450696 46.5850812,48.5783159 C47.9684435,48.5669536 49.3532261,48.3837362 50.7025014,48.0343449 C55.0897768,46.8995333 58.7725884,44.1228667 61.073458,40.2170696 C63.3729072,36.3112725 64.013458,31.7436203 62.8786464,27.3549246 C60.9229072,19.7989826 54.1111971,14.5680551 46.3152261,14.6348087 M46.339371,17.4626058 C52.6767043,17.4086348 58.481429,21.6510406 60.1403275,28.0636493 C62.097487,35.6252725 57.5539797,43.340287 49.9937768,45.2960261 C48.8461826,45.594287 47.6943275,45.7405768 46.5609362,45.7505188 C40.2236029,45.8044899 34.4202986,41.5635043 32.7599797,35.1494754 C30.8042406,27.5892725 35.3463275,19.8728377 42.9079507,17.9170986 C44.0555449,17.620258 45.2059797,17.4725478 46.339371,17.4626058" id="Fill-108" fill="#FF8094"></path>
                        <path d="M46.3271565,19.9802116 L46.8413014,20.0810522 L51.7753884,39.1484435 L55.3090696,41.5885014 L46.6552435,43.8268783 L46.1666638,43.4675449 L54.2126058,41.3854 L51.3535623,39.4012551 L46.3271565,19.9802116 Z M45.4053884,19.8935739 L50.4744029,39.4850522 L52.9897362,40.709342 L45.7064899,42.5940667 L47.3966348,40.2818348 L43.5476493,25.4071391 C42.9809536,25.9141826 42.3673884,26.2536319 41.7012725,26.425487 C40.6644609,26.6939217 39.7554754,26.4780377 38.9728957,25.7792551 L39.1092435,25.7437478 C39.9415333,26.1286464 40.7582,26.2181246 41.5592435,26.0107623 C42.3134174,25.8161826 42.9326638,25.445487 43.4155623,24.9000957 L43.144287,23.8519217 C42.5236203,24.6131971 41.7026928,25.127342 40.6772435,25.3915159 C40.1133884,25.5378058 39.6091855,25.5307043 39.1646348,25.3687913 C38.7200841,25.2068783 38.4473884,24.9341826 38.3479681,24.5521246 C38.2030986,23.9882696 38.3919971,23.6260957 38.9160841,23.4670232 C39.3833594,23.3221536 39.6759391,23.4755449 39.7924029,23.9257768 C39.812287,24.0038928 39.822229,24.0862696 39.8193884,24.171487 C39.8236493,24.2297188 39.8279101,24.2709072 39.8335913,24.2936319 C39.8904029,24.4711681 40.0665188,24.5222986 40.3605188,24.4456029 C41.1033304,24.2538638 41.7623449,23.7766464 42.3347217,23.015371 C42.9070986,22.2540957 43.2593304,21.3877188 43.3928377,20.4148203 L45.4053884,19.8935739 Z" id="Fill-110" fill="#FF4A68"></path>
                        <path d="M21.6428029,56.693 C20.4014696,51.8952609 15.5057304,49.0134928 10.7079913,50.2548261 C10.466542,50.3173188 10.2407159,50.4096377 10.0092087,50.4905942 L5.37054203,32.5665362 C5.53813623,32.5352899 5.70573043,32.5168261 5.87332464,32.4727971 C10.6710638,31.2314638 13.5528319,26.3357246 12.3114986,21.5379855 C12.2830928,21.4272029 12.2362232,21.3263623 12.2021362,21.217 L72.7618754,5.54552174 C72.7789188,5.61937681 72.7846,5.69323188 72.8044841,5.76708696 C74.0458174,10.5648261 78.9401362,13.4465942 83.7378754,12.2052609 C83.9736435,12.1441884 84.1937884,12.0547101 84.4181942,11.9751739 L89.0568609,29.8963913 C88.8949478,29.9276377 88.7344551,29.9446812 88.5739623,29.9872899 C83.7762232,31.2286232 80.8944551,36.1243623 82.1357884,40.9206812 C82.1641942,41.0314638 82.2096435,41.1308841 82.2423101,41.2388261 L21.6839913,56.9103043 C21.6669478,56.8378696 21.6612667,56.7654348 21.6428029,56.693 L21.6428029,56.693 Z M83.8642812,0.171144928 L0.0970057971,21.849029 L10.5617014,62.288942 L94.3303971,40.611058 L83.8642812,0.171144928 Z" id="Fill-112" fill="#FF99A9"></path>
                        <path d="M11.7798841,41.8012609 C12.1974493,42.046971 12.6448406,42.1080435 13.122058,41.9844783 C13.6006957,41.860913 13.9614493,41.591058 14.2071594,41.1734928 C14.4514493,40.7559275 14.5125217,40.3071159 14.3889565,39.8313188 C14.2653913,39.3541014 13.9955362,38.9933478 13.5793913,38.7462174 C13.1618261,38.5019275 12.7158551,38.4422754 12.2372174,38.5658406 C11.76,38.6894058 11.3978261,38.9592609 11.1521159,39.3754058 C10.9078261,39.7915507 10.8467536,40.238942 10.9703188,40.7161594 C11.0938841,41.1919565 11.3637391,41.5555507 11.7798841,41.8012609 M10.5129855,39.043058 C10.8623768,38.4635797 11.3793623,38.0857826 12.0667826,37.9068261 C12.7542029,37.7292899 13.391913,37.8102464 13.9770725,38.1468551 C14.5622319,38.4834638 14.940029,38.9819855 15.1118841,39.6438406 C15.2823188,40.3042754 15.1928406,40.924942 14.8462899,41.503 C14.4968986,42.0824783 13.979913,42.4616957 13.2924928,42.6392319 C12.6050725,42.8167681 11.9673623,42.7372319 11.3822029,42.3992029 C10.7970435,42.0625942 10.4192464,41.5626522 10.2473913,40.9022174 C10.0769565,40.2403623 10.1650145,39.6211159 10.5129855,39.043058" id="Fill-114" fill="#FF4A68"></path>
                        <path d="M16.8409449,39.2465855 C16.8636696,39.5633101 16.860829,39.8246435 16.8338435,40.0305855 C16.8040174,40.2365275 16.7685101,40.4183246 16.7273217,40.5759768 C16.6875536,40.7350493 16.6449449,40.8500928 16.6051768,40.9225275 L16.5469449,41.0262087 L18.8804812,40.4225855 L18.0297275,37.1346145 L16.4858725,37.5351362 L16.6719304,38.2566435 C16.7614087,38.5989333 16.8168,38.9284406 16.8409449,39.2465855 L16.8409449,39.2465855 Z M15.8240174,41.213687 C15.8410609,41.189542 15.8623652,41.1526145 15.8850899,41.1029043 C15.9106551,41.0517739 15.9475826,40.9409913 16.0001333,40.7677159 C16.0512638,40.5972812 16.0896116,40.4126435 16.1123362,40.2180638 C16.1364812,40.0220638 16.1379014,39.7621507 16.1151768,39.4397449 C16.0938725,39.1187594 16.0384812,38.7864116 15.9504232,38.4441217 L15.5925101,37.0636 L18.5836406,36.289542 L19.604829,40.2351072 L20.1644232,40.0902377 L20.5890899,41.733513 L19.8633217,41.9209913 L19.6090899,40.9353101 L16.4532058,41.7519768 L16.708858,42.737658 L15.9859304,42.9251362 L15.5612638,41.2818609 L15.8240174,41.213687 Z" id="Fill-116" fill="#FF4A68"></path>
                        <polygon id="Fill-118" fill="#FF4A68" points="24.0764696 39.7794783 23.2171942 36.4602609 21.5114261 40.4427536 20.8893391 40.6046667 19.6977159 36.0015072 20.4206435 35.814029 21.2799188 39.136087 22.9842667 35.1507536 23.6077739 34.9902609 24.7993971 39.592"></polygon>
                        <polygon id="Fill-120" fill="#FF4A68" points="29.4744232 38.3826232 28.7514957 38.5701014 28.2330899 36.5632319 25.9634667 37.1512319 26.4832928 39.1566812 25.7603652 39.3441594 24.568742 34.741 25.2916696 34.5535217 25.7944522 36.495058 28.0626551 35.9084783 27.5612928 33.966942 28.2828 33.7794638"></polygon>
                        <path d="M64.1455449,25.200913 L64.5702116,26.8441884 L65.6879797,26.5558696 C65.9152261,26.4962174 66.0885014,26.366971 66.2078058,26.1681304 C66.3271101,25.9707101 66.3583565,25.7548261 66.2972841,25.5218986 C66.2376319,25.2903913 66.1069652,25.1156957 65.9052841,24.9992319 C65.7036029,24.8827681 65.4891391,24.852942 65.2618928,24.9111739 L64.1455449,25.200913 Z M65.0928783,24.2535797 C65.5317478,24.1399565 65.9351101,24.1896667 66.3058058,24.3998696 C66.6779217,24.6114928 66.9165304,24.9225362 67.0230522,25.3344203 C67.1295739,25.7463043 67.071342,26.1340435 66.8497768,26.4976377 C66.6267913,26.8612319 66.2972841,27.0998406 65.8584145,27.2134638 L64.7406464,27.5017826 L65.1667333,29.1464783 L64.4438058,29.3325362 L63.2536029,24.7293768 L65.0928783,24.2535797 Z" id="Fill-122" fill="#FF4A68"></path>
                        <path d="M69.4170928,25.6963101 L69.9127739,23.0062812 L70.6697884,22.8102812 L69.9283971,26.7217594 C69.8431797,27.1847739 69.712513,27.5384261 69.5349768,27.7841362 C69.3574406,28.0298464 69.0861652,28.2002812 68.722571,28.2940203 C68.6430348,28.3153246 68.5634986,28.3252667 68.482542,28.3295275 C68.4001652,28.3323681 68.3376725,28.3295275 68.2950638,28.3224261 L68.2354116,28.3167449 L68.0734986,27.6918174 C68.1714986,27.7117014 68.3092667,27.7003391 68.4853826,27.6563101 C68.6998464,27.6009188 68.8574986,27.5142812 68.9583391,27.3978174 C69.0591797,27.2799333 69.1301942,27.1208609 69.1713826,26.9177594 L69.2494986,26.5442232 L66.7895565,23.8144261 L67.546571,23.6184261 L69.4170928,25.6963101 Z" id="Fill-124" fill="#FF4A68"></path>
                        <path d="M74.0530609,26.1441275 C74.2661043,26.0887362 74.4280174,25.9694319 74.5359594,25.7890551 C74.6424812,25.607258 74.6680464,25.4084174 74.6126551,25.1925333 C74.5558435,24.9780696 74.4379594,24.8175768 74.2561623,24.7096348 C74.0743652,24.603113 73.8755246,24.5775478 73.6624812,24.6329391 L72.4779594,24.9383014 L72.8685391,26.4509101 L74.0530609,26.1441275 Z M72.3160464,27.2959826 L71.1258435,22.6928232 L74.1496406,21.9102435 L74.3200754,22.5678377 L72.0177855,23.1643594 L72.3075246,24.2807072 L73.4920464,23.9739246 C73.916713,23.8645623 74.3058725,23.9085913 74.6566841,24.1074319 C75.0074957,24.3076928 75.2333217,24.6059536 75.3370029,25.0050551 C75.4406841,25.4041565 75.3881333,25.7762725 75.1779304,26.1199826 C74.9677275,26.465113 74.6495826,26.6923594 74.2234957,26.8017217 L72.3160464,27.2959826 Z" id="Fill-126" fill="#FF4A68"></path>
                        <path d="M80.2000754,25.2554522 L79.4771478,25.4429304 L78.4559594,21.4973652 L76.7814377,21.9305536 L76.9674957,22.6534812 C77.1393507,23.3139159 77.2501333,23.8749304 77.3012638,24.3379449 C77.3523942,24.7981188 77.3424522,25.1631333 77.272858,25.4273072 C77.2032638,25.6914812 77.1024232,25.8874812 76.9703362,26.0181478 C76.8382493,26.1473942 76.660713,26.239713 76.4377275,26.2979449 C76.3596116,26.317829 76.2729739,26.3306116 76.1820754,26.3362928 C76.0883362,26.3419739 76.0159014,26.3419739 75.9633507,26.337713 L75.8866551,26.337713 L75.7076986,25.6474522 C75.8497275,25.6559739 75.9761333,25.6460319 76.0840754,25.6176261 C76.2104812,25.5863797 76.3113217,25.5253072 76.3865971,25.4386696 C76.4604522,25.3520319 76.5158435,25.2114232 76.552771,25.0168435 C76.5882783,24.8236841 76.5797565,24.543887 76.5286261,24.181713 C76.4746551,23.8181188 76.3794957,23.3721478 76.2431478,22.8409594 L75.8852348,21.4604377 L79.0084522,20.6522928 L80.2000754,25.2554522 Z" id="Fill-128" fill="#FF4A68"></path>
                        <path d="M82.8321565,23.8722319 C83.0594029,23.814 83.231258,23.6847536 83.3519826,23.485913 C83.471287,23.2870725 83.501113,23.0711884 83.4414609,22.8396812 C83.3818087,22.6067536 83.2525623,22.432058 83.0508812,22.3155942 C82.8506203,22.1991304 82.6347362,22.1693043 82.4074899,22.2289565 L81.2897217,22.5172754 L81.7143884,24.161971 L82.8321565,23.8722319 Z M81.1633159,25.0070435 L79.9716928,20.4038841 L80.6946203,20.2164058 L81.119287,21.8596812 L82.2370551,21.5713623 C82.6759246,21.4577391 83.079287,21.506029 83.4499826,21.7162319 C83.8220986,21.9278551 84.0607072,22.2388986 84.167229,22.6522029 C84.2737507,23.064087 84.2155188,23.4518261 83.9939536,23.8154203 C83.7709681,24.1775942 83.4414609,24.4162029 83.0025913,24.5298261 L81.1633159,25.0070435 Z" id="Fill-130" fill="#FF4A68"></path>
                    </g>
                </g>
            </g>
        </g>
    </g>
</svg>