<?xml version="1.0" encoding="UTF-8"?>
<svg width="58px" height="108px" viewBox="0 0 58 108" version="1.1" xmlns="http://www.w3.org/2000/svg" xmlns:xlink="http://www.w3.org/1999/xlink">
    <!-- Generator: Sketch 47.1 (45422) - http://www.bohemiancoding.com/sketch -->
    <title>icon_menu_death</title>
    <desc>Created with Sketch.</desc>
    <defs></defs>
    <g id="Page-1" stroke="none" stroke-width="1" fill="none" fill-rule="evenodd">
        <g id="Navigation-1920" transform="translate(-1066.000000, -566.000000)" fill-rule="nonzero">
            <g id="Group-5" transform="translate(1066.000000, 566.000000)">
                <g id="icon-02-copy">
                    <g id="Group" transform="translate(21.906117, 3.101504)">
                        <polygon id="Shape" fill="#FFB3BF" points="18.2822191 15.8290816 16.6987198 15.69023 14.5394026 14.4405657 13.3877667 10.9692759 12.8119488 10.8304243 12.0921764 8.88650197 12.6679943 7.35913444 12.9559033 7.35913444 12.9559033 3.61014142 14.971266 1.24966434 18.2822191 0.555406373"></polygon>
                        <polygon id="Shape" fill="#FFB3BF" points="18.2822191 15.8290816 19.7217639 15.69023 21.7371266 14.4405657 22.8887624 10.9692759 23.4645804 10.8304243 24.1843528 8.88650197 23.6085349 7.35913444 23.3206259 7.35913444 23.3206259 3.61014142 21.3052632 1.24966434 18.2822191 0.555406373 18.2822191 6.80372807 17.4184922 11.2469791 18.2822191 11.6635338"></polygon>
                        <polygon id="Shape" fill="#FF99A9" points="28.7908962 59.1507787 27.7832148 78.0345954 25.0480797 82.616698 17.9943101 82.8944012 17.9943101 59.1507787"></polygon>
                        <polygon id="Shape" fill="#FFB3BF" points="7.34167852 59.1507787 8.34935989 78.0345954 11.084495 82.616698 17.9943101 82.8944012 17.9943101 59.1507787"></polygon>
                        <polygon id="Shape" fill="#FFB3BF" points="25.7678521 96.7795605 25.7678521 82.2001432 17.9943101 82.2001432 17.9943101 84.4217687 17.9943101 96.7795605 18.7140825 97.7515217 17.9943101 98.7234828 18.858037 99.695444 17.9943101 101.222811 17.9943101 104.832953 31.2381223 104.832953 31.2381223 102.611327 25.0480797 99.695444 25.7678521 98.7234828 24.9041252 97.7515217"></polygon>
                        <polygon id="Shape" fill="#FF99A9" points="10.3647226 96.7795605 10.3647226 82.2001432 17.9943101 82.2001432 17.9943101 84.4217687 17.9943101 96.7795605 17.2745377 97.7515217 17.9943101 98.7234828 17.2745377 99.695444 17.9943101 101.222811 17.9943101 104.832953 4.75049787 104.832953 4.75049787 102.611327 11.084495 99.695444 10.3647226 98.7234828 11.2284495 97.7515217"></polygon>
                        <polygon id="Shape" fill="#FF99A9" points="5.18236131 55.2629341 5.75817923 58.8730755 5.32631579 61.094701 5.03840683 62.8997718 4.31863442 62.8997718 2.87908962 59.9838883 3.16699858 55.4017857"></polygon>
                        <polygon id="Shape" fill="#FFB3BF" points="5.03840683 62.8997718 4.03072546 61.2335526 4.03072546 57.9011144 4.4625889 57.345708 4.75049787 60.6781463 4.89445235 61.3724042 5.47027027 61.6501074 5.61422475 61.094701 5.90213371 58.4565208 5.61422475 55.8183405 2.87908962 55.8183405 2.59118065 60.1227399 4.31863442 62.8997718"></polygon>
                        <polygon id="Shape" fill="#CECDCE" points="21.7371266 18.0507071 21.7371266 13.6074561 17.5624467 17.2175976 14.971266 12.9131982 14.971266 19.0226683 18.1382646 20.4111842"></polygon>
                        <g transform="translate(0.000000, 1.388516)">
                            <path d="M19.1459459,59.0119271 C19.1459459,59.0119271 19.5778094,43.8771035 19.2899004,31.6581633 C19.1459459,24.1601772 18.1382646,17.7730039 18.1382646,16.2456364 C16.2668563,15.5513784 14.1075391,14.7182689 14.1075391,14.7182689 L14.1075391,16.8010428 L6.7658606,20.4111842 L2.15931721,36.7956722 L0.863726885,50.5419799 L1.87140825,52.0693475 L1.87140825,54.4298246 L6.47795164,54.4298246 L6.7658606,51.9304959 L9.21308677,33.463234 L8.63726885,47.4872449 L6.62190612,59.0119271 L19.1459459,59.0119271 Z" id="Shape" fill="#FFE6EA"></path>
                            <polygon id="Shape" fill="#FF99A9" points="31.0941679 53.8744182 30.5183499 57.4845596 30.9502134 59.7061851 31.3820768 61.5112558 32.1018492 61.5112558 33.3974395 58.5953724 33.2534851 54.0132698"></polygon>
                            <polygon id="Shape" fill="#FFB3BF" points="31.3820768 61.5112558 32.2458037 59.8450367 32.2458037 56.5125985 31.8139403 55.9571921 31.6699858 59.2896303 31.3820768 59.9838883 30.9502134 60.2615915 30.6623044 59.7061851 30.5183499 57.0680048 30.6623044 54.4298246 33.541394 54.4298246 33.6853485 58.734224 32.1018492 61.5112558"></polygon>
                            <path d="M17.1305832,59.0119271 C17.1305832,59.0119271 16.6987198,43.8771035 16.9866287,31.6581633 C17.1305832,24.1601772 18.1382646,17.7730039 18.1382646,16.2456364 C20.0096728,15.5513784 22.16899,14.7182689 22.16899,14.7182689 L22.16899,16.8010428 L29.5106686,20.4111842 L34.1172119,36.7956722 L35.4128023,50.5419799 L34.5490754,52.0693475 L34.5490754,54.4298246 L29.942532,54.4298246 L29.654623,51.9304959 L27.2073969,33.463234 L27.6392603,47.4872449 L29.654623,59.0119271 L17.1305832,59.0119271 Z" id="Shape" fill="#FFE6EA"></path>
                            <rect id="Rectangle-path" fill="#FF99A9" x="29.654623" y="52.0693475" width="4.89445235" height="2.63818027"></rect>
                            <rect id="Rectangle-path" fill="#FF99A9" x="1.72745377" y="52.0693475" width="4.89445235" height="2.63818027"></rect>
                            <polygon id="Shape" fill="#FF99A9" points="20.2975818 13.7463077 16.5547653 13.7463077 13.5317212 10.1361663 14.971266 21.521997 21.5931721 21.521997 22.744808 9.99731472"></polygon>
                            <path d="M13.0998578,37.7676334 L12.2361309,37.7676334 L10.2207681,30.8250537 L11.8042674,20.9665906 L12.0921764,20.5500358 L17.8503556,18.6061135 L18.4261735,19.0226683 C18.4261735,24.576732 18.4261735,33.1855308 18.4261735,33.1855308 L17.9943101,33.6020856 L17.2745377,33.6020856 L16.9866287,33.3243824 L16.9866287,32.4912728 L16.8426743,32.4912728 L14.971266,33.0466792 L13.0998578,37.7676334 Z M11.2284495,30.8250537 L12.8119488,36.1014142 L14.2514936,32.4912728 L14.5394026,32.2135696 L16.8426743,31.5193117 L17.4184922,31.5193117 L17.5624467,31.6581633 C17.5624467,29.019983 17.5624467,23.7436224 17.5624467,19.7169262 L12.6679943,21.3831454 L11.2284495,30.8250537 Z" id="Shape" fill="#FF6B83"></path>
                            <path d="M23.1766714,37.7676334 L21.3052632,33.0466792 L19.2899004,32.4912728 L19.2899004,33.3243824 L18.858037,33.7409372 L18.1382646,33.7409372 L17.7064011,33.3243824 C17.7064011,33.3243824 17.7064011,24.7155836 17.7064011,19.1615199 L18.2822191,18.7449651 L24.0403983,20.6888874 L24.3283073,21.1054422 L25.9118065,30.9639053 L25.9118065,31.1027569 L23.8964438,37.906485 L23.1766714,37.7676334 Z M18.858037,31.5193117 L19.5778094,31.5193117 L21.7371266,32.2135696 L22.0250356,32.4912728 L23.4645804,36.1014142 L25.0480797,30.8250537 L23.4645804,21.3831454 L18.7140825,19.7169262 C18.7140825,23.7436224 18.7140825,29.019983 18.7140825,31.6581633 L18.858037,31.5193117 Z" id="Shape" fill="#FF6B83"></path>
                            <rect id="Rectangle-path" fill="#FF6B83" x="16.9866287" y="34.4351951" width="2.30327169" height="2.49932868"></rect>
                            <rect id="Rectangle-path" fill="#FF6B83" x="17.4184922" y="14.8571205" width="1.58349929" height="1.66621912"></rect>
                            <rect id="Rectangle-path" fill="#FF6B83" transform="translate(16.745046, 6.021933) rotate(-45.016206) translate(-16.745046, -6.021933) " x="16.0213477" y="5.29826563" width="1.15162485" height="1.11080214"></rect>
                            <polygon id="Shape" fill="#FF6B83" points="20.5854908 5.97061851 19.7217639 6.80372807 18.858037 5.97061851 19.7217639 5.27636054"></polygon>
                            <rect id="Rectangle-path" fill="#FF6B83" x="17.4184922" y="17.2175976" width="1.58349929" height="1.66621912"></rect>
                            <rect id="Rectangle-path" fill="#FF6B83" x="16.8426743" y="37.4899302" width="2.59118065" height="2.77703187"></rect>
                            <rect id="Rectangle-path" fill="#FF6B83" x="16.8426743" y="40.96122" width="2.59118065" height="2.77703187"></rect>
                            <rect id="Rectangle-path" fill="#FF6B83" x="16.8426743" y="44.4325098" width="2.59118065" height="2.77703187"></rect>
                            <polygon id="Shape" fill="#FF6B83" points="19.4338549 49.847722 18.4261735 50.2642768 16.8426743 49.5700188 16.8426743 47.9037997 19.4338549 47.9037997"></polygon>
                            <polygon id="Shape" fill="#FF6B83" points="11.6603129 24.1601772 8.63726885 22.4939581 8.63726885 21.6608485 12.6679943 20.4111842 12.9559033 21.2442938 9.93285917 22.2162549 12.0921764 23.3270677"></polygon>
                            <rect id="Rectangle-path" fill="#FF6B83" transform="translate(7.575435, 29.065806) rotate(-74.496131) translate(-7.575435, -29.065806) " x="0.161427194" y="28.3421163" width="14.8271206" height="1"></rect>
                            <rect id="Rectangle-path" fill="#FF6B83" transform="translate(4.750714, 44.080623) rotate(-86.263287) translate(-4.750714, -44.080623) " x="-2.08753918" y="43.3569375" width="13.6760311" height="1"></rect>
                            <path d="M4.03072546,52.0693475 C4.03072546,52.3470507 4.17467994,52.6247538 4.17467994,52.902457 C4.17467994,53.0413086 4.17467994,53.1801602 4.17467994,53.3190118 C4.17467994,53.4578634 4.17467994,53.596715 4.17467994,53.7355666 L4.03072546,55.5406373 L3.7428165,59.0119271 L3.7428165,58.8730755 C3.88677098,59.2896303 4.17467994,59.5673335 4.31863442,59.9838883 C4.4625889,60.4004431 4.60654339,60.8169979 4.60654339,61.094701 C4.31863442,60.8169979 4.03072546,60.5392947 3.7428165,60.1227399 C3.59886202,59.7061851 3.31095306,59.4284819 3.16699858,59.0119271 L3.16699858,58.8730755 L3.45490754,55.4017857 L3.59886202,53.596715 C3.59886202,53.4578634 3.59886202,53.3190118 3.59886202,53.1801602 C3.59886202,53.0413086 3.59886202,52.902457 3.7428165,52.7636054 C3.88677098,52.6247538 3.88677098,52.3470507 4.03072546,52.0693475" id="Shape" fill="#FF6B83"></path>
                            <path d="M4.03072546,52.3470507 C4.17467994,52.6247538 4.31863442,52.7636054 4.4625889,53.0413086 C4.4625889,53.1801602 4.60654339,53.3190118 4.60654339,53.3190118 C4.60654339,53.4578634 4.75049787,53.596715 4.75049787,53.7355666 L5.18236131,55.1240825 L5.18236131,55.1240825 L5.32631579,57.2068564 L5.32631579,58.1788176 C5.32631579,58.3176692 5.32631579,58.3176692 5.32631579,58.4565208 L5.32631579,58.734224 C5.32631579,58.8730755 5.18236131,59.0119271 5.18236131,59.2896303 C5.03840683,59.1507787 5.03840683,59.0119271 5.03840683,58.734224 L4.89445235,58.4565208 C4.89445235,58.3176692 4.89445235,58.3176692 4.89445235,58.1788176 L4.89445235,57.2068564 L4.75049787,55.1240825 L4.75049787,55.1240825 L4.31863442,53.7355666 C4.31863442,53.596715 4.31863442,53.4578634 4.17467994,53.3190118 C4.17467994,53.1801602 4.17467994,53.0413086 4.17467994,52.902457 C4.03072546,52.902457 4.03072546,52.6247538 4.03072546,52.3470507" id="Shape" fill="#FF6B83"></path>
                            <path d="M5.18236131,38.3230397 L4.4625889,38.1841881 L3.45490754,36.7956722 L3.59886202,36.1014142 L5.03840683,35.1294531 L5.75817923,35.2683047 L6.7658606,36.6568206 L6.62190612,37.3510786 L5.18236131,38.3230397 Z M4.60654339,36.7956722 L5.03840683,37.3510786 L5.61422475,36.9345238 L5.18236131,36.3791174 L4.60654339,36.7956722 Z" id="Shape" fill="#FF6B83"></path>
                            <path d="M3.7428165,53.0413086 L2.44722617,51.9304959 L2.44722617,51.2362379 L3.59886202,49.9865736 L4.31863442,49.9865736 L5.61422475,51.0973863 L5.61422475,51.7916443 L4.4625889,53.0413086 L3.7428165,53.0413086 Z M3.45490754,51.5139411 L4.03072546,52.0693475 L4.60654339,51.5139411 L4.03072546,50.9585347 L3.45490754,51.5139411 Z" id="Shape" fill="#FF6B83"></path>
                            <path d="M32.3897582,52.0693475 C32.5337127,52.3470507 32.5337127,52.6247538 32.6776671,52.902457 C32.6776671,53.0413086 32.8216216,53.1801602 32.8216216,53.3190118 C32.8216216,53.4578634 32.8216216,53.596715 32.8216216,53.7355666 L32.9655761,55.5406373 L33.2534851,59.0119271 L33.2534851,59.1507787 C33.1095306,59.5673335 32.8216216,59.8450367 32.6776671,60.2615915 C32.3897582,60.5392947 32.1018492,60.8169979 31.8139403,61.2335526 C31.9578947,60.8169979 31.9578947,60.4004431 32.1018492,60.1227399 C32.2458037,59.8450367 32.5337127,59.4284819 32.6776671,59.0119271 L32.6776671,59.1507787 L32.5337127,55.5406373 L32.3897582,53.7355666 C32.3897582,53.596715 32.3897582,53.4578634 32.3897582,53.3190118 C32.3897582,53.1801602 32.3897582,53.0413086 32.3897582,52.902457 C32.3897582,52.6247538 32.3897582,52.3470507 32.3897582,52.0693475" id="Shape" fill="#FF6B83"></path>
                            <path d="M32.3897582,52.3470507 C32.3897582,52.6247538 32.3897582,52.902457 32.3897582,53.1801602 C32.3897582,53.3190118 32.3897582,53.4578634 32.3897582,53.596715 C32.3897582,53.7355666 32.2458037,53.8744182 32.2458037,54.0132698 L31.8139403,55.4017857 L31.8139403,55.4017857 L31.6699858,57.345708 L31.6699858,58.3176692 C31.6699858,58.4565208 31.6699858,58.4565208 31.6699858,58.5953724 L31.5260313,58.8730755 C31.5260313,59.0119271 31.3820768,59.1507787 31.3820768,59.4284819 C31.3820768,59.2896303 31.2381223,59.1507787 31.2381223,58.8730755 L31.2381223,58.5953724 C31.2381223,58.4565208 31.2381223,58.4565208 31.2381223,58.3176692 L31.2381223,57.345708 L31.3820768,55.2629341 L31.3820768,55.2629341 L31.8139403,53.8744182 C31.8139403,53.7355666 31.9578947,53.596715 31.9578947,53.4578634 C31.9578947,53.3190118 32.1018492,53.1801602 32.1018492,53.1801602 C32.1018492,52.7636054 32.2458037,52.6247538 32.3897582,52.3470507" id="Shape" fill="#FF6B83"></path>
                            <path d="M32.6776671,53.0413086 L31.9578947,53.0413086 L30.8062589,51.7916443 L30.8062589,51.0973863 L32.1018492,49.9865736 L32.8216216,49.9865736 L33.9732575,51.2362379 L33.9732575,51.9304959 L32.6776671,53.0413086 Z M31.8139403,51.5139411 L32.3897582,52.0693475 L32.9655761,51.5139411 L32.3897582,50.9585347 L31.8139403,51.5139411 Z" id="Shape" fill="#FF6B83"></path>
                            <rect id="Rectangle-path" fill="#FF6B83" transform="translate(13.536196, 65.565251) rotate(-8.534449) translate(-13.536196, -65.565251) " x="12.8125067" y="59.5259174" width="1.00765404" height="12.0797611"></rect>
                            <rect id="Rectangle-path" fill="#FF6B83" x="13.6756757" y="73.8690476" width="1.00768137" height="26.6595059"></rect>
                            <path d="M14.3954481,74.2856024 L13.6756757,74.2856024 L12.5240398,73.0359381 L12.5240398,72.3416801 L13.8196302,71.2308673 L14.5394026,71.2308673 L15.6910384,72.4805317 L15.6910384,73.1747897 L14.3954481,74.2856024 Z M13.6756757,72.7582349 L14.2514936,73.3136412 L14.8273115,72.7582349 L14.1075391,72.2028285 L13.6756757,72.7582349 Z" id="Shape" fill="#FF6B83"></path>
                            <rect id="Rectangle-path" fill="#FF6B83" transform="translate(23.414568, 65.642968) rotate(-81.506066) translate(-23.414568, -65.642968) " x="17.1522909" y="64.9192786" width="12.5236409" height="1"></rect>
                            <rect id="Rectangle-path" fill="#FF6B83" x="21.7371266" y="73.8690476" width="1.00768137" height="26.6595059"></rect>
                            <path d="M21.8810811,74.2856024 L20.5854908,73.1747897 L20.5854908,72.4805317 L21.7371266,71.2308673 L22.456899,71.2308673 L23.7524893,72.3416801 L23.7524893,73.0359381 L22.6008535,74.2856024 L21.8810811,74.2856024 Z M21.7371266,72.7582349 L22.3129445,73.3136412 L22.8887624,72.7582349 L22.16899,72.2028285 L21.7371266,72.7582349 Z" id="Shape" fill="#FF6B83"></path>
                            <path d="M14.3954481,103.305585 L13.6756757,103.305585 L12.5240398,102.055921 L12.5240398,101.361663 L13.8196302,100.25085 L14.5394026,100.25085 L15.6910384,101.500515 L15.6910384,102.194773 L14.3954481,103.305585 Z M13.6756757,101.778218 L14.2514936,102.333624 L14.8273115,101.778218 L14.1075391,101.361663 L13.6756757,101.778218 Z" id="Shape" fill="#FF6B83"></path>
                            <path d="M21.8810811,103.305585 L20.5854908,102.194773 L20.5854908,101.500515 L21.7371266,100.25085 L22.456899,100.25085 L23.7524893,101.361663 L23.7524893,102.055921 L22.6008535,103.305585 L21.8810811,103.305585 Z M21.7371266,101.917069 L22.3129445,102.472476 L22.8887624,101.917069 L22.16899,101.361663 L21.7371266,101.917069 Z" id="Shape" fill="#FF6B83"></path>
                            <polygon id="Shape" fill="#FF6B83" points="25.0480797 24.2990288 24.4722617 23.4659193 26.6315789 22.3551065 23.6085349 21.3831454 23.8964438 20.4111842 27.9271693 21.7997001 28.0711238 22.6328097"></polygon>
                            <rect id="Rectangle-path" fill="#FF6B83" transform="translate(29.636610, 29.010173) rotate(-15.540060) translate(-29.636610, -29.010173) " x="28.91292" y="21.8601914" width="1.007636" height="14.3010703"></rect>
                            <rect id="Rectangle-path" fill="#FF6B83" transform="translate(32.395592, 44.204511) rotate(-3.726428) translate(-32.395592, -44.204511) " x="31.6718977" y="37.6097101" width="1.00769576" height="13.1910898"></rect>
                            <path d="M31.3820768,38.4618913 L29.942532,37.4899302 L29.7985775,36.7956722 L30.8062589,35.4071563 L31.5260313,35.2683047 L32.9655761,36.2402658 L33.1095306,36.9345238 L32.1018492,38.3230397 L31.3820768,38.4618913 Z M30.9502134,36.9345238 L31.5260313,37.3510786 L31.9578947,36.7956722 L31.3820768,36.3791174 L30.9502134,36.9345238 Z" id="Shape" fill="#FF6B83"></path>
                            <polygon id="Shape" fill="#FF6B83" points="17.1305832 9.30305675 18.1382646 10.4138695 19.2899004 9.30305675 18.1382646 7.08143126"></polygon>
                            <path d="M23.6085349,60.2615915 L23.0327169,60.2615915 L19.5778094,57.4845596 L18.1382646,56.9291532 L16.6987198,57.4845596 L13.2438122,60.2615915 L12.6679943,60.2615915 L11.2284495,59.5673335 L11.084495,59.0119271 L12.0921764,57.0680048 L12.0921764,56.0960437 L10.2207681,54.1521214 L10.0768137,53.7355666 L10.0768137,51.5139411 L10.2207681,51.2362379 L12.5240398,48.5980576 L12.9559033,48.4592061 L15.8349929,48.4592061 L16.1229018,48.4592061 L18.4261735,49.5700188 L20.7294452,48.4592061 L21.0173542,48.4592061 L23.8964438,48.4592061 L24.3283073,48.5980576 L26.6315789,51.2362379 L26.7755334,51.5139411 L26.7755334,53.7355666 L26.6315789,54.0132698 L24.7601707,55.9571921 L24.7601707,56.9291532 L25.7678521,58.8730755 L25.6238976,59.4284819 L23.6085349,60.2615915 Z M17.9943101,55.9571921 L18.2822191,55.9571921 L20.1536273,56.6514501 L23.4645804,59.2896303 L24.1843528,58.8730755 L23.3206259,57.0680048 L23.3206259,55.8183405 L23.4645804,55.5406373 L25.3359886,53.596715 L25.3359886,51.7916443 L23.3206259,49.4311672 L20.8733997,49.4311672 L18.570128,50.6808315 L18.1382646,50.6808315 L15.8349929,49.4311672 L13.3877667,49.4311672 L11.372404,51.7916443 L11.372404,53.596715 L13.2438122,55.5406373 L13.3877667,55.8183405 L13.3877667,57.2068564 L12.5240398,58.8730755 L13.2438122,59.2896303 L16.6987198,56.5125985 L17.9943101,55.9571921 Z" id="Shape" fill="#FF6B83"></path>
                            <path d="M13.5317212,101.778218 C13.5317212,101.778218 13.3877667,101.917069 13.2438122,102.055921 C13.0998578,102.055921 13.0998578,102.194773 12.9559033,102.333624 C12.9559033,102.333624 12.8119488,102.472476 12.8119488,102.472476 C12.6679943,102.472476 12.6679943,102.472476 12.5240398,102.472476 C11.8042674,102.611327 10.9405405,102.750179 9.93285917,102.889031 C9.06913229,103.027882 8.06145092,103.166734 7.34167852,103.305585 C7.19772404,103.305585 7.19772404,103.305585 7.05376956,103.305585 C6.90981508,103.305585 6.90981508,103.305585 6.7658606,103.166734 C6.62190612,103.166734 6.47795164,103.027882 6.33399716,103.027882 C6.04608819,103.027882 6.04608819,102.889031 6.04608819,102.889031 C6.04608819,102.889031 6.19004267,102.750179 6.33399716,102.611327 C6.47795164,102.611327 6.47795164,102.472476 6.62190612,102.333624 C6.62190612,102.333624 6.7658606,102.194773 6.7658606,102.194773 C6.7658606,102.194773 6.90981508,102.194773 7.05376956,102.194773 C7.77354196,102.055921 8.63726885,101.917069 9.64495021,101.778218 C10.5086771,101.639366 11.5163585,101.500515 12.2361309,101.361663 C12.3800853,101.361663 12.3800853,101.361663 12.5240398,101.361663 C12.6679943,101.361663 12.6679943,101.361663 12.8119488,101.361663 C12.9559033,101.361663 13.0998578,101.500515 13.2438122,101.500515 C13.5317212,101.778218 13.5317212,101.778218 13.5317212,101.778218" id="Shape" fill="#FF6B83"></path>
                            <path d="M22.744808,101.778218 C22.744808,101.778218 22.8887624,101.778218 23.0327169,101.639366 C23.1766714,101.639366 23.3206259,101.500515 23.4645804,101.500515 C23.6085349,101.500515 23.6085349,101.500515 23.7524893,101.500515 C23.8964438,101.500515 23.8964438,101.500515 24.0403983,101.500515 C24.7601707,101.639366 25.6238976,101.778218 26.6315789,101.917069 C27.4953058,102.055921 28.5029872,102.194773 29.2227596,102.333624 C29.3667141,102.333624 29.3667141,102.333624 29.5106686,102.333624 C29.654623,102.333624 29.654623,102.472476 29.654623,102.472476 C29.7985775,102.611327 29.942532,102.611327 29.942532,102.750179 C30.0864865,102.889031 30.230441,103.027882 30.230441,103.027882 C30.230441,103.027882 30.0864865,103.027882 29.942532,103.166734 C29.7985775,103.166734 29.654623,103.166734 29.5106686,103.305585 C29.3667141,103.305585 29.3667141,103.305585 29.2227596,103.444437 C29.0788051,103.444437 29.0788051,103.444437 28.9348506,103.444437 C28.2150782,103.305585 27.3513514,103.166734 26.34367,103.027882 C25.4799431,102.889031 24.4722617,102.750179 23.7524893,102.611327 C23.6085349,102.611327 23.6085349,102.611327 23.4645804,102.611327 C23.4645804,102.611327 23.3206259,102.472476 23.3206259,102.472476 C23.1766714,102.333624 23.0327169,102.333624 23.0327169,102.194773 C22.8887624,101.917069 22.744808,101.778218 22.744808,101.778218" id="Shape" fill="#FF6B83"></path>
                            <path d="M20.4415363,11.5246822 L16.1229018,11.5246822 L15.6910384,11.1081275 L15.6910384,9.71961153 L13.8196302,7.22028285 L13.6756757,6.94257966 L14.1075391,3.05473505 L14.3954481,2.63818027 L18.1382646,0.83310956 L18.570128,0.83310956 L22.16899,2.63818027 L22.456899,3.05473505 L22.744808,7.08143126 L22.6008535,7.35913444 L21.0173542,9.71961153 L21.0173542,11.1081275 L20.4415363,11.5246822 Z M16.6987198,10.5527211 L20.0096728,10.5527211 L20.0096728,9.44190834 L20.1536273,9.16420516 L21.5931721,6.94257966 L21.4492176,3.33243824 L18.4261735,1.66621912 L15.1152205,3.19358665 L14.683357,6.52602488 L16.5547653,9.02535356 L16.6987198,9.30305675 L16.6987198,10.5527211 Z" id="Shape" fill="#FF6B83"></path>
                            <path d="M20.4415363,14.4405657 L16.1229018,14.4405657 L15.6910384,13.8851593 L15.6910384,12.2189402 L16.1229018,11.8023854 L20.4415363,11.8023854 L20.8733997,12.2189402 L20.8733997,13.8851593 L20.4415363,14.4405657 Z M16.6987198,13.4686045 L20.0096728,13.4686045 L20.0096728,12.7743466 L16.6987198,12.7743466 L16.6987198,13.4686045 Z" id="Shape" fill="#FF6B83"></path>
                        </g>
                    </g>
                    <g id="Group">
                        <polygon id="Shape" fill="#FF99A9" points="6.22991412 58.7297571 5.94015068 61.791498 5.79526895 64.1573887 5.07086033 65.8274291 4.05668827 65.8274291 2.46298931 63.0440283 2.89763448 58.7297571"></polygon>
                        <polygon id="Shape" fill="#FF99A9" points="32.5983879 58.1730769 32.8881513 61.791498 33.033033 64.1573887 33.6125599 65.8274291 34.626732 65.8274291 36.3653127 63.0440283 35.9306675 58.451417"></polygon>
                        <polygon id="Shape" fill="#FFB3BF" points="33.6125599 65.8274291 34.626732 64.1573887 34.626732 60.8173077 34.1920868 60.2606275 33.9023234 63.6007085 33.7574417 64.2965587 33.3227965 64.4357287 32.5983879 63.8790486 32.4535061 61.3739879 32.5983879 58.7297571 36.220431 58.7297571 36.3653127 63.0440283 34.626732 65.8274291"></polygon>
                        <polygon id="Shape" fill="#FFB3BF" points="30.1353986 62.3481781 28.9763448 81.1361336 26.223592 85.7287449 19.2692693 86.007085 19.2692693 62.3481781"></polygon>
                        <polygon id="Shape" fill="#FF99A9" points="8.54802171 62.3481781 9.56219377 81.1361336 12.3149465 85.7287449 19.2692693 86.007085 19.2692693 62.3481781"></polygon>
                        <polygon id="Shape" fill="#CECDCE" points="23.3259575 21.7105263 23.3259575 17.257085 19.8487962 18.9271255 15.7921079 16.2828947 15.7921079 22.4063765 19.414151 23.7980769"></polygon>
                        <path d="M20.4283231,63.6007085 C20.4283231,63.6007085 20.8629682,48.5703441 20.5732048,36.3233806 C20.4283231,28.9473684 19.414151,22.5455466 19.414151,21.0146761 C17.5306886,20.3188259 15.3574627,19.4838057 15.3574627,19.4838057 L15.3574627,21.5713563 L4.05668827,25.0506073 L1.73858069,41.194332 L0.869290343,54.832996 L1.88346241,56.3638664 L1.88346241,58.7297571 L6.51967757,58.7297571 L6.80944102,56.3638664 L7.38896792,47.8744939 L9.27243033,38.1325911 L8.83778515,52.0495951 L6.80944102,63.6007085 L20.4283231,63.6007085 Z" id="Shape" fill="#FF8094"></path>
                        <path d="M19.414151,63.6007085 L19.8487962,59.9822874 L18.3999789,54.832996 L19.8487962,48.8486842 L18.3999789,39.8026316 L19.8487962,33.2616397 L18.3999789,26.4423077 C18.3999789,26.4423077 19.414151,21.7105263 19.414151,21.0146761 C21.2976134,20.3188259 23.4708393,19.4838057 23.4708393,19.4838057 L23.4708393,21.5713563 L34.7716137,25.0506073 L37.0897213,41.194332 L37.9590116,54.832996 L36.9448396,56.3638664 L36.9448396,58.7297571 L32.3086244,58.7297571 L32.018861,56.3638664 L31.4393341,47.8744939 L29.5558717,38.1325911 L29.9905168,52.0495951 L32.018861,63.6007085 L19.414151,63.6007085 Z" id="Shape" fill="#FF99A9"></path>
                        <polygon id="Shape" fill="#FFB3BF" points="19.5590327 19.2054656 17.9653338 19.0662955 15.5023444 17.9529352 14.1984089 14.3345142 13.618882 14.1953441 12.8944734 12.3861336 13.4740003 10.8552632 13.9086455 10.8552632 13.7637638 7.09767206 15.0676993 5.1492915 19.5590327 2.78340081"></polygon>
                        <polygon id="Shape" fill="#FF99A9" points="19.5590327 19.2054656 21.00785 19.0662955 23.615721 17.9529352 24.7747748 14.3345142 25.3543017 14.1953441 26.0787103 12.3861336 25.4991834 10.8552632 25.0645382 10.8552632 25.2094199 7.09767206 23.9054844 5.1492915 19.5590327 2.78340081 19.5590327 10.298583 18.3999789 14.0561741 19.5590327 15.0303644"></polygon>
                        <polygon id="Shape" fill="#FF6B83" points="8.98266688 50.9362348 19.2692693 52.4671053 29.8456351 50.9362348 30.2802803 53.9979757 19.1243875 55.5288462 8.54802171 53.9979757"></polygon>
                        <polygon id="Shape" fill="#FFB3BF" points="5.07086033 65.8274291 4.20156999 64.1573887 4.20156999 60.8173077 4.63621516 60.2606275 4.78109689 63.6007085 5.07086033 64.2965587 5.50550551 64.4357287 5.94015068 64.2965587 5.94015068 64.0182186 6.37479585 61.3739879 6.0850324 58.7297571 2.31810758 58.7297571 2.46298931 63.0440283 4.05668827 65.8274291"></polygon>
                        <rect id="Rectangle-path" fill="#FF8094" x="31.8739792" y="56.3638664" width="4.92597861" height="2.50506073"></rect>
                        <rect id="Rectangle-path" fill="#FF99A9" x="2.02834413" y="56.3638664" width="4.92597861" height="2.50506073"></rect>
                        <polygon id="Shape" fill="#FF99A9" points="27.0928824 99.9240891 27.0928824 85.3112348 19.2692693 85.3112348 19.2692693 87.5379555 19.2692693 99.9240891 19.9936779 100.759109 19.2692693 101.7333 20.1385596 102.70749 19.2692693 104.23836 19.2692693 107.856781 32.5983879 107.856781 32.5983879 105.630061 26.223592 102.70749 27.0928824 101.7333 26.223592 100.759109"></polygon>
                        <polygon id="Shape" fill="#FFB3BF" points="11.5905379 99.9240891 11.5905379 85.3112348 19.2692693 85.3112348 19.2692693 87.5379555 19.2692693 99.9240891 18.5448607 100.759109 19.2692693 101.7333 18.5448607 102.70749 19.2692693 104.23836 19.2692693 107.856781 6.0850324 107.856781 6.0850324 105.630061 12.3149465 102.70749 11.5905379 101.7333 12.4598282 100.759109"></polygon>
                        <path d="M25.2094199,8.35020243 L23.3259575,6.5409919 L19.1243875,5.28846154 L15.6472262,5.98431174 L14.0535272,7.37601215 C14.0535272,7.37601215 12.3149465,6.68016194 12.0251831,5.1492915 C11.8803014,4.17510121 12.3149465,2.92257085 12.8944734,2.08755061 C13.0393551,1.67004049 13.4740003,1.3917004 13.7637638,1.25253036 C15.3574627,0.417510121 17.820452,0.417510121 19.414151,1.3917004 C22.022022,2.92257085 25.2094199,2.22672065 26.5133555,3.75759109 C26.9480006,4.17510121 27.0928824,4.73178138 27.3826458,5.70597166 C27.817291,6.68016194 25.2094199,8.35020243 25.2094199,8.35020243" id="Shape" fill="#FF99A9"></path>
                        <path d="M14.9228176,6.40182186 C14.9228176,6.40182186 14.9228176,8.21103239 19.1243875,8.35020243 C23.3259575,8.48937247 24.0503662,7.23684211 24.0503662,7.23684211 C24.0503662,7.23684211 22.4566672,5.28846154 19.1243875,5.1492915 C15.9369896,5.01012146 14.9228176,6.40182186 14.9228176,6.40182186" id="Shape" fill="#FF8094"></path>
                        <path d="M13.7637638,7.93269231 L13.7637638,7.65435223 C13.7637638,7.65435223 13.9086455,4.73178138 18.5448607,4.73178138 C23.3259575,4.73178138 25.0645382,7.79352227 25.0645382,7.79352227 L25.0645382,9.32439271 C25.0645382,9.32439271 23.0361941,6.40182186 18.5448607,6.26265182 C14.4881724,6.12348178 13.7637638,7.93269231 13.7637638,7.93269231" id="Shape" fill="#FF6B83"></path>
                        <polygon id="Shape" fill="#FF6B83" points="21.00785 18.0921053 17.9653338 18.0921053 14.4881724 14.8911943 15.212581 27.8340081 24.0503662 27.8340081 24.6298931 14.8911943"></polygon>
                        <polygon id="Shape" fill="#FF6B83" points="21.2976134 16.2828947 19.414151 16.0045547 17.5306886 16.2828947 17.5306886 15.7262146 18.8346241 15.1695344 19.9936779 15.1695344 21.2976134 15.7262146"></polygon>
                    </g>
                </g>
            </g>
        </g>
    </g>
</svg>