<?xml version="1.0" encoding="UTF-8"?>
<svg width="117px" height="113px" viewBox="0 0 117 113" version="1.1" xmlns="http://www.w3.org/2000/svg" xmlns:xlink="http://www.w3.org/1999/xlink">
    <!-- Generator: Sketch 47.1 (45422) - http://www.bohemiancoding.com/sketch -->
    <title>icon_menu_soldier</title>
    <desc>Created with Sketch.</desc>
    <defs></defs>
    <g id="Page-1" stroke="none" stroke-width="1" fill="none" fill-rule="evenodd">
        <g id="Navigation-1920" transform="translate(-1064.000000, -257.000000)">
            <g id="Group-2" transform="translate(1064.000000, 257.000000)">
                <g id="icon-pink1-copy-2">
                    <path d="M89.9511151,26.4130745 L89.459013,26.4130745 L89.459013,25.9375527 L90.3419021,25.9375527 L90.3419021,26.5571721 L116.987785,25.5196699 L90.8340042,25.5196699 L90.8340042,24.9000506 L89.4734866,24.9000506 L89.4734866,24.0210558 L88.8077014,24.0210558 L88.8077014,24.9000506 L50.4526829,24.9000506 L49.5697938,25.8799137 L45.2277163,27.0615134 L45.2277163,26.5427623 L46.9211265,26.384255 L46.9211265,22.9115049 L47.9198044,22.7097684 L47.5724381,18.732677 C48.571116,18.2427454 47.5724381,16.6720825 47.5724381,16.6720825 L47.5724381,15.4904829 L48.4408537,14.7844051 L48.4408537,11.9024548 L45.7053448,9.88508955 L40.6540612,10.2309236 C40.4948517,10.2309236 33.1277935,13.7613127 33.1277935,13.7613127 L33.1277935,16.0236437 L35.1106756,16.4559362 L35.2264643,17.7239944 L35.2264643,17.7239944 L36.5869819,21.7875443 L37.9474996,22.5944904 L38.3238129,26.3410258 L32.2304308,26.4851233 L31.2028058,29.3670736 L20.5791893,29.3670736 L19.421302,34.8571889 L22.6054922,37.9120563 L24.4291648,37.5950417 L30.8120188,39.6412264 L33.5909484,49.9730183 L33.5909484,52.8549686 L31.1159642,58.4459522 L30.0014976,69.5414609 L30.450179,69.5414609 L29.7120258,76.9192536 L31.8975382,85.421007 L31.8975382,90.9111224 L31.8975382,90.9111224 L31.8975382,104.888581 L33.2001614,105.753166 L31.8975382,106.632161 L32.9251632,107.554385 L30.6238621,110.349877 L30.6238621,112.396062 L39.8001193,112.396062 L39.8001193,109.02418 L38.6856527,107.511156 L39.8001193,106.588932 L38.6856527,105.709937 L39.8001193,104.845352 L39.8001193,91.4154637 L42.6948377,71.5444163 L45.4592937,84.4123244 L48.2671706,90.8678931 L47.9487515,90.8678931 L47.9487515,104.845352 L48.8026935,105.709937 L47.9487515,106.588932 L48.8026935,107.511156 L47.9487515,109.02418 L47.9487515,112.396062 L61.9157677,112.396062 L61.9157677,110.306648 L55.4605457,107.511156 L56.0105422,106.588932 L55.0408115,105.709937 L55.6921232,104.845352 L55.6921232,91.4154637 L56.9802729,83.3604126 L53.5789788,69.4838218 L53.7092411,69.4838218 L52.5947745,58.3883132 L50.1197903,52.8117393 L50.1197903,52.8117393 L50.1197903,49.929789 L50.1197903,49.929789 L51.9579365,42.7249133 L57.2986919,47.2928045 L61.7420846,45.9526976 L69.8328224,32.6380872 L69.9630848,32.6380872 L69.9630848,30.1163807 L90.2261134,29.0356493 L89.9511151,26.4130745 Z M50.1487375,28.4592593 L50.5539981,29.6984979 L50.3224206,29.6984979 L50.6842604,30.0587417 L50.6842604,30.1596099 L49.4540051,29.7273174 L49.3526899,29.3670736 L48.817167,29.3670736 L48.3684857,28.9203713 L50.1487375,28.4592593 Z M59.0644701,38.0849733 L56.5026443,32.7533652 L56.5026443,32.2490239 L53.0579295,31.0386048 L64.1302272,30.447805 L64.1302272,32.4363507 L59.0644701,38.0849733 Z" id="Shape" fill="#FF6882" fill-rule="nonzero"></path>
                    <path d="M15.5279058,50.1891646 C15.5161569,49.4406433 15.9600079,48.7592961 16.6512711,48.464708 C17.3425343,48.1701199 18.1440799,48.3207298 18.6799441,48.8458945 C19.2158084,49.3710592 19.3796888,50.1665988 19.0947176,50.8593665 C18.8097464,51.5521342 18.1324548,52.0047019 17.3805255,52.0047932 C16.8930143,52.00863 16.423941,51.819493 16.0765041,51.4789934 C15.7290672,51.1384937 15.5317293,50.6745257 15.5279058,50.1891646" id="Shape" fill="#E94C6A" fill-rule="nonzero"></path>
                    <path d="M17.3805255,50.1891646 C17.3687766,49.4406433 17.8126276,48.7592961 18.5038908,48.464708 C19.195154,48.1701199 19.9966996,48.3207298 20.5325639,48.8458945 C21.0684281,49.3710592 21.2323086,50.1665988 20.9473373,50.8593665 C20.6623661,51.5521342 19.9850746,52.0047019 19.2331453,52.0047932 C18.7456341,52.00863 18.2765608,51.819493 17.9291239,51.4789934 C17.581687,51.1384937 17.3843491,50.6745257 17.3805255,50.1891646" id="Shape" fill="#EB6580" fill-rule="nonzero"></path>
                    <path d="M24.2120609,25.6637675 C24.2003179,24.7870095 24.7217642,23.9900599 25.5320252,23.6464071 C26.3422862,23.3027544 27.2807965,23.4804985 27.9077255,24.0963401 C28.5346545,24.7121816 28.7257669,25.6440824 28.3914982,26.4553094 C28.0572296,27.2665364 27.2638203,27.7963327 26.3830997,27.7964107 C25.8111392,27.8002452 25.261076,27.5777079 24.8539245,27.1777569 C24.4467729,26.777806 24.2158867,26.2332053 24.2120609,25.6637675" id="Shape" fill="#E4E255" fill-rule="nonzero"></path>
                    <path d="M26.3830997,27.0615134 C26.3830997,26.2656848 27.0311044,25.6205382 27.8304589,25.6205382 C28.6298133,25.6205382 29.277818,26.2656848 29.277818,27.0615134 C29.277818,27.857342 28.6298133,28.5024885 27.8304589,28.5024885 C27.0311044,28.5024885 26.3830997,27.857342 26.3830997,27.0615134" id="Shape" fill="#E4E255" fill-rule="nonzero"></path>
                    <polygon id="Shape" fill="#FF6E86" fill-rule="nonzero" points="16.4397421 64.7862429 11.0555659 65.7949255 10.2595183 73.7202888 12.6331874 82.985759 12.9805536 89.3116399 21.2160274 89.5854252 24.6317951 65.5211402 24.7186366 64.7862429"></polygon>
                    <polygon id="Shape" fill="#FF879A" fill-rule="nonzero" points="19.0160414 82.582286 19.0160414 89.542196 12.6331874 89.3116399 12.6331874 82.985759 16.2226382 77.884707"></polygon>
                    <polygon id="Shape" fill="#FF758B" fill-rule="nonzero" points="16.3384269 77.9855752 19.0160414 64.7862429 11.156881 64.7862429 10.2595183 73.7202888 12.6331874 82.985759"></polygon>
                    <polygon id="Shape" fill="#FF758B" fill-rule="nonzero" points="30.8264924 64.7862429 36.2975101 65.7949255 37.7738165 73.7202888 39.8724873 80.7954768 37.7448693 89.3116399 31.4343832 89.5854252 27.3238831 81.9338472 23.7923267 65.5211402 23.6475908 64.7862429"></polygon>
                    <polygon id="Shape" fill="#FF6E86" fill-rule="nonzero" points="39.8724873 80.7954768 38.4685489 89.5854252 30.6238621 89.542196 27.3238831 81.9338472 30.3633374 77.884707"></polygon>
                    <polygon id="Shape" fill="#FF6E86" fill-rule="nonzero" points="30.3633374 77.884707 27.9462476 64.7862429 35.8488287 64.7862429 36.2396157 65.4779109 39.8724873 80.7954768"></polygon>
                    <polygon id="Shape" fill="#FF667F" fill-rule="nonzero" points="12.6042402 104.225733 12.6042402 88.9802157 21.2160274 88.9802157 21.2160274 91.2425466 21.2160274 104.225733 20.0002457 105.176776 21.2160274 106.12782 20.0002457 107.136503 21.2160274 108.793624 21.2160274 112.52575 11.2147754 112.52575 11.2147754 110.19137 13.7187068 107.136503 12.6042402 106.12782 14.0226522 105.176776"></polygon>
                    <polygon id="Shape" fill="#FF667F" fill-rule="nonzero" points="38.4685489 104.225733 38.4685489 88.9802157 30.0304448 88.9802157 30.0304448 104.225733 30.9712283 105.176776 30.0304448 106.12782 30.9712283 107.136503 30.0304448 108.793624 30.0304448 112.52575 45.271137 112.52575 45.271137 110.19137 38.2224978 107.136503 38.8303887 106.12782 37.7593429 105.176776"></polygon>
                    <polygon id="Shape" fill="#FFE6EA" fill-rule="nonzero" points="19.2765661 14.2368345 20.0726136 22.0181003 27.2515152 22.3639344 27.2515152 17.1620141"></polygon>
                    <polygon id="Shape" fill="#FFE6EA" fill-rule="nonzero" points="16.2805325 9.02050445 17.1200009 6.00886639 22.5331242 3.2998331 29.350186 6.00886639 30.1172864 14.6403075 29.0172934 14.8564538 29.0172934 18.6606282 26.5278356 18.8191355 17.8147333 13.6172152"></polygon>
                    <path d="M22.8370697,6.77258322 C24.0125712,8.65690655 25.92014,9.97170602 28.1054571,10.4038406 C31.5935927,10.9514112 29.740973,8.0550511 29.740973,8.0550511 L27.4107247,6.77258322 L22.8370697,6.77258322 Z" id="Shape" fill="#FE5E76" fill-rule="nonzero"></path>
                    <path d="M16.7871083,7.98300234 L13.9792314,7.37779278 L13.9792314,4.89931552 C13.9792314,4.89931552 22.0265485,1.05191186 22.185758,1.05191186 L27.7001965,0.66284857 L30.6817564,2.8819503 L30.6817564,6.02327614 L29.0462406,7.34897328 L22.8370697,5.90799812 L16.7871083,7.98300234 Z" id="Shape" fill="#FF879A" fill-rule="nonzero"></path>
                    <path d="M16.0634287,6.87345148 L16.2805325,9.22224098 C18.3874335,8.16125675 20.6657022,7.47835191 23.0107528,7.20487576 C25.2704589,7.31552296 27.5168901,7.61436864 29.7264994,8.09828036 L29.7264994,5.66303235 C27.6916643,4.91991497 25.5399859,4.54417817 23.3725926,4.55348148 C20.7806577,4.72239603 18.2703754,5.52412276 16.0634287,6.88786123" id="Shape" fill="#FF748A" fill-rule="nonzero"></path>
                    <path d="M24.6028479,65.6652377 C24.6028479,65.6652377 23.5028549,25.1017872 23.5028549,20.995008 C21.6212879,20.2889301 19.348934,19.366706 19.348934,19.366706 L19.348934,21.5858078 L7.46611511,22.4215734 L0.359581506,22.4215734 L2.55956747,30.2604782 L11.4897736,33.1424285 L14.9344885,45.9382879 L14.5292279,47.494541 L11.8226663,53.5898659 L10.6068845,65.6940572 L24.6028479,65.6652377 Z" id="Shape" fill="#FE93A5" fill-rule="nonzero"></path>
                    <path d="M23.5028549,65.6652377 L23.5028549,20.995008 C25.3844218,20.2889301 27.6567758,19.366706 27.6567758,19.366706 L27.6567758,21.5858078 L39.2356492,25.3179334 L44.0264081,35.030106 L40.3501158,41.3271674 L34.5606791,36.3413933 L32.1435892,45.8950586 L32.4475347,47.4657215 L35.1540963,53.5610464 L36.3843516,65.6652377 L23.5028549,65.6652377 Z" id="Shape" fill="#FF879A" fill-rule="nonzero"></path>
                    <polygon id="Shape" fill="#FFBDC9" fill-rule="nonzero" points="24.6752158 24.2227923 24.6752158 40.3473043 23.5028549 41.0101528 22.3304939 40.3473043 22.3304939 24.2227923"></polygon>
                    <polygon id="Shape" fill="#F5F5F5" fill-rule="nonzero" points="24.3278496 35.030106 23.5028549 35.837052 22.6778602 35.030106 23.5028549 34.2231599"></polygon>
                    <polygon id="Shape" fill="#F5F5F5" fill-rule="nonzero" points="24.3278496 29.9290539 23.5028549 30.736 22.6778602 29.9290539 23.5028549 29.1221078"></polygon>
                    <polygon id="Shape" fill="#F5F5F5" fill-rule="nonzero" points="24.1107457 23.2861585 23.5028549 23.8769583 22.9094376 23.2861585 23.5028549 22.7097684"></polygon>
                    <polygon id="Shape" fill="#F5F5F5" fill-rule="nonzero" points="24.1107457 21.7731346 23.5028549 22.3639344 22.9094376 21.7731346 23.5028549 21.1967445"></polygon>
                    <polygon id="Shape" fill="#FF4A68" fill-rule="nonzero" points="14.5147543 44.2811664 32.5343762 44.2811664 32.5343762 47.4801313 14.5147543 47.4657215"></polygon>
                    <polygon id="Shape" fill="#FF748A" fill-rule="nonzero" points="28.713348 23.487895 39.4672267 27.2632499 39.4672267 25.0297384 28.713348 21.2543835"></polygon>
                    <rect id="Rectangle-path" fill="#FF98A9" fill-rule="nonzero" x="27.2804624" y="30.9377365" width="7.55521495" height="1.81562869"></rect>
                    <polygon id="Shape" fill="#F5F5F5" fill-rule="nonzero" points="31.8830646 32.7965945 31.0580698 33.5891308 30.2330751 32.767775 31.0725434 31.9752386"></polygon>
                    <rect id="Rectangle-path" fill="#FFA8B6" fill-rule="nonzero" x="12.3147684" y="30.9377365" width="7.55521495" height="1.81562869"></rect>
                    <polygon id="Shape" fill="#F5F5F5" fill-rule="nonzero" points="16.9173706 32.7965945 16.0779023 33.5891308 15.2673811 32.767775 16.0923759 31.9752386"></polygon>
                    <polygon id="Shape" fill="#F5F5F5" fill-rule="nonzero" points="20.9699763 43.7768251 20.9699763 44.2667567 25.6304729 44.2667567 25.6304729 47.494541 20.9699763 47.494541 20.9699763 47.9844726 26.0646806 47.9844726 26.0646806 43.7768251"></polygon>
                    <path d="M13.0818687,18.732677 L11.0700395,24.4965776 L11.7792455,25.7790455 L29.8712353,21.6146273 L31.6949079,23.4158462 L33.2580558,23.4158462 L41.9422109,21.6434468 L46.6461283,21.8595931 L53.0579295,20.7212227 L75.4341025,19.3811158 L75.4341025,17.9401406 L76.4327803,17.9401406 L76.4327803,18.732677 L105.495753,17.6087164 L76.9248824,17.6087164 L76.9248824,16.931458 L75.4775232,16.931458 L75.4775232,15.9660047 L74.7538437,15.9660047 L74.7538437,16.931458 L32.8672688,16.931458 L31.9120118,18.0121894 L26.8462546,19.4531646 L22.1423373,18.5309405 L13.0818687,18.732677 Z M32.5488498,20.8941397 L33.2001614,22.8682757 L31.9699061,22.8682757 L30.6238621,21.4273005 L32.5488498,20.8941397 Z" id="Shape" fill="#FF6881" fill-rule="nonzero"></path>
                    <polygon id="Shape" fill="#FEE4E8" fill-rule="nonzero" points="31.7093815 21.9460516 15.9910607 21.9460516 20.6226101 25.4043919 23.1699623 25.4043919 23.5752228 25.9951917 28.2791402 25.9951917 29.3357124 23.430256 31.9554325 22.8538659"></polygon>
                    <polygon id="Shape" fill="#FEE4E8" fill-rule="nonzero" points="49.2224276 23.603173 50.9592586 20.5771252 59.6289402 20.0727839 58.3118433 21.8307736 54.0566073 22.6665391 53.4052957 23.603173"></polygon>
                    <polygon id="Shape" fill="#FF879A" fill-rule="nonzero" points="47.8763836 25.1161969 54.1434489 25.1161969 45.1987691 39.8573727 40.3356422 41.3271674 37.3251351 36.9177834"></polygon>
                    <g id="Group" transform="translate(31.841902, 17.291702)">
                        <path d="M43.0422039,1.57066292 L71.5986006,0.446702297" id="Shape" stroke="#ECECEC" stroke-width="0.5"></path>
                        <polygon id="Shape" fill="#FE5E76" fill-rule="nonzero" points="42.579049 1.38333615 20.4344534 2.62257478 14.0226522 3.60243788 8.98584225 3.60243788 0.0990568521 5.01459353 1.56088963 6.49879794 42.8395736 4.23646695"></polygon>
                    </g>
                    <rect id="Rectangle-path" fill="#FF748A" fill-rule="nonzero" x="47.789542" y="22.5512611" width="6.35390683" height="2.7954918"></rect>
                </g>
            </g>
        </g>
    </g>
</svg>