<?xml version="1.0" encoding="UTF-8"?>
<svg width="143px" height="128px" viewBox="0 0 143 128" version="1.1" xmlns="http://www.w3.org/2000/svg" xmlns:xlink="http://www.w3.org/1999/xlink">
    <!-- Generator: Sketch 46.2 (44496) - http://www.bohemiancoding.com/sketch -->
    <title>Page 1</title>
    <desc>Created with Sketch.</desc>
    <defs>
        <polygon id="path-1" points="0.951 19.722 32.552 19.722 32.552 0.412 0.951 0.412"></polygon>
        <polygon id="path-3" points="0 128 142.248 128 142.248 0.412 0 0.412"></polygon>
    </defs>
    <g id="-" stroke="none" stroke-width="1" fill="none" fill-rule="evenodd">
        <g id="1-1-Desktop-Navigation-Copy-5" transform="translate(-416.000000, -3695.000000)">
            <g id="Page-1" transform="translate(416.000000, 3694.000000)">
                <polygon id="Fill-1" fill="#FF4A68" points="50.951 26.31 82.552 26.31 82.552 6.999 50.951 6.999"></polygon>
                <polygon id="Fill-2" fill="#FF4A68" points="50.951 17.933 82.552 17.933 82.552 15.376 50.951 15.376"></polygon>
                <g id="Group-5" transform="translate(50.000000, 6.588000)">
                    <mask id="mask-2" fill="white">
                        <use xlink:href="#path-1"></use>
                    </mask>
                    <g id="Clip-4"></g>
                    <polygon id="Stroke-3" stroke="#FFFFFF" stroke-width="0.75" mask="url(#mask-2)" points="32.5517 11.3453 32.5517 8.7883 21.6777 8.7883 35.6367 1.0213 34.3947 -1.2127 18.0297 7.8933 18.0297 0.4113 15.4737 0.4113 15.4737 7.8933 -0.8913 -1.2127 -2.1353 1.0213 11.8247 8.7883 0.9507 8.7883 0.9507 11.3453 11.8247 11.3453 -2.1353 19.1133 -0.8913 21.3463 15.4737 12.2413 15.4737 19.7223 18.0297 19.7223 18.0297 12.2413 34.3947 21.3463 35.6367 19.1133 21.6777 11.3453"></polygon>
                </g>
                <polygon id="Fill-6" fill="#330099" points="81.4752 6.9998 50.9512 23.9838 50.9512 26.3098 52.0282 26.3098 82.5512 9.3258 82.5512 6.9998"></polygon>
                <polygon id="Fill-7" fill="#330099" points="50.9508 6.9998 50.9508 9.3258 81.4748 26.3098 82.5518 26.3098 82.5518 23.9838 52.0278 6.9998"></polygon>
                <polygon id="Fill-8" fill="#330099" points="50.951 17.933 82.552 17.933 82.552 15.376 50.951 15.376"></polygon>
                <polygon id="Fill-9" fill="#330099" points="65.472 26.31 68.029 26.31 68.029 6.999 65.472 6.999"></polygon>
                <g id="Group-108" transform="translate(0.000000, 0.588000)">
                    <path d="M65.7831,62.2623 C65.7831,60.8823 66.9011,59.7643 68.2791,59.7643 C69.6591,59.7643 70.7761,60.8823 70.7761,62.2623 C70.7761,63.6393 69.6591,64.7563 68.2791,64.7563 C66.9011,64.7563 65.7831,63.6393 65.7831,62.2623 Z" id="Fill-10" fill="#D9D9D9"></path>
                    <polygon id="Fill-12" fill="#999999" points="75.5009 105.0689 113.5149 105.0689 115.9489 102.4719 110.2259 102.4719"></polygon>
                    <mask id="mask-4" fill="white">
                        <use xlink:href="#path-3"></use>
                    </mask>
                    <g id="Clip-15"></g>
                    <polygon id="Fill-14" fill="#3C3C3B" mask="url(#mask-4)" points="106.45 104.095 107.512 104.095 107.512 71.829 106.45 71.829"></polygon>
                    <polygon id="Fill-16" fill="#575756" mask="url(#mask-4)" points="105.135 77.522 108.831 77.522 108.831 76.727 105.135 76.727"></polygon>
                    <polygon id="Fill-17" fill="#575756" mask="url(#mask-4)" points="103.263 85.94 110.705 85.94 110.705 85.145 103.263 85.145"></polygon>
                    <polygon id="Fill-18" fill="#FF4A68" mask="url(#mask-4)" points="94.674 66.346 101.052 66.346 101.052 54.653 94.674 54.653"></polygon>
                    <polygon id="Fill-19" fill="#F5F1F1" mask="url(#mask-4)" points="101.053 66.346 107.432 66.346 107.432 54.653 101.053 54.653"></polygon>
                    <polygon id="Fill-20" fill="#330099" mask="url(#mask-4)" points="107.431 66.346 113.809 66.346 113.809 54.653 107.431 54.653"></polygon>
                    <path d="M95.453,79.4312 C95.453,81.9062 97.46,83.9122 99.935,83.9122 C102.41,83.9122 104.416,81.9062 104.416,79.4312 C104.416,76.9542 102.41,74.9492 99.935,74.9492 C97.46,74.9492 95.453,76.9542 95.453,79.4312" id="Fill-21" fill="#D9D9D9" mask="url(#mask-4)"></path>
                    <path d="M84.872,76.2203 C84.872,78.6943 86.881,80.7003 89.353,80.7003 C91.831,80.7003 93.834,78.6943 93.834,76.2203 C93.834,73.7413 91.831,71.7383 89.353,71.7383 C86.881,71.7383 84.872,73.7413 84.872,76.2203" id="Fill-22" fill="#D9D9D9" mask="url(#mask-4)"></path>
                    <path d="M90.6923,79.2349 C90.6923,81.4179 92.4633,83.1829 94.6433,83.1829 C96.8263,83.1829 98.5923,81.4179 98.5923,79.2349 C98.5923,77.0499 96.8263,75.2839 94.6433,75.2839 C92.4633,75.2839 90.6923,77.0499 90.6923,79.2349" id="Fill-23" fill="#ECECEC" mask="url(#mask-4)"></path>
                    <path d="M101.3573,86.5982 C101.3573,87.3802 101.9923,88.0162 102.7733,88.0162 C103.5543,88.0162 104.1893,87.3802 104.1893,86.5982 C104.1893,85.8162 103.5543,85.1822 102.7733,85.1822 C101.9923,85.1822 101.3573,85.8162 101.3573,86.5982" id="Fill-24" fill="#D9D9D9" mask="url(#mask-4)"></path>
                    <path d="M80.1718,75.1588 C80.1718,75.9408 80.8058,76.5748 81.5868,76.5748 C82.3688,76.5748 83.0028,75.9408 83.0028,75.1588 C83.0028,74.3768 82.3688,73.7428 81.5868,73.7428 C80.8058,73.7428 80.1718,74.3768 80.1718,75.1588" id="Fill-25" fill="#D9D9D9" mask="url(#mask-4)"></path>
                    <path d="M98.4862,82.7222 C98.4862,84.6922 100.0832,86.2882 102.0512,86.2882 C104.0232,86.2882 105.6182,84.6922 105.6182,82.7222 C105.6182,80.7512 104.0232,79.1562 102.0512,79.1562 C100.0832,79.1562 98.4862,80.7512 98.4862,82.7222" id="Fill-26" fill="#ECECEC" mask="url(#mask-4)"></path>
                    <polygon id="Fill-27" fill="#6F6F6E" mask="url(#mask-4)" points="95.203 93.562 98.511 93.562 98.511 82.354 95.203 82.354"></polygon>
                    <polygon id="Fill-28" fill="#333333" mask="url(#mask-4)" points="94.263 108.62 99.451 108.62 99.451 87.027 94.263 87.027"></polygon>
                    <polygon id="Fill-29" fill="#575756" mask="url(#mask-4)" points="94.652 83.185 99.06 83.185 99.06 82.354 94.652 82.354"></polygon>
                    <polygon id="Fill-30" fill="#FFFFFF" mask="url(#mask-4)" points="94.652 85.977 99.06 85.977 99.06 85.145 94.652 85.145"></polygon>
                    <polygon id="Fill-31" fill="#6F6F6E" mask="url(#mask-4)" points="101.824 95.294 103.666 95.294 103.666 89.045 101.824 89.045"></polygon>
                    <polygon id="Fill-32" fill="#333333" mask="url(#mask-4)" points="101.299 103.689 104.19 103.689 104.19 91.653 101.299 91.653"></polygon>
                    <polygon id="Fill-33" fill="#575756" mask="url(#mask-4)" points="101.517 89.51 103.975 89.51 103.975 89.046 101.517 89.046"></polygon>
                    <polygon id="Fill-34" fill="#FFFFFF" mask="url(#mask-4)" points="101.517 91.067 103.975 91.067 103.975 90.602 101.517 90.602"></polygon>
                    <path d="M84.5517,65.9967 C84.5517,70.0297 87.8227,73.3037 91.8587,73.3037 C95.8957,73.3037 99.1637,70.0297 99.1637,65.9967 C99.1637,61.9587 95.8957,58.6867 91.8587,58.6867 C87.8227,58.6867 84.5517,61.9587 84.5517,65.9967" id="Fill-35" fill="#D9D9D9" mask="url(#mask-4)"></path>
                    <path d="M71.3534,64.2281 C71.2914,66.3561 72.9664,68.1291 75.0924,68.1921 C77.2194,68.2521 78.9944,66.5811 79.0564,64.4521 C79.1184,62.3241 77.4444,60.5501 75.3174,60.4901 C73.1904,60.4271 71.4154,62.1011 71.3534,64.2281" id="Fill-36" fill="#D9D9D9" mask="url(#mask-4)"></path>
                    <path d="M78.0468,60.9332 C78.0468,63.5892 80.2008,65.7432 82.8588,65.7432 C85.5148,65.7432 87.6668,63.5892 87.6668,60.9332 C87.6668,58.2752 85.5148,56.1212 82.8588,56.1212 C80.2008,56.1212 78.0468,58.2752 78.0468,60.9332" id="Fill-37" fill="#ECECEC" mask="url(#mask-4)"></path>
                    <path d="M88.7997,69.4176 C88.7997,73.8786 92.4157,77.4946 96.8767,77.4946 C101.3377,77.4946 104.9517,73.8786 104.9517,69.4176 C104.9517,64.9556 101.3377,61.3406 96.8767,61.3406 C92.4157,61.3406 88.7997,64.9556 88.7997,69.4176" id="Fill-38" fill="#ECECEC" mask="url(#mask-4)"></path>
                    <polygon id="Fill-39" fill="#666666" mask="url(#mask-4)" points="113.5136 105.0689 108.4216 121.1329 112.7156 110.7149 115.9476 102.4719"></polygon>
                    <polygon id="Fill-40" fill="#3C3C3B" mask="url(#mask-4)" points="93.6 103.753 95.415 103.753 95.415 48.652 93.6 48.652"></polygon>
                    <polygon id="Fill-41" fill="#575756" mask="url(#mask-4)" points="91.351 58.375 97.663 58.375 97.663 57.017 91.351 57.017"></polygon>
                    <polygon id="Fill-42" fill="#575756" mask="url(#mask-4)" points="88.153 72.751 100.861 72.751 100.861 71.392 88.153 71.392"></polygon>
                    <polygon id="Fill-43" fill="#4D4D4D" mask="url(#mask-4)" points="108.4218 121.1334 81.2318 121.1334 75.5008 105.0704 89.0208 100.2974 99.9948 100.2974 113.5138 105.0704"></polygon>
                    <polygon id="Fill-44" fill="#757575" mask="url(#mask-4)" points="98.0478 121.1334 90.9688 121.1334 89.0218 100.2974 99.9938 100.2974"></polygon>
                    <polygon id="Fill-45" fill="#FF4A68" mask="url(#mask-4)" points="130.87 91.605 141.183 91.605 141.183 85.303 130.87 85.303"></polygon>
                    <polygon id="Fill-46" fill="#F5F1F1" mask="url(#mask-4)" points="130.87 86.878 141.183 86.878 141.183 86.092 130.87 86.092"></polygon>
                    <polygon id="Fill-47" fill="#F5F1F1" mask="url(#mask-4)" points="130.87 88.454 141.183 88.454 141.183 87.667 130.87 87.667"></polygon>
                    <polygon id="Fill-48" fill="#F5F1F1" mask="url(#mask-4)" points="130.87 90.03 141.183 90.03 141.183 89.242 130.87 89.242"></polygon>
                    <polygon id="Fill-49" fill="#F5F1F1" mask="url(#mask-4)" points="130.87 91.605 141.183 91.605 141.183 90.817 130.87 90.817"></polygon>
                    <polygon id="Fill-50" fill="#330099" mask="url(#mask-4)" points="136.027 88.454 141.183 88.454 141.183 85.304 136.027 85.304"></polygon>
                    <polygon id="Fill-51" fill="#999999" mask="url(#mask-4)" points="120.4482 112.4752 140.9352 112.4752 142.2482 111.0762 139.1632 111.0762"></polygon>
                    <polygon id="Fill-52" fill="#3C3C3B" mask="url(#mask-4)" points="137.128 111.951 137.701 111.951 137.701 94.56 137.128 94.56"></polygon>
                    <polygon id="Fill-53" fill="#575756" mask="url(#mask-4)" points="136.419 97.628 138.411 97.628 138.411 97.199 136.419 97.199"></polygon>
                    <polygon id="Fill-54" fill="#575756" mask="url(#mask-4)" points="135.41 102.166 139.422 102.166 139.422 101.737 135.41 101.737"></polygon>
                    <path d="M131.2011,98.6578 C131.2011,99.9918 132.2831,101.0728 133.6171,101.0728 C134.9511,101.0728 136.0321,99.9918 136.0321,98.6578 C136.0321,97.3228 134.9511,96.2418 133.6171,96.2418 C132.2831,96.2418 131.2011,97.3228 131.2011,98.6578" id="Fill-55" fill="#D9D9D9" mask="url(#mask-4)"></path>
                    <path d="M125.498,96.9263 C125.498,98.2603 126.581,99.3423 127.914,99.3423 C129.249,99.3423 130.329,98.2603 130.329,96.9263 C130.329,95.5903 129.249,94.5113 127.914,94.5113 C126.581,94.5113 125.498,95.5903 125.498,96.9263" id="Fill-56" fill="#D9D9D9" mask="url(#mask-4)"></path>
                    <path d="M128.6356,98.5513 C128.6356,99.7283 129.5896,100.6803 130.7646,100.6803 C131.9416,100.6803 132.8936,99.7283 132.8936,98.5513 C132.8936,97.3743 131.9416,96.4223 130.7646,96.4223 C129.5896,96.4223 128.6356,97.3743 128.6356,98.5513" id="Fill-57" fill="#ECECEC" mask="url(#mask-4)"></path>
                    <path d="M134.3837,102.5201 C134.3837,102.9421 134.7257,103.2841 135.1467,103.2841 C135.5677,103.2841 135.9097,102.9421 135.9097,102.5201 C135.9097,102.0991 135.5677,101.7571 135.1467,101.7571 C134.7257,101.7571 134.3837,102.0991 134.3837,102.5201" id="Fill-58" fill="#D9D9D9" mask="url(#mask-4)"></path>
                    <path d="M122.9648,96.3551 C122.9648,96.7771 123.3068,97.1181 123.7278,97.1181 C124.1498,97.1181 124.4908,96.7771 124.4908,96.3551 C124.4908,95.9331 124.1498,95.5911 123.7278,95.5911 C123.3068,95.5911 122.9648,95.9331 122.9648,96.3551" id="Fill-59" fill="#D9D9D9" mask="url(#mask-4)"></path>
                    <path d="M132.8358,100.4312 C132.8358,101.4932 133.6958,102.3542 134.7578,102.3542 C135.8198,102.3542 136.6798,101.4932 136.6798,100.4312 C136.6798,99.3692 135.8198,98.5092 134.7578,98.5092 C133.6958,98.5092 132.8358,99.3692 132.8358,100.4312" id="Fill-60" fill="#ECECEC" mask="url(#mask-4)"></path>
                    <polygon id="Fill-61" fill="#6F6F6E" mask="url(#mask-4)" points="131.067 106.274 132.85 106.274 132.85 100.233 131.067 100.233"></polygon>
                    <polygon id="Fill-62" fill="#333333" mask="url(#mask-4)" points="130.559 114.389 133.356 114.389 133.356 102.751 130.559 102.751"></polygon>
                    <polygon id="Fill-63" fill="#575756" mask="url(#mask-4)" points="130.769 100.681 133.145 100.681 133.145 100.233 130.769 100.233"></polygon>
                    <polygon id="Fill-64" fill="#FFFFFF" mask="url(#mask-4)" points="130.769 102.186 133.145 102.186 133.145 101.737 130.769 101.737"></polygon>
                    <polygon id="Fill-65" fill="#6F6F6E" mask="url(#mask-4)" points="134.635 107.207 135.628 107.207 135.628 103.839 134.635 103.839"></polygon>
                    <polygon id="Fill-66" fill="#333333" mask="url(#mask-4)" points="134.352 111.732 135.91 111.732 135.91 105.245 134.352 105.245"></polygon>
                    <polygon id="Fill-67" fill="#575756" mask="url(#mask-4)" points="134.47 104.09 135.794 104.09 135.794 103.839 134.47 103.839"></polygon>
                    <polygon id="Fill-68" fill="#FFFFFF" mask="url(#mask-4)" points="134.47 104.929 135.794 104.929 135.794 104.678 134.47 104.678"></polygon>
                    <path d="M125.3261,91.4166 C125.3261,93.5906 127.0891,95.3546 129.2631,95.3546 C131.4391,95.3546 133.2011,93.5906 133.2011,91.4166 C133.2011,89.2406 131.4391,87.4776 129.2631,87.4776 C127.0891,87.4776 125.3261,89.2406 125.3261,91.4166" id="Fill-69" fill="#D9D9D9" mask="url(#mask-4)"></path>
                    <path d="M118.2118,90.4635 C118.1798,91.6105 119.0818,92.5665 120.2278,92.6005 C121.3738,92.6325 122.3298,91.7325 122.3638,90.5845 C122.3978,89.4375 121.4948,88.4815 120.3488,88.4485 C119.2018,88.4145 118.2448,89.3175 118.2118,90.4635" id="Fill-70" fill="#D9D9D9" mask="url(#mask-4)"></path>
                    <path d="M121.8202,88.6881 C121.8202,90.1201 122.9812,91.2801 124.4132,91.2801 C125.8442,91.2801 127.0052,90.1201 127.0052,88.6881 C127.0052,87.2551 125.8442,86.0941 124.4132,86.0941 C122.9812,86.0941 121.8202,87.2551 121.8202,88.6881" id="Fill-71" fill="#ECECEC" mask="url(#mask-4)"></path>
                    <path d="M127.6151,93.2603 C127.6151,95.6643 129.5641,97.6143 131.9691,97.6143 C134.3731,97.6143 136.3211,95.6643 136.3211,93.2603 C136.3211,90.8563 134.3731,88.9063 131.9691,88.9063 C129.5641,88.9063 127.6151,90.8563 127.6151,93.2603" id="Fill-72" fill="#ECECEC" mask="url(#mask-4)"></path>
                    <polygon id="Fill-73" fill="#666666" mask="url(#mask-4)" points="140.9354 112.4752 138.1914 121.1332 140.5054 115.5192 142.2474 111.0762"></polygon>
                    <polygon id="Fill-74" fill="#3C3C3B" mask="url(#mask-4)" points="130.202 111.766 131.181 111.766 131.181 82.069 130.202 82.069"></polygon>
                    <polygon id="Fill-75" fill="#575756" mask="url(#mask-4)" points="128.99 87.308 132.392 87.308 132.392 86.577 128.99 86.577"></polygon>
                    <polygon id="Fill-76" fill="#575756" mask="url(#mask-4)" points="127.266 95.057 134.116 95.057 134.116 94.325 127.266 94.325"></polygon>
                    <polygon id="Fill-77" fill="#4D4D4D" mask="url(#mask-4)" points="138.1913 121.1334 123.5363 121.1334 120.4483 112.4764 127.7343 109.9044 133.6493 109.9044 140.9353 112.4764"></polygon>
                    <polygon id="Fill-78" fill="#757575" mask="url(#mask-4)" points="132.5995 121.1334 128.7845 121.1334 127.7355 109.9044 133.6485 109.9044"></polygon>
                    <polygon id="Fill-79" fill="#999999" mask="url(#mask-4)" points="16.08 99.7222 82.995 99.7222 87.281 95.1502 77.208 95.1502"></polygon>
                    <polygon id="Fill-80" fill="#3C3C3B" mask="url(#mask-4)" points="70.564 96.245 72.434 96.245 72.434 39.448 70.564 39.448"></polygon>
                    <polygon id="Fill-81" fill="#575756" mask="url(#mask-4)" points="68.245 49.47 74.752 49.47 74.752 48.07 68.245 48.07"></polygon>
                    <polygon id="Fill-82" fill="#575756" mask="url(#mask-4)" points="64.948 64.287 78.049 64.287 78.049 62.889 64.948 62.889"></polygon>
                    <path d="M37.1376,53.0953 C37.1376,55.6783 39.2336,57.7723 41.8176,57.7723 C44.3996,57.7723 46.4946,55.6783 46.4946,53.0953 C46.4946,50.5113 44.3996,48.4163 41.8176,48.4163 C39.2336,48.4163 37.1376,50.5113 37.1376,53.0953" id="Fill-83" fill="#D9D9D9" mask="url(#mask-4)"></path>
                    <path d="M42.3905,47.6344 C42.3905,51.8534 45.8065,55.2664 50.0235,55.2664 C54.2375,55.2664 57.6565,51.8534 57.6565,47.6344 C57.6565,43.4184 54.2375,40.0024 50.0235,40.0024 C45.8065,40.0024 42.3905,43.4184 42.3905,47.6344" id="Fill-84" fill="#ECECEC" mask="url(#mask-4)"></path>
                    <path d="M60.7489,66.1578 C60.7489,68.1138 62.3309,69.6988 64.2889,69.6988 C66.2439,69.6988 67.8259,68.1138 67.8259,66.1578 C67.8259,64.2048 66.2439,62.6208 64.2889,62.6208 C62.3309,62.6208 60.7489,64.2048 60.7489,66.1578" id="Fill-85" fill="#D9D9D9" mask="url(#mask-4)"></path>
                    <path d="M25.3007,48.523 C25.3007,50.487 26.8947,52.081 28.8587,52.081 C30.8217,52.081 32.4127,50.487 32.4127,48.523 C32.4127,46.559 30.8217,44.965 28.8587,44.965 C26.8947,44.965 25.3007,46.559 25.3007,48.523" id="Fill-86" fill="#D9D9D9" mask="url(#mask-4)"></path>
                    <path d="M57.6405,60.3472 C57.6405,63.8332 60.4675,66.6602 63.9565,66.6602 C67.4425,66.6602 70.2725,63.8332 70.2725,60.3472 C70.2725,56.8572 67.4425,54.0312 63.9565,54.0312 C60.4675,54.0312 57.6405,56.8572 57.6405,60.3472" id="Fill-87" fill="#ECECEC" mask="url(#mask-4)"></path>
                    <polygon id="Fill-88" fill="#6F6F6E" mask="url(#mask-4)" points="50.762 79.464 56.584 79.464 56.584 59.733 50.762 59.733"></polygon>
                    <polygon id="Fill-89" fill="#333333" mask="url(#mask-4)" points="49.106 105.971 58.24 105.971 58.24 67.958 49.106 67.958"></polygon>
                    <polygon id="Fill-90" fill="#575756" mask="url(#mask-4)" points="49.79 61.2 57.555 61.2 57.555 59.734 49.79 59.734"></polygon>
                    <polygon id="Fill-91" fill="#FFFFFF" mask="url(#mask-4)" points="49.79 66.113 57.555 66.113 57.555 64.65 49.79 64.65"></polygon>
                    <polygon id="Fill-92" fill="#6F6F6E" mask="url(#mask-4)" points="62.415 82.516 65.661 82.516 65.661 71.516 62.415 71.516"></polygon>
                    <polygon id="Fill-93" fill="#333333" mask="url(#mask-4)" points="61.492 97.292 66.584 97.292 66.584 76.101 61.492 76.101"></polygon>
                    <polygon id="Fill-94" fill="#575756" mask="url(#mask-4)" points="61.874 72.332 66.201 72.332 66.201 71.517 61.874 71.517"></polygon>
                    <polygon id="Fill-95" fill="#FFFFFF" mask="url(#mask-4)" points="61.874 75.071 66.201 75.071 66.201 74.256 61.874 74.256"></polygon>
                    <path d="M32.6591,35.4498 C32.6591,41.7828 37.7941,46.9188 44.1291,46.9188 C50.4641,46.9188 55.5991,41.7828 55.5991,35.4498 C55.5991,29.1148 50.4641,23.9778 44.1291,23.9778 C37.7941,23.9778 32.6591,29.1148 32.6591,35.4498" id="Fill-96" fill="#D9D9D9" mask="url(#mask-4)"></path>
                    <path d="M10.038,27.9947 C10.038,34.0437 14.941,38.9467 20.987,38.9467 C27.036,38.9467 31.938,34.0437 31.938,27.9947 C31.938,21.9487 27.036,17.0457 20.987,17.0457 C14.941,17.0457 10.038,21.9487 10.038,27.9947" id="Fill-97" fill="#D9D9D9" mask="url(#mask-4)"></path>
                    <path d="M19.8671,24.273 C19.8671,31.008 25.3301,36.47 32.0681,36.47 C38.8041,36.47 44.2641,31.008 44.2641,24.273 C44.2641,17.536 38.8041,12.075 32.0681,12.075 C25.3301,12.075 19.8671,17.536 19.8671,24.273" id="Fill-98" fill="#ECECEC" mask="url(#mask-4)"></path>
                    <path d="M52.0399,51.6226 C52.0399,55.1416 54.8929,57.9916 58.4089,57.9916 C61.9259,57.9916 64.7749,55.1416 64.7749,51.6226 C64.7749,48.1056 61.9259,45.2536 58.4089,45.2536 C54.8929,45.2536 52.0399,48.1056 52.0399,51.6226" id="Fill-99" fill="#D9D9D9" mask="url(#mask-4)"></path>
                    <path d="M-0.0001,22.2262 C-0.0001,24.8502 2.1289,26.9782 4.7509,26.9782 C7.3759,26.9782 9.5009,24.8502 9.5009,22.2262 C9.5009,19.6032 7.3759,17.4742 4.7509,17.4742 C2.1289,17.4742 -0.0001,19.6032 -0.0001,22.2262" id="Fill-100" fill="#D9D9D9" mask="url(#mask-4)"></path>
                    <path d="M43.8759,38.0894 C43.8759,45.3184 49.7389,51.1804 56.9649,51.1804 C64.1939,51.1804 70.0549,45.3184 70.0549,38.0894 C70.0549,30.8624 64.1939,25.0034 56.9649,25.0034 C49.7389,25.0034 43.8759,30.8624 43.8759,38.0894" id="Fill-101" fill="#ECECEC" mask="url(#mask-4)"></path>
                    <polygon id="Fill-102" fill="#666666" mask="url(#mask-4)" points="82.996 99.7222 74.032 127.9992 81.591 109.6602 87.28 95.1502"></polygon>
                    <polygon id="Fill-103" fill="#3C3C3B" mask="url(#mask-4)" points="47.942 97.406 51.137 97.406 51.137 0.412 47.942 0.412"></polygon>
                    <polygon id="Fill-104" fill="#575756" mask="url(#mask-4)" points="43.983 17.524 55.094 17.524 55.094 15.133 43.983 15.133"></polygon>
                    <polygon id="Fill-105" fill="#575756" mask="url(#mask-4)" points="38.354 42.83 60.724 42.83 60.724 40.439 38.354 40.439"></polygon>
                    <polygon id="Fill-106" fill="#4D4D4D" mask="url(#mask-4)" points="74.0321 127.9996 26.1661 127.9996 16.0801 99.7216 39.8801 91.3236 59.1971 91.3236 82.9961 99.7216"></polygon>
                    <polygon id="Fill-107" fill="#757575" mask="url(#mask-4)" points="55.7665 127.9996 43.3085 127.9996 39.8785 91.3236 59.1975 91.3236"></polygon>
                </g>
            </g>
        </g>
    </g>
</svg>