<?xml version="1.0" encoding="UTF-8"?>
<svg width="142px" height="192px" viewBox="0 0 142 192" version="1.1" xmlns="http://www.w3.org/2000/svg" xmlns:xlink="http://www.w3.org/1999/xlink">
    <!-- Generator: Sketch 46.2 (44496) - http://www.bohemiancoding.com/sketch -->
    <title>Group 2</title>
    <desc>Created with Sketch.</desc>
    <defs>
        <polygon id="path-1" points="0 0.800901818 0 63.0149624 26.8589427 63.0149624 26.8589427 0.800901818 1.25392541e-19 0.800901818"></polygon>
        <polygon id="path-3" points="0 151.078788 98.9972243 151.078788 98.9972243 0.112387879 0 0.112387879"></polygon>
        <polygon id="path-5" points="0 0.39066274 0 81.5162517 33.1241514 81.5162517 33.1241514 0.39066274"></polygon>
        <polygon id="path-7" points="33.2995868 81.5162517 33.2995868 0.39066274 0.176334732 0.39066274 0.176334732 81.5162517"></polygon>
        <polygon id="path-9" points="0 191.076923 61.7787077 191.076923 61.7787077 0.382153846 0 0.382153846"></polygon>
    </defs>
    <g id="-" stroke="none" stroke-width="1" fill="none" fill-rule="evenodd">
        <g id="1-1-Desktop-Navigation-Copy-5" transform="translate(-562.000000, -3087.000000)">
            <g id="Group-2" transform="translate(562.000000, 3087.000000)">
                <g id="Page-1" transform="translate(43.000000, 20.000000)">
                    <polygon id="Fill-1" fill="#848484" points="7.18749252 82.7113988 6.73690374 87.0272776 6.58701589 90.3712776 5.70804393 92.6918109 4.31464206 92.6918109 2.0607729 88.7656048 2.6742028 82.7113988"></polygon>
                    <polygon id="Fill-2" fill="#848484" points="42.9987533 81.9593212 43.4493421 87.0269091 43.5992299 90.3718303 44.4782019 92.6914424 45.8716037 92.6914424 48.1254729 88.7661576 47.512043 82.2587152"></polygon>
                    <polygon id="Fill-3" fill="#D7D7D7" points="44.4778318 92.6918109 45.7592804 90.4293139 45.7879626 85.7366594 45.2420748 84.8007079 44.9034393 89.5136291 44.5685047 90.603423 43.9643271 90.8410958 42.9983832 90.0764897 42.7365421 86.3787442 42.9928318 82.7113988 47.8632617 82.7113988 48.1251028 88.7656048 45.8721589 92.6918109"></polygon>
                    <polygon id="Fill-4" fill="#AFAFAF" points="39.6068467 87.7969503 38.1570056 114.377605 34.4357159 120.713702 24.9770523 121.084029 24.9770523 87.7969503"></polygon>
                    <polygon id="Fill-5" fill="#D7D7D7" points="10.3427243 87.7969503 11.7925654 114.377605 15.5138551 120.713702 24.9725187 121.084029 24.9725187 87.7969503"></polygon>
                    <polygon id="Fill-6" fill="#CCCBCC" points="30.377086 30.6431079 30.377086 24.3438594 25.7037308 26.5685867 20.1412262 23.004417 20.1412262 31.5265503 25.1550673 33.5366352"></polygon>
                    <g id="Group-68" transform="translate(0.000000, 0.808824)">
                        <g id="Group-9" transform="translate(0.000000, 25.793939)">
                            <mask id="mask-2" fill="white">
                                <use xlink:href="#path-1"></use>
                            </mask>
                            <g id="Clip-8"></g>
                            <path d="M26.5703972,63.0149624 C26.5703972,63.0149624 27.1227617,41.8473503 26.6990047,24.5561988 C26.4417897,14.1188655 25.1205561,5.09282909 25.1205561,2.98785939 C22.6316776,2.04545939 19.6376215,0.800901818 19.6376215,0.800901818 L19.5469486,3.77733818 L4.28707009,8.78228364 L1.17735981,31.4938473 L-0.000462616822,50.79232 L1.4493785,52.8668897 L1.4493785,56.1086352 L7.69192991,56.1086352 L8.06109813,52.6863321 L8.78555607,40.7824291 L11.4233972,27.1051927 L10.7960888,46.7647806 L8.07497664,63.0149624 L26.5703972,63.0149624 Z" id="Fill-7" fill="#644BD4" mask="url(#mask-2)"></path>
                        </g>
                        <path d="M25.120186,88.8089018 L25.6161112,83.6961745 L23.6703449,76.4416291 L25.6161112,68.0254352 L23.6703449,55.2804655 L25.6161112,46.1401988 L23.6703449,36.521823 C23.6703449,36.521823 25.120186,29.8411927 25.120186,28.7817988 C27.6081393,27.8393988 30.6031206,26.5948412 30.6031206,26.5948412 L30.6928682,29.5712776 L45.953672,34.576223 L49.062457,57.2877867 L50.2402794,76.5862594 L48.7913636,78.6608291 L48.7913636,81.9025745 L42.5488121,81.9025745 L42.1787187,78.4802715 L41.4542607,66.5763685 L38.8173449,52.8991321 L39.4187467,72.55872 L42.1657654,88.8089018 L25.120186,88.8089018 Z" id="Fill-10" fill="#7557FF"></path>
                        <polygon id="Fill-12" fill="#EAEAEA" points="25.2593411 26.2592436 23.2321542 26.0095952 19.7505 24.4011588 18.0776776 19.4763588 17.3328645 19.2635588 16.2716215 16.6178376 17.1339393 14.4806255 17.6113598 14.4806255 17.4901542 9.14404364 19.212014 6.44581333 25.2593411 3.17643152"></polygon>
                        <polygon id="Fill-14" fill="#D7D7D7" points="25.2846925 26.2592436 27.2591411 26.0095952 30.7398701 24.4011588 32.4117673 19.4763588 33.1575056 19.2635588 34.2178234 16.6178376 33.3564308 14.4806255 32.8790103 14.4806255 33.0011411 9.14404364 31.2783561 6.44581333 25.2301037 3.17643152 25.2301037 13.6110012 23.8098701 19.0793164 25.2449075 20.2916315"></polygon>
                        <polygon id="Fill-16" fill="#282828" points="10.8441084 71.0413915 24.9187626 73.193343 39.3727626 71.0413915 39.8723888 75.3360824 24.6541458 77.4788218 10.3426318 75.2679127"></polygon>
                        <polygon id="Fill-18" fill="#644BD4" points="8.06119065 78.8114473 6.30972336 66.3059927 1.44947103 78.6612897"></polygon>
                        <polygon id="Fill-20" fill="#D7D7D7" points="5.70841402 91.8829867 4.42696542 89.6204897 4.39920841 84.9278352 4.94417103 83.9918836 5.28373178 88.7048048 5.61774112 89.7945988 6.22284393 90.0322715 6.70211495 89.82592 6.79278785 89.3045139 7.44970374 85.56992 7.05370374 81.9983806 1.84186262 81.9025745 2.06114299 87.9567806 4.31408692 91.8829867"></polygon>
                        <mask id="mask-4" fill="white">
                            <use xlink:href="#path-3"></use>
                        </mask>
                        <g id="Clip-23"></g>
                        <polygon id="Fill-22" fill="#583FB6" mask="url(#mask-4)" points="42.1083084 82.2577939 48.7533364 82.2577939 48.7533364 78.6346667 42.1083084 78.6346667"></polygon>
                        <polygon id="Fill-24" fill="#583FB6" mask="url(#mask-4)" points="1.43318692 82.2577939 8.07728972 82.2577939 8.07728972 78.6346667 1.43318692 78.6346667"></polygon>
                        <polygon id="Fill-25" fill="#000000" mask="url(#mask-4)" points="35.4839131 139.932674 35.4839131 119.464262 24.977885 119.464262 24.977885 122.511632 24.977885 139.932674 25.9826888 141.204868 24.977885 142.487195 26.1038944 143.840456 24.977885 146.064262 24.977885 151.079341 42.9986607 151.079341 42.9986607 147.928795 34.4476514 143.840456 35.4839131 142.487195 34.3162682 141.204868"></polygon>
                        <polygon id="Fill-26" fill="#222222" mask="url(#mask-4)" points="14.4700991 139.932674 14.4700991 119.464262 24.9770523 119.464262 24.9770523 122.511632 24.9770523 139.932674 23.9713234 141.204868 24.9770523 142.487195 23.8501178 143.840456 24.9770523 146.064262 24.9770523 151.079341 6.9553514 151.079341 6.9553514 147.928795 15.507286 143.840456 14.4700991 142.487195 15.6377439 141.204868"></polygon>
                        <path d="M32.9296206,10.9854545 L30.3769009,8.44014545 L24.6922654,6.70089697 L19.8847514,7.66356364 L17.6503121,9.58613333 C17.6503121,9.58613333 15.2354523,8.67597576 14.8727607,6.40058182 C14.647929,4.98744242 15.1882654,3.34215758 16.061686,2.17866667 C16.4724897,1.63054545 16.9573121,1.18836364 17.4708168,0.928581818 C19.7163589,-0.208193939 22.9500505,-0.16489697 25.1206486,1.10913939 C28.6402374,3.17633939 32.9786579,2.33711515 34.8605832,4.35641212 C35.3888916,4.92295758 35.7053215,5.72901818 36.1281533,7.1817697 C36.5565364,8.65386667 32.9296206,10.9854545 32.9296206,10.9854545" id="Fill-27" fill="#575756" mask="url(#mask-4)"></path>
                        <path d="M18.9182523,8.15346424 C18.9182523,8.15346424 18.924729,10.6398158 24.5353458,10.9217067 C30.2653178,11.2100461 31.3219346,9.30037333 31.3219346,9.30037333 C31.3219346,9.30037333 29.0754673,6.62517333 24.6852336,6.41605818 C20.2959252,6.20694303 18.9182523,8.15346424 18.9182523,8.15346424" id="Fill-28" fill="#1D1D1B" mask="url(#mask-4)"></path>
                        <path d="M17.4843252,10.3674133 L17.4704467,9.91141333 C17.4704467,9.91141333 17.5786991,5.74108606 24.0562598,5.70515879 C30.5338206,5.67015273 32.9135215,10.0864436 32.9135215,10.0864436 L32.9357271,12.1720679 C32.9357271,12.1720679 30.1341196,8.05885576 24.0793907,7.92067394 C18.3225869,7.78801939 17.4843252,10.3674133 17.4843252,10.3674133" id="Fill-29" fill="#3C3C3B" mask="url(#mask-4)"></path>
                        <polygon id="Fill-30" fill="#6F6F6E" mask="url(#mask-4)" points="27.375443 24.6471224 23.1286206 24.6471224 18.3442374 20.2612315 19.3111065 38.35568 31.3224897 38.35568 32.1450224 20.2612315"></polygon>
                        <polygon id="Fill-31" fill="#6F6F6E" mask="url(#mask-4)" points="27.5769589 22.1955927 25.0779028 21.7082715 22.5788467 22.1955927 22.5788467 21.4042715 24.361772 20.6111079 25.8301178 20.6111079 27.5769589 21.4042715"></polygon>
                        <polygon id="Fill-32" fill="#E74C6A" mask="url(#mask-4)" points="77.9498243 45.1404073 70.9652355 45.1404073 65.8107589 31.1167952 82.946086 31.1167952"></polygon>
                        <polygon id="Fill-33" fill="#D7D7D7" mask="url(#mask-4)" points="78.3618308 42.3984194 78.3618308 36.4289648 74.7913542 38.5376194 70.5408308 35.1595345 70.5408308 43.23488 74.3722234 45.1408679"></polygon>
                        <polygon id="Fill-34" fill="#C4C4C3" mask="url(#mask-4)" points="74.4612308 38.5939055 72.4923336 38.3507055 69.6416888 36.7901721 67.4895953 32.0090812 66.7660626 31.8027297 65.7353523 29.2334691 66.5726888 27.1588994 67.0362308 27.1588994 68.3991 22.6458812 69.5167822 21.2548509 74.4612308 18.9776145"></polygon>
                        <polygon id="Fill-35" fill="#D7D7D7" mask="url(#mask-4)" points="74.4855645 38.5939055 76.4017234 38.3507055 79.405957 36.41616 81.4053869 32.0090812 82.1289196 31.8027297 83.1587047 29.2334691 82.3222935 27.1588994 81.8587514 27.1588994 80.395957 22.3741236 79.2523682 20.681857 74.4624336 18.6772994 74.4328262 27.3892024 73.4946393 34.2927661 74.4476299 34.3627782"></polygon>
                        <polygon id="Fill-36" fill="#848484" mask="url(#mask-4)" points="55.5291 87.0277382 57.1454832 90.8581382 57.2343056 93.4679321 56.6356794 95.3324655 55.4504551 95.4291927 53.2789318 92.5365867 53.3825579 87.4376776"></polygon>
                        <polygon id="Fill-37" fill="#EAEAEA" mask="url(#mask-4)" points="56.635957 95.332097 55.3998449 93.6637818 55.0741626 90.0194667 55.4775645 89.2539394 56.069714 92.8927273 56.4250037 93.7162909 56.9542374 93.8572364 57.7258822 93.1967273 57.7110785 90.3050424 56.3241533 85.7229333 58.2033028 76.6379394 53.5891626 76.6185939 52.5232935 85.5350061 52.8091907 92.175103 55.4507327 95.4288242"></polygon>
                        <path d="M74.4530888,89.5790352 L74.4530888,42.3733624 C72.0946682,41.4807079 69.2569766,40.3006352 69.2569766,40.3006352 L69.1709299,42.1495079 L58.3530981,46.8919079 L52.5861168,65.5335564 L51.5359766,74.0805624 L52.9099486,76.0464291 L52.9099486,79.1186715 L58.8258925,79.1186715 L59.1756308,75.8750836 L61.472986,62.8122958 L62.209472,68.1967806 L58.2985093,89.5790352 L74.4530888,89.5790352 Z" id="Fill-38" fill="#404694" mask="url(#mask-4)"></path>
                        <polygon id="Fill-39" fill="#322A82" mask="url(#mask-4)" points="52.8798785 79.3172848 59.1760935 79.3172848 59.1760935 75.8830061 52.8798785 75.8830061"></polygon>
                        <polygon id="Fill-40" fill="#AFAFAF" mask="url(#mask-4)" points="93.376985 87.0277382 91.7596766 90.8581382 91.6717794 93.4679321 92.2694804 95.3324655 93.4556299 95.4291927 95.626228 92.5365867 95.5235271 87.4376776"></polygon>
                        <polygon id="Fill-41" fill="#EAEAEA" mask="url(#mask-4)" points="92.2692028 95.332097 93.505315 93.6637818 93.8319224 90.0194667 93.4285206 89.2539394 92.8354458 92.8927273 92.4810813 93.7162909 91.9518477 93.8572364 91.1792776 93.1967273 91.1950065 90.3050424 92.5819318 85.7229333 90.7027822 76.6379394 95.3169224 76.6185939 96.3818664 85.5350061 96.0959692 92.175103 93.4553523 95.4288242"></polygon>
                        <path d="M74.4530888,89.5790352 L74.4530888,42.3733624 C76.8115093,41.4807079 79.6492009,40.3006352 79.6492009,40.3006352 L79.7352477,42.1495079 L90.5530794,46.8919079 L96.3200607,65.5335564 L97.3702009,74.0805624 L95.996229,76.0464291 L95.996229,79.1186715 L90.080285,79.1186715 L89.7296215,75.8750836 L87.4331916,62.8122958 L86.6967056,68.1967806 L90.606743,89.5790352 L74.4530888,89.5790352 Z" id="Fill-42" fill="#322A82" mask="url(#mask-4)"></path>
                        <polygon id="Fill-43" fill="#404694" mask="url(#mask-4)" points="89.7291589 79.3172848 96.0262991 79.3172848 96.0262991 75.8830061 89.7291589 75.8830061"></polygon>
                        <path d="M68.6974879,24.7568388 C68.6974879,24.7568388 71.6637869,25.7839903 72.6713664,25.7489842 C73.5087028,25.7195055 75.1158336,25.1437479 75.9494692,25.0571539 C76.9126374,24.9567418 79.8234224,25.0571539 79.8234224,25.0571539 L76.8441701,19.6791176 L71.8386561,19.6791176 L68.6974879,24.7568388 Z" id="Fill-44" fill="#575756" mask="url(#mask-4)"></path>
                        <path d="M74.4603056,38.5939055 C72.0750533,38.5939055 68.8367355,37.2655176 68.8367355,31.9215661 C68.8367355,26.7286933 70.1144832,23.4712873 72.5811561,22.2101479 C73.3805579,21.8011297 75.3864645,21.7873115 76.1793897,22.2101479 C78.6303336,23.5145842 79.9904271,27.2077236 79.9904271,31.9215661 C79.9904271,36.6096145 76.8770159,38.5939055 74.4603056,38.5939055 M84.2640813,30.0579539 C84.2640813,24.0313842 79.823885,17.733057 74.398315,17.733057 C68.6970252,17.733057 64.577885,23.9328145 64.577885,30.0579539 C64.577885,34.8924752 67.1898196,39.4156267 72.9281187,40.18576 L70.5974551,44.50256 L74.1642308,41.2184388 L77.7300813,44.50256 L75.4429037,40.2226085 C81.4615486,39.5620994 84.2640813,34.5728145 84.2640813,30.0579539" id="Fill-45" fill="#E96580" mask="url(#mask-4)"></path>
                        <polygon id="Fill-46" fill="#AFAFAF" mask="url(#mask-4)" points="89.135714 88.4805818 59.494929 88.4805818 48.8177327 150.963636 98.9968542 150.963636"></polygon>
                        <polygon id="Fill-47" fill="#EC7E91" mask="url(#mask-4)" points="83.1840561 70.0995442 65.3381495 70.0995442 56.3458037 136.293241 91.4685981 136.293241"></polygon>
                        <polygon id="Fill-48" fill="#EC7E91" mask="url(#mask-4)" points="86.3808308 71.3014497 60.756485 71.3014497 60.9766907 70.0992679 86.1606252 70.0992679"></polygon>
                        <polygon id="Fill-49" fill="#3C3C3B" mask="url(#mask-4)" points="43.484871 75.9614933 44.1954505 67.725857 45.0540673 66.7631903 45.2363383 65.5610085 47.7113383 65.0792145 48.0740299 64.4785842 53.4172542 65.5610085 55.9847776 68.8368388 55.9847776 74.7593115 50.3676841 78.1862206"></polygon>
                        <polygon id="Fill-50" fill="#EAEAEA" mask="url(#mask-4)" points="53.5864794 147.738657 55.8634794 135.944378 55.6090402 134.575457 49.7402832 134.575457 49.7402832 136.158099 49.7402832 148.962948 49.7402832 150.995142 59.0999467 150.995142 59.0999467 149.513833"></polygon>
                        <polygon id="Fill-51" fill="#D7D7D7" mask="url(#mask-4)" points="45.9352598 147.901435 43.6156991 135.945023 43.8710636 134.575181 49.7398206 134.575181 49.7398206 136.157823 49.7398206 148.962672 49.7398206 150.994865 40.5004374 150.994865 40.5004374 149.513556"></polygon>
                        <polygon id="Fill-52" fill="#848484" mask="url(#mask-4)" points="38.372585 114.606526 38.8694355 117.994744 38.4937907 120.14209 38.1819869 121.782768 37.5093421 121.782768 36.2723047 119.096514 36.4730804 114.777872"></polygon>
                        <polygon id="Fill-53" fill="#D7D7D7" mask="url(#mask-4)" points="38.1818944 121.782768 37.325128 120.270138 37.3066234 117.131568 37.6711654 116.505144 37.8978477 119.657532 38.1217542 120.386211 38.5251561 120.544659 38.7610907 120.034308 38.9359598 117.561775 38.7657168 115.108587 36.1778383 115.108587 36.0038944 119.157314 37.5092495 121.782768"></polygon>
                        <polygon id="Fill-54" fill="#CECECE" mask="url(#mask-4)" points="53.0453103 82.5754279 53.0453103 78.3341673 50.192815 80.1250036 46.8675252 77.7243248 46.8675252 83.4625552 49.8236467 84.816737"></polygon>
                        <path d="M49.8638944,82.1598691 C48.1882963,81.5260752 45.9732869,80.8056873 45.9732869,80.8056873 L45.914072,82.758657 L39.3005019,86.1551661 L39.2884738,86.1975418 L39.2116794,86.2371539 L35.0416514,101.607578 L34.2894364,111.553905 L35.2590813,112.941251 L35.2590813,115.108863 L39.4337355,115.108863 L39.6807729,112.820572 L41.4451935,98.4303176 L41.4488944,98.4293964 L41.2860533,103.568839 L39.2986514,141.845202 L49.8648196,141.845202 C49.8648196,141.845202 49.8638944,85.5517721 49.8638944,82.1598691" id="Fill-55" fill="#BBCA49" mask="url(#mask-4)"></path>
                        <polygon id="Fill-56" fill="#848484" mask="url(#mask-4)" points="61.356129 114.606526 60.8592785 117.994744 61.2349234 120.14209 61.5467271 121.782768 62.219372 121.782768 63.4564093 119.096514 63.2556336 114.777872"></polygon>
                        <polygon id="Fill-57" fill="#D7D7D7" mask="url(#mask-4)" points="61.5467271 121.782768 62.4034935 120.270138 62.4219981 117.131568 62.0574561 116.505144 61.8307738 119.657532 61.6068673 120.386211 61.2034654 120.544659 60.9675308 120.034308 60.7926617 117.561775 60.9629047 115.108587 63.5498579 115.108587 63.7247271 119.157314 62.219372 121.782768"></polygon>
                        <path d="M64.6866,101.607855 L60.516572,86.2365091 L60.4397776,86.196897 L60.4277495,86.1554424 L53.8141794,82.7589333 L53.7558897,80.8059636 C53.7558897,80.8059636 51.5399551,81.5254303 49.8634318,82.1601455 C49.8634318,83.5769697 49.864357,141.845479 49.864357,141.845479 L60.4296,141.845479 L58.4431234,103.571879 L58.279357,98.4296727 L58.2830579,98.4305939 L60.0474785,112.820848 L60.2954411,115.108218 L64.4700953,115.108218 L64.4700953,112.941527 L65.438815,111.554182 L64.6866,101.607855 Z" id="Fill-58" fill="#CDDE51" mask="url(#mask-4)"></path>
                        <polygon id="Fill-59" fill="#D7D7D7" mask="url(#mask-4)" points="49.8936869 80.4613382 48.5280421 80.2918352 46.5369393 79.1790109 45.4100047 75.8626473 44.908528 75.7198594 44.1951729 73.9382352 44.7743692 72.4983806 45.0963505 72.4983806 45.0149299 68.9056533 46.8672477 66.602623 49.8936869 66.0360776"></polygon>
                        <polygon id="Fill-60" fill="#EAEAEA" mask="url(#mask-4)" points="49.9108963 80.4613382 51.240457 80.2918352 53.0455879 79.1790109 54.1715972 75.8626473 54.6730738 75.7198594 55.3873542 73.9382352 54.8072327 72.4983806 54.4852514 72.4983806 54.5675972 68.9056533 52.7217561 66.602623 49.8748121 66.0360776 49.8748121 71.9438109 49.1438776 76.0754473 49.8840645 76.4430109"></polygon>
                        <polygon id="Fill-61" fill="#C2BB49" mask="url(#mask-4)" points="50.8414963 85.1196315 50.8414963 99.6932073 49.7996832 100.301207 48.7578701 99.6932073 48.7578701 85.1196315"></polygon>
                        <polygon id="Fill-62" fill="#C4C4C3" mask="url(#mask-4)" points="35.2477009 115.346812 39.6906729 115.346812 39.6906729 112.923103 35.2477009 112.923103"></polygon>
                        <polygon id="Fill-63" fill="#C4C4C3" mask="url(#mask-4)" points="60.037486 115.346812 64.4804579 115.346812 64.4804579 112.923103 60.037486 112.923103"></polygon>
                        <polygon id="Fill-64" fill="#3C3C3B" mask="url(#mask-4)" points="44.1949879 73.4965139 48.6166794 70.6112776 51.1536701 68.3865503 51.9993336 66.035617 48.2789692 65.5611927 45.839128 66.7034958 44.9934645 68.4473503 44.5604551 70.3966352"></polygon>
                        <polygon id="Fill-65" fill="#3C3C3B" mask="url(#mask-4)" points="50.2171486 67.5148994 51.8168776 69.5295903 55.3873542 74.5197964 55.651971 73.4963297 54.9580458 69.6613236 54.1123822 67.4246206 52.2656159 66.0363539"></polygon>
                        <polygon id="Fill-66" fill="#C4C4C3" mask="url(#mask-4)" points="55.5291 87.0277382 57.1454832 90.8581382 57.2343056 93.4679321 56.6356794 95.3324655 55.4504551 95.4291927 53.2789318 92.5365867 53.3825579 87.4376776"></polygon>
                        <polygon id="Fill-67" fill="#EAEAEA" mask="url(#mask-4)" points="56.635957 95.332097 55.3998449 93.6637818 55.0741626 90.0194667 55.4775645 89.2539394 56.069714 92.8927273 56.4250037 93.7162909 56.9542374 93.8572364 57.7258822 93.1967273 57.7110785 90.3050424 56.3241533 85.7229333 56.6378075 84.2084606 53.202415 79.8474424 52.5232935 85.5350061 52.8091907 92.175103 55.4507327 95.4288242"></polygon>
                    </g>
                </g>
                <g id="Page-1">
                    <polygon id="Fill-1" fill="#D7D7D7" points="31.4626866 0.923076923 25.5657428 2.00928191 21.9542608 6.43105369 22.1141676 13.3286033 21.4881171 13.3286033 20.358209 16.0914708 21.7490972 19.5128685 22.7251327 19.7881193 24.9215896 26.1544052 28.8015945 28.2912989 31.4626866 28.6153846"></polygon>
                    <polygon id="Fill-2" fill="#EAEAEA" points="30.9130849 0.923076923 30.9130849 12.2631161 29.6119403 20.1980359 30.9296074 20.9009615 30.9777979 28.6153846 33.3405113 28.2912989 36.5513783 26.1544052 38.553351 19.7881193 39.4469414 19.5128685 40.7164179 16.0914708 39.6851403 13.3286033 39.1137382 13.3286033 39.2583098 6.43105369 35.9758455 2.00928191"></polygon>
                    <polygon id="Fill-3" fill="#C4C4C3" points="49.9701493 108 48.0427492 141.908188 43.100541 149.991301 30.5373134 150.461538 30.5373134 108"></polygon>
                    <polygon id="Fill-4" fill="#D7D7D7" points="11.1044776 108 13.0305018 141.908188 17.9730984 149.991301 30.5373134 150.461538 30.5373134 108"></polygon>
                    <polygon id="Fill-5" fill="#D7D7D7" points="30.5373134 150.461538 30.5373134 154.465572 30.5373134 177.352638 31.8819797 179.026751 30.5373134 180.711394 32.0431554 182.487789 30.5373134 185.411846 30.5373134 192 54.5970149 192 54.5970149 187.860594 43.181167 182.487789 44.5642084 180.711394 43.0046412 179.026751 44.5642084 177.352638 44.5642084 150.461538"></polygon>
                    <polygon id="Fill-6" fill="#C4C4C3" points="16.5088834 150.461538 16.5088834 177.352638 18.0684507 179.026751 16.5088834 180.711394 17.8949948 182.487789 6.47761194 187.860594 6.47761194 192 30.5373134 192 30.5373134 185.411846 29.0314715 182.487789 30.5373134 180.711394 29.1941822 179.026751 30.5373134 177.352638 30.5373134 154.465572 30.5373134 150.461538"></polygon>
                    <polygon id="Fill-7" fill="#848484" points="7.44189623 100.615385 8.32835821 107.153723 7.65837381 111.295015 7.10347876 114.461538 5.90600153 114.461538 3.70149254 109.279015 4.05772146 100.946215"></polygon>
                    <polygon id="Fill-8" fill="#D7D7D7" points="7.82709421 113.538462 6.20538628 110.817195 6.16753673 105.176452 6.85901901 104.050506 7.2884659 109.717402 7.71208979 111.027794 8.47635968 111.312722 8.9232756 110.394621 9.25373134 105.947271 8.93201011 101.538462 4.03340403 101.538462 3.70149254 108.817195 6.55476681 113.538462"></polygon>
                    <polygon id="Fill-9" fill="#CCCBCC" points="37.0149254 32.8396656 37.0149254 25.1111037 30.3291364 31.3183946 25.9104478 24 25.9104478 34.4564548 31.2226161 36.9230769"></polygon>
                    <g id="Group-63">
                        <g id="Group-12" transform="translate(0.000000, 28.362981)">
                            <mask id="mask-6" fill="white">
                                <use xlink:href="#path-5"></use>
                            </mask>
                            <g id="Clip-11"></g>
                            <path d="M32.7487407,81.5162517 C32.7487407,81.5162517 33.4682132,53.914593 32.9151187,31.3660233 C32.5808637,17.7562709 30.8571275,5.98712668 30.8571275,3.2418887 C27.6135055,2.0133238 23.710367,0.39066274 23.710367,0.39066274 L23.5934527,4.27191274 L10.5305297,10.9805041 L2.40049011,40.9527108 L-0.000749450549,66.1196315 L1.88936484,68.8230714 L1.88936484,73.0506483 L10.0268989,73.0506483 L10.5080462,68.5887036 L14.8923319,34.6904632 L14.0754308,60.3261195 L10.5275319,81.5162517 L32.7487407,81.5162517 Z" id="Fill-10" fill="#EAEAEA" mask="url(#mask-6)"></path>
                        </g>
                        <polygon id="Fill-13" fill="#848484" points="53.8198426 100.432718 52.8515525 107.041292 53.5845152 111.227071 54.1915701 114.42761 55.5016097 114.42761 57.9133415 109.189415 57.5236273 100.767102"></polygon>
                        <polygon id="Fill-15" fill="#D7D7D7" points="54.1915701 114.42761 55.8613459 111.476367 55.8988185 105.35892 55.1868404 104.137819 54.7446646 110.283629 54.3084844 111.704763 53.5215613 112.013771 53.0628976 111.018081 52.7211481 106.194881 53.0539042 101.41348 58.0962075 101.41348 58.4394558 109.307345 55.5016097 114.42761"></polygon>
                        <g id="Group-19" transform="translate(28.479121, 28.362981)">
                            <mask id="mask-8" fill="white">
                                <use xlink:href="#path-7"></use>
                            </mask>
                            <g id="Clip-18"></g>
                            <path d="M0.551745495,81.5162517 C0.551745495,81.5162517 -0.167727033,53.914593 0.385367473,31.3660233 C0.718123516,17.7562709 2.44185978,5.98712668 2.44185978,3.2418887 C5.68548176,2.0133238 9.58862022,0.39066274 9.58862022,0.39066274 L9.70703341,4.27191274 L22.7699565,10.9805041 L30.8984971,40.9527108 L33.3012356,66.1196315 L31.4111213,68.8230714 L31.4111213,73.0506483 L23.2720884,73.0506483 L22.7909411,68.5887036 L18.4066554,34.6904632 L19.2235565,60.3261195 L22.7729543,81.5162517 L0.551745495,81.5162517 Z" id="Fill-17" fill="#EAEAEA" mask="url(#mask-8)"></path>
                        </g>
                        <mask id="mask-10" fill="white">
                            <use xlink:href="#path-9"></use>
                        </mask>
                        <g id="Clip-21"></g>
                        <polygon id="Fill-20" fill="#C4C4C3" mask="url(#mask-10)" points="51.2489275 101.876841 59.909578 101.876841 59.909578 97.1521659 51.2489275 97.1521659"></polygon>
                        <polygon id="Fill-22" fill="#C4C4C3" mask="url(#mask-10)" points="1.86912967 101.876841 10.5297802 101.876841 10.5297802 97.1521659 1.86912967 97.1521659"></polygon>
                        <polygon id="Fill-23" fill="#C4C4C3" mask="url(#mask-10)" points="34.6063288 27.096499 27.9931771 27.096499 22.7155464 20.4938957 25.1062936 41.3317298 36.9715947 41.3317298 39.0340826 20.2550495"></polygon>
                        <path d="M18.3687332,58.2759238 L21.2691068,68.570193 L23.9101705,61.3809238 L24.3373574,60.9733925 L28.4908123,59.6866089 L29.601498,59.6866089 L30.1261134,60.2090849 C30.1081266,55.4948589 30.072153,45.290157 30.0661574,37.7023132 L21.0712519,40.7685007 L18.3687332,58.2759238 Z M21.8162057,70.984032 L20.5346453,70.93477 L17.0152255,58.2162123 L19.8016826,40.1639214 L20.2498541,39.6324887 L30.5203244,36.1289142 L31.4121705,36.7633493 C31.4166673,46.9426738 31.4826189,62.7871305 31.4826189,62.7871305 L30.8096123,63.4618709 L29.601498,63.4618709 L28.9284914,62.7901161 L28.9284914,61.0286257 L28.5957354,61.0286257 L25.0628255,62.1512026 L21.8162057,70.984032 Z" id="Fill-24" fill="#3C3C3B" mask="url(#mask-10)"></path>
                        <path d="M32.179458,59.687206 L33.4954932,59.7185546 L37.4435987,60.9724969 L37.8707855,61.3815209 L40.5133481,68.5707901 L43.4122229,58.2765209 L40.7097042,40.7690978 L31.7147987,37.7014175 C31.710302,45.2892613 31.6728295,55.4939632 31.6548426,60.209682 L32.179458,59.687206 Z M39.9647503,70.9831363 L36.7181305,62.150307 L33.1852207,61.02773 L32.8524646,61.02773 L32.8524646,62.7907132 L32.179458,63.4609752 L30.9713437,63.4609752 L30.2983371,62.7877276 C30.2983371,62.7877276 30.3642888,46.9432709 30.3687855,36.7639464 L31.2606316,36.1295113 L41.531102,39.631593 L41.9792734,40.1645185 L44.7657305,58.2168094 L44.7492426,58.4989464 L41.2463108,70.9353671 L39.9647503,70.9831363 Z" id="Fill-25" fill="#3C3C3B" mask="url(#mask-10)"></path>
                        <polygon id="Fill-26" fill="#3C3C3B" mask="url(#mask-10)" points="28.8238681 69.3161394 32.9578374 69.3161394 32.9578374 64.7870192 28.8238681 64.7870192"></polygon>
                        <polygon id="Fill-27" fill="#3C3C3B" mask="url(#mask-10)" points="29.5463385 31.9949351 32.235367 31.9949351 32.235367 29.0466779 29.5463385 29.0466779"></polygon>
                        <polygon id="Fill-28" fill="#3C3C3B" mask="url(#mask-10)" points="29.5343473 12.8917212 28.0699209 14.3501755 26.6084923 12.8917212 28.0699209 11.4347596"></polygon>
                        <polygon id="Fill-29" fill="#3C3C3B" mask="url(#mask-10)" points="35.1069618 12.8917212 33.6440343 14.3501755 32.1826057 12.8917212 33.6440343 11.4347596"></polygon>
                        <polygon id="Fill-30" fill="#3C3C3B" mask="url(#mask-10)" points="29.5463385 36.406125 32.235367 36.406125 32.235367 33.4578678 29.5463385 33.4578678"></polygon>
                        <polygon id="Fill-31" fill="#3C3C3B" mask="url(#mask-10)" points="28.6155209 75.5127043 33.1661846 75.5127043 33.1661846 70.5238053 28.6155209 70.5238053"></polygon>
                        <polygon id="Fill-32" fill="#3C3C3B" mask="url(#mask-10)" points="28.6155209 81.8630264 33.1661846 81.8630264 33.1661846 76.8741274 28.6155209 76.8741274"></polygon>
                        <polygon id="Fill-33" fill="#3C3C3B" mask="url(#mask-10)" points="28.6155209 88.2133486 33.1661846 88.2133486 33.1661846 83.2244495 28.6155209 83.2244495"></polygon>
                        <polygon id="Fill-34" fill="#3C3C3B" mask="url(#mask-10)" points="33.1660347 92.9629536 31.418316 93.9138599 28.615371 92.4479416 28.615371 89.5295401 33.1660347 89.5295401"></polygon>
                        <polygon id="Fill-35" fill="#3C3C3B" mask="url(#mask-10)" points="19.3392716 45.8860781 13.9807002 42.8273546 14.1066079 41.6092392 21.2758519 39.2760108 21.6940453 40.552345 15.9652453 42.415345 20.0092804 44.7231959"></polygon>
                        <polygon id="Fill-36" fill="#3C3C3B" mask="url(#mask-10)" points="8.63606857 67.7749846 7.33951912 67.4152226 14.4143323 42.085588 15.7123807 42.44535"></polygon>
                        <polygon id="Fill-37" fill="#3C3C3B" mask="url(#mask-10)" points="6.56338813 94.6072601 5.22037275 94.5191856 6.7942189 70.480813 8.13873319 70.5673947"></polygon>
                        <path d="M5.89292967,97.1526137 C5.97986593,98.2318998 6.14474505,99.317157 5.96038022,100.369573 L5.6561033,103.550705 L5.04605055,109.914462 L5.00408132,109.705472 C5.34283297,110.342893 5.6665956,110.986284 6.01583956,111.614748 C6.24367253,112.308895 6.4834967,112.99707 6.67985275,113.706145 C6.2076989,113.138885 5.77751429,112.550727 5.33683736,111.970032 C5.01607253,111.323655 4.67282418,110.690712 4.34006813,110.051799 L4.2995978,109.842808 L4.90965055,103.479051 L5.21542637,100.297919 C5.23491209,99.2305752 5.60364176,98.19458 5.89292967,97.1526137" id="Fill-38" fill="#3C3C3B" mask="url(#mask-10)"></path>
                        <path d="M5.89292967,97.6541906 C6.13725055,98.0602291 6.3455978,98.4797026 6.56593626,98.8946978 C6.82674505,99.2977507 6.8941956,99.7560368 7.03958901,100.193424 L7.82651209,102.840138 L7.8415011,102.929705 L8.00787912,106.639284 L8.09331648,108.493328 C8.15177363,108.800842 8.05434505,109.114328 7.99888571,109.42632 C7.94042857,109.739806 7.88047253,110.051799 7.80103077,110.365284 C7.69460879,110.060756 7.60767253,109.753241 7.52073626,109.447219 C7.4367978,109.141198 7.31238901,108.838162 7.34386593,108.526169 L7.25992747,106.672126 L7.09354945,102.964039 L7.10853846,103.052114 L6.32011648,100.406893 C6.2032022,99.9605488 6.00834505,99.5395825 6.00684615,99.0589046 C5.96487692,98.5916618 5.91091648,98.1274046 5.89292967,97.6541906" id="Fill-39" fill="#3C3C3B" mask="url(#mask-10)"></path>
                        <path d="M6.53415956,69.0593798 L7.57439692,70.4282668 L8.94888923,69.3922716 L7.90865187,68.0233846 L6.53415956,69.0593798 Z M7.85169363,71.901649 L6.90738593,71.7717764 L5.05474418,69.3340529 L5.18514857,68.3950889 L7.63135516,66.5470168 L8.57566286,66.6768894 L10.4313024,69.1161058 L10.300898,70.0565625 L7.85169363,71.901649 Z" id="Fill-40" fill="#3C3C3B" mask="url(#mask-10)"></path>
                        <path d="M4.67372352,96.0636245 L5.89982462,97.2712904 L7.1109367,96.0472038 L5.8848356,94.8425236 L4.67372352,96.0636245 Z M5.43366637,98.6969034 L3.24826857,96.547288 L3.24227297,95.5993673 L5.39919165,93.4213889 L6.35099385,93.4169106 L8.53639165,95.5650332 L8.54238725,96.5144466 L6.38546857,98.6909322 L5.43366637,98.6969034 Z" id="Fill-41" fill="#3C3C3B" mask="url(#mask-10)"></path>
                        <path d="M56.1456875,97.1526137 C56.4364743,98.19458 56.805204,99.2305752 56.8246897,100.297919 L57.1289666,103.479051 L57.7390193,109.842808 L57.698549,110.051799 C57.365793,110.690712 57.0225446,111.323655 56.7017798,111.970032 C56.2611029,112.550727 55.8309182,113.138885 55.3602633,113.706145 C55.5551204,112.99707 55.7949446,112.308895 56.0227776,111.614748 C56.3720215,110.986284 56.6957842,110.342893 57.0345358,109.705472 L56.9925666,109.914462 L56.3825138,103.550705 L56.0782369,100.369573 C55.8938721,99.317157 56.0587512,98.2318998 56.1456875,97.1526137" id="Fill-42" fill="#3C3C3B" mask="url(#mask-10)"></path>
                        <path d="M56.1456875,97.6541906 C56.1277007,98.1274046 56.0737402,98.5916618 56.031771,99.0589046 C56.0302721,99.5395825 55.8354149,99.9605488 55.7185007,100.406893 L54.9300787,103.052114 L54.9450677,102.964039 L54.7786897,106.672126 L54.6947512,108.526169 C54.7262281,108.838162 54.6018193,109.141198 54.5178809,109.447219 C54.4309446,109.753241 54.3440084,110.060756 54.2375864,110.365284 C54.1581446,110.051799 54.0981886,109.739806 54.0397314,109.42632 C53.9842721,109.114328 53.8883424,108.800842 53.9467996,108.493328 L54.030738,106.639284 L54.197116,102.929705 L54.2121051,102.840138 L54.9990281,100.193424 C55.1444215,99.7560368 55.213371,99.2977507 55.4741798,98.8946978 C55.6930193,98.4797026 55.9013666,98.0602291 56.1456875,97.6541906" id="Fill-43" fill="#3C3C3B" mask="url(#mask-10)"></path>
                        <path d="M54.9263314,96.0491445 L56.1374435,97.2702454 L57.3635446,96.0640724 L56.1539314,94.8414786 L54.9263314,96.0491445 Z M56.6036018,98.6958584 L55.6517996,98.69138 L53.4948809,96.5148945 L53.5008765,95.565481 L55.6877732,93.4158656 L56.6410743,93.4218368 L58.7964941,95.5998151 L58.7889996,96.5477358 L56.6036018,98.6958584 Z" id="Fill-44" fill="#3C3C3B" mask="url(#mask-10)"></path>
                        <polygon id="Fill-45" fill="#3C3C3B" mask="url(#mask-10)" points="23.1728611 132.928483 19.8617886 110.962101 21.1943116 110.762068 24.5053842 132.72845"></polygon>
                        <polygon id="Fill-46" fill="#3C3C3B" mask="url(#mask-10)" points="23.1655165 186.061154 24.5115297 186.061154 24.5115297 137.152925 23.1655165 137.152925"></polygon>
                        <path d="M22.5668554,134.962109 L23.755484,136.205602 L25.0040686,135.020328 L23.81544,133.776835 L22.5668554,134.962109 Z M24.1961609,137.640172 L23.2443587,137.616287 L21.1264114,135.400989 L21.1503938,134.451575 L23.3747631,132.342265 L24.3265653,132.36615 L26.4445125,134.581448 L26.4205301,135.530862 L24.1961609,137.640172 Z" id="Fill-47" fill="#3C3C3B" mask="url(#mask-10)"></path>
                        <polygon id="Fill-48" fill="#3C3C3B" mask="url(#mask-10)" points="38.7107697 132.928483 37.3782466 132.72845 40.6893191 110.762068 42.0218422 110.962101"></polygon>
                        <polygon id="Fill-49" fill="#3C3C3B" mask="url(#mask-10)" points="37.3721011 186.061154 38.7181143 186.061154 38.7181143 137.152925 37.3721011 137.152925"></polygon>
                        <path d="M36.8780633,135.020477 L38.1266479,136.205751 L39.3167754,134.962258 L38.0681908,133.776984 L36.8780633,135.020477 Z M37.685971,137.638828 L35.4631007,135.529518 L35.4391182,134.581597 L37.5570655,132.366299 L38.5088677,132.343907 L40.731738,134.453218 L40.7557204,135.401138 L38.6377732,137.616436 L37.685971,137.638828 Z" id="Fill-50" fill="#3C3C3B" mask="url(#mask-10)"></path>
                        <path d="M22.5668554,188.193751 L23.755484,189.437244 L25.0040686,188.25197 L23.81544,187.00997 L22.5668554,188.193751 Z M24.1961609,190.871814 L23.2443587,190.847929 L21.1264114,188.634124 L21.1503938,187.684711 L23.3747631,185.5754 L24.3265653,185.599285 L26.4445125,187.81309 L26.4205301,188.762504 L24.1961609,190.871814 Z" id="Fill-51" fill="#3C3C3B" mask="url(#mask-10)"></path>
                        <path d="M36.8795622,188.252119 L38.1266479,189.437394 L39.3152765,188.193901 L38.0681908,187.010119 L36.8795622,188.252119 Z M37.685971,190.87047 L35.4631007,188.76116 L35.4391182,187.81324 L37.5570655,185.599434 L38.5088677,185.57555 L40.731738,187.68486 L40.7557204,188.634273 L38.6377732,190.848079 L37.685971,190.87047 Z" id="Fill-52" fill="#3C3C3B" mask="url(#mask-10)"></path>
                        <polygon id="Fill-53" fill="#3C3C3B" mask="url(#mask-10)" points="42.8825112 46.087306 42.2125024 44.9244238 46.2565376 42.6165728 40.5277376 40.7535728 40.945931 39.4772387 48.1151749 41.8104671 48.2410826 43.0285825"></polygon>
                        <polygon id="Fill-54" fill="#3C3C3B" mask="url(#mask-10)" points="53.5855644 67.9762125 46.5092523 42.6465779 47.8073007 42.2868159 54.8821138 67.6164505"></polygon>
                        <polygon id="Fill-55" fill="#3C3C3B" mask="url(#mask-10)" points="55.6582448 94.808488 54.0828998 70.7686226 55.4274141 70.6820409 57.0012602 94.7204135"></polygon>
                        <path d="M53.2722941,69.5929024 L54.6467864,70.6288976 L55.6870237,69.2600106 L54.3125314,68.2240154 L53.2722941,69.5929024 Z M54.3694897,72.1037726 L51.9217842,70.2571933 L51.7913798,69.3167365 L53.6455204,66.879013 L54.5898281,66.7491404 L57.0375336,68.5957197 L57.167938,69.5346837 L55.3137974,71.9739 L54.3694897,72.1037726 Z" id="Fill-56" fill="#3C3C3B" mask="url(#mask-10)"></path>
                        <polygon id="Fill-57" fill="#3C3C3B" mask="url(#mask-10)" points="28.9445297 18.941545 30.8601253 20.8433575 32.7712242 18.9355738 30.8541297 14.749795"></polygon>
                        <path d="M19.895364,109.780111 L21.4841991,110.601145 L27.6102079,105.473417 L30.6529771,104.337405 L31.1266299,104.337405 L34.368753,105.589854 L40.2969068,110.601145 L41.885742,109.780111 L40.2924101,106.291465 L40.2924101,104.019441 L40.460287,103.577575 L43.7159002,99.8844166 L43.7159002,96.4062195 L39.9866343,92.0039863 L35.4344716,92.0039863 L31.2120673,94.2894454 L30.5675398,94.2894454 L26.3466343,92.0039863 L21.7929727,92.0039863 L18.0652057,96.4062195 L18.0652057,99.8844166 L21.3208189,103.577575 L21.4871969,104.019441 L21.4242431,106.57808 L19.895364,109.780111 Z M40.5172453,111.998395 L39.7707925,111.914799 L33.5863266,106.688546 L30.8898035,105.682407 L28.1947793,106.688546 L22.0103134,111.914799 L21.2638607,111.998395 L18.697742,110.674292 L18.3994607,109.790561 L20.1411837,106.140693 L20.1411837,104.273215 L16.8855705,100.580056 L16.7191925,100.138191 L16.7191925,96.1614022 L16.8765771,95.7299863 L20.9640804,90.9023084 L21.4797024,90.6619695 L26.517509,90.6619695 L26.8397727,90.7440728 L30.8898035,92.9369791 L34.9413332,90.7440728 L35.2635969,90.6619695 L40.2999046,90.6619695 L40.8155266,90.9023084 L44.9045288,95.7299863 L45.0619134,96.1614022 L45.0619134,100.138191 L44.8955354,100.580056 L41.6399222,104.273215 L41.6399222,106.140693 L43.3816453,109.790561 L43.083364,110.674292 L40.5172453,111.998395 Z" id="Fill-58" fill="#3C3C3B" mask="url(#mask-10)"></path>
                        <path d="M22.7687574,188.22301 C22.2681244,188.588743 21.7525024,188.875359 21.2383793,189.160481 L19.5955837,189.426198 L16.3099925,189.966587 L13.0259002,190.505484 L11.3831046,190.777171 C10.8000321,190.644313 10.2244541,190.563702 9.63088923,190.384568 C10.13452,190.026299 10.6531398,189.766553 11.1642651,189.453068 L12.8070607,189.182873 L16.091153,188.642484 L19.3752453,188.102094 L21.016542,187.825928 C21.5966167,187.931916 22.1751925,188.037904 22.7687574,188.22301" id="Fill-59" fill="#3C3C3B" mask="url(#mask-10)"></path>
                        <path d="M39.0883429,188.22301 C39.6819077,188.037904 40.2604835,187.931916 40.8405582,187.825928 L42.4833538,188.102094 L45.7674462,188.642484 L49.0500396,189.182873 L50.6928352,189.453068 C51.2039604,189.766553 51.7240791,190.026299 52.226211,190.384568 C51.6341451,190.563702 51.0570681,190.644313 50.4739956,190.777171 L48.8312,190.505484 L45.5471077,189.966587 L42.2630154,189.426198 L40.6187209,189.160481 C40.1045978,188.875359 39.5904747,188.588743 39.0883429,188.22301" id="Fill-60" fill="#3C3C3B" mask="url(#mask-10)"></path>
                        <path d="M28.0281015,21.3250803 L34.2395477,21.3250803 L34.2395477,19.2336837 L34.3534642,18.8589937 L37.2163653,14.6194745 L36.8551301,7.86609952 L31.2432444,4.80439038 L25.2401455,7.778025 L24.5101807,14.1671596 L27.9006949,18.8410803 L28.0281015,19.2336837 L28.0281015,21.3250803 Z M34.9125543,22.6656043 L27.3550949,22.6656043 L26.6820884,21.9953423 L26.6820884,19.450138 L23.2660927,14.7418832 L23.1431829,14.2731476 L23.9420971,7.26450577 L24.3123257,6.73904423 L30.9569543,3.44595288 L31.5804971,3.45789519 L37.8309147,6.86891683 L38.1786598,7.42274135 L38.5728708,14.7702462 L38.4604532,15.1822558 L35.5855609,19.4381957 L35.5855609,21.9953423 L34.9125543,22.6656043 Z" id="Fill-61" fill="#3C3C3B" mask="url(#mask-10)"></path>
                        <path d="M28.0354462,26.7194207 L34.2274066,26.7194207 L34.2274066,25.0370481 L28.0354462,25.0370481 L28.0354462,26.7194207 Z M34.9004132,28.0599447 L27.3624396,28.0599447 L26.689433,27.3896827 L26.689433,24.3667861 L27.3624396,23.6950313 L34.9004132,23.6950313 L35.5734198,24.3667861 L35.5734198,27.3896827 L34.9004132,28.0599447 Z" id="Fill-62" fill="#3C3C3B" mask="url(#mask-10)"></path>
                    </g>
                </g>
            </g>
        </g>
    </g>
</svg>