
<svg width="188px" height="142px" viewBox="0 0 188 142" version="1.1" xmlns="http://www.w3.org/2000/svg" xmlns:xlink="http://www.w3.org/1999/xlink">
    <!-- Generator: Sketch 48.2 (47327) - http://www.bohemiancoding.com/sketch -->
    <desc>Created with Sketch.</desc>
    <defs>
        <path d="M28.8441493,0.315458333 L31.7933133,2.53072917 L31.7933133,5.68648958 L30.8493948,6.4621875 L30.8493948,7.75227083 C30.8493948,7.75227083 31.9281588,9.47905208 30.8493948,10.0216875 L31.2295196,14.3863125 L30.1484307,14.6005417 L30.1484307,18.4237083 L28.3989266,18.5414167 L28.3989266,19.1158333 L33.0127351,17.8151562 L33.9636283,16.7334167 L75.3635208,16.7334167 L75.3635208,15.7646771 L76.0865716,15.7646771 L76.0865716,16.7334167 L77.5489478,16.7334167 L77.5489478,17.4102396 L105.811866,17.4102396 L77.0537393,18.5520104 L77.0537393,17.8728333 L76.0609975,17.8728333 L76.0609975,18.4778542 L76.5864299,18.4484271 L76.8572834,21.3240417 L55.0146378,22.5128958 L55.0146378,25.1554479 L54.8809548,25.1554479 L46.1497089,39.7712917 L41.3487442,41.245 L35.5771244,36.2329792 L33.5939656,44.2159583 L33.6218647,44.2159583 L33.6218647,47.4341042 L33.5986155,47.4341042 L36.2722762,53.5537604 L37.4812358,65.7401042 L37.3394156,65.7401042 L40.8872471,80.9668542 L39.4992684,89.8102812 L39.4992684,104.55325 L38.7983043,105.507865 L39.8480068,106.470719 L39.2563141,107.485365 L46.2287562,110.55049 L46.2287562,112.914073 L31.1516347,112.914073 L31.1516347,109.154469 L32.0792787,107.485365 L31.1516347,106.470719 L32.0792787,105.507865 L31.1516347,104.55325 L31.1516347,89.2017292 L31.4980481,89.2017292 L28.4640245,82.1133333 L25.4764992,67.9859792 L22.428526,89.80675 L22.428526,91.4888021 L22.428526,104.55325 L21.2277036,105.507865 L22.428526,106.470719 L21.2277036,107.485365 L22.428526,109.154469 L22.428526,112.914073 L12.5266817,112.914073 L12.5266817,110.55049 L15.0108612,107.485365 L13.9041982,106.470719 L15.3049639,105.507865 L13.9041982,104.55325 L13.9041982,89.2017292 L13.9297723,89.2017292 L13.9297723,83.1762396 L11.5769509,73.8419687 L12.3778866,65.7401042 L11.8989526,65.7401042 L13.1079123,53.5537604 L15.7862228,47.4223333 L15.7862228,44.3113021 L12.7917228,32.9724583 L5.89484064,30.7301146 L3.92795633,31.0832396 L0.495208463,27.7238437 L1.71928009,21.7407292 L13.2520575,21.7407292 L14.3668577,18.5225833 L20.9440631,18.3660312 L20.5313894,14.2509479 L19.058551,13.3598958 L17.5926875,8.90463542 C17.5589761,8.92346875 17.5368894,8.9340625 17.5368894,8.9340625 L17.4113436,7.54157292 L15.2666027,7.0695625 L15.2666027,4.58120833 C15.2666027,4.58120833 23.222487,0.700364583 23.3910439,0.700364583 C23.5584269,0.700364583 28.8434333,0.315510472 28.8441492,0.315458339 L105.811866,0.315458333 L105.811866,112.914073 L0.495208463,112.914073 L0.495208463,0.315458333 L28.8441493,0.315458333 Z M31.7293779,21.1992708 L33.6241896,20.6954792 L34.0682498,22.0620729 L33.8183207,22.1009167 L34.2077451,22.4928854 L34.2461064,22.6105937 L32.9150883,22.1350521 L32.8069794,21.7407292 L32.2234239,21.7407292 L31.7293779,21.1992708 Z M40.4815481,25.3979271 L40.4815481,24.8399896 L36.7605099,23.5087083 L48.7187481,22.8566042 L48.7187481,25.0330312 L43.2493682,31.2550937 L40.4815481,25.3979271 Z" id="path-1"></path>
        <polygon id="path-3" points="0.903808418 25.858613 11.7439109 25.858613 11.7439109 0.0354968233 0.903808418 0.0354968233"></polygon>
        <polygon id="path-5" points="0.29590424 25.858613 16.7963271 25.858613 16.7963271 0.0354968233 0.29590424 0.0354968233 0.29590424 25.858613"></polygon>
        <polygon id="path-7" points="0 141.04698 187.822796 141.04698 187.822796 0.617080537 0 0.617080537"></polygon>
        <polygon id="path-9" points="0.0954092308 1.99928061 28.7169822 0.749571429 0.0954092308 0.749571429 0.0954092308 1.99928061"></polygon>
    </defs>
    <g id="Page-1" stroke="none" stroke-width="1" fill="none" fill-rule="evenodd">
        <g id="pin_02" transform="translate(94.000000, 71.000000) scale(-1, 1) translate(-94.000000, -71.000000) ">
            <g id="Group-31">
                <path d="M115.203557,140.804128 C133.802252,127.480803 145.946339,105.611703 145.946339,80.8709025 C145.946339,40.2723025 113.274406,7.3582025 72.9721783,7.3582025 C32.6687845,7.3582025 0.000349906472,40.2723025 0.000349906472,80.8709025 C0.000349906472,105.611703 12.1432708,127.480803 30.7407998,140.804128 L115.203557,140.804128 Z" id="Fill-1" fill="#FFB3BF"></path>
                <path d="M49.5044178,140.804128 L84.6816818,140.804128 C102.017215,133.778803 114.261609,116.689603 114.261609,96.7134275 C114.261609,70.4686275 93.1435866,49.1929025 67.0930498,49.1929025 C41.0425129,49.1929025 19.9221583,70.4686275 19.9221583,96.7134275 C19.9221583,116.689603 32.1677184,133.778803 49.5044178,140.804128" id="Fill-3" fill="#F0FF85"></path>
                <path d="M67.0931664,56.72618 C67.0931664,41.03523 79.7166256,28.315855 95.2909626,28.315855 C110.866466,28.315855 123.494591,41.03523 123.494591,56.72618 C123.494591,72.415955 110.866466,85.134155 95.2909626,85.134155 C79.7166256,85.134155 67.0931664,72.415955 67.0931664,56.72618" id="Fill-5" fill="#FF8094"></path>
                <path d="M82.934832,76.9111525 C82.934832,50.6663525 104.050521,29.3894525 130.104557,29.3894525 C156.155094,29.3894525 177.274282,50.6663525 177.274282,76.9111525 C177.274282,103.155953 156.155094,124.428153 130.104557,124.428153 C104.050521,124.428153 82.934832,103.155953 82.934832,76.9111525" id="Fill-7" fill="#FF4A68"></path>
                <path d="M111.664369,92.5865925 C111.664369,71.3978175 128.711813,54.2240175 149.741192,54.2240175 C170.775236,54.2240175 187.822679,71.3978175 187.822679,92.5865925 C187.822679,113.769493 170.775236,130.945643 149.741192,130.945643 C128.711813,130.945643 111.664369,113.769493 111.664369,92.5865925" id="Fill-9" fill="#FF667F"></path>
                <path d="M105.973491,140.804128 L129.660992,140.804128 C138.490299,136.402578 144.563509,127.238753 144.563509,116.643777 C144.563509,101.760052 132.58971,89.6951525 117.817825,89.6951525 C103.043607,89.6951525 91.0686412,101.760052 91.0686412,116.643777 C91.0686412,127.238753 97.1430176,136.402578 105.973491,140.804128" id="Fill-11" fill="#ECFF5C"></path>
                <path d="M108.780907,140.804128 C112.72202,135.432028 115.05473,128.788578 115.05473,121.595228 C115.05473,103.719953 100.677073,89.2357275 82.9344821,89.2357275 C65.1930576,89.2357275 50.8107353,103.719953 50.8107353,121.595228 C50.8107353,128.788578 53.1446114,135.432028 57.0857247,140.804128 L108.780907,140.804128 Z" id="Fill-13" fill="#FFE200"></path>
                <path d="M158.800037,140.804128 C160.292971,137.445978 161.130414,133.727103 161.130414,129.808478 C161.130414,114.923578 149.156615,102.859853 134.38473,102.859853 C119.610512,102.859853 107.63438,114.923578 107.63438,129.808478 C107.63438,133.727103 108.471823,137.445978 109.964757,140.804128 L158.800037,140.804128 Z" id="Fill-15" fill="#FF8094"></path>
                <path d="M67.7081853,29.3891 C67.7081853,13.50075 80.4961005,0.616875 96.2675516,0.616875 C112.043668,0.616875 124.830417,13.50075 124.830417,29.3891 C124.830417,45.2798 112.043668,58.166025 96.2675516,58.166025 C80.4961005,58.166025 67.7081853,45.2798 67.7081853,29.3891" id="Fill-17" fill="#F24763"></path>
                <path d="M8.83058964,26.55594 C8.83058964,24.096665 10.8110603,22.108565 13.2499084,22.108565 C15.6875901,22.108565 17.6680608,24.096665 17.6680608,26.55594 C17.6680608,29.015215 15.6875901,31.005665 13.2499084,31.005665 C10.8110603,31.005665 8.83058964,29.015215 8.83058964,26.55594" id="Fill-19" fill="#FFCCD4"></path>
                <path d="M28.5495689,29.2949825 C28.5495689,26.8380575 30.5288732,24.8452575 32.9688876,24.8452575 C35.4077357,24.8452575 37.3835409,26.8380575 37.3835409,29.2949825 C37.3835409,31.7554325 35.4077357,33.7470575 32.9688876,33.7470575 C30.5288732,33.7470575 28.5495689,31.7554325 28.5495689,29.2949825" id="Fill-21" fill="#FFCCD4"></path>
                <path d="M17.6677109,24.84514 C17.6677109,22.75364 19.3530937,21.058115 21.4257064,21.058115 C23.5029845,21.058115 25.1848682,22.75364 25.1848682,24.84514 C25.1848682,26.937815 23.5029845,28.63334 21.4257064,28.63334 C19.3530937,28.63334 17.6677109,26.937815 17.6677109,24.84514" id="Fill-23" fill="#FF4A68"></path>
                <path d="M28.529041,75.4905775 C28.529041,73.0301275 30.5048462,71.0396775 32.9471934,71.0396775 C35.3883742,71.0396775 37.3630131,73.0301275 37.3630131,75.4905775 C37.3630131,77.9498525 35.3883742,79.9403025 32.9471934,79.9403025 C30.5048462,79.9403025 28.529041,77.9498525 28.529041,75.4905775" id="Fill-25" fill="#FFE200"></path>
                <path d="M32.94766,78.42467 C32.94766,76.80552 34.2516447,75.490695 35.8612145,75.490695 C37.4696179,75.490695 38.7724364,76.80552 38.7724364,78.42467 C38.7724364,80.04382 37.4696179,81.358645 35.8612145,81.358645 C34.2516447,81.358645 32.94766,80.04382 32.94766,78.42467" id="Fill-27" fill="#FFE200"></path>
                <path d="M178.182756,140.804128 C179.16716,138.444728 179.713014,135.852678 179.713014,133.133728 C179.713014,122.186253 170.907034,113.316178 160.037773,113.316178 C149.173177,113.316178 140.368364,122.186253 140.368364,133.133728 C140.368364,135.852678 140.914218,138.444728 141.898621,140.804128 L178.182756,140.804128 Z" id="Fill-29" fill="#ECFF5C"></path>
            </g>
            <g id="Group-34" transform="translate(54.000000, 27.000000)">
                <mask id="mask-2" fill="white">
                    <use xlink:href="#path-1"></use>
                </mask>
                <g id="Clip-33"></g>
                <path d="M23.3910439,0.700364583 C23.222487,0.700364583 15.2666027,4.58120833 15.2666027,4.58120833 L15.2666027,7.0695625 L17.4113436,7.54157292 L17.5368894,8.9340625 C17.5368894,8.9340625 17.5589761,8.92346875 17.5926875,8.90463542 L19.058551,13.3598958 L20.5313894,14.2509479 L20.9440631,18.3660312 L14.3668577,18.5225833 L13.2520575,21.7407292 L1.71928009,21.7407292 L0.495208463,27.7238437 L3.92795633,31.0832396 L5.89484064,30.7301146 L12.7917228,32.9724583 L15.7862228,44.3113021 L15.7862228,47.4223333 L13.1079123,53.5537604 L11.8989526,65.7401042 L12.3778866,65.7401042 L11.5769509,73.8419687 L13.9297723,83.1762396 L13.9297723,89.2017292 L13.9041982,89.2017292 L13.9041982,104.55325 L15.3049639,105.507865 L13.9041982,106.470719 L15.0108612,107.485365 L12.5266817,110.55049 L12.5266817,112.914073 L22.428526,112.914073 L22.428526,109.154469 L21.2277036,107.485365 L22.428526,106.470719 L21.2277036,105.507865 L22.428526,104.55325 L22.428526,91.4888021 L22.428526,89.80675 L25.4764992,67.9859792 L28.4640245,82.1133333 L31.4980481,89.2017292 L31.1516347,89.2017292 L31.1516347,104.55325 L32.0792787,105.507865 L31.1516347,106.470719 L32.0792787,107.485365 L31.1516347,109.154469 L31.1516347,112.914073 L46.2287562,112.914073 L46.2287562,110.55049 L39.2563141,107.485365 L39.8480068,106.470719 L38.7983043,105.507865 L39.4992684,104.55325 L39.4992684,89.8102812 L40.8872471,80.9668542 L37.3394156,65.7401042 L37.4812358,65.7401042 L36.2722762,53.5537604 L33.5986155,47.4341042 L33.6218647,47.4341042 L33.6218647,44.2159583 L33.5939656,44.2159583 L35.5771244,36.2329792 L41.3487442,41.245 L46.1497089,39.7712917 L54.8809548,25.1554479 L55.0146378,25.1554479 L55.0146378,22.5128958 L76.8572834,21.3240417 L76.5864299,18.4484271 L76.0609975,18.4778542 L76.0609975,17.8728333 L77.0537393,17.8728333 L77.0537393,18.5520104 L105.811866,17.4102396 L77.5489478,17.4102396 L77.5489478,16.7334167 L76.0865716,16.7334167 L76.0865716,15.7646771 L75.3635208,15.7646771 L75.3635208,16.7334167 L33.9636283,16.7334167 L33.0127351,17.8151562 L28.3989266,19.1158333 L28.3989266,18.5414167 L30.1484307,18.4237083 L30.1484307,14.6005417 L31.2295196,14.3863125 L30.8493948,10.0216875 C31.9281588,9.47905208 30.8493948,7.75227083 30.8493948,7.75227083 L30.8493948,6.4621875 L31.7933133,5.68648958 L31.7933133,2.53072917 L28.8441493,0.315458333 C28.8441493,0.315458333 23.5584383,0.700364583 23.3910439,0.700364583 Z M31.7293779,21.1992708 L33.6241896,20.6954792 L34.0682498,22.0620729 L33.8183207,22.1009167 L34.2077451,22.4928854 L34.2461064,22.6105937 L32.9150883,22.1350521 L32.8069794,21.7407292 L32.2234239,21.7407292 L31.7293779,21.1992708 Z M40.4815481,25.3979271 L40.4815481,24.8399896 L36.7605099,23.5087083 L48.7187481,22.8566042 L48.7187481,25.0330312 L43.2493682,31.2550937 L40.4815481,25.3979271 Z" id="Fill-32" mask="url(#mask-2)"></path>
            </g>
            <g id="Group-100">
                <path d="M49.9030779,72.6978467 C49.9030779,71.6047326 50.7988384,70.7149612 51.908042,70.7149612 C53.0125801,70.7149612 53.9083406,71.6047326 53.9083406,72.6978467 C53.9083406,73.7944869 53.0125801,74.6842583 51.908042,74.6842583 C50.7988384,74.6842583 49.9030779,73.7944869 49.9030779,72.6978467 Z" id="Fill-35" fill="#E94C6A"></path>
                <path d="M51.9076921,72.6978467 C51.9076921,71.6047326 52.8034526,70.7149612 53.9091571,70.7149612 C55.0160279,70.7149612 55.9129548,71.6047326 55.9129548,72.6978467 C55.9129548,73.7944869 55.0160279,74.6842583 53.9091571,74.6842583 C52.8034526,74.6842583 51.9076921,73.7944869 51.9076921,72.6978467" id="Fill-37" fill="#EB6580"></path>
                <path d="M59.3033153,45.8153502 C59.3033153,44.5282965 60.3553674,43.4857242 61.6570195,43.4857242 C62.9551725,43.4857242 64.0083909,44.5282965 64.0083909,45.8153502 C64.0083909,47.1047546 62.9551725,48.1461515 61.6570195,48.1461515 C60.3553674,48.1461515 59.3033153,47.1047546 59.3033153,45.8153502" id="Fill-39" fill="#E4E255"></path>
                <path d="M61.6565529,47.3522921 C61.6565529,46.5048348 62.3493677,45.81488 63.2078049,45.81488 C64.0650758,45.81488 64.759057,46.5048348 64.759057,47.3522921 C64.759057,48.2021001 64.0650758,48.8897042 63.2078049,48.8897042 C62.3493677,48.8897042 61.6565529,48.2021001 61.6565529,47.3522921" id="Fill-41" fill="#E4E255"></path>
                <polygon id="Fill-43" fill="#333333" points="50.8874814 88.696453 45.0510415 89.7989702 44.1879388 98.4921657 46.7644168 108.659302 47.1388167 115.583534 56.0660972 115.885609 59.765775 89.5051223 59.8462535 88.696453"></polygon>
                <polygon id="Fill-45" fill="#575756" points="53.6779855 108.217825 53.6779855 115.833187 46.7638336 115.585179 46.7638336 108.659772 50.6454628 103.061383"></polygon>
                <polygon id="Fill-47" fill="#3D3D3D" points="50.7798269 103.16611 53.6782188 88.6958653 45.1591626 88.6958653 44.1864226 98.491578 46.7640669 108.65989"></polygon>
                <polygon id="Fill-49" fill="#3D3D3D" points="66.4649677 88.696453 72.3958824 89.7989702 73.9856241 98.4921657 76.2646816 106.250925 73.962297 115.583534 67.1309563 115.885609 62.6708151 107.499191 58.8463374 89.5051223 58.697044 88.696453"></polygon>
                <polygon id="Fill-51" fill="#333333" points="76.264215 106.250455 74.74912 115.885139 66.2498918 115.833422 62.6703486 107.498721 65.9676339 103.061618"></polygon>
                <polygon id="Fill-53" fill="#333333" points="65.9689169 103.061735 63.3411193 88.694925 71.904497 88.694925 72.3337156 89.4671572 76.2643317 106.250572"></polygon>
                <g id="Group-57" transform="translate(44.321486, 115.188367)">
                    <mask id="mask-4" fill="white">
                        <use xlink:href="#path-3"></use>
                    </mask>
                    <g id="Clip-56"></g>
                    <polygon id="Fill-55" fill="#000000" mask="url(#mask-4)" points="2.41540438 16.7542655 2.41540438 0.0354968233 11.7439109 0.0354968233 11.7439109 2.52497602 11.7439109 16.7542655 10.4259299 17.794487 11.7439109 18.8417608 10.4259299 19.9489796 11.7439109 21.7649595 11.7439109 25.8588481 0.903808418 25.8588481 0.903808418 23.2870915 3.62374806 19.9489796 2.41540438 18.8417608 3.94449566 17.794487"></polygon>
                </g>
                <g id="Group-60" transform="translate(65.315875, 115.188367)">
                    <mask id="mask-6" fill="white">
                        <use xlink:href="#path-5"></use>
                    </mask>
                    <g id="Clip-59"></g>
                    <polygon id="Fill-58" fill="#000000" mask="url(#mask-6)" points="9.43312858 16.7542655 9.43312858 0.0354968233 0.29590424 0.0354968233 0.29590424 16.7542655 1.31179936 17.794487 0.29590424 18.8417608 1.31179936 19.9489796 0.29590424 21.7649595 0.29590424 25.8588481 16.7963271 25.8588481 16.7963271 23.2870915 9.1637006 19.9489796 9.81219393 18.8417608 8.66216799 17.794487"></polygon>
                </g>
                <polygon id="Fill-61" fill="#DCDCDC" points="53.9576774 33.2900257 54.8126156 41.8127895 62.5980346 42.1994933 62.5980346 36.4976691"></polygon>
                <polygon id="Fill-63" fill="#DCDCDC" points="50.7086792 27.5726864 51.6219351 24.2639593 57.4840349 21.299622 64.8705605 24.2639593 65.6928407 33.7317379 64.5124895 33.96329 64.5124895 38.1300528 61.8147106 38.3145893 52.3754004 32.6104144"></polygon>
                <path d="M57.8155129,25.103659 C57.8155129,25.103659 59.7353331,28.478208 63.5119903,29.0800085 C67.2874811,29.6841597 65.2766853,26.5070765 65.2766853,26.5070765 L62.7515269,25.103659 L57.8155129,25.103659 Z" id="Fill-65" fill="#1D1D1B"></path>
                <path d="M51.269346,26.4270323 L48.2239934,25.7641115 L48.2239934,23.0489571 C48.2239934,23.0489571 56.9331654,18.8269509 57.1162832,18.8269509 C57.2970682,18.8269509 63.0833549,18.4038099 63.0833549,18.4038099 L66.3118253,20.8180641 L66.3118253,24.2560842 L64.5482966,25.7041665 L57.8160961,24.1326681 L51.269346,26.4270323 Z" id="Fill-67" fill="#575756"></path>
                <path d="M50.4768079,25.220728 L50.7100788,27.7913092 C50.7100788,27.7913092 55.1667209,25.5228036 57.9974643,25.5228036 C60.8305404,25.5228036 65.2766853,26.5077817 65.2766853,26.5077817 L65.2766853,23.8831325 C65.2766853,23.8831325 62.3549662,22.6619007 58.394025,22.6619007 C54.4342501,22.6619007 50.4768079,25.220728 50.4768079,25.220728" id="Fill-69" fill="#3C3C3B"></path>
                <path d="M59.7293847,89.6675614 C59.7293847,89.6675614 58.5385363,45.2036764 58.5385363,40.6349297 C56.4962489,39.8650482 54.0340737,38.84951 54.0340737,38.84951 L53.9617597,41.2790442 L41.0980314,42.1993757 L33.3977563,42.2557945 L35.8506007,50.846731 L45.5173502,53.9767986 L49.240355,68.0074469 L48.7948074,69.71294 L45.8614249,76.3926898 L44.5411111,89.6675614 L59.7293847,89.6675614 Z" id="Fill-71" fill="#676767"></path>
                <path d="M58.5393528,89.6675614 L58.5393528,40.6349297 C60.5816402,39.8650482 63.0403164,38.84951 63.0403164,38.84951 L63.1149631,41.2790442 L75.6474466,45.3670558 L80.7444175,56.0866263 L76.76948,62.9873498 L70.4525018,57.5288317 L67.8375341,68.0074469 L68.2830817,69.71294 L71.2141316,76.3926898 L72.5379444,89.6675614 L58.5393528,89.6675614 Z" id="Fill-73" fill="#575756"></path>
                <polygon id="Fill-75" fill="#A5A4A4" points="59.8085802 44.226691 59.8085802 61.9057545 58.5384197 62.642725 57.2682592 61.9057545 57.2682592 44.226691"></polygon>
                <polygon id="Fill-77" fill="#F5F5F5" points="59.4318476 56.0861562 58.5395861 56.9688752 57.6473246 56.0861562 58.5395861 55.2034371"></polygon>
                <polygon id="Fill-79" fill="#F5F5F5" points="59.4318476 50.4881191 58.5395861 51.3731889 57.6473246 50.4881191 58.5395861 49.6018739"></polygon>
                <polygon id="Fill-81" fill="#F5F5F5" points="59.189479 43.2119755 58.538653 43.8584409 57.8866606 43.2119755 58.538653 42.5690364"></polygon>
                <polygon id="Fill-83" fill="#F5F5F5" points="59.189479 41.5556138 58.538653 42.1997284 57.8866606 41.5556138 58.538653 40.9103239"></polygon>
                <polygon id="Fill-85" fill="#282828" points="48.7944575 66.2216746 68.3110742 66.2216746 68.3110742 69.7290428 48.7944575 69.7137627"></polygon>
                <polygon id="Fill-87" fill="#3C3C3B" points="64.1828776 43.422018 75.8196005 47.5629222 75.8196005 45.1169325 64.1828776 40.9795545"></polygon>
                <mask id="mask-8" fill="white">
                    <use xlink:href="#path-7"></use>
                </mask>
                <g id="Clip-90"></g>
                <polygon id="Fill-89" fill="#6F6F6E" mask="url(#mask-8)" points="62.6297594 53.5837477 70.8129055 53.5837477 70.8129055 51.5938098 62.6297594 51.5938098"></polygon>
                <polygon id="Fill-91" fill="#F5F5F5" mask="url(#mask-8)" points="67.6133607 53.625239 66.7117684 54.5009056 65.8276713 53.6076081 66.73043 52.7319414"></polygon>
                <polygon id="Fill-92" fill="#868686" mask="url(#mask-8)" points="46.4127608 53.5837477 54.5970732 53.5837477 54.5970732 51.5938098 46.4127608 51.5938098"></polygon>
                <polygon id="Fill-93" fill="#F5F5F5" mask="url(#mask-8)" points="51.3988114 53.625239 50.4948864 54.5009056 49.613122 53.6076081 50.513548 52.7319414"></polygon>
                <polygon id="Fill-94" fill="#F5F5F5" mask="url(#mask-8)" points="55.7992352 65.6741772 55.7992352 66.2042788 60.8390548 66.2042788 60.8390548 69.7457334 55.7992352 69.7457334 55.7992352 70.2793611 61.3079294 70.2793611 61.3079294 65.6741772"></polygon>
                <path d="M68.318189,40.6017836 L69.0203346,42.7609778 L67.6953554,42.7362946 L66.2432436,41.1518668 L68.318189,40.6017836 Z M47.2421558,38.2357205 L45.0575731,44.5158373 L45.8227019,45.9251317 L65.4279615,41.4433639 L67.3967686,43.4109693 L69.0833178,43.4591604 L78.4911365,41.5221152 L83.5892738,41.761895 L90.5279191,40.5065769 L114.762441,39.0396883 L114.762441,37.531661 L115.847151,37.531661 L115.847151,38.2651053 L147.321239,37.0274181 L116.389506,37.0274181 L116.389506,36.2892722 L114.788101,36.2892722 L114.788101,35.234946 L113.997313,35.234946 L113.997313,36.2892722 L68.6855908,36.2892722 L67.6428695,37.4693653 L62.1516706,39.0103035 L57.0500342,38.0041684 L47.2421558,38.2357205 Z" id="Fill-95" fill="#2B2B2B" mask="url(#mask-8)"></path>
                <polygon id="Fill-96" fill="#D9D9D9" mask="url(#mask-8)" points="67.4245278 41.7415608 50.401578 41.7415608 55.4227358 45.5345491 58.1776661 45.5345491 58.6103838 46.1739621 63.7085211 46.1739621 64.8562143 43.3683026 67.6904568 42.730065"></polygon>
                <polygon id="Fill-97" fill="#D9D9D9" mask="url(#mask-8)" points="86.3846766 43.5597739 88.2753379 40.2369421 97.6574967 39.6774557 96.2380428 41.6121502 91.6297746 42.5219032 90.9252962 43.5597739"></polygon>
                <polygon id="Fill-98" fill="#575756" mask="url(#mask-8)" points="84.9344309 45.217311 91.7261155 45.217311 82.0267081 61.3812949 76.7687802 62.9868796 73.5053191 58.1524944"></polygon>
                <polygon id="Fill-99" fill="#3C3C3B" mask="url(#mask-8)" points="84.8371569 45.4582662 91.725649 45.4582662 91.725649 42.3998975 84.8371569 42.3998975"></polygon>
            </g>
            <g id="Group-106" transform="translate(67.000000, 36.000000)">
                <g id="Group-103" transform="translate(46.550000, 0.000000)">
                    <mask id="mask-10" fill="white">
                        <use xlink:href="#path-9"></use>
                    </mask>
                    <g id="Clip-102"></g>
                    <path d="M0.0954092308,2.10342857 L31.1034092,0.749571429" id="Stroke-101" stroke="#ECECEC" stroke-width="0.5" mask="url(#mask-10)"></path>
                </g>
                <polygon id="Fill-104" fill="#1D1D1B" points="46.1415877 1.8837 22.1033723 3.35327143 15.1429415 4.53098571 9.68146462 4.53098571 0.0306338462 6.23327143 1.62195692 8.00498571 46.4350646 5.3037"></polygon>
            </g>
        </g>
    </g>
</svg>