
<svg width="159px" height="183px" viewBox="0 0 159 183" version="1.1" xmlns="http://www.w3.org/2000/svg" xmlns:xlink="http://www.w3.org/1999/xlink">
    <g id="Page-1" stroke="none" stroke-width="1" fill="none" fill-rule="evenodd">
        <g id="pin_05" fill-rule="nonzero">
            <g id="Group" transform="translate(70.000000, 0.000000)">
                <path d="M6.48214286,13.4266667 C6.48214286,13.4266667 11.240625,19.76 14.2459821,18.4933333 C17.5017857,17.2266667 16.7504464,9.37333333 16.7504464,9.37333333 L24.2638393,17.2266667 L23.0116071,24.0666667 L19.5053571,29.64 L13.9955357,30.1466667 L10.9901786,28.88 L6.48214286,13.4266667 Z" id="Shape" fill="#FF2C58"></path>
                <path d="M11.4910714,38 C11.4910714,38 16.5,36.7333333 21.759375,34.4533333 C27.01875,32.4266667 29.7736607,30.9066667 29.7736607,30.9066667 L19.0044643,28.3733333 L11.4910714,38 Z" id="Shape" fill="#FF2C58"></path>
                <path d="M0.972321429,28.6266667 C-2.784375,22.5466667 6.73258929,13.4266667 6.73258929,13.4266667 C6.73258929,13.4266667 11.240625,29.64 18.0026786,27.1066667 C24.5142857,24.5733333 17.0008929,9.37333333 17.0008929,9.37333333 C17.0008929,9.37333333 30.2745536,9.37333333 31.5267857,16.72 C32.5285714,22.04 32.0276786,27.1066667 30.0241071,31.16 C26.5178571,30.6533333 23.7629464,31.16 20.2566964,32.68 C16.5,34.2 13.7450893,35.9733333 11.7415179,38 C7.23348214,36.2266667 3.47678571,32.68 0.972321429,28.6266667 Z" id="Shape" fill="#9B9B9B"></path>
                <ellipse id="Oval" stroke="#DADADA" stroke-width="0.5" fill="#FF4969" transform="translate(10.540176, 8.399419) rotate(-21.248132) translate(-10.540176, -8.399419) " cx="10.5401764" cy="8.39941867" rx="2.00352911" ry="3.29326378"></ellipse>
                <polygon id="Shape" fill="#7C7A7A" points="9.23705357 2.02666667 9.23705357 4.56 7.48392857 2.78666667 7.48392857 0.253333333"></polygon>
                <polygon id="Shape" fill="#7C7A7A" points="6.73258929 4.05333333 9.23705357 4.05333333 7.23348214 5.57333333 4.97946429 5.57333333"></polygon>
                <polygon id="Shape" fill="#7C7A7A" points="10.7397321 2.53333333 12.99375 2.53333333 11.240625 4.05333333 8.73616071 4.05333333"></polygon>
                <ellipse id="Oval" fill="#7C7A7A" transform="translate(15.266000, 20.789040) rotate(-21.248132) translate(-15.266000, -20.789040) " cx="15.2660004" cy="20.78904" rx="2.75485253" ry="10.3864473"></ellipse>
            </g>
            <path d="M30,59 C30,59 31.6153846,58.4736842 33.2307692,56.8947368 C35.0769231,55.3157895 36,54 36,54 L31.8461538,54.2631579 L30,59 Z" id="Shape" fill="#FF4969"></path>
            <g id="Group" transform="translate(16.000000, 48.000000)" fill="#000000">
                <path d="M127.880597,55.2829457 C127.880597,55.2829457 132.447761,51.4748062 133.716418,49.9515504 C135.238806,48.4282946 139.80597,42.8430233 139.80597,42.8430233 L124.835821,47.4127907 C124.835821,47.4127907 129.656716,42.8430233 131.179104,41.0658915 C132.955224,39.0348837 137.776119,32.1802326 137.776119,32.1802326 L124.835821,39.0348837 C124.835821,39.0348837 128.895522,33.1957364 130.164179,31.1647287 C131.432836,28.879845 134.985075,21.5174419 134.985075,21.5174419 L124.328358,30.9108527 C124.328358,30.9108527 126.358209,27.6104651 127.626866,24.0562016 C129.402985,19.4864341 130.164179,14.1550388 130.164179,14.1550388 L121.029851,22.5329457 C121.029851,22.5329457 122.298507,16.9476744 122.552239,15.1705426 C123.313433,10.8546512 123.567164,5.77713178 123.567164,5.77713178 L116.716418,16.1860465 C116.716418,16.1860465 116.970149,12.377907 116.970149,8.56976744 C116.970149,4.76162791 114.940299,0.445736434 114.940299,0.445736434 C114.940299,0.445736434 111.134328,11.1085271 109.358209,14.6627907 C106.820896,19.2325581 96.9253731,26.3410853 96.9253731,31.6724806 C97.1791045,37.003876 99.9701493,40.0503876 99.9701493,40.0503876 C99.9701493,40.0503876 94.1343284,46.6511628 87.5373134,42.8430233 C80.9402985,39.0348837 84.4925373,29.3875969 84.4925373,29.3875969 C84.4925373,29.3875969 82.9701493,28.625969 82.2089552,27.3565891 C81.4477612,25.8333333 81.1940299,22.7868217 81.1940299,22.7868217 L84.238806,23.8023256 C84.238806,23.8023256 82.9701493,21.0096899 85.5074627,17.7093023 C88.0447761,14.4089147 92.6119403,14.1550388 92.6119403,14.1550388 C92.6119403,14.1550388 93.3731343,12.377907 94.8955224,10.6007752 C96.1641791,8.82364341 97.9402985,7.3003876 97.9402985,7.3003876 C97.9402985,7.3003876 94.1343284,4.76162791 90.5820896,4.76162791 C86.7761194,4.76162791 77.3880597,5.26937984 77.3880597,5.26937984 L79.9253731,9.33139535 C79.9253731,9.33139535 75.358209,11.3624031 73.5820896,17.2015504 C72.0597015,21.5174419 71.0447761,24.3100775 70.7910448,25.3255814 C70.2835821,24.3100775 69.2686567,21.5174419 68,17.2015504 C66.2238806,11.3624031 61.6567164,9.33139535 61.6567164,9.33139535 L64.1940299,5.26937984 C64.1940299,5.26937984 54.8059701,4.76162791 51,4.76162791 C47.1940299,4.76162791 44.4029851,7.3003876 44.4029851,7.3003876 C44.4029851,7.3003876 45.9253731,8.31589147 47.1940299,10.3468992 C48.4626866,12.377907 48.9701493,14.1550388 48.9701493,14.1550388 C48.9701493,14.1550388 53.7910448,14.4089147 56.3283582,17.7093023 C58.8656716,21.0096899 57.8507463,23.8023256 57.8507463,23.8023256 L60.1343284,22.7868217 C60.1343284,22.7868217 59.6268657,25.8333333 58.8656716,27.1027132 C58.1044776,28.372093 56.5820896,29.1337209 56.5820896,29.1337209 C56.5820896,29.1337209 60.1343284,38.7810078 53.5373134,42.5891473 C46.9402985,46.3972868 40.5970149,39.7965116 40.5970149,39.7965116 C40.5970149,39.7965116 43.641791,36.75 43.641791,31.4186047 C43.8955224,26.0872093 33.7462687,19.2325581 31.2089552,14.4089147 C29.4328358,11.1085271 25.6268657,0.191860465 25.6268657,0.191860465 C25.6268657,0.191860465 23.5970149,2.98449612 23.5970149,8.31589147 C23.5970149,12.377907 23.8507463,15.9321705 23.8507463,15.9321705 L17.2537313,5.52325581 C17.2537313,5.52325581 17.2537313,10.6007752 18.2686567,14.9166667 C19.5373134,20.755814 19.7910448,22.2790698 19.7910448,22.2790698 L10.6567164,13.9011628 C10.6567164,13.9011628 11.1641791,19.2325581 13.1940299,23.8023256 C15.4776119,28.625969 16.4925373,30.6569767 16.4925373,30.6569767 L5.58208955,21.7713178 C5.58208955,21.7713178 9.13432836,29.1337209 10.4029851,31.4186047 C11.6716418,33.4496124 15.7313433,39.2887597 15.7313433,39.2887597 L2.79104478,32.4341085 C2.79104478,32.4341085 7.6119403,39.2887597 9.3880597,41.3197674 C10.9104478,43.0968992 15.7313433,47.6666667 15.7313433,47.6666667 L0.76119403,43.0968992 C0.76119403,43.0968992 5.07462687,48.4282946 6.85074627,50.2054264 C8.11940299,51.7286822 12.6865672,55.5368217 12.6865672,55.5368217 L1.01492537,52.998062 C1.01492537,52.998062 4.56716418,56.8062016 8.62686567,59.0910853 C12.6865672,61.375969 14.9701493,62.1375969 14.9701493,62.1375969 L3.55223881,66.1996124 C3.55223881,66.1996124 6.85074627,67.2151163 11.1641791,67.9767442 C15.2238806,68.4844961 18.0149254,67.9767442 18.0149254,67.9767442 L9.13432836,74.8313953 C9.13432836,74.8313953 13.1940299,75.3391473 18.7761194,73.8158915 C23.3432836,72.5465116 25.3731343,70.7693798 25.3731343,70.7693798 L18.0149254,81.9399225 C18.0149254,81.9399225 23.8507463,80.1627907 25.6268657,79.4011628 C26.8955224,78.8934109 30.1940299,76.6085271 30.1940299,76.6085271 L25.880597,87.7790698 C25.880597,87.7790698 31.4626866,82.1937984 32.9850746,79.9089147 C34.2537313,78.3856589 37.0447761,73.3081395 37.0447761,73.3081395 L34.761194,82.9554264 L43.1343284,73.3081395 L43.3880597,80.6705426 L49.4776119,72.8003876 L54.5522388,76.1007752 L55.0597015,72.8003876 C55.0597015,72.8003876 58.358209,76.3546512 58.358209,78.3856589 C58.358209,80.1627907 52.5223881,79.1472868 48.7164179,79.4011628 C44.9104478,79.6550388 44.9104478,90.0639535 44.9104478,90.0639535 L47.4477612,95.1414729 C47.4477612,95.1414729 50.7462687,96.1569767 53.5373134,95.1414729 C55.5671642,94.125969 60.1343284,89.3023256 59.3731343,87.0174419 C58.358209,84.2248062 65.9701493,83.2093023 66.9850746,88.7945736 C68.5074627,98.6957364 63.4328358,99.7112403 56.8358209,101.996124 C50.238806,104.281008 44.6567164,103.011628 43.1343284,108.089147 C41.6119403,112.912791 50.238806,120.52907 50.238806,120.52907 L51.761194,114.182171 L46.4328358,110.374031 L67.4925373,100.472868 C67.4925373,100.472868 49.4776119,117.99031 54.5522388,122.813953 C59.119403,127.129845 60.3880597,121.544574 60.3880597,121.544574 L57.3432836,120.782946 L66.7313433,112.658915 L63.6865672,125.860465 L70.0298507,134.238372 L70.0298507,134.492248 L76.6268657,125.860465 L73.5820896,112.658915 L82.9701493,120.782946 L79.9253731,121.544574 C79.9253731,121.544574 81.1940299,127.129845 85.761194,122.813953 C90.8358209,117.99031 72.8208955,100.472868 72.8208955,100.472868 L93.880597,110.374031 L88.5522388,114.182171 L90.0746269,120.52907 C90.0746269,120.52907 98.7014925,113.166667 97.1791045,108.089147 C95.6567164,103.265504 90.3283582,104.281008 83.4776119,101.996124 C76.880597,99.7112403 71.5522388,98.6957364 73.3283582,88.7945736 C74.3432836,83.2093023 81.9552239,84.4786822 81.1940299,86.5096899 C80.4328358,88.7945736 85,93.6182171 87.0298507,94.6337209 C89.8208955,95.9031008 92.8656716,94.8875969 92.8656716,94.8875969 L94.641791,89.5562016 C94.641791,89.5562016 95.6567164,79.1472868 91.8507463,78.8934109 C88.0447761,78.6395349 82.2089552,79.6550388 82.2089552,77.877907 C82.2089552,76.1007752 85.5074627,72.2926357 85.5074627,72.2926357 L86.0149254,75.5930233 L91.0895522,72.2926357 L97.1791045,80.1627907 L97.4328358,72.8003876 L105.80597,82.4476744 L103.522388,72.8003876 C103.522388,72.8003876 106.313433,77.877907 107.58209,79.4011628 C109.104478,81.4321705 114.686567,87.2713178 114.686567,87.2713178 L110.373134,76.1007752 C110.373134,76.1007752 112.149254,77.624031 114.940299,78.8934109 C118.746269,80.4166667 122.552239,81.4321705 122.552239,81.4321705 L115.19403,70.2616279 C115.19403,70.2616279 117.223881,71.7848837 121.791045,73.3081395 C126.358209,74.5775194 131.432836,74.3236434 131.432836,74.3236434 L122.552239,67.4689922 C122.552239,67.4689922 125.597015,67.7228682 129.402985,67.4689922 C134.223881,67.4689922 137.014925,65.6918605 137.014925,65.6918605 L125.597015,61.629845 C125.597015,61.629845 130.41791,59.3449612 131.940299,58.5833333 C133.970149,57.3139535 139.552239,52.4903101 139.552239,52.4903101 L127.880597,55.2829457 Z" id="Shape"></path>
                <path d="M60.3880597,121.544574 C60.641791,121.290698 60.641791,121.290698 60.3880597,121.544574 C60.641791,121.290698 60.641791,121.290698 60.3880597,121.544574 Z" id="Shape"></path>
            </g>
            <path d="M71.7321429,66.3608696 C71.7321429,66.3608696 69.8571429,65.5086957 67.4464286,65.5086957 C64.7678571,65.7217391 63.1607143,65.9347826 61.0178571,65.7217391 C58.875,65.5086957 58.6071429,64.0173913 58.6071429,64.0173913 C58.6071429,64.0173913 57,63.8043478 57,64.8695652 C57,65.9347826 57.8035714,66.573913 60.2142857,66.7869565 C62.625,67 66.6428571,66.1478261 68.25,66.1478261 C69.8571429,66.1478261 72,67 72,67 L71.7321429,66.3608696 Z" id="Shape" fill="#FF0080"></path>
            <path d="M101.267857,66.3608696 C101.267857,66.3608696 103.142857,65.5086957 105.553571,65.5086957 C108.232143,65.7217391 109.839286,65.9347826 111.982143,65.7217391 C114.125,65.5086957 114.392857,64.0173913 114.392857,64.0173913 C114.392857,64.0173913 116,63.8043478 116,64.8695652 C116,65.9347826 115.196429,66.573913 112.785714,66.7869565 C110.375,67 106.357143,66.1478261 104.75,66.1478261 C103.142857,66.1478261 101,67 101,67 L101.267857,66.3608696 Z" id="Shape" fill="#FF0080"></path>
            <path d="M58.547644,55 C58.547644,55 55,55.7842614 55,59.444148 C55,62.3197733 58.547644,63.6268756 58.547644,63.6268756 C58.547644,63.6268756 58.547644,61.5355118 59.5612565,61.2740914 C60.8282723,61.0126709 62.6020942,63.6268756 62.6020942,63.6268756 C62.6020942,63.6268756 64.8827225,62.8426142 66.9099476,63.8882961 C68.9371728,64.933978 70.7109948,67.5481827 70.7109948,67.5481827 C70.7109948,67.5481827 68.4303665,65.7182394 66.4031414,66.2410804 C63.6157068,66.7639213 64.6293194,68.0710237 63.1089005,68.3324441 C61.8418848,68.3324441 61.3350785,67.8096032 61.3350785,67.8096032 C61.3350785,67.8096032 61.0816754,70.1623875 63.1089005,70.6852284 C65.1361257,71.2080694 66.9099476,70.6852284 66.9099476,70.6852284 C66.9099476,70.6852284 64.8827225,68.5938646 66.4031414,67.8096032 C67.9235602,66.7639213 69.6973822,67.8096032 69.9507853,68.8552851 C69.9507853,70.1623875 69.6973822,70.4238079 69.6973822,70.4238079 C69.6973822,70.4238079 69.9507853,71.2080694 70.9643979,70.9466489 C73.2450262,70.1623875 72.991623,66.5025008 72.991623,66.5025008 L66.6565445,60.2284095 L58.547644,55 Z" id="Shape" fill="#D5C800"></path>
            <path d="M113.452356,55 C113.452356,55 117,55.7842614 117,59.444148 C117,62.3197733 113.452356,63.6268756 113.452356,63.6268756 C113.452356,63.6268756 113.452356,61.5355118 112.438743,61.2740914 C111.171728,61.0126709 109.397906,63.6268756 109.397906,63.6268756 C109.397906,63.6268756 107.117277,62.8426142 105.090052,63.8882961 C103.062827,64.933978 101.289005,67.5481827 101.289005,67.5481827 C101.289005,67.5481827 103.569634,65.7182394 105.596859,66.2410804 C108.384293,66.7639213 107.370681,68.0710237 108.891099,68.3324441 C110.158115,68.3324441 110.664921,67.8096032 110.664921,67.8096032 C110.664921,67.8096032 110.918325,70.1623875 108.891099,70.6852284 C106.863874,71.2080694 105.090052,70.6852284 105.090052,70.6852284 C105.090052,70.6852284 107.117277,68.5938646 105.596859,67.8096032 C104.07644,66.7639213 102.302618,67.8096032 102.049215,68.8552851 C102.049215,70.1623875 102.302618,70.4238079 102.302618,70.4238079 C102.302618,70.4238079 102.049215,71.2080694 101.035602,70.9466489 C98.7549738,70.1623875 99.008377,66.5025008 99.008377,66.5025008 L105.343455,60.2284095 L113.452356,55 Z" id="Shape" fill="#D5C800"></path>
            <g id="Group" transform="translate(0.000000, 93.000000)" fill="#BFAF00">
                <ellipse id="Oval" transform="translate(2.386228, 50.279385) rotate(-55.758524) translate(-2.386228, -50.279385) " cx="2.386228" cy="50.2793847" rx="1.56005006" ry="1.50109712"></ellipse>
                <ellipse id="Oval" transform="translate(5.283018, 46.260101) rotate(-55.758524) translate(-5.283018, -46.260101) " cx="5.283018" cy="46.2601009" rx="2.34007509" ry="2.25164568"></ellipse>
                <ellipse id="Oval" transform="translate(8.038602, 42.216225) rotate(-55.763261) translate(-8.038602, -42.216225) " cx="8.038602" cy="42.216225" rx="3.11992457" ry="3.00202533"></ellipse>
                <rect id="Rectangle-path" transform="translate(3.390041, 48.509518) rotate(-55.758524) translate(-3.390041, -48.509518) " x="2.22000341" y="45.382232" width="2.34007509" height="6.25457133"></rect>
                <ellipse id="Oval" transform="translate(21.712678, 22.720751) rotate(-55.758524) translate(-21.712678, -22.720751) " cx="21.712678" cy="22.7207513" rx="2.86009178" ry="2.75201138"></ellipse>
                <rect id="Rectangle-path" transform="translate(19.329666, 26.041955) rotate(-55.763261) translate(-19.329666, -26.041955) " x="18.1596941" y="22.9148449" width="2.33994343" height="6.25421943"></rect>
                <polygon id="Shape" points="19.76 27.5199301 18.2 26.2690559 16.12 27.5199301 8.84 37.7770979 8.84 39.7784965 10.14 40.7791958 11.96 40.0286713 19.24 29.5213287"></polygon>
                <polygon id="Shape" points="27.3 18.7638112 35.1 5.75472028 36.4 5.25437063 37.18 4.0034965 35.62 3.0027972 35.62 3.0027972 34.06 2.0020979 33.28 3.25297203 33.28 4.75402098 23.66 16.2620629 23.14 21.0153846 23.14 21.0153846"></polygon>
                <ellipse id="Oval" transform="translate(36.433020, 2.046229) rotate(-25.688732) translate(-36.433020, -2.046229) " cx="36.43302" cy="2.04622874" rx="1.56006528" ry="1.50111176"></ellipse>
            </g>
            <g id="Group" transform="translate(129.000000, 51.000000)">
                <ellipse id="Oval" fill="#7C7A7A" transform="translate(24.135942, 8.398522) rotate(-61.443501) translate(-24.135942, -8.398522) " cx="24.1359421" cy="8.39852171" rx="2.7522363" ry="2.82222009"></ellipse>
                <path d="M28.995671,3.84868421 L27.7445887,3.07894737 L28.4952381,1.79605263 C28.7454545,1.53947368 28.4952381,1.02631579 28.2450216,0.769736842 C27.9948052,0.513157895 27.4943723,0.769736842 27.2441558,1.02631579 L26.4935065,2.56578947 L25.2424242,1.79605263 C24.9922078,1.53947368 24.4917749,1.79605263 24.2415584,2.05263158 C23.991342,2.30921053 24.2415584,2.82236842 24.4917749,3.07894737 L25.7428571,3.84868421 L24.9922078,5.13157895 C24.7419913,5.38815789 24.9922078,5.90131579 25.2424242,6.15789474 C25.4926407,6.41447368 25.9930736,6.15789474 26.24329,5.90131579 L26.9939394,4.61842105 L28.2450216,5.38815789 C28.4952381,5.64473684 28.995671,5.38815789 29.2458874,5.13157895 C29.4961039,4.61842105 29.2458874,4.10526316 28.995671,3.84868421 Z" id="Shape" fill="#7C7A7A"></path>
                <ellipse id="Oval" fill="#BFAF00" transform="translate(16.735040, 22.203393) rotate(-61.438468) translate(-16.735040, -22.203393) " cx="16.7350399" cy="22.2033928" rx="12.7609783" ry="12.0591532"></ellipse>
            </g>
            <path d="M131.691221,139.974301 C131.439346,139.712496 131.439346,139.188885 131.187471,138.92708 C130.683722,137.879858 128.920599,137.618053 128.920599,137.618053 C128.920599,137.618053 129.676223,138.665274 129.676223,139.188885 C129.676223,139.712496 129.928098,139.974301 129.928098,140.497912 C128.920599,140.759717 127.9131,141.283328 127.9131,141.283328 C127.9131,141.283328 127.661225,141.021522 127.157476,141.021522 C127.157476,140.497912 127.157476,139.974301 127.157476,139.188885 C126.905601,137.356248 125.394353,137.356248 125.394353,137.356248 C125.394353,137.356248 125.646228,137.618053 125.646228,137.879858 C125.646228,137.879858 125.394353,138.403469 124.890603,139.188885 C124.638729,139.45069 124.386854,139.974301 124.386854,140.236106 C123.379355,140.236106 122.371856,140.497912 122.371856,141.021522 C122.371856,141.806938 121.364357,144.424991 121.364357,144.424991 C121.364357,144.424991 121.364357,142.592354 121.112483,141.545133 C120.860608,140.759717 120.608733,140.236106 120.608733,140.236106 C120.608733,140.236106 121.364357,139.188885 121.112483,138.403469 C120.860608,137.618053 120.104984,137.094443 118.593736,137.094443 C118.593736,136.832637 118.593736,136.832637 118.341861,136.570832 C118.089986,135.785416 118.341861,135 118.341861,135 C118.341861,135 117.334362,135.261805 116.830613,136.047221 C116.578738,136.309027 116.578738,136.832637 116.578738,137.356248 C115.319364,137.879858 114.815615,138.665274 115.319364,139.974301 C115.823114,141.545133 118.089986,141.545133 117.586237,143.115965 C117.082487,144.686797 116.578738,145.472213 115.571239,144.686797 C114.56374,144.163186 113.304367,142.592354 112.800617,142.068744 C112.296868,141.806938 110.533745,137.879858 110.533745,137.879858 L106,143.639575 C106,143.639575 108.518747,143.901381 109.778121,145.210407 C111.037494,146.519434 115.823114,149.661098 122.875606,148.875682 C129.928098,148.090266 133.202469,143.639575 132.950594,141.545133 C133.202469,140.236106 132.446845,139.974301 131.691221,139.974301 Z" id="Shape" fill="#D5C800"></path>
            <path d="M39.5267615,139.712496 C39.7789718,139.45069 39.7789718,138.92708 40.0311821,138.665274 C40.5356026,137.618053 42.3010746,137.356248 42.3010746,137.356248 C42.3010746,137.356248 41.5444437,138.403469 41.5444437,138.92708 C41.5444437,139.45069 41.2922335,139.712496 41.2922335,140.236106 C42.3010746,140.497912 43.3099157,141.021522 43.3099157,141.021522 C43.3099157,141.021522 43.562126,140.759717 44.0665466,140.759717 C44.0665466,140.236106 44.0665466,139.712496 44.0665466,138.92708 C44.3187569,137.618053 45.5798083,137.356248 45.5798083,137.356248 C45.5798083,137.356248 45.327598,137.618053 45.327598,137.879858 C45.327598,137.879858 45.5798083,138.403469 46.0842288,139.188885 C46.3364391,139.45069 46.5886494,139.974301 46.5886494,140.236106 C47.5974905,140.236106 48.6063317,140.497912 48.6063317,141.021522 C48.6063317,141.806938 49.6151728,144.424991 49.6151728,144.424991 C49.6151728,144.424991 49.6151728,142.592354 49.8673831,141.545133 C50.1195933,140.759717 50.3718036,140.236106 50.3718036,140.236106 C50.3718036,140.236106 49.6151728,139.188885 49.8673831,138.403469 C50.1195933,137.618053 50.8762242,137.094443 52.3894859,137.094443 C52.3894859,136.832637 52.3894859,136.832637 52.6416962,136.570832 C52.8939065,135.785416 52.6416962,135 52.6416962,135 C52.6416962,135 53.6505373,135.261805 54.1549579,136.047221 C54.4071681,136.309027 54.4071681,136.832637 54.4071681,137.356248 C55.6682196,137.879858 56.1726401,138.665274 55.6682196,139.974301 C55.163799,141.545133 52.8939065,141.545133 53.398327,143.115965 C53.9027476,144.686797 54.4071681,145.472213 55.4160093,144.686797 C56.4248504,144.163186 57.6859018,142.592354 58.1903224,142.068744 C58.6947429,141.806938 60.4602149,137.879858 60.4602149,137.879858 L65,143.639575 C65,143.639575 62.4778972,143.901381 61.2168458,145.210407 C59.9557944,146.519434 55.163799,149.661098 48.1019111,148.875682 C41.0400232,148.090266 37.7612895,143.639575 38.0134998,141.545133 C38.2657101,139.974301 39.0223409,139.712496 39.5267615,139.712496 Z" id="Shape" fill="#D5C800"></path>
            <g id="Group" transform="translate(23.000000, 44.000000)">
                <path d="M2.13333333,12.6628571 C-0.8,10.072381 1.6,6.44571429 4.8,4.11428571 C8,1.78285714 12.2666667,0.746666667 13.8666667,4.37333333 C14.9333333,6.44571429 15.2,8.51809524 14.9333333,10.5904762 C13.3333333,10.8495238 12.2666667,11.367619 10.9333333,12.4038095 C9.6,13.44 8.53333333,14.4761905 8,15.512381 C5.86666667,14.9942857 3.73333333,13.9580952 2.13333333,12.6628571 Z" id="Shape" fill="#9B9B9B"></path>
                <ellipse id="Oval" stroke="#7C7A7A" stroke-width="0.5" fill="#FF4969" transform="translate(4.088827, 3.373830) rotate(-36.177757) translate(-4.088827, -3.373830) " cx="4.08882667" cy="3.3738301" rx="1" ry="1.29525489"></ellipse>
                <polygon id="Shape" fill="#7C7A7A" points="2.66666667 0.746666667 3.2 1.78285714 2.13333333 1.2647619 1.86666667 0.228571429"></polygon>
                <polygon id="Shape" fill="#7C7A7A" points="1.86666667 1.78285714 2.93333333 1.52380952 2.4 2.56 1.33333333 2.81904762"></polygon>
                <polygon id="Shape" fill="#7C7A7A" points="3.46666667 0.746666667 4.53333333 0.487619048 4 1.52380952 2.93333333 1.78285714"></polygon>
            </g>
            <g id="Group" transform="translate(110.000000, 30.000000)">
                <path d="M8.53333333,0 C8.53333333,0 6.66666667,0.518095238 4.53333333,1.55428571 C2.4,2.84952381 1.06666667,4.1447619 1.06666667,4.1447619 L5.86666667,4.40380952 L8.53333333,0 Z" id="Shape" fill="#FF4969"></path>
                <path d="M14.1333333,3.36761905 C16.8,6.21714286 14.1333333,9.5847619 10.6666667,11.3980952 C7.2,13.4704762 2.93333333,13.9885714 1.6,10.3619048 C0.8,8.28952381 0.8,5.95809524 1.33333333,4.1447619 C2.93333333,4.1447619 4,3.62666667 5.6,2.84952381 C7.2,2.07238095 8.26666667,1.03619048 8.8,3.55271368e-15 C10.6666667,0.518095238 12.5333333,1.81333333 14.1333333,3.36761905 Z" id="Shape" fill="#9B9B9B"></path>
                <ellipse id="Oval" stroke="#7C7A7A" stroke-width="0.5" fill="#FF4969" transform="translate(11.174133, 12.417175) rotate(-30.378103) translate(-11.174133, -12.417175) " cx="11.1741333" cy="12.4171749" rx="1" ry="1.29522759"></ellipse>
                <polygon id="Shape" fill="#7C7A7A" points="12.2666667 15.0247619 12 13.9885714 12.8 14.5066667 13.0666667 15.5428571"></polygon>
                <polygon id="Shape" fill="#7C7A7A" points="13.0666667 13.9885714 12 14.247619 12.8 13.4704762 13.8666667 13.2114286"></polygon>
                <polygon id="Shape" fill="#7C7A7A" points="11.4666667 14.7657143 10.4 15.0247619 11.2 14.247619 12.2666667 13.9885714"></polygon>
            </g>
        </g>
    </g>
</svg>