<svg width="31px" height="19px" viewBox="0 0 31 19" version="1.1" xmlns="http://www.w3.org/2000/svg" xmlns:xlink="http://www.w3.org/1999/xlink">
    <!-- Generator: Sketch 48.2 (47327) - http://www.bohemiancoding.com/sketch -->
    <desc>Created with Sketch.</desc>
    <defs>
        <polygon id="path-1" points="0 18.6666667 0 0 30.225 0 30.225 18.6666667"></polygon>
    </defs>
    <g id="-" stroke="none" stroke-width="1" fill="none" fill-rule="evenodd">
        <g id="1-1-Desktop-Navigation-Copy-9" transform="translate(-275.000000, -5283.000000)">
            <g id="Group-15" transform="translate(221.000000, 5251.000000)">
                <g id="Page-1-Copy-2" transform="translate(54.000000, 32.000000)">
                    <mask id="mask-2" fill="white">
                        <use xlink:href="#path-1"></use>
                    </mask>
                    <g id="Clip-2"></g>
                    <path d="M29.5312629,1.26442182 C29.7407144,0.535003915 29.5312629,0 28.5317995,0 L25.2255575,0 C24.3835342,0 23.9955568,0.463377708 23.7861053,0.972069956 C23.7861053,0.972069956 22.10487,5.23456017 19.7221829,8.00313234 C18.951851,8.80417646 18.601828,9.05998434 18.1815191,9.05998434 C17.9706619,9.05998434 17.6670274,8.80417646 17.6670274,8.07622031 L17.6670274,1.26442182 C17.6670274,0.390289742 17.422433,0 16.7223869,0 L11.5254581,0 C11.0011264,0 10.6848405,0.406369094 10.6848405,0.790811798 C10.6848405,1.61962934 11.8754812,1.81111981 11.9977784,4.14262595 L11.9977784,9.20616027 C11.9977784,10.3156356 11.8051954,10.5173584 11.3848866,10.5173584 C10.2645317,10.5173584 7.53744438,6.23586531 5.92087201,1.33750979 C5.6031804,0.384442704 5.28548879,0 4.44065401,0 L1.13441209,0 C0.188365824,0 0,0.463377708 0,0.972069956 C0,1.88274602 1.12176065,6.40104411 5.21942018,12.3752545 C7.95213034,16.4550248 11.802384,18.6666667 15.305426,18.6666667 C17.4069701,18.6666667 17.6670274,18.1740538 17.6670274,17.3291569 L17.6670274,14.2448447 C17.6670274,13.2625424 17.866639,13.0666667 18.5315422,13.0666667 C19.0221368,13.0666667 19.8627544,13.3224745 21.8251327,15.2885409 C24.0658426,17.620047 24.4355456,18.6666667 25.6964721,18.6666667 L29.0041197,18.6666667 C29.9487603,18.6666667 30.4210805,18.1740538 30.1483718,17.2049073 C29.8503602,16.2401462 28.7792053,14.838319 27.3594331,13.1762986 C26.5891012,12.2290786 25.4321976,11.2087706 25.0821746,10.6986165 C24.59158,10.0437484 24.7321515,9.7513965 25.0821746,9.16961629 C25.0821746,9.16961629 29.1109541,3.26849387 29.5312629,1.26442182" id="Fill-1" fill="#FFFFFF" mask="url(#mask-2)"></path>
                </g>
            </g>
        </g>
    </g>
</svg>