<?xml version="1.0" encoding="UTF-8"?>
<svg width="200px" height="200px" viewBox="0 0 200 200" version="1.1" xmlns="http://www.w3.org/2000/svg" xmlns:xlink="http://www.w3.org/1999/xlink">
    <!-- Generator: Sketch 48.2 (47327) - http://www.bohemiancoding.com/sketch -->
    <title>story_emoji_2_2</title>
    <desc>Created with Sketch.</desc>
    <defs></defs>
    <g id="The-End-2.2" stroke="none" stroke-width="1" fill="none" fill-rule="evenodd" transform="translate(-299.000000, -293.000000)">
        <g id="Group-5" transform="translate(299.000000, 293.000000)" fill="#FFFFFE">
            <g id="Page-1">
                <g id="Group-3">
                    <path d="M99.9406557,5.01575249 C47.5472131,5.01575249 4.91770492,47.4672843 4.91770492,99.649265 C4.91770492,151.831246 47.5472131,194.282777 99.9406557,194.282777 C152.334098,194.282777 194.963607,151.831246 194.963607,99.649265 C194.963607,47.4672843 152.334098,5.01575249 99.9406557,5.01575249 M99.9406557,199.180654 C44.832459,199.180654 -0.000327868852,154.531608 -0.000327868852,99.649265 C-0.000327868852,44.7701868 44.832459,0.117875571 99.9406557,0.117875571 C155.048852,0.117875571 199.881639,44.7701868 199.881639,99.649265 C199.881639,154.531608 155.048852,199.180654 99.9406557,199.180654" id="Fill-1"></path>
                </g>
                <path d="M95.473251,154.098361 C95.473251,154.104918 95.473251,154.111475 95.473251,154.118033 C95.473251,154.111475 95.473251,154.104918 95.473251,154.098361" id="Fill-4"></path>
                <path d="M95.473251,153.278689 C95.4765432,153.386885 95.4831276,153.498361 95.4897119,153.606557 C95.4831276,153.495082 95.4765432,153.383607 95.473251,153.278689" id="Fill-6"></path>
                <path d="M43.2792788,59.0163934 C42.3893847,59.0163934 41.5601653,58.4382111 41.2635339,57.5152092 C40.8893739,56.3623276 41.4893782,55.1188873 42.6051166,54.7322714 L44.415242,54.0983607 L45.4062604,56.0732364 L46.090535,58.159569 L43.9534409,58.9049366 C43.7309674,58.9815632 43.5017523,59.0163934 43.2792788,59.0163934" id="Fill-8"></path>
                <path d="M63.9853054,51.6853308 C63.1385946,51.6853308 62.3466142,51.1401978 62.0600847,50.2765233 C61.6995083,49.1928252 62.2725673,48.013893 63.33498,47.6493764 L68.0933012,46.0041256 C69.1750305,45.6560286 70.3147096,46.2208652 70.6720666,47.3012794 C71.0358625,48.3849775 70.466023,49.5639097 69.4036102,49.9317102 L64.6324113,51.576961 C64.4199288,51.6492075 64.2010073,51.6853308 63.9853054,51.6853308 M52.2375962,55.7377049 C51.3908855,55.7377049 50.5989051,55.1925719 50.3123756,54.3288974 C49.9550186,53.2451993 50.5248582,52.0662671 51.5904903,51.7017505 L56.3455921,50.0564997 C57.424102,49.7051188 58.5637811,50.2732393 58.9243575,51.3536535 C59.2881534,52.4373516 58.7183138,53.6162838 57.6559011,53.9840844 L52.8879216,55.6293351 C52.6722196,55.7015816 52.4532982,55.7377049 52.2375962,55.7377049" id="Fill-10"></path>
                <path d="M76.2679505,47.5409836 C75.3544277,47.5409836 74.4999538,46.9913349 74.1908149,46.1118971 C73.8017862,45.0159309 74.4165905,43.8200287 75.5663094,43.4469338 L77.761543,42.730725 C78.9112619,42.3676237 80.1547645,42.9505844 80.5403198,44.0498818 C80.932822,45.1458479 80.3145442,46.3417502 79.1682988,46.714845 L76.9695917,47.4310539 C76.7403426,47.5043404 76.4971996,47.5409836 76.2679505,47.5409836" id="Fill-12"></path>
                <path d="M154.184487,58.1967213 C153.951521,58.1967213 153.715079,58.1633687 153.48559,58.0866576 L151.284585,57.3762465 C150.137142,56.9993617 149.521696,55.802002 149.911131,54.7047003 C150.300566,53.600728 151.569708,53.0237274 152.692811,53.3872711 L154.883384,54.0976823 C156.030827,54.4645613 156.649751,55.6585857 156.263793,56.7625579 C155.957808,57.6430675 155.102442,58.1967213 154.184487,58.1967213" id="Fill-14"></path>
                <path d="M132.72198,51.6861105 C132.509514,51.6861105 132.29061,51.6499942 132.071706,51.5777616 L127.3041,49.9328274 C126.241771,49.5650976 125.671976,48.3863922 126.035744,47.3029026 C126.396292,46.2161297 127.551977,45.6546851 128.614307,46.0059984 L133.372254,47.6509326 C134.437803,48.0153791 135.007598,49.1940845 134.647049,50.277574 C134.360542,51.1410824 133.571843,51.6861105 132.72198,51.6861105 M144.468767,55.7377049 C144.256301,55.7377049 144.037397,55.7015886 143.818492,55.629356 L139.054106,53.9844218 C137.988558,53.616692 137.421982,52.4379866 137.78253,51.354497 C138.146298,50.2710074 139.298764,49.6997129 140.361093,50.0575928 L145.12226,51.702527 C146.184589,52.0669735 146.754384,53.2456789 146.393836,54.3291685 C146.110548,55.1926768 145.31863,55.7377049 144.468767,55.7377049" id="Fill-16"></path>
                <path d="M120.439868,47.5409836 C120.203672,47.5409836 119.967476,47.5043356 119.738227,47.4310396 L117.53952,46.7147381 C116.393275,46.341595 115.774997,45.1455379 116.167499,44.04943 C116.556528,42.9433271 117.813924,42.3702859 118.946276,42.7301025 L121.14151,43.446404 C122.291228,43.8195471 122.906033,45.0156042 122.517004,46.1117121 C122.207865,46.9912638 121.353391,47.5409836 120.439868,47.5409836" id="Fill-18"></path>
                <path d="M76.9614423,96.7213115 C76.4383604,96.7213115 75.9120296,96.5207018 75.512408,96.122718 L60.6841736,81.355255 C59.8816815,80.5560518 59.8816815,79.2650313 60.6841736,78.4658281 C61.4866657,77.6698606 62.7829991,77.6698606 63.5854912,78.4658281 L78.4104766,93.2365267 C79.2129687,94.0324943 79.2129687,95.3235148 78.4104766,96.122718 C78.010855,96.5207018 77.4845242,96.7213115 76.9614423,96.7213115" id="Fill-20"></path>
                <path d="M62.1394749,111.47541 C61.6147946,111.47541 61.0868555,111.274204 60.6860127,110.875039 C59.8810685,110.073463 59.8810685,108.778608 60.6860127,107.977032 L75.5008984,93.2241331 C76.3058427,92.4225567 77.6061373,92.4225567 78.4110816,93.2241331 C79.212767,94.0224642 79.212767,95.3205635 78.4110816,96.1188946 L63.5929371,110.875039 C63.1920944,111.274204 62.6641552,111.47541 62.1394749,111.47541" id="Fill-22"></path>
                <path d="M133.751566,111.47541 C133.228484,111.47541 132.702153,111.2748 132.302531,110.876816 L117.474297,96.1093534 C116.671805,95.3101502 116.671805,94.0191297 117.474297,93.2199265 C118.27354,92.4239589 119.569874,92.4239589 120.372366,93.2199265 L135.2006,107.987389 C136.003092,108.786593 136.003092,110.077613 135.2006,110.876816 C134.800979,111.2748 134.277897,111.47541 133.751566,111.47541" id="Fill-24"></path>
                <path d="M118.929333,96.7213115 C118.40472,96.7213115 117.876849,96.5201061 117.476058,96.1209405 C116.671218,95.3226094 116.671218,94.0245101 117.476058,93.226179 L132.29229,78.4700347 C133.093872,77.6684584 134.397257,77.6684584 135.198839,78.4700347 C136.003679,79.2683658 136.003679,80.5632199 135.198839,81.3647963 L120.382607,96.1209405 C119.981816,96.5201061 119.457204,96.7213115 118.929333,96.7213115" id="Fill-26"></path>
                <path d="M119.730747,157.377049 C119.206346,157.377049 118.678647,157.175966 118.26968,156.780394 C116.05994,154.608041 113.893075,152.442281 111.719614,150.273224 C110.908277,149.459004 110.908277,148.143725 111.719614,147.329504 C112.53425,146.518581 113.850199,146.518581 114.664835,147.329504 C116.828401,149.491968 118.985372,151.651135 121.191814,153.813599 C122.006449,154.61793 122.019642,155.933209 121.214901,156.754022 C120.809232,157.169374 120.271638,157.377049 119.730747,157.377049" id="Fill-28"></path>
                <path d="M119.8026,157.377049 C119.265179,157.377049 118.724419,157.17087 118.313842,156.761838 C117.48935,155.940448 117.48935,154.610261 118.313842,153.795521 L126.445267,145.69801 C127.26642,144.87662 128.60163,144.87662 129.422783,145.69801 C130.247275,146.516075 130.247275,147.849587 129.422783,148.664326 L121.291359,156.761838 C120.880782,157.17087 120.340022,157.377049 119.8026,157.377049" id="Fill-30"></path>
                <path d="M106.529279,156.557377 C105.98709,156.557377 105.448247,156.360885 105.036585,155.97107 C103.814986,154.814302 102.539838,153.847687 101.191059,152.827195 C99.7853835,151.762335 98.3328522,150.665782 96.9137894,149.31569 C96.0904653,148.53606 96.0904653,147.2652 96.9137894,146.488739 C97.7404604,145.705939 99.0758521,145.705939 99.9025231,146.488739 C101.160937,147.680369 102.456167,148.65966 103.825027,149.699167 C105.207274,150.748182 106.636378,151.828888 108.021972,153.140949 C108.848643,153.923748 108.848643,155.18827 108.021972,155.97107 C107.61031,156.360885 107.068121,156.557377 106.529279,156.557377" id="Fill-32"></path>
                <path d="M106.633283,157.377049 C106.096013,157.377049 105.555405,157.171039 105.144944,156.762341 C104.320684,155.944946 104.320684,154.612525 105.144944,153.795129 L107.484239,151.455916 C108.862455,150.076976 110.247345,148.691391 111.645583,147.32242 C112.483191,146.508347 113.81135,146.524961 114.622262,147.349002 C115.43651,148.176366 115.426499,149.502141 114.598902,150.312891 C113.207338,151.671894 111.839134,153.047511 110.470929,154.416483 L108.121622,156.762341 C107.711161,157.171039 107.170554,157.377049 106.633283,157.377049" id="Fill-34"></path>
                <path d="M90.9241624,157.377049 C90.3997613,157.377049 89.8720622,157.175966 89.4630954,156.780394 C87.2533552,154.608041 85.0864906,152.442281 82.9130298,150.273224 C82.1016924,149.459004 82.1016924,148.143725 82.9130298,147.329504 C83.7276654,146.518581 85.0436151,146.518581 85.8582506,147.329504 C88.0218171,149.491968 90.1787873,151.651135 92.3852293,153.813599 C93.1998649,154.61793 93.2130574,155.933209 92.4083162,156.754022 C92.0026475,157.169374 91.465054,157.377049 90.9241624,157.377049" id="Fill-36"></path>
                <path d="M90.9412811,156.557377 C90.4114347,156.557377 89.8783377,156.355388 89.478515,155.951411 C88.6853707,155.159488 88.6918719,153.873815 89.5012691,153.09151 C90.7494962,151.882784 91.952215,150.866429 93.1484326,149.856486 C94.393409,148.814482 95.6253832,147.77889 96.8963644,146.506041 C97.6895087,145.704499 98.9897452,145.704499 99.7991424,146.480392 C100.60854,147.265903 100.615041,148.54837 99.8218966,149.3435 C98.4631494,150.706121 97.1401587,151.821867 95.8139175,152.937614 C94.6859623,153.886639 93.5515059,154.838871 92.381293,155.977061 C91.9782197,156.361801 91.4613757,156.557377 90.9412811,156.557377" id="Fill-38"></path>
                <path d="M77.7810635,156.557377 C77.2538539,156.557377 76.7298986,156.356402 76.3296099,155.957693 L69.7362356,149.396825 C68.9356581,148.596166 68.9356581,147.302793 69.7362356,146.502134 C70.5400675,145.701475 71.8385652,145.701475 72.6423971,146.502134 L79.232517,153.063002 C80.0363489,153.860419 80.0363489,155.157034 79.232517,155.957693 C78.8322283,156.356402 78.3050187,156.557377 77.7810635,156.557377" id="Fill-40"></path>
                <path d="M77.8266987,157.377049 C77.2860912,157.377049 76.7488207,157.171039 76.3383594,156.762341 C75.5140997,155.944946 75.5140997,154.612525 76.3383594,153.795129 L78.6776551,151.455916 C80.0558707,150.076976 81.4374234,148.691391 82.8389986,147.32242 C83.6732695,146.508347 85.004766,146.524961 85.8156773,147.349002 C86.6299258,148.176366 86.6199145,149.502141 85.7923177,150.312891 C84.4007538,151.671894 83.0325495,153.047511 81.6643451,154.416483 L79.3150381,156.762341 C78.9045768,157.171039 78.3639692,157.377049 77.8266987,157.377049" id="Fill-42"></path>
            </g>
        </g>
    </g>
</svg>