<?xml version="1.0" encoding="UTF-8"?>
<svg width="200px" height="200px" viewBox="0 0 200 200" version="1.1" xmlns="http://www.w3.org/2000/svg" xmlns:xlink="http://www.w3.org/1999/xlink">
    <!-- Generator: Sketch 48.2 (47327) - http://www.bohemiancoding.com/sketch -->
    <title>story_emoji_4_1</title>
    <desc>Created with Sketch.</desc>
    <defs></defs>
    <g id="The-End-4.1" stroke="none" stroke-width="1" fill="none" fill-rule="evenodd" transform="translate(-299.000000, -300.000000)">
        <g id="Group-5" transform="translate(299.000000, 300.000000)" fill="#FFFFFE">
            <g id="Page-1">
                <g id="Group-3">
                    <path d="M99.9406557,5.0347541 C47.5472131,5.0347541 4.91770492,47.6609836 4.91770492,100.057705 C4.91770492,152.454426 47.5472131,195.080656 99.9406557,195.080656 C152.334098,195.080656 194.963607,152.454426 194.963607,100.057705 C194.963607,47.6609836 152.334098,5.0347541 99.9406557,5.0347541 M99.9406557,199.998689 C44.832459,199.998689 -0.000327868852,155.165902 -0.000327868852,100.057705 C-0.000327868852,44.9495082 44.832459,0.116721311 99.9406557,0.116721311 C155.048852,0.116721311 199.881639,44.9495082 199.881639,100.057705 C199.881639,155.165902 155.048852,199.998689 99.9406557,199.998689" id="Fill-1"></path>
                </g>
                <path d="M106.525362,142.775362 C106.525362,142.768116 106.525362,142.76087 106.521739,142.753623 C106.525362,142.76087 106.525362,142.768116 106.525362,142.775362" id="Fill-4"></path>
                <path d="M106.539855,143.84058 C106.536232,143.717391 106.528986,143.597826 106.521739,143.478261 C106.528986,143.605072 106.536232,143.724638 106.539855,143.84058" id="Fill-6"></path>
                <path d="M98.1865201,156.598573 C103.176358,156.598573 107.676801,157.397271 111.634943,158.984768 C108.076914,154.486311 103.371454,151.994503 98.1865201,151.994503 C93.0015861,151.994503 88.2994329,154.483011 84.7380974,158.981468 C88.696239,157.397271 93.1966825,156.598573 98.1865201,156.598573 M116.37347,165.942029 C115.877462,165.942029 115.378148,165.793511 114.951581,165.493173 C110.527192,162.354485 104.889238,160.766989 98.1865201,160.766989 C91.4871092,160.766989 85.8491547,162.354485 81.434686,165.486573 C80.5187251,166.130152 79.2787057,166.087247 78.4222657,165.371058 C77.5658257,164.65817 77.2979816,163.460122 77.7609221,162.450197 C82.0530423,153.291563 89.6849478,147.826087 98.1865201,147.826087 C106.681479,147.826087 114.316691,153.291563 118.612118,162.440296 C119.081672,163.460122 118.810521,164.65817 117.954081,165.371058 C117.501061,165.750605 116.938919,165.942029 116.37347,165.942029" id="Fill-8"></path>
                <path d="M125.363942,93.9519181 C121.229298,93.9519181 117.86706,97.3150972 117.86706,101.447652 C117.86706,105.583454 121.229298,108.943386 125.363942,108.943386 C129.498585,108.943386 132.857578,105.583454 132.857578,101.447652 C132.857578,97.3150972 129.498585,93.9519181 125.363942,93.9519181 M125.363942,113.043478 C118.970497,113.043478 113.768116,107.842887 113.768116,101.447652 C113.768116,95.0556641 118.970497,89.8550725 125.363942,89.8550725 C131.75414,89.8550725 136.956522,95.0556641 136.956522,101.447652 C136.956522,107.842887 131.75414,113.043478 125.363942,113.043478" id="Fill-10"></path>
                <path d="M69.5652174,93.9519181 C65.429995,93.9519181 62.0705325,97.3150972 62.0705325,101.447652 C62.0705325,105.583454 65.429995,108.943386 69.5652174,108.943386 C73.7004398,108.943386 77.0599023,105.583454 77.0599023,101.447652 C77.0599023,97.3150972 73.7004398,93.9519181 69.5652174,93.9519181 M69.5652174,113.043478 C63.174124,113.043478 57.9710145,107.842887 57.9710145,101.447652 C57.9710145,95.0556641 63.174124,89.8550725 69.5652174,89.8550725 C75.9563108,89.8550725 81.1594203,95.0556641 81.1594203,101.447652 C81.1594203,107.842887 75.9563108,113.043478 69.5652174,113.043478" id="Fill-12"></path>
                <path d="M111.595149,84.7826087 C110.689699,84.7826087 109.846219,84.2156159 109.53637,83.3152999 C109.150779,82.1778779 109.756707,80.9476753 110.896266,80.5593711 L113.0721,79.8239985 C114.204773,79.442567 115.444172,80.0507957 115.82632,81.1813451 C116.211911,82.3187671 115.602539,83.5489697 114.462981,83.9338376 L112.297475,84.6657738 C112.066809,84.7482455 111.829258,84.7826087 111.595149,84.7826087" id="Fill-14"></path>
                <path d="M132.189834,76.9823446 C131.325138,76.9823446 130.516334,76.4204365 130.223719,75.5335696 C129.855483,74.4131384 130.437427,73.2013125 131.525694,72.8221938 L136.388377,71.1263147 C137.476645,70.7505809 138.653684,71.3531089 139.018632,72.4633851 C139.390155,73.5838162 138.804923,74.7956421 137.719943,75.1747608 L132.853973,76.87064 C132.633689,76.9484947 132.410117,76.9823446 132.189834,76.9823446 M120.192586,81.1594203 C119.32789,81.1594203 118.515799,80.5975122 118.226471,79.7106453 C117.858235,78.5902141 118.440179,77.3783882 119.525159,76.9992695 L124.39113,75.3033903 C125.492549,74.9175017 126.656436,75.5267996 127.021384,76.6472307 C127.38962,77.7608919 126.807676,78.9761028 125.719408,79.3518365 L120.856725,81.0477157 C120.636441,81.1255704 120.409582,81.1594203 120.192586,81.1594203" id="Fill-16"></path>
                <path d="M144.204164,73.1884058 C143.294983,73.1884058 142.451236,72.6177835 142.144731,71.7137254 C141.759018,70.5759183 142.368583,69.3452992 143.508503,68.9637386 L145.685028,68.2281171 C146.824948,67.8499939 148.054409,68.4584285 148.436678,69.5927981 C148.818947,70.7306051 148.209383,71.9577867 147.069462,72.3427849 L144.899826,73.0749688 C144.67253,73.154031 144.434904,73.1884058 144.204164,73.1884058" id="Fill-18"></path>
                <path d="M82.6077591,84.7826087 C82.3736514,84.7826087 82.136101,84.7482388 81.9054361,84.665751 L79.7364974,83.9336718 C78.6003866,83.5487288 77.9910181,82.3182858 78.3766072,81.1806417 C78.7621964,80.0464345 80.0188037,79.444961 81.1308151,79.8230301 L83.3066394,80.5585462 C84.4461929,80.9469263 85.0521186,82.1773692 84.6665295,83.3150134 C84.3566811,84.2155051 83.5132049,84.7826087 82.6077591,84.7826087" id="Fill-20"></path>
                <path d="M61.2884272,76.9828595 C61.0714312,76.9828595 60.8412839,76.9490138 60.624288,76.8711686 L55.7583174,75.1754985 C54.6733375,74.7998111 54.0881059,73.58475 54.4596293,72.4712261 C54.8245771,71.3543176 55.9917525,70.7484794 57.0898837,71.1275513 L61.9525664,72.8232215 C63.0408341,73.2022935 63.6227779,74.4139699 63.2545423,75.534263 C62.9619265,76.4210206 62.1531233,76.9828595 61.2884272,76.9828595 M73.2856748,81.1594203 C73.0686788,81.1594203 72.8418194,81.1255746 72.6215356,81.0477294 L67.7588529,79.3520593 C66.6705851,78.9763719 66.0886414,77.7613108 66.456877,76.6477869 C66.8218248,75.5308784 67.9890001,74.9216556 69.0871313,75.3041122 L73.9531019,76.9997823 C75.0380818,77.3788543 75.6200256,78.5905308 75.2517899,79.7108238 C74.962462,80.5975815 74.1503709,81.1594203 73.2856748,81.1594203" id="Fill-22"></path>
                <path d="M49.2766012,73.1884058 C49.0459119,73.1884058 48.8152225,73.154022 48.5845332,73.0749393 L46.4084786,72.3425643 C45.2688045,71.9574658 44.6593715,70.7299641 45.0415583,69.5918603 C45.4271882,68.4571949 46.6632698,67.8520401 47.7891715,68.2268235 L49.9686692,68.9591984 C51.1049002,69.344297 51.7177763,70.5717986 51.3355895,71.7099024 C51.0291515,72.6176347 50.185586,73.1884058 49.2766012,73.1884058" id="Fill-24"></path>
            </g>
        </g>
    </g>
</svg>