<?xml version="1.0" encoding="UTF-8"?>
<svg width="200px" height="200px" viewBox="0 0 200 200" version="1.1" xmlns="http://www.w3.org/2000/svg" xmlns:xlink="http://www.w3.org/1999/xlink">
    <!-- Generator: Sketch 48.2 (47327) - http://www.bohemiancoding.com/sketch -->
    <title>story_emoji_1</title>
    <desc>Created with Sketch.</desc>
    <defs></defs>
    <g id="The-End-1.1" stroke="none" stroke-width="1" fill="none" fill-rule="evenodd" transform="translate(-299.000000, -294.000000)">
        <g id="Group-5" transform="translate(299.000000, 294.000000)">
            <g id="Page-1">
                <g id="Group-3" fill="#FFFFFE">
                    <path d="M99.9406557,5.01246995 C47.5472131,5.01246995 4.91770492,47.4610902 4.91770492,99.6394918 C4.91770492,151.821158 47.5472131,194.269779 99.9406557,194.269779 C152.334098,194.269779 194.963607,151.821158 194.963607,99.6394918 C194.963607,47.4610902 152.334098,5.01246995 99.9406557,5.01246995 M99.9406557,199.16732 C44.832459,199.16732 -0.000327868852,154.518071 -0.000327868852,99.6394918 C-0.000327868852,44.7641776 44.832459,0.114928962 99.9406557,0.114928962 C155.048852,0.114928962 199.881639,44.7641776 199.881639,99.6394918 C199.881639,154.518071 155.048852,199.16732 99.9406557,199.16732" id="Fill-1"></path>
                </g>
                <path d="M101.25523,140.02 C101.25523,140.013333 101.25523,140.006667 101.25523,140 C101.25523,140.006667 101.25523,140.013333 101.25523,140.02" id="Fill-4" fill="#211F19"></path>
                <path d="M101.271967,141.166667 C101.268619,141.056667 101.261925,140.943333 101.25523,140.833333 C101.261925,140.95 101.268619,141.06 101.271967,141.166667" id="Fill-6" fill="#211F19"></path>
                <path d="M56.9728851,130.460383 C56.9728851,130.46368 56.9728851,130.470273 56.9761694,130.476866 C56.9728851,130.470273 56.9728851,130.46368 56.9728851,130.460383 M57.455683,133.269121 C61.1177216,149.650126 78.6593795,161.669677 99.6101818,161.669677 C120.436179,161.669677 138.309555,149.280902 141.830367,132.962533 C131.415726,136.809712 117.779148,138.685501 100.303177,138.685501 C79.8942911,138.685501 66.0475154,135.922916 57.455683,133.269121 M99.6101818,165.833333 C75.3881772,165.833333 55.2913032,150.850103 52.8576075,130.977956 L52.7196653,129.837318 L53.7246732,128.821953 C54.3716881,128.29449 55.2289007,128.142845 56.0138579,128.413169 C63.9619597,131.205424 78.0879044,134.52514 100.303177,134.52514 C118.872834,134.52514 132.873973,132.382324 143.101407,127.978013 L144.208229,127.5 L145.489122,128.264821 C146.162411,128.7758 146.523689,129.613146 146.428443,130.457086 C144.300191,150.616042 124.173758,165.833333 99.6101818,165.833333" id="Fill-8" fill="#FFFFFE"></path>
                <path d="M138.912134,76.6224509 C134.733656,76.6224509 131.335773,80.0066499 131.335773,84.1650334 C131.335773,88.3266835 134.733656,91.7076158 138.912134,91.7076158 C143.090612,91.7076158 146.485215,88.3266835 146.485215,84.1650334 C146.485215,80.0066499 143.090612,76.6224509 138.912134,76.6224509 M138.912134,95.8333333 C132.454188,95.8333333 127.196653,90.5969714 127.196653,84.1650334 C127.196653,77.7330953 132.454188,72.5 138.912134,72.5 C145.37336,72.5 150.627615,77.7330953 150.627615,84.1650334 C150.627615,90.5969714 145.37336,95.8333333 138.912134,95.8333333" id="Fill-10" fill="#FFFFFE"></path>
                <path d="M62.7615063,76.6224509 C58.5830284,76.6224509 55.1851453,80.0066499 55.1851453,84.1650334 C55.1851453,88.3266835 58.5830284,91.7076158 62.7615063,91.7076158 C66.9399842,91.7076158 70.3345875,88.3266835 70.3345875,84.1650334 C70.3345875,80.0066499 66.9399842,76.6224509 62.7615063,76.6224509 M62.7615063,95.8333333 C56.3035605,95.8333333 51.0460251,90.5969714 51.0460251,84.1650334 C51.0460251,77.7330953 56.3035605,72.5 62.7615063,72.5 C69.2227319,72.5 74.4769874,77.7330953 74.4769874,84.1650334 C74.4769874,90.5969714 69.2227319,95.8333333 62.7615063,95.8333333" id="Fill-12" fill="#FFFFFE"></path>
            </g>
        </g>
    </g>
</svg>