<?xml version="1.0" encoding="UTF-8"?>
<svg width="200px" height="200px" viewBox="0 0 200 200" version="1.1" xmlns="http://www.w3.org/2000/svg" xmlns:xlink="http://www.w3.org/1999/xlink">
    <!-- Generator: Sketch 48.2 (47327) - http://www.bohemiancoding.com/sketch -->
    <title>story_emoji_4_2</title>
    <desc>Created with Sketch.</desc>
    <defs></defs>
    <g id="The-End-4.2" stroke="none" stroke-width="1" fill="none" fill-rule="evenodd" transform="translate(-299.000000, -293.000000)">
        <g id="Group-5" transform="translate(299.000000, 293.000000)" fill="#FFFFFE">
            <g id="Page-1">
                <g id="Group-3">
                    <path d="M99.9406557,5.0347541 C47.5472131,5.0347541 4.91770492,47.6609836 4.91770492,100.057705 C4.91770492,152.454426 47.5472131,195.080656 99.9406557,195.080656 C152.334098,195.080656 194.963607,152.454426 194.963607,100.057705 C194.963607,47.6609836 152.334098,5.0347541 99.9406557,5.0347541 M99.9406557,199.998689 C44.832459,199.998689 -0.000327868852,155.165902 -0.000327868852,100.057705 C-0.000327868852,44.9495082 44.832459,0.116721311 99.9406557,0.116721311 C155.048852,0.116721311 199.881639,44.9495082 199.881639,100.057705 C199.881639,155.165902 155.048852,199.998689 99.9406557,199.998689" id="Fill-1"></path>
                </g>
                <path d="M64.7757038,74.6208266 C58.1069718,74.6208266 52.6855817,81.466368 52.6855817,89.8768882 C52.6855817,98.2874084 58.1069718,105.13295 64.7757038,105.13295 C71.4444358,105.13295 76.8690742,98.2874084 76.8690742,89.8768882 C76.8690742,81.466368 71.4444358,74.6208266 64.7757038,74.6208266 M64.7757038,109.311741 C55.8494127,109.311741 48.582996,100.593519 48.582996,89.8768882 C48.582996,79.1602576 55.8494127,70.4453441 64.7757038,70.4453441 C73.7052432,70.4453441 80.9716599,79.1602576 80.9716599,89.8768882 C80.9716599,100.593519 73.7052432,109.311741 64.7757038,109.311741" id="Fill-4"></path>
                <path d="M129.55628,74.6208266 C122.88621,74.6208266 117.463733,81.466368 117.463733,89.8768882 C117.463733,98.2874084 122.88621,105.13295 129.55628,105.13295 C136.22635,105.13295 141.648828,98.2874084 141.648828,89.8768882 C141.648828,81.466368 136.22635,74.6208266 129.55628,74.6208266 M129.55628,109.311741 C120.628198,109.311741 113.360324,100.593519 113.360324,89.8768882 C113.360324,79.1602576 120.628198,70.4453441 129.55628,70.4453441 C138.484362,70.4453441 145.748988,79.1602576 145.748988,89.8768882 C145.748988,100.593519 138.484362,109.311741 129.55628,109.311741" id="Fill-6"></path>
                <path d="M85.6731356,153.014096 C82.4477077,156.400566 81.1542284,158.340325 80.641468,159.349129 C81.4122626,159.144773 82.3881613,158.729574 82.9670843,158.239769 C88.4188846,153.630408 95.6670001,149.056728 108.108882,150.062289 C114.232233,150.545607 115.833368,149.342178 116.177414,148.959416 C116.299815,148.819935 116.624012,148.459879 116.389134,147.395931 C115.879682,145.09936 109.064932,142.987683 99.5275893,144.904736 C93.4803254,146.12114 86.3248375,152.430223 85.6731356,153.014096 M79.8012027,163.562753 C78.7227519,163.562753 77.7270044,163.277304 77.0058318,162.53773 C74.2600828,159.738378 78.3323924,154.710575 82.6759687,150.159601 L82.7785208,150.065533 C83.1159502,149.75089 91.2208717,142.394078 98.687324,140.892224 C108.21805,138.975171 119.091877,140.301862 120.46806,146.526608 C121.033751,149.06646 120.157096,150.717526 119.320139,151.654968 C117.404731,153.802326 113.623537,154.613262 107.768144,154.14292 C96.8943168,153.263865 90.7345764,157.081752 85.6962926,161.337544 C84.4458189,162.401493 81.9581043,163.562753 79.8012027,163.562753" id="Fill-8"></path>
                <path d="M41.7507841,68.0161943 C41.195387,68.0161943 40.6399899,67.7820751 40.2324796,67.3207225 C39.4503227,66.4427753 39.4996183,65.0690462 40.3376435,64.2496289 C41.0244955,63.5817005 41.8329434,62.8276988 42.7662734,62.028939 C43.6568806,61.2714944 44.9615708,61.4057687 45.6845729,62.3319169 C46.4108614,63.261508 46.2794065,64.6317941 45.3920857,65.3892387 C44.5376286,66.1260257 43.7981946,66.8180547 43.1639246,67.4343392 C42.762987,67.8233903 42.2568855,68.0161943 41.7507841,68.0161943" id="Fill-10"></path>
                <path d="M62.4599831,56.4261814 C61.5447425,56.4261814 60.705772,55.812438 60.443801,54.8749618 C60.1320887,53.7418971 60.778726,52.5649935 61.8929319,52.2480052 C63.6338786,51.7522894 65.4146183,51.3442512 67.1887259,51.0373795 C68.3228283,50.8620242 69.4105054,51.6174007 69.6061547,52.7808154 C69.7984878,53.9374856 69.0291552,55.0368282 67.8917367,55.235789 C66.3431232,55.5021941 64.7182396,55.8630212 63.0270343,56.3486204 C62.8347011,56.3992037 62.6490001,56.4261814 62.4599831,56.4261814 M50.6779192,61.5384615 C49.961644,61.5384615 49.2652653,61.1675177 48.8739668,60.4930744 C48.2870191,59.4814095 48.6153119,58.1763617 49.6134547,57.5761072 C51.1687004,56.6453755 52.7869517,55.7888325 54.4250997,55.0267116 C55.4630355,54.5411124 56.7198332,55.0098505 57.19735,56.0822153 C57.6781829,57.1512079 57.2139304,58.4124169 56.1594142,58.9013883 C54.5610593,59.6432759 53.0887158,60.4357468 51.7390676,61.2450787 C51.4074588,61.4440395 51.0393729,61.5384615 50.6779192,61.5384615" id="Fill-12"></path>
                <path d="M77.2664556,54.2510121 C77.2333885,54.2510121 77.1970147,54.2510121 77.1639475,54.2478502 C76.2876686,54.2067447 75.2758144,54.178287 74.1812924,54.1972588 C72.9214348,54.0739423 72.078223,53.3308814 72.0649961,52.2305189 C72.0484626,51.1269945 72.9710355,50.2226736 74.1217716,50.2068638 C75.3221084,50.191054 76.4232438,50.2195116 77.3689637,50.2606171 C78.5230066,50.3143705 79.4058989,51.2534729 79.3496848,52.3538354 C79.2967774,53.4194164 78.3742045,54.2510121 77.2664556,54.2510121" id="Fill-14"></path>
                <path d="M154.201313,68.0161943 C153.695663,68.0161943 153.190013,67.8233903 152.789433,67.4343392 C152.155728,66.8180547 151.410387,66.1260257 150.556692,65.3892387 C149.670163,64.6317941 149.542109,63.261508 150.267749,62.3319169 C150.990107,61.4057687 152.3002,61.2714944 153.180162,62.028939 C154.115943,62.8276988 154.926953,63.5817005 155.613193,64.2496289 C156.453754,65.0690462 156.499722,66.4427753 155.718263,67.3207225 C155.311116,67.7820751 154.756214,68.0161943 154.201313,68.0161943" id="Fill-16"></path>
                <path d="M134.297395,56.4253748 C134.108392,56.4253748 133.922705,56.3983928 133.730386,56.3478015 C132.042623,55.8621258 130.411229,55.5012417 128.869362,55.2347945 C127.728713,55.0358024 126.962753,53.9362863 127.155072,52.7760608 C127.350707,51.6192081 128.454882,50.8670852 129.572321,51.0357226 C131.346296,51.3426427 133.126903,51.7507453 134.86772,52.2465393 C135.978527,52.5635777 136.625116,53.7406669 136.313427,54.8739104 C136.051476,55.8115345 135.212568,56.4253748 134.297395,56.4253748 M146.085213,61.5384615 C145.72047,61.5384615 145.352412,61.4440246 145.020828,61.2450324 C143.67128,60.4355728 142.199046,59.6429769 140.60081,58.9009722 C139.546373,58.4119236 139.085471,57.1505157 139.562952,56.0813544 C140.047065,55.0088204 141.300453,54.5400083 142.334996,55.0256841 C143.973022,55.7879253 145.594468,56.6446034 147.146282,57.575482 C148.14435,58.1758312 148.475935,59.4810849 147.885715,60.4929095 C147.494445,61.1674592 146.798119,61.5384615 146.085213,61.5384615" id="Fill-18"></path>
                <path d="M118.684015,54.2510121 C117.576769,54.2510121 116.654614,53.4202582 116.601731,52.3557559 C116.545542,51.2533485 117.428034,50.3183554 118.581554,50.2646565 C119.526844,50.2204339 120.614259,50.1856875 121.830578,50.2109576 C122.984097,50.2267514 123.902946,51.1301569 123.88642,52.2325642 C123.866589,53.3318129 122.884941,54.0456927 121.774389,54.1973132 C120.657227,54.1783607 119.659053,54.2067895 118.786477,54.2478534 C118.753425,54.2510121 118.717067,54.2510121 118.684015,54.2510121" id="Fill-20"></path>
            </g>
        </g>
    </g>
</svg>