<?xml version="1.0" encoding="UTF-8"?>
<svg width="200px" height="197px" viewBox="0 0 200 197" version="1.1" xmlns="http://www.w3.org/2000/svg" xmlns:xlink="http://www.w3.org/1999/xlink">
    <!-- Generator: Sketch 48.2 (47327) - http://www.bohemiancoding.com/sketch -->
    <title>story_emoji_3_1</title>
    <desc>Created with Sketch.</desc>
    <defs>
        <polygon id="path-1" points="199.880007 0.116129032 0.00130449817 0.116129032 0.00130449817 196.772903 199.880007 196.772903 199.880007 0.116129032"></polygon>
    </defs>
    <g id="The-End-3.1" stroke="none" stroke-width="1" fill="none" fill-rule="evenodd" transform="translate(-299.000000, -296.000000)">
        <g id="Group-6" transform="translate(299.000000, 293.000000)">
            <g id="Page-1">
                <path d="M101.705574,151.439677 C108.292459,151.439677 114.158033,152.59129 119.220328,154.871935 C114.751475,148.604194 108.580984,145.110645 101.705574,145.110645 C94.8334426,145.110645 88.6596721,148.607419 84.1908197,154.871935 C89.2563934,152.59129 95.1186885,151.439677 101.705574,151.439677 M123.587541,161.652581 C123.076066,161.652581 122.561311,161.500968 122.121967,161.194516 C116.725246,157.423548 109.859672,155.510645 101.705574,155.510645 C93.5547541,155.510645 86.6859016,157.423548 81.292459,161.194516 C80.3547541,161.846129 79.0859016,161.797742 78.2039344,161.075161 C77.3252459,160.352581 77.0531148,159.136452 77.5383607,158.120323 C82.6236066,147.423548 91.6596721,141.036452 101.705574,141.036452 C111.751475,141.036452 120.79082,147.423548 125.876066,158.120323 C126.361311,159.136452 126.085902,160.352581 125.210492,161.075161 C124.741639,161.459032 124.16459,161.652581 123.587541,161.652581" id="Fill-1" fill="#FFFFFE"></path>
                <g id="Group-5" transform="translate(0.000000, 3.110968)">
                    <mask id="mask-2" fill="white">
                        <use xlink:href="#path-1"></use>
                    </mask>
                    <g id="Clip-4"></g>
                    <path d="M99.9390164,4.95354839 C74.5685246,4.95354839 50.7160656,14.6696774 32.7685246,32.3148387 C14.8177049,49.9696774 4.92590164,73.443871 4.91934426,98.4180645 C4.9095082,123.389032 14.7881967,146.869677 32.7291803,164.534194 C50.6701639,182.195484 74.5291803,191.927742 99.9127869,191.934194 L99.9422951,191.934194 C125.312787,191.934194 149.168525,182.218065 167.112787,164.572903 C185.063607,146.92129 194.95541,123.443871 194.961967,98.4729032 C194.971803,73.5019355 185.096393,50.0212903 167.152131,32.3567742 C149.211148,14.6922581 125.348852,4.96 99.9685246,4.95354839 L99.9390164,4.95354839 Z M99.9422951,196.772903 L99.9127869,196.772903 C73.2144262,196.766452 48.1193443,186.530968 29.2504918,167.953548 C10.3816393,149.376129 -0.00852459016,124.679355 0.00131147541,98.4180645 C0.00786885246,72.1503226 10.4111475,47.46 29.2931148,28.8954839 C48.1652459,10.3341935 73.2570492,0.11483871 99.9390164,0.11483871 L99.9685246,0.11483871 C126.666885,0.121290323 151.761967,10.3567742 170.63082,28.9374194 C189.502951,47.5148387 199.889836,72.2116129 199.88,98.4729032 C199.873443,124.740645 189.470164,149.430968 170.588197,167.995484 C151.716066,186.553548 126.624262,196.772903 99.9422951,196.772903 Z" id="Fill-3" fill="#FFFFFE" mask="url(#mask-2)"></path>
                </g>
                <path d="M105.924262,139.496129 C105.924262,139.489677 105.924262,139.483226 105.924262,139.476774 C105.924262,139.483226 105.924262,139.489677 105.924262,139.496129" id="Fill-6" fill="#FFFFFE"></path>
                <path d="M66.6334426,76.4183871 C63.1285246,76.4183871 60.1678689,81.0248387 60.1678689,86.4764516 C60.1678689,91.9280645 63.1285246,96.5345161 66.6334426,96.5345161 C70.1383607,96.5345161 73.0990164,91.9280645 73.0990164,86.4764516 C73.0990164,81.0248387 70.1383607,76.4183871 66.6334426,76.4183871 M66.6334426,100.60871 C60.6859016,100.60871 56.0301639,94.3990323 56.0301639,86.4764516 C56.0301639,78.553871 60.6859016,72.3474194 66.6334426,72.3474194 C72.5777049,72.3474194 77.2367213,78.553871 77.2367213,86.4764516 C77.2367213,94.3990323 72.5777049,100.60871 66.6334426,100.60871" id="Fill-8" fill="#FFFFFE"></path>
                <path d="M128.775082,76.4183871 C125.270164,76.4183871 122.30623,81.0248387 122.30623,86.4764516 C122.30623,91.9280645 125.270164,96.5345161 128.775082,96.5345161 C132.28,96.5345161 135.237377,91.9280645 135.237377,86.4764516 C135.237377,81.0248387 132.28,76.4183871 128.775082,76.4183871 M128.775082,100.60871 C122.83082,100.60871 118.168525,94.3990323 118.168525,86.4764516 C118.168525,78.553871 122.83082,72.3474194 128.775082,72.3474194 C134.722623,72.3474194 139.378361,78.553871 139.378361,86.4764516 C139.378361,94.3990323 134.722623,100.60871 128.775082,100.60871" id="Fill-10" fill="#FFFFFE"></path>
                <path d="M58.7731148,110.788387 C57.6288525,110.788387 56.7042623,109.87871 56.7042623,108.752903 L56.7042623,102.643226 C56.7042623,101.517419 57.6288525,100.607742 58.7731148,100.607742 C59.917377,100.607742 60.8419672,101.517419 60.8419672,102.643226 L60.8419672,108.752903 C60.8419672,109.87871 59.917377,110.788387 58.7731148,110.788387 M58.7731148,125.856129 C57.6288525,125.856129 56.7042623,124.946452 56.7042623,123.820645 L56.7042623,117.710968 C56.7042623,116.588387 57.6288525,115.675484 58.7731148,115.675484 C59.917377,115.675484 60.8419672,116.588387 60.8419672,117.710968 L60.8419672,123.820645 C60.8419672,124.946452 59.917377,125.856129 58.7731148,125.856129 M58.7731148,140.927097 C57.6288525,140.927097 56.7042623,140.017419 56.7042623,138.891613 L56.7042623,132.781935 C56.7042623,131.656129 57.6288525,130.746452 58.7731148,130.746452 C59.917377,130.746452 60.8419672,131.656129 60.8419672,132.781935 L60.8419672,138.891613 C60.8419672,140.017419 59.917377,140.927097 58.7731148,140.927097 M58.7731148,155.991613 C57.6288525,155.991613 56.7042623,155.081935 56.7042623,153.956129 L56.7042623,147.846452 C56.7042623,146.720645 57.6288525,145.810968 58.7731148,145.810968 C59.917377,145.810968 60.8419672,146.720645 60.8419672,147.846452 L60.8419672,153.956129 C60.8419672,155.081935 59.917377,155.991613 58.7731148,155.991613 M58.7731148,171.062581 C57.6288525,171.062581 56.7042623,170.149677 56.7042623,169.023871 L56.7042623,162.917419 C56.7042623,161.791613 57.6288525,160.87871 58.7731148,160.87871 C59.917377,160.87871 60.8419672,161.791613 60.8419672,162.917419 L60.8419672,169.023871 C60.8419672,170.149677 59.917377,171.062581 58.7731148,171.062581 M58.7731148,186.130323 C57.6288525,186.130323 56.7042623,185.220645 56.7042623,184.094839 L56.7042623,177.985161 C56.7042623,176.859355 57.6288525,175.949677 58.7731148,175.949677 C59.917377,175.949677 60.8419672,176.859355 60.8419672,177.985161 L60.8419672,184.094839 C60.8419672,185.220645 59.917377,186.130323 58.7731148,186.130323" id="Fill-12" fill="#FFFFFE"></path>
                <path d="M67.5691803,120.969677 C66.424918,120.969677 65.5003279,120.06 65.5003279,118.934194 L65.5003279,112.824516 C65.5003279,111.69871 66.424918,110.789032 67.5691803,110.789032 C68.7134426,110.789032 69.6380328,111.69871 69.6380328,112.824516 L69.6380328,118.934194 C69.6380328,120.06 68.7134426,120.969677 67.5691803,120.969677 M67.5691803,136.037419 C66.424918,136.037419 65.5003279,135.127742 65.5003279,134.001935 L65.5003279,127.892258 C65.5003279,126.769677 66.424918,125.856774 67.5691803,125.856774 C68.7134426,125.856774 69.6380328,126.769677 69.6380328,127.892258 L69.6380328,134.001935 C69.6380328,135.127742 68.7134426,136.037419 67.5691803,136.037419 M67.5691803,151.108387 C66.424918,151.108387 65.5003279,150.19871 65.5003279,149.072903 L65.5003279,142.963226 C65.5003279,141.837419 66.424918,140.927742 67.5691803,140.927742 C68.7134426,140.927742 69.6380328,141.837419 69.6380328,142.963226 L69.6380328,149.072903 C69.6380328,150.19871 68.7134426,151.108387 67.5691803,151.108387 M67.5691803,166.172903 C66.424918,166.172903 65.5003279,165.263226 65.5003279,164.137419 L65.5003279,158.027742 C65.5003279,156.901935 66.424918,155.992258 67.5691803,155.992258 C68.7134426,155.992258 69.6380328,156.901935 69.6380328,158.027742 L69.6380328,164.137419 C69.6380328,165.263226 68.7134426,166.172903 67.5691803,166.172903 M67.5691803,181.243871 C66.424918,181.243871 65.5003279,180.330968 65.5003279,179.205161 L65.5003279,173.09871 C65.5003279,171.972903 66.424918,171.06 67.5691803,171.06 C68.7134426,171.06 69.6380328,171.972903 69.6380328,173.09871 L69.6380328,179.205161 C69.6380328,180.330968 68.7134426,181.243871 67.5691803,181.243871 M67.5691803,196.311613 C66.424918,196.311613 65.5003279,195.401935 65.5003279,194.276129 L65.5003279,188.166452 C65.5003279,187.040645 66.424918,186.130968 67.5691803,186.130968 C68.7134426,186.130968 69.6380328,187.040645 69.6380328,188.166452 L69.6380328,194.276129 C69.6380328,195.401935 68.7134426,196.311613 67.5691803,196.311613" id="Fill-14" fill="#FFFFFE"></path>
                <path d="M112.477049,61.7787097 C111.621311,61.7787097 110.814754,61.2496774 110.519672,60.4077419 C110.14918,59.3432258 110.722951,58.1851613 111.801639,57.8174194 C112.686885,57.5174194 113.716393,57.1948387 114.877049,56.8787097 C115.978689,56.5883871 117.116393,57.2174194 117.42459,58.2980645 C117.729508,59.3819355 117.080328,60.5045161 115.978689,60.8045161 C114.913115,61.0948387 113.965574,61.3916129 113.152459,61.6658065 C112.929508,61.7432258 112.7,61.7787097 112.477049,61.7787097" id="Fill-16" fill="#FFFFFE"></path>
                <path d="M122.829508,59.46 C121.793443,59.46 120.901639,58.6954839 120.777049,57.6567742 C120.645902,56.5406452 121.459016,55.5309677 122.593443,55.4019355 C124.268852,55.2116129 126.055738,55.0890323 127.940984,55.0632258 C129.108197,54.9083871 130.02623,55.9470968 130.036066,57.0729032 C130.04918,58.1987097 129.134426,59.1212903 127.990164,59.1374194 C126.255738,59.1567742 124.606557,59.2696774 123.072131,59.4470968 C122.990164,59.4567742 122.911475,59.46 122.829508,59.46 M140.55082,60.6212903 C140.383607,60.6212903 140.209836,60.6019355 140.042623,60.56 C138.537705,60.1825806 136.92459,59.8567742 135.203279,59.6116129 C134.07541,59.4503226 133.291803,58.4148387 133.452459,57.3051613 C133.616393,56.1858065 134.685246,55.4083871 135.8,55.5825806 C137.563934,55.8341935 139.334426,56.1825806 141.059016,56.6116129 C142.167213,56.8890323 142.839344,57.9954839 142.554098,59.0858065 C142.318033,60.0083871 141.47541,60.6212903 140.55082,60.6212903" id="Fill-18" fill="#FFFFFE"></path>
                <path d="M150.547213,64.296129 C150.232459,64.296129 149.911148,64.2251613 149.612787,64.0767742 C148.845574,63.696129 147.947213,63.2767742 146.934098,62.8509677 C145.881639,62.4058065 145.393115,61.2122581 145.842295,60.1767742 C146.291475,59.1445161 147.520984,58.6606452 148.557049,59.1025806 C149.661967,59.5703226 150.639016,60.0251613 151.481639,60.4412903 C152.501311,60.9477419 152.907869,62.1735484 152.393115,63.18 C152.02918,63.8864516 151.301311,64.296129 150.547213,64.296129" id="Fill-20" fill="#FFFFFE"></path>
                <path d="M86.0442623,61.7787097 C85.8213115,61.7787097 85.5918033,61.7432258 85.3688525,61.6658065 C84.5557377,61.3916129 83.6114754,61.0948387 82.542623,60.8045161 C81.4409836,60.5045161 80.7918033,59.3851613 81.0967213,58.3012903 C81.404918,57.2174194 82.5262295,56.5851613 83.6442623,56.8787097 C84.8081967,57.1948387 85.8344262,57.5174194 86.7196721,57.8174194 C87.7983607,58.1851613 88.3721311,59.3432258 88.0016393,60.4077419 C87.7065574,61.2496774 86.9,61.7787097 86.0442623,61.7787097" id="Fill-22" fill="#FFFFFE"></path>
                <path d="M75.6918033,59.46 C75.6131148,59.46 75.5311475,59.4567742 75.452459,59.4470968 C73.9147541,59.2696774 72.2688525,59.1567742 70.5311475,59.1374194 C69.3868852,59.1245161 68.4721311,58.2019355 68.4852459,57.0793548 C68.495082,55.9632258 69.4229508,55.0664516 70.5540984,55.0664516 L70.5770492,55.0664516 C72.3442623,55.0858065 74.147541,55.1987097 75.9278689,55.4019355 C77.0655738,55.5309677 77.8754098,56.5406452 77.7442623,57.6567742 C77.6229508,58.6954839 76.7278689,59.46 75.6918033,59.46 M57.9737705,60.6212903 C57.0491803,60.6212903 56.2065574,60.0083871 55.9704918,59.0858065 C55.6885246,57.9954839 56.3606557,56.8890323 57.4655738,56.6116129 C59.1901639,56.1825806 60.9606557,55.8341935 62.7278689,55.5825806 C63.8622951,55.3954839 64.9081967,56.1922581 65.0721311,57.3051613 C65.2393443,58.4180645 64.4557377,59.4503226 63.3213115,59.6116129 C61.6,59.8567742 59.9868852,60.1825806 58.4852459,60.5567742 C58.3147541,60.6019355 58.1442623,60.6212903 57.9737705,60.6212903" id="Fill-24" fill="#FFFFFE"></path>
                <path d="M47.9757377,64.296129 C47.2183607,64.296129 46.4872131,63.8864516 46.1232787,63.1767742 C45.6118033,62.1735484 46.0216393,60.9477419 47.0413115,60.4412903 C47.8839344,60.0251613 48.8609836,59.5703226 49.962623,59.1025806 C51.0085246,58.663871 52.2281967,59.1412903 52.6806557,60.1767742 C53.1298361,61.2122581 52.6413115,62.4058065 51.5888525,62.8509677 C50.5757377,63.2767742 49.677377,63.696129 48.9068852,64.08 C48.6052459,64.2251613 48.2904918,64.296129 47.9757377,64.296129" id="Fill-26" fill="#FFFFFE"></path>
            </g>
        </g>
    </g>
</svg>