<?xml version="1.0" encoding="UTF-8"?>
<svg width="200px" height="200px" viewBox="0 0 200 200" version="1.1" xmlns="http://www.w3.org/2000/svg" xmlns:xlink="http://www.w3.org/1999/xlink">
    <!-- Generator: Sketch 48.2 (47327) - http://www.bohemiancoding.com/sketch -->
    <title>story_emoji_2_1</title>
    <desc>Created with Sketch.</desc>
    <defs></defs>
    <g id="The-End-2.1" stroke="none" stroke-width="1" fill="none" fill-rule="evenodd" transform="translate(-299.000000, -293.000000)">
        <g id="Group-5" transform="translate(299.000000, 293.000000)" fill="#FFFFFE">
            <g id="Page-1">
                <g id="Group-3">
                    <path d="M99.9406557,5.01155809 C47.5472131,5.01155809 4.91770492,47.4524562 4.91770492,99.6213656 C4.91770492,151.79354 47.5472131,194.234438 99.9406557,194.234438 C152.334098,194.234438 194.963607,151.79354 194.963607,99.6213656 C194.963607,47.4524562 152.334098,5.01155809 99.9406557,5.01155809 M99.9406557,199.131088 C44.832459,199.131088 -0.000327868852,154.489962 -0.000327868852,99.6213656 C-0.000327868852,44.7560342 44.832459,0.114908054 99.9406557,0.114908054 C155.048852,0.114908054 199.881639,44.7560342 199.881639,99.6213656 C199.881639,154.489962 155.048852,199.131088 99.9406557,199.131088" id="Fill-1"></path>
                </g>
                <path d="M102.183406,140.02087 C102.183406,140.013913 102.183406,140.006957 102.183406,140 C102.183406,140.006957 102.183406,140.013913 102.183406,140.02087" id="Fill-4"></path>
                <path d="M136.681223,78.0610996 C132.476027,78.0610996 129.056416,81.4663185 129.056416,85.6505305 C129.056416,89.8380293 132.476027,93.2399613 136.681223,93.2399613 C140.886419,93.2399613 144.302728,89.8380293 144.302728,85.6505305 C144.302728,81.4663185 140.886419,78.0610996 136.681223,78.0610996 M136.681223,97.3913043 C130.181983,97.3913043 124.89083,92.1224184 124.89083,85.6505305 C124.89083,79.1786425 130.181983,73.9130435 136.681223,73.9130435 C143.183763,73.9130435 148.471616,79.1786425 148.471616,85.6505305 C148.471616,92.1224184 143.183763,97.3913043 136.681223,97.3913043" id="Fill-6"></path>
                <path d="M59.8253275,78.0610996 C55.6201313,78.0610996 52.2005213,81.4663185 52.2005213,85.6505305 C52.2005213,89.8380293 55.6201313,93.2399613 59.8253275,93.2399613 C64.0305237,93.2399613 67.446833,89.8380293 67.446833,85.6505305 C67.446833,81.4663185 64.0305237,78.0610996 59.8253275,78.0610996 M59.8253275,97.3913043 C53.3260879,97.3913043 48.0349345,92.1224184 48.0349345,85.6505305 C48.0349345,79.1786425 53.3260879,73.9130435 59.8253275,73.9130435 C66.3278679,73.9130435 71.6157205,79.1786425 71.6157205,85.6505305 C71.6157205,92.1224184 66.3278679,97.3913043 59.8253275,97.3913043" id="Fill-8"></path>
                <path d="M97.0650171,149.841758 C104.878325,149.841758 112.691633,150.408943 120.446268,151.546534 C122.203203,151.756005 123.85257,150.657086 124.168753,148.994205 C124.608802,146.670683 122.072818,145.471862 120.961288,145.049696 C105.647595,139.22639 91.6344909,139.139379 75.5254513,144.7371 C74.6583925,145.036806 71.8616389,146.187287 72.2364952,148.317451 C72.5820148,150.289705 74.2346419,151.475636 75.9785384,151.22427 C82.9769415,150.302595 90.0209793,149.841758 97.0650171,149.841758 M120.954769,155.652174 C120.589691,155.652174 120.218095,155.62317 119.846498,155.571608 C105.478095,153.46078 90.9010765,153.360879 76.5196352,155.255789 L76.5163756,155.262235 C72.572236,155.784302 68.9116833,153.170743 68.236942,149.319691 C67.56872,145.504088 69.8569729,142.397465 74.1596707,140.898939 C91.2596347,134.94995 106.146317,135.062742 122.441155,141.250206 C126.688439,142.86797 128.924538,146.003597 128.272614,149.438929 C127.558758,153.199747 124.475158,155.652174 120.954769,155.652174" id="Fill-10"></path>
                <path d="M43.8022734,41.7391304 C43.0153584,41.7391304 42.2820966,41.2279837 42.0197916,40.4089174 C41.6889296,39.3927824 42.2195011,38.2904299 43.2061257,37.9517182 L44.8067824,37.3913043 L45.6831196,39.1402882 L46.2882096,40.9785688 L44.3984212,41.6405961 C44.2016924,41.7083385 43.9990022,41.7391304 43.8022734,41.7391304" id="Fill-12"></path>
                <path d="M64.692105,34.3200826 C63.8295692,34.3200826 63.0227868,33.786767 62.730902,32.9500683 C62.3635865,31.8930176 62.9473559,30.7497423 64.029625,30.3952631 L68.8768791,28.7953163 C69.9788259,28.4568047 71.1398055,29.0060878 71.5038415,30.0567514 C71.8744367,31.1106085 71.2939469,32.2570774 70.2116777,32.6147501 L65.3545849,34.2146969 C65.1348514,34.284954 64.9118384,34.3200826 64.692105,34.3200826 M52.7248317,38.2608696 C51.8622959,38.2608696 51.0555135,37.7307475 50.7636287,36.8908553 C50.3995928,35.8369981 50.9800826,34.6905293 52.0656313,34.3360501 L56.9096058,32.7361033 C58.008273,32.3975917 59.1692526,32.9468748 59.5365682,33.9975384 C59.9071634,35.0513955 59.3266736,36.1978644 58.2444044,36.5555371 L53.3873116,38.1554839 C53.1675781,38.225741 52.9445651,38.2608696 52.7248317,38.2608696" id="Fill-14"></path>
                <path d="M77.1460606,31.3043478 C76.2972516,31.3043478 75.5065361,30.7209384 75.2192965,29.7910192 C74.8545992,28.6242005 75.4258508,27.3548431 76.4876689,26.9588319 L78.5306197,26.1986318 C79.60212,25.8202996 80.7543055,26.4319955 81.1157755,27.5988143 C81.4740181,28.7620972 80.9027664,30.0314546 79.8409484,30.4274658 L77.8012249,31.1876659 C77.5849884,31.2654539 77.3622971,31.3043478 77.1460606,31.3043478" id="Fill-16"></path>
                <path d="M154.246191,41.7391304 C154.028184,41.7391304 153.806873,41.7037804 153.585562,41.6260104 L151.752315,40.9649651 C150.662277,40.56551 149.948797,39.2504895 150.315446,38.087474 C150.685399,36.9173886 151.715981,36.2351333 152.829141,36.6381235 L154.906821,37.3910787 C155.996859,37.7799289 156.588123,39.0454594 156.224776,40.2120098 C155.930796,41.1452502 155.121525,41.7391304 154.246191,41.7391304" id="Fill-18"></path>
                <path d="M132.68738,34.3208408 C132.47094,34.3208408 132.244661,34.285719 132.024941,34.2154754 L127.168148,32.6158365 C126.085946,32.2582326 125.505492,31.1119843 125.876064,30.05833 C126.243357,29.0014827 127.414103,28.4554982 128.502864,28.7971376 L133.349819,30.3967765 C134.432021,30.7511875 135.015755,31.8942429 134.648462,32.9510901 C134.356595,33.7876278 133.549863,34.3208408 132.68738,34.3208408 M144.653914,38.2608696 C144.437474,38.2608696 144.211195,38.2257478 143.994755,38.1555041 L139.137962,36.5558652 C138.05576,36.1982613 137.475306,35.0520131 137.845878,33.9983587 C138.209891,32.9478972 139.380638,32.3955269 140.469399,32.7371664 L145.316353,34.3368053 C146.398556,34.6912163 146.982289,35.8374645 146.614996,36.8911189 C146.326409,37.7308495 145.519676,38.2608696 144.653914,38.2608696" id="Fill-20"></path>
                <path d="M121.106128,31.3043478 C120.889776,31.3043478 120.666966,31.2654693 120.450614,31.1877123 L118.409802,30.427814 C117.347417,30.03196 116.775861,28.7631065 117.140753,27.596751 C117.502416,26.426861 118.658445,25.8189424 119.724059,26.2006588 L121.764871,26.9605571 C122.827255,27.3564111 123.398812,28.6252645 123.03392,29.79162 C122.746527,30.7211701 121.955389,31.3043478 121.106128,31.3043478" id="Fill-22"></path>
            </g>
        </g>
    </g>
</svg>