<?xml version="1.0" encoding="UTF-8"?>
<svg width="200px" height="197px" viewBox="0 0 200 197" version="1.1" xmlns="http://www.w3.org/2000/svg" xmlns:xlink="http://www.w3.org/1999/xlink">
    <!-- Generator: Sketch 48.2 (47327) - http://www.bohemiancoding.com/sketch -->
    <title>story_emoji_1_2</title>
    <desc>Created with Sketch.</desc>
    <defs></defs>
    <g id="The-End-1.2" stroke="none" stroke-width="1" fill="none" fill-rule="evenodd" transform="translate(-299.000000, -296.000000)">
        <g id="Group-5" transform="translate(299.000000, 293.000000)" fill="#FFFFFE">
            <g id="Page-1">
                <g id="Group-3" transform="translate(0.000000, 3.163279)">
                    <path d="M99.9396667,5.03344262 C47.5896667,5.03344262 4.99966667,46.9252459 4.99966667,98.4170492 C4.99966667,149.912131 47.5896667,191.803934 99.9396667,191.803934 C152.289667,191.803934 194.879667,149.912131 194.879667,98.4170492 C194.879667,46.9252459 152.289667,5.03344262 99.9396667,5.03344262 M99.9396667,196.721967 C44.833,196.721967 -0.000333333333,152.623607 -0.000333333333,98.4170492 C-0.000333333333,44.2137705 44.833,0.115409836 99.9396667,0.115409836 C155.046333,0.115409836 199.879667,44.2137705 199.879667,98.4170492 C199.879667,152.623607 155.046333,196.721967 99.9396667,196.721967" id="Fill-1"></path>
                </g>
                <path d="M102.887333,144.100656 C102.887333,144.094098 102.887333,144.087541 102.884,144.077705 C102.887333,144.087541 102.887333,144.094098 102.887333,144.100656" id="Fill-4"></path>
                <path d="M102.943667,144.987869 C102.940333,144.879672 102.933667,144.771475 102.927,144.66 C102.933667,144.774754 102.940333,144.882951 102.943667,144.987869" id="Fill-6"></path>
                <path d="M121.902667,142.194098 C121.902667,142.197377 121.899333,142.197377 121.896,142.200656 C121.899333,142.197377 121.902667,142.197377 121.902667,142.194098 M75.5126667,142.197377 C75.516,142.200656 75.516,142.200656 75.5226667,142.200656 C75.516,142.200656 75.516,142.200656 75.5126667,142.197377 M80.8993333,145.249836 C85.4393333,151.617049 91.716,155.167869 98.706,155.167869 C105.696,155.167869 111.972667,151.617049 116.512667,145.246557 C111.366,147.56459 105.399333,148.735082 98.706,148.735082 C92.0126667,148.735082 86.046,147.56459 80.8993333,145.249836 M98.706,159.305574 C88.4893333,159.305574 79.3026667,152.817049 74.136,141.944918 C73.6393333,140.905574 73.9226667,139.669508 74.8193333,138.938361 C75.7126667,138.203934 77.0026667,138.158033 77.9526667,138.826885 C83.4326667,142.653115 90.416,144.597377 98.706,144.597377 C106.996,144.597377 113.976,142.653115 119.462667,138.823607 C120.406,138.154754 121.692667,138.203934 122.596,138.938361 C123.492667,139.669508 123.769333,140.905574 123.279333,141.941639 C118.109333,152.817049 108.922667,159.305574 98.706,159.305574" id="Fill-8"></path>
                <path d="M67.7313333,94.1832787 C64.1713333,94.1832787 61.1613333,98.8652459 61.1613333,104.40623 C61.1613333,109.947213 64.1713333,114.62918 67.7313333,114.62918 C71.2946667,114.62918 74.3046667,109.947213 74.3046667,104.40623 C74.3046667,98.8652459 71.2946667,94.1832787 67.7313333,94.1832787 M67.7313333,118.770164 C61.6846667,118.770164 56.9513333,112.461967 56.9513333,104.40623 C56.9513333,96.3537705 61.6846667,90.0455738 67.7313333,90.0455738 C73.7746667,90.0455738 78.5113333,96.3537705 78.5113333,104.40623 C78.5113333,112.461967 73.7746667,118.770164 67.7313333,118.770164" id="Fill-10"></path>
                <path d="M40.5106667,89.8177049 C40.0773333,89.8177049 39.6373333,89.6865574 39.2606667,89.4111475 C38.3273333,88.732459 38.1306667,87.437377 38.8206667,86.5160656 C39.3873333,85.7652459 40.064,84.9095082 40.854,83.9881967 C41.5973333,83.1160656 42.924,83.0013115 43.8206667,83.7455738 C44.7073333,84.48 44.8173333,85.7881967 44.0673333,86.6603279 C43.344,87.5062295 42.724,88.2865574 42.204,88.9783607 C41.794,89.5259016 41.1573333,89.8177049 40.5106667,89.8177049" id="Fill-12"></path>
                <path d="M58.5686667,75.0088525 C57.792,75.0088525 57.0453333,74.5859016 56.6786667,73.8514754 C56.1653333,72.8252459 56.5953333,71.5859016 57.6386667,71.0809836 C59.3653333,70.2481967 61.042,69.5531148 62.6486667,68.9695082 C63.732,68.5727869 64.9486667,69.1236066 65.352,70.1957377 C65.7553333,71.2678689 65.1953333,72.4580328 64.1053333,72.8547541 C62.6286667,73.3891803 61.082,74.0285246 59.4953333,74.7957377 C59.1953333,74.94 58.8786667,75.0088525 58.5686667,75.0088525 M47.842,82.0219672 C47.2553333,82.0219672 46.672,81.782623 46.2553333,81.3104918 C45.492,80.4514754 45.5853333,79.1432787 46.462,78.392459 C47.832,77.2154098 49.2753333,76.1039344 50.7553333,75.0842623 C51.7086667,74.4318033 53.0153333,74.6613115 53.6853333,75.592459 C54.352,76.5301639 54.122,77.8186885 53.172,78.4777049 C51.7253333,79.4744262 50.412,80.497377 49.222,81.5137705 C48.8253333,81.8547541 48.3353333,82.0219672 47.842,82.0219672" id="Fill-14"></path>
                <path d="M70.8133333,70.9242623 C69.83,70.9242623 68.95,70.2455738 68.7533333,69.2619672 C68.5233333,68.1406557 69.2633333,67.0488525 70.4033333,66.8259016 C71.6,66.5898361 72.6833333,66.4193443 73.6333333,66.2947541 C74.7733333,66.1406557 75.8433333,66.937377 76.0033333,68.0685246 C76.1566667,69.1996721 75.35,70.2422951 74.1966667,70.3963934 C73.3233333,70.5111475 72.3266667,70.6685246 71.2266667,70.884918 C71.09,70.9111475 70.95,70.9242623 70.8133333,70.9242623" id="Fill-16"></path>
                <path d="M114.661333,92.9786885 C113.788,92.9786885 112.971333,92.4409836 112.671333,91.5852459 C112.291333,90.5065574 112.874667,89.3262295 113.974667,88.952459 C114.874667,88.647541 115.921333,88.3196721 117.101333,88.0016393 C118.214667,87.7032787 119.381333,88.3459016 119.691333,89.447541 C120.001333,90.5459016 119.341333,91.6868852 118.221333,91.9918033 C117.138,92.2868852 116.174667,92.5852459 115.348,92.8672131 C115.121333,92.942623 114.888,92.9786885 114.661333,92.9786885" id="Fill-18"></path>
                <path d="M125.186333,90.6222951 C124.133,90.6222951 123.223,89.8452459 123.099667,88.7895082 C122.966333,87.655082 123.789667,86.6288525 124.946333,86.4977049 C126.756333,86.2911475 128.589667,86.1763934 130.386333,86.1567213 L130.409667,86.1567213 C131.559667,86.1567213 132.503,87.0681967 132.513,88.202623 C132.526333,89.3436066 131.596333,90.2813115 130.433,90.2944262 C128.666333,90.3140984 126.993,90.4288525 125.429667,90.6091803 C125.349667,90.6190164 125.266333,90.6222951 125.186333,90.6222951 M143.199667,91.7993443 C143.029667,91.7993443 142.853,91.7796721 142.679667,91.7370492 C141.153,91.3567213 139.513,91.0255738 137.763,90.7731148 C136.613,90.6091803 135.813,89.56 135.983,88.4288525 C136.146333,87.2944262 137.209667,86.4813115 138.366333,86.6780328 C140.156333,86.9337705 141.953,87.2845902 143.713,87.7206557 C144.839667,88.002623 145.519667,89.1272131 145.236333,90.2354098 C144.996333,91.1731148 144.139667,91.7993443 143.199667,91.7993443" id="Fill-20"></path>
                <path d="M153.366333,95.5377049 C153.049667,95.5377049 152.726333,95.4655738 152.423,95.3180328 C151.636333,94.9278689 150.726333,94.5016393 149.693,94.0721311 C148.623,93.6229508 148.123,92.4098361 148.579667,91.357377 C149.033,90.304918 150.283,89.8163934 151.339667,90.2622951 C152.463,90.7311475 153.456333,91.1934426 154.313,91.6196721 C155.349667,92.1311475 155.769667,93.3737705 155.249667,94.3967213 C154.879667,95.1213115 154.136333,95.5377049 153.366333,95.5377049" id="Fill-22"></path>
                <path d="M151.371333,110.384918 C151.051333,110.384918 150.731333,110.312787 150.424667,110.161967 C146.768,108.348852 142.521333,106.52918 134.454667,105.942295 C127.784667,105.450492 121.808,106.15541 116.158,108.073443 C115.061333,108.437377 113.861333,107.873443 113.481333,106.791475 C113.101333,105.712787 113.684667,104.532459 114.784667,104.158689 C120.984667,102.057049 127.524667,101.286557 134.764667,101.814426 C143.601333,102.457049 148.458,104.55541 152.321333,106.466885 C153.358,106.981639 153.774667,108.227541 153.251333,109.247213 C152.881333,109.968525 152.141333,110.384918 151.371333,110.384918" id="Fill-24"></path>
            </g>
        </g>
    </g>
</svg>