<?xml version="1.0" encoding="UTF-8"?>
<svg width="200px" height="200px" viewBox="0 0 200 200" version="1.1" xmlns="http://www.w3.org/2000/svg" xmlns:xlink="http://www.w3.org/1999/xlink">
    <!-- Generator: Sketch 48.2 (47327) - http://www.bohemiancoding.com/sketch -->
    <title>story_emoji_3_2</title>
    <desc>Created with Sketch.</desc>
    <defs></defs>
    <g id="The-End-3.2" stroke="none" stroke-width="1" fill="none" fill-rule="evenodd" transform="translate(-299.000000, -293.000000)">
        <g id="Group-5" transform="translate(299.000000, 293.000000)" fill="#FFFFFE">
            <g id="Page-1">
                <g id="Group-3">
                    <path d="M100.250437,5.0347541 C48.0192032,5.0347541 5.52167487,47.6609836 5.52167487,100.057705 C5.52167487,152.454426 48.0192032,195.080656 100.250437,195.080656 C152.481671,195.080656 194.979199,152.454426 194.979199,100.057705 C194.979199,47.6609836 152.481671,5.0347541 100.250437,5.0347541 M100.250437,199.998689 C45.3128539,199.998689 0.618868193,155.165902 0.618868193,100.057705 C0.618868193,44.9495082 45.3128539,0.116721311 100.250437,0.116721311 C155.18802,0.116721311 199.882006,44.9495082 199.882006,100.057705 C199.882006,155.165902 155.18802,199.998689 100.250437,199.998689" id="Fill-1"></path>
                </g>
                <path d="M109.600619,141.012422 C109.600619,141.006211 109.597523,141 109.597523,140.993789 C109.597523,141 109.600619,141.006211 109.600619,141.012422" id="Fill-4"></path>
                <path d="M109.613003,141.925466 C109.609907,141.822981 109.603715,141.720497 109.597523,141.614907 C109.603715,141.723602 109.609907,141.826087 109.613003,141.925466" id="Fill-6"></path>
                <path d="M99.3795232,146.060211 C105.980261,146.060211 111.858171,147.239859 116.931113,149.576025 C112.452862,143.155699 106.269393,139.577103 99.3795232,139.577103 C92.4929392,139.577103 86.3061846,143.159004 81.8279336,149.576025 C86.9041609,147.239859 92.778785,146.060211 99.3795232,146.060211 M121.307511,156.521739 C120.79496,156.521739 120.279123,156.366435 119.838855,156.052523 C114.430783,152.189754 107.550771,150.230283 99.3795232,150.230283 C91.2115615,150.230283 84.328263,152.189754 78.9234774,156.052523 C77.9838004,156.719999 76.7122794,156.670434 75.8284573,155.930263 C74.9479208,155.190092 74.6752173,153.944357 75.1614838,152.903491 C80.2574245,141.946312 89.3124939,135.403727 99.3795232,135.403727 C109.446552,135.403727 118.504907,141.946312 123.600848,152.903491 C124.087115,153.944357 123.811126,155.190092 122.933875,155.930263 C122.464036,156.323479 121.885773,156.521739 121.307511,156.521739" id="Fill-8"></path>
                <path d="M149.622211,104.968944 C149.306069,104.968944 148.989927,104.900374 148.686957,104.746909 C145.074375,102.941238 140.878906,101.129037 132.909491,100.544561 C126.326491,100.061307 120.415292,100.756801 114.833409,102.666959 C113.753257,103.035929 112.561137,102.464515 112.189012,101.390255 C111.813593,100.315995 112.389894,99.140513 113.476632,98.7682771 C119.598592,96.672001 126.072919,95.9079378 133.215754,96.4336394 C141.945886,97.073624 146.747294,99.1633696 150.560758,101.066997 C151.584926,101.579638 151.99657,102.820424 151.479546,103.83591 C151.114006,104.55426 150.382928,104.968944 149.622211,104.968944" id="Fill-10"></path>
                <path d="M52.8556744,104.968944 C52.0949799,104.968944 51.3606298,104.55426 50.9951013,103.83591 C50.4813855,102.817159 50.8930167,101.579638 51.9171552,101.066997 C55.9083316,99.0752085 60.5350666,97.073624 69.2616486,96.4336394 C76.4240319,95.9079378 82.8784096,96.672001 89.0001892,98.7682771 C90.0868956,99.140513 90.6631793,100.315995 90.2877717,101.390255 C89.912364,102.46778 88.7202799,103.04246 87.6434527,102.666959 C82.0650263,100.756801 76.1507088,100.061307 69.5679022,100.544561 C61.6020147,101.129037 57.4033762,102.941238 53.7909006,104.750174 C53.48794,104.900374 53.1718072,104.968944 52.8556744,104.968944" id="Fill-12"></path>
                <path d="M45.5108359,50.7240129 C44.3121881,50.7240129 43.3436533,49.7990831 43.3436533,48.6544005 L43.3436533,42.4422833 C43.3436533,41.2976006 44.3121881,40.3726708 45.5108359,40.3726708 C46.7094837,40.3726708 47.6780186,41.2976006 47.6780186,42.4422833 L47.6780186,48.6544005 C47.6780186,49.7990831 46.7094837,50.7240129 45.5108359,50.7240129 M45.5108359,66.0443929 C44.3121881,66.0443929 43.3436533,65.1194631 43.3436533,63.9747804 L43.3436533,57.7626632 C43.3436533,56.6212605 44.3121881,55.6930508 45.5108359,55.6930508 C46.7094837,55.6930508 47.6780186,56.6212605 47.6780186,57.7626632 L47.6780186,63.9747804 C47.6780186,65.1194631 46.7094837,66.0443929 45.5108359,66.0443929 M45.5108359,81.3647728 C44.3121881,81.3647728 43.3436533,80.439843 43.3436533,79.2951604 L43.3436533,73.0830431 C43.3436533,71.9383605 44.3121881,71.0134307 45.5108359,71.0134307 C46.7094837,71.0134307 47.6780186,71.9383605 47.6780186,73.0830431 L47.6780186,79.2951604 C47.6780186,80.439843 46.7094837,81.3647728 45.5108359,81.3647728 M45.5108359,96.6851528 C44.3121881,96.6851528 43.3436533,95.760223 43.3436533,94.6155403 L43.3436533,88.4034231 C43.3436533,87.2587404 44.3121881,86.3338106 45.5108359,86.3338106 C46.7094837,86.3338106 47.6780186,87.2587404 47.6780186,88.4034231 L47.6780186,94.6155403 C47.6780186,95.760223 46.7094837,96.6851528 45.5108359,96.6851528 M45.5108359,112.008813 C44.3121881,112.008813 43.3436533,111.080603 43.3436533,109.93592 L43.3436533,103.727083 C43.3436533,102.5824 44.3121881,101.654191 45.5108359,101.654191 C46.7094837,101.654191 47.6780186,102.5824 47.6780186,103.727083 L47.6780186,109.93592 C47.6780186,111.080603 46.7094837,112.008813 45.5108359,112.008813 M45.5108359,127.329193 C44.3121881,127.329193 43.3436533,126.404263 43.3436533,125.25958 L43.3436533,119.047463 C43.3436533,117.90278 44.3121881,116.97785 45.5108359,116.97785 C46.7094837,116.97785 47.6780186,117.90278 47.6780186,119.047463 L47.6780186,125.25958 C47.6780186,126.404263 46.7094837,127.329193 45.5108359,127.329193" id="Fill-14"></path>
                <path d="M54.7987616,60.6619011 C53.6001138,60.6619011 52.6315789,59.7369713 52.6315789,58.5922887 L52.6315789,52.3801715 C52.6315789,51.2354888 53.6001138,50.310559 54.7987616,50.310559 C55.9974094,50.310559 56.9659443,51.2354888 56.9659443,52.3801715 L56.9659443,58.5922887 C56.9659443,59.7369713 55.9974094,60.6619011 54.7987616,60.6619011 M54.7987616,75.9822811 C53.6001138,75.9822811 52.6315789,75.0573513 52.6315789,73.9126686 L52.6315789,67.7005514 C52.6315789,66.5591487 53.6001138,65.6309389 54.7987616,65.6309389 C55.9974094,65.6309389 56.9659443,66.5591487 56.9659443,67.7005514 L56.9659443,73.9126686 C56.9659443,75.0573513 55.9974094,75.9822811 54.7987616,75.9822811 M54.7987616,91.302661 C53.6001138,91.302661 52.6315789,90.3777312 52.6315789,89.2330486 L52.6315789,83.0209313 C52.6315789,81.8762487 53.6001138,80.9513189 54.7987616,80.9513189 C55.9974094,80.9513189 56.9659443,81.8762487 56.9659443,83.0209313 L56.9659443,89.2330486 C56.9659443,90.3777312 55.9974094,91.302661 54.7987616,91.302661 M54.7987616,121.946701 C53.6001138,121.946701 52.6315789,121.018491 52.6315789,119.873808 L52.6315789,113.664971 C52.6315789,112.520288 53.6001138,111.592079 54.7987616,111.592079 C55.9974094,111.592079 56.9659443,112.520288 56.9659443,113.664971 L56.9659443,119.873808 C56.9659443,121.018491 55.9974094,121.946701 54.7987616,121.946701 M54.7987616,137.267081 C53.6001138,137.267081 52.6315789,136.342151 52.6315789,135.197468 L52.6315789,128.985351 C52.6315789,127.840668 53.6001138,126.915739 54.7987616,126.915739 C55.9974094,126.915739 56.9659443,127.840668 56.9659443,128.985351 L56.9659443,135.197468 C56.9659443,136.342151 55.9974094,137.267081 54.7987616,137.267081" id="Fill-16"></path>
            </g>
        </g>
    </g>
</svg>