<?xml version="1.0" encoding="UTF-8"?>
<svg width="420px" height="280px" viewBox="0 0 420 280" version="1.1" xmlns="http://www.w3.org/2000/svg" xmlns:xlink="http://www.w3.org/1999/xlink">
    <!-- Generator: Sketch 47.1 (45422) - http://www.bohemiancoding.com/sketch -->
    <title>pistol</title>
    <desc>Created with Sketch.</desc>
    <defs></defs>
    <g id="Page-1" stroke="none" stroke-width="1" fill="none" fill-rule="evenodd">
        <g id="16_Buharin_desktop_share" transform="translate(-815.000000, -1260.000000)" fill="#FF4A68">
            <g id="pistol" transform="translate(815.000000, 1260.000000)">
                <rect id="Rectangle-Copy-12" x="0" y="20" width="20" height="20"></rect>
                <rect id="Rectangle-Copy-35" x="20" y="20" width="20" height="20"></rect>
                <rect id="Rectangle-Copy-34" x="20" y="0" width="20" height="20"></rect>
                <rect id="Rectangle-Copy-14" x="0" y="40" width="20" height="20"></rect>
                <rect id="Rectangle-Copy-36" x="20" y="40" width="20" height="20"></rect>
                <rect id="Rectangle-Copy-22" x="0" y="60" width="20" height="20"></rect>
                <rect id="Rectangle-Copy-37" x="20" y="60" width="20" height="20"></rect>
                <rect id="Rectangle-Copy-40" x="40" y="20" width="20" height="20"></rect>
                <rect id="Rectangle-Copy-39" x="40" y="40" width="20" height="20"></rect>
                <rect id="Rectangle-Copy-38" x="40" y="60" width="20" height="20"></rect>
                <rect id="Rectangle-Copy-43" x="60" y="20" width="20" height="20"></rect>
                <rect id="Rectangle-Copy-42" x="60" y="40" width="20" height="20"></rect>
                <rect id="Rectangle-Copy-41" x="60" y="60" width="20" height="20"></rect>
                <rect id="Rectangle-Copy-46" x="80" y="20" width="20" height="20"></rect>
                <rect id="Rectangle-Copy-45" x="80" y="40" width="20" height="20"></rect>
                <rect id="Rectangle-Copy-44" x="80" y="60" width="20" height="20"></rect>
                <rect id="Rectangle-Copy-49" x="100" y="20" width="20" height="20"></rect>
                <rect id="Rectangle-Copy-48" x="100" y="40" width="20" height="20"></rect>
                <rect id="Rectangle-Copy-47" x="100" y="60" width="20" height="20"></rect>
                <rect id="Rectangle-Copy-96" x="100" y="80" width="20" height="20"></rect>
                <rect id="Rectangle-Copy-52" x="120" y="20" width="20" height="20"></rect>
                <rect id="Rectangle-Copy-51" x="120" y="40" width="20" height="20"></rect>
                <rect id="Rectangle-Copy-50" x="120" y="60" width="20" height="20"></rect>
                <rect id="Rectangle-Copy-97" x="120" y="80" width="20" height="20"></rect>
                <rect id="Rectangle-Copy-55" x="140" y="20" width="20" height="20"></rect>
                <rect id="Rectangle-Copy-54" x="140" y="40" width="20" height="20"></rect>
                <rect id="Rectangle-Copy-53" x="140" y="60" width="20" height="20"></rect>
                <rect id="Rectangle-Copy-98" x="140" y="80" width="20" height="20"></rect>
                <rect id="Rectangle-Copy-58" x="160" y="20" width="20" height="20"></rect>
                <rect id="Rectangle-Copy-57" x="160" y="40" width="20" height="20"></rect>
                <rect id="Rectangle-Copy-56" x="160" y="60" width="20" height="20"></rect>
                <rect id="Rectangle-Copy-99" x="160" y="80" width="20" height="20"></rect>
                <rect id="Rectangle-Copy-61" x="180" y="20" width="20" height="20"></rect>
                <rect id="Rectangle-Copy-60" x="180" y="40" width="20" height="20"></rect>
                <rect id="Rectangle-Copy-59" x="180" y="60" width="20" height="20"></rect>
                <rect id="Rectangle-Copy-100" x="180" y="80" width="20" height="20"></rect>
                <rect id="Rectangle-Copy-111" x="180" y="100" width="20" height="20"></rect>
                <rect id="Rectangle-Copy-112" x="180" y="120" width="20" height="20"></rect>
                <rect id="Rectangle-Copy-113" x="180" y="140" width="20" height="20"></rect>
                <rect id="Rectangle-Copy-114" x="200" y="140" width="20" height="20"></rect>
                <rect id="Rectangle-Copy-115" x="220" y="140" width="20" height="20"></rect>
                <rect id="Rectangle-Copy-116" x="240" y="140" width="20" height="20"></rect>
                <rect id="Rectangle-Copy-119" x="260" y="140" width="20" height="20"></rect>
                <rect id="Rectangle-Copy-117" x="240" y="120" width="20" height="20"></rect>
                <rect id="Rectangle-Copy-120" x="260" y="120" width="20" height="20"></rect>
                <rect id="Rectangle-Copy-118" x="240" y="100" width="20" height="20"></rect>
                <rect id="Rectangle-Copy-121" x="260" y="100" width="20" height="20"></rect>
                <rect id="Rectangle-Copy-124" x="280" y="140" width="20" height="20"></rect>
                <rect id="Rectangle-Copy-123" x="280" y="120" width="20" height="20"></rect>
                <rect id="Rectangle-Copy-122" x="280" y="100" width="20" height="20"></rect>
                <rect id="Rectangle-Copy-127" x="300" y="140" width="20" height="20"></rect>
                <rect id="Rectangle-Copy-126" x="300" y="120" width="20" height="20"></rect>
                <rect id="Rectangle-Copy-141" x="300" y="240" width="20" height="20"></rect>
                <rect id="Rectangle-Copy-125" x="300" y="100" width="20" height="20"></rect>
                <rect id="Rectangle-Copy-142" x="300" y="220" width="20" height="20"></rect>
                <rect id="Rectangle-Copy-130" x="320" y="140" width="20" height="20"></rect>
                <rect id="Rectangle-Copy-143" x="320" y="260" width="20" height="20"></rect>
                <rect id="Rectangle-Copy-129" x="320" y="120" width="20" height="20"></rect>
                <rect id="Rectangle-Copy-144" x="320" y="240" width="20" height="20"></rect>
                <rect id="Rectangle-Copy-128" x="320" y="100" width="20" height="20"></rect>
                <rect id="Rectangle-Copy-145" x="320" y="220" width="20" height="20"></rect>
                <rect id="Rectangle-Copy-133" x="340" y="140" width="20" height="20"></rect>
                <rect id="Rectangle-Copy-146" x="340" y="260" width="20" height="20"></rect>
                <rect id="Rectangle-Copy-132" x="340" y="120" width="20" height="20"></rect>
                <rect id="Rectangle-Copy-147" x="340" y="240" width="20" height="20"></rect>
                <rect id="Rectangle-Copy-131" x="340" y="100" width="20" height="20"></rect>
                <rect id="Rectangle-Copy-148" x="340" y="220" width="20" height="20"></rect>
                <rect id="Rectangle-Copy-136" x="360" y="140" width="20" height="20"></rect>
                <rect id="Rectangle-Copy-149" x="360" y="260" width="20" height="20"></rect>
                <rect id="Rectangle-Copy-154" x="380" y="260" width="20" height="20"></rect>
                <rect id="Rectangle-Copy-167" x="380" y="240" width="20" height="20"></rect>
                <rect id="Rectangle-Copy-168" x="380" y="220" width="20" height="20"></rect>
                <rect id="Rectangle-Copy-169" x="380" y="200" width="20" height="20"></rect>
                <rect id="Rectangle-Copy-135" x="360" y="120" width="20" height="20"></rect>
                <rect id="Rectangle-Copy-150" x="360" y="240" width="20" height="20"></rect>
                <rect id="Rectangle-Copy-134" x="360" y="100" width="20" height="20"></rect>
                <rect id="Rectangle-Copy-151" x="360" y="220" width="20" height="20"></rect>
                <rect id="Rectangle-Copy-64" x="200" y="20" width="20" height="20"></rect>
                <rect id="Rectangle-Copy-63" x="200" y="40" width="20" height="20"></rect>
                <rect id="Rectangle-Copy-62" x="200" y="60" width="20" height="20"></rect>
                <rect id="Rectangle-Copy-101" x="200" y="80" width="20" height="20"></rect>
                <rect id="Rectangle-Copy-67" x="220" y="20" width="20" height="20"></rect>
                <rect id="Rectangle-Copy-66" x="220" y="40" width="20" height="20"></rect>
                <rect id="Rectangle-Copy-65" x="220" y="60" width="20" height="20"></rect>
                <rect id="Rectangle-Copy-102" x="220" y="80" width="20" height="20"></rect>
                <rect id="Rectangle-Copy-70" x="240" y="20" width="20" height="20"></rect>
                <rect id="Rectangle-Copy-69" x="240" y="40" width="20" height="20"></rect>
                <rect id="Rectangle-Copy-68" x="240" y="60" width="20" height="20"></rect>
                <rect id="Rectangle-Copy-103" x="240" y="80" width="20" height="20"></rect>
                <rect id="Rectangle-Copy-73" x="260" y="20" width="20" height="20"></rect>
                <rect id="Rectangle-Copy-72" x="260" y="40" width="20" height="20"></rect>
                <rect id="Rectangle-Copy-71" x="260" y="60" width="20" height="20"></rect>
                <rect id="Rectangle-Copy-104" x="260" y="80" width="20" height="20"></rect>
                <rect id="Rectangle-Copy-76" x="280" y="20" width="20" height="20"></rect>
                <rect id="Rectangle-Copy-75" x="280" y="40" width="20" height="20"></rect>
                <rect id="Rectangle-Copy-152" x="280" y="160" width="20" height="20"></rect>
                <rect id="Rectangle-Copy-74" x="280" y="60" width="20" height="20"></rect>
                <rect id="Rectangle-Copy-153" x="280" y="180" width="20" height="20"></rect>
                <rect id="Rectangle-Copy-105" x="280" y="80" width="20" height="20"></rect>
                <rect id="Rectangle-Copy-79" x="300" y="20" width="20" height="20"></rect>
                <rect id="Rectangle-Copy-78" x="300" y="40" width="20" height="20"></rect>
                <rect id="Rectangle-Copy-155" x="300" y="160" width="20" height="20"></rect>
                <rect id="Rectangle-Copy-77" x="300" y="60" width="20" height="20"></rect>
                <rect id="Rectangle-Copy-156" x="300" y="180" width="20" height="20"></rect>
                <rect id="Rectangle-Copy-106" x="300" y="80" width="20" height="20"></rect>
                <rect id="Rectangle-Copy-157" x="300" y="200" width="20" height="20"></rect>
                <rect id="Rectangle-Copy-82" x="320" y="20" width="20" height="20"></rect>
                <rect id="Rectangle-Copy-81" x="320" y="40" width="20" height="20"></rect>
                <rect id="Rectangle-Copy-158" x="320" y="160" width="20" height="20"></rect>
                <rect id="Rectangle-Copy-80" x="320" y="60" width="20" height="20"></rect>
                <rect id="Rectangle-Copy-159" x="320" y="180" width="20" height="20"></rect>
                <rect id="Rectangle-Copy-107" x="320" y="80" width="20" height="20"></rect>
                <rect id="Rectangle-Copy-160" x="320" y="200" width="20" height="20"></rect>
                <rect id="Rectangle-Copy-85" x="340" y="20" width="20" height="20"></rect>
                <rect id="Rectangle-Copy-95" x="340" y="0" width="20" height="20"></rect>
                <rect id="Rectangle-Copy-84" x="340" y="40" width="20" height="20"></rect>
                <rect id="Rectangle-Copy-161" x="340" y="160" width="20" height="20"></rect>
                <rect id="Rectangle-Copy-83" x="340" y="60" width="20" height="20"></rect>
                <rect id="Rectangle-Copy-162" x="340" y="180" width="20" height="20"></rect>
                <rect id="Rectangle-Copy-108" x="340" y="80" width="20" height="20"></rect>
                <rect id="Rectangle-Copy-163" x="340" y="200" width="20" height="20"></rect>
                <rect id="Rectangle-Copy-88" x="360" y="20" width="20" height="20"></rect>
                <rect id="Rectangle-Copy-87" x="360" y="40" width="20" height="20"></rect>
                <rect id="Rectangle-Copy-164" x="360" y="160" width="20" height="20"></rect>
                <rect id="Rectangle-Copy-86" x="360" y="60" width="20" height="20"></rect>
                <rect id="Rectangle-Copy-165" x="360" y="180" width="20" height="20"></rect>
                <rect id="Rectangle-Copy-109" x="360" y="80" width="20" height="20"></rect>
                <rect id="Rectangle-Copy-166" x="360" y="200" width="20" height="20"></rect>
                <rect id="Rectangle-Copy-91" x="380" y="20" width="20" height="20"></rect>
                <rect id="Rectangle-Copy-90" x="380" y="40" width="20" height="20"></rect>
                <rect id="Rectangle-Copy-89" x="380" y="60" width="20" height="20"></rect>
                <rect id="Rectangle-Copy-110" x="380" y="80" width="20" height="20"></rect>
                <rect id="Rectangle-Copy-94" x="400" y="20" width="20" height="20"></rect>
                <rect id="Rectangle-Copy-93" x="400" y="40" width="20" height="20"></rect>
                <rect id="Rectangle-Copy-92" x="400" y="60" width="20" height="20"></rect>
            </g>
        </g>
    </g>
</svg>