<?xml version="1.0" encoding="UTF-8"?>
<svg width="390px" height="257px" viewBox="0 0 390 257" version="1.1" xmlns="http://www.w3.org/2000/svg" xmlns:xlink="http://www.w3.org/1999/xlink">
    <!-- Generator: Sketch 46.2 (44496) - http://www.bohemiancoding.com/sketch -->
    <title>crosses_down</title>
    <desc>Created with Sketch.</desc>
    <defs></defs>
    <g id="Page-1" stroke="none" stroke-width="1" fill="none" fill-rule="evenodd">
        <g id="10_Boldyrev_desktop" transform="translate(-126.000000, -1427.000000)" fill="#99FFD3">
            <g id="crosses_down" transform="translate(107.000000, 1408.000000)">
                <path d="M237.4,42.6 L237.4,16 L214.6,16 L214.6,42.6 L188,42.6 L188,65.4 L214.6,65.4 L214.6,92 L237.4,92 L237.4,65.4 L264,65.4 L264,42.6 L237.4,42.6 Z" id="Combined-Shape-Copy-6" transform="translate(226.000000, 54.000000) rotate(-135.000000) translate(-226.000000, -54.000000) "></path>
                <path d="M237.8,233.2 L237.8,215 L222.2,215 L222.2,233.2 L204,233.2 L204,248.8 L222.2,248.8 L222.2,267 L237.8,267 L237.8,248.8 L256,248.8 L256,233.2 L237.8,233.2 Z" id="Combined-Shape-Copy-2" transform="translate(230.000000, 241.000000) rotate(-135.000000) translate(-230.000000, -241.000000) "></path>
                <path d="M78.8,83.2 L78.8,65 L63.2,65 L63.2,83.2 L45,83.2 L45,98.8 L63.2,98.8 L63.2,117 L78.8,117 L78.8,98.8 L97,98.8 L97,83.2 L78.8,83.2 Z" id="Combined-Shape-Copy-7" transform="translate(71.000000, 91.000000) rotate(-135.000000) translate(-71.000000, -91.000000) "></path>
                <path d="M392.8,63.2 L392.8,45 L377.2,45 L377.2,63.2 L359,63.2 L359,78.8 L377.2,78.8 L377.2,97 L392.8,97 L392.8,78.8 L411,78.8 L411,63.2 L392.8,63.2 Z" id="Combined-Shape-Copy-12" transform="translate(385.000000, 71.000000) rotate(-135.000000) translate(-385.000000, -71.000000) "></path>
                <path d="M65.4,229.6 L65.4,203 L42.6,203 L42.6,229.6 L16,229.6 L16,252.4 L42.6,252.4 L42.6,279 L65.4,279 L65.4,252.4 L92,252.4 L92,229.6 L65.4,229.6 Z" id="Combined-Shape-Copy-5" transform="translate(54.000000, 241.000000) rotate(-135.000000) translate(-54.000000, -241.000000) "></path>
            </g>
        </g>
    </g>
</svg>