<?xml version="1.0" encoding="UTF-8"?>
<svg width="606px" height="298px" viewBox="0 0 606 298" version="1.1" xmlns="http://www.w3.org/2000/svg" xmlns:xlink="http://www.w3.org/1999/xlink">
    <!-- Generator: Sketch 46.2 (44496) - http://www.bohemiancoding.com/sketch -->
    <title>crosses_behind</title>
    <desc>Created with Sketch.</desc>
    <defs></defs>
    <g id="Page-1" stroke="none" stroke-width="1" fill="none" fill-rule="evenodd">
        <g id="10_Boldyrev_desktop" transform="translate(-565.000000, -177.000000)" fill="#99FFD3">
            <g id="crosses_behind" transform="translate(546.000000, 158.000000)">
                <path d="M331.4,42.6 L331.4,16 L308.6,16 L308.6,42.6 L282,42.6 L282,65.4 L308.6,65.4 L308.6,92 L331.4,92 L331.4,65.4 L358,65.4 L358,42.6 L331.4,42.6 Z" id="Combined-Shape-Copy-6" transform="translate(320.000000, 54.000000) rotate(-135.000000) translate(-320.000000, -54.000000) "></path>
                <path d="M273.8,234.2 L273.8,216 L258.2,216 L258.2,234.2 L240,234.2 L240,249.8 L258.2,249.8 L258.2,268 L273.8,268 L273.8,249.8 L292,249.8 L292,234.2 L273.8,234.2 Z" id="Combined-Shape-Copy-2" transform="translate(266.000000, 242.000000) rotate(-135.000000) translate(-266.000000, -242.000000) "></path>
                <path d="M65.4,270.6 L65.4,244 L42.6,244 L42.6,270.6 L16,270.6 L16,293.4 L42.6,293.4 L42.6,320 L65.4,320 L65.4,293.4 L92,293.4 L92,270.6 L65.4,270.6 Z" id="Combined-Shape-Copy-5" transform="translate(54.000000, 282.000000) rotate(-135.000000) translate(-54.000000, -282.000000) "></path>
                <path d="M608.8,172.2 L608.8,154 L593.2,154 L593.2,172.2 L575,172.2 L575,187.8 L593.2,187.8 L593.2,206 L608.8,206 L608.8,187.8 L627,187.8 L627,172.2 L608.8,172.2 Z" id="Combined-Shape-Copy-8" transform="translate(601.000000, 180.000000) rotate(-135.000000) translate(-601.000000, -180.000000) "></path>
                <path d="M142.8,94.2 L142.8,76 L127.2,76 L127.2,94.2 L109,94.2 L109,109.8 L127.2,109.8 L127.2,128 L142.8,128 L142.8,109.8 L161,109.8 L161,94.2 L142.8,94.2 Z" id="Combined-Shape-Copy-4" transform="translate(135.000000, 102.000000) rotate(-135.000000) translate(-135.000000, -102.000000) "></path>
            </g>
        </g>
    </g>
</svg>