<?xml version="1.0" encoding="UTF-8"?>
<svg width="228px" height="395px" viewBox="0 0 228 395" version="1.1" xmlns="http://www.w3.org/2000/svg" xmlns:xlink="http://www.w3.org/1999/xlink">
    <!-- Generator: Sketch 46.2 (44496) - http://www.bohemiancoding.com/sketch -->
    <title>crosses_top</title>
    <desc>Created with Sketch.</desc>
    <defs></defs>
    <g id="Page-1" stroke="none" stroke-width="1" fill="none" fill-rule="evenodd">
        <g id="10_Boldyrev_desktop" transform="translate(-916.000000, -479.000000)">
            <g id="crosses_top" transform="translate(897.000000, 456.000000)">
                <path d="M202.8,386.2 L202.8,368 L187.2,368 L187.2,386.2 L169,386.2 L169,401.8 L187.2,401.8 L187.2,420 L202.8,420 L202.8,401.8 L221,401.8 L221,386.2 L202.8,386.2 Z" id="Combined-Shape-Copy-10" fill="#ECFF5C" transform="translate(195.000000, 394.000000) rotate(-135.000000) translate(-195.000000, -394.000000) "></path>
                <path d="M65.4,278.6 L65.4,252 L42.6,252 L42.6,278.6 L16,278.6 L16,301.4 L42.6,301.4 L42.6,328 L65.4,328 L65.4,301.4 L92,301.4 L92,278.6 L65.4,278.6 Z" id="Combined-Shape-Copy-9" fill="#ECFF5C" transform="translate(54.000000, 290.000000) rotate(-135.000000) translate(-54.000000, -290.000000) "></path>
                <path d="M230.8,219.2 L230.8,201 L215.2,201 L215.2,219.2 L197,219.2 L197,234.8 L215.2,234.8 L215.2,253 L230.8,253 L230.8,234.8 L249,234.8 L249,219.2 L230.8,219.2 Z" id="Combined-Shape-Copy-11" fill="#ECFF5C" transform="translate(223.000000, 227.000000) rotate(-135.000000) translate(-223.000000, -227.000000) "></path>
                <path d="M190.4,53.6 L190.4,20 L161.6,20 L161.6,53.6 L128,53.6 L128,82.4 L161.6,82.4 L161.6,116 L190.4,116 L190.4,82.4 L224,82.4 L224,53.6 L190.4,53.6 Z" id="Combined-Shape-Copy-3" fill="#99FFD3" transform="translate(176.000000, 68.000000) rotate(-135.000000) translate(-176.000000, -68.000000) "></path>
            </g>
        </g>
    </g>
</svg>