<?xml version="1.0" encoding="UTF-8"?>
<svg width="510px" height="500px" viewBox="0 0 510 500" version="1.1" xmlns="http://www.w3.org/2000/svg" xmlns:xlink="http://www.w3.org/1999/xlink">
    <!-- Generator: Sketch 47.1 (45422) - http://www.bohemiancoding.com/sketch -->
    <title>13_portrait_border</title>
    <desc>Created with Sketch.</desc>
    <defs>
        <polygon id="path-1" points="37.7219277 0.488913081 37.7219277 35.5646108 0.268107932 35.5646108 0.268107932 0.488913081 37.7219277 0.488913081"></polygon>
    </defs>
    <g id="-" stroke="none" stroke-width="1" fill="none" fill-rule="evenodd">
        <g id="1-1-Desktop-#13" transform="translate(-428.000000, -1422.000000)">
            <g id="Group-6" transform="translate(428.000000, 1422.000000)">
                <g id="Page-1" style="mix-blend-mode: multiply;">
                    <path d="M288.182423,500 C288.182423,500 260.756591,466.540046 196.761332,455.687499 C134.468435,441.128197 59.091109,380.198921 39.7564414,294.664259 C17.3568637,209.937713 55.0562488,121.352373 103.245281,79.9484274 C151.110996,36.460568 195.974485,29.7031347 195.068868,29.1164659 C196.14934,30.4137476 151.668552,38.1627339 105.021873,81.832378 C57.9759964,123.485864 22.1736224,210.907782 44.8800211,293.373588 C64.6122362,376.649161 138.40597,434.977263 198.678138,448.528487 C213.118517,450.754523 225.993449,454.218348 237.269943,458.249011 C279.804232,473.360278 296.161417,492.865777 296.161417,492.865777 L288.182423,500 Z" id="Fill-1" fill="#000000"></path>
                    <path d="M221.819226,500 C221.819226,500 249.245057,466.540046 313.238663,455.687499 C375.533206,441.128197 450.908878,380.198921 470.243545,294.664259 C492.643122,209.937713 454.943739,121.352373 406.756359,79.9484274 C358.890646,36.460568 314.02551,29.7031347 314.939374,29.1164659 C313.858903,30.4137476 358.339688,38.1627339 404.979767,81.832378 C452.025641,123.485864 487.834611,210.907782 465.119966,293.373588 C445.395999,376.649161 371.595671,434.977263 311.323506,448.528487 C296.881479,450.754523 284.008197,454.218348 272.731703,458.249011 C230.195767,473.360278 213.838583,492.865777 213.838583,492.865777 L221.819226,500 Z" id="Fill-3" fill="#000000"></path>
                    <path d="M177.738824,402.610442 C177.738824,402.610442 194.597428,408.532032 200.188268,422.272532 C207.172432,439.441236 204.154623,453.815261 204.154623,453.815261 C204.154623,453.815261 187.262541,444.843302 181.604745,435.534224 C173.66247,422.466336 177.738824,402.610442 177.738824,402.610442" id="Fill-5" fill="#000000"></path>
                    <path d="M146.574803,479.140036 C146.574803,479.140036 164.070219,484.447629 176.843559,476.751458 C192.790592,467.135691 198.779528,453.793935 198.779528,453.793935 C198.779528,453.793935 179.444384,450.91535 169.250591,455.011674 C154.928868,460.767226 146.574803,479.140036 146.574803,479.140036" id="Fill-7" fill="#000000"></path>
                    <path d="M150.458782,387.550201 C150.458782,387.550201 166.055512,396.071895 169.221692,410.09394 C173.179823,427.613875 167.766257,440.763052 167.766257,440.763052 C167.766257,440.763052 152.657383,429.341961 148.671606,419.522197 C143.072655,405.731205 150.458782,387.550201 150.458782,387.550201" id="Fill-9" fill="#000000"></path>
                    <path d="M108.425197,455.344175 C108.425197,455.344175 124.540886,463.2653 138.306232,458.077677 C155.489808,451.602673 163.641732,439.954333 163.641732,439.954333 C163.641732,439.954333 145.327549,434.034919 134.686639,436.23188 C119.749423,439.317785 108.425197,455.344175 108.425197,455.344175" id="Fill-11" fill="#000000"></path>
                    <path d="M125.915253,369.477912 C125.915253,369.477912 138.874107,380.512944 139.490604,394.82191 C140.251519,412.708525 133.094256,424.698795 133.094256,424.698795 C133.094256,424.698795 121.054712,410.899289 119.000241,400.56803 C116.100998,386.072915 125.915253,369.477912 125.915253,369.477912" id="Fill-13" fill="#000000"></path>
                    <path d="M75.2952756,426.403047 C75.2952756,426.403047 89.4907916,437.11852 103.749259,434.251465 C121.547908,430.664751 131.515748,420.341368 131.515748,420.341368 C131.515748,420.341368 114.820403,411.263739 104.12531,411.659138 C89.1130839,412.216667 75.2952756,426.403047 75.2952756,426.403047" id="Fill-15" fill="#000000"></path>
                    <path d="M105.181743,345.381526 C105.181743,345.381526 115.999149,358.500719 114.259407,372.586381 C112.089036,390.189329 103.171096,400.60241 103.171096,400.60241 C103.171096,400.60241 93.7019506,384.945616 93.3778042,374.486277 C92.9362135,359.809169 105.181743,345.381526 105.181743,345.381526" id="Fill-17" fill="#000000"></path>
                    <path d="M45.1771654,391.710895 C45.1771654,391.710895 57.0397697,403.939407 71.2732405,403.607835 C89.04233,403.193766 100.393701,395.25507 100.393701,395.25507 C100.393701,395.25507 85.8541516,384.1355 75.4789226,382.760031 C60.9062839,380.82771 45.1771654,391.710895 45.1771654,391.710895" id="Fill-19" fill="#000000"></path>
                    <path d="M90.591337,318.273092 C90.591337,318.273092 99.4529965,332.677777 95.2437083,345.777241 C89.9950073,362.14872 79.0495252,370.481928 79.0495252,370.481928 C79.0495252,370.481928 72.0201637,353.910022 73.4893336,343.891922 C75.5381759,329.839207 90.591337,318.273092 90.591337,318.273092" id="Fill-21" fill="#000000"></path>
                    <path d="M23.0905512,354.287562 C23.0905512,354.287562 32.2912833,367.881583 45.9562566,369.863063 C63.0309129,372.337557 75.2952756,366.592521 75.2952756,366.592521 C75.2952756,366.592521 63.3359639,353.621835 53.6563345,350.633914 C40.0536835,346.432297 23.0905512,354.287562 23.0905512,354.287562" id="Fill-23" fill="#000000"></path>
                    <path d="M77.7925817,289.156627 C77.7925817,289.156627 83.6594851,304.448049 77.4980227,316.320856 C69.8119746,331.165104 58.1461428,337.349398 58.1461428,337.349398 C58.1461428,337.349398 54.3524817,320.280618 57.4146007,310.914257 C61.7229309,297.766355 77.7925817,289.156627 77.7925817,289.156627" id="Fill-25" fill="#000000"></path>
                    <path d="M8.03149606,311.060994 C8.03149606,311.060994 14.4892715,326.159306 27.3211894,330.430731 C43.3606769,335.770418 56.2204724,332.108502 56.2204724,332.108502 C56.2204724,332.108502 46.9913307,317.173914 38.1787138,312.55883 C25.7895586,306.090904 8.03149606,311.060994 8.03149606,311.060994" id="Fill-27" fill="#000000"></path>
                    <path d="M71.6958659,258.032129 C71.6958659,258.032129 74.7975589,273.792275 66.7485511,284.200195 C56.681969,297.223462 44.221155,301.204819 44.221155,301.204819 C44.221155,301.204819 43.4531012,284.078663 48.0663372,275.561767 C54.5235575,263.604732 71.6958659,258.032129 71.6958659,258.032129" id="Fill-29" fill="#000000"></path>
                    <path d="M0,267.237007 C0,267.237007 3.66277893,283.132538 15.3856523,289.513463 C30.0301655,297.480979 43.1692913,296.091889 43.1692913,296.091889 C43.1692913,296.091889 36.7812992,279.880356 29.0265739,273.858224 C18.1125161,265.398602 0,267.237007 0,267.237007" id="Fill-31" fill="#000000"></path>
                    <path d="M70.2747267,226.907631 C70.2747267,226.907631 70.551215,242.688226 61.2113428,251.407371 C49.5508863,262.305895 37.1456693,264.056225 37.1456693,264.056225 C37.1456693,264.056225 39.3064337,247.355772 45.072734,239.886398 C53.170806,229.399047 70.2747267,226.907631 70.2747267,226.907631" id="Fill-33" fill="#000000"></path>
                    <path d="M0,224.899598 C0,224.899598 0.802319496,240.848665 10.8751647,248.987622 C23.4475437,259.153919 36.1417323,260.040161 36.1417323,260.040161 C36.1417323,260.040161 32.8073964,243.326525 26.4521814,236.205349 C17.5113539,226.201831 0,224.899598 0,224.899598" id="Fill-35" fill="#000000"></path>
                    <path d="M75.2952756,194.786399 C75.2952756,194.786399 72.866717,210.56771 62.1200993,217.590394 C48.7155044,226.374205 36.1417323,225.899087 36.1417323,225.899087 C36.1417323,225.899087 41.1332232,209.635941 48.1337647,203.221006 C57.9299343,194.213906 75.2952756,194.786399 75.2952756,194.786399" id="Fill-37" fill="#000000"></path>
                    <path d="M8.21916471,178.714859 C8.21916471,178.714859 6.31375811,194.252743 14.6456552,203.845898 C25.0597158,215.827471 37.1456693,218.875502 37.1456693,218.875502 C37.1456693,218.875502 36.7337771,202.161503 31.8008011,194.186946 C24.8732292,182.991643 8.21916471,178.714859 8.21916471,178.714859" id="Fill-39" fill="#000000"></path>
                    <path d="M86.3385827,163.54537 C86.3385827,163.54537 81.3502264,177.996244 69.7579385,182.784797 C55.278695,188.781139 43.1692913,186.190208 43.1692913,186.190208 C43.1692913,186.190208 50.7333456,171.718029 58.5888952,166.867203 C69.5965457,160.053103 86.3385827,163.54537 86.3385827,163.54537" id="Fill-41" fill="#000000"></path>
                    <path d="M22.6068146,137.550201 C22.6068146,137.550201 18.0637096,152.024423 24.6647597,162.578577 C32.9031894,175.763965 44.3299379,180.722892 44.3299379,180.722892 C44.3299379,180.722892 46.8034616,164.742325 43.2976407,156.304845 C38.3605672,144.45861 22.6068146,137.550201 22.6068146,137.550201" id="Fill-43" fill="#000000"></path>
                    <path d="M100.393701,133.757367 C100.393701,133.757367 93.164047,146.755869 81.2540748,149.391008 C66.3747805,152.699156 55.2165354,148.183168 55.2165354,148.183168 C55.2165354,148.183168 64.9105468,135.600826 73.2514494,132.274796 C84.9555137,127.599497 100.393701,133.757367 100.393701,133.757367" id="Fill-45" fill="#000000"></path>
                    <path d="M44.0880899,99.3975904 C44.0880899,99.3975904 37.1636517,112.584952 41.6961021,123.841665 C47.3612486,137.910128 57.5588455,144.578313 57.5588455,144.578313 C57.5588455,144.578313 62.737599,129.594737 60.8103498,120.889005 C58.1085363,108.663728 44.0880899,99.3975904 44.0880899,99.3975904" id="Fill-47" fill="#000000"></path>
                    <path d="M123.484252,110.147733 C123.484252,110.147733 114.059962,121.886542 101.822775,122.437826 C86.5434431,123.13241 76.2992126,116.656931 76.2992126,116.656931 C76.2992126,116.656931 88.0996558,105.764436 96.9148479,103.898162 C109.307656,101.276613 123.484252,110.147733 123.484252,110.147733" id="Fill-49" fill="#000000"></path>
                    <path d="M74.1415125,65.2610442 C74.1415125,65.2610442 65.2997393,77.1824665 67.6662862,89.145578 C70.6293864,104.086961 79.1548552,112.449799 79.1548552,112.449799 C79.1548552,112.449799 86.6543833,98.4439206 86.3282457,89.4690856 C85.8709973,76.862294 74.1415125,65.2610442 74.1415125,65.2610442" id="Fill-51" fill="#000000"></path>
                    <path d="M145.570866,86.8727551 C145.570866,86.8727551 134.828286,95.6393058 123.301482,94.2225971 C108.90999,92.4650262 100.393701,85.2399641 100.393701,85.2399641 C100.393701,85.2399641 113.202161,77.5781722 121.754097,77.3194821 C133.76051,76.9466641 145.570866,86.8727551 145.570866,86.8727551" id="Fill-53" fill="#000000"></path>
                    <path d="M106.021816,37.1485944 C106.021816,37.1485944 96.1108663,46.8587002 96.3834751,58.497192 C96.7161504,73.0298863 103.140171,82.3293173 103.140171,82.3293173 C103.140171,82.3293173 112.145505,70.4327333 113.257502,61.9449127 C114.826929,50.0223572 106.021816,37.1485944 106.021816,37.1485944" id="Fill-55" fill="#000000"></path>
                    <path d="M172.677165,70.5216639 C172.677165,70.5216639 160.760541,77.8435507 149.935911,74.3625996 C136.394219,70.0229698 129.507874,60.980423 129.507874,60.980423 C129.507874,60.980423 143.220796,55.1793881 151.491517,56.3914461 C163.107682,58.0873364 172.677165,70.5216639 172.677165,70.5216639" id="Fill-57" fill="#000000"></path>
                    <path d="M142.617782,15.060241 C142.617782,15.060241 131.612437,22.6739759 130.008888,33.9701495 C128.005976,48.0850804 132.655048,58.2329317 132.655048,58.2329317 C132.655048,58.2329317 143.158903,48.3436969 145.573372,40.3395975 C148.975579,29.0922194 142.617782,15.060241 142.617782,15.060241" id="Fill-59" fill="#000000"></path>
                    <path d="M201.791339,58.1368156 C201.791339,58.1368156 189.04229,63.0300631 179.152266,57.8924769 C166.777189,51.4814166 161.633858,41.7547928 161.633858,41.7547928 C161.633858,41.7547928 175.854512,38.6058974 183.665834,41.1593182 C194.603303,44.7499651 201.791339,58.1368156 201.791339,58.1368156" id="Fill-61" fill="#000000"></path>
                    <path d="M183.209847,0 C183.209847,0 170.621448,5.38458475 167.068506,16.0881885 C162.619633,29.4455648 165.658994,40.1606426 165.658994,40.1606426 C165.658994,40.1606426 178.117783,32.4730619 181.951007,25.1280621 C187.344415,14.8080178 183.209847,0 183.209847,0" id="Fill-63" fill="#000000"></path>
                    <path d="M182.716535,32.7617091 C182.716535,32.7617091 192.067801,38.2161598 200.359127,35.2730153 C210.722079,31.6007283 215.846457,24.384045 215.846457,24.384045 C215.846457,24.384045 205.148957,20.1570119 198.781282,21.271487 C189.853027,22.8526798 182.716535,32.7617091 182.716535,32.7617091" id="Fill-65" fill="#000000"></path>
                    <path d="M330.250969,402.610442 C330.250969,402.610442 313.387442,408.532032 307.803461,422.272532 C300.819898,439.441236 303.837447,453.815261 303.837447,453.815261 C303.837447,453.815261 320.728074,444.843302 326.385382,435.534224 C334.333349,422.466336 330.250969,402.610442 330.250969,402.610442" id="Fill-67" fill="#000000"></path>
                    <path d="M360.413386,479.140036 C360.413386,479.140036 342.913069,484.447629 330.14093,476.751458 C314.20358,467.135691 308.208661,453.793935 308.208661,453.793935 C308.208661,453.793935 327.54035,450.91535 337.734821,455.011674 C352.055196,460.767226 360.413386,479.140036 360.413386,479.140036" id="Fill-69" fill="#000000"></path>
                    <path d="M358.542291,387.550201 C358.542291,387.550201 342.937893,396.071895 339.777982,410.09394 C335.811423,427.613875 341.233525,440.763052 341.233525,440.763052 C341.233525,440.763052 356.338648,429.341961 360.323096,419.522197 C365.922465,405.731205 358.542291,387.550201 358.542291,387.550201" id="Fill-71" fill="#000000"></path>
                    <path d="M401.574803,455.344175 C401.574803,455.344175 385.459114,463.2653 371.70037,458.077677 C354.510192,451.602673 346.358268,439.954333 346.358268,439.954333 C346.358268,439.954333 364.672451,434.034919 375.313361,436.23188 C390.250577,439.317785 401.574803,455.344175 401.574803,455.344175" id="Fill-73" fill="#000000"></path>
                    <path d="M382.081025,369.477912 C382.081025,369.477912 369.112864,380.512944 368.502433,394.82191 C367.735123,412.708525 374.894095,424.698795 374.894095,424.698795 C374.894095,424.698795 386.936513,410.899289 388.991475,400.56803 C391.89141,386.072915 382.081025,369.477912 382.081025,369.477912" id="Fill-75" fill="#000000"></path>
                    <path d="M435.708661,426.403047 C435.708661,426.403047 421.506083,437.11852 407.252142,434.251465 C389.45087,430.664751 379.488189,420.341368 379.488189,420.341368 C379.488189,420.341368 396.185994,411.263739 406.876036,411.659138 C421.897101,412.216667 435.708661,426.403047 435.708661,426.403047" id="Fill-77" fill="#000000"></path>
                    <path d="M401.810523,345.381526 C401.810523,345.381526 390.983493,358.500719 392.730041,372.586381 C394.89482,390.189329 403.821794,400.60241 403.821794,400.60241 C403.821794,400.60241 413.286046,384.945616 413.610293,374.486277 C414.053588,359.809169 401.810523,345.381526 401.810523,345.381526" id="Fill-79" fill="#000000"></path>
                    <path d="M463.818898,391.710895 C463.818898,391.710895 451.951098,403.939407 437.727604,403.607835 C419.95899,403.193766 408.602362,395.25507 408.602362,395.25507 C408.602362,395.25507 423.146786,384.1355 433.5125,382.760031 C448.085047,380.82771 463.818898,391.710895 463.818898,391.710895" id="Fill-81" fill="#000000"></path>
                    <path d="M418.408563,318.273092 C418.408563,318.273092 409.547122,332.677777 413.748768,345.777241 C418.999992,362.14872 429.945597,370.481928 429.945597,370.481928 C429.945597,370.481928 436.976106,353.910022 435.506696,343.891922 C433.457519,329.839207 418.408563,318.273092 418.408563,318.273092" id="Fill-83" fill="#000000"></path>
                    <path d="M484.901575,354.287562 C484.901575,354.287562 475.701132,367.881583 462.036588,369.863063 C444.960828,372.337557 432.69685,366.592521 432.69685,366.592521 C432.69685,366.592521 444.657426,353.621835 454.336752,350.633914 C467.945535,346.432297 484.901575,354.287562 484.901575,354.287562" id="Fill-85" fill="#000000"></path>
                    <path d="M430.204431,289.156627 C430.204431,289.156627 424.330622,304.448049 430.492538,316.320856 C438.179151,331.165104 449.845841,337.349398 449.845841,337.349398 C449.845841,337.349398 453.639782,320.280618 450.577437,310.914257 C446.26879,297.766355 430.204431,289.156627 430.204431,289.156627" id="Fill-87" fill="#000000"></path>
                    <path d="M500.964567,311.060994 C500.964567,311.060994 494.500232,326.159306 481.668314,330.430731 C465.628827,335.770418 452.775591,332.108502 452.775591,332.108502 C452.775591,332.108502 461.998173,317.173914 470.81079,312.55883 C483.199945,306.090904 500.964567,311.060994 500.964567,311.060994" id="Fill-89" fill="#000000"></path>
                    <path d="M436.295181,258.032129 C436.295181,258.032129 433.1952,273.792275 441.248927,284.200195 C451.316905,297.223462 463.77087,301.204819 463.77087,301.204819 C463.77087,301.204819 464.538905,284.078663 459.93233,275.561767 C453.468715,263.604732 436.295181,258.032129 436.295181,258.032129" id="Fill-91" fill="#000000"></path>
                    <path d="M508.996063,267.237007 C508.996063,267.237007 505.327804,283.132538 493.601914,289.513463 C478.96188,297.480979 465.826772,296.091889 465.826772,296.091889 C465.826772,296.091889 472.21281,279.880356 479.971765,273.858224 C490.877535,265.398602 508.996063,267.237007 508.996063,267.237007" id="Fill-93" fill="#000000"></path>
                    <path d="M436.713406,226.907631 C436.713406,226.907631 436.443297,242.688226 445.783636,251.407371 C457.438281,262.305895 469.84252,264.056225 469.84252,264.056225 C469.84252,264.056225 467.696032,247.355772 461.915059,239.886398 C453.818181,229.399047 436.713406,226.907631 436.713406,226.907631" id="Fill-95" fill="#000000"></path>
                    <g id="Group-99" transform="translate(471.850394, 224.899598)">
                        <mask id="mask-2" fill="white">
                            <use xlink:href="#path-1"></use>
                        </mask>
                        <g id="Clip-98"></g>
                        <path d="M37.7224326,0.488913081 C37.7224326,0.488913081 36.8910119,16.4085401 26.4595432,24.5324734 C13.4227319,34.6800048 0.268107932,35.5646108 0.268107932,35.5646108 C0.268107932,35.5646108 3.72506771,18.8818265 10.3091119,11.7737951 C19.5759184,1.78874242 37.7224326,0.488913081 37.7224326,0.488913081" id="Fill-97" fill="#000000" mask="url(#mask-2)"></path>
                    </g>
                    <path d="M432.69685,194.786399 C432.69685,194.786399 435.125511,210.56771 445.872578,217.590394 C459.284289,226.374205 471.850394,225.899087 471.850394,225.899087 C471.850394,225.899087 466.858694,209.635941 459.857859,203.221006 C450.06128,194.213906 432.69685,194.786399 432.69685,194.786399" id="Fill-100" fill="#000000"></path>
                    <path d="M500.778828,178.714859 C500.778828,178.714859 502.675721,194.252743 494.345603,203.845898 C483.933766,215.827471 471.850394,218.875502 471.850394,218.875502 C471.850394,218.875502 472.260577,202.161503 477.194121,194.186946 C484.120213,182.991643 500.778828,178.714859 500.778828,178.714859" id="Fill-102" fill="#000000"></path>
                    <path d="M421.653543,163.54537 C421.653543,163.54537 426.648678,177.996244 438.23482,182.784797 C452.714616,188.781139 464.822835,186.190208 464.822835,186.190208 C464.822835,186.190208 457.258492,171.718029 449.40923,166.867203 C438.394572,160.053103 421.653543,163.54537 421.653543,163.54537" id="Fill-104" fill="#000000"></path>
                    <path d="M487.393101,137.550201 C487.393101,137.550201 491.936457,152.024423 485.335042,162.578577 C477.096157,175.763965 465.668777,180.722892 465.668777,180.722892 C465.668777,180.722892 463.195117,164.742325 466.707781,156.304845 C471.636816,144.45861 487.393101,137.550201 487.393101,137.550201" id="Fill-106" fill="#000000"></path>
                    <path d="M407.598425,133.757367 C407.598425,133.757367 414.828079,146.755869 426.738051,149.391008 C441.617345,152.699156 452.775591,148.183168 452.775591,148.183168 C452.775591,148.183168 443.073408,135.600826 434.739042,132.274796 C423.036612,127.599497 407.598425,133.757367 407.598425,133.757367" id="Fill-108" fill="#000000"></path>
                    <path d="M465.906819,99.3975904 C465.906819,99.3975904 472.83694,112.584952 468.30513,123.841665 C462.640785,137.910128 452.44463,144.578313 452.44463,144.578313 C452.44463,144.578313 447.266609,129.594737 449.186923,120.889005 C451.888355,108.663728 465.906819,99.3975904 465.906819,99.3975904" id="Fill-110" fill="#000000"></path>
                    <path d="M387.519685,110.147733 C387.519685,110.147733 396.952342,121.886542 409.181162,122.437826 C424.467187,123.13241 434.704724,116.656931 434.704724,116.656931 C434.704724,116.656931 422.904281,105.764436 414.089089,103.898162 C401.702974,101.276613 387.519685,110.147733 387.519685,110.147733" id="Fill-112" fill="#000000"></path>
                    <path d="M435.858918,65.2610442 C435.858918,65.2610442 444.702641,77.1824665 442.332733,89.145578 C439.371167,104.086961 430.845398,112.449799 430.845398,112.449799 C430.845398,112.449799 423.345606,98.4439206 423.671755,89.4690856 C424.129019,76.862294 435.858918,65.2610442 435.858918,65.2610442" id="Fill-114" fill="#000000"></path>
                    <path d="M363.425197,86.8727551 C363.425197,86.8727551 374.168083,95.6393058 385.690472,94.2225971 C400.091028,92.4650262 408.602362,85.2399641 408.602362,85.2399641 C408.602362,85.2399641 395.798087,77.5781722 387.238135,77.3194821 C375.229569,76.9466641 363.425197,86.8727551 363.425197,86.8727551" id="Fill-116" fill="#000000"></path>
                    <path d="M401.974354,37.1485944 C401.974354,37.1485944 411.882835,46.8587002 411.608583,58.497192 C411.277325,73.0298863 404.85091,82.3293173 404.85091,82.3293173 C404.85091,82.3293173 395.84222,70.4327333 394.73597,61.9449127 C393.159796,50.0223572 401.974354,37.1485944 401.974354,37.1485944" id="Fill-118" fill="#000000"></path>
                    <path d="M336.318898,70.5216639 C336.318898,70.5216639 348.235522,77.8435507 359.060152,74.3625996 C372.601844,70.0229698 379.488189,60.980423 379.488189,60.980423 C379.488189,60.980423 365.783344,55.1793881 357.504546,56.3914461 C345.888381,58.0873364 336.318898,70.5216639 336.318898,70.5216639" id="Fill-120" fill="#000000"></path>
                    <path d="M366.376858,15.060241 C366.376858,15.060241 377.378246,22.6739759 378.987313,33.9701495 C380.991028,48.0850804 376.336009,58.2329317 376.336009,58.2329317 C376.336009,58.2329317 365.840503,48.3436969 363.422331,40.3395975 C360.021348,29.0922194 366.376858,15.060241 366.376858,15.060241" id="Fill-122" fill="#000000"></path>
                    <path d="M306.200787,58.1368156 C306.200787,58.1368156 318.949836,63.0300631 328.83986,57.8924769 C341.214937,51.4814166 346.358268,41.7547928 346.358268,41.7547928 C346.358268,41.7547928 332.14409,38.6058974 324.332768,41.1593182 C313.388823,44.7499651 306.200787,58.1368156 306.200787,58.1368156" id="Fill-124" fill="#000000"></path>
                    <path d="M325.783523,0 C325.783523,0 338.379382,5.38458475 341.932601,16.0881885 C346.375339,29.4455648 343.335741,40.1606426 343.335741,40.1606426 C343.335741,40.1606426 330.884084,32.4730619 327.042461,25.1280621 C321.655114,14.8080178 325.783523,0 325.783523,0" id="Fill-126" fill="#000000"></path>
                    <path d="M323.267717,32.7617091 C323.267717,32.7617091 313.91806,38.2161598 305.625125,35.2730153 C295.262173,31.6007283 290.137795,24.384045 290.137795,24.384045 C290.137795,24.384045 300.841729,20.1570119 307.20297,21.271487 C316.132833,22.8526798 323.267717,32.7617091 323.267717,32.7617091" id="Fill-128" fill="#000000"></path>
                </g>
            </g>
        </g>
    </g>
</svg>