<?xml version="1.0" encoding="UTF-8"?>
<svg width="795px" height="498px" viewBox="0 0 795 498" version="1.1" xmlns="http://www.w3.org/2000/svg" xmlns:xlink="http://www.w3.org/1999/xlink">
    <!-- Generator: Sketch 47.1 (45422) - http://www.bohemiancoding.com/sketch -->
    <title>13_pattern</title>
    <desc>Created with Sketch.</desc>
    <defs></defs>
    <g id="-" stroke="none" stroke-width="1" fill="none" fill-rule="evenodd">
        <g id="1-1-Desktop-#13" transform="translate(-222.000000, -1477.000000)" fill="#FFFFFF">
            <g id="Group-17" transform="translate(611.000000, 1725.500000) rotate(-180.000000) translate(-611.000000, -1725.500000) translate(205.000000, 1476.000000)">
                <g id="Group-15-Copy-12" transform="translate(63.202473, 321.768188)">
                    <g id="Group-186" transform="translate(-0.000000, 12.597082)">
                        <polygon id="Fill-184" points="43.6893585 0.166281486 46.0236886 11.1827614 2.71948373 20.3985216 0.385153648 9.38204165"></polygon>
                    </g>
                    <g id="Group-189" transform="translate(12.828664, 0.000000)">
                        <polygon id="Fill-187" points="11.2745533 0.0135252883 0.277794287 2.35260456 9.47748969 45.7449118 20.4716021 43.4058326"></polygon>
                    </g>
                </g>
                <g id="Group-15-Copy-6" transform="translate(-0.000000, 393.428352)">
                    <g id="Group-186" transform="translate(-0.000000, 12.597082)">
                        <polygon id="Fill-184" points="43.6893585 0.166281486 46.0236886 11.1827614 2.71948373 20.3985216 0.385153648 9.38204165"></polygon>
                    </g>
                    <g id="Group-189" transform="translate(12.828664, 0.000000)">
                        <polygon id="Fill-187" points="11.2745533 0.0135252883 0.277794287 2.35260456 9.47748969 45.7449118 20.4716021 43.4058326"></polygon>
                    </g>
                </g>
                <g id="Group-15-Copy-13" transform="translate(-0.000000, 261.348834)">
                    <g id="Group-186" transform="translate(0.000000, 12.597082)">
                        <polygon id="Fill-184" points="43.6893585 0.166281486 46.0236886 11.1827614 2.71948373 20.3985216 0.385153648 9.38204165"></polygon>
                    </g>
                    <g id="Group-189" transform="translate(12.828664, 0.000000)">
                        <polygon id="Fill-187" points="11.2745533 0.0135252883 0.277794287 2.35260456 9.47748969 45.7449118 20.4716021 43.4058326"></polygon>
                    </g>
                </g>
                <g id="Group-15-Copy" transform="translate(200.843416, 452.442605)">
                    <g id="Group-186" transform="translate(0.000000, 12.597082)">
                        <polygon id="Fill-184" points="43.6893585 0.166281486 46.0236886 11.1827614 2.71948373 20.3985216 0.385153648 9.38204165"></polygon>
                    </g>
                    <g id="Group-189" transform="translate(12.828664, 0.000000)">
                        <polygon id="Fill-187" points="11.2745533 0.0135252883 0.277794287 2.35260456 9.47748969 45.7449118 20.4716021 43.4058326"></polygon>
                    </g>
                </g>
                <g id="Group-15-Copy-7" transform="translate(136.236443, 393.428352)">
                    <g id="Group-186" transform="translate(0.000000, 12.597082)">
                        <polygon id="Fill-184" points="43.6893585 0.166281486 46.0236886 11.1827614 2.71948373 20.3985216 0.385153648 9.38204165"></polygon>
                    </g>
                    <g id="Group-189" transform="translate(12.828664, 0.000000)">
                        <polygon id="Fill-187" points="11.2745533 0.0135252883 0.277794287 2.35260456 9.47748969 45.7449118 20.4716021 43.4058326"></polygon>
                    </g>
                </g>
                <g id="Group-15-Copy-15" transform="translate(136.236443, 261.348834)">
                    <g id="Group-186" transform="translate(-0.000000, 12.597082)">
                        <polygon id="Fill-184" points="43.6893585 0.166281486 46.0236886 11.1827614 2.71948373 20.3985216 0.385153648 9.38204165"></polygon>
                    </g>
                    <g id="Group-189" transform="translate(12.828664, 0.000000)">
                        <polygon id="Fill-187" points="11.2745533 0.0135252883 0.277794287 2.35260456 9.47748969 45.7449118 20.4716021 43.4058326"></polygon>
                    </g>
                </g>
                <g id="Group-15-Copy-8" transform="translate(273.877385, 393.428352)">
                    <g id="Group-186" transform="translate(0.000000, 12.597082)">
                        <polygon id="Fill-184" points="43.6893585 0.166281486 46.0236886 11.1827614 2.71948373 20.3985216 0.385153648 9.38204165"></polygon>
                    </g>
                    <g id="Group-189" transform="translate(12.828664, 0.000000)">
                        <polygon id="Fill-187" points="11.2745533 0.0135252883 0.277794287 2.35260456 9.47748969 45.7449118 20.4716021 43.4058326"></polygon>
                    </g>
                </g>
                <g id="Group-15-Copy-17" transform="translate(273.877385, 261.348834)">
                    <g id="Group-186" transform="translate(-0.000000, 12.597082)">
                        <polygon id="Fill-184" points="43.6893585 0.166281486 46.0236886 11.1827614 2.71948373 20.3985216 0.385153648 9.38204165"></polygon>
                    </g>
                    <g id="Group-189" transform="translate(12.828664, 0.000000)">
                        <polygon id="Fill-187" points="11.2745533 0.0135252883 0.277794287 2.35260456 9.47748969 45.7449118 20.4716021 43.4058326"></polygon>
                    </g>
                </g>
                <g id="Group-15-Copy-3" transform="translate(474.720801, 452.442605)">
                    <g id="Group-186" transform="translate(-0.000000, 12.597082)">
                        <polygon id="Fill-184" points="43.6893585 0.166281486 46.0236886 11.1827614 2.71948373 20.3985216 0.385153648 9.38204165"></polygon>
                    </g>
                    <g id="Group-189" transform="translate(12.828664, 0.000000)">
                        <polygon id="Fill-187" points="11.2745533 0.0135252883 0.277794287 2.35260456 9.47748969 45.7449118 20.4716021 43.4058326"></polygon>
                    </g>
                </g>
                <g id="Group-15-Copy-18" transform="translate(474.720801, 321.768188)">
                    <g id="Group-186" transform="translate(-0.000000, 12.597082)">
                        <polygon id="Fill-184" points="43.6893585 0.166281486 46.0236886 11.1827614 2.71948373 20.3985216 0.385153648 9.38204165"></polygon>
                    </g>
                    <g id="Group-189" transform="translate(12.828664, 0.000000)">
                        <polygon id="Fill-187" points="11.2745533 0.0135252883 0.277794287 2.35260456 9.47748969 45.7449118 20.4716021 43.4058326"></polygon>
                    </g>
                </g>
                <g id="Group-15-Copy-9" transform="translate(410.113828, 393.428352)">
                    <g id="Group-186" transform="translate(0.000000, 12.597082)">
                        <polygon id="Fill-184" points="43.6893585 0.166281486 46.0236886 11.1827614 2.71948373 20.3985216 0.385153648 9.38204165"></polygon>
                    </g>
                    <g id="Group-189" transform="translate(12.828664, 0.000000)">
                        <polygon id="Fill-187" points="11.2745533 0.0135252883 0.277794287 2.35260456 9.47748969 45.7449118 20.4716021 43.4058326"></polygon>
                    </g>
                </g>
                <g id="Group-15-Copy-19" transform="translate(410.113828, 261.348834)">
                    <g id="Group-186" transform="translate(0.000000, 12.597082)">
                        <polygon id="Fill-184" points="43.6893585 0.166281486 46.0236886 11.1827614 2.71948373 20.3985216 0.385153648 9.38204165"></polygon>
                    </g>
                    <g id="Group-189" transform="translate(12.828664, 0.000000)">
                        <polygon id="Fill-187" points="11.2745533 0.0135252883 0.277794287 2.35260456 9.47748969 45.7449118 20.4716021 43.4058326"></polygon>
                    </g>
                </g>
                <g id="Group-15-Copy-20" transform="translate(610.957244, 321.768188)">
                    <g id="Group-186" transform="translate(0.000000, 12.597082)">
                        <polygon id="Fill-184" points="43.6893585 0.166281486 46.0236886 11.1827614 2.71948373 20.3985216 0.385153648 9.38204165"></polygon>
                    </g>
                    <g id="Group-189" transform="translate(12.828664, 0.000000)">
                        <polygon id="Fill-187" points="11.2745533 0.0135252883 0.277794287 2.35260456 9.47748969 45.7449118 20.4716021 43.4058326"></polygon>
                    </g>
                </g>
                <g id="Group-15-Copy-5" transform="translate(748.598186, 452.442605)">
                    <g id="Group-186" transform="translate(-0.000000, 12.597082)">
                        <polygon id="Fill-184" points="43.6893585 0.166281486 46.0236886 11.1827614 2.71948373 20.3985216 0.385153648 9.38204165"></polygon>
                    </g>
                    <g id="Group-189" transform="translate(12.828664, 0.000000)">
                        <polygon id="Fill-187" points="11.2745533 0.0135252883 0.277794287 2.35260456 9.47748969 45.7449118 20.4716021 43.4058326"></polygon>
                    </g>
                </g>
                <g id="Group-15-Copy-22" transform="translate(748.598186, 321.768188)">
                    <g id="Group-186" transform="translate(0.000000, 12.597082)">
                        <polygon id="Fill-184" points="43.6893585 0.166281486 46.0236886 11.1827614 2.71948373 20.3985216 0.385153648 9.38204165"></polygon>
                    </g>
                    <g id="Group-189" transform="translate(12.828664, 0.000000)">
                        <polygon id="Fill-187" points="11.2745533 0.0135252883 0.277794287 2.35260456 9.47748969 45.7449118 20.4716021 43.4058326"></polygon>
                    </g>
                </g>
                <g id="Group-15-Copy-11" transform="translate(682.586713, 393.428352)">
                    <g id="Group-186" transform="translate(-0.000000, 12.597082)">
                        <polygon id="Fill-184" points="43.6893585 0.166281486 46.0236886 11.1827614 2.71948373 20.3985216 0.385153648 9.38204165"></polygon>
                    </g>
                    <g id="Group-189" transform="translate(12.828664, 0.000000)">
                        <polygon id="Fill-187" points="11.2745533 0.0135252883 0.277794287 2.35260456 9.47748969 45.7449118 20.4716021 43.4058326"></polygon>
                    </g>
                </g>
                <g id="Group-15-Copy-23" transform="translate(682.586713, 261.348834)">
                    <g id="Group-186" transform="translate(-0.000000, 12.597082)">
                        <polygon id="Fill-184" points="43.6893585 0.166281486 46.0236886 11.1827614 2.71948373 20.3985216 0.385153648 9.38204165"></polygon>
                    </g>
                    <g id="Group-189" transform="translate(12.828664, 0.000000)">
                        <polygon id="Fill-187" points="11.2745533 0.0135252883 0.277794287 2.35260456 9.47748969 45.7449118 20.4716021 43.4058326"></polygon>
                    </g>
                </g>
                <g id="Group-15-Copy-34" transform="translate(0.000000, 130.674417)">
                    <g id="Group-186" transform="translate(0.000000, 12.597082)">
                        <polygon id="Fill-184" points="43.6893585 0.166281486 46.0236886 11.1827614 2.71948373 20.3985216 0.385153648 9.38204165"></polygon>
                    </g>
                    <g id="Group-189" transform="translate(12.828664, 0.000000)">
                        <polygon id="Fill-187" points="11.2745533 0.0135252883 0.277794287 2.35260456 9.47748969 45.7449118 20.4716021 43.4058326"></polygon>
                    </g>
                </g>
                <g id="Group-15-Copy-33" transform="translate(200.843416, 191.093771)">
                    <g id="Group-186" transform="translate(0.000000, 12.597082)">
                        <polygon id="Fill-184" points="43.6893585 0.166281486 46.0236886 11.1827614 2.71948373 20.3985216 0.385153648 9.38204165"></polygon>
                    </g>
                    <g id="Group-189" transform="translate(12.828664, 0.000000)">
                        <polygon id="Fill-187" points="11.2745533 0.0135252883 0.277794287 2.35260456 9.47748969 45.7449118 20.4716021 43.4058326"></polygon>
                    </g>
                </g>
                <g id="Group-15-Copy-32" transform="translate(136.236443, 130.674417)">
                    <g id="Group-186" transform="translate(-0.000000, 12.597082)">
                        <polygon id="Fill-184" points="43.6893585 0.166281486 46.0236886 11.1827614 2.71948373 20.3985216 0.385153648 9.38204165"></polygon>
                    </g>
                    <g id="Group-189" transform="translate(12.828664, 0.000000)">
                        <polygon id="Fill-187" points="11.2745533 0.0135252883 0.277794287 2.35260456 9.47748969 45.7449118 20.4716021 43.4058326"></polygon>
                    </g>
                </g>
                <g id="Group-15-Copy-30" transform="translate(273.877385, 130.674417)">
                    <g id="Group-186" transform="translate(0.000000, 12.597082)">
                        <polygon id="Fill-184" points="43.6893585 0.166281486 46.0236886 11.1827614 2.71948373 20.3985216 0.385153648 9.38204165"></polygon>
                    </g>
                    <g id="Group-189" transform="translate(12.828664, 0.000000)">
                        <polygon id="Fill-187" points="11.2745533 0.0135252883 0.277794287 2.35260456 9.47748969 45.7449118 20.4716021 43.4058326"></polygon>
                    </g>
                </g>
                <g id="Group-15-Copy-29" transform="translate(474.720801, 191.093771)">
                    <g id="Group-186" transform="translate(-0.000000, 12.597082)">
                        <polygon id="Fill-184" points="43.6893585 0.166281486 46.0236886 11.1827614 2.71948373 20.3985216 0.385153648 9.38204165"></polygon>
                    </g>
                    <g id="Group-189" transform="translate(12.828664, 0.000000)">
                        <polygon id="Fill-187" points="11.2745533 0.0135252883 0.277794287 2.35260456 9.47748969 45.7449118 20.4716021 43.4058326"></polygon>
                    </g>
                </g>
                <g id="Group-15-Copy-28" transform="translate(410.113828, 130.674417)">
                    <g id="Group-186" transform="translate(0.000000, 12.597082)">
                        <polygon id="Fill-184" points="43.6893585 0.166281486 46.0236886 11.1827614 2.71948373 20.3985216 0.385153648 9.38204165"></polygon>
                    </g>
                    <g id="Group-189" transform="translate(12.828664, 0.000000)">
                        <polygon id="Fill-187" points="11.2745533 0.0135252883 0.277794287 2.35260456 9.47748969 45.7449118 20.4716021 43.4058326"></polygon>
                    </g>
                </g>
                <g id="Group-15-Copy-26" transform="translate(544.945771, 130.674417)">
                    <g id="Group-186" transform="translate(-0.000000, 12.597082)">
                        <polygon id="Fill-184" points="43.6893585 0.166281486 46.0236886 11.1827614 2.71948373 20.3985216 0.385153648 9.38204165"></polygon>
                    </g>
                    <g id="Group-189" transform="translate(12.828664, 0.000000)">
                        <polygon id="Fill-187" points="11.2745533 0.0135252883 0.277794287 2.35260456 9.47748969 45.7449118 20.4716021 43.4058326"></polygon>
                    </g>
                </g>
                <g id="Group-15-Copy-25" transform="translate(748.598186, 191.093771)">
                    <g id="Group-186" transform="translate(-0.000000, 12.597082)">
                        <polygon id="Fill-184" points="43.6893585 0.166281486 46.0236886 11.1827614 2.71948373 20.3985216 0.385153648 9.38204165"></polygon>
                    </g>
                    <g id="Group-189" transform="translate(12.828664, 0.000000)">
                        <polygon id="Fill-187" points="11.2745533 0.0135252883 0.277794287 2.35260456 9.47748969 45.7449118 20.4716021 43.4058326"></polygon>
                    </g>
                </g>
                <g id="Group-15-Copy-24" transform="translate(682.586713, 130.674417)">
                    <g id="Group-186" transform="translate(-0.000000, 12.597082)">
                        <polygon id="Fill-184" points="43.6893585 0.166281486 46.0236886 11.1827614 2.71948373 20.3985216 0.385153648 9.38204165"></polygon>
                    </g>
                    <g id="Group-189" transform="translate(12.828664, 0.000000)">
                        <polygon id="Fill-187" points="11.2745533 0.0135252883 0.277794287 2.35260456 9.47748969 45.7449118 20.4716021 43.4058326"></polygon>
                    </g>
                </g>
                <g id="Group-15-Copy-46" transform="translate(0.000000, 0.000000)">
                    <g id="Group-186" transform="translate(0.000000, 12.597082)">
                        <polygon id="Fill-184" points="43.6893585 0.166281486 46.0236886 11.1827614 2.71948373 20.3985216 0.385153648 9.38204165"></polygon>
                    </g>
                    <g id="Group-189" transform="translate(12.828664, 0.000000)">
                        <polygon id="Fill-187" points="11.2745533 0.0135252883 0.277794287 2.35260456 9.47748969 45.7449118 20.4716021 43.4058326"></polygon>
                    </g>
                </g>
                <g id="Group-15-Copy-45" transform="translate(200.843416, 59.014253)">
                    <g id="Group-186" transform="translate(0.000000, 12.597082)">
                        <polygon id="Fill-184" points="43.6893585 0.166281486 46.0236886 11.1827614 2.71948373 20.3985216 0.385153648 9.38204165"></polygon>
                    </g>
                    <g id="Group-189" transform="translate(12.828664, 0.000000)">
                        <polygon id="Fill-187" points="11.2745533 0.0135252883 0.277794287 2.35260456 9.47748969 45.7449118 20.4716021 43.4058326"></polygon>
                    </g>
                </g>
                <g id="Group-15-Copy-44" transform="translate(136.236443, 0.000000)">
                    <g id="Group-186" transform="translate(0.000000, 12.597082)">
                        <polygon id="Fill-184" points="43.6893585 0.166281486 46.0236886 11.1827614 2.71948373 20.3985216 0.385153648 9.38204165"></polygon>
                    </g>
                    <g id="Group-189" transform="translate(12.828664, 0.000000)">
                        <polygon id="Fill-187" points="11.2745533 0.0135252883 0.277794287 2.35260456 9.47748969 45.7449118 20.4716021 43.4058326"></polygon>
                    </g>
                </g>
                <g id="Group-15-Copy-42" transform="translate(273.877385, 0.000000)">
                    <g id="Group-186" transform="translate(0.000000, 12.597082)">
                        <polygon id="Fill-184" points="43.6893585 0.166281486 46.0236886 11.1827614 2.71948373 20.3985216 0.385153648 9.38204165"></polygon>
                    </g>
                    <g id="Group-189" transform="translate(12.828664, 0.000000)">
                        <polygon id="Fill-187" points="11.2745533 0.0135252883 0.277794287 2.35260456 9.47748969 45.7449118 20.4716021 43.4058326"></polygon>
                    </g>
                </g>
                <g id="Group-15-Copy-41" transform="translate(498.250033, 83.722527) rotate(48.000000) translate(-498.250033, -83.722527) translate(474.750033, 60.722527)">
                    <g id="Group-186" transform="translate(0.000000, 12.597082)">
                        <polygon id="Fill-184" points="43.6893585 0.166281486 46.0236886 11.1827614 2.71948373 20.3985216 0.385153648 9.38204165"></polygon>
                    </g>
                    <g id="Group-189" transform="translate(12.828664, 0.000000)">
                        <polygon id="Fill-187" points="11.2745533 0.0135252883 0.277794287 2.35260456 9.47748969 45.7449118 20.4716021 43.4058326"></polygon>
                    </g>
                </g>
                <g id="Group-15-Copy-40" transform="translate(410.113828, 0.000000)">
                    <g id="Group-186" transform="translate(0.000000, 12.597082)">
                        <polygon id="Fill-184" points="43.6893585 0.166281486 46.0236886 11.1827614 2.71948373 20.3985216 0.385153648 9.38204165"></polygon>
                    </g>
                    <g id="Group-189" transform="translate(12.828664, 0.000000)">
                        <polygon id="Fill-187" points="11.2745533 0.0135252883 0.277794287 2.35260456 9.47748969 45.7449118 20.4716021 43.4058326"></polygon>
                    </g>
                </g>
                <g id="Group-15-Copy-38" transform="translate(544.945771, 0.000000)">
                    <g id="Group-186" transform="translate(0.000000, 12.597082)">
                        <polygon id="Fill-184" points="43.6893585 0.166281486 46.0236886 11.1827614 2.71948373 20.3985216 0.385153648 9.38204165"></polygon>
                    </g>
                    <g id="Group-189" transform="translate(12.828664, 0.000000)">
                        <polygon id="Fill-187" points="11.2745533 0.0135252883 0.277794287 2.35260456 9.47748969 45.7449118 20.4716021 43.4058326"></polygon>
                    </g>
                </g>
                <g id="Group-15-Copy-37" transform="translate(748.598186, 59.014253)">
                    <g id="Group-186" transform="translate(-0.000000, 12.597082)">
                        <polygon id="Fill-184" points="43.6893585 0.166281486 46.0236886 11.1827614 2.71948373 20.3985216 0.385153648 9.38204165"></polygon>
                    </g>
                    <g id="Group-189" transform="translate(12.828664, 0.000000)">
                        <polygon id="Fill-187" points="11.2745533 0.0135252883 0.277794287 2.35260456 9.47748969 45.7449118 20.4716021 43.4058326"></polygon>
                    </g>
                </g>
                <g id="Group-15-Copy-36" transform="translate(682.586713, 0.000000)">
                    <g id="Group-186" transform="translate(0.000000, 12.597082)">
                        <polygon id="Fill-184" points="43.6893585 0.166281486 46.0236886 11.1827614 2.71948373 20.3985216 0.385153648 9.38204165"></polygon>
                    </g>
                    <g id="Group-189" transform="translate(12.828664, 0.000000)">
                        <polygon id="Fill-187" points="11.2745533 0.0135252883 0.277794287 2.35260456 9.47748969 45.7449118 20.4716021 43.4058326"></polygon>
                    </g>
                </g>
            </g>
        </g>
    </g>
</svg>