<?xml version="1.0" encoding="UTF-8"?>
<svg width="1125px" height="220px" viewBox="0 0 1125 220" version="1.1" xmlns="http://www.w3.org/2000/svg" xmlns:xlink="http://www.w3.org/1999/xlink">
    <!-- Generator: Sketch 47.1 (45422) - http://www.bohemiancoding.com/sketch -->
    <title>border</title>
    <desc>Created with Sketch.</desc>
    <defs></defs>
    <g id="Page-1" stroke="none" stroke-width="1" fill="none" fill-rule="evenodd">
        <g id="3_Boldyrev_desktop" transform="translate(-161.000000, -2493.000000)">
            <g id="border" transform="translate(157.000000, 2479.000000)">
                <polyline id="Path-7" stroke="#330099" stroke-width="8" stroke-dasharray="45,30" transform="translate(566.631687, 97.689739) rotate(3.000000) translate(-566.631687, -97.689739) " points="2.80050874 68.7452147 377.678833 29.4150758 734.703343 165.964402 1130.46287 124.43488"></polyline>
                <polyline id="Path-7-Copy" stroke="#330099" stroke-width="8" stroke-dasharray="45,30" transform="translate(649.914446, 154.646942) rotate(3.000000) translate(-649.914446, -154.646942) " points="410.511673 96.9503018 734.03468 212.343583 889.31722 194.89297"></polyline>
                <path d="M503.114935,122 L496,139.296441" id="Path-6-Copy" stroke="#330099" stroke-width="8"></path>
                <path d="M859.638431,209.342165 L861.476504,227.954276" id="Path-6-Copy" stroke="#330099" stroke-width="8"></path>
                <path d="M784.963768,214.31576 L786.151167,232.980681" id="Path-6-Copy" stroke="#330099" stroke-width="8"></path>
                <path d="M712.114935,209 L705,226.296441" id="Path-6-Copy" stroke="#330099" stroke-width="8"></path>
                <path d="M435.114935,93 L428,110.296441" id="Path-6" stroke="#330099" stroke-width="8"></path>
                <path d="M573.114935,151 L566,168.296441" id="Path-6-Copy" stroke="#330099" stroke-width="8"></path>
                <path d="M642.114935,180 L635,197.296441" id="Path-6-Copy" stroke="#330099" stroke-width="8"></path>
                <circle id="Oval-6" fill="#330099" cx="65.5" cy="35.5" r="5.5"></circle>
                <circle id="Oval-6-Copy" fill="#330099" cx="140.5" cy="31.5" r="5.5"></circle>
                <circle id="Oval-6-Copy-2" fill="#330099" cx="214.5" cy="27.5" r="5.5"></circle>
                <circle id="Oval-6-Copy-3" fill="#330099" cx="289.5" cy="23.5" r="5.5"></circle>
                <circle id="Oval-6-Copy-4" fill="#330099" cx="364.5" cy="19.5" r="5.5"></circle>
                <circle id="Oval-6-Copy-5" fill="#330099" cx="434.5" cy="42.5" r="5.5"></circle>
                <circle id="Oval-6-Copy-6" fill="#330099" cx="502.5" cy="73.5" r="5.5"></circle>
                <circle id="Oval-6-Copy-7" fill="#330099" cx="571.5" cy="103.5" r="5.5"></circle>
                <circle id="Oval-6-Copy-8" fill="#330099" cx="640.5" cy="134.5" r="5.5"></circle>
                <circle id="Oval-6-Copy-9" fill="#330099" cx="708.5" cy="165.5" r="5.5"></circle>
                <circle id="Oval-6-Copy-10" fill="#330099" cx="782.5" cy="171.5" r="5.5"></circle>
                <circle id="Oval-6-Copy-11" fill="#330099" cx="857.5" cy="167.5" r="5.5"></circle>
                <circle id="Oval-6-Copy-12" fill="#330099" cx="931.5" cy="163.5" r="5.5"></circle>
                <circle id="Oval-6-Copy-13" fill="#330099" cx="1007.5" cy="159.5" r="5.5"></circle>
                <circle id="Oval-6-Copy-14" fill="#330099" cx="1081.5" cy="155.5" r="5.5"></circle>
            </g>
        </g>
    </g>
</svg>