<?xml version="1.0" encoding="UTF-8"?>
<svg width="261px" height="252px" viewBox="0 0 261 252" version="1.1" xmlns="http://www.w3.org/2000/svg" xmlns:xlink="http://www.w3.org/1999/xlink">
    <!-- Generator: Sketch 47.1 (45422) - http://www.bohemiancoding.com/sketch -->
    <title>3_heart_pattern_bottom</title>
    <desc>Created with Sketch.</desc>
    <defs>
        <linearGradient x1="0%" y1="0%" x2="101.999998%" y2="100.999999%" id="linearGradient-1">
            <stop stop-color="#3023AE" offset="0%"></stop>
            <stop stop-color="#C86DD7" offset="100%"></stop>
        </linearGradient>
    </defs>
    <g id="Page-1" stroke="none" stroke-width="1" fill="none" fill-rule="evenodd">
        <g id="3_Boldyrev_desktop" transform="translate(-743.000000, -793.000000)" fill-rule="nonzero" fill="url(#linearGradient-1)">
            <g id="hearts" transform="translate(739.000000, 792.000000)">
                <g id="Group-11">
                    <path d="M56.3753813,16.3708431 C54.5406384,18.198634 54.5424409,21.1398056 56.3753813,22.9693625 L64.4949364,31.076933 C67.2046296,28.3775437 69.9142984,25.67813 72.6239428,22.9787407 C74.4586857,21.1509474 74.4586857,18.2080049 72.6239428,16.380214 C70.7892243,14.5524232 67.8350888,14.5523964 66.0003459,16.380214 L64.504339,17.8705087 L62.9990026,16.3708431 C61.1642354,14.5430523 58.210124,14.5430523 56.3753813,16.3708431 L56.3753813,16.3708431 Z" id="Shape"></path>
                    <path d="M237.375381,79.3708431 C235.540638,81.198634 235.542441,84.1398056 237.375381,85.9693625 L245.494936,94.076933 C248.20463,91.3775437 250.914298,88.67813 253.623943,85.9787407 C255.458686,84.1509474 255.458686,81.2080049 253.623943,79.380214 C251.789224,77.5524232 248.835089,77.5523964 247.000346,79.380214 L245.504339,80.8705087 L243.999003,79.3708431 C242.164235,77.5430523 239.210124,77.5430523 237.375381,79.3708431 L237.375381,79.3708431 Z" id="Shape-Copy-9"></path>
                    <path d="M110.375381,236.370843 C108.540638,238.198634 108.542441,241.139806 110.375381,242.969362 L118.494936,251.076933 C121.20463,248.377544 123.914298,245.67813 126.623943,242.978741 C128.458686,241.150947 128.458686,238.208005 126.623943,236.380214 C124.789224,234.552423 121.835089,234.552396 120.000346,236.380214 L118.504339,237.870509 L116.999003,236.370843 C115.164235,234.543052 112.210124,234.543052 110.375381,236.370843 L110.375381,236.370843 Z" id="Shape-Copy-10"></path>
                    <path d="M157.268001,138.366079 C155.433258,140.19387 155.43506,143.135042 157.268001,144.964598 L165.387556,153.072169 C168.097249,150.37278 170.806918,147.673366 173.516562,144.973977 C175.351305,143.146183 175.351305,140.203241 173.516562,138.37545 C171.681844,136.547659 168.727708,136.547632 166.892965,138.37545 L165.396958,139.865745 L163.891622,138.366079 C162.056855,136.538288 159.102743,136.538288 157.268001,138.366079 L157.268001,138.366079 Z" id="Shape-Copy" transform="translate(165.392619, 145.033702) rotate(35.000000) translate(-165.392619, -145.033702) "></path>
                    <path d="M169.578844,36.1916466 C167.744101,38.0194374 167.745904,40.9606091 169.578844,42.790166 L177.698399,50.8977365 C180.408092,48.1983471 183.117761,45.4989335 185.827406,42.7995442 C187.662148,40.9717509 187.662148,38.0288083 185.827406,36.2010175 C183.992687,34.3732267 181.038551,34.3731999 179.203809,36.2010175 L177.707802,37.6913122 L176.202465,36.1916466 C174.367698,34.3638558 171.413587,34.3638558 169.578844,36.1916466 L169.578844,36.1916466 Z" id="Shape-Copy-2" transform="translate(177.703463, 42.859270) rotate(79.000000) translate(-177.703463, -42.859270) "></path>
                    <path d="M3.76105653,160.44377 C1.92631357,162.271561 1.92811614,165.212732 3.76105653,167.042289 L11.8806116,175.14986 C14.5903048,172.45047 17.2999736,169.751057 20.009618,167.051667 C21.8443609,165.223874 21.8443609,162.280931 20.009618,160.453141 C18.1748995,158.62535 15.220764,158.625323 13.3860211,160.453141 L11.8900142,161.943435 L10.3846778,160.44377 C8.54991059,158.615979 5.59579917,158.615979 3.76105653,160.44377 L3.76105653,160.44377 Z" id="Shape-Copy-11" transform="translate(11.885675, 167.111393) rotate(23.000000) translate(-11.885675, -167.111393) "></path>
                    <path d="M131.761057,4.44376977 C129.926314,6.2715606 129.928116,9.21273229 131.761057,11.0422891 L139.880612,19.1498596 C142.590305,16.4504703 145.299974,13.7510567 148.009618,11.0516674 C149.844361,9.22387409 149.844361,6.2809315 148.009618,4.45314067 C146.1749,2.62534984 143.220764,2.62532305 141.386021,4.45314067 L139.890014,5.94343537 L138.384678,4.44376977 C136.549911,2.61597894 133.595799,2.61597894 131.761057,4.44376977 L131.761057,4.44376977 Z" id="Shape-Copy-12" transform="translate(139.885675, 11.111393) rotate(23.000000) translate(-139.885675, -11.111393) "></path>
                    <path d="M217.761057,198.44377 C215.926314,200.271561 215.928116,203.212732 217.761057,205.042289 L225.880612,213.14986 C228.590305,210.45047 231.299974,207.751057 234.009618,205.051667 C235.844361,203.223874 235.844361,200.280931 234.009618,198.453141 C232.1749,196.62535 229.220764,196.625323 227.386021,198.453141 L225.890014,199.943435 L224.384678,198.44377 C222.549911,196.615979 219.595799,196.615979 217.761057,198.44377 L217.761057,198.44377 Z" id="Shape-Copy-13" transform="translate(225.885675, 205.111393) rotate(23.000000) translate(-225.885675, -205.111393) "></path>
                    <path d="M75.578844,161.191647 C73.7441011,163.019437 73.7459036,165.960609 75.578844,167.790166 L83.6983991,175.897736 C86.4080923,173.198347 89.1177611,170.498933 91.8274055,167.799544 C93.6621484,165.971751 93.6621484,163.028808 91.8274055,161.201017 C89.992687,159.373227 87.0385515,159.3732 85.2038086,161.201017 L83.7078017,162.691312 L82.2024653,161.191647 C80.3676981,159.363856 77.4135867,159.363856 75.578844,161.191647 L75.578844,161.191647 Z" id="Shape-Copy-3" transform="translate(83.703463, 167.859270) rotate(79.000000) translate(-83.703463, -167.859270) "></path>
                    <path d="M205.578844,130.191647 C203.744101,132.019437 203.745904,134.960609 205.578844,136.790166 L213.698399,144.897736 C216.408092,142.198347 219.117761,139.498933 221.827406,136.799544 C223.662148,134.971751 223.662148,132.028808 221.827406,130.201017 C219.992687,128.373227 217.038551,128.3732 215.203809,130.201017 L213.707802,131.691312 L212.202465,130.191647 C210.367698,128.363856 207.413587,128.363856 205.578844,130.191647 L205.578844,130.191647 Z" id="Shape-Copy-17" transform="translate(213.703463, 136.859270) rotate(79.000000) translate(-213.703463, -136.859270) "></path>
                    <path d="M249.726621,149.648572 C247.891878,151.476363 247.89368,154.417534 249.726621,156.247091 L257.846176,164.354662 C260.555869,161.655272 263.265538,158.955859 265.975182,156.256469 C267.809925,154.428676 267.809925,151.485734 265.975182,149.657943 C264.140464,147.830152 261.186328,147.830125 259.351585,149.657943 L257.855578,151.148237 L256.350242,149.648572 C254.515475,147.820781 251.561363,147.820781 249.726621,149.648572 L249.726621,149.648572 Z" id="Shape-Copy-4" transform="translate(257.851239, 156.316195) rotate(-58.000000) translate(-257.851239, -156.316195) "></path>
                    <path d="M107.726621,53.6485718 C105.891878,55.4763626 105.89368,58.4175343 107.726621,60.2470912 L115.846176,68.3546617 C118.555869,65.6552723 121.265538,62.9558587 123.975182,60.2564694 C125.809925,58.4286761 125.809925,55.4857335 123.975182,53.6579427 C122.140464,51.8301519 119.186328,51.8301251 117.351585,53.6579427 L115.855578,55.1482374 L114.350242,53.6485718 C112.515475,51.820781 109.561363,51.820781 107.726621,53.6485718 L107.726621,53.6485718 Z" id="Shape-Copy-5" transform="translate(115.851239, 60.316195) rotate(-58.000000) translate(-115.851239, -60.316195) "></path>
                    <path d="M13.7266206,113.648572 C11.8918776,115.476363 11.8936802,118.417534 13.7266206,120.247091 L21.8461757,128.354662 C24.5558688,125.655272 27.2655376,122.955859 29.9751821,120.256469 C31.8099249,118.428676 31.8099249,115.485734 29.9751821,113.657943 C28.1404635,111.830152 25.186328,111.830125 23.3515851,113.657943 L21.8555782,115.148237 L20.3502419,113.648572 C18.5154746,111.820781 15.5613632,111.820781 13.7266206,113.648572 L13.7266206,113.648572 Z" id="Shape-Copy-6" transform="translate(21.851239, 120.316195) rotate(-58.000000) translate(-21.851239, -120.316195) "></path>
                    <path d="M167.220814,78.2480727 C165.386071,80.0758635 165.387874,83.0170352 167.220814,84.8465921 L175.340369,92.9541626 C178.050063,90.2547733 180.759731,87.5553596 183.469376,84.8559703 C185.304119,83.028177 185.304119,80.0852344 183.469376,78.2574436 C181.634657,76.4296528 178.680522,76.429626 176.845779,78.2574436 L175.349772,79.7477383 L173.844436,78.2480727 C172.009668,76.4202819 169.055557,76.4202819 167.220814,78.2480727 L167.220814,78.2480727 Z" id="Shape-Copy-14" transform="translate(175.345433, 84.915696) rotate(-147.000000) translate(-175.345433, -84.915696) "></path>
                    <path d="M56.2208144,197.248073 C54.3860714,199.075864 54.387874,202.017035 56.2208144,203.846592 L64.3403695,211.954163 C67.0500626,209.254773 69.7597314,206.55536 72.4693759,203.85597 C74.3041187,202.028177 74.3041187,199.085234 72.4693759,197.257444 C70.6346573,195.429653 67.6805218,195.429626 65.8457789,197.257444 L64.349772,198.747738 L62.8444357,197.248073 C61.0096684,195.420282 58.055557,195.420282 56.2208144,197.248073 L56.2208144,197.248073 Z" id="Shape-Copy-15" transform="translate(64.345433, 203.915696) rotate(-147.000000) translate(-64.345433, -203.915696) "></path>
                    <path d="M37.2208144,59.2480727 C35.3860714,61.0758635 35.387874,64.0170352 37.2208144,65.8465921 L45.3403695,73.9541626 C48.0500626,71.2547733 50.7597314,68.5553596 53.4693759,65.8559703 C55.3041187,64.028177 55.3041187,61.0852344 53.4693759,59.2574436 C51.6346573,57.4296528 48.6805218,57.429626 46.8457789,59.2574436 L45.349772,60.7477383 L43.8444357,59.2480727 C42.0096684,57.4202819 39.055557,57.4202819 37.2208144,59.2480727 L37.2208144,59.2480727 Z" id="Shape-Copy-16" transform="translate(45.345433, 65.915696) rotate(-147.000000) translate(-45.345433, -65.915696) "></path>
                    <path d="M184.132185,238.55572 C182.297442,240.383511 182.299245,243.324682 184.132185,245.154239 L192.25174,253.26181 C194.961433,250.562421 197.671102,247.863007 200.380746,245.163618 C202.215489,243.335824 202.215489,240.392882 200.380746,238.565091 C198.546028,236.7373 195.591892,236.737273 193.757149,238.565091 L192.261143,240.055386 L190.755806,238.55572 C188.921039,236.727929 185.966928,236.727929 184.132185,238.55572 L184.132185,238.55572 Z" id="Shape-Copy-7" transform="translate(192.256804, 245.223343) rotate(-15.000000) translate(-192.256804, -245.223343) "></path>
                    <path d="M215.132185,18.5557199 C213.297442,20.3835108 213.299245,23.3246825 215.132185,25.1542393 L223.25174,33.2618098 C225.961433,30.5624205 228.671102,27.8630068 231.380746,25.1636175 C233.215489,23.3358243 233.215489,20.3928817 231.380746,18.5650908 C229.546028,16.7373 226.591892,16.7372732 224.757149,18.5650908 L223.261143,20.0553855 L221.755806,18.5557199 C219.921039,16.7279291 216.966928,16.7279291 215.132185,18.5557199 L215.132185,18.5557199 Z" id="Shape-Copy-18" transform="translate(223.256804, 25.223343) rotate(-15.000000) translate(-223.256804, -25.223343) "></path>
                    <path d="M87.1321849,103.55572 C85.297442,105.383511 85.2992445,108.324682 87.1321849,110.154239 L95.25174,118.26181 C97.9614332,115.562421 100.671102,112.863007 103.380746,110.163618 C105.215489,108.335824 105.215489,105.392882 103.380746,103.565091 C101.546028,101.7373 98.5918923,101.737273 96.7571495,103.565091 L95.2611426,105.055386 L93.7558062,103.55572 C91.921039,101.727929 88.9669275,101.727929 87.1321849,103.55572 L87.1321849,103.55572 Z" id="Shape-Copy-8" transform="translate(95.256804, 110.223343) rotate(-15.000000) translate(-95.256804, -110.223343) "></path>
                    <path d="M144.132185,192.55572 C142.297442,194.383511 142.299245,197.324682 144.132185,199.154239 L152.25174,207.26181 C154.961433,204.562421 157.671102,201.863007 160.380746,199.163618 C162.215489,197.335824 162.215489,194.392882 160.380746,192.565091 C158.546028,190.7373 155.591892,190.737273 153.757149,192.565091 L152.261143,194.055386 L150.755806,192.55572 C148.921039,190.727929 145.966928,190.727929 144.132185,192.55572 L144.132185,192.55572 Z" id="Shape-Copy-19" transform="translate(152.256804, 199.223343) rotate(-15.000000) translate(-152.256804, -199.223343) "></path>
                </g>
            </g>
        </g>
    </g>
</svg>