<?xml version="1.0" encoding="UTF-8"?>
<svg viewBox="0 0 46 46" version="1.1" xmlns="http://www.w3.org/2000/svg" xmlns:xlink="http://www.w3.org/1999/xlink">
    <g id="Symbols" stroke="none" stroke-width="1" fill="none" fill-rule="evenodd">
        <g id="Share" transform="translate(1.000000, 1.000000)">
            <g id="Group-4-Copy-4">
                <g id="noun_975184_cc" transform="translate(8.000000, 8.000000)" fill-rule="nonzero" fill="#ffffff">
                    <g id="Group">
                        <path d="M18.7285714,0.116554023 C16.3734371,0.116554023 14.4571429,1.9935646 14.4571429,4.30046207 C14.4571429,4.87718805 14.5795357,5.42939632 14.7959657,5.92977241 L7.26964286,10.978623 C6.49786143,10.2326515 5.43867857,9.77172644 4.27142857,9.77172644 C1.91629429,9.77172644 0,11.648737 0,13.9556506 C0,16.2625287 1.91629429,18.1395586 4.27142857,18.1395586 C5.43867857,18.1395586 6.49786143,17.6786207 7.26964286,16.9326621 L14.7959657,21.9815126 C14.5795357,22.4818759 14.4571429,23.0340874 14.4571429,23.610823 C14.4571429,25.9177011 16.3734371,27.794731 18.7285714,27.794731 C21.0837057,27.794731 23,25.9177011 23,23.610823 C23,21.3039126 21.0837057,19.4269149 18.7285714,19.4269149 C17.2003857,19.4269149 15.8590257,20.2230161 15.1040343,21.4082207 L7.70089286,16.4398299 C8.22917,15.7435632 8.54285714,14.8877609 8.54285714,13.9556506 C8.54285714,13.0235048 8.22917,12.1677315 7.70089286,11.4714391 L15.1040343,6.50304828 C15.8590257,7.6882754 17.2003857,8.48437011 18.7285714,8.48437011 C21.0837057,8.48437011 23,6.60735954 23,4.30046207 C23,1.9935646 21.0837057,0.116554023 18.7285714,0.116554023 L18.7285714,0.116554023 Z M18.7285714,0.760232184 C20.7285857,0.760232184 22.3428571,2.34143402 22.3428571,4.30046207 C22.3428571,6.25949011 20.7285857,7.84069195 18.7285714,7.84069195 C16.7285571,7.84069195 15.1142857,6.25949011 15.1142857,4.30046207 C15.1142857,2.34143402 16.7285571,0.760232184 18.7285714,0.760232184 Z M4.27142857,10.4154046 C6.27144286,10.4154046 7.88571429,11.9966064 7.88571429,13.9556506 C7.88571429,15.9146851 6.27144286,17.4958805 4.27142857,17.4958805 C2.27141429,17.4958805 0.657142857,15.9146851 0.657142857,13.9556506 C0.657142857,11.9966064 2.27141429,10.4154046 4.27142857,10.4154046 Z M18.7285714,20.0705931 C20.7285857,20.0705931 22.3428571,21.6517885 22.3428571,23.610823 C22.3428571,25.5698575 20.7285857,27.1510529 18.7285714,27.1510529 C16.7285571,27.1510529 15.1142857,25.5698575 15.1142857,23.610823 C15.1142857,21.6517885 16.7285571,20.0705931 18.7285714,20.0705931 Z" id="Shape"></path>
                    </g>
                </g>
                <circle id="Oval" stroke="#ffffff" stroke-width="2" cx="22" cy="22" r="22"></circle>
            </g>
        </g>
    </g>
</svg>
