<?xml version="1.0" encoding="utf-8"?>
<!-- Generator: Adobe Illustrator 20.1.0, SVG Export Plug-In . SVG Version: 6.00 Build 0)  -->
<svg version="1.1" id="Слой_1" xmlns="http://www.w3.org/2000/svg" xmlns:xlink="http://www.w3.org/1999/xlink" x="0px" y="0px"
	 viewBox="0 0 72.1 72" style="enable-background:new 0 0 72.1 72;" xml:space="preserve">
<style type="text/css">
	.st0{fill:none;}
	.st1{fill:url(#SVGID_1_);}
	.st2{fill:#363636;}
	.st3{fill:#E4E4E4;}
	.st4{fill:#EAEAEA;}
	.st5{fill:#D7D7D7;}
	.st6{fill:#E697A6;}
	.st7{fill:#E27F91;}
</style>
<path class="st0" d="M36.1,0.1c-19.9,0-36,16.1-36,36c0,14,8,26.1,19.6,32c-2.2-1.3-3.5-2.2-3.5-2.2l16-5.5v-6.6
	c0,0,0.8,0.2,1.7,0.6c1.7,0.9,5.3,2.3,8.9,3.8c0.1-0.1,0.3-0.3,0.4-0.3V58c3.6-1.4,6.4-2.9,8.2-3.7c0.2-0.1,0.4-0.2,0.5-0.2v-0.4
	c0,0,0.3,0.2,0,0.4v6.3l8.2,2.4c0,0-0.6,0.7-1.7,1.6c8.4-6.6,13.7-16.8,13.7-28.3C72.1,16.2,56,0.1,36.1,0.1z"/>
<g>
	
		<linearGradient id="SVGID_1_" gradientUnits="userSpaceOnUse" x1="36" y1="-19.8" x2="36" y2="-91.8" gradientTransform="matrix(1 0 0 -1 0 -19.8)">
		<stop  offset="0" style="stop-color:#FFFFFF"/>
		<stop  offset="1" style="stop-color:#BABABA"/>
	</linearGradient>
	<ellipse class="st1" cx="36" cy="36" rx="36" ry="36"/>
	<g>
		<polygon class="st2" points="42.9,51.1 42.9,51.1 42.9,45.5 		"/>
		<polygon class="st2" points="29.1,23.5 29.3,24.1 29.3,28 29.1,28 		"/>
		<path class="st3" d="M47,52.2l-3.8,0.5L43,51h-0.2v1.7L38,52.2l-5.7-2.7v4.8c3,0.9,6,2.4,9.8,3.9c3.8-1.5,8.3-3,9.8-3.9v-5.4
			L47,52.2z"/>
		<polygon class="st4" points="43.2,54.1 42.3,42.3 40.1,41.3 42.2,29.1 42.2,15.9 41.9,15.9 37.1,15.9 28.3,24.2 28.4,29.5 
			28.3,29.5 27.5,29.5 27.4,30.3 25.7,34.6 27.8,40.1 29.4,40.5 32.7,50.4 33.6,51 38.3,53.7 		"/>
		<polygon class="st5" points="42.2,29.1 40.2,41.3 42.3,42.3 42.5,54.1 46.4,53.7 51.7,50.4 55,40.7 56.4,40.2 58.5,34.9 57,30.3 
			56.8,29.5 55.9,29.5 56.1,24.7 46.9,15.9 42.8,15.9 42.2,15.9 		"/>
		<polygon class="st2" points="52.9,7.3 41.9,5.5 30.9,7 25.1,17.1 27.5,30.1 29.1,30.3 28.3,24.8 37.1,15.9 46.9,15.9 55.6,24.7 
			55.5,29.9 56.8,29.8 58.7,17.3 		"/>
		<path class="st0" d="M43.3,58.4c0-0.1,0-0.2,0-0.3c-0.1,0.1-0.3,0.1-0.4,0.2C43.1,58.2,43.2,58.3,43.3,58.4z"/>
		<path class="st6" d="M60.2,62.4L52,60v-6.3c-0.1,0.1-0.2,0.1-0.5,0.2c-1.7,0.9-6,2.7-9.5,4.2c0,0.1,0.2,8.6,0.4,13.2
			c5.9-1.1,11.7-3.9,16-7.3C59.6,63.1,60.2,62.4,60.2,62.4z"/>
		<path class="st7" d="M42.5,57.9c0,0-7.2-2.9-9-3.8c-0.9-0.5-1.7-0.6-1.7-0.6v6.6l-16,5.5c0,0,1.2,1,3.5,2.2c4.9,2.5,10.5,4,16.4,4
			c2.4,0,4.8-0.1,7.1-0.6C42.8,67.1,42.6,58,42.5,57.9z"/>
	</g>
</g>
</svg>
