<svg width="84" height="84" viewBox="0 0 84 84" version="1.1" xmlns="http://www.w3.org/2000/svg" xmlns:xlink="http://www.w3.org/1999/xlink">
<title>Group</title>
<desc>Created using Figma</desc>
<g id="Canvas" transform="translate(-31225 18651)">
<g id="Group">
<g id="Oval 2">
<use xlink:href="#path0_fill" transform="translate(31225 -18651)" fill="#FFFFFF"/>
</g>
<g id="Path 3 Copy 2">
<use xlink:href="#path1_stroke" transform="matrix(0.707107 -0.707107 0.707107 0.707107 31255.7 -18609.5)" fill="#FF4A68"/>
</g>
</g>
</g>
<defs>
<path id="path0_fill" fill-rule="evenodd" d="M 42 84C 65.196 84 84 65.196 84 42C 84 18.804 65.196 0 42 0C 18.804 0 0 18.804 0 42C 0 65.196 18.804 84 42 84Z"/>
<path id="path1_stroke" d="M 11 11L 11 12L 12 12L 12 11L 11 11ZM 0 12L 11 12L 11 10L 0 10L 0 12ZM 12 11L 12 0L 10 0L 10 11L 12 11Z"/>
</defs>
</svg>
