<?xml version="1.0" encoding="UTF-8"?>
<svg viewBox="0 0 915 457" version="1.1" xmlns="http://www.w3.org/2000/svg" xmlns:xlink="http://www.w3.org/1999/xlink">
    <g id="--" stroke="none" stroke-width="1" fill="none" fill-rule="evenodd">
        <g id="1-1-Desktop-#0-Cover-Copy-2" transform="translate(-381.000000, 0.000000)" fill="#FFFFFF">
            <path d="M1613,457 L1613,-254 L381,-254 L381,457 L499.47536,457 C501.137097,449.658113 502.402187,444.646801 503.156878,440.689668 C505.861942,426.503876 510.85906,411.46188 516.090183,397.927481 C520.270281,387.118545 537.850695,348.108864 541.565783,347.169739 C545.27987,346.229614 578.402651,336.204947 582.736753,337.45878 C587.069855,338.711613 609.977395,339.024322 615.549526,336.204947 C621.121657,333.386571 631.955913,331.193613 631.955913,331.193613 C631.955913,331.193613 722.965057,342.471113 724.203086,343.09753 C725.441115,343.723947 733.489305,348.108864 738.133414,350.61553 C742.776524,353.122197 761.968976,360.326489 769.089143,364.398698 C777.137333,364.08499 781.780442,365.338822 794.781749,368.158198 C799.424858,365.65253 803.75896,369.724739 807.783055,371.603989 C811.80715,373.484239 814.593216,375.363489 823.26042,388.52024 C824.080439,389.198608 825.041462,389.992869 826.098487,390.87205 C857.960237,378.579495 899.755222,362.519447 899.755222,362.519447 C904.085324,363.920143 926.895861,371.484101 932.670997,373.164536 C938.446134,374.844972 944.509276,377.365625 946.242317,378.76732 C950.284412,380.728494 966.164787,390.252627 971.939923,397.535846 C983.817202,412.515899 991.251378,431.068626 998.113539,448.826093 C999.335963,451.989656 1000.36841,454.626932 1001.28137,457 L1613,457 Z" id="Combined-Shape-Copy-2"></path>
        </g>
    </g>
</svg>
