<?xml version="1.0" encoding="UTF-8"?>
<svg width="406px" height="414px" viewBox="0 0 406 414" version="1.1" xmlns="http://www.w3.org/2000/svg" xmlns:xlink="http://www.w3.org/1999/xlink">
    <!-- Generator: Sketch 46.1 (44463) - http://www.bohemiancoding.com/sketch -->
    <title>Group 9 Copy 2</title>
    <desc>Created with Sketch.</desc>
    <defs></defs>
    <g id="--" stroke="none" stroke-width="1" fill="none" fill-rule="evenodd">
        <g id="1-1-Desktop-#0-Cover-Copy-4" transform="translate(-795.000000, -260.000000)" fill="#FFFFFF">
            <g id="Group-9-Copy-2" transform="translate(795.000000, 260.000000)">
                <polygon id="Fill-1" points="167 241.333962 176.191539 243.451613 176.758242 241.236797 167.566483 239.119355"></polygon>
                <polygon id="Fill-2" points="169.637363 245.452616 171.929287 246 174.120879 237.11814 171.828739 236.570968"></polygon>
                <polygon id="Fill-3" points="220.849477 230.2 219.747253 228.186332 228.139753 224.083871 229.241758 226.097539"></polygon>
                <polygon id="Fill-4" points="225.575366 231.983871 227.659341 230.918856 223.413645 222.809677 221.32967 223.874692"></polygon>
                <polygon id="Fill-5" points="193.948378 193.503226 192.846154 191.489558 201.238654 187.387097 202.340659 189.400765"></polygon>
                <polygon id="Fill-6" points="198.674267 195.287097 200.758242 194.222082 196.512546 186.112903 194.428571 187.177918"></polygon>
                <polygon id="Fill-7" points="170.212089 207.519355 169.10989 205.505894 177.502196 201.403226 178.604396 203.417101"></polygon>
                <polygon id="Fill-8" points="174.938004 209.048387 177.021978 207.983372 172.776282 199.874194 170.692308 200.939208"></polygon>
                <polygon id="Fill-9" points="219.775405 169.548387 220.274725 171.768592 211.015804 173.625806 210.516484 171.405602"></polygon>
                <polygon id="Fill-10" points="215.186993 167 212.89011 167.482475 214.812149 176.429032 217.10989 175.946557 215.187851 167"></polygon>
                <polygon id="Fill-11" points="201.841547 225.358065 202.340659 227.578269 193.081749 229.435484 192.582418 227.215279"></polygon>
                <polygon id="Fill-12" points="197.517716 222.554839 195.21978 223.037313 197.142053 231.983871 199.43956 231.501396"></polygon>
                <polygon id="Fill-13" points="229.241758 196.889662 229.741078 199.109677 239 197.252688 239 197.251652 238.50068 195.032258"></polygon>
                <polygon id="Fill-14" points="234.176959 192.483871 231.879121 192.966134 233.801277 201.912903 236.098901 201.430428"></polygon>
                <polygon id="Fill-1" points="251 241.333962 260.191539 243.451613 260.758242 241.236797 251.566483 239.119355"></polygon>
                <polygon id="Fill-2" points="253.637363 245.452616 255.929287 246 258.120879 237.11814 255.828739 236.570968"></polygon>
                <polygon id="Fill-3" points="304.849477 230.2 303.747253 228.186332 312.139753 224.083871 313.241758 226.097539"></polygon>
                <polygon id="Fill-4" points="309.575366 231.983871 311.659341 230.918856 307.413645 222.809677 305.32967 223.874692"></polygon>
                <polygon id="Fill-5" points="277.948378 193.503226 276.846154 191.489558 285.238654 187.387097 286.340659 189.400765"></polygon>
                <polygon id="Fill-6" points="282.674267 195.287097 284.758242 194.222082 280.512546 186.112903 278.428571 187.177918"></polygon>
                <polygon id="Fill-7" points="254.212089 207.519355 253.10989 205.505894 261.502196 201.403226 262.604396 203.417101"></polygon>
                <polygon id="Fill-8" points="258.938004 209.048387 261.021978 207.983372 256.776282 199.874194 254.692308 200.939208"></polygon>
                <polygon id="Fill-9" points="303.775405 169.548387 304.274725 171.768592 295.015804 173.625806 294.516484 171.405602"></polygon>
                <polygon id="Fill-10" points="299.186993 167 296.89011 167.482475 298.812149 176.429032 301.10989 175.946557 299.187851 167"></polygon>
                <polygon id="Fill-11" points="285.841547 225.358065 286.340659 227.578269 277.081749 229.435484 276.582418 227.215279"></polygon>
                <polygon id="Fill-12" points="281.517716 222.554839 279.21978 223.037313 281.142053 231.983871 283.43956 231.501396"></polygon>
                <polygon id="Fill-13" points="313.241758 196.889662 313.741078 199.109677 323 197.252688 323 197.251652 322.50068 195.032258"></polygon>
                <polygon id="Fill-14" points="318.176959 192.483871 315.879121 192.966134 317.801277 201.912903 320.098901 201.430428"></polygon>
                <polygon id="Fill-1" points="334 241.333962 343.191539 243.451613 343.758242 241.236797 334.566483 239.119355"></polygon>
                <polygon id="Fill-2" points="336.637363 245.452616 338.929287 246 341.120879 237.11814 338.828739 236.570968"></polygon>
                <polygon id="Fill-3" points="387.849477 230.2 386.747253 228.186332 395.139753 224.083871 396.241758 226.097539"></polygon>
                <polygon id="Fill-4" points="392.575366 231.983871 394.659341 230.918856 390.413645 222.809677 388.32967 223.874692"></polygon>
                <polygon id="Fill-5" points="360.948378 193.503226 359.846154 191.489558 368.238654 187.387097 369.340659 189.400765"></polygon>
                <polygon id="Fill-6" points="365.674267 195.287097 367.758242 194.222082 363.512546 186.112903 361.428571 187.177918"></polygon>
                <polygon id="Fill-7" points="337.212089 207.519355 336.10989 205.505894 344.502196 201.403226 345.604396 203.417101"></polygon>
                <polygon id="Fill-8" points="341.938004 209.048387 344.021978 207.983372 339.776282 199.874194 337.692308 200.939208"></polygon>
                <polygon id="Fill-9" points="386.775405 169.548387 387.274725 171.768592 378.015804 173.625806 377.516484 171.405602"></polygon>
                <polygon id="Fill-10" points="382.186993 167 379.89011 167.482475 381.812149 176.429032 384.10989 175.946557 382.187851 167"></polygon>
                <polygon id="Fill-11" points="368.841547 225.358065 369.340659 227.578269 360.081749 229.435484 359.582418 227.215279"></polygon>
                <polygon id="Fill-12" points="364.517716 222.554839 362.21978 223.037313 364.142053 231.983871 366.43956 231.501396"></polygon>
                <polygon id="Fill-13" points="396.241758 196.889662 396.741078 199.109677 406 197.252688 406 197.251652 405.50068 195.032258"></polygon>
                <polygon id="Fill-14" points="401.176959 192.483871 398.879121 192.966134 400.801277 201.912903 403.098901 201.430428"></polygon>
                <polygon id="Fill-1" points="84 241.333962 93.1915394 243.451613 93.7582418 241.236797 84.5664831 239.119355"></polygon>
                <polygon id="Fill-2" points="86.6373626 245.452616 88.929287 246 91.1208791 237.11814 88.8287395 236.570968"></polygon>
                <polygon id="Fill-3" points="137.849477 230.2 136.747253 228.186332 145.139753 224.083871 146.241758 226.097539"></polygon>
                <polygon id="Fill-4" points="142.575366 231.983871 144.659341 230.918856 140.413645 222.809677 138.32967 223.874692"></polygon>
                <polygon id="Fill-5" points="110.948378 193.503226 109.846154 191.489558 118.238654 187.387097 119.340659 189.400765"></polygon>
                <polygon id="Fill-6" points="115.674267 195.287097 117.758242 194.222082 113.512546 186.112903 111.428571 187.177918"></polygon>
                <polygon id="Fill-7" points="87.2120893 207.519355 86.1098901 205.505894 94.5021964 201.403226 95.6043956 203.417101"></polygon>
                <polygon id="Fill-8" points="91.9380037 209.048387 94.021978 207.983372 89.776282 199.874194 87.6923077 200.939208"></polygon>
                <polygon id="Fill-9" points="136.775405 169.548387 137.274725 171.768592 128.015804 173.625806 127.516484 171.405602"></polygon>
                <polygon id="Fill-10" points="132.186993 167 129.89011 167.482475 131.812149 176.429032 134.10989 175.946557 132.187851 167"></polygon>
                <polygon id="Fill-11" points="118.841547 225.358065 119.340659 227.578269 110.081749 229.435484 109.582418 227.215279"></polygon>
                <polygon id="Fill-12" points="114.517716 222.554839 112.21978 223.037313 114.142053 231.983871 116.43956 231.501396"></polygon>
                <polygon id="Fill-13" points="146.241758 196.889662 146.741078 199.109677 156 197.252688 156 197.251652 155.50068 195.032258"></polygon>
                <polygon id="Fill-14" points="151.176959 192.483871 148.879121 192.966134 150.801277 201.912903 153.098901 201.430428"></polygon>
                <polygon id="Fill-1" points="0 241.333962 9.19153941 243.451613 9.75824176 241.236797 0.566483121 239.119355"></polygon>
                <polygon id="Fill-2" points="2.63736264 245.452616 4.929287 246 7.12087912 237.11814 4.82873945 236.570968"></polygon>
                <polygon id="Fill-3" points="53.8494774 230.2 52.7472527 228.186332 61.1397526 224.083871 62.2417582 226.097539"></polygon>
                <polygon id="Fill-4" points="58.5753664 231.983871 60.6593407 230.918856 56.4136446 222.809677 54.3296703 223.874692"></polygon>
                <polygon id="Fill-5" points="26.9483785 193.503226 25.8461538 191.489558 34.2386537 187.387097 35.3406593 189.400765"></polygon>
                <polygon id="Fill-6" points="31.6742675 195.287097 33.7582418 194.222082 29.5125457 186.112903 27.4285714 187.177918"></polygon>
                <polygon id="Fill-7" points="3.21208931 207.519355 2.10989011 205.505894 10.5021964 201.403226 11.6043956 203.417101"></polygon>
                <polygon id="Fill-8" points="7.93800373 209.048387 10.021978 207.983372 5.77628199 199.874194 3.69230769 200.939208"></polygon>
                <polygon id="Fill-9" points="52.7754052 169.548387 53.2747253 171.768592 44.0158036 173.625806 43.5164835 171.405602"></polygon>
                <polygon id="Fill-10" points="48.186993 167 45.8901099 167.482475 47.8121492 176.429032 50.1098901 175.946557 48.1878508 167"></polygon>
                <polygon id="Fill-11" points="34.8415474 225.358065 35.3406593 227.578269 26.0817489 229.435484 25.5824176 227.215279"></polygon>
                <polygon id="Fill-12" points="30.5177164 222.554839 28.2197802 223.037313 30.1420531 231.983871 32.4395604 231.501396"></polygon>
                <polygon id="Fill-13" points="62.2417582 196.889662 62.7410783 199.109677 72 197.252688 72 197.251652 71.5006799 195.032258"></polygon>
                <polygon id="Fill-14" points="67.1769594 192.483871 64.8791209 192.966134 66.801277 201.912903 69.0989011 201.430428"></polygon>
                <polygon id="Fill-1" points="167 325.333962 176.191539 327.451613 176.758242 325.236797 167.566483 323.119355"></polygon>
                <polygon id="Fill-2" points="169.637363 329.452616 171.929287 330 174.120879 321.11814 171.828739 320.570968"></polygon>
                <polygon id="Fill-3" points="220.849477 314.2 219.747253 312.186332 228.139753 308.083871 229.241758 310.097539"></polygon>
                <polygon id="Fill-4" points="225.575366 315.983871 227.659341 314.918856 223.413645 306.809677 221.32967 307.874692"></polygon>
                <polygon id="Fill-5" points="193.948378 277.503226 192.846154 275.489558 201.238654 271.387097 202.340659 273.400765"></polygon>
                <polygon id="Fill-6" points="198.674267 279.287097 200.758242 278.222082 196.512546 270.112903 194.428571 271.177918"></polygon>
                <polygon id="Fill-7" points="170.212089 291.519355 169.10989 289.505894 177.502196 285.403226 178.604396 287.417101"></polygon>
                <polygon id="Fill-8" points="174.938004 293.048387 177.021978 291.983372 172.776282 283.874194 170.692308 284.939208"></polygon>
                <polygon id="Fill-9" points="219.775405 253.548387 220.274725 255.768592 211.015804 257.625806 210.516484 255.405602"></polygon>
                <polygon id="Fill-10" points="215.186993 251 212.89011 251.482475 214.812149 260.429032 217.10989 259.946557 215.187851 251"></polygon>
                <polygon id="Fill-11" points="201.841547 309.358065 202.340659 311.578269 193.081749 313.435484 192.582418 311.215279"></polygon>
                <polygon id="Fill-12" points="197.517716 306.554839 195.21978 307.037313 197.142053 315.983871 199.43956 315.501396"></polygon>
                <polygon id="Fill-13" points="229.241758 280.889662 229.741078 283.109677 239 281.252688 239 281.251652 238.50068 279.032258"></polygon>
                <polygon id="Fill-14" points="234.176959 276.483871 231.879121 276.966134 233.801277 285.912903 236.098901 285.430428"></polygon>
                <polygon id="Fill-1" points="251 325.333962 260.191539 327.451613 260.758242 325.236797 251.566483 323.119355"></polygon>
                <polygon id="Fill-2" points="253.637363 329.452616 255.929287 330 258.120879 321.11814 255.828739 320.570968"></polygon>
                <polygon id="Fill-3" points="304.849477 314.2 303.747253 312.186332 312.139753 308.083871 313.241758 310.097539"></polygon>
                <polygon id="Fill-4" points="309.575366 315.983871 311.659341 314.918856 307.413645 306.809677 305.32967 307.874692"></polygon>
                <polygon id="Fill-5" points="277.948378 277.503226 276.846154 275.489558 285.238654 271.387097 286.340659 273.400765"></polygon>
                <polygon id="Fill-6" points="282.674267 279.287097 284.758242 278.222082 280.512546 270.112903 278.428571 271.177918"></polygon>
                <polygon id="Fill-7" points="254.212089 291.519355 253.10989 289.505894 261.502196 285.403226 262.604396 287.417101"></polygon>
                <polygon id="Fill-8" points="258.938004 293.048387 261.021978 291.983372 256.776282 283.874194 254.692308 284.939208"></polygon>
                <polygon id="Fill-9" points="303.775405 253.548387 304.274725 255.768592 295.015804 257.625806 294.516484 255.405602"></polygon>
                <polygon id="Fill-10" points="299.186993 251 296.89011 251.482475 298.812149 260.429032 301.10989 259.946557 299.187851 251"></polygon>
                <polygon id="Fill-11" points="285.841547 309.358065 286.340659 311.578269 277.081749 313.435484 276.582418 311.215279"></polygon>
                <polygon id="Fill-12" points="281.517716 306.554839 279.21978 307.037313 281.142053 315.983871 283.43956 315.501396"></polygon>
                <polygon id="Fill-13" points="313.241758 280.889662 313.741078 283.109677 323 281.252688 323 281.251652 322.50068 279.032258"></polygon>
                <polygon id="Fill-14" points="318.176959 276.483871 315.879121 276.966134 317.801277 285.912903 320.098901 285.430428"></polygon>
                <polygon id="Fill-1" points="334 325.333962 343.191539 327.451613 343.758242 325.236797 334.566483 323.119355"></polygon>
                <polygon id="Fill-2" points="336.637363 329.452616 338.929287 330 341.120879 321.11814 338.828739 320.570968"></polygon>
                <polygon id="Fill-3" points="387.849477 314.2 386.747253 312.186332 395.139753 308.083871 396.241758 310.097539"></polygon>
                <polygon id="Fill-4" points="392.575366 315.983871 394.659341 314.918856 390.413645 306.809677 388.32967 307.874692"></polygon>
                <polygon id="Fill-5" points="360.948378 277.503226 359.846154 275.489558 368.238654 271.387097 369.340659 273.400765"></polygon>
                <polygon id="Fill-6" points="365.674267 279.287097 367.758242 278.222082 363.512546 270.112903 361.428571 271.177918"></polygon>
                <polygon id="Fill-7" points="337.212089 291.519355 336.10989 289.505894 344.502196 285.403226 345.604396 287.417101"></polygon>
                <polygon id="Fill-8" points="341.938004 293.048387 344.021978 291.983372 339.776282 283.874194 337.692308 284.939208"></polygon>
                <polygon id="Fill-9" points="386.775405 253.548387 387.274725 255.768592 378.015804 257.625806 377.516484 255.405602"></polygon>
                <polygon id="Fill-10" points="382.186993 251 379.89011 251.482475 381.812149 260.429032 384.10989 259.946557 382.187851 251"></polygon>
                <polygon id="Fill-11" points="368.841547 309.358065 369.340659 311.578269 360.081749 313.435484 359.582418 311.215279"></polygon>
                <polygon id="Fill-12" points="364.517716 306.554839 362.21978 307.037313 364.142053 315.983871 366.43956 315.501396"></polygon>
                <polygon id="Fill-13" points="396.241758 280.889662 396.741078 283.109677 406 281.252688 406 281.251652 405.50068 279.032258"></polygon>
                <polygon id="Fill-14" points="401.176959 276.483871 398.879121 276.966134 400.801277 285.912903 403.098901 285.430428"></polygon>
                <polygon id="Fill-1" points="84 325.333962 93.1915394 327.451613 93.7582418 325.236797 84.5664831 323.119355"></polygon>
                <polygon id="Fill-2" points="86.6373626 329.452616 88.929287 330 91.1208791 321.11814 88.8287395 320.570968"></polygon>
                <polygon id="Fill-3" points="137.849477 314.2 136.747253 312.186332 145.139753 308.083871 146.241758 310.097539"></polygon>
                <polygon id="Fill-4" points="142.575366 315.983871 144.659341 314.918856 140.413645 306.809677 138.32967 307.874692"></polygon>
                <polygon id="Fill-5" points="110.948378 277.503226 109.846154 275.489558 118.238654 271.387097 119.340659 273.400765"></polygon>
                <polygon id="Fill-6" points="115.674267 279.287097 117.758242 278.222082 113.512546 270.112903 111.428571 271.177918"></polygon>
                <polygon id="Fill-7" points="87.2120893 291.519355 86.1098901 289.505894 94.5021964 285.403226 95.6043956 287.417101"></polygon>
                <polygon id="Fill-8" points="91.9380037 293.048387 94.021978 291.983372 89.776282 283.874194 87.6923077 284.939208"></polygon>
                <polygon id="Fill-9" points="136.775405 253.548387 137.274725 255.768592 128.015804 257.625806 127.516484 255.405602"></polygon>
                <polygon id="Fill-10" points="132.186993 251 129.89011 251.482475 131.812149 260.429032 134.10989 259.946557 132.187851 251"></polygon>
                <polygon id="Fill-11" points="118.841547 309.358065 119.340659 311.578269 110.081749 313.435484 109.582418 311.215279"></polygon>
                <polygon id="Fill-12" points="114.517716 306.554839 112.21978 307.037313 114.142053 315.983871 116.43956 315.501396"></polygon>
                <polygon id="Fill-13" points="146.241758 280.889662 146.741078 283.109677 156 281.252688 156 281.251652 155.50068 279.032258"></polygon>
                <polygon id="Fill-14" points="151.176959 276.483871 148.879121 276.966134 150.801277 285.912903 153.098901 285.430428"></polygon>
                <polygon id="Fill-1" points="0 325.333962 9.19153941 327.451613 9.75824176 325.236797 0.566483121 323.119355"></polygon>
                <polygon id="Fill-2" points="2.63736264 329.452616 4.929287 330 7.12087912 321.11814 4.82873945 320.570968"></polygon>
                <polygon id="Fill-3" points="53.8494774 314.2 52.7472527 312.186332 61.1397526 308.083871 62.2417582 310.097539"></polygon>
                <polygon id="Fill-4" points="58.5753664 315.983871 60.6593407 314.918856 56.4136446 306.809677 54.3296703 307.874692"></polygon>
                <polygon id="Fill-5" points="26.9483785 277.503226 25.8461538 275.489558 34.2386537 271.387097 35.3406593 273.400765"></polygon>
                <polygon id="Fill-6" points="31.6742675 279.287097 33.7582418 278.222082 29.5125457 270.112903 27.4285714 271.177918"></polygon>
                <polygon id="Fill-7" points="3.21208931 291.519355 2.10989011 289.505894 10.5021964 285.403226 11.6043956 287.417101"></polygon>
                <polygon id="Fill-8" points="7.93800373 293.048387 10.021978 291.983372 5.77628199 283.874194 3.69230769 284.939208"></polygon>
                <polygon id="Fill-9" points="52.7754052 253.548387 53.2747253 255.768592 44.0158036 257.625806 43.5164835 255.405602"></polygon>
                <polygon id="Fill-10" points="48.186993 251 45.8901099 251.482475 47.8121492 260.429032 50.1098901 259.946557 48.1878508 251"></polygon>
                <polygon id="Fill-11" points="34.8415474 309.358065 35.3406593 311.578269 26.0817489 313.435484 25.5824176 311.215279"></polygon>
                <polygon id="Fill-12" points="30.5177164 306.554839 28.2197802 307.037313 30.1420531 315.983871 32.4395604 315.501396"></polygon>
                <polygon id="Fill-13" points="62.2417582 280.889662 62.7410783 283.109677 72 281.252688 72 281.251652 71.5006799 279.032258"></polygon>
                <polygon id="Fill-14" points="67.1769594 276.483871 64.8791209 276.966134 66.801277 285.912903 69.0989011 285.430428"></polygon>
                <polygon id="Fill-1" points="167 409.333962 176.191539 411.451613 176.758242 409.236797 167.566483 407.119355"></polygon>
                <polygon id="Fill-2" points="169.637363 413.452616 171.929287 414 174.120879 405.11814 171.828739 404.570968"></polygon>
                <polygon id="Fill-3" points="220.849477 398.2 219.747253 396.186332 228.139753 392.083871 229.241758 394.097539"></polygon>
                <polygon id="Fill-4" points="225.575366 399.983871 227.659341 398.918856 223.413645 390.809677 221.32967 391.874692"></polygon>
                <polygon id="Fill-5" points="193.948378 361.503226 192.846154 359.489558 201.238654 355.387097 202.340659 357.400765"></polygon>
                <polygon id="Fill-6" points="198.674267 363.287097 200.758242 362.222082 196.512546 354.112903 194.428571 355.177918"></polygon>
                <polygon id="Fill-7" points="170.212089 375.519355 169.10989 373.505894 177.502196 369.403226 178.604396 371.417101"></polygon>
                <polygon id="Fill-8" points="174.938004 377.048387 177.021978 375.983372 172.776282 367.874194 170.692308 368.939208"></polygon>
                <polygon id="Fill-9" points="219.775405 337.548387 220.274725 339.768592 211.015804 341.625806 210.516484 339.405602"></polygon>
                <polygon id="Fill-10" points="215.186993 335 212.89011 335.482475 214.812149 344.429032 217.10989 343.946557 215.187851 335"></polygon>
                <polygon id="Fill-11" points="201.841547 393.358065 202.340659 395.578269 193.081749 397.435484 192.582418 395.215279"></polygon>
                <polygon id="Fill-12" points="197.517716 390.554839 195.21978 391.037313 197.142053 399.983871 199.43956 399.501396"></polygon>
                <polygon id="Fill-13" points="229.241758 364.889662 229.741078 367.109677 239 365.252688 239 365.251652 238.50068 363.032258"></polygon>
                <polygon id="Fill-14" points="234.176959 360.483871 231.879121 360.966134 233.801277 369.912903 236.098901 369.430428"></polygon>
                <polygon id="Fill-1" points="251 409.333962 260.191539 411.451613 260.758242 409.236797 251.566483 407.119355"></polygon>
                <polygon id="Fill-2" points="253.637363 413.452616 255.929287 414 258.120879 405.11814 255.828739 404.570968"></polygon>
                <polygon id="Fill-3" points="304.849477 398.2 303.747253 396.186332 312.139753 392.083871 313.241758 394.097539"></polygon>
                <polygon id="Fill-4" points="309.575366 399.983871 311.659341 398.918856 307.413645 390.809677 305.32967 391.874692"></polygon>
                <polygon id="Fill-5" points="277.948378 361.503226 276.846154 359.489558 285.238654 355.387097 286.340659 357.400765"></polygon>
                <polygon id="Fill-6" points="282.674267 363.287097 284.758242 362.222082 280.512546 354.112903 278.428571 355.177918"></polygon>
                <polygon id="Fill-7" points="254.212089 375.519355 253.10989 373.505894 261.502196 369.403226 262.604396 371.417101"></polygon>
                <polygon id="Fill-8" points="258.938004 377.048387 261.021978 375.983372 256.776282 367.874194 254.692308 368.939208"></polygon>
                <polygon id="Fill-9" points="303.775405 337.548387 304.274725 339.768592 295.015804 341.625806 294.516484 339.405602"></polygon>
                <polygon id="Fill-10" points="299.186993 335 296.89011 335.482475 298.812149 344.429032 301.10989 343.946557 299.187851 335"></polygon>
                <polygon id="Fill-11" points="285.841547 393.358065 286.340659 395.578269 277.081749 397.435484 276.582418 395.215279"></polygon>
                <polygon id="Fill-12" points="281.517716 390.554839 279.21978 391.037313 281.142053 399.983871 283.43956 399.501396"></polygon>
                <polygon id="Fill-13" points="313.241758 364.889662 313.741078 367.109677 323 365.252688 323 365.251652 322.50068 363.032258"></polygon>
                <polygon id="Fill-14" points="318.176959 360.483871 315.879121 360.966134 317.801277 369.912903 320.098901 369.430428"></polygon>
                <polygon id="Fill-1" points="334 409.333962 343.191539 411.451613 343.758242 409.236797 334.566483 407.119355"></polygon>
                <polygon id="Fill-2" points="336.637363 413.452616 338.929287 414 341.120879 405.11814 338.828739 404.570968"></polygon>
                <polygon id="Fill-3" points="387.849477 398.2 386.747253 396.186332 395.139753 392.083871 396.241758 394.097539"></polygon>
                <polygon id="Fill-4" points="392.575366 399.983871 394.659341 398.918856 390.413645 390.809677 388.32967 391.874692"></polygon>
                <polygon id="Fill-5" points="360.948378 361.503226 359.846154 359.489558 368.238654 355.387097 369.340659 357.400765"></polygon>
                <polygon id="Fill-6" points="365.674267 363.287097 367.758242 362.222082 363.512546 354.112903 361.428571 355.177918"></polygon>
                <polygon id="Fill-7" points="337.212089 375.519355 336.10989 373.505894 344.502196 369.403226 345.604396 371.417101"></polygon>
                <polygon id="Fill-8" points="341.938004 377.048387 344.021978 375.983372 339.776282 367.874194 337.692308 368.939208"></polygon>
                <polygon id="Fill-9" points="386.775405 337.548387 387.274725 339.768592 378.015804 341.625806 377.516484 339.405602"></polygon>
                <polygon id="Fill-10" points="382.186993 335 379.89011 335.482475 381.812149 344.429032 384.10989 343.946557 382.187851 335"></polygon>
                <polygon id="Fill-11" points="368.841547 393.358065 369.340659 395.578269 360.081749 397.435484 359.582418 395.215279"></polygon>
                <polygon id="Fill-12" points="364.517716 390.554839 362.21978 391.037313 364.142053 399.983871 366.43956 399.501396"></polygon>
                <polygon id="Fill-13" points="396.241758 364.889662 396.741078 367.109677 406 365.252688 406 365.251652 405.50068 363.032258"></polygon>
                <polygon id="Fill-14" points="401.176959 360.483871 398.879121 360.966134 400.801277 369.912903 403.098901 369.430428"></polygon>
                <polygon id="Fill-1" points="84 409.333962 93.1915394 411.451613 93.7582418 409.236797 84.5664831 407.119355"></polygon>
                <polygon id="Fill-2" points="86.6373626 413.452616 88.929287 414 91.1208791 405.11814 88.8287395 404.570968"></polygon>
                <polygon id="Fill-3" points="137.849477 398.2 136.747253 396.186332 145.139753 392.083871 146.241758 394.097539"></polygon>
                <polygon id="Fill-4" points="142.575366 399.983871 144.659341 398.918856 140.413645 390.809677 138.32967 391.874692"></polygon>
                <polygon id="Fill-5" points="110.948378 361.503226 109.846154 359.489558 118.238654 355.387097 119.340659 357.400765"></polygon>
                <polygon id="Fill-6" points="115.674267 363.287097 117.758242 362.222082 113.512546 354.112903 111.428571 355.177918"></polygon>
                <polygon id="Fill-7" points="87.2120893 375.519355 86.1098901 373.505894 94.5021964 369.403226 95.6043956 371.417101"></polygon>
                <polygon id="Fill-8" points="91.9380037 377.048387 94.021978 375.983372 89.776282 367.874194 87.6923077 368.939208"></polygon>
                <polygon id="Fill-9" points="136.775405 337.548387 137.274725 339.768592 128.015804 341.625806 127.516484 339.405602"></polygon>
                <polygon id="Fill-10" points="132.186993 335 129.89011 335.482475 131.812149 344.429032 134.10989 343.946557 132.187851 335"></polygon>
                <polygon id="Fill-11" points="118.841547 393.358065 119.340659 395.578269 110.081749 397.435484 109.582418 395.215279"></polygon>
                <polygon id="Fill-12" points="114.517716 390.554839 112.21978 391.037313 114.142053 399.983871 116.43956 399.501396"></polygon>
                <polygon id="Fill-13" points="146.241758 364.889662 146.741078 367.109677 156 365.252688 156 365.251652 155.50068 363.032258"></polygon>
                <polygon id="Fill-14" points="151.176959 360.483871 148.879121 360.966134 150.801277 369.912903 153.098901 369.430428"></polygon>
                <polygon id="Fill-1" points="0 409.333962 9.19153941 411.451613 9.75824176 409.236797 0.566483121 407.119355"></polygon>
                <polygon id="Fill-2" points="2.63736264 413.452616 4.929287 414 7.12087912 405.11814 4.82873945 404.570968"></polygon>
                <polygon id="Fill-3" points="53.8494774 398.2 52.7472527 396.186332 61.1397526 392.083871 62.2417582 394.097539"></polygon>
                <polygon id="Fill-4" points="58.5753664 399.983871 60.6593407 398.918856 56.4136446 390.809677 54.3296703 391.874692"></polygon>
                <polygon id="Fill-5" points="26.9483785 361.503226 25.8461538 359.489558 34.2386537 355.387097 35.3406593 357.400765"></polygon>
                <polygon id="Fill-6" points="31.6742675 363.287097 33.7582418 362.222082 29.5125457 354.112903 27.4285714 355.177918"></polygon>
                <polygon id="Fill-7" points="3.21208931 375.519355 2.10989011 373.505894 10.5021964 369.403226 11.6043956 371.417101"></polygon>
                <polygon id="Fill-8" points="7.93800373 377.048387 10.021978 375.983372 5.77628199 367.874194 3.69230769 368.939208"></polygon>
                <polygon id="Fill-9" points="52.7754052 337.548387 53.2747253 339.768592 44.0158036 341.625806 43.5164835 339.405602"></polygon>
                <polygon id="Fill-10" points="48.186993 335 45.8901099 335.482475 47.8121492 344.429032 50.1098901 343.946557 48.1878508 335"></polygon>
                <polygon id="Fill-11" points="34.8415474 393.358065 35.3406593 395.578269 26.0817489 397.435484 25.5824176 395.215279"></polygon>
                <polygon id="Fill-12" points="30.5177164 390.554839 28.2197802 391.037313 30.1420531 399.983871 32.4395604 399.501396"></polygon>
                <polygon id="Fill-13" points="62.2417582 364.889662 62.7410783 367.109677 72 365.252688 72 365.251652 71.5006799 363.032258"></polygon>
                <polygon id="Fill-14" points="67.1769594 360.483871 64.8791209 360.966134 66.801277 369.912903 69.0989011 369.430428"></polygon>
                <polygon id="Fill-1" points="167 158.333962 176.191539 160.451613 176.758242 158.236797 167.566483 156.119355"></polygon>
                <polygon id="Fill-2" points="169.637363 162.452616 171.929287 163 174.120879 154.11814 171.828739 153.570968"></polygon>
                <polygon id="Fill-3" points="220.849477 147.2 219.747253 145.186332 228.139753 141.083871 229.241758 143.097539"></polygon>
                <polygon id="Fill-4" points="225.575366 148.983871 227.659341 147.918856 223.413645 139.809677 221.32967 140.874692"></polygon>
                <polygon id="Fill-5" points="193.948378 110.503226 192.846154 108.489558 201.238654 104.387097 202.340659 106.400765"></polygon>
                <polygon id="Fill-6" points="198.674267 112.287097 200.758242 111.222082 196.512546 103.112903 194.428571 104.177918"></polygon>
                <polygon id="Fill-7" points="170.212089 124.519355 169.10989 122.505894 177.502196 118.403226 178.604396 120.417101"></polygon>
                <polygon id="Fill-8" points="174.938004 126.048387 177.021978 124.983372 172.776282 116.874194 170.692308 117.939208"></polygon>
                <polygon id="Fill-9" points="219.775405 86.5483871 220.274725 88.7685917 211.015804 90.6258065 210.516484 88.4056019"></polygon>
                <polygon id="Fill-10" points="215.186993 84 212.89011 84.4824748 214.812149 93.4290323 217.10989 92.9465575 215.187851 84"></polygon>
                <polygon id="Fill-11" points="201.841547 142.358065 202.340659 144.578269 193.081749 146.435484 192.582418 144.215279"></polygon>
                <polygon id="Fill-12" points="197.517716 139.554839 195.21978 140.037313 197.142053 148.983871 199.43956 148.501396"></polygon>
                <polygon id="Fill-13" points="229.241758 113.889662 229.741078 116.109677 239 114.252688 239 114.251652 238.50068 112.032258"></polygon>
                <polygon id="Fill-14" points="234.176959 109.483871 231.879121 109.966134 233.801277 118.912903 236.098901 118.430428"></polygon>
                <polygon id="Fill-1" points="251 158.333962 260.191539 160.451613 260.758242 158.236797 251.566483 156.119355"></polygon>
                <polygon id="Fill-2" points="253.637363 162.452616 255.929287 163 258.120879 154.11814 255.828739 153.570968"></polygon>
                <polygon id="Fill-3" points="304.849477 147.2 303.747253 145.186332 312.139753 141.083871 313.241758 143.097539"></polygon>
                <polygon id="Fill-4" points="309.575366 148.983871 311.659341 147.918856 307.413645 139.809677 305.32967 140.874692"></polygon>
                <polygon id="Fill-5" points="277.948378 110.503226 276.846154 108.489558 285.238654 104.387097 286.340659 106.400765"></polygon>
                <polygon id="Fill-6" points="282.674267 112.287097 284.758242 111.222082 280.512546 103.112903 278.428571 104.177918"></polygon>
                <polygon id="Fill-7" points="254.212089 124.519355 253.10989 122.505894 261.502196 118.403226 262.604396 120.417101"></polygon>
                <polygon id="Fill-8" points="258.938004 126.048387 261.021978 124.983372 256.776282 116.874194 254.692308 117.939208"></polygon>
                <polygon id="Fill-9" points="303.775405 86.5483871 304.274725 88.7685917 295.015804 90.6258065 294.516484 88.4056019"></polygon>
                <polygon id="Fill-10" points="299.186993 84 296.89011 84.4824748 298.812149 93.4290323 301.10989 92.9465575 299.187851 84"></polygon>
                <polygon id="Fill-11" points="285.841547 142.358065 286.340659 144.578269 277.081749 146.435484 276.582418 144.215279"></polygon>
                <polygon id="Fill-12" points="281.517716 139.554839 279.21978 140.037313 281.142053 148.983871 283.43956 148.501396"></polygon>
                <polygon id="Fill-13" points="313.241758 113.889662 313.741078 116.109677 323 114.252688 323 114.251652 322.50068 112.032258"></polygon>
                <polygon id="Fill-14" points="318.176959 109.483871 315.879121 109.966134 317.801277 118.912903 320.098901 118.430428"></polygon>
                <polygon id="Fill-1" points="334 158.333962 343.191539 160.451613 343.758242 158.236797 334.566483 156.119355"></polygon>
                <polygon id="Fill-2" points="336.637363 162.452616 338.929287 163 341.120879 154.11814 338.828739 153.570968"></polygon>
                <polygon id="Fill-3" points="387.849477 147.2 386.747253 145.186332 395.139753 141.083871 396.241758 143.097539"></polygon>
                <polygon id="Fill-4" points="392.575366 148.983871 394.659341 147.918856 390.413645 139.809677 388.32967 140.874692"></polygon>
                <polygon id="Fill-5" points="360.948378 110.503226 359.846154 108.489558 368.238654 104.387097 369.340659 106.400765"></polygon>
                <polygon id="Fill-6" points="365.674267 112.287097 367.758242 111.222082 363.512546 103.112903 361.428571 104.177918"></polygon>
                <polygon id="Fill-7" points="337.212089 124.519355 336.10989 122.505894 344.502196 118.403226 345.604396 120.417101"></polygon>
                <polygon id="Fill-8" points="341.938004 126.048387 344.021978 124.983372 339.776282 116.874194 337.692308 117.939208"></polygon>
                <polygon id="Fill-9" points="386.775405 86.5483871 387.274725 88.7685917 378.015804 90.6258065 377.516484 88.4056019"></polygon>
                <polygon id="Fill-10" points="382.186993 84 379.89011 84.4824748 381.812149 93.4290323 384.10989 92.9465575 382.187851 84"></polygon>
                <polygon id="Fill-11" points="368.841547 142.358065 369.340659 144.578269 360.081749 146.435484 359.582418 144.215279"></polygon>
                <polygon id="Fill-12" points="364.517716 139.554839 362.21978 140.037313 364.142053 148.983871 366.43956 148.501396"></polygon>
                <polygon id="Fill-13" points="396.241758 113.889662 396.741078 116.109677 406 114.252688 406 114.251652 405.50068 112.032258"></polygon>
                <polygon id="Fill-14" points="401.176959 109.483871 398.879121 109.966134 400.801277 118.912903 403.098901 118.430428"></polygon>
                <polygon id="Fill-1" points="84 158.333962 93.1915394 160.451613 93.7582418 158.236797 84.5664831 156.119355"></polygon>
                <polygon id="Fill-2" points="86.6373626 162.452616 88.929287 163 91.1208791 154.11814 88.8287395 153.570968"></polygon>
                <polygon id="Fill-3" points="137.849477 147.2 136.747253 145.186332 145.139753 141.083871 146.241758 143.097539"></polygon>
                <polygon id="Fill-4" points="142.575366 148.983871 144.659341 147.918856 140.413645 139.809677 138.32967 140.874692"></polygon>
                <polygon id="Fill-5" points="110.948378 110.503226 109.846154 108.489558 118.238654 104.387097 119.340659 106.400765"></polygon>
                <polygon id="Fill-6" points="115.674267 112.287097 117.758242 111.222082 113.512546 103.112903 111.428571 104.177918"></polygon>
                <polygon id="Fill-7" points="87.2120893 124.519355 86.1098901 122.505894 94.5021964 118.403226 95.6043956 120.417101"></polygon>
                <polygon id="Fill-8" points="91.9380037 126.048387 94.021978 124.983372 89.776282 116.874194 87.6923077 117.939208"></polygon>
                <polygon id="Fill-9" points="136.775405 86.5483871 137.274725 88.7685917 128.015804 90.6258065 127.516484 88.4056019"></polygon>
                <polygon id="Fill-10" points="132.186993 84 129.89011 84.4824748 131.812149 93.4290323 134.10989 92.9465575 132.187851 84"></polygon>
                <polygon id="Fill-11" points="118.841547 142.358065 119.340659 144.578269 110.081749 146.435484 109.582418 144.215279"></polygon>
                <polygon id="Fill-12" points="114.517716 139.554839 112.21978 140.037313 114.142053 148.983871 116.43956 148.501396"></polygon>
                <polygon id="Fill-13" points="146.241758 113.889662 146.741078 116.109677 156 114.252688 156 114.251652 155.50068 112.032258"></polygon>
                <polygon id="Fill-14" points="151.176959 109.483871 148.879121 109.966134 150.801277 118.912903 153.098901 118.430428"></polygon>
                <polygon id="Fill-1" points="0 158.333962 9.19153941 160.451613 9.75824176 158.236797 0.566483121 156.119355"></polygon>
                <polygon id="Fill-2" points="2.63736264 162.452616 4.929287 163 7.12087912 154.11814 4.82873945 153.570968"></polygon>
                <polygon id="Fill-3" points="53.8494774 147.2 52.7472527 145.186332 61.1397526 141.083871 62.2417582 143.097539"></polygon>
                <polygon id="Fill-4" points="58.5753664 148.983871 60.6593407 147.918856 56.4136446 139.809677 54.3296703 140.874692"></polygon>
                <polygon id="Fill-5" points="26.9483785 110.503226 25.8461538 108.489558 34.2386537 104.387097 35.3406593 106.400765"></polygon>
                <polygon id="Fill-6" points="31.6742675 112.287097 33.7582418 111.222082 29.5125457 103.112903 27.4285714 104.177918"></polygon>
                <polygon id="Fill-7" points="3.21208931 124.519355 2.10989011 122.505894 10.5021964 118.403226 11.6043956 120.417101"></polygon>
                <polygon id="Fill-8" points="7.93800373 126.048387 10.021978 124.983372 5.77628199 116.874194 3.69230769 117.939208"></polygon>
                <polygon id="Fill-9" points="52.7754052 86.5483871 53.2747253 88.7685917 44.0158036 90.6258065 43.5164835 88.4056019"></polygon>
                <polygon id="Fill-10" points="48.186993 84 45.8901099 84.4824748 47.8121492 93.4290323 50.1098901 92.9465575 48.1878508 84"></polygon>
                <polygon id="Fill-11" points="34.8415474 142.358065 35.3406593 144.578269 26.0817489 146.435484 25.5824176 144.215279"></polygon>
                <polygon id="Fill-12" points="30.5177164 139.554839 28.2197802 140.037313 30.1420531 148.983871 32.4395604 148.501396"></polygon>
                <polygon id="Fill-13" points="62.2417582 113.889662 62.7410783 116.109677 72 114.252688 72 114.251652 71.5006799 112.032258"></polygon>
                <polygon id="Fill-14" points="67.1769594 109.483871 64.8791209 109.966134 66.801277 118.912903 69.0989011 118.430428"></polygon>
                <polygon id="Fill-1" points="167 74.0447603 176.419258 76 177 73.9550475 167.580518 72"></polygon>
                <polygon id="Fill-2" points="170 78.4775224 172.044756 79 174 70.5222754 171.955052 70"></polygon>
                <polygon id="Fill-3" points="221.044817 63 220 61.024566 227.955391 57 229 58.975434"></polygon>
                <polygon id="Fill-4" points="225.024566 65 227 63.955207 222.975434 56 221 57.044793"></polygon>
                <polygon id="Fill-5" points="194.044817 26 193 24.024566 200.955391 20 202 21.975434"></polygon>
                <polygon id="Fill-6" points="198.024566 28 200 26.955207 195.975434 19 194 20.044793"></polygon>
                <polygon id="Fill-7" points="170.044793 40 169 38.0247691 176.955207 34 178 35.975637"></polygon>
                <polygon id="Fill-8" points="175.024566 42 177 40.955207 172.975434 33 171 34.044793"></polygon>
                <polygon id="Fill-9" points="220.488309 3 221 5.17804878 211.511691 7 211 4.82195122"></polygon>
                <polygon id="Fill-10" points="215.177254 0 213 0.460521583 214.821933 9 217 8.53947842 215.178067 0"></polygon>
                <polygon id="Fill-11" points="202.488523 58 203 60.1780488 193.511702 62 193 59.8219512"></polygon>
                <polygon id="Fill-12" points="197.178252 56 195 56.4605216 196.822154 65 199 64.5394784"></polygon>
                <polygon id="Fill-13" points="229 29.8221364 229.511691 32 239 30.1782701 239 30.1772538 238.488309 28"></polygon>
                <polygon id="Fill-14" points="234.178159 25 232 25.4603192 233.822044 34 236 33.5394784"></polygon>
                <polygon id="Fill-1" points="251 74.3339622 260.191539 76.4516129 260.758242 74.2367975 251.566483 72.1193548"></polygon>
                <polygon id="Fill-2" points="253.637363 78.4526158 255.929287 79 258.120879 70.1181401 255.828739 69.5709677"></polygon>
                <polygon id="Fill-3" points="304.849477 63.2 303.747253 61.1863318 312.139753 57.083871 313.241758 59.0975391"></polygon>
                <polygon id="Fill-4" points="309.575366 64.983871 311.659341 63.9188562 307.413645 55.8096774 305.32967 56.8746922"></polygon>
                <polygon id="Fill-5" points="277.948378 26.5032258 276.846154 24.4895576 285.238654 20.3870968 286.340659 22.4007649"></polygon>
                <polygon id="Fill-6" points="282.674267 28.2870968 284.758242 27.222082 280.512546 19.1129032 278.428571 20.177918"></polygon>
                <polygon id="Fill-7" points="254.212089 40.5193548 253.10989 38.5058936 261.502196 34.4032258 262.604396 36.4171009"></polygon>
                <polygon id="Fill-8" points="258.938004 42.0483871 261.021978 40.9833723 256.776282 32.8741935 254.692308 33.9392083"></polygon>
                <polygon id="Fill-9" points="303.775405 2.5483871 304.274725 4.76859166 295.015804 6.62580645 294.516484 4.40560189"></polygon>
                <polygon id="Fill-10" points="299.186993 0 296.89011 0.482474762 298.812149 9.42903226 301.10989 8.9465575 299.187851 0"></polygon>
                <polygon id="Fill-11" points="285.841547 58.3580645 286.340659 60.5782691 277.081749 62.4354839 276.582418 60.2152793"></polygon>
                <polygon id="Fill-12" points="281.517716 55.5548387 279.21978 56.0373135 281.142053 64.983871 283.43956 64.5013962"></polygon>
                <polygon id="Fill-13" points="313.241758 29.8896616 313.741078 32.1096774 323 30.2526883 323 30.2516522 322.50068 28.0322581"></polygon>
                <polygon id="Fill-14" points="318.176959 25.483871 315.879121 25.9661337 317.801277 34.9129032 320.098901 34.4304285"></polygon>
                <polygon id="Fill-1" points="334 74.3339622 343.191539 76.4516129 343.758242 74.2367975 334.566483 72.1193548"></polygon>
                <polygon id="Fill-2" points="336.637363 78.4526158 338.929287 79 341.120879 70.1181401 338.828739 69.5709677"></polygon>
                <polygon id="Fill-3" points="387.849477 63.2 386.747253 61.1863318 395.139753 57.083871 396.241758 59.0975391"></polygon>
                <polygon id="Fill-4" points="392.575366 64.983871 394.659341 63.9188562 390.413645 55.8096774 388.32967 56.8746922"></polygon>
                <polygon id="Fill-5" points="360.948378 26.5032258 359.846154 24.4895576 368.238654 20.3870968 369.340659 22.4007649"></polygon>
                <polygon id="Fill-6" points="365.674267 28.2870968 367.758242 27.222082 363.512546 19.1129032 361.428571 20.177918"></polygon>
                <polygon id="Fill-7" points="337.212089 40.5193548 336.10989 38.5058936 344.502196 34.4032258 345.604396 36.4171009"></polygon>
                <polygon id="Fill-8" points="341.938004 42.0483871 344.021978 40.9833723 339.776282 32.8741935 337.692308 33.9392083"></polygon>
                <polygon id="Fill-9" points="386.775405 2.5483871 387.274725 4.76859166 378.015804 6.62580645 377.516484 4.40560189"></polygon>
                <polygon id="Fill-10" points="382.186993 0 379.89011 0.482474762 381.812149 9.42903226 384.10989 8.9465575 382.187851 0"></polygon>
                <polygon id="Fill-11" points="368.841547 58.3580645 369.340659 60.5782691 360.081749 62.4354839 359.582418 60.2152793"></polygon>
                <polygon id="Fill-12" points="364.517716 55.5548387 362.21978 56.0373135 364.142053 64.983871 366.43956 64.5013962"></polygon>
                <polygon id="Fill-13" points="396.241758 29.8896616 396.741078 32.1096774 406 30.2526883 406 30.2516522 405.50068 28.0322581"></polygon>
                <polygon id="Fill-14" points="401.176959 25.483871 398.879121 25.9661337 400.801277 34.9129032 403.098901 34.4304285"></polygon>
                <polygon id="Fill-1" points="84 74.3339622 93.1915394 76.4516129 93.7582418 74.2367975 84.5664831 72.1193548"></polygon>
                <polygon id="Fill-2" points="86.6373626 78.4526158 88.929287 79 91.1208791 70.1181401 88.8287395 69.5709677"></polygon>
                <polygon id="Fill-3" points="137.849477 63.2 136.747253 61.1863318 145.139753 57.083871 146.241758 59.0975391"></polygon>
                <polygon id="Fill-4" points="142.575366 64.983871 144.659341 63.9188562 140.413645 55.8096774 138.32967 56.8746922"></polygon>
                <polygon id="Fill-5" points="110.948378 26.5032258 109.846154 24.4895576 118.238654 20.3870968 119.340659 22.4007649"></polygon>
                <polygon id="Fill-6" points="115.674267 28.2870968 117.758242 27.222082 113.512546 19.1129032 111.428571 20.177918"></polygon>
                <polygon id="Fill-7" points="87.2120893 40.5193548 86.1098901 38.5058936 94.5021964 34.4032258 95.6043956 36.4171009"></polygon>
                <polygon id="Fill-8" points="91.9380037 42.0483871 94.021978 40.9833723 89.776282 32.8741935 87.6923077 33.9392083"></polygon>
                <polygon id="Fill-9" points="136.775405 2.5483871 137.274725 4.76859166 128.015804 6.62580645 127.516484 4.40560189"></polygon>
                <polygon id="Fill-10" points="132.186993 0 129.89011 0.482474762 131.812149 9.42903226 134.10989 8.9465575 132.187851 0"></polygon>
                <polygon id="Fill-11" points="118.841547 58.3580645 119.340659 60.5782691 110.081749 62.4354839 109.582418 60.2152793"></polygon>
                <polygon id="Fill-12" points="114.517716 55.5548387 112.21978 56.0373135 114.142053 64.983871 116.43956 64.5013962"></polygon>
                <polygon id="Fill-13" points="146.241758 29.8896616 146.741078 32.1096774 156 30.2526883 156 30.2516522 155.50068 28.0322581"></polygon>
                <polygon id="Fill-14" points="151.176959 25.483871 148.879121 25.9661337 150.801277 34.9129032 153.098901 34.4304285"></polygon>
                <polygon id="Fill-1" points="0 74.3339622 9.19153941 76.4516129 9.75824176 74.2367975 0.566483121 72.1193548"></polygon>
                <polygon id="Fill-2" points="2.63736264 78.4526158 4.929287 79 7.12087912 70.1181401 4.82873945 69.5709677"></polygon>
                <polygon id="Fill-3" points="53.8494774 63.2 52.7472527 61.1863318 61.1397526 57.083871 62.2417582 59.0975391"></polygon>
                <polygon id="Fill-4" points="58.5753664 64.983871 60.6593407 63.9188562 56.4136446 55.8096774 54.3296703 56.8746922"></polygon>
                <polygon id="Fill-5" points="26.9483785 26.5032258 25.8461538 24.4895576 34.2386537 20.3870968 35.3406593 22.4007649"></polygon>
                <polygon id="Fill-6" points="31.6742675 28.2870968 33.7582418 27.222082 29.5125457 19.1129032 27.4285714 20.177918"></polygon>
                <polygon id="Fill-7" points="3.21208931 40.5193548 2.10989011 38.5058936 10.5021964 34.4032258 11.6043956 36.4171009"></polygon>
                <polygon id="Fill-8" points="7.93800373 42.0483871 10.021978 40.9833723 5.77628199 32.8741935 3.69230769 33.9392083"></polygon>
                <polygon id="Fill-9" points="52.7754052 2.5483871 53.2747253 4.76859166 44.0158036 6.62580645 43.5164835 4.40560189"></polygon>
                <polygon id="Fill-10" points="48.186993 0 45.8901099 0.482474762 47.8121492 9.42903226 50.1098901 8.9465575 48.1878508 0"></polygon>
                <polygon id="Fill-11" points="34.8415474 58.3580645 35.3406593 60.5782691 26.0817489 62.4354839 25.5824176 60.2152793"></polygon>
                <polygon id="Fill-12" points="30.5177164 55.5548387 28.2197802 56.0373135 30.1420531 64.983871 32.4395604 64.5013962"></polygon>
                <polygon id="Fill-13" points="62.2417582 29.8896616 62.7410783 32.1096774 72 30.2526883 72 30.2516522 71.5006799 28.0322581"></polygon>
                <polygon id="Fill-14" points="67.1769594 25.483871 64.8791209 25.9661337 66.801277 34.9129032 69.0989011 34.4304285"></polygon>
            </g>
        </g>
    </g>
</svg>