<svg width="13" height="8" viewBox="0 0 13 8" version="1.1" xmlns="http://www.w3.org/2000/svg" xmlns:xlink="http://www.w3.org/1999/xlink">
<title>Page 1 Copy 2</title>
<desc>Created using Figma</desc>
<g id="Canvas" transform="translate(-16206 19966)">
<g id="Page 1 Copy 2">
<mask id="mask0_outline" mask-type="alpha">
<g id="Clip 2">
<use xlink:href="#path0_fill" transform="translate(16206 -19966)" fill="#FFFFFF"/>
</g>
</mask>
<g id="Fill 1" mask="url(#mask0_outline)">
<use xlink:href="#path1_fill" transform="translate(16206 -19966)" fill="#FF4A68"/>
</g>
</g>
</g>
<defs>
<path id="path0_fill" fill-rule="evenodd" d="M 0 8L 0 0L 13 0L 13 8L 0 8Z"/>
<path id="path1_fill" fill-rule="evenodd" d="M 12.7016 0.541895C 12.7917 0.229287 12.7016 0 12.2717 0L 10.8497 0C 10.4875 0 10.3207 0.19859 10.2306 0.416601C 10.2306 0.416601 9.50747 2.24338 8.48266 3.42991C 8.15133 3.77322 8.00079 3.88285 7.82001 3.88285C 7.72932 3.88285 7.59872 3.77322 7.59872 3.46124L 7.59872 0.541895C 7.59872 0.167267 7.49352 0 7.19242 0L 4.95719 0C 4.73167 0 4.59563 0.174158 4.59563 0.338919C 4.59563 0.694127 5.10773 0.776194 5.16033 1.77541L 5.16033 3.9455C 5.16033 4.42099 5.0775 4.50744 4.89673 4.50744C 4.41485 4.50744 3.24191 2.67251 2.54661 0.573218C 2.40997 0.164761 2.27333 0 1.90996 0L 0.487919 0C 0.0810176 0 0 0.19859 0 0.416601C 0 0.806891 0.482478 2.7433 2.24491 5.30368C 3.42027 7.05215 5.07629 8 6.58298 8C 7.48687 8 7.59872 7.78888 7.59872 7.42678L 7.59872 6.10493C 7.59872 5.68395 7.68458 5.6 7.97056 5.6C 8.18156 5.6 8.54312 5.70963 9.38715 6.55223C 10.3509 7.55145 10.5099 8 11.0522 8L 12.4749 8C 12.8812 8 13.0843 7.78888 12.967 7.37353C 12.8389 6.96006 12.3782 6.35928 11.7675 5.64699C 11.4362 5.24103 10.9386 4.80376 10.788 4.58512C 10.577 4.30446 10.6375 4.17917 10.788 3.92984C 10.788 3.92984 12.5208 1.40078 12.7016 0.541895Z"/>
</defs>
</svg>
