<svg width="11" height="11" viewBox="0 0 11 11" version="1.1" xmlns="http://www.w3.org/2000/svg" xmlns:xlink="http://www.w3.org/1999/xlink">
<title>Page 1</title>
<desc>Created using Figma</desc>
<g id="Canvas" transform="translate(-16532 19968)">
<g id="Page 1">
<g id="Fill 1">
<use xlink:href="#path0_fill" transform="translate(16540 -19967)" fill="#FF4A68"/>
</g>
<g id="Group 5">
<mask id="mask0_outline" mask-type="alpha">
<g id="Clip 4">
<use xlink:href="#path1_fill" transform="translate(16532 -19967.9)" fill="#FFFFFF"/>
</g>
</mask>
<g id="Fill 3" mask="url(#mask0_outline)">
<use xlink:href="#path2_fill" transform="translate(16532 -19967.9)" fill="#FF4A68"/>
</g>
</g>
</g>
</g>
<defs>
<path id="path0_fill" fill-rule="evenodd" d="M 0.184561 1L 0.815377 1C 0.917338 1 1 0.917338 1 0.815439L 1 0.184623C 1 0.0826624 0.917276 0 0.815377 0L 0.184561 0C 0.0826624 0 0 0.0827239 0 0.184623L 0 0.815439C 0 0.917338 0.0826624 1 0.184561 1"/>
<path id="path1_fill" fill-rule="evenodd" d="M 10.9437 10.9436L 10.9437 0L 0 0L 0 10.9436L 10.9437 10.9436L 10.9437 10.9436Z"/>
<path id="path2_fill" fill-rule="evenodd" d="M 10.1696 3.94718L 7.30768 3.94718C 6.84946 3.46961 6.20475 3.17239 5.49068 3.17239C 4.7766 3.17239 4.13196 3.46961 3.67368 3.94718L 0.775391 3.94718L 0.775391 0.775391L 10.1696 0.775391L 10.1696 3.94718ZM 3.74609 5.69048C 3.74609 4.72777 4.52659 3.94727 5.48931 3.94727C 6.45209 3.94727 7.23252 4.72777 7.23252 5.69048C 7.23252 6.65327 6.45209 7.43377 5.48931 7.43377C 4.52659 7.43377 3.74609 6.65327 3.74609 5.69048L 3.74609 5.69048ZM 10.1696 10.1682L 0.775391 10.1682L 0.775391 4.7207L 3.16568 4.7207C 3.04132 5.01885 2.97268 5.34599 2.97268 5.68913C 2.97268 7.07985 4.10003 8.2072 5.49068 8.2072C 6.88132 8.2072 8.00868 7.07985 8.00868 5.68913C 8.00868 5.34599 7.94003 5.01885 7.81575 4.7207L 10.1696 4.7207L 10.1696 10.1682ZM 0 0L 0 2.32336L 0 10.9436L 10.9437 10.9436L 10.9437 0L 0 0Z"/>
</defs>
</svg>
