<svg width="546" height="711" viewBox="0 0 546 711" version="1.1" xmlns="http://www.w3.org/2000/svg" xmlns:xlink="http://www.w3.org/1999/xlink">
<title>icon_hash</title>
<desc>Created using Figma</desc>
<g id="Canvas" transform="translate(-28849 -8522)">
<g id="icon_hash">
<use xlink:href="#path0_fill" transform="translate(28825 8305)" fill="#FF4A68"/>
</g>
</g>
<defs>
<path id="path0_fill" d="M 362.305 727.805L 184.57 727.805L 148.438 928L 121.094 928L 157.227 727.805L 24.9023 727.805L 24.9023 702.414L 162.109 702.414L 208.496 446.555L 62.0117 446.555L 62.0117 420.188L 213.379 420.188L 250 217.062L 277.344 217.062L 240.234 420.188L 418.457 420.188L 455.566 217.062L 482.91 217.062L 445.801 420.188L 569.824 420.188L 569.824 446.555L 440.918 446.555L 394.043 702.414L 533.203 702.414L 533.203 727.805L 389.648 727.805L 353.027 928L 325.684 928L 362.305 727.805ZM 189.453 702.414L 366.699 702.414L 413.574 446.555L 235.352 446.555L 189.453 702.414Z"/>
</defs>
</svg>
