<?xml version="1.0" encoding="UTF-8"?>
<svg width="58px" height="58px" viewBox="0 0 58 58" version="1.1" xmlns="http://www.w3.org/2000/svg" xmlns:xlink="http://www.w3.org/1999/xlink">
    <!-- Generator: Sketch 47.1 (45422) - http://www.bohemiancoding.com/sketch -->
    <title>icon_vk_red_hover</title>
    <desc>Created with Sketch.</desc>
    <defs>
        <polygon id="path-1" points="0 14 0 0 23 0 23 14"></polygon>
    </defs>
    <g id="Page-1" stroke="none" stroke-width="1" fill="none" fill-rule="evenodd">
        <g id="Ховеры" transform="translate(-1108.000000, -1614.000000)">
            <g id="Group-23-Copy-4" transform="translate(1016.000000, 1615.000000)">
                <g id="Group-Copy" transform="translate(93.000000, 0.000000)">
                    <circle id="Oval-9-Copy" stroke="#FF4A68" fill="#FF4A68" cx="28" cy="28" r="28"></circle>
                    <g id="Page-1-Copy-5" transform="translate(16.000000, 21.000000)">
                        <mask id="mask-2" fill="white">
                            <use xlink:href="#path-1"></use>
                        </mask>
                        <g id="Clip-2"></g>
                        <path d="M22.4720942,0.948316366 C22.6314783,0.401252937 22.4720942,0 21.711543,0 L19.1956269,0 C18.5548813,0 18.2596462,0.347533281 18.1002621,0.729052467 C18.1002621,0.729052467 16.8209102,3.92592013 15.0077819,6.00234926 C14.4215905,6.60313234 14.1552372,6.79498825 13.8353992,6.79498825 C13.6749454,6.79498825 13.4438918,6.60313234 13.4438918,6.05716523 L13.4438918,0.948316366 C13.4438918,0.292717306 13.2577654,0 12.7250587,0 L8.77040652,0 C8.37141132,0 8.13073057,0.304776821 8.13073057,0.593108849 C8.13073057,1.214722 9.03675988,1.35833986 9.1298231,3.10696946 L9.1298231,6.9046202 C9.1298231,7.7367267 8.98327527,7.88801879 8.6634373,7.88801879 C7.8108926,7.88801879 5.73568969,4.67689898 4.50554363,1.00313234 C4.26379319,0.288332028 4.02204275,0 3.37915773,0 L0.863241622,0 C0.143338758,0 0,0.347533281 0,0.729052467 C0,1.41205951 0.853614392,4.80078309 3.97176722,9.28144088 C6.05124889,12.3412686 8.98113589,14 11.6468089,14 C13.2459988,14 13.4438918,13.6305403 13.4438918,12.9968677 L13.4438918,10.6836335 C13.4438918,9.94690681 13.5957881,9.8 14.1017525,9.8 C14.4750751,9.8 15.1147511,9.99185591 16.6080414,11.4664056 C18.3131308,13.2150352 18.5944599,14 19.5539738,14 L22.0709596,14 C22.7897928,14 23.1492094,13.6305403 22.9416891,12.9036805 C22.7149143,12.1801096 21.8998088,11.1287392 20.8194197,9.88222396 C20.2332284,9.17180893 19.3528717,8.40657792 19.0865183,8.02396241 C18.7131957,7.53281128 18.8201649,7.31354738 19.0865183,6.87721222 C19.0865183,6.87721222 22.1522562,2.4513704 22.4720942,0.948316366" id="Fill-1" fill="#FFFFFF" mask="url(#mask-2)"></path>
                    </g>
                </g>
            </g>
        </g>
    </g>
</svg>