<svg width="58" height="58" viewBox="0 0 58 58" version="1.1" xmlns="http://www.w3.org/2000/svg" xmlns:xlink="http://www.w3.org/1999/xlink">
<title>icon_vk_red</title>
<desc>Created using Figma</desc>
<g id="Canvas" transform="translate(-21145 -7758)">
<g id="icon_vk_red">
<g id="Oval 9 Copy">
<use xlink:href="#path0_stroke" transform="translate(21146 7759)" fill="#FF4A68"/>
</g>
<g id="Page 1 Copy 5">
<mask id="mask0_outline" mask-type="alpha">
<g id="Clip 2">
<use xlink:href="#path1_fill" transform="translate(21162 7780)" fill="#FFFFFF"/>
</g>
</mask>
<g id="Fill 1" mask="url(#mask0_outline)">
<use xlink:href="#path2_fill" transform="translate(21162 7780)" fill="#FF4A68"/>
</g>
</g>
</g>
</g>
<defs>
<path id="path0_stroke" d="M 28 56.5C 43.7401 56.5 56.5 43.7401 56.5 28L 55.5 28C 55.5 43.1878 43.1878 55.5 28 55.5L 28 56.5ZM 56.5 28C 56.5 12.2599 43.7401 -0.5 28 -0.5L 28 0.5C 43.1878 0.5 55.5 12.8122 55.5 28L 56.5 28ZM 28 -0.5C 12.2599 -0.5 -0.5 12.2599 -0.5 28L 0.5 28C 0.5 12.8122 12.8122 0.5 28 0.5L 28 -0.5ZM -0.5 28C -0.5 43.7401 12.2599 56.5 28 56.5L 28 55.5C 12.8122 55.5 0.5 43.1878 0.5 28L -0.5 28Z"/>
<path id="path1_fill" fill-rule="evenodd" d="M 0 14L 0 0L 23 0L 23 14L 0 14Z"/>
<path id="path2_fill" fill-rule="evenodd" d="M 22.4721 0.948316C 22.6315 0.401253 22.4721 0 21.7115 0L 19.1956 0C 18.5549 0 18.2596 0.347533 18.1003 0.729052C 18.1003 0.729052 16.8209 3.92592 15.0078 6.00235C 14.4216 6.60313 14.1552 6.79499 13.8354 6.79499C 13.6749 6.79499 13.4439 6.60313 13.4439 6.05717L 13.4439 0.948316C 13.4439 0.292717 13.2578 0 12.7251 0L 8.77041 0C 8.37141 0 8.13073 0.304777 8.13073 0.593109C 8.13073 1.21472 9.03676 1.35834 9.12982 3.10697L 9.12982 6.90462C 9.12982 7.73673 8.98327 7.88802 8.66344 7.88802C 7.81089 7.88802 5.73569 4.6769 4.50554 1.00313C 4.26379 0.288332 4.02204 0 3.37916 0L 0.863242 0C 0.143339 0 0 0.347533 0 0.729052C 0 1.41206 0.853614 4.80078 3.97177 9.28144C 6.05125 12.3413 8.98114 14 11.6468 14C 13.246 14 13.4439 13.6305 13.4439 12.9969L 13.4439 10.6836C 13.4439 9.94691 13.5958 9.8 14.1018 9.8C 14.4751 9.8 15.1148 9.99186 16.608 11.4664C 18.3131 13.215 18.5945 14 19.554 14L 22.071 14C 22.7898 14 23.1492 13.6305 22.9417 12.9037C 22.7149 12.1801 21.8998 11.1287 20.8194 9.88222C 20.2332 9.17181 19.3529 8.40658 19.0865 8.02396C 18.7132 7.53281 18.8202 7.31355 19.0865 6.87721C 19.0865 6.87721 22.1523 2.45137 22.4721 0.948316Z"/>
</defs>
</svg>
