<svg width="1330" height="1349" viewBox="0 0 1330 1349" version="1.1" xmlns="http://www.w3.org/2000/svg" xmlns:xlink="http://www.w3.org/1999/xlink">
<title>rouble_bg_red</title>
<desc>Created using Figma</desc>
<g id="Canvas" transform="translate(-43376 -6825)">
<g id="rouble_bg_red">
<g id="&#226;&#130;&#189;">
<use xlink:href="#path0_fill" transform="translate(44239 7658)" fill="#DB8794"/>
</g>
<g id="&#226;&#130;&#189;">
<use xlink:href="#path1_fill" transform="translate(44467 7567)" fill="#DB8794"/>
</g>
<g id="&#226;&#130;&#189;">
<use xlink:href="#path2_fill" transform="translate(44640 7768)" fill="#DB8794"/>
</g>
<g id="&#226;&#130;&#189;">
<use xlink:href="#path2_fill" transform="translate(44415 7384)" fill="#DB8794"/>
</g>
<g id="&#226;&#130;&#189;">
<use xlink:href="#path2_fill" transform="translate(43564 8128)" fill="#DB8794"/>
</g>
<g id="&#226;&#130;&#189;">
<use xlink:href="#path2_fill" transform="translate(44605 6813)" fill="#DB8794"/>
</g>
<g id="&#226;&#130;&#189;">
<use xlink:href="#path2_fill" transform="translate(43392 8028)" fill="#DB8794"/>
</g>
<g id="&#226;&#130;&#189;">
<use xlink:href="#path2_fill" transform="translate(44674 6957)" fill="#DB8794"/>
</g>
<g id="&#226;&#130;&#189;">
<use xlink:href="#path2_fill" transform="translate(43512 7897)" fill="#DB8794"/>
</g>
<g id="&#226;&#130;&#189;">
<use xlink:href="#path2_fill" transform="translate(43673 7525)" fill="#DB8794"/>
</g>
<g id="&#226;&#130;&#189;">
<use xlink:href="#path2_fill" transform="translate(43357 7460)" fill="#DB8794"/>
</g>
<g id="&#226;&#130;&#189;">
<use xlink:href="#path3_fill" transform="translate(44363 7102)" fill="#DB8794"/>
</g>
<g id="&#226;&#130;&#189;">
<use xlink:href="#path3_fill" transform="translate(44509 7839)" fill="#DB8794"/>
</g>
<g id="&#226;&#130;&#189;">
<use xlink:href="#path3_fill" transform="translate(44196 7383)" fill="#DB8794"/>
</g>
<g id="&#226;&#130;&#189;">
<use xlink:href="#path3_fill" transform="translate(43634 7680)" fill="#DB8794"/>
</g>
<g id="&#226;&#130;&#189;">
<use xlink:href="#path3_fill" transform="translate(44135 8067)" fill="#DB8794"/>
</g>
<g id="&#226;&#130;&#189;">
<use xlink:href="#path4_fill" transform="translate(44523 8028)" fill="#DB8794"/>
</g>
<g id="&#226;&#130;&#189;">
<use xlink:href="#path4_fill" transform="translate(43427 7768)" fill="#DB8794"/>
</g>
<g id="&#226;&#130;&#189;">
<use xlink:href="#path4_fill" transform="translate(44591 7110)" fill="#DB8794"/>
</g>
<g id="&#226;&#130;&#189;">
<use xlink:href="#path4_fill" transform="translate(44509 6944)" fill="#DB8794"/>
</g>
<g id="&#226;&#130;&#189;">
<use xlink:href="#path4_fill" transform="translate(43427 7227)" fill="#DB8794"/>
</g>
<g id="&#226;&#130;&#189;">
<use xlink:href="#path4_fill" transform="translate(43619 7145)" fill="#DB8794"/>
</g>
<g id="&#226;&#130;&#189;">
<use xlink:href="#path3_fill" transform="translate(44107 7587)" fill="#DB8794"/>
</g>
<g id="&#226;&#130;&#189;">
<use xlink:href="#path3_fill" transform="translate(43495 7536)" fill="#DB8794"/>
</g>
<g id="&#226;&#130;&#189;">
<use xlink:href="#path1_fill" transform="translate(44363 7957)" fill="#DB8794"/>
</g>
<g id="&#226;&#130;&#189;">
<use xlink:href="#path1_fill" transform="translate(43575 7301)" fill="#DB8794"/>
</g>
<g id="&#226;&#130;&#189;">
<use xlink:href="#path5_fill" transform="translate(43785 7409)" fill="#DB8794"/>
</g>
</g>
</g>
<defs>
<path id="path0_fill" d="M 77.7656 165.188L 77.7656 111.891L 118.125 111.891C 126 111.891 132.469 114.562 137.672 119.625C 142.734 124.828 145.406 131.297 145.406 139.172C 145.406 146.484 142.734 152.672 137.672 157.734C 132.469 162.797 126 165.188 118.125 165.188L 77.7656 165.188ZM 118.125 199.641C 139.219 199.641 156.234 193.734 169.172 181.922C 182.109 170.109 188.578 155.484 188.578 137.766C 188.578 120.188 181.969 105.281 168.75 92.9062C 155.531 80.5312 138.797 74.3438 118.688 74.3438L 34.5938 74.3438L 34.5938 165.188L 12.9375 165.188L 12.9375 199.641L 34.5938 199.641L 34.5938 215.531L 12.9375 215.531L 12.9375 250.125L 34.5938 250.125L 34.5938 276L 77.7656 276L 77.7656 250.125L 138.234 250.125L 138.234 215.531L 77.7656 215.531L 77.7656 199.641L 118.125 199.641Z"/>
<path id="path1_fill" d="M 38.8828 82.5938L 38.8828 55.9453L 59.0625 55.9453C 63 55.9453 66.2344 57.2812 68.8359 59.8125C 71.3672 62.4141 72.7031 65.6484 72.7031 69.5859C 72.7031 73.2422 71.3672 76.3359 68.8359 78.8672C 66.2344 81.3984 63 82.5938 59.0625 82.5938L 38.8828 82.5938ZM 59.0625 99.8203C 69.6094 99.8203 78.1172 96.8672 84.5859 90.9609C 91.0547 85.0547 94.2891 77.7422 94.2891 68.8828C 94.2891 60.0938 90.9844 52.6406 84.375 46.4531C 77.7656 40.2656 69.3984 37.1719 59.3438 37.1719L 17.2969 37.1719L 17.2969 82.5938L 6.46875 82.5938L 6.46875 99.8203L 17.2969 99.8203L 17.2969 107.766L 6.46875 107.766L 6.46875 125.062L 17.2969 125.062L 17.2969 138L 38.8828 138L 38.8828 125.062L 69.1172 125.062L 69.1172 107.766L 38.8828 107.766L 38.8828 99.8203L 59.0625 99.8203Z"/>
<path id="path2_fill" d="M 12.9609 27.5312L 12.9609 18.6484L 19.6875 18.6484C 21 18.6484 22.0781 19.0938 22.9453 19.9375C 23.7891 20.8047 24.2344 21.8828 24.2344 23.1953C 24.2344 24.4141 23.7891 25.4453 22.9453 26.2891C 22.0781 27.1328 21 27.5312 19.6875 27.5312L 12.9609 27.5312ZM 19.6875 33.2734C 23.2031 33.2734 26.0391 32.2891 28.1953 30.3203C 30.3516 28.3516 31.4297 25.9141 31.4297 22.9609C 31.4297 20.0312 30.3281 17.5469 28.125 15.4844C 25.9219 13.4219 23.1328 12.3906 19.7812 12.3906L 5.76562 12.3906L 5.76562 27.5312L 2.15625 27.5312L 2.15625 33.2734L 5.76562 33.2734L 5.76562 35.9219L 2.15625 35.9219L 2.15625 41.6875L 5.76562 41.6875L 5.76562 46L 12.9609 46L 12.9609 41.6875L 23.0391 41.6875L 23.0391 35.9219L 12.9609 35.9219L 12.9609 33.2734L 19.6875 33.2734Z"/>
<path id="path3_fill" d="M 27.002 57.5234L 27.002 39.0176L 41.0156 39.0176C 43.75 39.0176 45.9961 39.9453 47.8027 41.7031C 49.5605 43.5098 50.4883 45.7559 50.4883 48.4902C 50.4883 51.0293 49.5605 53.1777 47.8027 54.9355C 45.9961 56.6934 43.75 57.5234 41.0156 57.5234L 27.002 57.5234ZM 41.0156 69.4863C 48.3398 69.4863 54.248 67.4355 58.7402 63.334C 63.2324 59.2324 65.4785 54.1543 65.4785 48.002C 65.4785 41.8984 63.1836 36.7227 58.5938 32.4258C 54.0039 28.1289 48.1934 25.9805 41.2109 25.9805L 12.0117 25.9805L 12.0117 57.5234L 4.49219 57.5234L 4.49219 69.4863L 12.0117 69.4863L 12.0117 75.0039L 4.49219 75.0039L 4.49219 87.0156L 12.0117 87.0156L 12.0117 96L 27.002 96L 27.002 87.0156L 47.998 87.0156L 47.998 75.0039L 27.002 75.0039L 27.002 69.4863L 41.0156 69.4863Z"/>
<path id="path4_fill" d="M 19.4414 41.2969L 19.4414 27.9727L 29.5312 27.9727C 31.5 27.9727 33.1172 28.6406 34.418 29.9062C 35.6836 31.207 36.3516 32.8242 36.3516 34.793C 36.3516 36.6211 35.6836 38.168 34.418 39.4336C 33.1172 40.6992 31.5 41.2969 29.5312 41.2969L 19.4414 41.2969ZM 29.5312 49.9102C 34.8047 49.9102 39.0586 48.4336 42.293 45.4805C 45.5273 42.5273 47.1445 38.8711 47.1445 34.4414C 47.1445 30.0469 45.4922 26.3203 42.1875 23.2266C 38.8828 20.1328 34.6992 18.5859 29.6719 18.5859L 8.64844 18.5859L 8.64844 41.2969L 3.23438 41.2969L 3.23438 49.9102L 8.64844 49.9102L 8.64844 53.8828L 3.23438 53.8828L 3.23438 62.5312L 8.64844 62.5312L 8.64844 69L 19.4414 69L 19.4414 62.5312L 34.5586 62.5312L 34.5586 53.8828L 19.4414 53.8828L 19.4414 49.9102L 29.5312 49.9102Z"/>
<path id="path5_fill" d="M 54.0039 115.047L 54.0039 78.0352L 82.0312 78.0352C 87.5 78.0352 91.9922 79.8906 95.6055 83.4062C 99.1211 87.0195 100.977 91.5117 100.977 96.9805C 100.977 102.059 99.1211 106.355 95.6055 109.871C 91.9922 113.387 87.5 115.047 82.0312 115.047L 54.0039 115.047ZM 82.0312 138.973C 96.6797 138.973 108.496 134.871 117.48 126.668C 126.465 118.465 130.957 108.309 130.957 96.0039C 130.957 83.7969 126.367 73.4453 117.188 64.8516C 108.008 56.2578 96.3867 51.9609 82.4219 51.9609L 24.0234 51.9609L 24.0234 115.047L 8.98438 115.047L 8.98438 138.973L 24.0234 138.973L 24.0234 150.008L 8.98438 150.008L 8.98438 174.031L 24.0234 174.031L 24.0234 192L 54.0039 192L 54.0039 174.031L 95.9961 174.031L 95.9961 150.008L 54.0039 150.008L 54.0039 138.973L 82.0312 138.973Z"/>
</defs>
</svg>
