<svg width="1333" height="1022" viewBox="0 0 1333 1022" version="1.1" xmlns="http://www.w3.org/2000/svg" xmlns:xlink="http://www.w3.org/1999/xlink">
<title>white_strips_diag</title>
<desc>Created using Figma</desc>
<g id="Canvas" transform="translate(-38450 -5800)">
<g id="white_strips_diag">
<g id="Group">
<g id="Stroke 1">
<use xlink:href="#path0_fill" transform="matrix(0.995538 -0.0943662 0.094366 0.995538 39345.6 6047.43)" fill="#F5F1F1"/>
<use xlink:href="#path1_stroke" transform="matrix(0.995538 -0.0943662 0.094366 0.995538 39345.6 6047.43)" fill="#F5F1F1"/>
</g>
<g id="Stroke 3">
<use xlink:href="#path0_fill" transform="matrix(0.995538 -0.0943662 0.094366 0.995538 39431.3 6110.72)" fill="#F5F1F1"/>
<use xlink:href="#path1_stroke" transform="matrix(0.995538 -0.0943662 0.094366 0.995538 39431.3 6110.72)" fill="#F5F1F1"/>
</g>
<g id="Stroke 5">
<use xlink:href="#path0_fill" transform="matrix(0.995538 -0.0943662 0.094366 0.995538 39638.8 5865.83)" fill="#F5F1F1"/>
<use xlink:href="#path1_stroke" transform="matrix(0.995538 -0.0943662 0.094366 0.995538 39638.8 5865.83)" fill="#F5F1F1"/>
</g>
<g id="Stroke 7">
<use xlink:href="#path0_fill" transform="matrix(0.995538 -0.0943661 0.0943661 0.995538 39269.6 6360.89)" fill="#F5F1F1"/>
<use xlink:href="#path1_stroke" transform="matrix(0.995538 -0.0943661 0.0943661 0.995538 39269.6 6360.89)" fill="#F5F1F1"/>
</g>
<g id="Stroke 9">
<use xlink:href="#path0_fill" transform="matrix(0.995538 -0.094366 0.0943661 0.995538 39584.3 6015.19)" fill="#F5F1F1"/>
<use xlink:href="#path1_stroke" transform="matrix(0.995538 -0.094366 0.0943661 0.995538 39584.3 6015.19)" fill="#F5F1F1"/>
</g>
<g id="Stroke 11">
<use xlink:href="#path0_fill" transform="matrix(0.995538 -0.0943661 0.0943661 0.995538 39369 6322.63)" fill="#F5F1F1"/>
<use xlink:href="#path1_stroke" transform="matrix(0.995538 -0.0943661 0.0943661 0.995538 39369 6322.63)" fill="#F5F1F1"/>
</g>
<g id="Stroke 13">
<use xlink:href="#path0_fill" transform="matrix(0.995538 -0.0943661 0.0943661 0.995538 39743 6139.38)" fill="#F5F1F1"/>
<use xlink:href="#path1_stroke" transform="matrix(0.995538 -0.0943661 0.0943661 0.995538 39743 6139.38)" fill="#F5F1F1"/>
</g>
<g id="Stroke 15">
<use xlink:href="#path0_fill" transform="matrix(0.995538 -0.0943661 0.0943661 0.995538 39220.5 6567.42)" fill="#F5F1F1"/>
<use xlink:href="#path1_stroke" transform="matrix(0.995538 -0.0943661 0.0943661 0.995538 39220.5 6567.42)" fill="#F5F1F1"/>
</g>
<g id="Stroke 17">
<use xlink:href="#path0_fill" transform="matrix(0.995538 -0.0943663 0.0943659 0.995538 39771.3 5872.5)" fill="#F5F1F1"/>
<use xlink:href="#path1_stroke" transform="matrix(0.995538 -0.0943663 0.0943659 0.995538 39771.3 5872.5)" fill="#F5F1F1"/>
</g>
<g id="Stroke 19">
<use xlink:href="#path0_fill" transform="matrix(0.995538 -0.0943661 0.0943661 0.995538 39556 6296.66)" fill="#F5F1F1"/>
<use xlink:href="#path1_stroke" transform="matrix(0.995538 -0.0943661 0.0943661 0.995538 39556 6296.66)" fill="#F5F1F1"/>
</g>
<g id="Stroke 21">
<use xlink:href="#path0_fill" transform="matrix(0.995538 -0.0943661 0.0943661 0.995538 39600 6442.18)" fill="#F5F1F1"/>
<use xlink:href="#path1_stroke" transform="matrix(0.995538 -0.0943661 0.0943661 0.995538 39600 6442.18)" fill="#F5F1F1"/>
</g>
<g id="Stroke 23">
<use xlink:href="#path0_fill" transform="matrix(0.995538 -0.0943661 0.0943661 0.995538 39279.7 6641.46)" fill="#F5F1F1"/>
<use xlink:href="#path1_stroke" transform="matrix(0.995538 -0.0943661 0.0943661 0.995538 39279.7 6641.46)" fill="#F5F1F1"/>
</g>
<g id="Stroke 25">
<use xlink:href="#path0_fill" transform="matrix(0.995538 -0.0943661 0.0943661 0.995538 39443.6 6500.95)" fill="#F5F1F1"/>
<use xlink:href="#path1_stroke" transform="matrix(0.995538 -0.0943661 0.0943661 0.995538 39443.6 6500.95)" fill="#F5F1F1"/>
</g>
<g id="Stroke 27">
<use xlink:href="#path0_fill" transform="matrix(0.995538 -0.0943661 0.0943661 0.995538 39391.3 6717.4)" fill="#F5F1F1"/>
<use xlink:href="#path1_stroke" transform="matrix(0.995538 -0.0943661 0.0943661 0.995538 39391.3 6717.4)" fill="#F5F1F1"/>
</g>
</g>
<g id="Group">
<g id="Stroke 1">
<use xlink:href="#path2_fill" transform="matrix(-0.992546 0.121869 -0.121869 -0.992546 38974.8 6477.4)" fill="#F5F1F1"/>
<use xlink:href="#path3_stroke" transform="matrix(-0.992546 0.121869 -0.121869 -0.992546 38974.8 6477.4)" fill="#F5F1F1"/>
</g>
<g id="Stroke 3">
<use xlink:href="#path2_fill" transform="matrix(-0.992546 0.12187 -0.121869 -0.992546 38887.4 6416.5)" fill="#F5F1F1"/>
<use xlink:href="#path3_stroke" transform="matrix(-0.992546 0.12187 -0.121869 -0.992546 38887.4 6416.5)" fill="#F5F1F1"/>
</g>
<g id="Stroke 5">
<use xlink:href="#path4_fill" transform="matrix(-0.992546 0.121869 -0.121869 -0.992546 38686.8 6667.03)" fill="#F5F1F1"/>
<use xlink:href="#path5_stroke" transform="matrix(-0.992546 0.121869 -0.121869 -0.992546 38686.8 6667.03)" fill="#F5F1F1"/>
</g>
<g id="Stroke 7">
<use xlink:href="#path2_fill" transform="matrix(-0.992546 0.121869 -0.121869 -0.992546 39042.1 6161.95)" fill="#F5F1F1"/>
<use xlink:href="#path3_stroke" transform="matrix(-0.992546 0.121869 -0.121869 -0.992546 39042.1 6161.95)" fill="#F5F1F1"/>
</g>
<g id="Stroke 9">
<use xlink:href="#path4_fill" transform="matrix(-0.992546 0.121869 -0.121869 -0.992546 38737.1 6516.22)" fill="#F5F1F1"/>
<use xlink:href="#path5_stroke" transform="matrix(-0.992546 0.121869 -0.121869 -0.992546 38737.1 6516.22)" fill="#F5F1F1"/>
</g>
<g id="Stroke 11">
<use xlink:href="#path2_fill" transform="matrix(-0.992546 0.12187 -0.121869 -0.992546 38943.8 6202.95)" fill="#F5F1F1"/>
<use xlink:href="#path3_stroke" transform="matrix(-0.992546 0.12187 -0.121869 -0.992546 38943.8 6202.95)" fill="#F5F1F1"/>
</g>
<g id="Stroke 13">
<use xlink:href="#path0_fill" transform="matrix(-0.992546 0.121869 -0.121869 -0.992546 38575.1 6396.46)" fill="#F5F1F1"/>
<use xlink:href="#path1_stroke" transform="matrix(-0.992546 0.121869 -0.121869 -0.992546 38575.1 6396.46)" fill="#F5F1F1"/>
</g>
<g id="Stroke 15">
<use xlink:href="#path2_fill" transform="matrix(-0.992546 0.121869 -0.12187 -0.992546 39085.5 5954.14)" fill="#F5F1F1"/>
<use xlink:href="#path3_stroke" transform="matrix(-0.992546 0.121869 -0.12187 -0.992546 39085.5 5954.14)" fill="#F5F1F1"/>
</g>
<g id="Stroke 17">
<use xlink:href="#path0_fill" transform="matrix(-0.992546 0.121869 -0.121869 -0.992546 38554.2 6664.03)" fill="#F5F1F1"/>
<use xlink:href="#path1_stroke" transform="matrix(-0.992546 0.121869 -0.121869 -0.992546 38554.2 6664.03)" fill="#F5F1F1"/>
</g>
<g id="Stroke 19">
<use xlink:href="#path6_fill" transform="matrix(-0.992546 0.121869 -0.121869 -0.992546 38757.6 6234.08)" fill="#F5F1F1"/>
<use xlink:href="#path7_stroke" transform="matrix(-0.992546 0.121869 -0.121869 -0.992546 38757.6 6234.08)" fill="#F5F1F1"/>
</g>
<g id="Stroke 21">
<use xlink:href="#path2_fill" transform="matrix(-0.992546 0.121869 -0.121869 -0.992546 38709.6 6089.84)" fill="#F5F1F1"/>
<use xlink:href="#path3_stroke" transform="matrix(-0.992546 0.121869 -0.121869 -0.992546 38709.6 6089.84)" fill="#F5F1F1"/>
</g>
<g id="Stroke 23">
<use xlink:href="#path2_fill" transform="matrix(-0.992546 0.121869 -0.121869 -0.992546 39024.2 5881.77)" fill="#F5F1F1"/>
<use xlink:href="#path3_stroke" transform="matrix(-0.992546 0.121869 -0.121869 -0.992546 39024.2 5881.77)" fill="#F5F1F1"/>
</g>
<g id="Stroke 25">
<use xlink:href="#path4_fill" transform="matrix(-0.992546 0.121869 -0.121869 -0.992546 38864.3 6026.75)" fill="#F5F1F1"/>
<use xlink:href="#path5_stroke" transform="matrix(-0.992546 0.121869 -0.121869 -0.992546 38864.3 6026.75)" fill="#F5F1F1"/>
</g>
<g id="Stroke 27">
<use xlink:href="#path4_fill" transform="matrix(-0.992546 0.121869 -0.121869 -0.992546 38910.6 5808.94)" fill="#F5F1F1"/>
<use xlink:href="#path5_stroke" transform="matrix(-0.992546 0.121869 -0.121869 -0.992546 38910.6 5808.94)" fill="#F5F1F1"/>
</g>
</g>
</g>
</g>
<defs>
<path id="path0_fill" fill-rule="evenodd" d="M 0 103.906L 103.906 0L 0 103.906Z"/>
<path id="path1_stroke" d="M 0.707107 104.613L 104.613 0.707107L 103.199 -0.707107L -0.707107 103.199L 0.707107 104.613Z"/>
<path id="path2_fill" fill-rule="evenodd" d="M 0 103.906L 103.906 0L 0 103.906Z"/>
<path id="path3_stroke" d="M 0.707107 104.613L 104.613 0.707107L 103.199 -0.707107L -0.707107 103.199L 0.707107 104.613Z"/>
<path id="path4_fill" fill-rule="evenodd" d="M 0 103.906L 103.906 0L 0 103.906Z"/>
<path id="path5_stroke" d="M 0.707107 104.613L 104.613 0.707107L 103.199 -0.707107L -0.707107 103.199L 0.707107 104.613Z"/>
<path id="path6_fill" fill-rule="evenodd" d="M 0 103.906L 103.906 0L 0 103.906Z"/>
<path id="path7_stroke" d="M 0.707107 104.613L 104.613 0.707107L 103.199 -0.707107L -0.707107 103.199L 0.707107 104.613Z"/>
</defs>
</svg>
