<?xml version="1.0" encoding="UTF-8"?>
<svg width="1031px" height="1057px" viewBox="0 0 1031 1057" version="1.1" xmlns="http://www.w3.org/2000/svg" xmlns:xlink="http://www.w3.org/1999/xlink">
    <!-- Generator: Sketch 47.1 (45422) - http://www.bohemiancoding.com/sketch -->
    <title>0_7_pattern</title>
    <desc>Created with Sketch.</desc>
    <defs></defs>
    <g id="-" stroke="none" stroke-width="1" fill="none" fill-rule="evenodd">
        <g id="1-1-Desktop-#7.1" transform="translate(-67.000000, -98.000000)" fill="#FFFFFF">
            <g id="Group" transform="translate(-7.000000, 59.000000)">
                <path d="M1008.83179,173.411176 L1024.83179,189.411176 L1008.83179,189.411176 L1008.83179,173.411176 Z M1008.83179,189.411176 L992.831794,173.411176 L1008.83179,173.411176 L1008.83179,189.411176 Z" id="Combined-Shape" transform="translate(1008.831794, 181.411176) rotate(22.000000) translate(-1008.831794, -181.411176) "></path>
                <path d="M840.831794,819.411176 L856.831794,835.411176 L840.831794,835.411176 L840.831794,819.411176 Z M840.831794,835.411176 L824.831794,819.411176 L840.831794,819.411176 L840.831794,835.411176 Z" id="Combined-Shape-Copy-9" transform="translate(840.831794, 827.411176) rotate(22.000000) translate(-840.831794, -827.411176) "></path>
                <path d="M386.831794,186.411176 L402.831794,202.411176 L386.831794,202.411176 L386.831794,186.411176 Z M386.831794,202.411176 L370.831794,186.411176 L386.831794,186.411176 L386.831794,202.411176 Z" id="Combined-Shape-Copy-8" transform="translate(386.831794, 194.411176) rotate(22.000000) translate(-386.831794, -194.411176) "></path>
                <path d="M690.579387,327.738144 L706.579387,343.738144 L690.579387,343.738144 L690.579387,327.738144 Z M690.579387,343.738144 L674.579387,327.738144 L690.579387,327.738144 L690.579387,343.738144 Z" id="Combined-Shape-Copy-5" transform="translate(690.579387, 335.738144) rotate(56.000000) translate(-690.579387, -335.738144) "></path>
                <path d="M566.961538,42.9332646 L578.591584,54.5633114 L566.961538,54.5633114 L566.961538,42.9332646 Z M566.961538,54.5633114 L555.331491,42.9332646 L566.961538,42.9332646 L566.961538,54.5633114 Z" id="Combined-Shape-Copy-4" transform="translate(566.961538, 48.748288) rotate(22.000000) translate(-566.961538, -48.748288) "></path>
                <path d="M1087.85655,713.225892 L1122.75018,748.119529 L1087.85655,748.119529 L1087.85655,713.225892 Z M1087.85655,748.119529 L1052.96291,713.225892 L1087.85655,713.225892 L1087.85655,748.119529 Z" id="Combined-Shape-Copy" transform="translate(1087.856548, 730.672710) rotate(71.000000) translate(-1087.856548, -730.672710) "></path>
                <path d="M773.09264,919.057341 L818.825338,964.790039 L773.09264,964.790039 L773.09264,919.057341 Z M773.09264,964.790039 L727.359943,919.057341 L773.09264,919.057341 L773.09264,964.790039 Z" id="Combined-Shape-Copy-7" transform="translate(773.092640, 941.923690) rotate(-165.000000) translate(-773.092640, -941.923690) "></path>
                <path d="M461.230235,598.69181 L503.126233,634.360503 L461.230235,634.360503 L461.230235,598.69181 Z M461.230235,634.360503 L419.334237,598.69181 L461.230235,598.69181 L461.230235,634.360503 Z" id="Combined-Shape-Copy-6" transform="translate(461.230235, 616.526156) rotate(-112.000000) translate(-461.230235, -616.526156) "></path>
                <path d="M918.38548,1034.00235 L1003.86627,1119.48314 L918.38548,1119.48314 L918.38548,1034.00235 Z M918.38548,1119.48314 L832.904694,1034.00235 L918.38548,1034.00235 L918.38548,1119.48314 Z" id="Combined-Shape-Copy-3" transform="translate(918.385480, 1076.742743) rotate(157.000000) translate(-918.385480, -1076.742743) "></path>
                <path d="M326.016027,818.441783 L344.825386,837.251141 L326.016027,837.251141 L326.016027,818.441783 Z M326.016027,837.251141 L307.206669,818.441783 L326.016027,818.441783 L326.016027,837.251141 Z" id="Combined-Shape-Copy-2" transform="translate(326.016027, 827.846462) rotate(71.000000) translate(-326.016027, -827.846462) "></path>
                <path d="M650.5,419 L664,432 L650.5,432 L650.5,419 Z M650.5,432 L637,419 L650.5,419 L650.5,432 Z" id="Combined-Shape-Copy-20" transform="translate(650.500000, 425.500000) scale(-1, 1) rotate(22.000000) translate(-650.500000, -425.500000) "></path>
                <path d="M511.5,957 L525,970 L511.5,970 L511.5,957 Z M511.5,970 L498,957 L511.5,957 L511.5,970 Z" id="Combined-Shape-Copy-21" transform="translate(511.500000, 963.500000) scale(-1, 1) rotate(22.000000) translate(-511.500000, -963.500000) "></path>
                <path d="M133.5,430 L147,443 L133.5,443 L133.5,430 Z M133.5,443 L120,430 L133.5,430 L133.5,443 Z" id="Combined-Shape-Copy-22" transform="translate(133.500000, 436.500000) scale(-1, 1) rotate(22.000000) translate(-133.500000, -436.500000) "></path>
                <path d="M386.5,548 L400,561 L386.5,561 L386.5,548 Z M386.5,561 L373,548 L386.5,548 L386.5,561 Z" id="Combined-Shape-Copy-23" transform="translate(386.500000, 554.500000) scale(-1, 1) rotate(56.000000) translate(-386.500000, -554.500000) "></path>
                <path d="M717,869 L746,898 L717,898 L717,869 Z M717,898 L688,869 L717,869 L717,898 Z" id="Combined-Shape-Copy-25" transform="translate(717.000000, 883.500000) scale(-1, 1) rotate(71.000000) translate(-717.000000, -883.500000) "></path>
                <path d="M455,1040 L493,1078 L455,1078 L455,1040 Z M455,1078 L417,1040 L455,1040 L455,1078 Z" id="Combined-Shape-Copy-26" transform="translate(455.000000, 1059.000000) scale(-1, 1) rotate(-165.000000) translate(-455.000000, -1059.000000) "></path>
                <path d="M195,774 L230,804 L195,804 L195,774 Z M195,804 L160,774 L195,774 L195,804 Z" id="Combined-Shape-Copy-27" transform="translate(195.000000, 789.000000) scale(-1, 1) rotate(-112.000000) translate(-195.000000, -789.000000) "></path>
                <path d="M82.5,957 L98,973 L82.5,973 L82.5,957 Z M82.5,973 L67,957 L82.5,957 L82.5,973 Z" id="Combined-Shape-Copy-29" transform="translate(82.500000, 965.000000) scale(-1, 1) rotate(71.000000) translate(-82.500000, -965.000000) "></path>
                <path d="M282.5,311 L292,321 L282.5,321 L282.5,311 Z M282.5,321 L273,311 L282.5,311 L282.5,321 Z" id="Combined-Shape-Copy-24" transform="translate(282.500000, 316.000000) scale(-1, 1) rotate(22.000000) translate(-282.500000, -316.000000) "></path>
            </g>
        </g>
    </g>
</svg>