<?xml version="1.0" encoding="UTF-8"?>
<svg width="1297px" height="1081px" viewBox="0 0 1297 1081" version="1.1" xmlns="http://www.w3.org/2000/svg" xmlns:xlink="http://www.w3.org/1999/xlink">
    <!-- Generator: Sketch 47.1 (45422) - http://www.bohemiancoding.com/sketch -->
    <title>2_map_overlay</title>
    <desc>Created with Sketch.</desc>
    <defs></defs>
    <g id="-" stroke="none" stroke-width="1" fill="none" fill-rule="evenodd">
        <g id="1-1-Desktop-#2" transform="translate(-69.000000, -359.000000)">
            <g id="Group-8" transform="translate(69.000000, 258.000000)">
                <g id="Page-1">
                    <g id="Group-5">
                        <polygon id="Fill-1" fill="#ECFF5C" points="674.3521 237.432314 674.3521 271.842795 708.757819 271.842795"></polygon>
                        <polygon id="Fill-2" fill="#ECFF5C" points="743.163539 270.122271 743.163539 304.532751 777.569258 270.122271"></polygon>
                        <polygon id="Fill-5" fill="#ECFF5C" points="810.254692 203.021834 776.709115 203.021834 743.163539 236.572052 743.163539 270.122271 776.709115 236.572052"></polygon>
                        <polygon id="Fill-6" fill="#ECFF5C" points="68.8114388 473.144105 34.4057194 506.694323 68.8114388 540.244541 68.8114388 506.694323"></polygon>
                        <path d="M1756.14035,101.510917 L1722.36842,101.510917 L1722.36842,135.27395 L1688.59424,169.041485 L1722.36842,202.806769 L1722.36842,236.569801 L1688.59424,236.569801 L1654.82456,236.569801 L1621.05263,236.569801 L1621.05263,202.806769 L1587.27845,202.806769 L1553.50877,202.806769 L1519.73684,202.806769 L1519.73684,236.569801 L1485.96266,236.569801 L1452.19298,236.569801 L1418.42105,270.337336 L1384.64687,270.337336 L1418.42105,304.10262 L1384.64687,304.10262 L1350.87719,337.865653 L1317.10526,304.10262 L1283.33108,304.10262 L1249.5614,337.865653 L1215.78947,304.10262 L1182.01529,337.865653 L1148.24561,337.865653 L1182.01529,304.10262 L1148.24561,304.10262 L1114.47368,337.865653 L1080.6995,371.633188 L1080.6995,337.865653 L1046.92982,337.865653 L1013.15789,304.10262 L979.383713,337.865653 L1013.15789,337.865653 L979.383713,371.633188 L945.614035,405.398472 L945.614035,439.161504 L945.614035,472.929039 L911.842105,472.929039 L911.842105,439.161504 L911.842105,405.398472 L878.067924,439.161504 L878.067924,405.398472 L844.298246,439.161504 L810.526316,472.929039 L776.752135,439.161504 L810.526316,439.161504 L810.526316,405.398472 L810.526316,371.633188 L776.752135,337.865653 L776.752135,304.10262 L742.982456,337.865653 L709.210526,304.10262 L709.210526,337.865653 L675.436345,304.10262 L641.666667,270.337336 L607.894737,304.10262 L607.894737,270.337336 L574.120556,270.337336 L540.350877,236.569801 L540.350877,270.337336 L506.578947,236.569801 L506.578947,270.337336 L472.804766,236.569801 L506.578947,202.806769 L540.350877,169.041485 L540.350877,202.806769 L574.120556,236.569801 L607.894737,236.569801 L607.894737,202.806769 L607.894737,169.041485 L607.894737,135.27395 L574.120556,101.510917 L540.350877,135.27395 L506.578947,169.041485 L472.804766,169.041485 L439.035088,202.806769 L405.263158,236.569801 L371.488977,270.337336 L371.488977,236.569801 L371.488977,202.806769 L337.719298,236.569801 L337.719298,202.806769 L303.947368,236.569801 L303.947368,202.806769 L337.719298,202.806769 L303.947368,169.041485 L270.173187,202.806769 L236.403509,202.806769 L270.173187,169.041485 L236.403509,135.27395 L202.631579,169.041485 L202.631579,202.806769 L168.857398,202.806769 L135.087719,169.041485 L101.315789,135.27395 L101.315789,169.041485 L67.5416082,202.806769 L101.315789,236.569801 L101.315789,270.337336 L101.315789,304.10262 L67.5416082,337.865653 L33.7719298,371.633188 L0,405.398472 L33.7719298,405.398472 L33.7719298,439.161504 L67.5416082,439.161504 L67.5416082,472.929039 L101.315789,506.694323 L135.087719,540.457356 L101.315789,540.457356 L67.5416082,540.457356 L67.5416082,574.224891 L101.315789,607.990175 L101.315789,641.753207 L67.5416082,675.520742 L33.7719298,709.286026 L67.5416082,743.049059 L67.5416082,776.816594 L67.5416082,810.581878 L101.315789,810.581878 L135.087719,810.581878 L101.315789,844.344911 L135.087719,844.344911 L168.857398,810.581878 L168.857398,776.816594 L168.857398,743.049059 L202.631579,709.286026 L236.403509,675.520742 L270.173187,709.286026 L303.947368,709.286026 L303.947368,743.049059 L270.173187,776.816594 L270.173187,743.049059 L236.403509,743.049059 L236.403509,776.816594 L236.403509,810.581878 L202.631579,844.344911 L202.631579,878.112445 L202.631579,911.877729 L168.857398,945.640762 L202.631579,945.640762 L236.403509,979.408297 L270.173187,1013.17358 L270.173187,1046.93661 L303.947368,1046.93661 L270.173187,1080.70415 L303.947368,1114.46943 L303.947368,1080.70415 L337.719298,1114.46943 L371.488977,1080.70415 L371.488977,1046.93661 L337.719298,1013.17358 L337.719298,979.408297 L337.719298,945.640762 L303.947368,911.877729 L270.173187,911.877729 L303.947368,878.112445 L337.719298,878.112445 L337.719298,844.344911 L371.488977,810.581878 L405.263158,810.581878 L439.035088,844.344911 L405.263158,844.344911 L405.263158,878.112445 L371.488977,878.112445 L337.719298,911.877729 L371.488977,945.640762 L371.488977,979.408297 L405.263158,979.408297 L439.035088,1013.17358 L405.263158,1046.93661 L439.035088,1080.70415 L472.804766,1080.70415 L506.578947,1080.70415 L506.578947,1114.46943 L506.578947,1148.23247 L540.350877,1182 L574.120556,1148.23247 L540.350877,1114.46943 L574.120556,1114.46943 L574.120556,1080.70415 L607.894737,1114.46943 L641.666667,1114.46943 L675.436345,1114.46943 L709.210526,1080.70415 L709.210526,1046.93661 L742.982456,1013.17358 L742.982456,1046.93661 L776.752135,1013.17358 L776.752135,979.408297 L810.526316,1013.17358 L844.298246,979.408297 L878.067924,945.640762 L911.842105,945.640762 L911.842105,911.877729 L945.614035,878.112445 L979.383713,911.877729 L979.383713,878.112445 L1013.15789,878.112445 L1046.92982,844.344911 L1080.6995,878.112445 L1080.6995,911.877729 L1114.47368,911.877729 L1148.24561,945.640762 L1182.01529,945.640762 L1215.78947,945.640762 L1249.5614,979.408297 L1283.33108,979.408297 L1317.10526,945.640762 L1350.87719,911.877729 L1350.87719,945.640762 L1384.64687,945.640762 L1418.42105,911.877729 L1418.42105,878.112445 L1418.42105,844.344911 L1418.42105,810.581878 L1452.19298,810.581878 L1485.96266,810.581878 L1519.73684,844.344911 L1553.50877,878.112445 L1587.27845,878.112445 L1621.05263,911.877729 L1654.82456,878.112445 L1654.82456,844.344911 L1688.59424,878.112445 L1688.59424,911.877729 L1688.59424,945.640762 L1688.59424,979.408297 L1654.82456,945.640762 L1654.82456,979.408297 L1654.82456,1013.17358 L1654.82456,1046.93661 L1688.59424,1013.17358 L1722.36842,1013.17358 L1722.36842,979.408297 L1722.36842,945.640762 L1756.14035,911.877729 L1756.14035,878.112445 L1756.14035,844.344911 L1756.14035,810.581878 L1722.36842,776.816594 L1722.36842,743.049059 L1722.36842,709.286026 L1688.59424,675.520742 L1654.82456,675.520742 L1654.82456,709.286026 L1621.05263,709.286026 L1587.27845,709.286026 L1621.05263,675.520742 L1621.05263,641.753207 L1621.05263,607.990175 L1621.05263,574.224891 L1621.05263,540.457356 L1654.82456,540.457356 L1654.82456,506.694323 L1688.59424,506.694323 L1688.59424,472.929039 L1722.36842,472.929039 L1756.14035,439.161504 L1722.36842,405.398472 L1722.36842,371.633188 L1722.36842,337.865653 L1756.14035,337.865653 L1756.14035,304.10262 L1789.91003,337.865653 L1789.91003,371.633188 L1789.91003,405.398472 L1789.91003,439.161504 L1823.68421,472.929039 L1823.68421,506.694323 L1857.45614,540.457356 L1891.22582,540.457356 L1925,574.224891 L1925,540.457356 L1891.22582,506.694323 L1925,472.929039 L1891.22582,472.929039 L1891.22582,439.161504 L1857.45614,405.398472 L1891.22582,405.398472 L1857.45614,371.633188 L1823.68421,371.633188 L1823.68421,337.865653 L1823.68421,304.10262 L1823.68421,270.337336 L1857.45614,236.569801 L1823.68421,236.569801 L1823.68421,202.806769 L1823.68421,169.041485 L1823.68421,135.27395 L1789.91003,101.510917 L1756.14035,101.510917 Z M405.263158,270.337336 L439.035088,236.569801 L439.035088,270.337336 L405.263158,304.10262 L405.263158,270.337336 Z M1182.01529,878.112445 L1215.78947,844.344911 L1249.5614,810.581878 L1249.5614,844.344911 L1215.78947,878.112445 L1182.01529,911.877729 L1148.24561,911.877729 L1182.01529,878.112445 Z M236.403509,844.344911 L236.403509,878.112445 L202.631579,844.344911 L236.403509,844.344911 Z M607.894737,945.640762 L641.666667,945.640762 L675.436345,945.640762 L709.210526,979.408297 L675.436345,979.408297 L641.666667,945.640762 L607.894737,979.408297 L607.894737,945.640762 Z M641.666667,1046.93661 L675.436345,1080.70415 L641.666667,1080.70415 L641.666667,1046.93661 Z" id="Fill-7" fill="#ECFF5C"></path>
                        <polygon id="Fill-8" fill="#ECFF5C" points="641.666667 237.432314 607.260947 271.842795 641.666667 271.842795"></polygon>
                        <polygon id="Fill-9" fill="#ECFF5C" points="270.084897 134.200873 270.084897 168.611354 304.490617 134.200873"></polygon>
                        <polygon id="Fill-10" fill="#ECFF5C" points="877.345845 371.633188 877.345845 406.043668 911.751564 406.043668"></polygon>
                        <path d="M135.902592,540.244541 L137.622878,538.524017" id="Stroke-11" stroke="#FF4A68" stroke-width="3" stroke-linecap="round" stroke-linejoin="round"></path>
                        <path d="M149.664879,526.480349 L161.706881,514.436681" id="Stroke-12" stroke="#FF4A68" stroke-width="3" stroke-linecap="round" stroke-linejoin="round" stroke-dasharray="3.643,7.285"></path>
                        <polyline id="Stroke-13" stroke="#FF4A68" stroke-width="3" stroke-linecap="round" stroke-linejoin="round" points="166.867739 509.988553 168.588025 507.554585 168.588025 510.995633"></polyline>
                        <path d="M170.308311,521.318777 L170.308311,531.641921" id="Stroke-14" stroke="#FF4A68" stroke-width="3" stroke-linecap="round" stroke-linejoin="round" stroke-dasharray="2.4,4.8"></path>
                        <polyline id="Stroke-15" stroke="#FF4A68" stroke-width="3" stroke-linecap="round" stroke-linejoin="round" points="170.308311 536.803493 170.308311 540.244541 172.028597 537.810574"></polyline>
                        <polyline id="Stroke-16" stroke="#FF4A68" stroke-width="3" stroke-linecap="round" stroke-linejoin="round" stroke-dasharray="3.202,6.403" points="182.192959 528.200873 202.993744 507.110234 202.993744 473.497869 177.189455 447.336245"></polyline>
                        <polyline id="Stroke-17" stroke="#FF4A68" stroke-width="3" stroke-linecap="round" stroke-linejoin="round" points="172.741942 442.174672 170.308311 440.454148 173.748883 440.454148"></polyline>
                        <path d="M184.070599,440.454148 L194.392315,440.454148" id="Stroke-18" stroke="#FF4A68" stroke-width="3" stroke-linecap="round" stroke-linejoin="round" stroke-dasharray="2.4,4.8"></path>
                        <polyline id="Stroke-19" stroke="#FF4A68" stroke-width="3" stroke-linecap="round" stroke-linejoin="round" points="199.553172 440.454148 202.993744 440.454148 202.993744 437.0131"></polyline>
                        <polyline id="Stroke-20" stroke="#FF4A68" stroke-width="3" stroke-linecap="round" stroke-linejoin="round" stroke-dasharray="2.911,5.823" points="202.993744 423.248908 202.993744 405.920447 202.993744 372.062571 169.448168 338.204695 135.902592 304.346818 135.902592 280.445415"></polyline>
                        <polyline id="Stroke-21" stroke="#FF4A68" stroke-width="3" stroke-linecap="round" stroke-linejoin="round" points="134.182306 273.563319 134.182306 270.122271 132.46202 272.556239"></polyline>
                        <path d="M122.140304,283.886463 L110.098302,295.930131" id="Stroke-22" stroke="#FF4A68" stroke-width="3" stroke-linecap="round" stroke-linejoin="round" stroke-dasharray="3.643,7.285"></path>
                        <path d="M104.937444,302.812227 L103.217158,304.532751" id="Stroke-23" stroke="#FF4A68" stroke-width="3" stroke-linecap="round" stroke-linejoin="round"></path>
                    </g>
                    <g id="Group" transform="translate(125.099295, 515.592947) scale(-1, 1) rotate(42.000000) translate(-125.099295, -515.592947) translate(65.599295, 474.092947)">
                        <path d="M0.09,41.672 L91.2754667,66.3834286 L97.8413333,57.7245714 C97.8413333,57.7245714 75.2872,56.8674286 68.6624,46.9022857 C65.8786667,42.7125714 3.00893333,31.0314286 0.09,41.672 Z" id="Shape" fill="#000000" fill-rule="nonzero"></path>
                        <ellipse id="Oval" stroke="#000000" stroke-width="4" cx="105.136933" cy="68.7251429" rx="13.8614667" ry="13.7091429"></ellipse>
                        <ellipse id="Oval" stroke="#000000" stroke-width="4" cx="90.9114667" cy="13.7154286" rx="13.8614667" ry="13.7091429"></ellipse>
                        <path d="M32.9176,66.3834286 L81.7941333,24.1777143 L94.9224,26.0291429 C94.9224,26.0291429 73.0390667,38.5297143 70.8498667,42.7125714 C68.6606667,46.9005714 69.0246667,51.8497143 69.0246667,51.8497143 L48.9665333,68.2057143 L32.9176,66.3834286 Z" id="Shape" fill="#000000" fill-rule="nonzero"></path>
                    </g>
                </g>
            </g>
        </g>
    </g>
</svg>