<svg width="1366" height="1879" viewBox="0 0 1366 1879" version="1.1" xmlns="http://www.w3.org/2000/svg" xmlns:xlink="http://www.w3.org/1999/xlink">
<title>6_bg_letters</title>
<desc>Created using Figma</desc>
<g id="Canvas" transform="translate(-30147 -6131)">
<g id="6_bg_letters">
<g id="&#208;&#157;">
<use xlink:href="#path0_fill" transform="translate(30146.6 6069)" fill="#FFCCD4"/>
</g>
<g id="&#208;&#178;">
<use xlink:href="#path1_fill" transform="translate(30688.4 6360.67)" fill="#FFCCD4"/>
</g>
<g id="&#208;&#176;">
<use xlink:href="#path2_fill" transform="translate(31337.6 6612.92)" fill="#FFCCD4"/>
</g>
<g id="&#208;&#144;">
<use xlink:href="#path3_fill" transform="translate(30897.2 6517.14)" fill="#FFCCD4"/>
</g>
<g id="&#208;&#175;">
<use xlink:href="#path4_fill" transform="translate(31199.7 6279.87)" fill="#FFCCD4"/>
</g>
<g id="&#208;&#158;">
<use xlink:href="#path5_fill" transform="translate(30354.4 6425.7)" fill="#FFCCD4"/>
</g>
<g id="&#208;&#158;">
<use xlink:href="#path6_fill" transform="translate(30701.2 6720.06)" fill="#FFCCD4"/>
</g>
<g id="&#208;&#158;">
<use xlink:href="#path7_fill" transform="translate(30823.3 6827.73)" fill="#FFCCD4"/>
</g>
<g id="&#209;&#143;">
<use xlink:href="#path8_fill" transform="translate(30244.1 6901.63)" fill="#FFCCD4"/>
</g>
<g id="&#208;&#182;">
<use xlink:href="#path9_fill" transform="translate(30244.1 7156.5)" fill="#FFCCD4"/>
</g>
<g id="&#208;&#157;">
<use xlink:href="#path10_fill" transform="translate(30889.3 7584.49)" fill="#FFCCD4"/>
</g>
<g id="&#208;&#172;">
<use xlink:href="#path11_fill" transform="translate(31216.4 6973.56)" fill="#FFCCD4"/>
</g>
<g id="&#208;&#144;">
<use xlink:href="#path12_fill" transform="translate(30551.5 6785)" fill="#FFCCD4"/>
</g>
<g id="&#208;&#146;">
<use xlink:href="#path13_fill" transform="translate(30331.8 6674.01)" fill="#FFCCD4"/>
</g>
<g id="&#208;&#176;">
<use xlink:href="#path14_fill" transform="translate(30432.3 6865.54)" fill="#FFCCD4"/>
</g>
<g id="&#209;&#143;">
<use xlink:href="#path15_fill" transform="translate(31230.2 6785.36)" fill="#FFCCD4"/>
</g>
<g id="&#208;&#190;">
<use xlink:href="#path16_fill" transform="translate(30915.9 6279.87)" fill="#FFCCD4"/>
</g>
<g id="&#208;&#146;">
<use xlink:href="#path17_fill" transform="translate(31376 6812.95)" fill="#FFCCD4"/>
</g>
<g id="&#208;&#189;">
<use xlink:href="#path18_fill" transform="translate(31391.7 6169.51)" fill="#FFCCD4"/>
</g>
<g id="&#208;&#157;">
<use xlink:href="#path19_fill" transform="translate(30858.8 7173.36)" fill="#FFCCD4"/>
</g>
<g id="&#208;&#150;">
<use xlink:href="#path20_fill" transform="translate(31301.1 7359.83)" fill="#FFCCD4"/>
</g>
<g id="&#209;&#143;">
<use xlink:href="#path15_fill" transform="translate(30380.1 7027.25)" fill="#FFCCD4"/>
</g>
<g id="&#208;&#150;">
<use xlink:href="#path21_fill" transform="translate(30120 7509.6)" fill="#FFCCD4"/>
</g>
<g id="&#208;&#172;">
<use xlink:href="#path22_fill" transform="translate(31115.9 7079)" fill="#FFCCD4"/>
</g>
<g id="&#208;&#151;">
<use xlink:href="#path23_fill" transform="translate(31325.7 7157.83)" fill="#FFCCD4"/>
</g>
<g id="&#208;&#172;">
<use xlink:href="#path22_fill" transform="translate(31405.5 7791.42)" fill="#FFCCD4"/>
</g>
<g id="&#208;&#151;">
<use xlink:href="#path23_fill" transform="translate(30470.7 7204.14)" fill="#FFCCD4"/>
</g>
<g id="&#208;&#157;">
<use xlink:href="#path24_fill" transform="translate(31451.8 7027.76)" fill="#FFCCD4"/>
</g>
<g id="&#208;&#152;">
<use xlink:href="#path25_fill" transform="translate(31062.7 7742.15)" fill="#FFCCD4"/>
</g>
<g id="&#208;&#152;">
<use xlink:href="#path26_fill" transform="translate(30300.3 7328.2)" fill="#FFCCD4"/>
</g>
</g>
</g>
<defs>
<path id="path0_fill" d="M 186.609 267L 137.531 267L 137.531 181.5L 64.8281 181.5L 64.8281 267L 15.4688 267L 15.4688 62.25L 64.8281 62.25L 64.8281 143.531L 137.531 143.531L 137.531 62.25L 186.609 62.25L 186.609 267Z"/>
<path id="path1_fill" d="M 8.22656 134L 8.22656 57.9219L 40.8516 57.9219C 51.3047 57.9219 59.2969 59.75 64.8281 63.4062C 70.4062 67.0625 73.1953 72.3359 73.1953 79.2266C 73.1953 82.7422 71.9766 85.9062 69.5391 88.7188C 67.1016 91.4844 63.5391 93.6172 58.8516 95.1172C 64.8984 96.1484 69.5625 98.1641 72.8438 101.164C 76.125 104.117 77.7656 107.82 77.7656 112.273C 77.7656 119.445 75.0469 124.859 69.6094 128.516C 64.2187 132.125 56.4375 133.953 46.2656 134L 8.22656 134ZM 31.9922 102.992L 31.9922 115.859L 45.8438 115.859C 48.7969 115.859 50.9062 115.344 52.1719 114.312C 53.4375 113.281 54.0703 111.711 54.0703 109.602C 54.0703 105.383 51.6328 103.18 46.7578 102.992L 31.9922 102.992ZM 31.9922 88.3672L 41.7656 88.3672C 44.625 88.3672 46.6172 87.8984 47.7422 86.9609C 48.9141 85.9766 49.5 84.5469 49.5 82.6719C 49.5 80.2344 48.7969 78.5234 47.3906 77.5391C 45.9844 76.5547 43.8047 76.0625 40.8516 76.0625L 31.9922 76.0625L 31.9922 88.3672Z"/>
<path id="path2_fill" d="M 49.5 134C 48.6562 132.453 47.9062 130.18 47.25 127.18C 42.8906 132.664 36.7969 135.406 28.9688 135.406C 21.7969 135.406 15.7031 133.25 10.6875 128.938C 5.67187 124.578 3.16406 119.117 3.16406 112.555C 3.16406 104.305 6.21094 98.0703 12.3047 93.8516C 18.3984 89.6328 27.2578 87.5234 38.8828 87.5234L 46.1953 87.5234L 46.1953 83.5156C 46.1953 76.5313 43.1719 73.0391 37.125 73.0391C 31.5 73.0391 28.6875 75.8047 28.6875 81.3359L 4.99219 81.3359C 4.99219 73.9766 8.10938 68 14.3438 63.4062C 20.625 58.8125 28.6172 56.5156 38.3203 56.5156C 48.0234 56.5156 55.6875 58.8828 61.3125 63.6172C 66.9375 68.3516 69.8203 74.8438 69.9609 83.0938L 69.9609 116.773C 70.0547 123.758 71.1328 129.102 73.1953 132.805L 73.1953 134L 49.5 134ZM 34.6641 118.531C 37.6172 118.531 40.0547 117.898 41.9766 116.633C 43.9453 115.367 45.3516 113.937 46.1953 112.344L 46.1953 100.18L 39.3047 100.18C 31.0547 100.18 26.9297 103.883 26.9297 111.289C 26.9297 113.445 27.6563 115.203 29.1094 116.562C 30.5625 117.875 32.4141 118.531 34.6641 118.531Z"/>
<path id="path3_fill" d="M 65.8828 114.875L 32.0625 114.875L 26.1562 134L -0.210938 134L 37.3359 31.625L 60.5391 31.625L 98.3672 134L 71.8594 134L 65.8828 114.875ZM 37.9688 95.8203L 59.9766 95.8203L 48.9375 60.3125L 37.9688 95.8203Z"/>
<path id="path4_fill" d="M 103.641 267L 103.641 195.141L 75.2344 195.141L 40.6406 267L -12.9375 267L 29.1094 178.406C 10.8281 166.5 1.6875 149.016 1.6875 125.953C 1.6875 105.703 8.34375 90.0469 21.6562 78.9844C 34.9688 67.8281 54.1406 62.25 79.1719 62.25L 153.141 62.25L 153.141 267L 103.641 267ZM 50.9062 130.312C 50.9062 140.719 53.0156 148.266 57.2344 152.953C 61.4531 157.641 68.5313 159.984 78.4688 159.984L 103.641 159.984L 103.641 100.359L 78.75 100.359C 68.9062 100.359 61.7813 102.938 57.375 108.094C 53.0625 113.156 50.9062 120.562 50.9062 130.312Z"/>
<path id="path5_fill" d="M 144.268 129.02C 144.268 144.273 141.439 157.773 135.781 169.518C 130.124 181.262 122.067 190.322 111.611 196.695C 101.227 202.997 89.375 206.148 76.0547 206.148C 62.7344 206.148 50.918 203.105 40.6055 197.018C 30.293 190.859 22.2363 182.086 16.4355 170.699C 10.7064 159.312 7.69857 146.243 7.41211 131.49L 7.41211 122.682C 7.41211 107.356 10.2051 93.8568 15.791 82.1836C 21.4486 70.4388 29.5052 61.3796 39.9609 55.0059C 50.4883 48.6322 62.4479 45.4453 75.8398 45.4453C 89.0885 45.4453 100.905 48.5964 111.289 54.8984C 121.673 61.2005 129.73 70.1882 135.459 81.8613C 141.26 93.4629 144.196 106.783 144.268 121.822L 144.268 129.02ZM 105.918 122.467C 105.918 106.926 103.304 95.1458 98.0762 87.125C 92.9199 79.0325 85.5078 74.9863 75.8398 74.9863C 56.9336 74.9863 46.9434 89.166 45.8691 117.525L 45.7617 129.02C 45.7617 144.345 48.304 156.126 53.3887 164.361C 58.4733 172.597 66.0286 176.715 76.0547 176.715C 85.5794 176.715 92.9199 172.669 98.0762 164.576C 103.232 156.484 105.846 144.846 105.918 129.664L 105.918 122.467Z"/>
<path id="path6_fill" d="M 41.9688 37.1875C 41.9688 41.625 41.1458 45.5521 39.5 48.9688C 37.8542 52.3854 35.5104 55.0208 32.4688 56.875C 29.4479 58.7083 26 59.625 22.125 59.625C 18.25 59.625 14.8125 58.7396 11.8125 56.9688C 8.8125 55.1771 6.46875 52.625 4.78125 49.3125C 3.11458 46 2.23958 42.1979 2.15625 37.9062L 2.15625 35.3438C 2.15625 30.8854 2.96875 26.9583 4.59375 23.5625C 6.23958 20.1458 8.58333 17.5104 11.625 15.6562C 14.6875 13.8021 18.1667 12.875 22.0625 12.875C 25.9167 12.875 29.3542 13.7917 32.375 15.625C 35.3958 17.4583 37.7396 20.0729 39.4062 23.4688C 41.0938 26.8438 41.9479 30.7188 41.9688 35.0938L 41.9688 37.1875ZM 30.8125 35.2812C 30.8125 30.7604 30.0521 27.3333 28.5312 25C 27.0312 22.6458 24.875 21.4688 22.0625 21.4688C 16.5625 21.4688 13.6562 25.5938 13.3438 33.8438L 13.3125 37.1875C 13.3125 41.6458 14.0521 45.0729 15.5312 47.4688C 17.0104 49.8646 19.2083 51.0625 22.125 51.0625C 24.8958 51.0625 27.0312 49.8854 28.5312 47.5312C 30.0312 45.1771 30.7917 41.7917 30.8125 37.375L 30.8125 35.2812Z"/>
<path id="path7_fill" d="M 23.6074 20.7305C 23.6074 23.2266 23.1445 25.4355 22.2188 27.3574C 21.293 29.2793 19.9746 30.7617 18.2637 31.8047C 16.5645 32.8359 14.625 33.3516 12.4453 33.3516C 10.2656 33.3516 8.33203 32.8535 6.64453 31.8574C 4.95703 30.8496 3.63867 29.4141 2.68945 27.5508C 1.75195 25.6875 1.25977 23.5488 1.21289 21.1348L 1.21289 19.6934C 1.21289 17.1855 1.66992 14.9766 2.58398 13.0664C 3.50977 11.1445 4.82812 9.66211 6.53906 8.61914C 8.26172 7.57617 10.2187 7.05469 12.4102 7.05469C 14.5781 7.05469 16.5117 7.57031 18.2109 8.60156C 19.9102 9.63281 21.2285 11.1035 22.166 13.0137C 23.1152 14.9121 23.5957 17.0918 23.6074 19.5527L 23.6074 20.7305ZM 17.332 19.6582C 17.332 17.1152 16.9043 15.1875 16.0488 13.875C 15.2051 12.5508 13.9922 11.8887 12.4102 11.8887C 9.31641 11.8887 7.68164 14.209 7.50586 18.8496L 7.48828 20.7305C 7.48828 23.2383 7.9043 25.166 8.73633 26.5137C 9.56836 27.8613 10.8047 28.5352 12.4453 28.5352C 14.0039 28.5352 15.2051 27.873 16.0488 26.5488C 16.8926 25.2246 17.3203 23.3203 17.332 20.8359L 17.332 19.6582Z"/>
<path id="path8_fill" d="M 18.2109 13.9805L 18.2109 33L 12.3047 33L 12.3047 26.707L 10.0195 26.707L 6.66211 33L 0.755859 33L 4.6582 25.7051C 3.52148 25.166 2.64258 24.4512 2.02148 23.5605C 1.41211 22.6699 1.10742 21.6621 1.10742 20.5371C 1.10742 18.6035 1.88086 17.0391 3.42773 15.8438C 4.97461 14.6367 6.99023 14.0156 9.47461 13.9805L 18.2109 13.9805ZM 7.03125 20.748C 7.03125 21.3223 7.26563 21.8203 7.73438 22.2422C 8.21484 22.6523 8.83008 22.8691 9.58008 22.8926L 12.3047 22.8926L 12.3047 18.5156L 9.66797 18.5156C 8.89453 18.5156 8.26172 18.7324 7.76953 19.166C 7.27734 19.5996 7.03125 20.127 7.03125 20.748Z"/>
<path id="path9_fill" d="M 38.2812 47.1875L 34.2812 47.1875L 34.2812 59L 23.75 59L 23.75 47.1875L 19.8438 47.1875L 14.0625 59L 1.5625 59L 11.625 40.9062L 1.15625 25.1875L 14.3125 25.1875L 20.7188 37.3438L 23.75 37.3438L 23.75 25.1875L 34.2812 25.1875L 34.2812 37.3438L 37.4062 37.3438L 43.8438 25.1875L 57 25.1875L 46.4688 40.9688L 46.7812 40.8125L 56.9062 59L 44.0312 59L 38.2812 47.1875Z"/>
<path id="path10_fill" d="M 41.4688 59L 30.5625 59L 30.5625 40L 14.4062 40L 14.4062 59L 3.4375 59L 3.4375 13.5L 14.4062 13.5L 14.4062 31.5625L 30.5625 31.5625L 30.5625 13.5L 41.4688 13.5L 41.4688 59Z"/>
<path id="path11_fill" d="M 14.4688 29.1562L 20.125 29.1562C 23.7292 29.1562 26.9167 29.7708 29.6875 31C 32.4583 32.2292 34.5833 33.9688 36.0625 36.2188C 37.5625 38.4479 38.3125 41.0104 38.3125 43.9062C 38.3125 48.3854 36.6458 52.0208 33.3125 54.8125C 30 57.6042 25.5417 59 19.9375 59L 3.46875 59L 3.46875 13.5L 14.4688 13.5L 14.4688 29.1562ZM 14.4688 37.5938L 14.4688 50.5625L 20.0938 50.5625C 22.3229 50.5625 24.0833 49.9375 25.375 48.6875C 26.6875 47.4375 27.3438 45.8229 27.3438 43.8438C 27.3438 41.9688 26.6979 40.4583 25.4062 39.3125C 24.1146 38.1667 22.3229 37.5938 20.0312 37.5938L 14.4688 37.5938Z"/>
<path id="path12_fill" d="M 29.2812 50.5L 14.25 50.5L 11.625 59L -0.09375 59L 16.5938 13.5L 26.9062 13.5L 43.7188 59L 31.9375 59L 29.2812 50.5ZM 16.875 42.0312L 26.6562 42.0312L 21.75 26.25L 16.875 42.0312Z"/>
<path id="path13_fill" d="M 5.15625 89L 5.15625 20.75L 29.6719 20.75C 38.4531 20.75 45.125 22.3594 49.6875 25.5781C 54.2812 28.7969 56.5781 33.4688 56.5781 39.5938C 56.5781 43.125 55.7656 46.1406 54.1406 48.6406C 52.5156 51.1406 50.125 52.9844 46.9688 54.1719C 50.5312 55.1094 53.2656 56.8594 55.1719 59.4219C 57.0781 61.9844 58.0312 65.1094 58.0312 68.7969C 58.0312 75.4844 55.9062 80.5156 51.6562 83.8906C 47.4375 87.2344 41.1719 88.9375 32.8594 89L 5.15625 89ZM 21.6094 59.9844L 21.6094 76.3438L 32.3906 76.3438C 35.3594 76.3438 37.6406 75.6719 39.2344 74.3281C 40.8281 72.9531 41.625 71.0312 41.625 68.5625C 41.625 62.875 38.7969 60.0156 33.1406 59.9844L 21.6094 59.9844ZM 21.6094 49.2031L 30.1875 49.2031C 33.7813 49.1719 36.3437 48.5156 37.875 47.2344C 39.4063 45.9531 40.1719 44.0625 40.1719 41.5625C 40.1719 38.6875 39.3437 36.625 37.6875 35.375C 36.0313 34.0937 33.3594 33.4531 29.6719 33.4531L 21.6094 33.4531L 21.6094 49.2031Z"/>
<path id="path14_fill" d="M 33 89C 32.4375 87.9688 31.9375 86.4531 31.5 84.4531C 28.5938 88.1094 24.5312 89.9375 19.3125 89.9375C 14.5312 89.9375 10.4687 88.5 7.125 85.625C 3.78125 82.7188 2.10938 79.0781 2.10938 74.7031C 2.10938 69.2031 4.14063 65.0469 8.20312 62.2344C 12.2656 59.4219 18.1719 58.0156 25.9219 58.0156L 30.7969 58.0156L 30.7969 55.3438C 30.7969 50.6875 28.7812 48.3594 24.75 48.3594C 21 48.3594 19.125 50.2031 19.125 53.8906L 3.32812 53.8906C 3.32812 48.9844 5.40625 45 9.5625 41.9375C 13.75 38.875 19.0781 37.3438 25.5469 37.3438C 32.0156 37.3438 37.125 38.9219 40.875 42.0781C 44.625 45.2344 46.5469 49.5625 46.6406 55.0625L 46.6406 77.5156C 46.7031 82.1719 47.4219 85.7344 48.7969 88.2031L 48.7969 89L 33 89ZM 23.1094 78.6875C 25.0781 78.6875 26.7031 78.2656 27.9844 77.4219C 29.2969 76.5781 30.2344 75.625 30.7969 74.5625L 30.7969 66.4531L 26.2031 66.4531C 20.7031 66.4531 17.9531 68.9219 17.9531 73.8594C 17.9531 75.2969 18.4375 76.4687 19.4062 77.375C 20.375 78.25 21.6094 78.6875 23.1094 78.6875Z"/>
<path id="path15_fill" d="M 32.375 25.1875L 32.375 59L 21.875 59L 21.875 47.8125L 17.8125 47.8125L 11.8438 59L 1.34375 59L 8.28125 46.0312C 6.26042 45.0729 4.69792 43.8021 3.59375 42.2188C 2.51042 40.6354 1.96875 38.8438 1.96875 36.8438C 1.96875 33.4062 3.34375 30.625 6.09375 28.5C 8.84375 26.3542 12.4271 25.25 16.8438 25.1875L 32.375 25.1875ZM 12.5 37.2188C 12.5 38.2396 12.9167 39.125 13.75 39.875C 14.6042 40.6042 15.6979 40.9896 17.0312 41.0312L 21.875 41.0312L 21.875 33.25L 17.1875 33.25C 15.8125 33.25 14.6875 33.6354 13.8125 34.4062C 12.9375 35.1771 12.5 36.1146 12.5 37.2188Z"/>
<path id="path16_fill" d="M 2.4375 63.1719C 2.4375 58.1094 3.42188 53.6094 5.39062 49.6719C 7.35938 45.7031 10.1875 42.6562 13.875 40.5312C 17.5625 38.4062 21.8906 37.3438 26.8594 37.3438C 34.4531 37.3438 40.4375 39.7031 44.8125 44.4219C 49.1875 49.1094 51.375 55.5 51.375 63.5938L 51.375 64.1562C 51.375 72.0625 49.1719 78.3438 44.7656 83C 40.3906 87.625 34.4531 89.9375 26.9531 89.9375C 19.7344 89.9375 13.9375 87.7812 9.5625 83.4688C 5.1875 79.125 2.82812 73.25 2.48438 65.8438L 2.4375 63.1719ZM 18.2344 64.1562C 18.2344 68.8438 18.9687 72.2813 20.4375 74.4688C 21.9063 76.6562 24.0781 77.75 26.9531 77.75C 32.5781 77.75 35.4531 73.4219 35.5781 64.7656L 35.5781 63.1719C 35.5781 54.0781 32.6719 49.5312 26.8594 49.5312C 21.5781 49.5312 18.7188 53.4531 18.2812 61.2969L 18.2344 64.1562Z"/>
<path id="path17_fill" d="M 3.4375 59L 3.4375 13.5L 19.7812 13.5C 25.6354 13.5 30.0833 14.5729 33.125 16.7188C 36.1875 18.8646 37.7188 21.9792 37.7188 26.0625C 37.7188 28.4167 37.1771 30.4271 36.0938 32.0938C 35.0104 33.7604 33.4167 34.9896 31.3125 35.7812C 33.6875 36.4062 35.5104 37.5729 36.7812 39.2812C 38.0521 40.9896 38.6875 43.0729 38.6875 45.5312C 38.6875 49.9896 37.2708 53.3438 34.4375 55.5938C 31.625 57.8229 27.4479 58.9583 21.9062 59L 3.4375 59ZM 14.4062 39.6562L 14.4062 50.5625L 21.5938 50.5625C 23.5729 50.5625 25.0938 50.1146 26.1562 49.2188C 27.2188 48.3021 27.75 47.0208 27.75 45.375C 27.75 41.5833 25.8646 39.6771 22.0938 39.6562L 14.4062 39.6562ZM 14.4062 32.4688L 20.125 32.4688C 22.5208 32.4479 24.2292 32.0104 25.25 31.1562C 26.2708 30.3021 26.7812 29.0417 26.7812 27.375C 26.7812 25.4583 26.2292 24.0833 25.125 23.25C 24.0208 22.3958 22.2396 21.9688 19.7812 21.9688L 14.4062 21.9688L 14.4062 32.4688Z"/>
<path id="path18_fill" d="M 33.0625 59L 22.5 59L 22.5 46.4688L 13.2812 46.4688L 13.2812 59L 2.75 59L 2.75 25.1875L 13.2812 25.1875L 13.2812 38.375L 22.5 38.375L 22.5 25.1875L 33.0625 25.1875L 33.0625 59Z"/>
<path id="path19_fill" d="M 93.3047 134L 68.7656 134L 68.7656 91.25L 32.4141 91.25L 32.4141 134L 7.73438 134L 7.73438 31.625L 32.4141 31.625L 32.4141 72.2656L 68.7656 72.2656L 68.7656 31.625L 93.3047 31.625L 93.3047 134Z"/>
<path id="path20_fill" d="M 154.15 142.877L 135.029 142.877L 135.029 204L 97.5391 204L 97.5391 142.877L 78.0957 142.877L 48.0176 204L 1.18164 204L 48.3398 118.6L 2.57812 47.5938L 50.166 47.5938L 82.1777 108.932L 97.5391 108.932L 97.5391 47.5938L 135.029 47.5938L 135.029 108.932L 150.283 108.932L 180.898 47.5938L 228.379 47.5938L 183.799 118.385L 229.99 204L 182.939 204L 154.15 142.877Z"/>
<path id="path21_fill" d="M 201.797 186.984L 176.766 186.984L 176.766 267L 127.688 267L 127.688 186.984L 102.234 186.984L 62.8594 267L 1.54688 267L 63.2812 155.203L 3.375 62.25L 65.6719 62.25L 107.578 142.547L 127.688 142.547L 127.688 62.25L 176.766 62.25L 176.766 142.547L 196.734 142.547L 236.812 62.25L 298.969 62.25L 240.609 154.922L 301.078 267L 239.484 267L 201.797 186.984Z"/>
<path id="path22_fill" d="M 21.7031 44.2344L 30.1875 44.2344C 35.5937 44.2344 40.375 45.1563 44.5312 47C 48.6875 48.8437 51.875 51.4531 54.0938 54.8281C 56.3438 58.1719 57.4688 62.0156 57.4688 66.3594C 57.4688 73.0781 54.9687 78.5313 49.9688 82.7188C 45 86.9062 38.3125 89 29.9062 89L 5.20312 89L 5.20312 20.75L 21.7031 20.75L 21.7031 44.2344ZM 21.7031 56.8906L 21.7031 76.3438L 30.1406 76.3438C 33.4844 76.3438 36.125 75.4062 38.0625 73.5312C 40.0312 71.6562 41.0156 69.2344 41.0156 66.2656C 41.0156 63.4531 40.0469 61.1875 38.1094 59.4688C 36.1719 57.75 33.4844 56.8906 30.0469 56.8906L 21.7031 56.8906Z"/>
<path id="path23_fill" d="M 38.3906 39.6875C 38.3906 37.5312 37.5469 35.7969 35.8594 34.4844C 34.2031 33.1719 31.9531 32.5156 29.1094 32.5156C 26.4531 32.5156 24.3125 33.1562 22.6875 34.4375C 21.0938 35.6875 20.2969 37.3438 20.2969 39.4062L 3.89062 39.4062C 3.89062 35.6562 4.95312 32.2969 7.07812 29.3281C 9.23438 26.3594 12.2656 24.0469 16.1719 22.3906C 20.0781 20.7031 24.3906 19.8594 29.1094 19.8594C 37.2344 19.8594 43.5469 21.5625 48.0469 24.9688C 52.5781 28.375 54.8438 33.1406 54.8438 39.2656C 54.8438 42.3906 53.9219 45.25 52.0781 47.8438C 50.2656 50.4063 47.75 52.4375 44.5312 53.9375C 48.2187 55.25 51.0312 57.25 52.9688 59.9375C 54.9375 62.5938 55.9219 65.9063 55.9219 69.875C 55.9219 76 53.4844 80.875 48.6094 84.5C 43.7344 88.0937 37.2344 89.8906 29.1094 89.8906C 21.5781 89.8906 15.3281 88.125 10.3594 84.5938C 5.39062 81.0312 2.90625 76.1875 2.90625 70.0625L 19.4062 70.0625C 19.4062 72.0938 20.3125 73.8125 22.125 75.2188C 23.9375 76.5938 26.2656 77.2812 29.1094 77.2812C 32.1719 77.2812 34.6562 76.5625 36.5625 75.125C 38.4688 73.6875 39.4219 71.8125 39.4219 69.5C 39.4219 66.125 38.6094 63.75 36.9844 62.375C 35.3594 60.9688 32.9844 60.2656 29.8594 60.2656L 21.0938 60.2656L 21.0938 48.0781L 30.4219 48.0781C 35.7344 47.9219 38.3906 45.125 38.3906 39.6875Z"/>
<path id="path24_fill" d="M 23.3262 33L 17.1914 33L 17.1914 22.3125L 8.10352 22.3125L 8.10352 33L 1.93359 33L 1.93359 7.40625L 8.10352 7.40625L 8.10352 17.5664L 17.1914 17.5664L 17.1914 7.40625L 23.3262 7.40625L 23.3262 33Z"/>
<path id="path25_fill" d="M 135.562 62.25L 184.922 62.25L 184.922 267L 135.562 267L 135.562 137.906L 62.0156 267L 12.6562 267L 12.6562 62.25L 62.0156 62.25L 62.0156 191.484L 135.562 62.25Z"/>
<path id="path26_fill" d="M 67.7812 31.625L 92.4609 31.625L 92.4609 134L 67.7812 134L 67.7812 69.4531L 31.0078 134L 6.32812 134L 6.32812 31.625L 31.0078 31.625L 31.0078 96.2422L 67.7812 31.625Z"/>
</defs>
</svg>
