<?xml version="1.0" encoding="UTF-8"?>
<svg width="517px" height="534px" viewBox="0 0 517 534" version="1.1" xmlns="http://www.w3.org/2000/svg" xmlns:xlink="http://www.w3.org/1999/xlink">
    <!-- Generator: Sketch 47.1 (45422) - http://www.bohemiancoding.com/sketch -->
    <title>5_triangle_pattern</title>
    <desc>Created with Sketch.</desc>
    <defs></defs>
    <g id="-" stroke="none" stroke-width="1" fill="none" fill-rule="evenodd" opacity="0.592561141">
        <g id="1-1-Desktop-#5" transform="translate(-716.000000, -1753.000000)" fill="#FFFFFF">
            <g id="Group-9" transform="translate(654.000000, 1717.000000)">
                <g id="Group-5">
                    <g id="Group-35-Copy-2" transform="translate(320.500000, 303.000000) scale(1, -1) translate(-320.500000, -303.000000) translate(60.000000, 36.000000)">
                        <polygon id="Rectangle-5-Copy-2" transform="translate(103.000000, 32.000000) scale(-1, 1) rotate(-188.000000) translate(-103.000000, -32.000000) " points="110 25 110 39 96 39"></polygon>
                        <polygon id="Rectangle-5-Copy-39" transform="translate(98.000000, 225.000000) scale(-1, 1) rotate(-188.000000) translate(-98.000000, -225.000000) " points="105 218 105 232 91 232"></polygon>
                        <polygon id="Rectangle-5-Copy-23" transform="translate(43.000000, 215.000000) scale(-1, -1) rotate(-188.000000) translate(-43.000000, -215.000000) " points="50 208 50 222 36 222"></polygon>
                        <polygon id="Rectangle-5-Copy-40" transform="translate(39.000000, 407.000000) scale(-1, -1) rotate(-188.000000) translate(-39.000000, -407.000000) " points="46 400 46 414 32 414"></polygon>
                        <polygon id="Rectangle-5-Copy-15" transform="translate(275.000000, 8.000000) rotate(-188.000000) translate(-275.000000, -8.000000) " points="282 1 282 15 268 15"></polygon>
                        <polygon id="Rectangle-5-Copy-24" transform="translate(216.000000, 190.000000) scale(1, -1) rotate(-188.000000) translate(-216.000000, -190.000000) " points="223 183 223 197 209 197"></polygon>
                        <polygon id="Rectangle-5-Copy-42" transform="translate(211.000000, 382.000000) scale(1, -1) rotate(-188.000000) translate(-211.000000, -382.000000) " points="218 375 218 389 204 389"></polygon>
                        <polygon id="Rectangle-5-Copy-11" transform="translate(18.000000, 60.000000) scale(-1, -1) rotate(-188.000000) translate(-18.000000, -60.000000) " points="25 53 25 67 11 67"></polygon>
                        <polygon id="Rectangle-5-Copy-43" transform="translate(8.000000, 288.000000) scale(-1, -1) rotate(-188.000000) translate(-8.000000, -288.000000) " points="15 281 15 295 1 295"></polygon>
                        <polygon id="Rectangle-5-Copy-25" transform="translate(435.000000, 208.000000) scale(1, -1) rotate(-188.000000) translate(-435.000000, -208.000000) " points="442 201 442 215 428 215"></polygon>
                        <polygon id="Rectangle-5-Copy-44" transform="translate(431.000000, 400.000000) scale(1, -1) rotate(-188.000000) translate(-431.000000, -400.000000) " points="438 393 438 407 424 407"></polygon>
                        <polygon id="Rectangle-5-Copy-16" transform="translate(190.000000, 35.000000) scale(1, -1) rotate(-188.000000) translate(-190.000000, -35.000000) " points="197 28 197 42 183 42"></polygon>
                        <polygon id="Rectangle-5-Copy-45" transform="translate(186.000000, 228.000000) scale(1, -1) rotate(-188.000000) translate(-186.000000, -228.000000) " points="193 221 193 235 179 235"></polygon>
                        <polygon id="Rectangle-5-Copy-46" transform="translate(126.000000, 410.000000) scale(1, -1) rotate(-188.000000) translate(-126.000000, -410.000000) " points="133 403 133 417 119 417"></polygon>
                        <polygon id="Rectangle-5-Copy-5" transform="translate(148.000000, 131.000000) scale(-1, -1) rotate(-188.000000) translate(-148.000000, -131.000000) " points="155 124 155 138 141 138"></polygon>
                        <polygon id="Rectangle-5-Copy-47" transform="translate(144.000000, 323.000000) scale(-1, -1) rotate(-188.000000) translate(-144.000000, -323.000000) " points="151 316 151 330 137 330"></polygon>
                        <polygon id="Rectangle-5-Copy-48" transform="translate(51.000000, 489.000000) scale(-1, -1) rotate(-188.000000) translate(-51.000000, -489.000000) " points="58 482 58 496 44 496"></polygon>
                        <polygon id="Rectangle-5-Copy-17" transform="translate(320.000000, 106.000000) scale(1, -1) rotate(-188.000000) translate(-320.000000, -106.000000) " points="327 99 327 113 313 113"></polygon>
                        <polygon id="Rectangle-5-Copy-49" transform="translate(316.000000, 298.000000) scale(1, -1) rotate(-188.000000) translate(-316.000000, -298.000000) " points="323 291 323 305 309 305"></polygon>
                        <polygon id="Rectangle-5-Copy-28" transform="translate(183.000000, 280.000000) scale(1, -1) rotate(-188.000000) translate(-183.000000, -280.000000) " points="190 273 190 287 176 287"></polygon>
                        <polygon id="Rectangle-5-Copy-50" transform="translate(257.000000, 481.000000) scale(1, -1) rotate(-188.000000) translate(-257.000000, -481.000000) " points="264 474 264 488 250 488"></polygon>
                        <polygon id="Rectangle-5-Copy-12" transform="translate(63.000000, 158.000000) scale(-1, -1) rotate(-188.000000) translate(-63.000000, -158.000000) " points="70 151 70 165 56 165"></polygon>
                        <polygon id="Rectangle-5-Copy-51" transform="translate(59.000000, 350.000000) scale(-1, -1) rotate(-188.000000) translate(-59.000000, -350.000000) " points="66 343 66 357 52 357"></polygon>
                        <polygon id="Rectangle-5-Copy-29" transform="translate(446.000000, 288.000000) scale(1, -1) rotate(-188.000000) translate(-446.000000, -288.000000) " points="453 281 453 295 439 295"></polygon>
                        <polygon id="Rectangle-5-Copy-52" transform="translate(441.000000, 481.000000) scale(1, -1) rotate(-188.000000) translate(-441.000000, -481.000000) " points="448 474 448 488 434 488"></polygon>
                        <polygon id="Rectangle-5-Copy-18" transform="translate(236.000000, 133.000000) scale(1, -1) rotate(-188.000000) translate(-236.000000, -133.000000) " points="243 126 243 140 229 140"></polygon>
                        <polygon id="Rectangle-5-Copy-53" transform="translate(232.000000, 325.000000) scale(1, -1) rotate(-188.000000) translate(-232.000000, -325.000000) " points="239 318 239 332 225 332"></polygon>
                        <polygon id="Rectangle-5-Copy-54" transform="translate(172.000000, 508.000000) scale(1, -1) rotate(-188.000000) translate(-172.000000, -508.000000) " points="179 501 179 515 165 515"></polygon>
                        <polygon id="Rectangle-5-Copy-9" transform="translate(263.000000, 61.000000) scale(-1, -1) rotate(-188.000000) translate(-263.000000, -61.000000) " points="270 54 270 68 256 68"></polygon>
                        <polygon id="Rectangle-5-Copy-55" transform="translate(259.000000, 254.000000) scale(-1, -1) rotate(-188.000000) translate(-259.000000, -254.000000) " points="266 247 266 261 252 261"></polygon>
                        <polygon id="Rectangle-5-Copy-56" transform="translate(199.000000, 435.000000) scale(-1, -1) rotate(-188.000000) translate(-199.000000, -435.000000) " points="206 428 206 442 192 442"></polygon>
                        <polygon id="Rectangle-5-Copy-19" transform="translate(435.000000, 36.000000) scale(1, -1) rotate(-188.000000) translate(-435.000000, -36.000000) " points="442 29 442 43 428 43"></polygon>
                        <polygon id="Rectangle-5-Copy-32" transform="translate(375.000000, 218.000000) scale(1, -1) rotate(-188.000000) translate(-375.000000, -218.000000) " points="382 211 382 225 368 225"></polygon>
                        <polygon id="Rectangle-5-Copy-58" transform="translate(371.000000, 410.000000) scale(1, -1) rotate(-188.000000) translate(-371.000000, -410.000000) " points="378 403 378 417 364 417"></polygon>
                        <polygon id="Rectangle-5-Copy-13" transform="translate(178.000000, 88.000000) scale(-1, -1) rotate(-188.000000) translate(-178.000000, -88.000000) " points="185 81 185 95 171 95"></polygon>
                        <polygon id="Rectangle-5-Copy-60" transform="translate(114.000000, 462.000000) scale(-1, -1) rotate(-188.000000) translate(-114.000000, -462.000000) " points="121 455 121 469 107 469"></polygon>
                        <polygon id="Rectangle-5-Copy-20" transform="translate(350.000000, 63.000000) scale(1, -1) rotate(-188.000000) translate(-350.000000, -63.000000) " points="357 56 357 70 343 70"></polygon>
                        <polygon id="Rectangle-5-Copy-61" transform="translate(346.000000, 256.000000) scale(1, -1) rotate(-188.000000) translate(-346.000000, -256.000000) " points="353 249 353 263 339 263"></polygon>
                        <polygon id="Rectangle-5-Copy-62" transform="translate(286.000000, 438.000000) scale(1, -1) rotate(-188.000000) translate(-286.000000, -438.000000) " points="293 431 293 445 279 445"></polygon>
                        <polygon id="Rectangle-5-Copy-10" transform="translate(380.000000, 149.000000) scale(-1, 1) rotate(-188.000000) translate(-380.000000, -149.000000) " points="387 142 387 156 373 156"></polygon>
                        <polygon id="Rectangle-5-Copy-63" transform="translate(375.000000, 341.000000) scale(-1, 1) rotate(-188.000000) translate(-375.000000, -341.000000) " points="382 334 382 348 368 348"></polygon>
                        <polygon id="Rectangle-5-Copy-64" transform="translate(316.000000, 524.000000) scale(-1, -1) rotate(-188.000000) translate(-316.000000, -524.000000) " points="323 517 323 531 309 531"></polygon>
                        <polygon id="Rectangle-5-Copy-21" transform="translate(96.000000, 96.000000) rotate(-188.000000) translate(-96.000000, -96.000000) " points="103 89 103 103 89 103"></polygon>
                        <polygon id="Rectangle-5-Copy-65" transform="translate(91.000000, 288.000000) rotate(-188.000000) translate(-91.000000, -288.000000) " points="98 281 98 295 84 295"></polygon>
                        <polygon id="Rectangle-5-Copy-36" transform="translate(513.000000, 244.000000) scale(1, -1) rotate(-188.000000) translate(-513.000000, -244.000000) " points="520 237 520 251 506 251"></polygon>
                        <polygon id="Rectangle-5-Copy-66" transform="translate(509.000000, 436.000000) scale(1, -1) rotate(-188.000000) translate(-509.000000, -436.000000) " points="516 429 516 443 502 443"></polygon>
                        <polygon id="Rectangle-5-Copy-14" transform="translate(295.000000, 176.000000) scale(-1, -1) rotate(-188.000000) translate(-295.000000, -176.000000) " points="302 169 302 183 288 183"></polygon>
                        <polygon id="Rectangle-5-Copy-67" transform="translate(290.000000, 368.000000) scale(-1, -1) rotate(-188.000000) translate(-290.000000, -368.000000) " points="297 361 297 375 283 375"></polygon>
                        <polygon id="Rectangle-5-Copy-68" transform="translate(350.000000, 471.000000) scale(-1, -1) rotate(-188.000000) translate(-350.000000, -471.000000) " points="357 464 357 478 343 478"></polygon>
                        <polygon id="Rectangle-5-Copy-22" transform="translate(468.000000, 152.000000) scale(1, -1) rotate(-188.000000) translate(-468.000000, -152.000000) " points="475 145 475 159 461 159"></polygon>
                        <polygon id="Rectangle-5-Copy-69" transform="translate(463.000000, 344.000000) scale(1, -1) rotate(-188.000000) translate(-463.000000, -344.000000) " points="470 337 470 351 456 351"></polygon>
                        <polygon id="Rectangle-5-Copy-70" transform="translate(404.000000, 526.000000) scale(1, -1) rotate(-188.000000) translate(-404.000000, -526.000000) " points="411 519 411 533 397 533"></polygon>
                    </g>
                </g>
            </g>
        </g>
    </g>
</svg>