<?xml version="1.0" encoding="UTF-8"?>
<svg width="998px" height="775px" viewBox="0 0 998 775" version="1.1" xmlns="http://www.w3.org/2000/svg" xmlns:xlink="http://www.w3.org/1999/xlink">
    <!-- Generator: Sketch 47.1 (45422) - http://www.bohemiancoding.com/sketch -->
    <title>4_question_char</title>
    <desc>Created with Sketch.</desc>
    <defs>
        <polygon id="path-1" points="0 35 0 0 44 0 44 35 44 70 0 70"></polygon>
        <polygon id="path-3" points="0 25.5 0 0 32 0 32 25.5 32 51 0 51"></polygon>
        <polygon id="path-5" points="0 25.5 0 0 32 0 32 25.5 32 51 0 51"></polygon>
        <polygon id="path-7" points="0 25.5 0 0 32 0 32 25.5 32 51 0 51"></polygon>
        <polygon id="path-9" points="0 25.5 0 0 32 0 32 25.5 32 51 0 51"></polygon>
        <polygon id="path-11" points="0 48 0 0 60 0 60 48 60 96 0 96"></polygon>
        <polygon id="path-13" points="0 45 0 0 56 0 56 45 56 90 0 90"></polygon>
        <polygon id="path-15" points="0 21 0 0 26 0 26 21 26 42 0 42"></polygon>
        <polygon id="path-17" points="0 21 0 0 26 0 26 21 26 42 0 42"></polygon>
        <polygon id="path-19" points="0 21 0 0 26 0 26 21 26 42 0 42"></polygon>
    </defs>
    <g id="-" stroke="none" stroke-width="1" fill="none" fill-rule="evenodd">
        <g id="1-1-Desktop-#4" transform="translate(-97.000000, -587.000000)">
            <g id="Group-5" transform="translate(97.000000, 587.000000)">
                <g id="Page-1" transform="translate(132.000000, 159.000000)">
                    <mask id="mask-2" fill="white">
                        <use xlink:href="#path-1"></use>
                    </mask>
                    <g id="Clip-2"></g>
                    <path d="M16.3819919,59.2670952 C17.6409163,58.0012293 19.1044224,57.367778 20.7725101,57.367778 C22.4405978,57.367778 23.9041038,58.0012293 25.1635435,59.2670952 C26.4219526,60.5334795 27.0516724,62.0139516 27.0516724,63.7074749 C27.0516724,65.4015166 26.4219526,66.8736948 25.1635435,68.1245279 C23.9041038,69.3748426 22.4405978,70 20.7725101,70 C19.1044224,70 17.6409163,69.3748426 16.3819919,68.1245279 C15.1230676,66.8736948 14.4933477,65.4015166 14.4933477,63.7074749 C14.4933477,62.0139516 15.1230676,60.5334795 16.3819919,59.2670952 M17.7511946,39.4403797 C18.9472501,37.2715088 20.3947812,35.4908989 22.0943034,34.0975133 C23.7938255,32.7046461 25.5015928,31.3278485 27.2165745,29.9660836 C28.9320716,28.6048372 30.3801181,27.0455724 31.5601986,25.2882892 C32.7402792,23.5315245 33.3308348,21.5917742 33.3308348,19.4711118 C33.3308348,16.7481005 32.2996814,14.4444527 30.2384053,12.5606866 C28.1766139,10.6774389 25.5093226,9.73503754 22.2360161,9.73503754 C20.1587651,9.73503754 18.2706362,10.0756083 16.571114,10.7562316 C14.8710765,11.4368548 13.5492832,12.243961 12.6052188,13.1785868 C11.6611543,14.1126942 10.8897217,15.0540589 10.2919517,16.0037175 C9.69366626,16.9538945 9.28501827,17.7770702 9.06446173,18.4737629 L8.68673288,19.4711118 L0,16.0514078 C0.126253162,15.6081992 0.299400356,15.0224381 0.519441582,14.2941246 C0.739998126,13.5663295 1.41609669,12.2838756 2.54928324,10.4472815 C3.68246978,8.61120573 4.98880352,6.99647507 6.46776914,5.60360787 C7.94725007,4.21074068 10.08737,2.92828685 12.8886442,1.75728314 C15.6894032,0.585761045 18.8055373,0 22.2360161,0 C28.5620725,0 33.7714326,1.81223063 37.8625504,5.43721027 C41.9541835,9.0621899 44,13.4077075 44,18.4737629 C44,22.0510523 43.3548206,25.114116 42.0644617,27.6624358 C40.7741029,30.2112739 39.2080483,32.2375924 37.3668135,33.7413913 C35.5255786,35.2451902 33.6688841,36.6624209 31.7962147,37.9920467 C29.9235454,39.321154 28.3420313,40.991869 27.0516724,43.0021179 C25.7613136,45.0123669 25.1161342,47.3787378 25.1161342,50.1017491 L25.1161342,51.0514078 L16.4294013,51.0514078 C16.1145414,49.4366771 15.9568537,47.9805684 15.9568537,46.6825634 C15.9568537,44.023312 16.5551391,41.6092507 17.7511946,39.4403797" id="Fill-1" fill="#FFFFFF" mask="url(#mask-2)"></path>
                </g>
                <g id="Page-1-Copy" transform="translate(144.000000, 368.000000)">
                    <mask id="mask-4" fill="white">
                        <use xlink:href="#path-3"></use>
                    </mask>
                    <g id="Clip-2"></g>
                    <path d="M11.914176,43.1803122 C12.8297573,42.2580385 13.8941254,41.7965239 15.1072801,41.7965239 C16.3204347,41.7965239 17.3848028,42.2580385 18.3007589,43.1803122 C19.2159655,44.1029636 19.6739436,45.1815933 19.6739436,46.415446 C19.6739436,47.6496764 19.2159655,48.7222634 18.3007589,49.6335846 C17.3848028,50.5445282 16.3204347,51 15.1072801,51 C13.8941254,51 12.8297573,50.5445282 11.914176,49.6335846 C10.9985946,48.7222634 10.5406165,47.6496764 10.5406165,46.415446 C10.5406165,45.1815933 10.9985946,44.1029636 11.914176,43.1803122 M12.9099597,28.7351338 C13.7798182,27.1549564 14.8325682,25.8576549 16.0685843,24.842474 C17.3046004,23.8276707 18.5466129,22.8245753 19.7938724,21.8324324 C21.0415066,20.8406671 22.0946313,19.7046313 22.9528717,18.424325 C23.8111122,17.1443964 24.2406071,15.7311498 24.2406071,14.1860958 C24.2406071,12.2021875 23.4906774,10.5238155 21.9915675,9.1513574 C20.4920828,7.77927694 18.5522346,7.09267021 16.1716481,7.09267021 C14.6609201,7.09267021 13.2877354,7.34080037 12.0517193,7.83668301 C10.8153284,8.33256565 9.85402417,8.92060013 9.16743184,9.60154179 C8.4808395,10.2821058 7.91979762,10.9679572 7.48505575,11.6598513 C7.0499391,12.3521231 6.75274056,12.9518654 6.5923358,13.4594559 L6.31762391,14.1860958 L0,11.6945971 C0.0918204816,11.371688 0.217745713,10.9449192 0.377775696,10.4142908 C0.538180455,9.88404005 1.0298885,8.94968083 1.85402417,7.61159081 C2.67815984,6.27387846 3.62822074,5.09743183 4.7038321,4.08262859 C5.77981823,3.06782535 7.33626909,2.13346614 9.37355945,1.28030628 C11.410475,0.426768761 13.6767544,0 16.1716481,0 C20.7724164,0 24.5610419,1.32033946 27.5364003,3.96139605 C30.5121334,6.60245264 32,9.76847258 32,13.4594559 C32,16.0657667 31.5307786,18.2974274 30.5923358,20.1540603 C29.653893,22.011071 28.5149443,23.4873887 27.1758643,24.5830137 C25.8367844,25.6786386 24.4864612,26.7111924 23.1245198,27.6799197 C21.7625785,28.6482694 20.6123864,29.8655045 19.6739436,31.3301145 C18.7355008,32.7947244 18.2662794,34.5187947 18.2662794,36.5027029 L18.2662794,37.1945971 L11.9486555,37.1945971 C11.7196664,36.0181504 11.6049845,34.9572713 11.6049845,34.0115819 C11.6049845,32.0741273 12.0401012,30.3153112 12.9099597,28.7351338" id="Fill-1" fill="#FFFFFF" mask="url(#mask-4)"></path>
                </g>
                <g id="Page-1-Copy-4" transform="translate(32.000000, 653.000000)">
                    <mask id="mask-6" fill="white">
                        <use xlink:href="#path-5"></use>
                    </mask>
                    <g id="Clip-2"></g>
                    <path d="M11.914176,43.1803122 C12.8297573,42.2580385 13.8941254,41.7965239 15.1072801,41.7965239 C16.3204347,41.7965239 17.3848028,42.2580385 18.3007589,43.1803122 C19.2159655,44.1029636 19.6739436,45.1815933 19.6739436,46.415446 C19.6739436,47.6496764 19.2159655,48.7222634 18.3007589,49.6335846 C17.3848028,50.5445282 16.3204347,51 15.1072801,51 C13.8941254,51 12.8297573,50.5445282 11.914176,49.6335846 C10.9985946,48.7222634 10.5406165,47.6496764 10.5406165,46.415446 C10.5406165,45.1815933 10.9985946,44.1029636 11.914176,43.1803122 M12.9099597,28.7351338 C13.7798182,27.1549564 14.8325682,25.8576549 16.0685843,24.842474 C17.3046004,23.8276707 18.5466129,22.8245753 19.7938724,21.8324324 C21.0415066,20.8406671 22.0946313,19.7046313 22.9528717,18.424325 C23.8111122,17.1443964 24.2406071,15.7311498 24.2406071,14.1860958 C24.2406071,12.2021875 23.4906774,10.5238155 21.9915675,9.1513574 C20.4920828,7.77927694 18.5522346,7.09267021 16.1716481,7.09267021 C14.6609201,7.09267021 13.2877354,7.34080037 12.0517193,7.83668301 C10.8153284,8.33256565 9.85402417,8.92060013 9.16743184,9.60154179 C8.4808395,10.2821058 7.91979762,10.9679572 7.48505575,11.6598513 C7.0499391,12.3521231 6.75274056,12.9518654 6.5923358,13.4594559 L6.31762391,14.1860958 L0,11.6945971 C0.0918204816,11.371688 0.217745713,10.9449192 0.377775696,10.4142908 C0.538180455,9.88404005 1.0298885,8.94968083 1.85402417,7.61159081 C2.67815984,6.27387846 3.62822074,5.09743183 4.7038321,4.08262859 C5.77981823,3.06782535 7.33626909,2.13346614 9.37355945,1.28030628 C11.410475,0.426768761 13.6767544,0 16.1716481,0 C20.7724164,0 24.5610419,1.32033946 27.5364003,3.96139605 C30.5121334,6.60245264 32,9.76847258 32,13.4594559 C32,16.0657667 31.5307786,18.2974274 30.5923358,20.1540603 C29.653893,22.011071 28.5149443,23.4873887 27.1758643,24.5830137 C25.8367844,25.6786386 24.4864612,26.7111924 23.1245198,27.6799197 C21.7625785,28.6482694 20.6123864,29.8655045 19.6739436,31.3301145 C18.7355008,32.7947244 18.2662794,34.5187947 18.2662794,36.5027029 L18.2662794,37.1945971 L11.9486555,37.1945971 C11.7196664,36.0181504 11.6049845,34.9572713 11.6049845,34.0115819 C11.6049845,32.0741273 12.0401012,30.3153112 12.9099597,28.7351338" id="Fill-1" fill="#FFFFFF" mask="url(#mask-6)"></path>
                </g>
                <g id="Page-1-Copy-9" transform="translate(756.000000, 394.000000)">
                    <mask id="mask-8" fill="white">
                        <use xlink:href="#path-7"></use>
                    </mask>
                    <g id="Clip-2"></g>
                    <path d="M11.914176,43.1803122 C12.8297573,42.2580385 13.8941254,41.7965239 15.1072801,41.7965239 C16.3204347,41.7965239 17.3848028,42.2580385 18.3007589,43.1803122 C19.2159655,44.1029636 19.6739436,45.1815933 19.6739436,46.415446 C19.6739436,47.6496764 19.2159655,48.7222634 18.3007589,49.6335846 C17.3848028,50.5445282 16.3204347,51 15.1072801,51 C13.8941254,51 12.8297573,50.5445282 11.914176,49.6335846 C10.9985946,48.7222634 10.5406165,47.6496764 10.5406165,46.415446 C10.5406165,45.1815933 10.9985946,44.1029636 11.914176,43.1803122 M12.9099597,28.7351338 C13.7798182,27.1549564 14.8325682,25.8576549 16.0685843,24.842474 C17.3046004,23.8276707 18.5466129,22.8245753 19.7938724,21.8324324 C21.0415066,20.8406671 22.0946313,19.7046313 22.9528717,18.424325 C23.8111122,17.1443964 24.2406071,15.7311498 24.2406071,14.1860958 C24.2406071,12.2021875 23.4906774,10.5238155 21.9915675,9.1513574 C20.4920828,7.77927694 18.5522346,7.09267021 16.1716481,7.09267021 C14.6609201,7.09267021 13.2877354,7.34080037 12.0517193,7.83668301 C10.8153284,8.33256565 9.85402417,8.92060013 9.16743184,9.60154179 C8.4808395,10.2821058 7.91979762,10.9679572 7.48505575,11.6598513 C7.0499391,12.3521231 6.75274056,12.9518654 6.5923358,13.4594559 L6.31762391,14.1860958 L0,11.6945971 C0.0918204816,11.371688 0.217745713,10.9449192 0.377775696,10.4142908 C0.538180455,9.88404005 1.0298885,8.94968083 1.85402417,7.61159081 C2.67815984,6.27387846 3.62822074,5.09743183 4.7038321,4.08262859 C5.77981823,3.06782535 7.33626909,2.13346614 9.37355945,1.28030628 C11.410475,0.426768761 13.6767544,0 16.1716481,0 C20.7724164,0 24.5610419,1.32033946 27.5364003,3.96139605 C30.5121334,6.60245264 32,9.76847258 32,13.4594559 C32,16.0657667 31.5307786,18.2974274 30.5923358,20.1540603 C29.653893,22.011071 28.5149443,23.4873887 27.1758643,24.5830137 C25.8367844,25.6786386 24.4864612,26.7111924 23.1245198,27.6799197 C21.7625785,28.6482694 20.6123864,29.8655045 19.6739436,31.3301145 C18.7355008,32.7947244 18.2662794,34.5187947 18.2662794,36.5027029 L18.2662794,37.1945971 L11.9486555,37.1945971 C11.7196664,36.0181504 11.6049845,34.9572713 11.6049845,34.0115819 C11.6049845,32.0741273 12.0401012,30.3153112 12.9099597,28.7351338" id="Fill-1" fill="#FFFFFF" mask="url(#mask-8)"></path>
                </g>
                <g id="Page-1-Copy-8" transform="translate(0.000000, 58.000000)">
                    <mask id="mask-10" fill="white">
                        <use xlink:href="#path-9"></use>
                    </mask>
                    <g id="Clip-2"></g>
                    <path d="M11.914176,43.1803122 C12.8297573,42.2580385 13.8941254,41.7965239 15.1072801,41.7965239 C16.3204347,41.7965239 17.3848028,42.2580385 18.3007589,43.1803122 C19.2159655,44.1029636 19.6739436,45.1815933 19.6739436,46.415446 C19.6739436,47.6496764 19.2159655,48.7222634 18.3007589,49.6335846 C17.3848028,50.5445282 16.3204347,51 15.1072801,51 C13.8941254,51 12.8297573,50.5445282 11.914176,49.6335846 C10.9985946,48.7222634 10.5406165,47.6496764 10.5406165,46.415446 C10.5406165,45.1815933 10.9985946,44.1029636 11.914176,43.1803122 M12.9099597,28.7351338 C13.7798182,27.1549564 14.8325682,25.8576549 16.0685843,24.842474 C17.3046004,23.8276707 18.5466129,22.8245753 19.7938724,21.8324324 C21.0415066,20.8406671 22.0946313,19.7046313 22.9528717,18.424325 C23.8111122,17.1443964 24.2406071,15.7311498 24.2406071,14.1860958 C24.2406071,12.2021875 23.4906774,10.5238155 21.9915675,9.1513574 C20.4920828,7.77927694 18.5522346,7.09267021 16.1716481,7.09267021 C14.6609201,7.09267021 13.2877354,7.34080037 12.0517193,7.83668301 C10.8153284,8.33256565 9.85402417,8.92060013 9.16743184,9.60154179 C8.4808395,10.2821058 7.91979762,10.9679572 7.48505575,11.6598513 C7.0499391,12.3521231 6.75274056,12.9518654 6.5923358,13.4594559 L6.31762391,14.1860958 L0,11.6945971 C0.0918204816,11.371688 0.217745713,10.9449192 0.377775696,10.4142908 C0.538180455,9.88404005 1.0298885,8.94968083 1.85402417,7.61159081 C2.67815984,6.27387846 3.62822074,5.09743183 4.7038321,4.08262859 C5.77981823,3.06782535 7.33626909,2.13346614 9.37355945,1.28030628 C11.410475,0.426768761 13.6767544,0 16.1716481,0 C20.7724164,0 24.5610419,1.32033946 27.5364003,3.96139605 C30.5121334,6.60245264 32,9.76847258 32,13.4594559 C32,16.0657667 31.5307786,18.2974274 30.5923358,20.1540603 C29.653893,22.011071 28.5149443,23.4873887 27.1758643,24.5830137 C25.8367844,25.6786386 24.4864612,26.7111924 23.1245198,27.6799197 C21.7625785,28.6482694 20.6123864,29.8655045 19.6739436,31.3301145 C18.7355008,32.7947244 18.2662794,34.5187947 18.2662794,36.5027029 L18.2662794,37.1945971 L11.9486555,37.1945971 C11.7196664,36.0181504 11.6049845,34.9572713 11.6049845,34.0115819 C11.6049845,32.0741273 12.0401012,30.3153112 12.9099597,28.7351338" id="Fill-1" fill="#FFFFFF" mask="url(#mask-10)"></path>
                </g>
                <g id="Page-1-Copy-3" transform="translate(938.000000, 679.000000)">
                    <mask id="mask-12" fill="white">
                        <use xlink:href="#path-11"></use>
                    </mask>
                    <g id="Clip-2"></g>
                    <path d="M22.3390799,81.2805877 C24.055795,79.544543 26.0514851,78.6758098 28.3261501,78.6758098 C30.6008151,78.6758098 32.5965052,79.544543 34.313923,81.2805877 C36.0299354,83.0173433 36.8886442,85.0477051 36.8886442,87.3702513 C36.8886442,89.6935085 36.0299354,91.7124957 34.313923,93.427924 C32.5965052,95.1426413 30.6008151,96 28.3261501,96 C26.0514851,96 24.055795,95.1426413 22.3390799,93.427924 C20.6223648,91.7124957 19.763656,89.6935085 19.763656,87.3702513 C19.763656,85.0477051 20.6223648,83.0173433 22.3390799,81.2805877 M24.2061745,54.0896637 C25.8371592,51.115212 27.8110653,48.6732327 30.1285955,46.7623039 C32.4461257,44.8520861 34.7748993,42.9639065 37.1135107,41.0963433 C39.4528249,39.229491 41.4274337,37.0910707 43.0366345,34.6810824 C44.6458353,32.271805 45.4511384,29.611576 45.4511384,26.7032391 C45.4511384,22.9688236 44.0450201,19.8095351 41.2341891,17.2260845 C38.4226553,14.6433448 34.7854399,13.3509086 30.3218402,13.3509086 C27.4892251,13.3509086 24.9145039,13.8179772 22.5969737,14.7514033 C20.2787407,15.6848295 18.4762953,16.7917179 17.1889347,18.0734904 C15.9015741,19.3545521 14.8496205,20.6455664 14.0344795,21.9479554 C13.2186358,23.2510553 12.6613886,24.3799819 12.3606296,25.3354463 L11.8455448,26.7032391 L0,22.0133592 C0.172163403,21.4055303 0.408273213,20.6022009 0.708329429,19.6033709 C1.00908835,18.6052519 1.93104094,16.846458 3.47629532,14.3277004 C5.0215497,11.8096536 6.80291389,9.59516581 8.81968519,7.68494794 C10.8371592,5.77473008 13.7555045,4.01593625 17.575424,2.4099883 C21.3946407,0.803329433 25.6439146,0 30.3218402,0 C38.9482807,0 46.0519535,2.48534487 51.6307505,7.45674551 C57.2102502,12.4281462 60,18.3877131 60,25.3354463 C60,30.2414431 59.1202099,34.4422163 57.3606296,37.9370548 C55.6010494,41.4326042 53.4655205,44.2115553 50.9547456,46.2739081 C48.4439708,48.3362609 45.9121147,50.2798916 43.3584747,52.1033783 C40.8048346,53.9261541 38.6482245,56.2174203 36.8886442,58.9743332 C35.129064,61.731246 34.2492739,64.9765547 34.2492739,68.7109702 L34.2492739,70.0133592 L22.403729,70.0133592 C21.9743746,67.7988714 21.759346,65.8019224 21.759346,64.0218013 C21.759346,60.3748278 22.5751897,57.0641153 24.2061745,54.0896637" id="Fill-1" fill="#FFFFFF" mask="url(#mask-12)"></path>
                </g>
                <g id="Page-1-Copy-2" transform="translate(48.000000, 211.000000)">
                    <mask id="mask-14" fill="white">
                        <use xlink:href="#path-13"></use>
                    </mask>
                    <g id="Clip-2"></g>
                    <path d="M20.8498079,76.200551 C22.4520753,74.5730091 24.3147194,73.7585717 26.4377401,73.7585717 C28.5607608,73.7585717 30.4234049,74.5730091 32.0263281,76.200551 C33.6279397,77.8287593 34.4294013,79.7322235 34.4294013,81.9096106 C34.4294013,84.0876642 33.6279397,85.9804648 32.0263281,87.5886787 C30.4234049,89.1962262 28.5607608,90 26.4377401,90 C24.3147194,90 22.4520753,89.1962262 20.8498079,87.5886787 C19.2475405,85.9804648 18.4460789,84.0876642 18.4460789,81.9096106 C18.4460789,79.7322235 19.2475405,77.8287593 20.8498079,76.200551 M22.5924295,50.7090597 C24.1146819,47.9205113 25.9569943,45.6311557 28.1200225,43.8396599 C30.2830507,42.0488307 32.4565727,40.2786623 34.6392767,38.5278218 C36.8226366,36.7776478 38.6656048,34.7728787 40.1675255,32.5135147 C41.6694463,30.2548172 42.4210625,27.7608525 42.4210625,25.0342866 C42.4210625,21.5332721 41.1086855,18.5714392 38.4852431,16.1494542 C35.8611449,13.7281358 32.4664106,12.5164768 28.3003841,12.5164768 C25.6566101,12.5164768 23.253537,12.9543536 21.0905088,13.8294406 C18.9268247,14.7045276 17.2445423,15.7422355 16.0430057,16.9438973 C14.8414691,18.1448925 13.8596458,19.3552185 13.0988476,20.5762082 C12.3373934,21.7978643 11.817296,22.8562331 11.5365877,23.7519809 L11.0558418,25.0342866 L0,20.6375243 C0.160685843,20.0676847 0.381054999,19.3145633 0.661107467,18.3781602 C0.941815797,17.4424236 1.80230488,15.7935544 3.2445423,13.4322191 C4.68677972,11.0715502 6.3493863,8.99546794 8.23170617,7.20463869 C10.1146819,5.41380945 12.8384709,3.76494024 16.403729,2.25936403 C19.9683313,0.753121344 23.9343202,0 28.3003841,0 C36.3517287,0 42.9818233,2.33001081 48.1887005,6.99069891 C53.3962335,11.651387 56,17.238481 56,23.7519809 C56,28.351353 55.1788626,32.2895777 53.5365877,35.5659888 C51.8943128,38.8430664 49.9011524,41.4483331 47.5577626,43.3817888 C45.2143727,45.3152446 42.851307,47.1373984 40.4679097,48.8469172 C38.0845123,50.5557695 36.0716762,52.7038315 34.4294013,55.2884373 C32.7871264,57.8730431 31.9659889,60.9155201 31.9659889,64.4165346 L31.9659889,65.6375243 L20.9101471,65.6375243 C20.5094163,63.561442 20.3087229,61.6893023 20.3087229,60.0204387 C20.3087229,56.6014011 21.0701771,53.4976081 22.5924295,50.7090597" id="Fill-1" fill="#FFFFFF" mask="url(#mask-14)"></path>
                </g>
                <g id="Page-1-Copy-5" transform="translate(672.000000, 611.000000)">
                    <mask id="mask-16" fill="white">
                        <use xlink:href="#path-15"></use>
                    </mask>
                    <g id="Clip-2"></g>
                    <path d="M9.68026797,35.5602571 C10.4241778,34.8007376 11.2889769,34.4206668 12.274665,34.4206668 C13.2603532,34.4206668 14.1251523,34.8007376 14.8693666,35.5602571 C15.612972,36.3200877 15.9850792,37.208371 15.9850792,38.224485 C15.9850792,39.24091 15.612972,40.1242169 14.8693666,40.8747167 C14.1251523,41.6249056 13.2603532,42 12.274665,42 C11.2889769,42 10.4241778,41.6249056 9.68026797,40.8747167 C8.9363581,40.1242169 8.56425091,39.24091 8.56425091,38.224485 C8.56425091,37.208371 8.9363581,36.3200877 9.68026797,35.5602571 M10.4893423,23.6642278 C11.1961023,22.3629053 12.0514616,21.2945393 13.0557247,20.458508 C14.0599878,19.6227877 15.069123,18.7967091 16.0825213,17.9796502 C17.0962241,17.1629023 17.9518879,16.2273434 18.6492083,15.1729735 C19.3465286,14.1189147 19.6954933,12.9550645 19.6954933,11.6826671 C19.6954933,10.0488603 19.0861754,8.6666716 17.8681486,7.53641197 C16.6498173,6.40646337 15.0736906,5.84102253 13.1394641,5.84102253 C11.9119976,5.84102253 10.796285,6.04536501 9.79202192,6.45373895 C8.78745432,6.86211289 8.00639464,7.34637658 7.44853837,7.90715206 C6.8906821,8.46761652 6.43483557,9.03243531 6.0816078,9.60223048 C5.72807552,10.1723367 5.48660171,10.6662421 5.35627284,11.0842578 L5.13306943,11.6826671 L0,9.63084465 C0.0746041413,9.3649195 0.176918392,9.01346288 0.306942753,8.57647477 C0.43727162,8.13979769 0.836784409,7.37032539 1.50639464,6.2683689 C2.17600487,5.16672344 2.94792935,4.19788504 3.82186358,3.36216472 C4.69610231,2.52644441 5.96071864,1.75697211 7.61601705,1.05436988 C9.27101096,0.351456627 11.112363,0 13.1394641,0 C16.8775883,0 19.9558465,1.08733838 22.3733252,3.26232616 C24.7911084,5.43731394 26,8.04462448 26,11.0842578 C26,13.2306314 25.6187576,15.0684696 24.8562728,16.5974615 C24.0937881,18.1267643 23.1683922,19.3425554 22.0803898,20.2448348 C20.9923873,21.1471141 19.8952497,21.9974526 18.7886724,22.795228 C17.682095,23.5926924 16.7475639,24.5951214 15.9850792,25.8012708 C15.2225944,27.0074201 14.841352,28.4272427 14.841352,30.0610495 L14.841352,30.6308447 L9.70828258,30.6308447 C9.52222899,29.6620063 9.42904994,28.7883411 9.42904994,28.0095381 C9.42904994,26.4139872 9.78258222,24.9655504 10.4893423,23.6642278" id="Fill-1" fill="#FFFFFF" mask="url(#mask-16)"></path>
                </g>
                <g id="Page-1-Copy-6" transform="translate(573.000000, 88.000000)">
                    <mask id="mask-18" fill="white">
                        <use xlink:href="#path-17"></use>
                    </mask>
                    <g id="Clip-2"></g>
                    <path d="M9.68026797,35.5602571 C10.4241778,34.8007376 11.2889769,34.4206668 12.274665,34.4206668 C13.2603532,34.4206668 14.1251523,34.8007376 14.8693666,35.5602571 C15.612972,36.3200877 15.9850792,37.208371 15.9850792,38.224485 C15.9850792,39.24091 15.612972,40.1242169 14.8693666,40.8747167 C14.1251523,41.6249056 13.2603532,42 12.274665,42 C11.2889769,42 10.4241778,41.6249056 9.68026797,40.8747167 C8.9363581,40.1242169 8.56425091,39.24091 8.56425091,38.224485 C8.56425091,37.208371 8.9363581,36.3200877 9.68026797,35.5602571 M10.4893423,23.6642278 C11.1961023,22.3629053 12.0514616,21.2945393 13.0557247,20.458508 C14.0599878,19.6227877 15.069123,18.7967091 16.0825213,17.9796502 C17.0962241,17.1629023 17.9518879,16.2273434 18.6492083,15.1729735 C19.3465286,14.1189147 19.6954933,12.9550645 19.6954933,11.6826671 C19.6954933,10.0488603 19.0861754,8.6666716 17.8681486,7.53641197 C16.6498173,6.40646337 15.0736906,5.84102253 13.1394641,5.84102253 C11.9119976,5.84102253 10.796285,6.04536501 9.79202192,6.45373895 C8.78745432,6.86211289 8.00639464,7.34637658 7.44853837,7.90715206 C6.8906821,8.46761652 6.43483557,9.03243531 6.0816078,9.60223048 C5.72807552,10.1723367 5.48660171,10.6662421 5.35627284,11.0842578 L5.13306943,11.6826671 L0,9.63084465 C0.0746041413,9.3649195 0.176918392,9.01346288 0.306942753,8.57647477 C0.43727162,8.13979769 0.836784409,7.37032539 1.50639464,6.2683689 C2.17600487,5.16672344 2.94792935,4.19788504 3.82186358,3.36216472 C4.69610231,2.52644441 5.96071864,1.75697211 7.61601705,1.05436988 C9.27101096,0.351456627 11.112363,0 13.1394641,0 C16.8775883,0 19.9558465,1.08733838 22.3733252,3.26232616 C24.7911084,5.43731394 26,8.04462448 26,11.0842578 C26,13.2306314 25.6187576,15.0684696 24.8562728,16.5974615 C24.0937881,18.1267643 23.1683922,19.3425554 22.0803898,20.2448348 C20.9923873,21.1471141 19.8952497,21.9974526 18.7886724,22.795228 C17.682095,23.5926924 16.7475639,24.5951214 15.9850792,25.8012708 C15.2225944,27.0074201 14.841352,28.4272427 14.841352,30.0610495 L14.841352,30.6308447 L9.70828258,30.6308447 C9.52222899,29.6620063 9.42904994,28.7883411 9.42904994,28.0095381 C9.42904994,26.4139872 9.78258222,24.9655504 10.4893423,23.6642278" id="Fill-1" fill="#FFFFFF" mask="url(#mask-18)"></path>
                </g>
                <g id="Page-1-Copy-7" transform="translate(728.000000, 0.000000)">
                    <mask id="mask-20" fill="white">
                        <use xlink:href="#path-19"></use>
                    </mask>
                    <g id="Clip-2"></g>
                    <path d="M9.68026797,35.5602571 C10.4241778,34.8007376 11.2889769,34.4206668 12.274665,34.4206668 C13.2603532,34.4206668 14.1251523,34.8007376 14.8693666,35.5602571 C15.612972,36.3200877 15.9850792,37.208371 15.9850792,38.224485 C15.9850792,39.24091 15.612972,40.1242169 14.8693666,40.8747167 C14.1251523,41.6249056 13.2603532,42 12.274665,42 C11.2889769,42 10.4241778,41.6249056 9.68026797,40.8747167 C8.9363581,40.1242169 8.56425091,39.24091 8.56425091,38.224485 C8.56425091,37.208371 8.9363581,36.3200877 9.68026797,35.5602571 M10.4893423,23.6642278 C11.1961023,22.3629053 12.0514616,21.2945393 13.0557247,20.458508 C14.0599878,19.6227877 15.069123,18.7967091 16.0825213,17.9796502 C17.0962241,17.1629023 17.9518879,16.2273434 18.6492083,15.1729735 C19.3465286,14.1189147 19.6954933,12.9550645 19.6954933,11.6826671 C19.6954933,10.0488603 19.0861754,8.6666716 17.8681486,7.53641197 C16.6498173,6.40646337 15.0736906,5.84102253 13.1394641,5.84102253 C11.9119976,5.84102253 10.796285,6.04536501 9.79202192,6.45373895 C8.78745432,6.86211289 8.00639464,7.34637658 7.44853837,7.90715206 C6.8906821,8.46761652 6.43483557,9.03243531 6.0816078,9.60223048 C5.72807552,10.1723367 5.48660171,10.6662421 5.35627284,11.0842578 L5.13306943,11.6826671 L0,9.63084465 C0.0746041413,9.3649195 0.176918392,9.01346288 0.306942753,8.57647477 C0.43727162,8.13979769 0.836784409,7.37032539 1.50639464,6.2683689 C2.17600487,5.16672344 2.94792935,4.19788504 3.82186358,3.36216472 C4.69610231,2.52644441 5.96071864,1.75697211 7.61601705,1.05436988 C9.27101096,0.351456627 11.112363,0 13.1394641,0 C16.8775883,0 19.9558465,1.08733838 22.3733252,3.26232616 C24.7911084,5.43731394 26,8.04462448 26,11.0842578 C26,13.2306314 25.6187576,15.0684696 24.8562728,16.5974615 C24.0937881,18.1267643 23.1683922,19.3425554 22.0803898,20.2448348 C20.9923873,21.1471141 19.8952497,21.9974526 18.7886724,22.795228 C17.682095,23.5926924 16.7475639,24.5951214 15.9850792,25.8012708 C15.2225944,27.0074201 14.841352,28.4272427 14.841352,30.0610495 L14.841352,30.6308447 L9.70828258,30.6308447 C9.52222899,29.6620063 9.42904994,28.7883411 9.42904994,28.0095381 C9.42904994,26.4139872 9.78258222,24.9655504 10.4893423,23.6642278" id="Fill-1" fill="#FFFFFF" mask="url(#mask-20)"></path>
                </g>
            </g>
        </g>
    </g>
</svg>