<?xml version="1.0" encoding="UTF-8"?>
<svg width="220px" height="223px" viewBox="0 0 220 223" version="1.1" xmlns="http://www.w3.org/2000/svg" xmlns:xlink="http://www.w3.org/1999/xlink">
    <!-- Generator: Sketch 47.1 (45422) - http://www.bohemiancoding.com/sketch -->
    <title>crowns</title>
    <desc>Created with Sketch.</desc>
    <defs></defs>
    <g id="Page-1" stroke="none" stroke-width="1" fill="none" fill-rule="evenodd">
        <g id="8_Boldyrev_desktop" transform="translate(-590.000000, -1385.000000)" fill-rule="nonzero" fill="#FF4A68">
            <g id="crowns" transform="translate(585.000000, 1380.000000)">
                <g id="crown" transform="translate(122.500000, 13.500000) rotate(-30.000000) translate(-122.500000, -13.500000) translate(112.000000, 4.000000)">
                    <path d="M11.1140065,5.11210448 L11.1140065,3.36872411 L13.3490602,3.36872411 L13.3490602,2.19315241 L11.1140065,2.19315241 L11.1140065,0 L9.91585011,0 L9.91585011,2.19315241 L7.68056365,2.19315241 L7.68056365,3.36872411 L9.91585011,3.36872411 L9.91585011,5.1146159 C2.55983559,2.35844935 -1.92725881,8.5022898 0.810652961,12.8264941 C1.47732959,13.879463 1.90898235,14.8018381 2.18798593,15.6290077 L18.7415783,15.6290077 C19.0282609,14.8018381 19.4648003,13.9196457 20.1314769,12.8666768 C22.8686906,8.54384234 18.382527,2.36438542 11.1140065,5.11210448 Z" id="Shape"></path>
                    <path d="M18.4923404,17.1414924 C18.5120549,16.6374004 18.5602976,16.38525 18.6440264,16.38525 L2.2985786,16.38525 C2.37674098,16.38525 2.41918525,16.6374004 2.4331014,17.1414924 L18.4923404,17.1414924 Z" id="Shape"></path>
                    <path d="M2.27235191,17.6456539 C2.18597746,18.6539352 2.04318098,18.9060577 2.04318098,18.9060577 L10.4340415,18.9060577 L18.6440264,18.9060577 C18.6440264,18.9060577 18.5112141,18.6539352 18.4383066,17.6456539 L2.27235191,17.6456539 Z" id="Shape"></path>
                </g>
                <g id="crown-copy" transform="translate(80.500000, 101.500000) rotate(-30.000000) translate(-80.500000, -101.500000) translate(70.000000, 92.000000)">
                    <path d="M11.1140065,5.11210448 L11.1140065,3.36872411 L13.3490602,3.36872411 L13.3490602,2.19315241 L11.1140065,2.19315241 L11.1140065,0 L9.91585011,0 L9.91585011,2.19315241 L7.68056365,2.19315241 L7.68056365,3.36872411 L9.91585011,3.36872411 L9.91585011,5.1146159 C2.55983559,2.35844935 -1.92725881,8.5022898 0.810652961,12.8264941 C1.47732959,13.879463 1.90898235,14.8018381 2.18798593,15.6290077 L18.7415783,15.6290077 C19.0282609,14.8018381 19.4648003,13.9196457 20.1314769,12.8666768 C22.8686906,8.54384234 18.382527,2.36438542 11.1140065,5.11210448 Z" id="Shape"></path>
                    <path d="M18.4923404,17.1414924 C18.5120549,16.6374004 18.5602976,16.38525 18.6440264,16.38525 L2.2985786,16.38525 C2.37674098,16.38525 2.41918525,16.6374004 2.4331014,17.1414924 L18.4923404,17.1414924 Z" id="Shape"></path>
                    <path d="M2.27235191,17.6456539 C2.18597746,18.6539352 2.04318098,18.9060577 2.04318098,18.9060577 L10.4340415,18.9060577 L18.6440264,18.9060577 C18.6440264,18.9060577 18.5112141,18.6539352 18.4383066,17.6456539 L2.27235191,17.6456539 Z" id="Shape"></path>
                </g>
                <g id="crown-copy-2" transform="translate(128.500000, 178.500000) rotate(-30.000000) translate(-128.500000, -178.500000) translate(118.000000, 169.000000)">
                    <path d="M11.1140065,5.11210448 L11.1140065,3.36872411 L13.3490602,3.36872411 L13.3490602,2.19315241 L11.1140065,2.19315241 L11.1140065,0 L9.91585011,0 L9.91585011,2.19315241 L7.68056365,2.19315241 L7.68056365,3.36872411 L9.91585011,3.36872411 L9.91585011,5.1146159 C2.55983559,2.35844935 -1.92725881,8.5022898 0.810652961,12.8264941 C1.47732959,13.879463 1.90898235,14.8018381 2.18798593,15.6290077 L18.7415783,15.6290077 C19.0282609,14.8018381 19.4648003,13.9196457 20.1314769,12.8666768 C22.8686906,8.54384234 18.382527,2.36438542 11.1140065,5.11210448 Z" id="Shape"></path>
                    <path d="M18.4923404,17.1414924 C18.5120549,16.6374004 18.5602976,16.38525 18.6440264,16.38525 L2.2985786,16.38525 C2.37674098,16.38525 2.41918525,16.6374004 2.4331014,17.1414924 L18.4923404,17.1414924 Z" id="Shape"></path>
                    <path d="M2.27235191,17.6456539 C2.18597746,18.6539352 2.04318098,18.9060577 2.04318098,18.9060577 L10.4340415,18.9060577 L18.6440264,18.9060577 C18.6440264,18.9060577 18.5112141,18.6539352 18.4383066,17.6456539 L2.27235191,17.6456539 Z" id="Shape"></path>
                </g>
                <g id="crown-copy-3" transform="translate(212.500000, 81.500000) rotate(-30.000000) translate(-212.500000, -81.500000) translate(202.000000, 72.000000)">
                    <path d="M11.1140065,5.11210448 L11.1140065,3.36872411 L13.3490602,3.36872411 L13.3490602,2.19315241 L11.1140065,2.19315241 L11.1140065,0 L9.91585011,0 L9.91585011,2.19315241 L7.68056365,2.19315241 L7.68056365,3.36872411 L9.91585011,3.36872411 L9.91585011,5.1146159 C2.55983559,2.35844935 -1.92725881,8.5022898 0.810652961,12.8264941 C1.47732959,13.879463 1.90898235,14.8018381 2.18798593,15.6290077 L18.7415783,15.6290077 C19.0282609,14.8018381 19.4648003,13.9196457 20.1314769,12.8666768 C22.8686906,8.54384234 18.382527,2.36438542 11.1140065,5.11210448 Z" id="Shape"></path>
                    <path d="M18.4923404,17.1414924 C18.5120549,16.6374004 18.5602976,16.38525 18.6440264,16.38525 L2.2985786,16.38525 C2.37674098,16.38525 2.41918525,16.6374004 2.4331014,17.1414924 L18.4923404,17.1414924 Z" id="Shape"></path>
                    <path d="M2.27235191,17.6456539 C2.18597746,18.6539352 2.04318098,18.9060577 2.04318098,18.9060577 L10.4340415,18.9060577 L18.6440264,18.9060577 C18.6440264,18.9060577 18.5112141,18.6539352 18.4383066,17.6456539 L2.27235191,17.6456539 Z" id="Shape"></path>
                </g>
                <g id="crown-copy-4" transform="translate(14.500000, 151.500000) rotate(-30.000000) translate(-14.500000, -151.500000) translate(4.000000, 142.000000)">
                    <path d="M11.1140065,5.11210448 L11.1140065,3.36872411 L13.3490602,3.36872411 L13.3490602,2.19315241 L11.1140065,2.19315241 L11.1140065,0 L9.91585011,0 L9.91585011,2.19315241 L7.68056365,2.19315241 L7.68056365,3.36872411 L9.91585011,3.36872411 L9.91585011,5.1146159 C2.55983559,2.35844935 -1.92725881,8.5022898 0.810652961,12.8264941 C1.47732959,13.879463 1.90898235,14.8018381 2.18798593,15.6290077 L18.7415783,15.6290077 C19.0282609,14.8018381 19.4648003,13.9196457 20.1314769,12.8666768 C22.8686906,8.54384234 18.382527,2.36438542 11.1140065,5.11210448 Z" id="Shape"></path>
                    <path d="M18.4923404,17.1414924 C18.5120549,16.6374004 18.5602976,16.38525 18.6440264,16.38525 L2.2985786,16.38525 C2.37674098,16.38525 2.41918525,16.6374004 2.4331014,17.1414924 L18.4923404,17.1414924 Z" id="Shape"></path>
                    <path d="M2.27235191,17.6456539 C2.18597746,18.6539352 2.04318098,18.9060577 2.04318098,18.9060577 L10.4340415,18.9060577 L18.6440264,18.9060577 C18.6440264,18.9060577 18.5112141,18.6539352 18.4383066,17.6456539 L2.27235191,17.6456539 Z" id="Shape"></path>
                </g>
                <g id="crown-copy-5" transform="translate(151.500000, 77.500000) rotate(-30.000000) translate(-151.500000, -77.500000) translate(141.000000, 68.000000)">
                    <path d="M11.1140065,5.11210448 L11.1140065,3.36872411 L13.3490602,3.36872411 L13.3490602,2.19315241 L11.1140065,2.19315241 L11.1140065,0 L9.91585011,0 L9.91585011,2.19315241 L7.68056365,2.19315241 L7.68056365,3.36872411 L9.91585011,3.36872411 L9.91585011,5.1146159 C2.55983559,2.35844935 -1.92725881,8.5022898 0.810652961,12.8264941 C1.47732959,13.879463 1.90898235,14.8018381 2.18798593,15.6290077 L18.7415783,15.6290077 C19.0282609,14.8018381 19.4648003,13.9196457 20.1314769,12.8666768 C22.8686906,8.54384234 18.382527,2.36438542 11.1140065,5.11210448 Z" id="Shape"></path>
                    <path d="M18.4923404,17.1414924 C18.5120549,16.6374004 18.5602976,16.38525 18.6440264,16.38525 L2.2985786,16.38525 C2.37674098,16.38525 2.41918525,16.6374004 2.4331014,17.1414924 L18.4923404,17.1414924 Z" id="Shape"></path>
                    <path d="M2.27235191,17.6456539 C2.18597746,18.6539352 2.04318098,18.9060577 2.04318098,18.9060577 L10.4340415,18.9060577 L18.6440264,18.9060577 C18.6440264,18.9060577 18.5112141,18.6539352 18.4383066,17.6456539 L2.27235191,17.6456539 Z" id="Shape"></path>
                </g>
                <g id="crown-copy-6" transform="translate(63.500000, 22.500000) rotate(-210.000000) translate(-63.500000, -22.500000) translate(53.000000, 13.000000)">
                    <path d="M11.1140065,5.11210448 L11.1140065,3.36872411 L13.3490602,3.36872411 L13.3490602,2.19315241 L11.1140065,2.19315241 L11.1140065,0 L9.91585011,0 L9.91585011,2.19315241 L7.68056365,2.19315241 L7.68056365,3.36872411 L9.91585011,3.36872411 L9.91585011,5.1146159 C2.55983559,2.35844935 -1.92725881,8.5022898 0.810652961,12.8264941 C1.47732959,13.879463 1.90898235,14.8018381 2.18798593,15.6290077 L18.7415783,15.6290077 C19.0282609,14.8018381 19.4648003,13.9196457 20.1314769,12.8666768 C22.8686906,8.54384234 18.382527,2.36438542 11.1140065,5.11210448 Z" id="Shape"></path>
                    <path d="M18.4923404,17.1414924 C18.5120549,16.6374004 18.5602976,16.38525 18.6440264,16.38525 L2.2985786,16.38525 C2.37674098,16.38525 2.41918525,16.6374004 2.4331014,17.1414924 L18.4923404,17.1414924 Z" id="Shape"></path>
                    <path d="M2.27235191,17.6456539 C2.18597746,18.6539352 2.04318098,18.9060577 2.04318098,18.9060577 L10.4340415,18.9060577 L18.6440264,18.9060577 C18.6440264,18.9060577 18.5112141,18.6539352 18.4383066,17.6456539 L2.27235191,17.6456539 Z" id="Shape"></path>
                </g>
                <g id="crown-copy-7" transform="translate(21.500000, 104.500000) rotate(-210.000000) translate(-21.500000, -104.500000) translate(11.000000, 95.000000)">
                    <path d="M11.1140065,5.11210448 L11.1140065,3.36872411 L13.3490602,3.36872411 L13.3490602,2.19315241 L11.1140065,2.19315241 L11.1140065,0 L9.91585011,0 L9.91585011,2.19315241 L7.68056365,2.19315241 L7.68056365,3.36872411 L9.91585011,3.36872411 L9.91585011,5.1146159 C2.55983559,2.35844935 -1.92725881,8.5022898 0.810652961,12.8264941 C1.47732959,13.879463 1.90898235,14.8018381 2.18798593,15.6290077 L18.7415783,15.6290077 C19.0282609,14.8018381 19.4648003,13.9196457 20.1314769,12.8666768 C22.8686906,8.54384234 18.382527,2.36438542 11.1140065,5.11210448 Z" id="Shape"></path>
                    <path d="M18.4923404,17.1414924 C18.5120549,16.6374004 18.5602976,16.38525 18.6440264,16.38525 L2.2985786,16.38525 C2.37674098,16.38525 2.41918525,16.6374004 2.4331014,17.1414924 L18.4923404,17.1414924 Z" id="Shape"></path>
                    <path d="M2.27235191,17.6456539 C2.18597746,18.6539352 2.04318098,18.9060577 2.04318098,18.9060577 L10.4340415,18.9060577 L18.6440264,18.9060577 C18.6440264,18.9060577 18.5112141,18.6539352 18.4383066,17.6456539 L2.27235191,17.6456539 Z" id="Shape"></path>
                </g>
                <g id="crown-copy-8" transform="translate(41.500000, 57.500000) rotate(-30.000000) translate(-41.500000, -57.500000) translate(31.000000, 48.000000)">
                    <path d="M11.1140065,5.11210448 L11.1140065,3.36872411 L13.3490602,3.36872411 L13.3490602,2.19315241 L11.1140065,2.19315241 L11.1140065,0 L9.91585011,0 L9.91585011,2.19315241 L7.68056365,2.19315241 L7.68056365,3.36872411 L9.91585011,3.36872411 L9.91585011,5.1146159 C2.55983559,2.35844935 -1.92725881,8.5022898 0.810652961,12.8264941 C1.47732959,13.879463 1.90898235,14.8018381 2.18798593,15.6290077 L18.7415783,15.6290077 C19.0282609,14.8018381 19.4648003,13.9196457 20.1314769,12.8666768 C22.8686906,8.54384234 18.382527,2.36438542 11.1140065,5.11210448 Z" id="Shape"></path>
                    <path d="M18.4923404,17.1414924 C18.5120549,16.6374004 18.5602976,16.38525 18.6440264,16.38525 L2.2985786,16.38525 C2.37674098,16.38525 2.41918525,16.6374004 2.4331014,17.1414924 L18.4923404,17.1414924 Z" id="Shape"></path>
                    <path d="M2.27235191,17.6456539 C2.18597746,18.6539352 2.04318098,18.9060577 2.04318098,18.9060577 L10.4340415,18.9060577 L18.6440264,18.9060577 C18.6440264,18.9060577 18.5112141,18.6539352 18.4383066,17.6456539 L2.27235191,17.6456539 Z" id="Shape"></path>
                </g>
                <g id="crown-copy-9" transform="translate(49.500000, 185.500000) rotate(-210.000000) translate(-49.500000, -185.500000) translate(39.000000, 176.000000)">
                    <path d="M11.1140065,5.11210448 L11.1140065,3.36872411 L13.3490602,3.36872411 L13.3490602,2.19315241 L11.1140065,2.19315241 L11.1140065,0 L9.91585011,0 L9.91585011,2.19315241 L7.68056365,2.19315241 L7.68056365,3.36872411 L9.91585011,3.36872411 L9.91585011,5.1146159 C2.55983559,2.35844935 -1.92725881,8.5022898 0.810652961,12.8264941 C1.47732959,13.879463 1.90898235,14.8018381 2.18798593,15.6290077 L18.7415783,15.6290077 C19.0282609,14.8018381 19.4648003,13.9196457 20.1314769,12.8666768 C22.8686906,8.54384234 18.382527,2.36438542 11.1140065,5.11210448 Z" id="Shape"></path>
                    <path d="M18.4923404,17.1414924 C18.5120549,16.6374004 18.5602976,16.38525 18.6440264,16.38525 L2.2985786,16.38525 C2.37674098,16.38525 2.41918525,16.6374004 2.4331014,17.1414924 L18.4923404,17.1414924 Z" id="Shape"></path>
                    <path d="M2.27235191,17.6456539 C2.18597746,18.6539352 2.04318098,18.9060577 2.04318098,18.9060577 L10.4340415,18.9060577 L18.6440264,18.9060577 C18.6440264,18.9060577 18.5112141,18.6539352 18.4383066,17.6456539 L2.27235191,17.6456539 Z" id="Shape"></path>
                </g>
                <g id="crown-copy-10" transform="translate(77.500000, 153.500000) rotate(-210.000000) translate(-77.500000, -153.500000) translate(67.000000, 144.000000)">
                    <path d="M11.1140065,5.11210448 L11.1140065,3.36872411 L13.3490602,3.36872411 L13.3490602,2.19315241 L11.1140065,2.19315241 L11.1140065,0 L9.91585011,0 L9.91585011,2.19315241 L7.68056365,2.19315241 L7.68056365,3.36872411 L9.91585011,3.36872411 L9.91585011,5.1146159 C2.55983559,2.35844935 -1.92725881,8.5022898 0.810652961,12.8264941 C1.47732959,13.879463 1.90898235,14.8018381 2.18798593,15.6290077 L18.7415783,15.6290077 C19.0282609,14.8018381 19.4648003,13.9196457 20.1314769,12.8666768 C22.8686906,8.54384234 18.382527,2.36438542 11.1140065,5.11210448 Z" id="Shape"></path>
                    <path d="M18.4923404,17.1414924 C18.5120549,16.6374004 18.5602976,16.38525 18.6440264,16.38525 L2.2985786,16.38525 C2.37674098,16.38525 2.41918525,16.6374004 2.4331014,17.1414924 L18.4923404,17.1414924 Z" id="Shape"></path>
                    <path d="M2.27235191,17.6456539 C2.18597746,18.6539352 2.04318098,18.9060577 2.04318098,18.9060577 L10.4340415,18.9060577 L18.6440264,18.9060577 C18.6440264,18.9060577 18.5112141,18.6539352 18.4383066,17.6456539 L2.27235191,17.6456539 Z" id="Shape"></path>
                </g>
                <g id="crown-copy-11" transform="translate(105.500000, 219.500000) rotate(-210.000000) translate(-105.500000, -219.500000) translate(95.000000, 210.000000)">
                    <path d="M11.1140065,5.11210448 L11.1140065,3.36872411 L13.3490602,3.36872411 L13.3490602,2.19315241 L11.1140065,2.19315241 L11.1140065,0 L9.91585011,0 L9.91585011,2.19315241 L7.68056365,2.19315241 L7.68056365,3.36872411 L9.91585011,3.36872411 L9.91585011,5.1146159 C2.55983559,2.35844935 -1.92725881,8.5022898 0.810652961,12.8264941 C1.47732959,13.879463 1.90898235,14.8018381 2.18798593,15.6290077 L18.7415783,15.6290077 C19.0282609,14.8018381 19.4648003,13.9196457 20.1314769,12.8666768 C22.8686906,8.54384234 18.382527,2.36438542 11.1140065,5.11210448 Z" id="Shape"></path>
                    <path d="M18.4923404,17.1414924 C18.5120549,16.6374004 18.5602976,16.38525 18.6440264,16.38525 L2.2985786,16.38525 C2.37674098,16.38525 2.41918525,16.6374004 2.4331014,17.1414924 L18.4923404,17.1414924 Z" id="Shape"></path>
                    <path d="M2.27235191,17.6456539 C2.18597746,18.6539352 2.04318098,18.9060577 2.04318098,18.9060577 L10.4340415,18.9060577 L18.6440264,18.9060577 C18.6440264,18.9060577 18.5112141,18.6539352 18.4383066,17.6456539 L2.27235191,17.6456539 Z" id="Shape"></path>
                </g>
                <g id="crown-copy-12" transform="translate(179.500000, 206.500000) rotate(-210.000000) translate(-179.500000, -206.500000) translate(169.000000, 197.000000)">
                    <path d="M11.1140065,5.11210448 L11.1140065,3.36872411 L13.3490602,3.36872411 L13.3490602,2.19315241 L11.1140065,2.19315241 L11.1140065,0 L9.91585011,0 L9.91585011,2.19315241 L7.68056365,2.19315241 L7.68056365,3.36872411 L9.91585011,3.36872411 L9.91585011,5.1146159 C2.55983559,2.35844935 -1.92725881,8.5022898 0.810652961,12.8264941 C1.47732959,13.879463 1.90898235,14.8018381 2.18798593,15.6290077 L18.7415783,15.6290077 C19.0282609,14.8018381 19.4648003,13.9196457 20.1314769,12.8666768 C22.8686906,8.54384234 18.382527,2.36438542 11.1140065,5.11210448 Z" id="Shape"></path>
                    <path d="M18.4923404,17.1414924 C18.5120549,16.6374004 18.5602976,16.38525 18.6440264,16.38525 L2.2985786,16.38525 C2.37674098,16.38525 2.41918525,16.6374004 2.4331014,17.1414924 L18.4923404,17.1414924 Z" id="Shape"></path>
                    <path d="M2.27235191,17.6456539 C2.18597746,18.6539352 2.04318098,18.9060577 2.04318098,18.9060577 L10.4340415,18.9060577 L18.6440264,18.9060577 C18.6440264,18.9060577 18.5112141,18.6539352 18.4383066,17.6456539 L2.27235191,17.6456539 Z" id="Shape"></path>
                </g>
                <g id="crown-copy-13" transform="translate(142.500000, 134.500000) rotate(-210.000000) translate(-142.500000, -134.500000) translate(132.000000, 125.000000)">
                    <path d="M11.1140065,5.11210448 L11.1140065,3.36872411 L13.3490602,3.36872411 L13.3490602,2.19315241 L11.1140065,2.19315241 L11.1140065,0 L9.91585011,0 L9.91585011,2.19315241 L7.68056365,2.19315241 L7.68056365,3.36872411 L9.91585011,3.36872411 L9.91585011,5.1146159 C2.55983559,2.35844935 -1.92725881,8.5022898 0.810652961,12.8264941 C1.47732959,13.879463 1.90898235,14.8018381 2.18798593,15.6290077 L18.7415783,15.6290077 C19.0282609,14.8018381 19.4648003,13.9196457 20.1314769,12.8666768 C22.8686906,8.54384234 18.382527,2.36438542 11.1140065,5.11210448 Z" id="Shape"></path>
                    <path d="M18.4923404,17.1414924 C18.5120549,16.6374004 18.5602976,16.38525 18.6440264,16.38525 L2.2985786,16.38525 C2.37674098,16.38525 2.41918525,16.6374004 2.4331014,17.1414924 L18.4923404,17.1414924 Z" id="Shape"></path>
                    <path d="M2.27235191,17.6456539 C2.18597746,18.6539352 2.04318098,18.9060577 2.04318098,18.9060577 L10.4340415,18.9060577 L18.6440264,18.9060577 C18.6440264,18.9060577 18.5112141,18.6539352 18.4383066,17.6456539 L2.27235191,17.6456539 Z" id="Shape"></path>
                </g>
                <g id="crown-copy-14" transform="translate(189.500000, 30.500000) rotate(-210.000000) translate(-189.500000, -30.500000) translate(179.000000, 21.000000)">
                    <path d="M11.1140065,5.11210448 L11.1140065,3.36872411 L13.3490602,3.36872411 L13.3490602,2.19315241 L11.1140065,2.19315241 L11.1140065,0 L9.91585011,0 L9.91585011,2.19315241 L7.68056365,2.19315241 L7.68056365,3.36872411 L9.91585011,3.36872411 L9.91585011,5.1146159 C2.55983559,2.35844935 -1.92725881,8.5022898 0.810652961,12.8264941 C1.47732959,13.879463 1.90898235,14.8018381 2.18798593,15.6290077 L18.7415783,15.6290077 C19.0282609,14.8018381 19.4648003,13.9196457 20.1314769,12.8666768 C22.8686906,8.54384234 18.382527,2.36438542 11.1140065,5.11210448 Z" id="Shape"></path>
                    <path d="M18.4923404,17.1414924 C18.5120549,16.6374004 18.5602976,16.38525 18.6440264,16.38525 L2.2985786,16.38525 C2.37674098,16.38525 2.41918525,16.6374004 2.4331014,17.1414924 L18.4923404,17.1414924 Z" id="Shape"></path>
                    <path d="M2.27235191,17.6456539 C2.18597746,18.6539352 2.04318098,18.9060577 2.04318098,18.9060577 L10.4340415,18.9060577 L18.6440264,18.9060577 C18.6440264,18.9060577 18.5112141,18.6539352 18.4383066,17.6456539 L2.27235191,17.6456539 Z" id="Shape"></path>
                </g>
                <g id="crown-copy-15" transform="translate(212.500000, 148.500000) rotate(-210.000000) translate(-212.500000, -148.500000) translate(202.000000, 139.000000)">
                    <path d="M11.1140065,5.11210448 L11.1140065,3.36872411 L13.3490602,3.36872411 L13.3490602,2.19315241 L11.1140065,2.19315241 L11.1140065,0 L9.91585011,0 L9.91585011,2.19315241 L7.68056365,2.19315241 L7.68056365,3.36872411 L9.91585011,3.36872411 L9.91585011,5.1146159 C2.55983559,2.35844935 -1.92725881,8.5022898 0.810652961,12.8264941 C1.47732959,13.879463 1.90898235,14.8018381 2.18798593,15.6290077 L18.7415783,15.6290077 C19.0282609,14.8018381 19.4648003,13.9196457 20.1314769,12.8666768 C22.8686906,8.54384234 18.382527,2.36438542 11.1140065,5.11210448 Z" id="Shape"></path>
                    <path d="M18.4923404,17.1414924 C18.5120549,16.6374004 18.5602976,16.38525 18.6440264,16.38525 L2.2985786,16.38525 C2.37674098,16.38525 2.41918525,16.6374004 2.4331014,17.1414924 L18.4923404,17.1414924 Z" id="Shape"></path>
                    <path d="M2.27235191,17.6456539 C2.18597746,18.6539352 2.04318098,18.9060577 2.04318098,18.9060577 L10.4340415,18.9060577 L18.6440264,18.9060577 C18.6440264,18.9060577 18.5112141,18.6539352 18.4383066,17.6456539 L2.27235191,17.6456539 Z" id="Shape"></path>
                </g>
                <g id="crown-copy-16" transform="translate(103.500000, 62.500000) rotate(-210.000000) translate(-103.500000, -62.500000) translate(93.000000, 53.000000)">
                    <path d="M11.1140065,5.11210448 L11.1140065,3.36872411 L13.3490602,3.36872411 L13.3490602,2.19315241 L11.1140065,2.19315241 L11.1140065,0 L9.91585011,0 L9.91585011,2.19315241 L7.68056365,2.19315241 L7.68056365,3.36872411 L9.91585011,3.36872411 L9.91585011,5.1146159 C2.55983559,2.35844935 -1.92725881,8.5022898 0.810652961,12.8264941 C1.47732959,13.879463 1.90898235,14.8018381 2.18798593,15.6290077 L18.7415783,15.6290077 C19.0282609,14.8018381 19.4648003,13.9196457 20.1314769,12.8666768 C22.8686906,8.54384234 18.382527,2.36438542 11.1140065,5.11210448 Z" id="Shape"></path>
                    <path d="M18.4923404,17.1414924 C18.5120549,16.6374004 18.5602976,16.38525 18.6440264,16.38525 L2.2985786,16.38525 C2.37674098,16.38525 2.41918525,16.6374004 2.4331014,17.1414924 L18.4923404,17.1414924 Z" id="Shape"></path>
                    <path d="M2.27235191,17.6456539 C2.18597746,18.6539352 2.04318098,18.9060577 2.04318098,18.9060577 L10.4340415,18.9060577 L18.6440264,18.9060577 C18.6440264,18.9060577 18.5112141,18.6539352 18.4383066,17.6456539 L2.27235191,17.6456539 Z" id="Shape"></path>
                </g>
            </g>
        </g>
    </g>
</svg>