<?xml version="1.0" encoding="UTF-8"?>
<svg width="518px" height="535px" viewBox="0 0 518 535" version="1.1" xmlns="http://www.w3.org/2000/svg" xmlns:xlink="http://www.w3.org/1999/xlink">
    <!-- Generator: Sketch 47.1 (45422) - http://www.bohemiancoding.com/sketch -->
    <title>3_triangle_pattern</title>
    <desc>Created with Sketch.</desc>
    <defs></defs>
    <g id="-" stroke="none" stroke-width="1" fill="none" fill-rule="evenodd" opacity="0.592561141">
        <g id="1-1-Desktop-#3" transform="translate(-717.000000, -1240.000000)" fill="#FFFFFF">
            <g id="Group-35-Copy-2" transform="translate(896.000000, 1344.000000) scale(1, -1) translate(-896.000000, -1344.000000) translate(484.000000, 705.000000)">
                <polygon id="Rectangle-5-Copy-2" transform="translate(334.000000, 240.000000) scale(-1, 1) rotate(-188.000000) translate(-334.000000, -240.000000) " points="341 233 341 247 327 247"></polygon>
                <polygon id="Rectangle-5-Copy-39" transform="translate(329.000000, 433.000000) scale(-1, 1) rotate(-188.000000) translate(-329.000000, -433.000000) " points="336 426 336 440 322 440"></polygon>
                <polygon id="Rectangle-5-Copy-23" transform="translate(274.000000, 423.000000) scale(-1, -1) rotate(-188.000000) translate(-274.000000, -423.000000) " points="281 416 281 430 267 430"></polygon>
                <polygon id="Rectangle-5-Copy-40" transform="translate(270.000000, 616.000000) scale(-1, -1) rotate(-188.000000) translate(-270.000000, -616.000000) " points="277 609 277 623 263 623"></polygon>
                <polygon id="Rectangle-5-Copy-15" transform="translate(507.000000, 216.000000) rotate(-188.000000) translate(-507.000000, -216.000000) " points="514 209 514 223 500 223"></polygon>
                <polygon id="Rectangle-5-Copy-24" transform="translate(447.000000, 398.000000) scale(1, -1) rotate(-188.000000) translate(-447.000000, -398.000000) " points="454 391 454 405 440 405"></polygon>
                <polygon id="Rectangle-5-Copy-42" transform="translate(442.000000, 591.000000) scale(1, -1) rotate(-188.000000) translate(-442.000000, -591.000000) " points="449 584 449 598 435 598"></polygon>
                <polygon id="Rectangle-5-Copy-11" transform="translate(249.000000, 268.000000) scale(-1, -1) rotate(-188.000000) translate(-249.000000, -268.000000) " points="256 261 256 275 242 275"></polygon>
                <polygon id="Rectangle-5-Copy-43" transform="translate(239.000000, 497.000000) scale(-1, -1) rotate(-188.000000) translate(-239.000000, -497.000000) " points="246 490 246 504 232 504"></polygon>
                <polygon id="Rectangle-5-Copy-25" transform="translate(667.000000, 416.000000) scale(1, -1) rotate(-188.000000) translate(-667.000000, -416.000000) " points="674 409 674 423 660 423"></polygon>
                <polygon id="Rectangle-5-Copy-44" transform="translate(663.000000, 609.000000) scale(1, -1) rotate(-188.000000) translate(-663.000000, -609.000000) " points="670 602 670 616 656 616"></polygon>
                <polygon id="Rectangle-5-Copy-16" transform="translate(421.000000, 243.000000) scale(1, -1) rotate(-188.000000) translate(-421.000000, -243.000000) " points="428 236 428 250 414 250"></polygon>
                <polygon id="Rectangle-5-Copy-45" transform="translate(417.000000, 436.000000) scale(1, -1) rotate(-188.000000) translate(-417.000000, -436.000000) " points="424 429 424 443 410 443"></polygon>
                <polygon id="Rectangle-5-Copy-46" transform="translate(357.000000, 619.000000) scale(1, -1) rotate(-188.000000) translate(-357.000000, -619.000000) " points="364 612 364 626 350 626"></polygon>
                <polygon id="Rectangle-5-Copy-5" transform="translate(379.000000, 339.000000) scale(-1, -1) rotate(-188.000000) translate(-379.000000, -339.000000) " points="386 332 386 346 372 346"></polygon>
                <polygon id="Rectangle-5-Copy-47" transform="translate(375.000000, 532.000000) scale(-1, -1) rotate(-188.000000) translate(-375.000000, -532.000000) " points="382 525 382 539 368 539"></polygon>
                <polygon id="Rectangle-5-Copy-48" transform="translate(282.000000, 698.000000) scale(-1, -1) rotate(-188.000000) translate(-282.000000, -698.000000) " points="289 691 289 705 275 705"></polygon>
                <polygon id="Rectangle-5-Copy-17" transform="translate(552.000000, 314.000000) scale(1, -1) rotate(-188.000000) translate(-552.000000, -314.000000) " points="559 307 559 321 545 321"></polygon>
                <polygon id="Rectangle-5-Copy-49" transform="translate(548.000000, 507.000000) scale(1, -1) rotate(-188.000000) translate(-548.000000, -507.000000) " points="555 500 555 514 541 514"></polygon>
                <polygon id="Rectangle-5-Copy-28" transform="translate(414.000000, 489.000000) scale(1, -1) rotate(-188.000000) translate(-414.000000, -489.000000) " points="421 482 421 496 407 496"></polygon>
                <polygon id="Rectangle-5-Copy-50" transform="translate(488.000000, 690.000000) scale(1, -1) rotate(-188.000000) translate(-488.000000, -690.000000) " points="495 683 495 697 481 697"></polygon>
                <polygon id="Rectangle-5-Copy-12" transform="translate(294.000000, 366.000000) scale(-1, -1) rotate(-188.000000) translate(-294.000000, -366.000000) " points="301 359 301 373 287 373"></polygon>
                <polygon id="Rectangle-5-Copy-51" transform="translate(290.000000, 559.000000) scale(-1, -1) rotate(-188.000000) translate(-290.000000, -559.000000) " points="297 552 297 566 283 566"></polygon>
                <polygon id="Rectangle-5-Copy-29" transform="translate(678.000000, 497.000000) scale(1, -1) rotate(-188.000000) translate(-678.000000, -497.000000) " points="685 490 685 504 671 504"></polygon>
                <polygon id="Rectangle-5-Copy-52" transform="translate(673.000000, 690.000000) scale(1, -1) rotate(-188.000000) translate(-673.000000, -690.000000) " points="680 683 680 697 666 697"></polygon>
                <polygon id="Rectangle-5-Copy-18" transform="translate(467.000000, 341.000000) scale(1, -1) rotate(-188.000000) translate(-467.000000, -341.000000) " points="474 334 474 348 460 348"></polygon>
                <polygon id="Rectangle-5-Copy-53" transform="translate(463.000000, 534.000000) scale(1, -1) rotate(-188.000000) translate(-463.000000, -534.000000) " points="470 527 470 541 456 541"></polygon>
                <polygon id="Rectangle-5-Copy-54" transform="translate(403.000000, 717.000000) scale(1, -1) rotate(-188.000000) translate(-403.000000, -717.000000) " points="410 710 410 724 396 724"></polygon>
                <polygon id="Rectangle-5-Copy-9" transform="translate(494.000000, 269.000000) scale(-1, -1) rotate(-188.000000) translate(-494.000000, -269.000000) " points="501 262 501 276 487 276"></polygon>
                <polygon id="Rectangle-5-Copy-55" transform="translate(490.000000, 462.000000) scale(-1, -1) rotate(-188.000000) translate(-490.000000, -462.000000) " points="497 455 497 469 483 469"></polygon>
                <polygon id="Rectangle-5-Copy-56" transform="translate(430.000000, 644.000000) scale(-1, -1) rotate(-188.000000) translate(-430.000000, -644.000000) " points="437 637 437 651 423 651"></polygon>
                <polygon id="Rectangle-5-Copy-19" transform="translate(667.000000, 244.000000) scale(1, -1) rotate(-188.000000) translate(-667.000000, -244.000000) " points="674 237 674 251 660 251"></polygon>
                <polygon id="Rectangle-5-Copy-32" transform="translate(607.000000, 426.000000) scale(1, -1) rotate(-188.000000) translate(-607.000000, -426.000000) " points="614 419 614 433 600 433"></polygon>
                <polygon id="Rectangle-5-Copy-58" transform="translate(603.000000, 619.000000) scale(1, -1) rotate(-188.000000) translate(-603.000000, -619.000000) " points="610 612 610 626 596 626"></polygon>
                <polygon id="Rectangle-5-Copy-13" transform="translate(409.000000, 296.000000) scale(-1, -1) rotate(-188.000000) translate(-409.000000, -296.000000) " points="416 289 416 303 402 303"></polygon>
                <polygon id="Rectangle-5-Copy-60" transform="translate(345.000000, 671.000000) scale(-1, -1) rotate(-188.000000) translate(-345.000000, -671.000000) " points="352 664 352 678 338 678"></polygon>
                <polygon id="Rectangle-5-Copy-20" transform="translate(582.000000, 271.000000) scale(1, -1) rotate(-188.000000) translate(-582.000000, -271.000000) " points="589 264 589 278 575 278"></polygon>
                <polygon id="Rectangle-5-Copy-61" transform="translate(578.000000, 464.000000) scale(1, -1) rotate(-188.000000) translate(-578.000000, -464.000000) " points="585 457 585 471 571 471"></polygon>
                <polygon id="Rectangle-5-Copy-62" transform="translate(518.000000, 647.000000) scale(1, -1) rotate(-188.000000) translate(-518.000000, -647.000000) " points="525 640 525 654 511 654"></polygon>
                <polygon id="Rectangle-5-Copy-10" transform="translate(612.000000, 357.000000) scale(-1, 1) rotate(-188.000000) translate(-612.000000, -357.000000) " points="619 350 619 364 605 364"></polygon>
                <polygon id="Rectangle-5-Copy-63" transform="translate(607.000000, 550.000000) scale(-1, 1) rotate(-188.000000) translate(-607.000000, -550.000000) " points="614 543 614 557 600 557"></polygon>
                <polygon id="Rectangle-5-Copy-64" transform="translate(548.000000, 733.000000) scale(-1, -1) rotate(-188.000000) translate(-548.000000, -733.000000) " points="555 726 555 740 541 740"></polygon>
                <polygon id="Rectangle-5-Copy-21" transform="translate(327.000000, 304.000000) rotate(-188.000000) translate(-327.000000, -304.000000) " points="334 297 334 311 320 311"></polygon>
                <polygon id="Rectangle-5-Copy-65" transform="translate(322.000000, 497.000000) rotate(-188.000000) translate(-322.000000, -497.000000) " points="329 490 329 504 315 504"></polygon>
                <polygon id="Rectangle-5-Copy-36" transform="translate(745.000000, 452.000000) scale(1, -1) rotate(-188.000000) translate(-745.000000, -452.000000) " points="752 445 752 459 738 459"></polygon>
                <polygon id="Rectangle-5-Copy-66" transform="translate(741.000000, 645.000000) scale(1, -1) rotate(-188.000000) translate(-741.000000, -645.000000) " points="748 638 748 652 734 652"></polygon>
                <polygon id="Rectangle-5-Copy-14" transform="translate(527.000000, 384.000000) scale(-1, -1) rotate(-188.000000) translate(-527.000000, -384.000000) " points="534 377 534 391 520 391"></polygon>
                <polygon id="Rectangle-5-Copy-67" transform="translate(522.000000, 577.000000) scale(-1, -1) rotate(-188.000000) translate(-522.000000, -577.000000) " points="529 570 529 584 515 584"></polygon>
                <polygon id="Rectangle-5-Copy-68" transform="translate(582.000000, 680.000000) scale(-1, -1) rotate(-188.000000) translate(-582.000000, -680.000000) " points="589 673 589 687 575 687"></polygon>
                <polygon id="Rectangle-5-Copy-22" transform="translate(700.000000, 360.000000) scale(1, -1) rotate(-188.000000) translate(-700.000000, -360.000000) " points="707 353 707 367 693 367"></polygon>
                <polygon id="Rectangle-5-Copy-69" transform="translate(695.000000, 553.000000) scale(1, -1) rotate(-188.000000) translate(-695.000000, -553.000000) " points="702 546 702 560 688 560"></polygon>
                <polygon id="Rectangle-5-Copy-70" transform="translate(636.000000, 735.000000) scale(1, -1) rotate(-188.000000) translate(-636.000000, -735.000000) " points="643 728 643 742 629 742"></polygon>
            </g>
        </g>
    </g>
</svg>