<svg width="556" height="877" viewBox="0 0 556 877" version="1.1" xmlns="http://www.w3.org/2000/svg" xmlns:xlink="http://www.w3.org/1999/xlink">
<title>7_plus_character_bg_pattern</title>
<desc>Created using Figma</desc>
<g id="Canvas" transform="translate(-31801 -6292)">
<g id="7_plus_character_bg_pattern">
<g id="Group 36.2">
<g id="+">
</g>
<g id="+">
<g id="+">
<use xlink:href="#path0_fill" transform="matrix(0.70743 0.706784 -0.70743 0.706784 31931 6732.97)" fill="#F5F1F1"/>
</g>
</g>
<g id="+">
<g id="+">
<use xlink:href="#path0_fill" transform="matrix(0.70743 0.706784 -0.70743 0.706784 31888.6 6292)" fill="#F5F1F1"/>
</g>
</g>
<g id="+">
<g id="+">
<use xlink:href="#path0_fill" transform="matrix(0.70743 0.706784 -0.70743 0.706784 32070 6535.81)" fill="#F5F1F1"/>
</g>
</g>
<g id="+">
<g id="+">
<use xlink:href="#path0_fill" transform="matrix(0.70743 0.706784 -0.70743 0.706784 32291.8 6318.5)" fill="#F5F1F1"/>
</g>
</g>
<g id="+">
<g id="+">
<use xlink:href="#path0_fill" transform="matrix(0.70743 0.706784 -0.70743 0.706784 32268.3 6477.27)" fill="#F5F1F1"/>
</g>
</g>
<g id="+">
<g id="+">
<use xlink:href="#path0_fill" transform="matrix(0.70743 0.706784 -0.70743 0.706784 32317.2 6776.43)" fill="#F5F1F1"/>
</g>
</g>
<g id="+">
<g id="+">
<use xlink:href="#path0_fill" transform="matrix(0.70743 0.706784 -0.70743 0.706784 31906.6 6426.62)" fill="#F5F1F1"/>
</g>
</g>
<g id="+">
<g id="+">
<use xlink:href="#path0_fill" transform="matrix(0.70743 0.706784 -0.70743 0.706784 32238 6627.59)" fill="#F5F1F1"/>
</g>
</g>
<g id="+">
<g id="+">
<use xlink:href="#path0_fill" transform="matrix(0.70743 0.706784 -0.70743 0.706784 32083.8 6741.45)" fill="#F5F1F1"/>
</g>
</g>
<g id="+">
</g>
<g id="+">
</g>
<g id="+">
<g id="+">
<use xlink:href="#path0_fill" transform="matrix(0.70743 0.706784 -0.70743 0.706784 31956.5 6886.68)" fill="#F5F1F1"/>
</g>
</g>
<g id="+">
<g id="+">
<use xlink:href="#path0_fill" transform="matrix(0.70743 0.706784 -0.70743 0.706784 31887.5 7041.44)" fill="#F5F1F1"/>
</g>
</g>
<g id="+">
<g id="+">
<use xlink:href="#path0_fill" transform="matrix(0.70743 0.706784 -0.70743 0.706784 32070 6999.04)" fill="#F5F1F1"/>
</g>
</g>
<g id="+">
<g id="+">
<use xlink:href="#path0_fill" transform="matrix(0.70743 0.706784 -0.70743 0.706784 32200.5 6849.57)" fill="#F5F1F1"/>
</g>
</g>
<g id="+">
<g id="+">
<use xlink:href="#path0_fill" transform="matrix(0.70743 0.706784 -0.70743 0.706784 32255.7 7024.48)" fill="#F5F1F1"/>
</g>
</g>
<g id="+">
<g id="+">
<use xlink:href="#path0_fill" transform="matrix(0.70743 0.706784 -0.70743 0.706784 32091.1 6378.23)" fill="#F5F1F1"/>
</g>
</g>
<g id="+">
</g>
<g id="+">
<g id="+">
<use xlink:href="#path0_fill" transform="matrix(0.70743 0.706784 -0.70743 0.706784 31937.4 6597.29)" fill="#F5F1F1"/>
</g>
</g>
</g>
</g>
</g>
<defs>
<path id="path0_fill" d="M 24.6797 37.9609L 36.668 37.9609L 36.668 48.1211L 24.6797 48.1211L 24.6797 61.8672L 13.6055 61.8672L 13.6055 48.1211L 1.58203 48.1211L 1.58203 37.9609L 13.6055 37.9609L 13.6055 24.6016L 24.6797 24.6016L 24.6797 37.9609Z"/>
</defs>
</svg>
