<?xml version="1.0" encoding="UTF-8"?>
<svg width="19px" height="35px" viewBox="0 0 19 35" version="1.1" xmlns="http://www.w3.org/2000/svg" xmlns:xlink="http://www.w3.org/1999/xlink">
    <!-- Generator: Sketch 47.1 (45422) - http://www.bohemiancoding.com/sketch -->
    <title>icon_fb_without_border</title>
    <desc>Created with Sketch.</desc>
    <defs>
        <polygon id="path-1" points="9.3 35 18.6 35 18.6 0 9.3 0 0 0 0 35"></polygon>
    </defs>
    <g id="Page-1" stroke="none" stroke-width="1" fill="none" fill-rule="evenodd">
        <g id="Finish_Card-The-End-Copy" transform="translate(-947.000000, -688.000000)">
            <g id="Group-14-Copy-2" transform="translate(892.000000, 664.000000)">
                <g id="Page-1-Copy" transform="translate(55.000000, 24.000000)">
                    <mask id="mask-2" fill="white">
                        <use xlink:href="#path-1"></use>
                    </mask>
                    <g id="Clip-2"></g>
                    <path d="M6.34574948,35 L6.34574948,16.3684796 L0,16.3684796 L0,11.5937781 L6.34574948,11.5937781 L6.34574948,6.82656511 C6.34574948,3.06281826 9.64528105,0 13.6999133,0 L18.6,0 L18.6,4.77470153 L13.6999133,4.77470153 C12.4817488,4.77470153 11.4894691,5.69579357 11.4894691,6.82656511 L11.4894691,11.5937781 L18.3450729,11.5937781 L18.3450729,16.3684796 L11.4894691,16.3684796 L11.4894691,35 L6.34574948,35 Z" id="Fill-1" fill="#FFFFFF" mask="url(#mask-2)"></path>
                </g>
            </g>
        </g>
    </g>
</svg>