<svg id="Layer_1" data-name="Layer 1" xmlns="http://www.w3.org/2000/svg" xmlns:xlink="http://www.w3.org/1999/xlink" viewBox="0 0 100 100"><defs><style>.cls-1,.cls-22{fill:none;}.cls-2{fill:#ff6882;}.cls-3{fill:#e94c6a;}.cls-4{fill:#eb6580;}.cls-5{fill:#e4e255;}.cls-6{fill:#ff6e86;}.cls-7{fill:#ff879a;}.cls-8{fill:#ff758b;}.cls-9{fill:#ff667f;}.cls-10{fill:#ffe6ea;}.cls-11{fill:#fe5e76;}.cls-12{fill:#ff748a;}.cls-13{fill:#fe93a5;}.cls-14{fill:#ffbdc9;}.cls-15{fill:#f5f5f5;}.cls-16{fill:#ff4a68;}.cls-17{fill:#ff98a9;}.cls-18{fill:#ffa8b6;}.cls-19{fill:#ff6881;}.cls-20{fill:#fee4e8;}.cls-21{clip-path:url(#clip-path);}.cls-22{stroke:#ececec;stroke-miterlimit:10;stroke-width:0.5px;}</style><clipPath id="clip-path"><path class="cls-1" d="M39.13,29.86l-.91-1,1.3-.35L40,29.88Zm29-4.75v.67H39.75l-.65.75-3.44,1-3.2-.64L26.31,27l-1.37,4,.48.89L37.71,29l1.23,1.24,1.06,0,5.9-1.23,3.19.15,4.35-.79,15.19-.93v-1h.68V27L89,26.25H69.66v-.47h-1v-.67Z"/></clipPath></defs><title>1Artboard 8</title><path class="cls-2" d="M79.73,32.33l-.34,0V32H80v.43l18.41-.72H80.34v-.43h-.94v-.61h-.46v.61H52.44l-.61.68-3,.82v-.36L50,32.31V29.9l.69-.14L50.45,27c.69-.34,0-1.43,0-1.43v-.82l.6-.49v-2l-1.89-1.4-3.49.24c-.11,0-5.2,2.45-5.2,2.45v1.57l1.37.3.08.88,0,0,.94,2.82.94.56.26,2.6-4.21.1-.71,2H31.8L31,38.19l2.2,2.12,1.26-.22,4.41,1.42,1.92,7.17v2l-1.71,3.88-.77,7.7h.31l-.51,5.12,1.51,5.9v3.81h0v9.7l.9.6-.9.61.71.64-1.59,1.94V92h6.34V89.66l-.77-1.05.77-.64-.77-.61.77-.6V77.44l2-13.79,1.91,8.93,1.94,4.48h-.22v9.7l.59.6-.59.61.59.64-.59,1.05V92h9.65V90.55l-4.46-1.94.38-.64-.67-.61.45-.6V77.44l.89-5.59L54.6,62.22h.09l-.77-7.7-1.71-3.87h0v-2h0l1.27-5,3.69,3.17,3.07-.93,5.59-9.24h.09V34.9l14-.75Zm-27.5,1.42.28.86-.16,0,.25.25,0,.07-.85-.3-.07-.25h-.37L51,34.07Zm6.16,6.68-1.77-3.7v-.35l-2.38-.84,7.65-.41v1.38Z"/><path class="cls-3" d="M28.31,48.83a1.28,1.28,0,1,1,1.28,1.26,1.27,1.27,0,0,1-1.28-1.26"/><path class="cls-4" d="M29.59,48.83a1.28,1.28,0,1,1,1.28,1.26,1.27,1.27,0,0,1-1.28-1.26"/><path class="cls-5" d="M34.31,31.81a1.5,1.5,0,1,1,1.5,1.48,1.49,1.49,0,0,1-1.5-1.48"/><path class="cls-5" d="M35.81,32.78a1,1,0,1,1,1,1,1,1,0,0,1-1-1"/><polygon class="cls-6" points="28.94 58.96 25.22 59.66 24.67 65.16 26.31 71.59 26.55 75.98 32.24 76.17 34.6 59.47 34.66 58.96 28.94 58.96"/><polygon class="cls-7" points="30.72 71.31 30.72 76.14 26.31 75.98 26.31 71.59 28.79 68.05 30.72 71.31"/><polygon class="cls-8" points="28.87 68.12 30.72 58.96 25.29 58.96 24.67 65.16 26.31 71.59 28.87 68.12"/><polygon class="cls-8" points="38.88 58.96 42.66 59.66 43.68 65.16 45.13 70.07 43.66 75.98 39.3 76.17 36.46 70.86 34.02 59.47 33.92 58.96 38.88 58.96"/><polygon class="cls-6" points="45.13 70.07 44.16 76.17 38.74 76.14 36.46 70.86 38.56 68.05 45.13 70.07"/><polygon class="cls-6" points="38.56 68.05 36.89 58.96 42.35 58.96 42.62 59.44 45.13 70.07 38.56 68.05"/><polygon class="cls-9" points="26.29 86.33 26.29 75.75 32.24 75.75 32.24 77.32 32.24 86.33 31.4 86.99 32.24 87.65 31.4 88.35 32.24 89.5 32.24 92.09 25.33 92.09 25.33 90.47 27.06 88.35 26.29 87.65 27.27 86.99 26.29 86.33"/><polygon class="cls-9" points="44.16 86.33 44.16 75.75 38.33 75.75 38.33 86.33 38.98 86.99 38.33 87.65 38.98 88.35 38.33 89.5 38.33 92.09 48.86 92.09 48.86 90.47 43.99 88.35 44.41 87.65 43.67 86.99 44.16 86.33"/><polygon class="cls-10" points="30.9 23.88 31.45 29.28 36.41 29.52 36.41 25.91 30.9 23.88"/><polygon class="cls-10" points="28.83 20.26 29.41 18.17 33.15 16.29 37.86 18.17 38.39 24.16 37.63 24.31 37.63 26.95 35.91 27.06 29.89 23.45 28.83 20.26"/><path class="cls-11" d="M33.36,18.7A5.56,5.56,0,0,0,37,21.22c2.41.38,1.13-1.63,1.13-1.63l-1.61-.89Z"/><path class="cls-7" d="M29.18,19.54l-1.94-.42V17.4s5.56-2.67,5.67-2.67l3.81-.27L38.78,16v2.18l-1.13.92-4.29-1Z"/><path class="cls-12" d="M28.68,18.77l.15,1.63A13.88,13.88,0,0,1,33.48,19a28,28,0,0,1,4.64.62V17.93a12.59,12.59,0,0,0-4.39-.77,10.93,10.93,0,0,0-5.05,1.62"/><path class="cls-13" d="M34.58,59.57s-.76-28.15-.76-31c-1.3-.49-2.87-1.13-2.87-1.13l0,1.54-8.21.58-4.91,0L19.35,35l6.17,2,2.38,8.88-.28,1.08-1.87,4.23-.84,8.4Z"/><path class="cls-7" d="M33.82,59.57v-31c1.3-.49,2.87-1.13,2.87-1.13l0,1.54,8,2.59L48,38.31l-2.54,4.37-4-3.46-1.67,6.63L40,46.94l1.87,4.23.85,8.4Z"/><polygon class="cls-14" points="34.63 30.81 34.63 42 33.82 42.46 33.01 42 33.01 30.81 34.63 30.81"/><polygon class="cls-15" points="34.39 38.31 33.82 38.87 33.25 38.31 33.82 37.75 34.39 38.31"/><polygon class="cls-15" points="34.39 34.77 33.82 35.33 33.25 34.77 33.82 34.21 34.39 34.77"/><polygon class="cls-15" points="34.24 30.16 33.82 30.57 33.41 30.16 33.82 29.76 34.24 30.16"/><polygon class="cls-15" points="34.24 29.11 33.82 29.52 33.41 29.11 33.82 28.71 34.24 29.11"/><polygon class="cls-16" points="27.61 44.73 40.06 44.73 40.06 46.95 27.61 46.94 27.61 44.73"/><polygon class="cls-12" points="37.42 30.3 44.85 32.92 44.85 31.37 37.42 28.75 37.42 30.3"/><rect class="cls-17" x="36.43" y="35.47" width="5.22" height="1.26"/><polygon class="cls-15" points="39.61 36.76 39.04 37.31 38.47 36.74 39.05 36.19 39.61 36.76"/><rect class="cls-18" x="26.09" y="35.47" width="5.22" height="1.26"/><polygon class="cls-15" points="29.27 36.76 28.69 37.31 28.13 36.74 28.7 36.19 29.27 36.76"/><polygon class="cls-15" points="32.07 44.38 32.07 44.72 35.29 44.72 35.29 46.96 32.07 46.96 32.07 47.3 35.59 47.3 35.59 44.38 32.07 44.38"/><path class="cls-19" d="M26.62,27l-1.39,4,.49.89L38.22,29l1.26,1.25,1.08,0,6-1.23,3.25.15,4.43-.79,15.46-.93v-1h.69V27l20.08-.78H70.73v-.47h-1v-.67h-.5v.67H40.29l-.66.75-3.5,1-3.25-.64Zm13.45,1.5.45,1.37h-.85l-.93-1Z"/><polygon class="cls-20" points="39.49 29.23 28.63 29.23 31.83 31.63 33.59 31.63 33.87 32.04 37.12 32.04 37.85 30.26 39.66 29.86 39.49 29.23"/><polygon class="cls-20" points="51.59 30.38 52.79 28.28 58.78 27.93 57.87 29.15 54.93 29.73 54.48 30.38 51.59 30.38"/><polygon class="cls-7" points="50.66 31.43 54.99 31.43 48.81 41.66 45.45 42.68 43.37 39.62 50.66 31.43"/><g class="cls-21"><line class="cls-22" x1="69.32" y1="27.09" x2="89.05" y2="26.31"/><polygon class="cls-11" points="69 26.96 53.7 27.82 49.27 28.5 45.79 28.5 39.65 29.48 40.66 30.51 69.18 28.94 69 26.96"/></g><rect class="cls-12" x="50.6" y="29.65" width="4.39" height="1.94"/></svg>