<svg id="Layer_1" data-name="Layer 1" xmlns="http://www.w3.org/2000/svg" viewBox="0 0 100 100"><defs><style>.cls-1{fill:#ff667f;}.cls-2{fill:#ff8094;}.cls-3{fill:#ffe6ea;}.cls-4{fill:#ececec;}.cls-5{fill:#fff;}.cls-6{fill:#ff99a9;}</style></defs><title>4Artboard 8</title><polygon class="cls-1" points="54.03 74.42 76.75 74.42 78.2 72.87 74.78 72.87 54.03 74.42"/><rect class="cls-1" x="72.53" y="54.56" width="0.63" height="19.28"/><rect class="cls-2" x="71.74" y="57.48" width="2.21" height="0.48"/><rect class="cls-2" x="70.62" y="62.51" width="4.45" height="0.48"/><path class="cls-3" d="M66,59.1a2.68,2.68,0,1,0,2.68-2.68A2.68,2.68,0,0,0,66,59.1"/><path class="cls-3" d="M59.63,57.18a2.68,2.68,0,1,0,2.68-2.68,2.68,2.68,0,0,0-2.68,2.68"/><path class="cls-4" d="M63.11,59a2.36,2.36,0,1,0,2.36-2.36A2.36,2.36,0,0,0,63.11,59"/><path class="cls-3" d="M69.48,63.38a.85.85,0,1,0,.85-.85.85.85,0,0,0-.85.85"/><path class="cls-3" d="M56.82,56.55a.85.85,0,1,0,.85-.85.85.85,0,0,0-.85.85"/><path class="cls-4" d="M67.77,61.07a2.13,2.13,0,1,0,2.13-2.13,2.13,2.13,0,0,0-2.13,2.13"/><rect class="cls-1" x="65.81" y="60.85" width="1.98" height="6.7"/><rect class="cls-2" x="65.24" y="63.64" width="3.1" height="12.9"/><rect class="cls-2" x="65.48" y="60.85" width="2.63" height="0.5"/><rect class="cls-5" x="65.48" y="62.51" width="2.63" height="0.5"/><rect class="cls-1" x="69.76" y="64.84" width="1.1" height="3.73"/><rect class="cls-2" x="69.45" y="66.4" width="1.73" height="7.19"/><rect class="cls-2" x="69.58" y="64.85" width="1.47" height="0.28"/><rect class="cls-5" x="69.58" y="65.78" width="1.47" height="0.28"/><path class="cls-3" d="M59.44,51.07a4.37,4.37,0,1,0,4.37-4.37,4.37,4.37,0,0,0-4.37,4.37"/><path class="cls-3" d="M51.55,50a2.3,2.3,0,1,0,2.37-2.23A2.3,2.3,0,0,0,51.55,50"/><path class="cls-4" d="M55.55,48a2.87,2.87,0,1,0,2.88-2.88A2.88,2.88,0,0,0,55.55,48"/><path class="cls-3" d="M49.42,48.84a1.49,1.49,0,1,0,1.49-1.49,1.49,1.49,0,0,0-1.49,1.49"/><path class="cls-4" d="M62,53.11a4.83,4.83,0,1,0,4.83-4.83A4.83,4.83,0,0,0,62,53.11"/><polygon class="cls-1" points="76.75 74.42 73.71 84.02 76.27 77.8 78.2 72.87 76.75 74.42"/><rect class="cls-1" x="64.85" y="40.7" width="1.08" height="32.93"/><rect class="cls-2" x="63.5" y="45.7" width="3.77" height="0.81"/><rect class="cls-2" x="61.59" y="54.29" width="7.59" height="0.81"/><polygon class="cls-6" points="73.71 84.02 57.46 84.02 54.03 74.42 62.11 71.57 68.67 71.57 76.75 74.42 73.71 84.02"/><polygon class="cls-2" points="67.51 84.02 63.28 84.02 62.11 71.57 68.67 71.57 67.51 84.02"/><polygon class="cls-1" points="19.71 71.23 59.7 71.23 62.27 68.49 56.25 68.49 19.71 71.23"/><rect class="cls-1" x="52.28" y="35.2" width="1.12" height="33.94"/><rect class="cls-2" x="50.89" y="40.36" width="3.89" height="0.84"/><rect class="cls-2" x="48.92" y="49.21" width="7.83" height="0.84"/><path class="cls-3" d="M32.3,43.36a2.8,2.8,0,1,0,2.8-2.8,2.8,2.8,0,0,0-2.8,2.8"/><path class="cls-4" d="M35.44,40.1A4.56,4.56,0,1,0,40,35.54a4.56,4.56,0,0,0-4.56,4.56"/><path class="cls-3" d="M46.41,51.17a2.11,2.11,0,1,0,2.12-2.11,2.11,2.11,0,0,0-2.12,2.11"/><path class="cls-3" d="M25.22,40.63a2.13,2.13,0,1,0,2.13-2.13,2.13,2.13,0,0,0-2.13,2.13"/><path class="cls-4" d="M44.55,47.69a3.77,3.77,0,1,0,3.77-3.77,3.77,3.77,0,0,0-3.77,3.77"/><rect class="cls-1" x="40.44" y="47.33" width="3.48" height="11.79"/><rect class="cls-2" x="39.45" y="52.24" width="5.46" height="22.72"/><rect class="cls-2" x="39.86" y="47.33" width="4.64" height="0.88"/><rect class="cls-5" x="39.86" y="50.27" width="4.64" height="0.87"/><rect class="cls-1" x="47.41" y="54.37" width="1.94" height="6.57"/><rect class="cls-2" x="46.85" y="57.11" width="3.04" height="12.66"/><rect class="cls-2" x="47.08" y="54.37" width="2.59" height="0.49"/><rect class="cls-5" x="47.08" y="56.01" width="2.59" height="0.49"/><path class="cls-3" d="M29.62,32.81A6.86,6.86,0,1,0,36.48,26a6.85,6.85,0,0,0-6.85,6.86"/><path class="cls-3" d="M16.1,28.36a6.54,6.54,0,1,0,6.54-6.54,6.55,6.55,0,0,0-6.54,6.54"/><path class="cls-4" d="M22,26.13a7.29,7.29,0,1,0,7.29-7.29A7.29,7.29,0,0,0,22,26.13"/><path class="cls-3" d="M41.21,42.48A3.81,3.81,0,1,0,45,38.67a3.81,3.81,0,0,0-3.81,3.81"/><path class="cls-3" d="M10.1,24.91a2.84,2.84,0,1,0,2.84-2.84,2.84,2.84,0,0,0-2.84,2.84"/><path class="cls-4" d="M36.33,34.39a7.82,7.82,0,1,0,7.82-7.82,7.82,7.82,0,0,0-7.82,7.82"/><polygon class="cls-1" points="59.71 71.23 54.35 88.13 58.87 77.17 62.27 68.49 59.71 71.23"/><rect class="cls-1" x="38.76" y="11.87" width="1.91" height="57.97"/><rect class="cls-2" x="36.39" y="20.67" width="6.64" height="1.43"/><rect class="cls-2" x="33.03" y="35.8" width="13.37" height="1.43"/><polygon class="cls-6" points="54.35 88.13 25.74 88.13 19.71 71.23 33.94 66.21 45.48 66.21 59.71 71.23 54.35 88.13"/><polygon class="cls-2" points="43.43 88.13 35.99 88.13 33.94 66.21 45.48 66.21 43.43 88.13"/></svg>