<svg id="Layer_1" data-name="Layer 1" xmlns="http://www.w3.org/2000/svg" viewBox="0 0 500 500"><defs><style>.cls-1{fill:#ff4a68;}.cls-2{fill:#fff;}.cls-3{fill:#ccc;}.cls-4{fill:#b3b3b3;}.cls-5{fill:#333;}.cls-6{fill:#e6e6e6;}.cls-7{fill:#999;}.cls-8{fill:#bcbcbc;}.cls-9{fill:#d13d55;}.cls-10{fill:#ad3347;}.cls-11{fill:#aaa;}.cls-12{fill:#1d1d1b;}.cls-13{fill:none;}</style></defs><title>icon-53Artboard 7</title><polygon class="cls-1" points="276.51 210.06 323.45 209.97 322.15 200.21 335.64 189.11 288.71 189.2 276.51 210.06"/><polygon class="cls-2" points="288.71 189.2 335.64 189.11 322.19 200.18 282.29 200.18 288.71 189.2"/><polygon class="cls-3" points="268.65 230.55 288.18 240.16 286.14 245.44 266.98 233.76 268.65 230.55"/><polygon class="cls-4" points="285.89 241.24 285.35 232.91 277.19 232.87 277.43 235.04 277.49 236.72 278.21 236.71 278.61 239.69 281.09 239.26 281.7 240.77 285.89 241.24"/><polygon points="285.22 231.47 286.14 230.89 286.12 230.37 276.27 229.32 276.31 230.13 277.04 231.14 277.1 232.34 276.21 233.63 285.31 233.15 285.22 231.47"/><polygon class="cls-4" points="284.77 256.03 281.28 256.03 280.36 254.37 280.83 253.34 281.4 253.18 281.75 252.65 284.77 252.65 284.77 256.03"/><polygon class="cls-5" points="354.67 300.51 354.67 308.13 330.55 291.11 316.8 278.86 285.28 278.86 253.04 303.74 253.04 308.13 247.05 308.13 248.8 302.88 271.8 280.75 254.67 282.61 250.92 290.36 251.42 295.61 245.54 295.61 245.54 291.11 252.04 278.36 270.55 274.61 268.05 270.36 263.55 255.61 257.3 255.61 251.3 259.61 249.55 258.11 251.55 255.61 248.05 256.61 247.8 253.86 266.3 239.11 266.3 242.36 281.8 258.61 315.8 258.61 321.05 261.11 328.05 255.61 345.05 258.61 356.3 257.36 356.3 262.86 345.3 267.11 332.55 260.36 322.8 262.61 328.55 274.74 342.8 276.61 349.55 286.61 353.67 288.11 353.67 295.75 347.67 290 341.3 281.5 328.3 280.25 335.42 289.11 349.92 299.13 354.67 300.51"/><polygon class="cls-4" points="308.35 253.64 311 256.49 311 259.79 300.04 265.79 295.06 264.14 289.3 266.57 287.89 262.61 289.4 260.72 297.06 257.28 308.35 253.64"/><polygon class="cls-5" points="285.69 236.83 281.1 239.15 281.1 241.14 286.83 238.56 285.69 236.83"/><polygon class="cls-3" points="295.91 240.98 306.08 251.21 310.15 255.58 295.27 258.08 281.1 241.14 286.83 238.56 295.91 240.98"/><polygon points="294.06 256.57 306.08 251.21 304.81 249.93 292.97 255.28 294.06 256.57"/><polygon class="cls-6" points="290.54 251.5 285.32 241.8 288.64 239.89 291.7 241.24 297.11 252.22 295.61 255 287.58 256.64 284.77 256.1 284.77 252.47 290.54 251.5"/><rect class="cls-7" x="283.33" y="252.47" width="1.44" height="3.63"/><polygon class="cls-4" points="267.06 233.61 263.96 232 265.39 229.52 265.95 229.21 268.62 230.61 267.06 233.61"/><rect class="cls-7" x="265.37" y="231.11" width="3.62" height="1.44" transform="translate(-61.84 361.74) rotate(-62.49)"/><polygon class="cls-4" points="251.35 256.16 281.4 254.95 281.09 254.56 251.04 255.77 251.35 256.16"/><polygon class="cls-5" points="285.01 238.99 287.65 240.08 284.46 241.8 283.36 239.97 285.01 238.99"/><polygon class="cls-3" points="258.67 241.28 259.65 241.8 290.28 187.52 289.3 187 258.67 241.28"/><polygon class="cls-8" points="265.95 229.21 266.51 230.31 265.51 232.25 264.98 232.53 263.96 232 264.26 230.22 265.24 229.32 265.95 229.21"/><polygon points="294.07 277.85 289.3 266.57 295.06 264.14 295.77 265.82 299.83 275.41 299.58 276.34 300.43 276.82 300.12 277.82 301.26 278.79 302.43 281.55 292.55 285.73 291.81 283.99 295.55 279.76 294.67 279.25 295.01 278.28 294.07 277.85"/><polygon class="cls-9" points="234.49 246.43 214.14 256.23 216.18 261.51 235.34 249.84 234.49 246.43"/><polygon class="cls-4" points="216.43 257.32 216.97 248.99 225.13 248.94 224.89 251.12 224.83 252.8 224.11 252.78 223.71 255.76 221.23 255.33 220.62 256.84 216.43 257.32"/><polygon points="217.1 247.54 216.18 246.97 216.21 246.44 226.05 245.39 226.01 246.2 225.28 247.22 225.22 248.42 226.11 249.71 217.01 249.22 217.1 247.54"/><polygon class="cls-4" points="217.55 272.11 221.04 272.11 221.96 270.44 221.49 269.42 220.92 269.25 220.57 268.72 217.55 268.72 217.55 272.11"/><polygon class="cls-5" points="164.65 315.2 164.65 323.08 187.64 307.33 186.08 294.94 222.53 294.94 235.81 306.7 231.54 316.24 227.39 314.33 227.39 322.58 234.69 318.23 241.09 306.03 231.28 293.33 255.57 310.06 252.94 313.81 260.37 313.81 259.12 307.83 233.7 287.95 238.77 271.69 245.02 271.69 251.02 275.69 252.77 274.19 250.77 271.69 254.27 272.69 254.52 269.94 236.02 255.19 236.02 258.44 220.52 274.69 186.52 274.69 181.53 276.18 172.53 276.18 157.27 271.93 146.02 278.95 146.02 284.45 157.02 280.43 168.03 280.93 179.52 278.69 176.4 287.2 149.94 308.6 146.02 314.83 152.78 314.83 152.78 310.27 178.19 295.08 182.28 306.22 168.65 315.2 164.65 315.2"/><polygon class="cls-4" points="193.97 269.72 191.32 272.57 191.32 275.86 202.28 281.87 207.26 280.21 213.02 282.65 214.43 278.69 212.92 276.79 205.26 273.35 193.97 269.72"/><polygon class="cls-5" points="216.63 252.91 221.22 255.22 221.22 257.21 215.49 254.64 216.63 252.91"/><polygon points="208.25 293.92 213.02 282.65 207.26 280.21 206.54 281.89 202.49 291.49 202.75 292.42 201.89 292.89 202.2 293.9 201.06 294.86 199.89 297.62 209.78 301.8 210.51 300.07 206.77 295.83 207.66 295.33 207.31 294.35 208.25 293.92"/><polygon class="cls-9" points="206.41 257.05 196.25 267.28 192.17 271.65 207.05 274.15 221.22 257.21 215.49 254.64 206.41 257.05"/><polygon points="208.26 272.65 196.25 267.28 197.51 266 209.35 271.35 208.26 272.65"/><polygon class="cls-1" points="211.78 267.58 217 257.87 213.68 255.97 210.62 257.32 205.21 268.29 206.71 271.07 214.74 272.71 217.55 272.17 217.55 268.55 211.78 267.58"/><rect class="cls-10" x="217.55" y="268.55" width="1.44" height="3.63"/><polygon class="cls-11" points="235.26 249.86 238.88 248.97 238.57 246.96 239.13 245.24 238.78 244.94 237.83 245.74 234.49 246.55 235.26 249.86"/><rect class="cls-10" x="234.82" y="246.15" width="1.44" height="3.62" transform="translate(-52.22 63.15) rotate(-13.76)"/><polygon class="cls-4" points="250.97 272.23 220.92 271.02 221.24 270.63 251.28 271.84 250.97 272.23"/><polygon class="cls-5" points="217.31 255.06 214.67 256.16 217.86 257.88 218.97 256.04 217.31 255.06"/><path class="cls-12" d="M244.6,241.08l-8.69,3.15.31.85.53,1.47.6,2.75.73.36.61-.55-.59-3.06,1.8-.66.31.86,1.06-.38L241,245l-.54-1.47,4.48-1.62Zm-5.39,4.22-1.18.43,1-1Z"/><polygon class="cls-8" points="237.65 245.84 236.67 246.72 237.07 249.03 237.78 249.23 239.05 248.92 239.13 247.33 238.87 246.03 237.65 245.84"/><polygon class="cls-8" points="238.15 245.29 238.31 245.58 238.69 245.65 239.22 245.27 238.74 244.83 238.15 245.29"/><ellipse class="cls-13" cx="250" cy="250" rx="112.5" ry="79.01"/></svg>