<svg id="Layer_1" data-name="Layer 1" xmlns="http://www.w3.org/2000/svg" viewBox="0 0 500 500"><defs><style>.cls-1{fill:#b1b1b1;}.cls-2{fill:#d9d9d9;}.cls-3{fill:#c6c6c5;}.cls-4{fill:#666;}.cls-5{fill:#9c9b9b;}.cls-6{fill:#309;}.cls-7{fill:none;}</style></defs><title>icon-07</title><polygon class="cls-1" points="279.6 217.22 279.6 230.12 286.01 230.12 292.5 223.71 286.01 217.22 279.6 217.22"/><polygon class="cls-2" points="219.88 217.22 213.69 223.33 213.69 313.8 279.86 313.8 286.05 307.69 285.96 217.22 219.88 217.22"/><polygon class="cls-3" points="250.14 313.49 250.14 217.22 219.88 217.22 213.69 223.33 213.69 313.49 250.14 313.49"/><path class="cls-4" d="M266.43,293.87c.11.64.85.84,1.34,1s1.05-.18,1.45-.37c2.44-1.18,5.74.2,8.35.2a1.2,1.2,0,0,0,0-2.39c-3,0-5.58-.77-8.6-.27a1.46,1.46,0,0,0-.25-.73,1.9,1.9,0,0,0-2-1.12c-.05-.11-.09-.22-.16-.34a1.12,1.12,0,0,0-.75-.52c.85-1.47,1.39-3,.83-4.29a1.19,1.19,0,0,0-1-.59c-1.6-.06-3,1.62-4,2.63a77.67,77.67,0,0,0-7,8.24c-.94,1.22,1.14,2.41,2.07,1.21a86.09,86.09,0,0,1,6.22-7.27c-.53.88-1.1,1.74-1.69,2.56-.86,1.32,1.18,2.44,2.07,1.21a2.7,2.7,0,0,1,.77-.75l-.18.44h0c0,.09-.09.19-.13.28-.54,1.34,1.46,2,2.19.93a7.93,7.93,0,0,0,.51-.83,3.77,3.77,0,0,0,0,.74"/><polygon class="cls-5" points="280.09 301.73 213.69 301.73 207.5 307.76 213.69 313.8 280.09 313.8 273.9 307.76 280.09 301.73"/><polygon class="cls-1" points="280.09 301.73 213.69 301.73 207.5 307.76 273.9 307.76 280.09 301.73"/><path class="cls-4" d="M241.17,295.95a3.43,3.43,0,0,0-1-.73,2.62,2.62,0,0,0-1.07-.19H239a1.38,1.38,0,0,0-1.07-.91,2.17,2.17,0,0,0-1.68.44c0-.2.09-.44.13-.61a4,4,0,0,0,.18-1.65,1,1,0,0,0-.87-.77,4.63,4.63,0,0,0-2.8,1.07c-.83.57-1.37.9-1.9.71s-.72-2-.4-3.56.8-4,2.14-5.24c.45-.4,1.1-.84,1.63-.63a3,3,0,0,1,1.27,2.51.95.95,0,1,0,1.89-.17c-.19-2-1.14-3.59-2.46-4.1-.8-.31-2.07-.39-3.6,1s-2.28,4-2.73,6.29c-.23,1.13-.77,4.87,1.63,5.72,1.46.52,2.65-.28,3.6-.93l.51-.34a2.54,2.54,0,0,0,.16,2c.62.93,1.49,1,2.6.3l.14-.09a1.23,1.23,0,0,0,.61.61,2.39,2.39,0,0,0,1.09.21,1.5,1.5,0,0,1,.35,0,1.57,1.57,0,0,1,.49.36,5.05,5.05,0,0,0,.52.45.95.95,0,1,0,1.14-1.52c-.14-.11-.25-.21-.35-.31"/><path class="cls-4" d="M270.32,238.2H230a1.27,1.27,0,1,1,0-2.55h40.36a1.27,1.27,0,1,1,0,2.55"/><path class="cls-4" d="M270.32,231.35H230a1.27,1.27,0,1,1,0-2.54h40.36a1.27,1.27,0,1,1,0,2.54"/><path class="cls-4" d="M270.32,245.05H230a1.27,1.27,0,1,1,0-2.55h40.36a1.27,1.27,0,1,1,0,2.55"/><path class="cls-4" d="M243.73,251.9H230a1.27,1.27,0,1,1,0-2.55h13.77a1.27,1.27,0,1,1,0,2.55"/><path class="cls-6" d="M249.88,246.47a21.68,21.68,0,1,0,21.68,21.68,21.71,21.71,0,0,0-21.68-21.68m2.94,35.15-17.9-6,6.07-1-7.41-14.26,22.48,5.43,7-4.42,4.43,3.42-4.91,3.11Z"/><path class="cls-6" d="M249.88,244.24a23.92,23.92,0,1,0,23.91,23.91,23.92,23.92,0,0,0-23.91-23.91m0,46.79a22.88,22.88,0,1,1,22.88-22.88A22.9,22.9,0,0,1,249.88,291"/><rect class="cls-6" x="262.57" y="263.21" width="1.01" height="1.01" transform="translate(-109.43 263.83) rotate(-45.09)"/><ellipse class="cls-7" cx="250" cy="250" rx="112.5" ry="79.01"/></svg>