<svg id="Layer_1" data-name="Layer 1" xmlns="http://www.w3.org/2000/svg" viewBox="0 0 500 500"><defs><style>.cls-1{fill:#99ffd3;}.cls-2{fill:#8cddb6;}.cls-3{fill:#b3b3b3;}.cls-4{fill:#333;}.cls-5{fill:#8fccaf;}.cls-6{fill:#ccc;}.cls-7{fill:#bcbcbc;}.cls-8{fill:#aaa;}.cls-9{fill:#1d1d1b;}.cls-10{fill:none;}</style></defs><title>icon-29Artboard 7</title><polygon class="cls-1" points="248.51 210.06 201.57 209.97 202.87 200.21 189.38 189.11 236.31 189.2 248.51 210.06"/><polygon class="cls-2" points="256.37 230.55 236.84 240.16 238.88 245.44 258.04 233.76 256.37 230.55"/><polygon class="cls-3" points="239.13 241.24 239.68 232.91 247.83 232.87 247.59 235.04 247.53 236.72 246.81 236.71 246.41 239.69 243.93 239.26 243.32 240.77 239.13 241.24"/><polygon points="239.8 231.47 238.88 230.89 238.91 230.37 248.75 229.32 248.71 230.13 247.99 231.14 247.92 232.34 248.81 233.63 239.71 233.15 239.8 231.47"/><polygon class="cls-3" points="240.25 256.03 243.74 256.03 244.66 254.37 244.19 253.34 243.62 253.18 243.27 252.65 240.25 252.65 240.25 256.03"/><polygon class="cls-4" points="170.35 300.51 170.35 308.13 194.47 291.11 208.22 278.86 239.74 278.86 271.98 303.74 271.98 308.13 277.97 308.13 276.22 302.88 253.23 280.75 270.35 282.61 274.1 290.36 273.6 295.61 279.48 295.61 279.48 291.11 272.98 278.36 254.47 274.61 256.97 270.36 261.47 255.61 267.72 255.61 273.72 259.61 275.47 258.11 273.47 255.61 276.97 256.61 277.22 253.86 258.72 239.11 258.72 242.36 243.22 258.61 209.22 258.61 203.97 261.11 196.97 255.61 179.97 258.61 168.72 257.36 168.72 262.86 179.72 267.11 192.47 260.36 202.22 262.61 196.47 274.74 182.22 276.61 175.47 286.61 171.35 288.11 171.35 295.75 177.35 290 183.72 281.5 196.73 280.25 189.6 289.11 175.1 299.13 170.35 300.51"/><polygon class="cls-3" points="216.67 253.64 214.02 256.49 214.02 259.79 224.98 265.79 229.96 264.14 235.72 266.57 237.13 262.61 235.62 260.72 227.96 257.28 216.67 253.64"/><polygon class="cls-4" points="239.33 236.83 243.92 239.15 243.92 241.14 238.19 238.56 239.33 236.83"/><polygon class="cls-2" points="229.11 240.98 218.94 251.21 214.87 255.58 229.75 258.08 243.92 241.14 238.19 238.56 229.11 240.98"/><polygon points="230.96 256.57 218.94 251.21 220.21 249.93 232.05 255.28 230.96 256.57"/><polygon class="cls-1" points="234.48 251.5 239.7 241.8 236.38 239.89 233.32 241.24 227.91 252.22 229.41 255 237.44 256.64 240.25 256.1 240.25 252.47 234.48 251.5"/><rect class="cls-5" x="240.25" y="252.47" width="1.44" height="3.63"/><polygon class="cls-3" points="257.96 233.61 261.06 232 259.63 229.52 259.07 229.21 256.4 230.61 257.96 233.61"/><rect class="cls-5" x="257.12" y="230.01" width="1.44" height="3.62" transform="translate(-77.92 145.29) rotate(-27.51)"/><polygon class="cls-3" points="273.67 256.16 243.62 254.95 243.94 254.56 273.98 255.77 273.67 256.16"/><polygon class="cls-4" points="240.01 238.99 237.37 240.08 240.56 241.8 241.67 239.97 240.01 238.99"/><polygon class="cls-6" points="266.35 241.28 265.38 241.8 234.74 187.52 235.72 187 266.35 241.28"/><polygon class="cls-7" points="259.07 229.21 258.51 230.31 259.51 232.25 260.04 232.53 261.06 232 260.76 230.22 259.78 229.32 259.07 229.21"/><polygon points="230.95 277.85 235.72 266.57 229.96 264.14 229.25 265.82 225.19 275.41 225.44 276.34 224.59 276.82 224.9 277.82 223.76 278.79 222.59 281.55 232.48 285.73 233.21 283.99 229.47 279.76 230.36 279.25 230.01 278.28 230.95 277.85"/><polygon class="cls-2" points="302.49 246.43 282.14 256.23 284.17 261.51 303.34 249.84 302.49 246.43"/><polygon class="cls-3" points="284.43 257.32 284.97 248.99 293.12 248.94 292.88 251.12 292.82 252.8 292.1 252.78 291.7 255.76 289.23 255.33 288.62 256.84 284.43 257.32"/><polygon points="285.1 247.54 284.17 246.97 284.2 246.44 294.05 245.39 294 246.2 293.28 247.22 293.21 248.42 294.1 249.71 285 249.22 285.1 247.54"/><polygon class="cls-3" points="285.55 272.11 289.04 272.11 289.96 270.44 289.49 269.42 288.92 269.25 288.56 268.72 285.55 268.72 285.55 272.11"/><polygon class="cls-4" points="232.65 315.2 232.65 323.08 255.63 307.33 254.08 294.94 290.52 294.94 303.8 306.7 299.54 316.24 295.39 314.33 295.39 322.58 302.69 318.23 309.09 306.03 299.27 293.33 323.56 310.06 320.94 313.81 328.36 313.81 327.11 307.83 301.69 287.95 306.77 271.69 313.02 271.69 319.02 275.69 320.77 274.19 318.77 271.69 322.27 272.69 322.52 269.94 304.02 255.19 304.02 258.44 288.52 274.69 254.52 274.69 249.52 276.18 240.52 276.18 225.27 271.93 214.02 278.95 214.02 284.45 225.02 280.43 236.02 280.93 247.52 278.69 244.4 287.2 217.93 308.6 214.02 314.83 220.77 314.83 220.77 310.27 246.19 295.08 250.27 306.22 236.65 315.2 232.65 315.2"/><polygon class="cls-3" points="261.97 269.72 259.31 272.57 259.31 275.86 270.27 281.87 275.25 280.21 281.01 282.65 282.42 278.69 280.91 276.79 273.25 273.35 261.97 269.72"/><polygon class="cls-4" points="284.63 252.91 289.21 255.22 289.21 257.21 283.48 254.64 284.63 252.91"/><polygon points="276.25 293.92 281.01 282.65 275.25 280.21 274.54 281.89 270.48 291.49 270.74 292.42 269.89 292.89 270.19 293.9 269.06 294.86 267.89 297.62 277.77 301.8 278.5 300.07 274.77 295.83 275.65 295.33 275.31 294.35 276.25 293.92"/><polygon class="cls-2" points="274.41 257.05 264.24 267.28 260.16 271.65 275.04 274.15 289.21 257.21 283.48 254.64 274.41 257.05"/><polygon points="276.25 272.65 264.24 267.28 265.51 266 277.35 271.35 276.25 272.65"/><polygon class="cls-1" points="279.77 267.58 284.99 257.87 281.68 255.97 278.62 257.32 273.21 268.29 274.71 271.07 282.74 272.71 285.55 272.17 285.55 268.55 279.77 267.58"/><rect class="cls-5" x="285.55" y="268.55" width="1.44" height="3.63"/><polygon class="cls-8" points="303.26 249.86 306.87 248.97 306.57 246.96 307.12 245.24 306.78 244.94 305.82 245.74 302.49 246.55 303.26 249.86"/><rect class="cls-5" x="302.82" y="246.15" width="1.44" height="3.62" transform="translate(-50.27 79.32) rotate(-13.76)"/><polygon class="cls-3" points="318.96 272.23 288.92 271.02 289.23 270.63 319.27 271.84 318.96 272.23"/><polygon class="cls-4" points="285.31 255.06 282.67 256.16 285.85 257.88 286.96 256.04 285.31 255.06"/><path class="cls-9" d="M312.6,241.08l-8.69,3.15.31.85.53,1.47.6,2.75.73.36.61-.55-.59-3.06,1.8-.66.31.86,1.06-.38L309,245l-.54-1.47,4.48-1.62Zm-5.39,4.22-1.18.43,1-1Z"/><polygon class="cls-7" points="305.64 245.84 304.67 246.72 305.07 249.03 305.77 249.23 307.04 248.92 307.12 247.33 306.87 246.03 305.64 245.84"/><polygon class="cls-7" points="306.15 245.29 306.31 245.58 306.68 245.65 307.21 245.27 306.73 244.83 306.15 245.29"/><ellipse class="cls-10" cx="250" cy="250" rx="112.5" ry="79.01"/></svg>