<svg id="Layer_1" data-name="Layer 1" xmlns="http://www.w3.org/2000/svg" xmlns:xlink="http://www.w3.org/1999/xlink" viewBox="0 0 500 500"><defs><style>.cls-1{fill:#ffb3bf;}.cls-2{fill:#f0ff85;}.cls-3{fill:#ff8094;}.cls-4{fill:#ff4a68;}.cls-5{fill:#ff667f;}.cls-6{fill:#ecff5c;}.cls-7{fill:#ffe200;}.cls-8{fill:#f24763;}.cls-9{fill:#ffccd4;}.cls-10{fill:#1d1d1b;}.cls-11{fill:#b1b1b1;}.cls-12{fill:#3c3c3b;}.cls-13{fill:url(#linear-gradient);}.cls-14{fill:#d9d9d9;}.cls-15{fill:#868686;}.cls-16{fill:#c6c6c5;}.cls-17{fill:#575756;}.cls-18{fill:#6f6f6e;}.cls-19{fill:#ececec;}.cls-20,.cls-21,.cls-22{fill:none;}.cls-20{stroke:#ecff5c;}.cls-20,.cls-21{stroke-miterlimit:10;stroke-width:0.5px;}.cls-21{stroke:#ff4a68;}</style><linearGradient id="linear-gradient" x1="184.06" y1="284.46" x2="309.52" y2="284.46" gradientUnits="userSpaceOnUse"><stop offset="0" stop-color="#454545"/><stop offset="1" stop-color="#878787"/></linearGradient></defs><title>icon-12Artboard 7</title><path class="cls-1" d="M160.55,309.14h68.16a57.13,57.13,0,1,0-68.16,0Z"/><path class="cls-2" d="M174.59,309.14h30.89a36.93,36.93,0,1,0-30.89,0Z"/><path class="cls-3" d="M190,244.51a22.08,22.08,0,1,1,22.08,22.08A22.08,22.08,0,0,1,190,244.51"/><path class="cls-4" d="M202.43,260.2a36.93,36.93,0,1,1,36.93,36.93,36.93,36.93,0,0,1-36.93-36.93"/><path class="cls-5" d="M224.93,272.38a29.82,29.82,0,1,1,29.82,29.81,29.81,29.81,0,0,1-29.82-29.81"/><path class="cls-6" d="M219.17,309.14h21.14a20.94,20.94,0,1,0-21.14,0Z"/><path class="cls-7" d="M223.18,309.14a25.15,25.15,0,1,0-41.5,0Z"/><path class="cls-3" d="M262.13,309.14a20.94,20.94,0,1,0-38.83,0Z"/><path class="cls-8" d="M190.51,223.27a22.36,22.36,0,1,1,22.36,22.36,22.36,22.36,0,0,1-22.36-22.36"/><path class="cls-6" d="M277.27,309.14a15.4,15.4,0,1,0-28.94,0Z"/><path class="cls-9" d="M172.63,186.67a3.46,3.46,0,1,1,3.46,3.46,3.46,3.46,0,0,1-3.46-3.46"/><path class="cls-9" d="M144.41,221.06a3.46,3.46,0,1,1,3.46,3.46,3.46,3.46,0,0,1-3.46-3.46"/><path class="cls-9" d="M159.85,223.19a3.46,3.46,0,1,1,3.46,3.46,3.46,3.46,0,0,1-3.46-3.46"/><path class="cls-8" d="M225.5,208.62a2.94,2.94,0,1,1,2.94,2.94,2.94,2.94,0,0,1-2.94-2.94"/><path class="cls-4" d="M228.44,208.62a2.94,2.94,0,1,1,2.94,2.94,2.94,2.94,0,0,1-2.94-2.94"/><path class="cls-4" d="M151.33,219.74a2.94,2.94,0,1,1,2.94,2.94,2.95,2.95,0,0,1-2.94-2.94"/><path class="cls-7" d="M159.84,259.09a3.46,3.46,0,1,1,3.46,3.46,3.46,3.46,0,0,1-3.46-3.46"/><path class="cls-7" d="M163.3,261.38a2.28,2.28,0,1,1,2.28,2.28,2.28,2.28,0,0,1-2.28-2.28"/><path class="cls-10" d="M283.7,307.94a4.45,4.45,0,1,0,4.46-4.45,4.46,4.46,0,0,0-4.46,4.45"/><path class="cls-10" d="M198.39,307.94a4.45,4.45,0,1,0,4.46-4.45,4.46,4.46,0,0,0-4.46,4.45"/><path class="cls-10" d="M213.85,307.94a4.46,4.46,0,1,0,4.46-4.45,4.46,4.46,0,0,0-4.46,4.45"/><path class="cls-10" d="M268.23,307.94a4.46,4.46,0,1,0,4.46-4.45,4.46,4.46,0,0,0-4.46,4.45"/><rect class="cls-11" x="230.67" y="250.76" width="2.36" height="11.33"/><polygon class="cls-12" points="186.97 299.18 305.15 299.18 309.52 309.18 184.06 309.18 186.97 299.18"/><polygon class="cls-13" points="271.33 269.73 271.33 289.73 309.52 289.73 309.52 299.18 184.06 299.18 184.06 269.73 271.33 269.73"/><rect class="cls-14" x="260.62" y="274.27" width="12.36" height="12.91"/><rect class="cls-15" x="278.24" y="299.18" width="19.82" height="8.73"/><rect class="cls-15" x="192.94" y="299.18" width="19.82" height="8.73"/><rect class="cls-15" x="208.4" y="299.18" width="19.82" height="8.73"/><rect class="cls-15" x="262.78" y="299.18" width="19.82" height="8.73"/><rect class="cls-16" x="222.58" y="261.36" width="10.46" height="8.36"/><rect class="cls-11" x="222.58" y="261.36" width="4.51" height="8.36"/><rect class="cls-16" x="302.97" y="275.66" width="16.36" height="1.82"/><rect class="cls-12" x="302.9" y="277.29" width="8.18" height="1.82"/><rect class="cls-12" x="184.06" y="297.55" width="104.96" height="1.64"/><polygon class="cls-17" points="309.51 299.18 314.97 297.55 314.97 295.91 309.51 294.45 309.51 299.18"/><rect class="cls-18" x="314.97" y="295.91" width="2.46" height="1.63"/><polygon class="cls-14" points="308.06 289.73 299.69 263.09 297.63 261.36 284.31 261.36 282.34 263.09 274.79 289.73 308.06 289.73"/><polygon class="cls-16" points="288.25 261.36 284.31 261.36 282.34 263.09 274.79 289.73 288.25 289.73 288.25 261.36"/><polygon class="cls-14" points="308.06 289.73 299.69 263.09 297.63 261.36 288.25 261.36 288.25 289.73 308.06 289.73"/><rect class="cls-12" x="245.51" y="286.41" width="6.57" height="6.56"/><rect class="cls-12" x="232.4" y="286.41" width="6.57" height="6.56"/><rect class="cls-12" x="219.3" y="286.41" width="6.57" height="6.56"/><rect class="cls-12" x="206.19" y="279.95" width="6.57" height="6.57"/><rect class="cls-12" x="193.08" y="279.95" width="6.57" height="6.57"/><rect class="cls-19" x="184.06" y="269.73" width="68.02" height="6.73"/><polygon class="cls-11" points="277.76 279.09 304.72 279.09 303.63 275.64 278.76 275.64 277.76 279.09"/><path class="cls-19" d="M205.54,225.4a14.52,14.52,0,1,0,14.52-14.52,14.52,14.52,0,0,0-14.52,14.52"/><path class="cls-14" d="M176.6,217.46a10.74,10.74,0,1,0,10.75-10.75,10.75,10.75,0,0,0-10.75,10.75"/><path class="cls-19" d="M187.78,215.85a10.74,10.74,0,1,0,10.74-10.75,10.74,10.74,0,0,0-10.74,10.75"/><path class="cls-14" d="M225.62,247a5.73,5.73,0,1,0,5.73-5.73,5.73,5.73,0,0,0-5.73,5.73"/><path class="cls-14" d="M165.15,210.83a5.72,5.72,0,1,0,5.72-5.73,5.72,5.72,0,0,0-5.72,5.73"/><path class="cls-19" d="M219,235a10.74,10.74,0,1,0,10.74-10.75A10.74,10.74,0,0,0,219,235"/><line class="cls-20" x1="362.08" y1="277.04" x2="335.5" y2="274.71"/><line class="cls-21" x1="342.69" y1="275.03" x2="321.46" y2="274.71"/><line class="cls-20" x1="338.81" y1="270.48" x2="321.65" y2="273.41"/><line class="cls-21" x1="358.17" y1="270.63" x2="334.21" y2="273.76"/><line class="cls-21" x1="353.61" y1="276.62" x2="329.73" y2="275.99"/><ellipse class="cls-22" cx="250" cy="250" rx="112.5" ry="79.01"/></svg>