<svg id="Layer_1" data-name="Layer 1" xmlns="http://www.w3.org/2000/svg" viewBox="0 0 500 500"><defs><style>.cls-1{fill:#d9d9d9;}.cls-2{fill:#c6c6c5;}.cls-3{fill:#b1b1b1;}.cls-4{fill:#666;}.cls-5{fill:#9c9b9b;}.cls-6{fill:#309;}.cls-7{fill:none;}</style></defs><title>icon-23Artboard 7</title><polygon class="cls-1" points="213.75 314.01 213.63 223.54 219.81 217.42 252.54 217.38 241.1 244.93 252.76 269.91 241.17 290.98 253.1 313.96 213.75 314.01"/><polygon class="cls-2" points="241.17 290.98 252.76 269.91 241.1 244.93 252.54 217.38 219.81 217.42 213.63 223.54 213.75 313.7 252.94 313.64 241.17 290.98"/><polygon class="cls-3" points="279.53 217.34 279.55 230.25 285.96 230.24 292.44 223.81 285.94 217.33 279.53 217.34"/><polygon class="cls-1" points="258.7 313.95 247.13 290.97 258.64 269.9 247.06 244.92 258.56 217.37 285.89 217.33 286.11 307.8 279.93 313.92 258.7 313.95"/><path class="cls-4" d="M266.47,294c.11.64.85.84,1.35,1s1.05-.18,1.44-.37c2.44-1.19,5.74.19,8.36.19a1.2,1.2,0,0,0,0-2.39c-3,0-5.58-.76-8.6-.26a1.47,1.47,0,0,0-.25-.73,1.9,1.9,0,0,0-2-1.12c-.05-.11-.1-.23-.16-.34a1.12,1.12,0,0,0-.75-.52c.85-1.47,1.38-3,.83-4.29a1.18,1.18,0,0,0-1-.59c-1.6-.06-3,1.63-4,2.63a77.48,77.48,0,0,0-7,8.25c-.94,1.22,1.14,2.41,2.07,1.21a86.55,86.55,0,0,1,6.21-7.28c-.53.88-1.1,1.74-1.69,2.56-.85,1.32,1.19,2.44,2.07,1.21a2.72,2.72,0,0,1,.77-.75l-.18.44h0c-.05.09-.1.19-.13.28-.54,1.34,1.46,2,2.19.92a7.54,7.54,0,0,0,.5-.83,3.93,3.93,0,0,0,0,.75"/><polygon class="cls-5" points="280.15 313.92 273.96 307.89 280.13 301.85 252.62 301.89 258.7 313.95 280.15 313.92"/><polygon class="cls-5" points="213.75 314.01 207.56 307.99 213.74 301.94 246.84 301.89 253.1 313.96 213.75 314.01"/><path class="cls-4" d="M241.21,296.12a3.51,3.51,0,0,0-1-.73,2.63,2.63,0,0,0-1.07-.19H239a1.38,1.38,0,0,0-1.08-.91,2.18,2.18,0,0,0-1.68.45c0-.2.09-.44.14-.61a3.92,3.92,0,0,0,.17-1.65,1,1,0,0,0-.87-.76,4.61,4.61,0,0,0-2.8,1.07c-.83.57-1.37.9-1.9.72s-.72-2-.41-3.56.8-4,2.13-5.25c.45-.4,1.09-.84,1.63-.63a3,3,0,0,1,1.27,2.51.95.95,0,1,0,1.89-.18c-.19-2-1.14-3.59-2.46-4.1-.8-.31-2.07-.39-3.6,1s-2.28,4-2.72,6.29c-.22,1.12-.76,4.87,1.64,5.72,1.46.51,2.65-.28,3.6-.93l.51-.34a2.54,2.54,0,0,0,.17,2c.62.93,1.49,1,2.6.3l.14-.09a1.25,1.25,0,0,0,.61.61,2.42,2.42,0,0,0,1.09.21,1.47,1.47,0,0,1,.35,0,1.56,1.56,0,0,1,.48.36,5.34,5.34,0,0,0,.53.45.95.95,0,0,0,1.13-1.52,4.64,4.64,0,0,1-.35-.31"/><rect class="cls-6" x="262.56" y="263.36" width="1.01" height="1.01" transform="translate(-109.53 263.62) rotate(-45.05)"/><path class="cls-4" d="M229.92,238.39l13.91,0,1.06-2.55-15,0a1.27,1.27,0,1,0,0,2.55Z"/><path class="cls-4" d="M229.91,231.55l16.76,0,1.06-2.55-17.82,0a1.27,1.27,0,1,0,0,2.55Z"/><path class="cls-4" d="M229.93,245.24l11.32,0-.14-.3.93-2.24-12.11,0a1.27,1.27,0,1,0,0,2.55Z"/><path class="cls-4" d="M252.66,231.51l17.61,0a1.27,1.27,0,0,0,0-2.55l-16.54,0Z"/><path class="cls-4" d="M270.28,235.79l-19.42,0-1.06,2.55,20.48,0a1.27,1.27,0,0,0,0-2.55Z"/><path class="cls-4" d="M244.35,251.88l-1.1-2.35-13.32,0a1.27,1.27,0,1,0,0,2.55l13.77,0A1.24,1.24,0,0,0,244.35,251.88Z"/><path class="cls-4" d="M270.29,242.64l-22.28,0-.94,2.25.14.3,23.09,0a1.27,1.27,0,0,0,0-2.55Z"/><polygon class="cls-3" points="246.84 301.89 213.74 301.94 207.56 307.99 249.97 307.93 246.84 301.89"/><polygon class="cls-3" points="252.62 301.89 255.66 307.92 273.96 307.89 280.13 301.85 252.62 301.89"/><path class="cls-6" d="M249.92,290a21.68,21.68,0,0,0-.06-43.37c-.66,0-1.31,0-1.95.1l8.75,18.88,6.45-4.06,4.43,3.42-4.91,3.12-9.79,13.7-.59-.2-4.54,8.31A21.83,21.83,0,0,0,249.92,290Z"/><path class="cls-6" d="M241.86,289.72a22.84,22.84,0,0,1,.15-42.84l-.44-.95a23.88,23.88,0,0,0-.22,44.72Z"/><path class="cls-6" d="M249.85,244.41a24.12,24.12,0,0,0-2.64.16l-.15.36.31.67a22.88,22.88,0,1,1-.22,45.43l.56,1.11c.73.07,1.46.11,2.21.11a23.92,23.92,0,1,0-.07-47.83Z"/><path class="cls-6" d="M228.2,268.35a21.7,21.7,0,0,0,14.24,20.31l4.8-8.73-12.3-4.08,6.07-1-7.43-14.25,16.7,4L242.52,248A21.7,21.7,0,0,0,228.2,268.35Z"/><path class="cls-7" d="M362.5,251.3c-.41,43.64-51.11,78.42-113.24,77.7S137.09,292.33,137.5,248.7s51.11-78.43,113.24-77.7S362.91,207.67,362.5,251.3Z"/></svg>