<svg id="Layer_1" data-name="Layer 1" xmlns="http://www.w3.org/2000/svg" xmlns:xlink="http://www.w3.org/1999/xlink" viewBox="0 0 500 500"><defs><style>.cls-1,.cls-4{fill:none;}.cls-2{fill:#ff4a68;}.cls-3{clip-path:url(#clip-path);}.cls-4{stroke:#fff;stroke-miterlimit:10;stroke-width:0.75px;}.cls-5{fill:#309;}.cls-6{fill:#d9d9d9;}.cls-7{fill:#999;}.cls-8{fill:#3c3c3b;}.cls-9{fill:#575756;}.cls-10{fill:#f5f1f1;}.cls-11{fill:#ececec;}.cls-12{fill:#6f6f6e;}.cls-13{fill:#333;}.cls-14{fill:#fff;}.cls-15{fill:#666;}.cls-16{fill:#4d4d4d;}.cls-17{fill:#757575;}</style><clipPath id="clip-path"><rect class="cls-1" x="224.42" y="193.43" width="31.6" height="19.31"/></clipPath></defs><title>icon-37Artboard 7</title><rect class="cls-2" x="224.42" y="193.43" width="31.6" height="19.31"/><rect class="cls-2" x="224.42" y="201.8" width="31.6" height="2.56"/><g class="cls-3"><polygon class="cls-4" points="256.02 204.36 256.02 201.8 245.15 201.8 259.11 194.04 257.87 191.8 241.5 200.91 241.5 193.43 238.94 193.43 238.94 200.91 222.58 191.8 221.34 194.04 235.3 201.8 224.42 201.8 224.42 204.36 235.3 204.36 221.34 212.13 222.58 214.36 238.94 205.25 238.94 212.74 241.5 212.74 241.5 205.25 257.87 214.36 259.11 212.13 245.15 204.36 256.02 204.36"/><rect class="cls-5" x="219.32" y="201.8" width="41.8" height="2.56" transform="translate(-68.43 142.42) rotate(-29.09)"/><rect class="cls-5" x="238.94" y="182.18" width="2.56" height="41.8" transform="translate(-54.04 314.26) rotate(-60.91)"/></g><rect class="cls-5" x="224.42" y="201.8" width="31.6" height="2.56"/><rect class="cls-5" x="238.94" y="193.43" width="2.56" height="19.31"/><path class="cls-6" d="M239.25,249.28a2.5,2.5,0,1,0,2.5-2.5,2.5,2.5,0,0,0-2.5,2.5"/><polygon class="cls-7" points="248.97 292.08 286.99 292.08 289.42 289.49 283.7 289.49 248.97 292.08"/><rect class="cls-8" x="279.92" y="258.84" width="1.06" height="32.27"/><rect class="cls-9" x="278.61" y="263.74" width="3.7" height="0.79"/><rect class="cls-9" x="276.73" y="272.16" width="7.44" height="0.79"/><rect class="cls-2" x="268.15" y="241.67" width="6.38" height="11.69"/><rect class="cls-10" x="274.52" y="241.67" width="6.38" height="11.69"/><rect class="cls-5" x="280.9" y="241.67" width="6.38" height="11.69"/><path class="cls-6" d="M268.92,266.45a4.48,4.48,0,1,0,4.48-4.48,4.48,4.48,0,0,0-4.48,4.48"/><path class="cls-6" d="M258.34,263.23a4.48,4.48,0,1,0,4.48-4.48,4.48,4.48,0,0,0-4.48,4.48"/><path class="cls-11" d="M264.16,266.25a4,4,0,1,0,4-4,3.95,3.95,0,0,0-4,4"/><path class="cls-6" d="M274.83,273.61a1.42,1.42,0,1,0,1.42-1.42,1.42,1.42,0,0,0-1.42,1.42"/><path class="cls-6" d="M253.64,262.17a1.42,1.42,0,1,0,1.42-1.42,1.42,1.42,0,0,0-1.42,1.42"/><path class="cls-11" d="M272,269.74a3.57,3.57,0,1,0,3.57-3.57,3.57,3.57,0,0,0-3.57,3.57"/><rect class="cls-12" x="268.67" y="269.37" width="3.31" height="11.21"/><rect class="cls-13" x="267.73" y="274.04" width="5.19" height="21.59"/><rect class="cls-9" x="268.12" y="269.37" width="4.41" height="0.83"/><rect class="cls-14" x="268.12" y="272.16" width="4.41" height="0.83"/><rect class="cls-12" x="275.3" y="276.06" width="1.84" height="6.25"/><rect class="cls-13" x="274.77" y="278.67" width="2.89" height="12.04"/><rect class="cls-9" x="274.99" y="276.06" width="2.46" height="0.46"/><rect class="cls-14" x="274.99" y="277.62" width="2.46" height="0.46"/><path class="cls-6" d="M258,253a7.31,7.31,0,1,0,7.31-7.31A7.31,7.31,0,0,0,258,253"/><path class="cls-6" d="M244.82,251.24a3.85,3.85,0,1,0,4-3.74,3.85,3.85,0,0,0-4,3.74"/><path class="cls-11" d="M251.52,247.95a4.81,4.81,0,1,0,4.81-4.81,4.81,4.81,0,0,0-4.81,4.81"/><path class="cls-11" d="M262.27,256.43a8.08,8.08,0,1,0,8.08-8.08,8.08,8.08,0,0,0-8.08,8.08"/><polygon class="cls-15" points="286.99 292.08 281.89 308.15 286.19 297.73 289.42 289.49 286.99 292.08"/><rect class="cls-8" x="267.07" y="235.67" width="1.82" height="55.1"/><rect class="cls-9" x="264.82" y="244.03" width="6.31" height="1.36"/><rect class="cls-9" x="261.62" y="258.41" width="12.71" height="1.36"/><polygon class="cls-16" points="281.89 308.15 254.7 308.15 248.97 292.08 262.49 287.31 273.47 287.31 286.99 292.08 281.89 308.15"/><polygon class="cls-17" points="271.52 308.15 264.44 308.15 262.49 287.31 273.46 287.31 271.52 308.15"/><rect class="cls-2" x="304.34" y="272.32" width="10.31" height="6.3"/><rect class="cls-10" x="304.34" y="273.11" width="10.31" height="0.79"/><rect class="cls-10" x="304.34" y="274.68" width="10.31" height="0.79"/><rect class="cls-10" x="304.34" y="276.26" width="10.31" height="0.79"/><rect class="cls-10" x="304.34" y="277.83" width="10.31" height="0.79"/><rect class="cls-5" x="309.5" y="272.32" width="5.16" height="3.15"/><polygon class="cls-7" points="293.92 299.49 314.41 299.49 315.72 298.09 312.63 298.09 293.92 299.49"/><rect class="cls-8" x="310.6" y="281.57" width="0.57" height="17.39"/><rect class="cls-9" x="309.89" y="284.21" width="1.99" height="0.43"/><rect class="cls-9" x="308.88" y="288.75" width="4.01" height="0.43"/><path class="cls-6" d="M304.67,285.67a2.42,2.42,0,1,0,2.42-2.42,2.42,2.42,0,0,0-2.42,2.42"/><path class="cls-6" d="M299,283.94a2.42,2.42,0,1,0,2.42-2.42,2.42,2.42,0,0,0-2.42,2.42"/><path class="cls-11" d="M302.11,285.57a2.13,2.13,0,1,0,2.13-2.13,2.13,2.13,0,0,0-2.13,2.13"/><path class="cls-6" d="M307.85,289.53a.76.76,0,1,0,.76-.76.76.76,0,0,0-.76.76"/><path class="cls-6" d="M296.44,283.37a.76.76,0,1,0,.76-.76.76.76,0,0,0-.76.76"/><path class="cls-11" d="M306.31,287.45a1.92,1.92,0,1,0,1.92-1.92,1.92,1.92,0,0,0-1.92,1.92"/><rect class="cls-12" x="304.54" y="287.25" width="1.78" height="6.04"/><rect class="cls-13" x="304.03" y="289.77" width="2.8" height="11.64"/><rect class="cls-9" x="304.24" y="287.25" width="2.38" height="0.45"/><rect class="cls-14" x="304.24" y="288.75" width="2.38" height="0.45"/><rect class="cls-12" x="308.11" y="290.85" width="0.99" height="3.37"/><rect class="cls-13" x="307.82" y="292.26" width="1.56" height="6.49"/><rect class="cls-9" x="307.94" y="290.85" width="1.32" height="0.25"/><rect class="cls-14" x="307.94" y="291.69" width="1.32" height="0.25"/><path class="cls-6" d="M298.8,278.43a3.94,3.94,0,1,0,3.94-3.94,3.94,3.94,0,0,0-3.94,3.94"/><path class="cls-6" d="M291.68,277.48a2.08,2.08,0,1,0,2.14-2,2.08,2.08,0,0,0-2.14,2"/><path class="cls-11" d="M295.29,275.7a2.59,2.59,0,1,0,2.59-2.59,2.59,2.59,0,0,0-2.59,2.59"/><path class="cls-11" d="M301.09,280.27a4.35,4.35,0,1,0,4.35-4.35,4.35,4.35,0,0,0-4.35,4.35"/><polygon class="cls-15" points="314.41 299.49 311.66 308.15 313.98 302.53 315.72 298.09 314.41 299.49"/><rect class="cls-8" x="303.67" y="269.08" width="0.98" height="29.7"/><rect class="cls-9" x="302.46" y="273.59" width="3.4" height="0.73"/><rect class="cls-9" x="300.74" y="281.34" width="6.85" height="0.73"/><polygon class="cls-16" points="311.66 308.15 297.01 308.15 293.92 299.49 301.2 296.92 307.12 296.92 314.41 299.49 311.66 308.15"/><polygon class="cls-17" points="306.07 308.15 302.25 308.15 301.21 296.92 307.12 296.92 306.07 308.15"/><polygon class="cls-7" points="189.55 286.74 256.47 286.74 260.75 282.16 250.68 282.16 189.55 286.74"/><rect class="cls-8" x="244.03" y="226.46" width="1.87" height="56.8"/><rect class="cls-9" x="241.72" y="235.08" width="6.51" height="1.4"/><rect class="cls-9" x="238.42" y="249.9" width="13.1" height="1.4"/><path class="cls-6" d="M210.61,240.11a4.68,4.68,0,1,0,4.68-4.68,4.68,4.68,0,0,0-4.68,4.68"/><path class="cls-11" d="M215.86,234.65a7.63,7.63,0,1,0,7.63-7.63,7.63,7.63,0,0,0-7.63,7.63"/><path class="cls-6" d="M234.22,253.17a3.54,3.54,0,1,0,3.54-3.54,3.54,3.54,0,0,0-3.54,3.54"/><path class="cls-6" d="M198.77,235.54a3.56,3.56,0,1,0,3.56-3.56,3.56,3.56,0,0,0-3.56,3.56"/><path class="cls-11" d="M231.11,247.36a6.32,6.32,0,1,0,6.32-6.32,6.31,6.31,0,0,0-6.32,6.32"/><rect class="cls-12" x="224.23" y="246.75" width="5.82" height="19.73"/><rect class="cls-13" x="222.58" y="254.97" width="9.13" height="38.01"/><rect class="cls-9" x="223.26" y="246.75" width="7.76" height="1.47"/><rect class="cls-14" x="223.26" y="251.66" width="7.76" height="1.46"/><rect class="cls-12" x="235.89" y="258.53" width="3.25" height="11"/><rect class="cls-13" x="234.96" y="263.11" width="5.09" height="21.19"/><rect class="cls-9" x="235.35" y="258.53" width="4.33" height="0.82"/><rect class="cls-14" x="235.35" y="261.27" width="4.33" height="0.82"/><path class="cls-6" d="M206.13,222.46A11.47,11.47,0,1,0,217.6,211a11.47,11.47,0,0,0-11.47,11.47"/><path class="cls-6" d="M183.51,215a11,11,0,1,0,10.95-10.95A11,11,0,0,0,183.51,215"/><path class="cls-11" d="M193.34,211.29a12.2,12.2,0,1,0,12.2-12.2,12.2,12.2,0,0,0-12.2,12.2"/><path class="cls-6" d="M225.51,238.64a6.37,6.37,0,1,0,6.37-6.37,6.37,6.37,0,0,0-6.37,6.37"/><path class="cls-6" d="M173.47,209.24a4.75,4.75,0,1,0,4.75-4.75,4.75,4.75,0,0,0-4.75,4.75"/><path class="cls-11" d="M217.35,225.1A13.09,13.09,0,1,0,230.44,212a13.09,13.09,0,0,0-13.09,13.09"/><polygon class="cls-15" points="256.47 286.74 247.5 315.01 255.06 296.68 260.75 282.16 256.47 286.74"/><rect class="cls-8" x="221.41" y="187.43" width="3.2" height="96.99"/><rect class="cls-9" x="217.45" y="202.15" width="11.11" height="2.39"/><rect class="cls-9" x="211.82" y="227.45" width="22.37" height="2.39"/><polygon class="cls-16" points="247.5 315.01 199.64 315.01 189.55 286.74 213.35 278.34 232.67 278.34 256.47 286.74 247.5 315.01"/><polygon class="cls-17" points="229.24 315.01 216.78 315.01 213.35 278.34 232.67 278.34 229.24 315.01"/><ellipse class="cls-1" cx="250" cy="250" rx="112.5" ry="79.01"/></svg>