<svg id="Layer_1" data-name="Layer 1" xmlns="http://www.w3.org/2000/svg" viewBox="0 0 500 500"><defs><style>.cls-1{fill:#ccc;}.cls-2{fill:#ececec;}.cls-3{fill:#333;}.cls-4{fill:#e6e6e6;}.cls-5{fill:#d9d9d9;}.cls-6{fill:#ededed;}.cls-7{fill:#309;}.cls-8{fill:#1a1a1a;}.cls-9{fill:#f2f2f2;}.cls-10{fill:#2b2b2b;}.cls-11{fill:#868686;}.cls-12{fill:#383838;}.cls-13{fill:#cecdce;}.cls-14{fill:#4d4d4d;}.cls-15{fill:#ff667f;}.cls-16{fill:#ecff5c;}.cls-17{fill:#222;}.cls-18{fill:#444;}.cls-19{fill:none;}</style></defs><title>icon-15Artboard 7</title><polygon class="cls-1" points="336.15 278.57 335.4 280.36 335.36 281.58 335.64 282.45 336.19 282.49 337.2 281.14 337.15 278.77 336.15 278.57"/><polygon class="cls-2" points="335.64 282.45 336.21 281.67 336.37 279.97 336.18 279.61 335.9 281.31 335.74 281.69 335.49 281.76 335.13 281.45 335.14 280.1 335.88 278.07 335.66 273.69 337.8 273.68 337.65 278.07 337.41 280.98 336.19 282.49 335.64 282.45"/><polygon class="cls-3" points="324.8 306.02 324.57 304.83 327.69 304.83 327.69 306.76 327.69 308.17 321.29 308.17 321.29 307.14 324.8 306.02"/><polygon class="cls-3" points="330.56 306.02 330.79 304.83 327.69 304.83 327.69 306.76 327.69 308.17 334.07 308.17 334.07 307.14 330.56 306.02"/><polygon class="cls-4" points="329.8 255.81 329.8 251.85 327.88 253.06 325.65 251.44 325.65 255.31 327.64 261.8 329.8 255.81"/><polygon class="cls-2" points="327.69 253.93 326.66 253.8 325.16 252.96 324.31 250.45 323.93 250.35 323.39 249 323.83 247.91 324.07 247.91 324.01 245.19 325.4 243.45 327.69 243.02 327.69 253.93"/><polygon class="cls-5" points="327.7 253.93 328.7 253.8 330.06 252.96 330.9 250.45 331.28 250.35 331.82 249 331.38 247.91 331.14 247.91 331.2 245.19 329.81 243.45 327.67 243.02 327.67 247.49 327.12 250.62 327.67 250.89 327.7 253.93"/><path class="cls-6" d="M327.68,259.82c1.3-.49,2.42-4.78,2.42-4.78l5,1.64,2.42,4.77.65,15.39v1.69H335v-1.78l-1-12.24v11.14h-6.32c0-5.57,0-14.17,0-15.81"/><rect class="cls-4" x="334.94" y="276.61" width="3.29" height="1.89"/><polygon class="cls-1" points="319.23 278.57 319.99 280.36 320.03 281.58 319.75 282.45 319.2 282.49 318.19 281.14 318.24 278.77 319.23 278.57"/><polygon class="cls-2" points="319.75 282.45 319.18 281.67 319.02 279.97 319.21 279.61 319.49 281.31 319.65 281.69 319.9 281.76 320.26 281.45 320.25 280.1 319.5 278.07 319.73 273.69 317.59 273.68 317.74 278.07 317.97 280.98 319.2 282.49 319.75 282.45"/><path class="cls-4" d="M327.71,259.82c-1.3-.49-2.41-4.78-2.41-4.78l-5,1.64-2.42,4.77-.66,15.39v1.69h3.24v-1.78l1-12.24v11.14h6.32c0-5.57,0-14.17,0-15.81"/><rect class="cls-4" x="317.16" y="276.61" width="3.29" height="1.89"/><polygon class="cls-3" points="331.14 247.91 328.93 244.83 327.69 244.83 327.69 242.2 330.73 242.98 331.97 245.45 331.14 247.91"/><polygon class="cls-3" points="324.07 247.91 326.88 246.68 328.93 244.83 327.69 242.2 324.86 242.98 323.4 245.45 324.07 247.91"/><polygon class="cls-7" points="327.66 259.82 322.06 256.09 325.65 254.36 327.66 259.82"/><polygon class="cls-7" points="327.87 259.82 333.47 256.14 329.88 254.36 327.87 259.82"/><polygon class="cls-8" points="327.66 275.64 328.27 306.35 323.05 306.35 321.39 275.64 327.66 275.64"/><polygon points="327.68 275.64 327.68 306.35 332.33 306.35 334.04 275.64 327.68 275.64"/><polygon class="cls-3" points="280.92 233.67 278.85 236.93 278.85 246.12 290.54 246.12 290.54 236.99 288.02 233.03 280.92 233.67"/><rect class="cls-3" x="288.3" y="232.47" width="0.58" height="2.98"/><rect class="cls-3" x="280.33" y="232.47" width="0.57" height="2.98"/><polygon class="cls-1" points="295.06 272.43 294.15 274.58 294.11 276.05 294.44 277.1 295.11 277.16 296.32 275.53 296.26 272.66 295.06 272.43"/><polygon class="cls-2" points="294.44 277.1 295.13 276.16 295.31 274.11 295.09 273.68 294.76 275.73 294.56 276.19 294.26 276.27 293.83 275.9 293.84 274.27 294.74 271.82 294.46 266.53 297.05 266.52 296.87 271.82 296.58 275.32 295.11 277.15 294.44 277.1"/><polygon class="cls-5" points="281.65 305.57 280.53 295.54 280.74 294.39 284.83 294.39 284.83 295.72 284.83 306.46 284.83 308.17 277.12 308.17 277.12 306.93 281.65 305.57"/><polygon class="cls-2" points="287.95 305.62 289.13 295.54 288.92 294.39 284.83 294.39 284.83 295.72 284.83 306.46 284.83 308.17 292.46 308.17 292.46 306.93 287.95 305.62"/><polygon class="cls-4" points="281.35 305.57 281.08 304.14 284.83 304.14 284.83 306.46 284.83 308.17 277.12 308.17 277.12 306.93 281.35 305.57"/><polygon class="cls-9" points="288.31 305.57 288.59 304.14 284.83 304.14 284.83 306.46 284.83 308.17 292.55 308.17 292.55 306.93 288.31 305.57"/><polygon class="cls-4" points="287.39 243.6 287.39 240.15 285.07 241.61 282.38 239.65 282.38 244.32 284.77 245.43 287.39 243.6"/><polygon class="cls-2" points="284.83 241.88 283.72 241.74 282.11 240.84 281.2 238.14 280.79 238.02 280.21 236.57 280.68 235.4 280.94 235.4 280.87 232.47 282.38 230.6 284.83 230.13 284.83 241.88"/><polygon class="cls-5" points="284.85 241.88 285.92 241.74 287.39 240.84 288.3 238.14 288.71 238.02 289.29 236.57 288.82 235.4 288.55 235.4 288.62 232.47 287.12 230.6 284.82 230.13 284.82 234.95 284.22 238.31 284.82 238.61 284.85 241.88"/><path class="cls-6" d="M284.83,243.44c1.57-.59,2.91-1.27,2.91-1.27V244l6.08,2L298,262.41l-.47,2.43v2h-3.91v-2.15l-1.29-9.31-1.13,5.36v2l5.95,42.49H284.83c-.62-52.68-.37-59.94,0-61.82"/><rect class="cls-4" x="293.6" y="264.57" width="3.97" height="2.28"/><polygon class="cls-1" points="274.7 272.43 275.6 274.58 275.65 276.05 275.32 277.1 274.65 277.16 273.44 275.53 273.49 272.66 274.7 272.43"/><polygon class="cls-2" points="275.32 277.1 274.63 276.16 274.44 274.11 274.67 273.68 275 275.73 275.2 276.19 275.49 276.27 275.93 275.9 275.92 274.27 275.02 271.82 275.29 266.53 272.71 266.52 272.89 271.82 273.17 275.32 274.65 277.15 275.32 277.1"/><path class="cls-4" d="M284.92,243.44c-1.57-.59-2.91-1.27-2.91-1.27V244l-6.36,2.07-3.91,16.34.47,2.43v2h3.91v-2.15l1.09-9.31,1.15,5.36v2l-5.77,42.49h12.33c0-52.09,0-59.41,0-61.82"/><rect class="cls-9" x="272.19" y="264.57" width="3.98" height="2.28"/><rect class="cls-9" x="278.37" y="260.78" width="12.84" height="1.98"/><polygon class="cls-3" points="288.69 234.19 286.03 231.67 284.69 231.67 284.68 228.59 287.74 228.93 289.32 231.68 288.69 234.19"/><polygon class="cls-3" points="280.67 234.19 283.33 231.67 284.94 231.67 284.68 228.59 281.62 228.93 280.04 231.68 280.67 234.19"/><polygon class="cls-3" points="256.25 230.83 254.1 234.22 254.1 243.76 266.24 243.76 266.24 234.27 263.63 230.17 256.25 230.83"/><rect class="cls-3" x="263.92" y="229.59" width="0.59" height="3.09"/><rect class="cls-3" x="255.64" y="229.59" width="0.6" height="3.09"/><polygon class="cls-1" points="270.93 271.06 269.99 273.3 269.94 274.83 270.29 275.92 270.98 275.98 272.24 274.28 272.18 271.3 270.93 271.06"/><polygon class="cls-2" points="270.29 275.92 271.01 274.94 271.2 272.81 270.96 272.37 270.62 274.49 270.41 274.98 270.1 275.06 269.65 274.67 269.66 272.98 270.6 270.43 270.31 264.94 273 264.93 272.81 270.43 272.51 274.07 270.98 275.98 270.29 275.92"/><polygon class="cls-5" points="257.01 305.48 255.84 295.06 256.07 293.87 260.31 293.87 260.31 295.25 260.31 306.4 260.31 308.17 252.3 308.17 252.3 306.88 257.01 305.48"/><polygon class="cls-2" points="263.55 305.52 264.78 295.06 264.56 293.87 260.31 293.87 260.31 295.25 260.31 306.4 260.31 308.17 268.24 308.17 268.24 306.88 263.55 305.52"/><polygon class="cls-4" points="256.7 305.48 256.41 303.98 260.31 303.98 260.31 306.4 260.31 308.17 252.3 308.17 252.3 306.88 256.7 305.48"/><polygon class="cls-9" points="263.93 305.48 264.21 303.98 260.31 303.98 260.31 306.4 260.31 308.17 268.33 308.17 268.33 306.88 263.93 305.48"/><polygon class="cls-4" points="262.96 241.14 262.96 237.56 260.56 239.07 257.77 237.04 257.77 241.89 260.25 243.04 262.96 241.14"/><polygon class="cls-2" points="260.31 239.35 259.16 239.21 257.49 238.27 256.54 235.47 256.12 235.35 255.52 233.84 256 232.62 256.27 232.62 256.21 229.59 257.77 227.64 260.31 227.16 260.31 239.35"/><polygon class="cls-5" points="260.33 239.35 261.44 239.21 262.97 238.27 263.92 235.47 264.34 235.35 264.94 233.84 264.45 232.62 264.18 232.62 264.25 229.59 262.69 227.64 260.3 227.16 260.3 232.15 259.68 235.65 260.31 235.96 260.33 239.35"/><path class="cls-6" d="M260.31,241c1.63-.62,3-1.32,3-1.32v1.91l6.31,2.06L274,260.67l-.48,2.53v2.12h-4.06v-2.23l-1.34-9.66L266.94,259V261l6.17,44.11h-12.8c-.65-54.69-.38-62.23,0-64.17"/><rect class="cls-4" x="269.41" y="262.91" width="4.12" height="2.36"/><polygon class="cls-1" points="249.79 271.06 250.73 273.3 250.78 274.83 250.44 275.92 249.75 275.98 248.48 274.28 248.54 271.3 249.79 271.06"/><polygon class="cls-2" points="250.44 275.92 249.72 274.94 249.53 272.81 249.76 272.37 250.11 274.49 250.31 274.98 250.62 275.06 251.07 274.67 251.06 272.98 250.13 270.43 250.41 264.94 247.73 264.93 247.92 270.43 248.21 274.07 249.75 275.98 250.44 275.92"/><path class="cls-4" d="M260.41,241c-1.63-.62-3-1.32-3-1.32v1.91l-6.6,2.15-4.05,17,.49,2.53v2.12h4.06v-2.23l1.13-9.66,1.2,5.56V261l-6,44.11h12.8c0-54.08,0-61.67,0-64.17"/><rect class="cls-9" x="247.19" y="262.91" width="4.13" height="2.36"/><rect class="cls-9" x="253.61" y="258.98" width="13.33" height="2.06"/><polygon class="cls-3" points="264.32 231.37 261.56 228.75 260.17 228.75 260.15 225.55 263.34 225.91 264.97 228.76 264.32 231.37"/><polygon class="cls-3" points="256 231.37 258.75 228.75 260.43 228.75 260.15 225.55 256.98 225.91 255.34 228.76 256 231.37"/><polygon class="cls-3" points="231.4 228.67 229.19 232.15 229.19 241.95 241.66 241.95 241.66 232.21 238.98 227.99 231.4 228.67"/><rect class="cls-3" x="239.28" y="227.39" width="0.61" height="3.18"/><rect class="cls-3" x="230.77" y="227.39" width="0.61" height="3.18"/><polygon class="cls-1" points="246.48 270.03 245.52 272.33 245.47 273.9 245.83 275.01 246.53 275.07 247.83 273.34 247.77 270.27 246.48 270.03"/><polygon class="cls-2" points="245.83 275.01 246.56 274.01 246.76 271.82 246.52 271.37 246.16 273.55 245.95 274.05 245.63 274.13 245.17 273.73 245.18 272 246.14 269.38 245.85 263.73 248.61 263.72 248.42 269.38 248.12 273.12 246.53 275.07 245.83 275.01"/><polygon class="cls-5" points="232.18 305.4 230.98 294.69 231.21 293.47 235.57 293.47 235.57 294.88 235.57 306.35 235.57 308.17 227.34 308.17 227.34 306.84 232.18 305.4"/><polygon class="cls-2" points="238.89 305.44 240.16 294.69 239.94 293.47 235.57 293.47 235.57 294.88 235.57 306.35 235.57 308.17 243.72 308.17 243.72 306.84 238.89 305.44"/><polygon class="cls-4" points="231.86 305.4 231.56 303.87 235.57 303.87 235.57 306.35 235.57 308.17 227.34 308.17 227.34 306.84 231.86 305.4"/><polygon class="cls-9" points="239.28 305.4 239.58 303.87 235.57 303.87 235.57 306.35 235.57 308.17 243.81 308.17 243.81 306.84 239.28 305.4"/><polygon class="cls-4" points="238.3 239.27 238.3 235.58 235.83 237.14 232.95 235.05 232.95 240.04 235.51 241.22 238.3 239.27"/><polygon class="cls-2" points="235.57 237.43 234.39 237.28 232.67 236.32 231.69 233.44 231.26 233.31 230.64 231.76 231.14 230.51 231.42 230.51 231.35 227.39 232.95 225.39 235.57 224.89 235.57 237.43"/><polygon class="cls-5" points="235.58 237.43 236.74 237.28 238.3 236.32 239.27 233.44 239.71 233.31 240.32 231.76 239.82 230.51 239.55 230.51 239.62 227.39 238.02 225.39 235.56 224.89 235.56 230.03 234.92 233.62 235.56 233.94 235.58 237.43"/><path class="cls-6" d="M235.57,239.09c1.67-.64,3.11-1.36,3.11-1.36v2l6.49,2.12,4.46,17.53-.5,2.6v2.18H245v-2.3l-1.37-9.93-1.21,5.72v2.11l6.35,45.34H235.57c-.67-56.22-.39-64,0-66"/><rect class="cls-4" x="244.93" y="261.65" width="4.23" height="2.43"/><polygon class="cls-1" points="224.75 270.03 225.72 272.33 225.78 273.9 225.42 275.01 224.71 275.07 223.41 273.34 223.47 270.27 224.75 270.03"/><polygon class="cls-2" points="225.42 275.01 224.68 274.01 224.48 271.82 224.73 271.37 225.08 273.55 225.29 274.05 225.61 274.13 226.07 273.73 226.06 272 225.1 269.38 225.39 263.73 222.63 263.72 222.82 269.38 223.13 273.12 224.71 275.07 225.42 275.01"/><path class="cls-4" d="M235.67,239.09c-1.67-.64-3.11-1.36-3.11-1.36v2l-6.79,2.21-4.17,17.44.5,2.6v2.18h4.17v-2.3l1.17-9.93,1.23,5.72v2.11l-6.16,45.34h13.16c0-55.59,0-63.39,0-66"/><rect class="cls-9" x="222.08" y="261.65" width="4.24" height="2.43"/><rect class="cls-9" x="228.67" y="257.6" width="13.71" height="2.11"/><polygon class="cls-3" points="239.69 229.22 236.85 226.53 235.42 226.53 235.41 223.24 238.68 223.61 240.36 226.54 239.69 229.22"/><polygon class="cls-3" points="231.13 229.22 233.97 226.53 235.69 226.53 235.41 223.24 232.14 223.61 230.46 226.54 231.13 229.22"/><polygon class="cls-3" points="205.1 226.63 204.12 222.96 205.45 219.91 209.27 218.06 212.88 219.91 213.84 224.07 212.96 226.63 205.1 226.63"/><polygon class="cls-1" points="220.97 267.32 219.94 269.78 219.88 271.46 220.26 272.66 221.02 272.73 222.41 270.86 222.35 267.58 220.97 267.32"/><polygon class="cls-2" points="220.26 272.66 221.05 271.59 221.26 269.24 221 268.75 220.63 271.09 220.4 271.62 220.06 271.71 219.56 271.29 219.57 269.43 220.6 266.62 220.29 260.58 223.24 260.56 223.04 266.62 222.71 270.63 221.02 272.73 220.26 272.66"/><polygon class="cls-5" points="205.65 305.2 204.36 293.74 204.6 292.42 209.28 292.42 209.28 293.94 209.28 306.22 209.28 308.17 200.46 308.17 200.46 306.75 205.65 305.2"/><polygon class="cls-2" points="212.84 305.25 214.2 293.74 213.95 292.42 209.28 292.42 209.28 293.94 209.28 306.22 209.28 308.17 218 308.17 218 306.75 212.84 305.25"/><polygon class="cls-4" points="205.31 305.2 204.99 303.56 209.28 303.56 209.28 306.22 209.28 308.17 200.46 308.17 200.46 306.75 205.31 305.2"/><polygon class="cls-9" points="213.25 305.2 213.57 303.56 209.28 303.56 209.28 306.22 209.28 308.17 218.1 308.17 218.1 306.75 213.25 305.2"/><polygon class="cls-4" points="212.2 234.38 212.2 230.43 209.56 232.09 206.48 229.86 206.48 235.2 209.21 236.46 212.2 234.38"/><polygon class="cls-2" points="209.28 232.41 208.01 232.25 206.17 231.21 205.12 228.13 204.66 227.99 204 226.34 204.53 225 204.83 225 204.76 221.65 206.47 219.51 209.28 218.98 209.28 232.41"/><polygon class="cls-5" points="209.3 232.41 210.53 232.25 212.2 231.21 213.24 228.13 213.71 227.99 214.37 226.34 213.83 225 213.53 225 213.61 221.65 211.9 219.51 209.26 218.98 209.26 224.48 208.59 228.33 209.27 228.67 209.3 232.41"/><path class="cls-6" d="M209.28,234.19c1.79-.68,3.33-1.45,3.33-1.45v2.1l7,2.26,4.78,18.77-.54,2.78V261h-4.47v-2.46l-1.47-10.64L216.57,254v2.27l6.8,48.56H209.28c-.71-60.21-.42-68.51,0-70.65"/><rect class="cls-4" x="219.3" y="258.34" width="4.54" height="2.6"/><polygon class="cls-1" points="197.7 267.32 198.73 269.78 198.79 271.46 198.41 272.66 197.65 272.73 196.26 270.86 196.32 267.58 197.7 267.32"/><polygon class="cls-2" points="198.41 272.66 197.61 271.59 197.41 269.24 197.66 268.75 198.04 271.09 198.27 271.62 198.61 271.71 199.1 271.29 199.1 269.43 198.06 266.62 198.38 260.58 195.42 260.56 195.63 266.62 195.96 270.63 197.65 272.73 198.41 272.66"/><path class="cls-4" d="M209.39,234.19c-1.8-.68-3.33-1.45-3.33-1.45v2.1l-7.26,2.37-4.47,18.67.54,2.78V261h4.47v-2.46l1.25-10.64,1.31,6.12v2.27l-6.6,48.56h14.1c-.05-59.54,0-67.9,0-70.65"/><rect class="cls-9" x="194.83" y="258.34" width="4.55" height="2.6"/><rect class="cls-9" x="201.89" y="254.01" width="14.68" height="2.27"/><polygon class="cls-10" points="185.97 221.65 175.6 221.65 175.36 215.62 176.13 214.38 179.77 212.46 181.94 212.46 185.48 214.34 186.17 215.57 185.97 221.65"/><polygon class="cls-11" points="169.24 263.65 168.95 266.42 168.86 268.57 168.29 270.07 167.4 270.07 165.96 267.54 166.35 263.65 169.24 263.65"/><polygon class="cls-11" points="192.18 263.16 192.47 266.42 192.56 268.57 193.13 270.07 194.02 270.07 195.46 267.54 195.07 263.35 192.18 263.16"/><polygon class="cls-5" points="193.13 270.07 193.94 268.61 193.96 265.59 193.62 264.99 193.4 268.02 193.18 268.72 192.8 268.88 192.18 268.38 192.01 266 192.18 263.65 195.29 263.65 195.46 267.54 194.02 270.07 193.13 270.07"/><polygon class="cls-8" points="186.73 266.92 191.19 267.79 191.19 274.63 187.37 282.64 186.73 288.09 179.74 288.33 179.74 267.56 179.74 266.92 186.73 266.92"/><polygon class="cls-12" points="181.74 282.29 181.74 288.29 186.73 288.09 187.37 282.64 184.5 278.23 181.74 282.29"/><polygon class="cls-3" points="184.55 278.31 184.55 266.92 191.19 266.92 191.19 274.63 187.37 282.64 184.55 278.31"/><polygon class="cls-3" points="174.58 266.92 170.11 267.79 170.11 274.63 173.94 282.64 174.58 288.09 180.63 288.33 180.63 267.56 180.63 266.92 174.58 266.92"/><polygon class="cls-12" points="173.94 282.64 174.58 288.09 179.56 288.29 179.56 281.94 177.01 278.23 173.94 282.64"/><polygon class="cls-8" points="177.01 278.23 177.01 266.92 170.33 266.92 170.11 267.52 170.11 274.71 173.94 282.64 177.01 278.23"/><polygon class="cls-13" points="184.09 230.15 184.09 226.1 181.1 227.53 177.54 225.24 177.54 230.72 180.75 232.01 184.09 230.15"/><path class="cls-3" d="M181.66,268.09s-.93-35-.93-38.62c-1.59-.6-3.51-1.41-3.51-1.41l-.05,1.91-9.78,3.22-2,14.61-.76,12.42.93,1.33v2.09h4l.24-2.2.47-7.66L172,245l1.52,6-.35,1.34-2.28,5.26-1,10.45Z"/><path class="cls-14" d="M180.73,268.09V229.47c1.59-.6,3.51-1.41,3.51-1.41l.06,1.91,9.77,3.22,2,14.61.75,12.42-.93,1.33v2.09h-4l-.24-2.2-.47-7.66L189.5,245,188,251l.35,1.34,2.28,5.26,1,10.45Z"/><path class="cls-15" d="M185.13,230.25a19.34,19.34,0,0,0-6.51,6.25c-2.23,4-5.29,14.51-5.29,14.51h1.18s2.48-9.28,5.1-14.08c1.91-3.5,6.55-6.23,6.55-6.23Z"/><polygon class="cls-2" points="180.81 227.85 179.52 227.69 176.51 224.32 176.22 223.49 175.74 223.35 175.06 221.65 175.61 220.27 175.91 220.27 175.84 216.22 176.94 214.41 180.79 213.04 180.81 227.85"/><polygon class="cls-5" points="180.83 227.85 182.1 227.69 184.09 226.46 185.4 223.49 185.88 223.35 186.55 221.65 186 220.27 185.7 220.27 185.77 216.22 184.67 214.41 180.78 213.04 180.8 219.71 180.81 224.01 178.85 224.79 180.83 227.85"/><polygon class="cls-15" points="173.13 249.62 188.35 249.62 188.35 252.39 173.13 252.37 173.13 249.62"/><polygon class="cls-5" points="168.29 270.07 167.47 268.61 167.45 265.59 167.8 264.99 168.02 268.02 168.24 268.72 168.62 268.88 168.93 268.74 168.99 268.41 169.41 266 169.15 263.71 165.82 263.65 165.96 267.54 167.4 270.07 168.29 270.07"/><polygon class="cls-16" points="185.13 231.67 194.2 234.93 194.2 233 185.13 229.74 185.13 231.67"/><rect class="cls-8" x="191.61" y="261.54" width="4.26" height="2.33"/><rect class="cls-3" x="165.55" y="261.54" width="4.26" height="2.33"/><polygon class="cls-16" points="178.62 249.22 178.62 249.63 182.49 249.63 182.49 252.38 178.62 252.38 178.62 252.79 182.85 252.79 182.85 249.22 178.62 249.22"/><polygon points="187.37 300.98 187.37 287.81 180.63 287.81 180.63 289.77 180.63 300.98 181.28 301.8 180.63 302.62 181.35 303.49 180.63 304.92 180.63 308.15 192.18 308.15 192.18 306.12 186.7 303.49 187.37 302.62 186.62 301.8 187.37 300.98"/><polygon class="cls-17" points="173.91 300.98 173.91 287.81 180.63 287.81 180.63 289.77 180.63 300.98 179.99 301.8 180.63 302.62 179.91 303.49 180.63 304.92 180.63 308.15 169.09 308.15 169.09 306.12 174.57 303.49 173.91 302.62 174.65 301.8 173.91 300.98"/><polygon class="cls-18" points="180.86 222.94 180.04 222.72 177.07 224.95 176.4 224.03 177.07 225.82 180.86 224.22 180.86 222.94"/><polygon class="cls-14" points="180.86 222.94 181.66 222.72 184.65 224.95 185.2 224.06 184.65 225.82 180.86 224.22 180.86 222.94"/><path class="cls-3" d="M182.2,224.79a3.45,3.45,0,0,1-2.68,0l-2.45,1a4.82,4.82,0,0,0,1.37,2.08,3.57,3.57,0,0,0,4.85,0,4.82,4.82,0,0,0,1.37-2.08Z"/><polygon class="cls-10" points="177.94 213.91 180.21 215 180.76 215 180.76 212.56 177.94 213.91"/><path class="cls-1" d="M176.13,244.71c-4.91,0-7.7-9.88-7.81-10.3l.65-.18c0,.1,2.77,9.81,7.17,9.81,3.94,0,4.62-3,4.63-3.14s0,.68,0,1.66c-.68,1.06-2,2.15-4.6,2.15"/><path class="cls-1" d="M175.54,245.76c-4.79,0-7-10.95-7.07-11.42l.33-.06c0,.11,2.21,11.14,6.74,11.14a5.38,5.38,0,0,0,5.19-4.07c0,.32,0,.52,0,.89a5.54,5.54,0,0,1-5.19,3.52"/><path class="cls-1" d="M176,243.32c-4.78,0-7.37-8.6-7.48-9l.32-.1c0,.09,2.63,8.72,7.16,8.72,3.22,0,4.38-1.21,4.77-1.91a4.85,4.85,0,0,0,0,.61c-.62.76-1.95,1.65-4.77,1.65"/><polygon class="cls-10" points="183.56 213.91 181.28 215 180.73 215 180.73 212.56 183.56 213.91"/><polygon class="cls-16" points="176.51 231.67 167.43 234.93 167.43 233 176.51 229.74 176.51 231.67"/><polygon class="cls-3" points="204.43 224.07 207.69 221.2 209.47 221.2 209.27 218.06 206.08 217.8 202.98 221.42 204.43 224.07"/><polygon class="cls-3" points="213.84 224.07 210.82 221.2 209.29 221.2 209.29 218.06 212.58 217.74 215.35 221.38 213.84 224.07"/><polygon class="cls-3" points="204.99 225.51 204.99 223.24 204.34 223.77 204.34 225.51 204.99 225.51"/><rect class="cls-3" x="213.4" y="223.24" width="0.65" height="2.26"/><polygon class="cls-3" points="204.99 225.51 205.61 223.89 206.23 221.2 204.66 223.36 204.66 224.99 204.99 225.51"/><polygon class="cls-3" points="213.37 225.51 212.8 223.81 212.32 221.2 213.7 223.36 213.7 224.99 213.37 225.51"/><path d="M332.58,260.86a1.61,1.61,0,0,0-.67-.47l-.57-1.22-.29,1.15a1.62,1.62,0,0,0-.85.44l-1,.11.58.77a1.61,1.61,0,0,0,.57,1.51l.19,1.43.63-1.07a1.61,1.61,0,0,0,1.8-1.3,1.27,1.27,0,0,0,0-.24l1.08-.54Z"/><path d="M287.83,250.86a1.59,1.59,0,0,0-.59.57l-1.3.34,1.07.49a1.61,1.61,0,0,0,.28.91l-.08,1,.87-.44a1.61,1.61,0,0,0,1.58-.29l1.44.07-.94-.81a1.62,1.62,0,0,0-1-2l-.23-.06-.33-1.16Z"/><polygon class="cls-3" points="304.08 236.14 302.08 239.3 302.08 248.18 313.38 248.18 313.38 239.35 310.95 235.53 304.08 236.14"/><rect class="cls-3" x="311.22" y="234.99" width="0.56" height="2.88"/><rect class="cls-3" x="303.51" y="234.99" width="0.56" height="2.88"/><polygon class="cls-1" points="317.75 273.61 316.88 275.7 316.83 277.12 317.15 278.13 317.79 278.19 318.97 276.61 318.91 273.84 317.75 273.61"/><polygon class="cls-2" points="317.15 278.13 317.82 277.22 318 275.24 317.78 274.82 317.46 276.8 317.27 277.25 316.98 277.33 316.56 276.97 316.57 275.4 317.44 273.02 317.18 267.91 319.67 267.9 319.5 273.02 319.23 276.42 317.79 278.19 317.15 278.13"/><polygon class="cls-5" points="304.79 305.66 303.7 295.96 303.91 294.85 307.86 294.85 307.86 296.13 307.86 306.52 307.86 308.17 300.4 308.17 300.4 306.97 304.79 305.66"/><polygon class="cls-2" points="310.87 305.7 312.02 295.96 311.82 294.85 307.86 294.85 307.86 296.13 307.86 306.52 307.86 308.17 315.24 308.17 315.24 306.97 310.87 305.7"/><polygon class="cls-4" points="304.5 305.66 304.23 304.27 307.86 304.27 307.86 306.52 307.86 308.17 300.4 308.17 300.4 306.97 304.5 305.66"/><polygon class="cls-9" points="311.23 305.66 311.5 304.27 307.86 304.27 307.86 306.52 307.86 308.17 315.32 308.17 315.32 306.97 311.23 305.66"/><polygon class="cls-4" points="310.33 245.75 310.33 242.41 308.1 243.82 305.49 241.93 305.49 246.44 307.81 247.51 310.33 245.75"/><polygon class="cls-2" points="307.86 244.08 306.79 243.95 305.23 243.07 304.35 240.46 303.95 240.35 303.4 238.95 303.85 237.81 304.1 237.81 304.04 234.98 305.49 233.17 307.86 232.72 307.86 244.08"/><polygon class="cls-5" points="307.88 244.08 308.92 243.95 310.33 243.07 311.22 240.46 311.61 240.35 312.17 238.95 311.71 237.81 311.46 237.81 311.53 234.98 310.08 233.17 307.85 232.72 307.85 237.38 307.27 240.63 307.86 240.92 307.88 244.08"/><path class="cls-6" d="M307.86,245.59c1.52-.58,2.82-1.23,2.82-1.23v1.77l5.88,1.92,4,15.88-.45,2.35v2h-3.78v-2.08l-1.25-9L314,262.36v1.92l5.75,41.07H307.86c-.6-50.93-.36-58,0-59.76"/><rect class="cls-4" x="316.34" y="266.02" width="3.84" height="2.2"/><polygon class="cls-1" points="298.06 273.61 298.94 275.7 298.99 277.12 298.66 278.13 298.02 278.19 296.85 276.61 296.9 273.84 298.06 273.61"/><polygon class="cls-2" points="298.66 278.13 297.99 277.22 297.82 275.24 298.04 274.82 298.36 276.8 298.55 277.25 298.83 277.33 299.25 276.97 299.25 275.4 298.38 273.02 298.64 267.91 296.14 267.9 296.31 273.02 296.59 276.42 298.02 278.19 298.66 278.13"/><path class="cls-4" d="M308,245.59c-1.52-.58-2.82-1.23-2.82-1.23v1.77l-6.15,2-3.78,15.8.45,2.35v2h3.78v-2.08l1.06-9,1.11,5.18v1.92L296,305.35H308c0-50.36,0-57.43,0-59.76"/><rect class="cls-9" x="295.64" y="266.02" width="3.85" height="2.2"/><rect class="cls-9" x="301.61" y="262.36" width="12.42" height="1.91"/><polygon class="cls-3" points="311.59 236.65 309.02 234.21 307.72 234.21 307.72 231.23 310.68 231.56 312.2 234.22 311.59 236.65"/><polygon class="cls-3" points="303.84 236.65 306.41 234.21 307.97 234.21 307.72 231.23 304.75 231.56 303.23 234.22 303.84 236.65"/><path d="M310.76,252.76a1.58,1.58,0,0,0-.56.56l-1.26.33,1,.47a1.55,1.55,0,0,0,.27.88l-.07,1,.84-.42a1.56,1.56,0,0,0,1.53-.28l1.39.07-.91-.78a1.56,1.56,0,0,0-.92-1.94,1.26,1.26,0,0,0-.22-.06l-.32-1.12Z"/><path d="M239.19,245.69a1.65,1.65,0,0,0-.58.58l-1.3.34,1.08.49a1.64,1.64,0,0,0,.28.91l.79.6a1.61,1.61,0,0,0,1.58-.29l1.44.07-.94-.8a1.62,1.62,0,0,0-1-2l-.23-.06-.33-1.16Z"/><path d="M186.48,238a1.63,1.63,0,0,0-.54-.62l-.27-1.32-.55,1a1.62,1.62,0,0,0-.93.23l-.65.76a1.61,1.61,0,0,0,.2,1.6l-.15,1.43.86-.89a1.62,1.62,0,0,0,2.06-.83c0-.07.05-.15.07-.22l1.17-.26Z"/><path d="M262.83,247.85a1.58,1.58,0,0,0-.35.74l-1.11.76,1.18.09a1.63,1.63,0,0,0,.58.76l.29,1,.66-.71a1.61,1.61,0,0,0,1.39-.81l1.37-.43-1.16-.43a1.62,1.62,0,0,0-1.58-1.56l-.24,0-.71-1Z"/><path d="M213.41,241.81a1.62,1.62,0,0,0-.74.37l-1.34-.08.87.8a1.62,1.62,0,0,0,0,1l-.39,1,1-.15a1.61,1.61,0,0,0,1.59.22l1.35.51-.65-1.06a1.61,1.61,0,0,0-.28-2.2,1.48,1.48,0,0,0-.19-.13l0-1.21Z"/><polygon points="264.72 247.91 266.24 247.12 265.48 249.52 264.72 247.91"/><ellipse class="cls-19" cx="250" cy="250" rx="112.5" ry="79.01"/></svg>