<svg id="Layer_1" data-name="Layer 1" xmlns="http://www.w3.org/2000/svg" viewBox="0 0 500 500"><defs><style>.cls-1{fill:#ff4a68;}.cls-2{fill:#fff;}.cls-3{fill:#ccc;}.cls-4{fill:#b3b3b3;}.cls-5{fill:#333;}.cls-6{fill:#e6e6e6;}.cls-7{fill:#999;}.cls-8{fill:#bcbcbc;}.cls-9{fill:#aaa;}.cls-10{fill:#1d1d1b;}.cls-11{fill:none;}</style></defs><title>icon-59Artboard 7</title><polygon class="cls-1" points="248.51 210.04 201.57 209.96 202.87 200.2 189.38 189.1 236.31 189.18 248.51 210.04"/><polygon class="cls-2" points="236.31 189.18 189.38 189.1 202.83 200.17 242.73 200.17 236.31 189.18"/><polygon class="cls-3" points="256.37 230.54 236.84 240.15 238.88 245.42 258.04 233.75 256.37 230.54"/><polygon class="cls-4" points="239.13 241.23 239.68 232.9 247.83 232.85 247.59 235.03 247.53 236.71 246.81 236.7 246.41 239.67 243.93 239.24 243.32 240.75 239.13 241.23"/><polygon points="239.8 231.45 238.88 230.88 238.91 230.35 248.75 229.3 248.71 230.11 247.99 231.13 247.92 232.33 248.81 233.62 239.71 233.13 239.8 231.45"/><polygon class="cls-4" points="240.25 256.02 243.74 256.02 244.66 254.35 244.19 253.33 243.62 253.17 243.27 252.63 240.25 252.63 240.25 256.02"/><polygon class="cls-5" points="170.35 300.5 170.35 308.11 194.47 291.1 208.22 278.85 239.74 278.85 271.98 303.73 271.98 308.11 277.97 308.11 276.22 302.86 253.23 280.74 270.35 282.6 274.1 290.35 273.6 295.6 279.48 295.6 279.48 291.1 272.98 278.35 254.47 274.6 256.97 270.35 261.47 255.6 267.72 255.6 273.72 259.6 275.47 258.1 273.47 255.6 276.97 256.6 277.22 253.85 258.72 239.1 258.72 242.35 243.22 258.6 209.22 258.6 203.97 261.1 196.97 255.6 179.97 258.6 168.72 257.35 168.72 262.85 179.72 267.1 192.47 260.35 202.22 262.6 196.47 274.72 182.22 276.6 175.47 286.6 171.35 288.1 171.35 295.74 177.35 289.99 183.72 281.49 196.73 280.24 189.6 289.1 175.1 299.11 170.35 300.5"/><polygon class="cls-4" points="216.67 253.63 214.02 256.48 214.02 259.77 224.98 265.78 229.96 264.13 235.72 266.56 237.13 262.6 235.62 260.7 227.96 257.26 216.67 253.63"/><polygon class="cls-5" points="239.33 236.82 243.92 239.13 243.92 241.13 238.19 238.55 239.33 236.82"/><polygon class="cls-3" points="229.11 240.97 218.94 251.19 214.87 255.56 229.75 258.07 243.92 241.13 238.19 238.55 229.11 240.97"/><polygon points="230.96 256.56 218.94 251.19 220.21 249.92 232.05 255.26 230.96 256.56"/><polygon class="cls-6" points="234.48 251.49 239.7 241.79 236.38 239.88 233.32 241.23 227.91 252.21 229.41 254.98 237.44 256.63 240.25 256.08 240.25 252.46 234.48 251.49"/><rect class="cls-7" x="240.25" y="252.46" width="1.44" height="3.63"/><polygon class="cls-4" points="257.96 233.6 261.06 231.98 259.63 229.51 259.07 229.2 256.4 230.59 257.96 233.6"/><rect class="cls-7" x="257.12" y="230" width="1.44" height="3.62" transform="translate(-77.91 145.29) rotate(-27.51)"/><polygon class="cls-4" points="273.67 256.14 243.62 254.93 243.94 254.54 273.98 255.75 273.67 256.14"/><polygon class="cls-5" points="240.01 238.97 237.37 240.07 240.56 241.79 241.67 239.95 240.01 238.97"/><polygon class="cls-3" points="266.35 241.27 265.38 241.79 234.74 187.51 235.72 186.99 266.35 241.27"/><polygon class="cls-8" points="259.07 229.2 258.51 230.3 259.51 232.24 260.04 232.51 261.06 231.98 260.76 230.2 259.78 229.31 259.07 229.2"/><polygon points="230.95 277.83 235.72 266.56 229.96 264.12 229.25 265.8 225.19 275.4 225.44 276.33 224.59 276.8 224.9 277.81 223.76 278.77 222.59 281.54 232.48 285.71 233.21 283.98 229.47 279.75 230.36 279.24 230.01 278.26 230.95 277.83"/><polygon class="cls-3" points="302.49 246.43 282.14 256.23 284.17 261.51 303.34 249.84 302.49 246.43"/><polygon class="cls-4" points="284.43 257.32 284.97 248.99 293.12 248.94 292.88 251.12 292.82 252.8 292.1 252.78 291.7 255.76 289.23 255.33 288.62 256.84 284.43 257.32"/><polygon points="285.1 247.54 284.17 246.97 284.2 246.44 294.05 245.39 294 246.2 293.28 247.22 293.21 248.42 294.1 249.71 285 249.22 285.1 247.54"/><polygon class="cls-4" points="285.55 272.11 289.04 272.11 289.96 270.44 289.49 269.42 288.92 269.25 288.56 268.72 285.55 268.72 285.55 272.11"/><polygon class="cls-5" points="232.65 315.2 232.65 323.08 255.63 307.33 254.08 294.94 290.52 294.94 303.8 306.7 299.54 316.24 295.39 314.33 295.39 322.58 302.69 318.23 309.09 306.03 299.27 293.33 323.56 310.06 320.94 313.81 328.36 313.81 327.11 307.83 301.69 287.95 306.77 271.69 313.02 271.69 319.02 275.69 320.77 274.19 318.77 271.69 322.27 272.69 322.52 269.94 304.02 255.19 304.02 258.44 288.52 274.69 254.52 274.69 249.52 276.18 240.52 276.18 225.27 271.93 214.02 278.95 214.02 284.45 225.02 280.43 236.02 280.93 247.52 278.69 244.4 287.2 217.93 308.6 214.02 314.83 220.77 314.83 220.77 310.27 246.19 295.08 250.27 306.22 236.65 315.2 232.65 315.2"/><polygon class="cls-4" points="261.97 269.72 259.31 272.57 259.31 275.86 270.27 281.87 275.25 280.21 281.01 282.65 282.42 278.69 280.91 276.79 273.25 273.35 261.97 269.72"/><polygon class="cls-5" points="284.63 252.91 289.21 255.22 289.21 257.21 283.48 254.64 284.63 252.91"/><polygon points="276.25 293.92 281.01 282.65 275.25 280.21 274.54 281.89 270.48 291.49 270.74 292.42 269.89 292.89 270.19 293.9 269.06 294.86 267.89 297.62 277.77 301.8 278.5 300.07 274.77 295.83 275.65 295.33 275.31 294.35 276.25 293.92"/><polygon class="cls-3" points="274.41 257.05 264.24 267.28 260.16 271.65 275.04 274.15 289.21 257.21 283.48 254.64 274.41 257.05"/><polygon points="276.25 272.65 264.24 267.28 265.51 266 277.35 271.35 276.25 272.65"/><polygon class="cls-6" points="279.77 267.58 284.99 257.87 281.68 255.97 278.62 257.32 273.21 268.29 274.71 271.07 282.74 272.71 285.55 272.17 285.55 268.55 279.77 267.58"/><rect class="cls-7" x="285.55" y="268.55" width="1.44" height="3.63"/><polygon class="cls-9" points="303.26 249.86 306.87 248.97 306.57 246.96 307.12 245.24 306.78 244.94 305.82 245.74 302.49 246.55 303.26 249.86"/><rect class="cls-7" x="302.82" y="246.15" width="1.44" height="3.62" transform="translate(-50.27 79.32) rotate(-13.76)"/><polygon class="cls-4" points="318.96 272.23 288.92 271.02 289.23 270.63 319.27 271.84 318.96 272.23"/><polygon class="cls-5" points="285.31 255.06 282.67 256.16 285.85 257.88 286.96 256.04 285.31 255.06"/><path class="cls-10" d="M312.6,241.08l-8.69,3.15.31.85.53,1.47.6,2.75.73.36.61-.55-.59-3.06,1.8-.66.31.86,1.06-.38L309,245l-.54-1.47,4.48-1.62Zm-5.39,4.22-1.18.43,1-1Z"/><polygon class="cls-8" points="305.64 245.84 304.67 246.72 305.07 249.03 305.77 249.23 307.04 248.92 307.12 247.33 306.87 246.03 305.64 245.84"/><polygon class="cls-8" points="306.15 245.29 306.31 245.58 306.68 245.65 307.21 245.27 306.73 244.83 306.15 245.29"/><ellipse class="cls-11" cx="250" cy="250" rx="112.5" ry="79.01"/></svg>