<svg id="Layer_1" data-name="Layer 1" xmlns="http://www.w3.org/2000/svg" viewBox="0 0 500 500"><defs><style>.cls-1{fill:#d13d55;}.cls-2{fill:#b3b3b3;}.cls-3{fill:#333;}.cls-4{fill:#ff4a68;}.cls-5{fill:#ad3347;}.cls-6{fill:#bcbcbc;}.cls-7{fill:#ccc;}.cls-8{fill:#aaa;}.cls-9{fill:#9c9b9b;}.cls-10{fill:#e4e255;}.cls-11{fill:none;}</style></defs><title>icon-67Artboard 7</title><polygon class="cls-1" points="193.03 250.27 212.55 259.88 210.52 265.15 191.35 253.48 193.03 250.27"/><polygon class="cls-2" points="210.26 260.96 209.72 252.63 201.57 252.59 201.81 254.76 201.87 256.44 202.59 256.43 202.99 259.4 205.46 258.98 206.07 260.48 210.26 260.96"/><polygon points="209.59 251.18 210.52 250.61 210.49 250.08 200.64 249.04 200.69 249.84 201.41 250.86 201.47 252.06 200.59 253.35 209.68 252.86 209.59 251.18"/><polygon class="cls-2" points="209.14 275.75 205.65 275.75 204.73 274.08 205.2 273.06 205.77 272.9 206.13 272.37 209.14 272.37 209.14 275.75"/><polygon class="cls-3" points="279.04 320.23 279.04 327.84 254.92 310.83 241.17 298.58 209.65 298.58 177.42 323.46 177.42 327.84 171.42 327.84 173.17 322.59 196.17 300.47 179.04 302.33 175.29 310.08 175.79 315.33 169.92 315.33 169.92 310.83 176.42 298.08 194.92 294.33 192.42 290.08 187.92 275.33 181.67 275.33 175.67 279.33 173.92 277.83 175.92 275.33 172.42 276.33 172.17 273.58 190.67 258.83 190.67 262.08 206.17 278.33 240.17 278.33 245.42 280.83 252.42 275.33 269.42 278.33 280.67 277.08 280.67 282.58 269.67 286.83 256.92 280.08 247.17 282.33 252.92 294.45 267.17 296.33 273.92 306.33 278.04 307.83 278.04 315.47 272.04 309.72 265.67 301.22 252.67 299.97 259.79 308.83 274.29 318.84 279.04 320.23"/><polygon class="cls-2" points="232.72 273.36 235.38 276.21 235.38 279.51 224.42 285.51 219.44 283.86 213.68 286.29 212.26 282.33 213.78 280.43 221.43 277 232.72 273.36"/><polygon class="cls-3" points="210.06 256.55 205.47 258.87 205.47 260.86 211.21 258.28 210.06 256.55"/><polygon points="218.44 297.56 213.68 286.29 219.44 283.86 220.15 285.53 224.21 295.13 223.95 296.06 224.8 296.54 224.5 297.54 225.63 298.5 226.8 301.27 216.92 305.45 216.18 303.71 219.92 299.48 219.04 298.97 219.38 298 218.44 297.56"/><polygon class="cls-1" points="220.28 260.7 230.45 270.92 234.53 275.3 219.65 277.8 205.48 260.86 211.21 258.28 220.28 260.7"/><polygon points="218.44 276.29 230.45 270.92 229.18 269.65 217.34 275 218.44 276.29"/><polygon class="cls-4" points="214.91 271.22 209.7 261.52 213.01 259.61 216.07 260.96 221.48 271.94 219.98 274.71 211.95 276.36 209.14 275.81 209.14 272.19 214.91 271.22"/><rect class="cls-5" x="207.7" y="272.19" width="1.44" height="3.63"/><polygon class="cls-2" points="191.43 253.33 188.34 251.71 189.76 249.24 190.32 248.93 193 250.32 191.43 253.33"/><rect class="cls-5" x="189.74" y="250.82" width="3.62" height="1.44" transform="translate(-120.02 305.28) rotate(-62.5)"/><polygon class="cls-2" points="175.73 275.88 205.77 274.66 205.46 274.27 175.42 275.48 175.73 275.88"/><polygon class="cls-3" points="209.38 258.7 212.02 259.8 208.84 261.52 207.73 259.68 209.38 258.7"/><polygon class="cls-6" points="190.32 248.93 190.89 250.03 189.89 251.97 189.35 252.24 188.34 251.72 188.64 249.94 189.61 249.04 190.32 248.93"/><polygon class="cls-4" points="203.18 226.54 250.11 226.45 248.81 216.69 262.3 205.59 215.37 205.68 203.18 226.54"/><polygon class="cls-7" points="185.34 257.76 186.31 258.28 216.94 204 215.97 203.48 185.34 257.76"/><polygon points="313.5 248.61 310 257.15 279.41 248.81 272.94 239.38 313.5 248.61"/><polygon class="cls-1" points="260.41 231.17 280.75 240.97 278.72 246.25 258.94 234.28 260.41 231.17"/><polygon class="cls-2" points="278.47 242.06 277.92 233.73 269.85 233.19 270.01 235.86 270.07 237.54 270.79 237.53 271.19 240.5 273.67 240.07 274.28 241.58 278.47 242.06"/><path d="M279.69,228.19a12.79,12.79,0,0,0-4.19-2,14.38,14.38,0,0,0-4.94,0l-.71,7a16.93,16.93,0,0,1,3.84.51c2,.52,4.4,1.49,4.4,1.49Z"/><polygon class="cls-2" points="277.35 256.85 273.86 256.85 272.94 255.18 273.41 254.16 273.98 254 274.33 253.46 277.35 253.46 277.35 256.85"/><polygon class="cls-3" points="327.52 299.94 327.52 307.82 304.54 292.07 308.82 279.68 272.37 279.68 258.15 291.44 261.4 300.98 265.55 300.32 265.55 307.32 258.25 302.97 253.81 290.77 263.62 278.07 247.85 282.07 242.31 294.79 246 298.54 239.37 298.54 239.37 293.82 244.75 278.44 261.2 272.69 256.13 256.43 249.88 256.43 243.88 260.43 242.13 258.93 244.13 256.43 240.63 257.43 240.38 254.68 258.88 239.93 258.88 243.18 274.38 259.43 308.38 259.43 313.37 260.92 322.37 257.48 337.63 260.7 348.88 258.17 348.88 263.67 337.88 269.2 326.87 262.23 315.38 263.43 318.5 271.94 346.38 290.18 350.29 296.4 343.54 296.4 343.54 291.85 316.71 279.82 311.3 292.36 323.52 299.94 327.52 299.94"/><polygon class="cls-2" points="300.93 254.46 303.58 257.31 303.58 260.6 292.62 266.61 287.64 264.95 281.88 267.39 280.47 263.43 281.98 261.53 289.64 258.09 300.93 254.46"/><polygon class="cls-3" points="278.27 237.65 273.68 239.96 273.68 241.96 279.41 239.38 278.27 237.65"/><polygon points="286.65 278.66 281.88 267.39 287.64 264.95 288.35 266.63 292.41 276.23 292.15 277.16 293 277.63 292.7 278.64 293.84 279.6 295 282.37 285.12 286.54 284.39 284.81 288.13 280.57 287.24 280.07 287.58 279.09 286.65 278.66"/><polygon class="cls-1" points="288.49 241.79 298.65 252.02 302.73 256.39 287.85 258.89 273.68 241.96 279.41 239.38 288.49 241.79"/><polygon points="286.64 257.39 298.65 252.02 297.38 250.75 285.55 256.09 286.64 257.39"/><polygon class="cls-4" points="283.12 252.32 277.9 242.62 281.22 240.71 284.28 242.06 289.69 253.03 288.19 255.81 280.16 257.45 277.35 256.91 277.35 253.29 283.12 252.32"/><rect class="cls-5" x="275.91" y="253.29" width="1.44" height="3.63"/><polygon class="cls-8" points="259.47 234.64 256.11 233.06 256.8 231.15 257.77 230.09 260.88 231.55 259.47 234.64"/><rect class="cls-5" x="257.76" y="232.01" width="3.62" height="1.44" transform="translate(-61.38 368.84) rotate(-64.86)"/><polygon class="cls-2" points="243.93 256.97 273.97 255.76 273.66 255.37 243.62 256.58 243.93 256.97"/><polygon class="cls-3" points="277.58 239.8 280.23 240.9 277.04 242.62 275.93 240.78 277.58 239.8"/><path class="cls-9" d="M260.2,227.91l-1.69-.68a70.52,70.52,0,0,1,7.18-12.6c4.53-6.3,13.64-14.9,13.72-13.63.09,1.5-7.56,7.9-12.22,14.68a71.5,71.5,0,0,0-7,12.23"/><path class="cls-10" d="M260.5,227.95l-2.28-1s-1,1.88-1,2.06a4.94,4.94,0,0,0,.51,1.12l-1.52,3.47-1.07-.11s-.84,1.58.63,2,2.13-1.72,2.88-3.47,1.83-4.06,1.83-4.06"/><polygon class="cls-6" points="257.95 229.96 258.71 231.29 257.86 233.47 257.13 233.53 255.95 232.97 256.19 231.39 256.88 229.91 257.95 229.96"/><polygon points="278.27 237.65 276.16 238.71 307.12 270.69 313.5 248.61 278.27 237.65"/><polygon points="281.88 244.62 273.68 241.96 273.68 240.1 276.63 238.47 281.88 244.62"/><ellipse class="cls-11" cx="250" cy="250" rx="112.5" ry="79.01"/></svg>