<svg id="Layer_1" data-name="Layer 1" xmlns="http://www.w3.org/2000/svg" viewBox="0 0 500 500"><defs><style>.cls-1{fill:#333;}.cls-2{fill:#b3b3b3;}.cls-3{fill:#575756;}.cls-4{fill:#666;}.cls-5{fill:#45ffaf;}.cls-6{fill:#3ee39b;}.cls-7{fill:#999;}.cls-8{fill:#94ffd0;}.cls-9{fill:#7affc6;}.cls-10{fill:none;}</style></defs><title>icon-06</title><path class="cls-1" d="M256.68,272.08l.31,4.54L264,291.29l1.68,1,2.15-1.59-2.06-6.22Zm8.62,13.58,1.71,4.58-1.35,1-1.19-.83-1.41-3.1Z"/><rect class="cls-2" x="213.41" y="201.53" width="0.7" height="13.84" transform="translate(-81.99 167.52) rotate(-36.4)"/><rect class="cls-1" x="257.17" y="254.02" width="1.8" height="20.93" transform="translate(-106.6 204.77) rotate(-36.4)"/><polygon class="cls-3" points="290.62 320.16 279.97 325.7 265.29 284.23 254.39 269.44 245.81 254.09 216.63 214.49 217.94 213.53 216.01 210.91 217.69 209.67 273.51 285.39 276.04 297.83 278.66 299.22 290.62 320.16"/><rect class="cls-1" x="257.38" y="261.19" width="0.81" height="13.37" transform="translate(-108.68 205.32) rotate(-36.41)"/><rect class="cls-1" x="244.07" y="253.09" width="6.34" height="1.05" transform="translate(-102.16 195.58) rotate(-36.3)"/><rect class="cls-1" x="215.3" y="207.88" width="1.51" height="2.67" transform="translate(-82.01 169.11) rotate(-36.42)"/><rect class="cls-1" x="214.48" y="197.53" width="1.16" height="16.16" transform="translate(-80.05 167.75) rotate(-36.4)"/><polygon class="cls-1" points="214.6 214.69 215.23 215.53 220.33 211.77 219.7 210.93 214.6 214.69"/><rect class="cls-4" x="234.04" y="207.01" width="1.63" height="49.13" transform="translate(-91.6 184.55) rotate(-36.4)"/><path class="cls-1" d="M234.18,284.48l-2.05,6.22,2.15,1.59,1.68-1L243,276.62l.31-4.54Zm2.77,2.84-1.42,3.1-1.19.83-1.36-1,1.71-4.58Z"/><rect class="cls-2" x="279.32" y="208.1" width="13.84" height="0.7" transform="translate(-51.39 315.19) rotate(-53.61)"/><rect class="cls-1" x="231.46" y="263.59" width="20.93" height="1.8" transform="translate(-114.48 302.6) rotate(-53.66)"/><polygon class="cls-3" points="209.37 320.16 220.03 325.7 234.71 284.23 245.61 269.44 254.18 254.09 283.37 214.49 282.06 213.53 283.99 210.91 282.31 209.67 226.48 285.39 223.96 297.83 221.34 299.22 209.37 320.16"/><rect class="cls-1" x="235.52" y="267.47" width="13.37" height="0.81" transform="translate(-117.14 303.82) rotate(-53.59)"/><rect class="cls-1" x="252.23" y="250.45" width="1.05" height="6.34" transform="translate(-101.36 306.62) rotate(-53.61)"/><rect class="cls-1" x="282.6" y="208.46" width="2.68" height="1.51" transform="translate(-53.01 313.41) rotate(-53.57)"/><polygon class="cls-1" points="290.2 199.45 280.61 212.46 279.67 211.77 289.26 198.76 290.2 199.45"/><rect class="cls-1" x="282.01" y="210.06" width="1.05" height="6.34" transform="translate(-56.97 313.39) rotate(-53.48)"/><rect class="cls-4" x="240.58" y="230.76" width="49.13" height="1.63" transform="translate(-78.59 307.57) rotate(-53.6)"/><polygon class="cls-5" points="223.83 272.89 205.55 279.03 214.74 283.75 205.55 294.01 223.83 288.35 223.83 272.89"/><polygon class="cls-5" points="276.29 269.07 294.45 262.7 285.37 258.69 294.45 247.24 276.29 253.97 276.29 269.07"/><polygon class="cls-6" points="222.16 289.44 222.16 243.38 233.94 230.92 265.82 230.92 278.05 242.93 278.05 289.44 250.02 302.25 222.16 289.44"/><polygon class="cls-2" points="278.89 241.15 267.75 230.22 266.66 229.16 265.15 229.16 250.11 229.16 250.11 232.87 250.11 232.87 265.15 232.87 276.29 243.8 276.29 288.34 250.11 300.3 250.11 300.3 250.11 304.38 251.66 303.67 277.83 291.72 280 290.72 280 288.34 280 243.8 280 242.24 278.89 241.15"/><polygon class="cls-7" points="221.33 241.15 232.47 230.22 233.55 229.16 235.07 229.16 250.1 229.16 250.1 232.87 250.1 232.87 235.07 232.87 223.93 243.8 223.93 288.34 250.1 300.3 250.11 300.3 250.11 304.38 248.56 303.67 222.39 291.72 220.22 290.72 220.22 288.34 220.22 243.8 220.22 242.24 221.33 241.15"/><polygon class="cls-5" points="250.11 232.87 265.15 232.87 276.29 243.8 276.29 288.34 250.11 300.3 250.11 232.87"/><polygon class="cls-8" points="220.22 264.57 220.22 280.5 280 258.08 280 242.51 220.22 264.57"/><polygon class="cls-9" points="220.22 264.57 220.22 280.5 250.11 269.29 250.11 253.57 220.22 264.57"/><ellipse class="cls-10" cx="250" cy="250" rx="112.5" ry="79.01"/></svg>