<svg id="Layer_1" data-name="Layer 1" xmlns="http://www.w3.org/2000/svg" viewBox="0 0 500 500"><defs><style>.cls-1{fill:#f2f2f2;}.cls-2{fill:#e6e6e6;}.cls-3{fill:#2d2d2d;}.cls-4{fill:#cecdce;}.cls-5{fill:#d9d9d9;}.cls-6{fill:#ececec;}.cls-7{fill:#575756;}.cls-8{fill:#1d1d1b;}.cls-9{fill:#3c3c3b;}.cls-10{fill:#232323;}.cls-11{fill:#1e1e1e;}.cls-12{fill:#424242;}.cls-13{fill:#444;}.cls-14{fill:#4f4f4f;}.cls-15{fill:#868686;}.cls-16{fill:#333;}.cls-17{fill:#383838;}.cls-18{fill:#212121;}.cls-19{fill:#4d4d4d;}.cls-20{fill:#c4c4c4;}.cls-21{fill:none;}</style></defs><title>icon-05</title><rect class="cls-1" x="288.87" y="184.16" width="26.08" height="43.43" transform="translate(-47.63 312.43) rotate(-51.24)"/><polygon class="cls-2" points="310.68 229.63 293.14 182.11 327 209.3 310.68 229.63"/><polygon class="cls-3" points="229.26 244.37 227.78 287.94 240.2 287.94 238.5 234.4 229.26 244.37"/><polygon class="cls-4" points="251.31 208.53 251.31 203.36 247.48 205.19 242.93 202.26 242.93 209.26 247.64 215.22 251.31 208.53"/><polygon class="cls-5" points="247.12 205.6 245.46 205.39 242.61 204.07 241.24 200.02 240.63 199.85 240.13 197.68 240.2 196.11 240.86 195.92 240.76 191.53 242.17 189.32 247.12 187.99 247.12 205.6"/><polygon class="cls-6" points="247.14 205.6 248.75 205.39 251.6 204.07 252.97 200.02 253.58 199.85 254.16 197.68 254.16 196.11 253.35 195.92 253.45 191.53 252.04 189.32 247.09 187.99 243.52 190.45 243.52 194.47 247.09 195.2 245.93 199.6 247.11 200.69 247.14 205.6"/><path class="cls-7" d="M253.4,194l-2.09-2.06-4.65-1.43-3.93.79-1.83,1.58s-2.4.88-2.69-1a3.23,3.23,0,0,1,1.51-3.1c1-.59,1.16-1.8,2.94-1.84,2.08-.05,2.85.66,5.73-.08,2.18-.56,4.26,1.27,5.44,3.19.33.54,2,1.38,2,2.62,0,1.78-2.44,1.33-2.44,1.33"/><path class="cls-8" d="M241.37,192.11s1.19,1.05,5.78,1.28a35.6,35.6,0,0,0,5.78.05s-2.69-3-6.28-3.2a6.53,6.53,0,0,0-5.28,1.87"/><path class="cls-9" d="M240.75,193.49v-.38s.09-2.85,5.39-2.89,7.25,3.51,7.25,3.51l0,.87a9.22,9.22,0,0,0-7.25-3.49c-4.71-.11-5.4,2.38-5.4,2.38"/><polygon class="cls-9" points="249.12 202.13 247.6 201.72 246.42 201.72 245.03 202.13 244.29 202.13 246.49 200.85 247.67 200.85 249.94 202.13 249.12 202.13"/><polygon class="cls-9" points="248.12 203.03 247.12 203.03 246.11 203.03 245.04 204.5 245.04 205.27 246.8 206.79 247.4 206.79 249.2 205.27 249.2 204.5 248.12 203.03"/><polygon points="238.29 299.01 238.29 282.19 246.89 282.19 246.89 284.7 246.89 299.01 246.06 300.05 246.89 301.11 245.97 302.22 246.89 304.05 246.89 308.17 232.14 308.17 232.14 305.58 239.14 302.22 238.29 301.11 239.25 300.05 238.29 299.01"/><rect class="cls-10" x="236.62" y="254.42" width="10.23" height="48.2"/><polygon points="255.48 299.01 255.48 282.19 246.89 282.19 246.89 284.7 246.89 299.01 247.71 300.05 246.89 301.11 247.81 302.22 246.89 304.05 246.89 308.17 261.63 308.17 261.63 305.58 254.63 302.22 255.48 301.11 254.53 300.05 255.48 299.01"/><rect class="cls-3" x="246.7" y="254.42" width="10.23" height="48.2"/><polygon class="cls-1" points="242.44 208.32 247 208.32 251.49 208.32 247.07 227.78 242.44 208.32"/><rect class="cls-9" x="245.59" y="207.76" width="3.06" height="23.34"/><polygon class="cls-2" points="247 207.67 245.38 211.56 242.44 208.32 242.85 205.87 247 207.67"/><polygon class="cls-11" points="243.95 211.21 247.15 219.42 250.34 211.21 250.34 230.33 244.29 230.33 243.95 211.21"/><polygon class="cls-9" points="264.05 212.43 252.33 208.57 251.49 205.87 247.15 227.27 247.15 260.87 260.19 260.87 260.19 227.49 264.05 212.43"/><polygon class="cls-2" points="247 207.67 248.77 211.56 251.49 208.32 251.49 205.87 247 207.67"/><polygon class="cls-12" points="251.49 205.87 254.16 209.17 254.26 214.43 251.49 214.43 253.57 216.8 247.15 230.33 247.15 225.99 251.49 205.87"/><polygon class="cls-13" points="242.85 205.87 242.73 206.27 242.76 205.87 241.93 208.57 230.21 212.43 225.29 235.84 231.37 253.61 231.01 260.87 234.15 260.87 238.17 260.87 247.76 260.87 247.76 227.27 242.85 205.87"/><polygon class="cls-14" points="242.85 205.87 240.18 209.17 240.08 214.43 242.85 214.43 240.78 216.8 247.76 231.67 247.76 227.32 242.85 205.87"/><polygon class="cls-15" points="264 251.9 264.37 256.06 264.49 258.81 265.21 260.72 266.35 260.72 268.2 257.49 267.69 252.14 264 251.9"/><polygon class="cls-5" points="265.21 260.72 266.26 258.86 266.29 255 265.84 254.23 265.56 258.1 265.29 259 264.79 259.2 264 258.57 263.79 255.53 264 252.52 267.98 252.52 268.2 257.49 266.35 260.72 265.21 260.72"/><polygon class="cls-16" points="270.67 231.03 264.05 212.43 252.33 208.57 251.49 205.87 251.49 228.65 253.03 288.34 261.32 288.54 261.32 234.14 260.19 227.49 262.37 233.84 262.37 255.03 269.48 255.03 269.48 252.37 270.67 246.95 270.67 231.03"/><polygon class="cls-17" points="251.49 205.87 255.6 209.65 256.94 214.43 254.26 214.43 256.34 216.8 251.49 230.33 251.49 205.87"/><polygon class="cls-16" points="242.76 205.87 241.93 208.57 230.21 212.43 225.29 235.84 231.37 253.61 235.68 244.77 235.33 242.29 240.74 228.81 242.76 205.87"/><polygon class="cls-17" points="242.76 205.87 240.09 209.17 237.64 215.11 240.41 215.11 238.33 217.48 240.74 228.81 242.76 205.87"/><polygon class="cls-18" points="234.82 226.78 232.82 234.63 235.68 244.77 234.23 234.63 234.82 226.78"/><polygon class="cls-19" points="218.62 271.63 219.92 272.69 295.49 181.15 294.19 180.09 218.62 271.63"/><polygon class="cls-20" points="232.56 253.73 234.5 255.39 235.92 254.86 238.82 252.52 239.12 249.98 235.68 246.74 232.21 251.94 232.56 253.73"/><polygon class="cls-16" points="230.44 250.98 231.9 254.58 237.27 247.7 231.22 230.37 231.22 243.12 230.44 250.98"/><ellipse class="cls-21" cx="250" cy="250" rx="112.5" ry="79.01"/></svg>