<svg id="Layer_1" data-name="Layer 1" xmlns="http://www.w3.org/2000/svg" viewBox="0 0 500 500"><defs><style>.cls-1{fill:#232323;}.cls-2{fill:#2d2d2d;}.cls-3{fill:#868686;}.cls-4{fill:#d9d9d9;}.cls-5{fill:#cecdce;}.cls-6{fill:#f2f2f2;}.cls-7{fill:#ececec;}.cls-8{fill:#3c3c3b;}.cls-9{fill:#e6e6e6;}.cls-10{fill:#1e1e1e;}.cls-11{fill:#666;}.cls-12{fill:#4d4d4d;}.cls-13{fill:gray;}.cls-14,.cls-15{fill:none;}.cls-14{stroke:#3c3c3b;stroke-miterlimit:10;stroke-width:0.21px;}</style></defs><title>icon-19Artboard 7</title><polygon points="241.28 299.09 241.28 282.57 249.72 282.57 249.72 285.04 249.72 299.09 248.91 300.12 249.72 301.15 248.81 302.25 249.72 304.04 249.72 308.09 235.24 308.09 235.24 305.55 242.11 302.25 241.28 301.15 242.21 300.12 241.28 299.09"/><rect class="cls-1" x="239.64" y="255.3" width="10.05" height="47.34"/><polygon points="258.16 299.09 258.16 282.57 249.72 282.57 249.72 285.04 249.72 299.09 250.53 300.12 249.72 301.15 250.63 302.25 249.72 304.04 249.72 308.09 264.2 308.09 264.2 305.55 257.33 302.25 258.16 301.15 257.22 300.12 258.16 299.09"/><rect class="cls-2" x="249.54" y="255.3" width="10.04" height="47.34"/><polygon class="cls-3" points="265.51 253.84 265.87 257.93 265.99 260.63 266.7 262.5 267.82 262.5 269.63 259.33 269.14 254.08 265.51 253.84"/><polygon class="cls-4" points="266.7 262.5 267.73 260.68 267.75 256.89 267.31 256.13 267.04 259.94 266.77 260.82 266.29 261.01 265.51 260.39 265.3 257.41 265.5 254.45 269.42 254.45 269.63 259.33 267.82 262.5 266.7 262.5"/><polygon class="cls-5" points="254.06 210.24 254.06 205.15 250.3 206.95 245.83 204.07 245.83 210.95 250.46 231.65 254.06 210.24"/><polygon class="cls-6" points="245.35 210.02 249.83 210.02 254.24 210.02 249.9 229.14 245.35 210.02"/><polygon class="cls-4" points="249.95 207.35 248.31 207.15 245.52 205.85 244.18 201.88 243.58 201.71 243.09 199.57 243.15 198.03 243.8 197.85 243.7 193.54 245.08 191.36 249.95 190.06 249.95 207.35"/><polygon class="cls-7" points="249.96 207.35 251.55 207.15 254.35 205.85 255.69 201.88 256.29 201.71 256.87 199.57 256.87 198.03 256.07 197.85 256.17 193.54 254.78 191.36 249.92 190.06 246.41 192.48 246.41 196.43 249.92 197.14 248.78 201.46 249.94 202.54 249.96 207.35"/><rect class="cls-8" x="248.44" y="209.47" width="3.01" height="22.92"/><polygon class="cls-9" points="249.83 209.39 248.24 213.21 245.35 210.02 245.76 207.62 249.83 209.39"/><polygon class="cls-10" points="246.84 212.87 249.98 220.93 253.11 212.87 253.11 231.65 247.17 231.65 246.84 212.87"/><polygon class="cls-8" points="272.06 233.34 266.57 214.06 255.06 210.27 254.24 207.62 249.98 228.63 249.98 261.63 262.79 261.63 262.79 228.85 263.91 236.11 263.91 256.92 270.89 256.92 270.89 254.31 272.06 248.99 272.06 233.34"/><polygon class="cls-9" points="249.83 209.39 251.57 213.21 254.24 210.02 254.24 207.62 249.83 209.39"/><polygon class="cls-11" points="254.24 207.62 256.87 210.87 256.96 216.02 254.24 216.02 256.28 218.35 249.98 231.65 249.98 227.38 254.24 207.62"/><polygon class="cls-3" points="234.49 253.84 234.13 257.93 234.01 260.63 233.3 262.5 232.18 262.5 230.37 259.33 230.86 254.08 234.49 253.84"/><polygon class="cls-4" points="233.3 262.5 232.27 260.68 232.25 256.89 232.68 256.13 232.96 259.94 233.22 260.82 233.71 261.01 234.49 260.39 234.7 257.41 234.49 254.45 230.58 254.45 230.37 259.33 232.18 262.5 233.3 262.5"/><polygon class="cls-12" points="227.94 233.34 233.42 214.06 244.94 210.27 245.76 207.62 250.57 228.63 250.57 261.63 237.21 261.63 237.21 228.85 236.09 236.11 236.09 256.92 229.1 256.92 229.1 254.31 227.94 248.99 227.94 233.34"/><polygon class="cls-13" points="245.76 207.62 243.13 210.87 243.04 216.02 245.76 216.02 243.71 218.35 250.57 232.96 250.57 228.69 245.76 207.62"/><polygon class="cls-8" points="243.8 197.85 244.12 198.26 244.7 198.05 244.7 195.64 247.18 194.48 247.59 192.44 253.47 192.1 255.13 195.18 255.57 198.94 255.91 198.94 256.07 197.85 256.87 197 257.22 192.97 254.89 190.4 249.94 188.9 244.56 190.74 243.04 193.6 243.8 197.85"/><circle class="cls-14" cx="247.36" cy="198.94" r="1.36"/><circle class="cls-14" cx="252.23" cy="198.94" r="1.36"/><line class="cls-14" x1="248.72" y1="198.94" x2="250.87" y2="198.94"/><line class="cls-14" x1="253.59" y1="199.14" x2="256.01" y2="198.27"/><line class="cls-14" x1="246" y1="198.94" x2="244.27" y2="197.82"/><polygon class="cls-8" points="245.83 197.82 247.36 196.95 248.97 197.82 247.36 196.32 245.83 197.82"/><polygon class="cls-8" points="250.66 197.82 252.19 196.95 253.8 197.82 252.19 196.32 250.66 197.82"/><path d="M254.24,227.36a2,2,0,0,0,.42-.94l1.37-1-1.48-.08a2,2,0,0,0-.74-.94l-.38-1.26-.82.9a2,2,0,0,0-1.72,1.05l-1.72.57,1.46.52a2,2,0,0,0,2,1.92l.29,0,.91,1.21Z"/><path d="M258.86,229.77a2,2,0,0,0-.84-.59l-.71-1.53-.36,1.44a2.08,2.08,0,0,0-1.07.55l-1.3.14.73,1a2,2,0,0,0,.71,1.89l.24,1.79.78-1.34a2,2,0,0,0,2.27-1.62,2.46,2.46,0,0,0,0-.3l1.36-.67Z"/><path d="M252.67,230.84a2,2,0,0,0-.84-.6l-.71-1.53-.36,1.44a2,2,0,0,0-1.06.55l-1.3.14.73,1a2,2,0,0,0,.71,1.89l1,.45a2,2,0,0,0,2.27-1.62,2.88,2.88,0,0,0,0-.29l1.36-.67Z"/><path d="M260.33,220.59a2,2,0,0,0-1-.21l-1.26-1.12.24,1.46a2,2,0,0,0-.75.93l-1.14.65,1.06.6a2,2,0,0,0,1.41,1.45l.94,1.54.18-1.54a2,2,0,0,0,1.42-2.4,2,2,0,0,0-.09-.28l1-1.16Z"/><polygon points="258.13 222.58 257.42 224.17 259.1 223.67 258.13 222.58"/><ellipse class="cls-15" cx="250" cy="250" rx="112.5" ry="79.01"/></svg>