<svg id="Layer_1" data-name="Layer 1" xmlns="http://www.w3.org/2000/svg" viewBox="0 0 500 500"><defs><style>.cls-1{fill:#d13d55;}.cls-2{fill:#b3b3b3;}.cls-3{fill:#333;}.cls-4{fill:#ff4a68;}.cls-5{fill:#ad3347;}.cls-6{fill:#aaa;}.cls-7{fill:#9c9b9b;}.cls-8{fill:#e4e255;}.cls-9{fill:#bcbcbc;}.cls-10{fill:none;}.cls-11{fill:#fff;}.cls-12{fill:#ccc;}.cls-13{fill:#e6e6e6;}.cls-14{fill:#999;}</style></defs><title>icon-51Artboard 7</title><polygon points="175.73 251.65 179.23 260.19 209.81 251.85 216.29 242.42 175.73 251.65"/><polygon class="cls-1" points="228.82 234.21 208.47 244.01 210.5 249.29 230.29 237.32 228.82 234.21"/><polygon class="cls-2" points="210.76 245.1 211.3 236.77 219.38 236.23 219.22 238.9 219.16 240.58 218.43 240.56 218.03 243.54 215.56 243.11 214.95 244.62 210.76 245.1"/><path d="M209.54,231.23a12.79,12.79,0,0,1,4.19-2,14.38,14.38,0,0,1,4.94,0l.71,7a16.93,16.93,0,0,0-3.84.51c-2,.52-4.4,1.49-4.4,1.49Z"/><polygon class="cls-2" points="211.88 259.89 215.37 259.89 216.29 258.22 215.82 257.2 215.25 257.04 214.89 256.5 211.88 256.5 211.88 259.89"/><polygon class="cls-3" points="161.7 302.98 161.7 310.86 184.69 295.11 180.41 282.72 216.85 282.72 231.07 294.48 227.83 304.02 223.68 303.36 223.68 310.36 230.98 306.01 235.42 293.81 225.6 281.11 241.37 285.11 246.92 297.83 243.23 301.58 249.85 301.58 249.85 296.86 244.48 281.48 228.03 275.73 233.1 259.47 239.35 259.47 245.35 263.47 247.1 261.97 245.1 259.47 248.6 260.47 248.85 257.72 230.35 242.97 230.35 246.22 214.85 262.47 180.85 262.47 175.85 263.96 166.85 260.52 151.6 263.74 140.35 261.21 140.35 266.71 151.35 272.24 162.35 265.27 173.85 266.47 170.73 274.98 142.85 293.22 138.93 299.44 145.69 299.44 145.69 294.89 172.52 282.86 177.92 295.4 165.7 302.98 161.7 302.98"/><polygon class="cls-2" points="188.3 257.5 185.64 260.35 185.64 263.64 196.6 269.65 201.58 267.99 207.35 270.43 208.76 266.47 207.25 264.57 199.59 261.13 188.3 257.5"/><polygon class="cls-3" points="210.96 240.69 215.54 243 215.54 245 209.81 242.42 210.96 240.69"/><polygon points="202.58 281.7 207.35 270.43 201.58 267.99 200.87 269.67 196.82 279.27 197.07 280.2 196.22 280.67 196.52 281.68 195.39 282.64 194.22 285.4 204.1 289.58 204.84 287.85 201.1 283.61 201.98 283.11 201.64 282.13 202.58 281.7"/><polygon class="cls-1" points="200.74 244.84 190.57 255.06 186.5 259.43 201.37 261.94 215.54 245 209.81 242.42 200.74 244.84"/><polygon points="202.58 260.43 190.57 255.06 191.84 253.79 203.68 259.13 202.58 260.43"/><polygon class="cls-4" points="206.11 255.36 211.32 245.66 208.01 243.75 204.95 245.1 199.54 256.07 201.04 258.85 209.07 260.5 211.88 259.95 211.88 256.33 206.11 255.36"/><rect class="cls-5" x="211.88" y="256.33" width="1.44" height="3.63"/><polygon class="cls-6" points="229.75 237.68 233.12 236.1 232.43 234.19 231.45 233.13 228.35 234.59 229.75 237.68"/><rect class="cls-5" x="228.93" y="233.95" width="1.44" height="3.62" transform="translate(-78.41 119.9) rotate(-25.14)"/><polygon class="cls-2" points="245.29 260.01 215.25 258.8 215.56 258.41 245.6 259.62 245.29 260.01"/><polygon class="cls-3" points="211.64 242.84 209 243.94 212.19 245.66 213.29 243.82 211.64 242.84"/><path class="cls-7" d="M229,231l1.69-.68a70.52,70.52,0,0,0-7.18-12.6c-4.53-6.3-13.64-14.9-13.72-13.63-.09,1.5,7.56,7.9,12.22,14.68A71.5,71.5,0,0,1,229,231"/><path class="cls-8" d="M228.73,231l2.28-1s1,1.88,1,2.06a4.94,4.94,0,0,1-.51,1.12l1.52,3.47,1.07-.11s.84,1.58-.63,2-2.12-1.72-2.88-3.47-1.83-4.06-1.83-4.06"/><polygon class="cls-9" points="231.28 233 230.51 234.33 231.37 236.51 232.1 236.57 233.28 236.01 233.04 234.43 232.35 232.95 231.28 233"/><polygon points="210.96 240.69 213.07 241.75 182.1 273.73 175.73 251.65 210.96 240.69"/><polygon points="207.34 247.66 215.54 245 215.54 243.14 212.6 241.51 207.34 247.66"/><ellipse class="cls-10" cx="249.23" cy="237.04" rx="112.5" ry="79.01"/><polygon class="cls-11" points="276.59 197.14 323.53 197.06 322.23 187.3 335.72 176.19 288.79 176.28 276.59 197.14"/><polygon class="cls-12" points="268.73 217.63 288.26 227.24 286.23 232.52 267.06 220.85 268.73 217.63"/><polygon class="cls-2" points="285.97 228.33 285.43 220 277.27 219.95 277.51 222.13 277.57 223.81 278.3 223.79 278.69 226.77 281.17 226.34 281.78 227.85 285.97 228.33"/><polygon points="285.3 218.55 286.23 217.97 286.2 217.45 276.35 216.4 276.39 217.21 277.12 218.22 277.18 219.43 276.3 220.72 285.39 220.23 285.3 218.55"/><polygon class="cls-2" points="284.85 243.12 281.36 243.12 280.44 241.45 280.91 240.42 281.48 240.26 281.83 239.73 284.85 239.73 284.85 243.12"/><polygon class="cls-3" points="354.75 287.6 354.75 295.21 330.63 278.2 316.88 265.95 285.36 265.95 253.13 290.82 253.13 295.21 247.13 295.21 248.88 289.96 271.88 267.83 254.75 269.7 251 277.45 251.5 282.7 245.63 282.7 245.63 278.2 252.13 265.45 270.63 261.7 268.13 257.45 263.63 242.7 257.38 242.7 251.38 246.7 249.63 245.2 251.63 242.7 248.13 243.7 247.88 240.95 266.38 226.2 266.38 229.45 281.88 245.7 315.88 245.7 321.13 248.2 328.13 242.7 345.13 245.7 356.38 244.45 356.38 249.95 345.38 254.2 332.63 247.45 322.88 249.7 328.63 261.82 342.88 263.7 349.63 273.7 353.75 275.2 353.75 282.83 347.75 277.08 341.38 268.58 328.38 267.33 335.5 276.2 350 286.21 354.75 287.6"/><polygon class="cls-2" points="308.43 240.73 311.08 243.57 311.08 246.87 300.13 252.88 295.14 251.22 289.38 253.66 287.97 249.69 289.48 247.8 297.14 244.36 308.43 240.73"/><polygon class="cls-3" points="285.77 223.91 281.18 226.23 281.18 228.22 286.92 225.65 285.77 223.91"/><polygon class="cls-12" points="295.99 228.06 306.16 238.29 310.23 242.66 295.36 245.16 281.18 228.22 286.92 225.65 295.99 228.06"/><polygon points="294.14 243.66 306.16 238.29 304.89 237.01 293.05 242.36 294.14 243.66"/><polygon class="cls-13" points="290.62 238.59 285.4 228.88 288.72 226.98 291.78 228.33 297.19 239.3 295.69 242.08 287.66 243.72 284.85 243.18 284.85 239.56 290.62 238.59"/><rect class="cls-14" x="283.41" y="239.56" width="1.44" height="3.63"/><polygon class="cls-2" points="267.14 220.69 264.04 219.08 265.47 216.61 266.03 216.3 268.7 217.69 267.14 220.69"/><rect class="cls-14" x="265.45" y="218.19" width="3.62" height="1.44" transform="translate(-50.34 354.86) rotate(-62.49)"/><polygon class="cls-2" points="251.44 243.24 281.48 242.03 281.17 241.64 251.13 242.85 251.44 243.24"/><polygon class="cls-3" points="285.09 226.07 287.73 227.16 284.54 228.88 283.44 227.05 285.09 226.07"/><polygon class="cls-12" points="258.75 228.36 259.73 228.88 290.36 174.61 289.38 174.09 258.75 228.36"/><polygon class="cls-9" points="266.03 216.3 266.59 217.4 265.59 219.33 265.06 219.61 264.04 219.08 264.34 217.3 265.32 216.4 266.03 216.3"/><polygon points="294.15 264.93 289.38 253.66 295.14 251.22 295.86 252.9 299.91 262.5 299.66 263.43 300.51 263.9 300.2 264.91 301.34 265.87 302.51 268.63 292.63 272.81 291.89 271.08 295.63 266.84 294.75 266.34 295.09 265.36 294.15 264.93"/><path class="cls-4" d="M309.5,186.72c-1.51,3.39-5.52,6.12-8.94,6.11s-5-2.77-3.45-6.16,5.52-6.12,8.94-6.11S311,183.33,309.5,186.72Z"/></svg>