<svg id="Layer_1" data-name="Layer 1" xmlns="http://www.w3.org/2000/svg" viewBox="0 0 500 500"><defs><style>.cls-1{fill:#ccc;}.cls-2{fill:#ff4a68;}.cls-3{fill:#ff667f;}.cls-4{fill:#8a2938;}.cls-5{fill:#b3b3b3;}.cls-6{fill:none;}.cls-7{fill:#e6e6e6;}.cls-8{fill:#868686;}.cls-9{fill:#d9d9d9;}.cls-10{fill:#1a1a1a;}.cls-11{fill:#383838;}.cls-12{fill:#333;}.cls-13{fill:#212121;}.cls-14{fill:#cecdce;}.cls-15{fill:#4d4d4d;}.cls-16{fill:#ececec;}.cls-17{fill:#3c3c3b;}.cls-18{fill:#a5a4a4;}.cls-19{fill:#f5f5f5;}.cls-20{fill:#282828;}.cls-21{fill:#6f6f6e;}.cls-22{fill:#575756;}.cls-23{fill:#1d1d1b;}.cls-24{fill:#b1b1b1;}.cls-25{fill:#c4c4c4;}.cls-26{fill:#e1ea6c;}.cls-27{fill:#ecff5c;}</style></defs><title>icon-04</title><path class="cls-1" d="M274.58,308.34v-11a12.21,12.21,0,0,1,24.42,0v11Z"/><path class="cls-2" d="M304.88,276.7h-18v8.42A12.2,12.2,0,0,1,299,297.32v7.94h12.15V276.7Z"/><path class="cls-3" d="M274.58,300.38v-3.06a12.21,12.21,0,0,1,12.21-12.2h.06V276.7h-24.3v28.56h12Z"/><rect class="cls-4" x="262.56" y="305.26" width="12.02" height="3.07"/><rect class="cls-4" x="299" y="305.26" width="12.15" height="3.07"/><polygon class="cls-4" points="286.85 220.99 294.65 220.99 289.31 191.34 286.85 188.41 286.85 220.99"/><polygon class="cls-2" points="286.85 188.41 284.39 191.34 279.05 220.99 286.85 220.99 286.85 188.41"/><polygon class="cls-4" points="286.85 184.43 285.3 186.28 284.39 191.34 286.85 188.41 286.85 184.43"/><polygon class="cls-4" points="286.85 188.41 289.31 191.34 288.4 186.28 286.85 184.43 286.85 188.41"/><polygon class="cls-3" points="286.85 172.54 285.16 177.75 279.67 177.75 284.11 180.98 282.42 186.19 284.63 184.59 286.85 182.97 286.85 172.54"/><polygon class="cls-3" points="289.08 184.59 291.29 186.19 289.59 180.98 294.03 177.75 288.55 177.75 286.85 172.54 286.85 182.97 289.08 184.59"/><polygon class="cls-1" points="276.82 272.1 276.98 272.1 281.88 267.81 286.77 272.1 286.85 272.1 286.85 251.46 274.48 251.46 271.75 251.46 271.75 267.96 271.92 267.81 276.82 272.1"/><polygon class="cls-5" points="286.85 272.1 286.93 272.1 291.83 267.81 296.73 272.1 296.88 272.1 301.78 267.81 301.95 267.96 301.95 251.46 299.22 251.46 286.85 251.46 286.85 272.1"/><rect class="cls-4" x="270.04" y="267.73" width="33.63" height="7.03"/><polygon class="cls-6" points="277.84 267.79 282.35 263.43 277.91 267.73 277.84 267.79"/><path class="cls-6" d="M294.65,271.84V271a3.3,3.3,0,0,0-6.59,0v3.73h6.59Z"/><path class="cls-6" d="M303.66,271.84V271a3.29,3.29,0,0,0-6.59,0v3.73h6.59Z"/><path class="cls-6" d="M285.64,271a3.3,3.3,0,0,0-6.59,0v3.73h6.59V271Z"/><path class="cls-6" d="M276.63,271a3.29,3.29,0,0,0-6.59,0v3.73h6.59V271Z"/><polygon class="cls-4" points="265.69 249.93 263.54 262.01 267.84 262.01 265.69 249.93"/><polygon class="cls-4" points="272.83 243.13 271.75 251.46 273.9 251.46 272.83 243.13"/><polygon class="cls-4" points="300.88 243.13 299.8 251.46 301.95 251.46 300.88 243.13"/><polygon class="cls-4" points="308.01 249.93 305.86 262.01 310.17 262.01 308.01 249.93"/><polygon class="cls-5" points="295.94 267.73 295.79 267.73 295.86 267.79 295.94 267.73"/><polygon class="cls-5" points="286.85 267.73 286.85 267.79 286.92 267.73 286.85 267.73"/><polygon class="cls-5" points="286.78 267.73 286.85 267.79 286.85 267.73 286.78 267.73"/><polygon class="cls-5" points="277.77 267.73 277.84 267.79 277.91 267.73 277.77 267.73"/><rect class="cls-3" x="274.7" y="227.8" width="12.15" height="21.55"/><rect class="cls-2" x="286.85" y="227.8" width="12.15" height="21.55"/><rect class="cls-4" x="286.85" y="249.35" width="13.19" height="2.1"/><rect class="cls-4" x="273.66" y="249.35" width="13.19" height="2.1"/><path class="cls-3" d="M270,274.75V271a3.29,3.29,0,0,1,6.59,0v3.73h2.42V271a3.3,3.3,0,0,1,6.59,0v3.73h1.21v-7l-4.51-4.36-4.51,4.36-4.5-4.36-.16.15-4.35,4.21V262h-6.27v12.74H270Z"/><path class="cls-2" d="M295.94,267.73l-.07.07-4.51-4.36-4.43,4.29-.07.07v7h1.21V271a3.3,3.3,0,0,1,6.59,0v3.73h2.42V271a3.29,3.29,0,0,1,6.59,0v3.73h7.48V262h-6.27v5.78l-4.35-4.21-.15-.15Z"/><polygon class="cls-3" points="295.79 267.73 291.36 263.43 295.86 267.79 295.79 267.73"/><polygon class="cls-3" points="282.35 263.43 286.85 267.79 286.78 267.73 282.35 263.43"/><polygon class="cls-3" points="273.33 263.43 277.84 267.79 277.77 267.73 273.33 263.43"/><rect class="cls-4" x="275.49" y="220.92" width="22.73" height="7.03"/><polygon class="cls-6" points="281.21 220.99 284.03 216.63 281.25 220.92 281.21 220.99"/><path class="cls-6" d="M292.13,225v-.82c0-1.82-1-3.29-2.23-3.29s-2.23,1.47-2.23,3.29v3.73h4.45Z"/><path class="cls-6" d="M298.22,225v-.82c0-1.82-1-3.29-2.23-3.29s-2.23,1.47-2.23,3.29v3.73h4.45Z"/><path class="cls-6" d="M286,224.21c0-1.82-1-3.29-2.23-3.29s-2.23,1.47-2.23,3.29v3.73H286v-3.73Z"/><path class="cls-6" d="M279.94,224.21c0-1.82-1-3.29-2.23-3.29s-2.23,1.47-2.23,3.29v3.73h4.45v-3.73Z"/><polygon class="cls-5" points="292.55 220.92 292.46 220.92 292.5 220.99 292.55 220.92"/><polygon class="cls-5" points="286.86 220.92 286.86 220.99 286.9 220.92 286.86 220.92"/><polygon class="cls-5" points="286.81 220.92 286.86 220.99 286.86 220.92 286.81 220.92"/><polygon class="cls-5" points="281.16 220.92 281.21 220.99 281.25 220.92 281.16 220.92"/><polygon class="cls-5" points="303.67 274.75 297.07 274.75 294.65 274.75 288.06 274.75 286.85 274.75 286.85 280.35 304.88 280.35 311.15 280.35 313.24 280.35 313.24 274.75 311.15 274.75 304.88 274.75 303.67 274.75"/><polygon class="cls-1" points="286.85 280.35 286.85 274.75 285.64 274.75 279.05 274.75 276.63 274.75 270.04 274.75 268.83 274.75 262.56 274.75 260.47 274.75 260.47 280.35 262.56 280.35 268.83 280.35 286.85 280.35"/><path class="cls-3" d="M283.81,216.63l-3,4.36-3-4.36-.1.15-2.91,4.17v7h.79v-3.73c0-1.82,1-3.29,2.23-3.29s2.23,1.47,2.23,3.29v3.73h1.64v-3.73c0-1.82,1-3.29,2.23-3.29s2.23,1.47,2.23,3.29v3.73h.82v-7Z"/><path class="cls-2" d="M298.22,227.95H299v-7l-2.9-4.16-.1-.15-3,4.29,0,.07-3-4.36-3,4.29,0,.07v7h.82v-3.73c0-1.82,1-3.29,2.23-3.29s2.23,1.47,2.23,3.29v3.73h1.64v-3.73c0-1.82,1-3.29,2.23-3.29s2.23,1.47,2.23,3.29v3.73Z"/><circle class="cls-7" cx="286.78" cy="238.32" r="9.51"/><path class="cls-1" d="M286.85,228.82v19a9.51,9.51,0,0,0,0-19Z"/><path class="cls-5" d="M286.85,285.12v23.21H299v-11A12.2,12.2,0,0,0,286.85,285.12Z"/><polygon class="cls-5" points="223.9 227.25 222.15 225.4 219.36 225.4 219.36 230.12 222.15 230.72 223.9 227.25"/><polygon class="cls-2" points="220.12 210.69 157.82 210.69 166.32 192.25 157.82 173.28 220.12 173.28 220.12 210.69"/><polygon class="cls-8" points="272.38 256.26 272.71 260.05 272.82 262.54 273.48 264.27 274.51 264.27 276.18 261.34 275.73 256.49 272.38 256.26"/><polygon class="cls-9" points="273.48 264.27 274.43 262.58 274.45 259.08 274.04 258.38 273.79 261.9 273.54 262.71 273.1 262.89 272.38 262.32 272.18 259.56 272.37 256.83 275.99 256.83 276.18 261.34 274.51 264.27 273.48 264.27"/><polygon class="cls-10" points="266.06 260.62 271.33 261.63 272.12 269.56 269.79 278.84 269.45 285.16 261.38 285.44 258.03 261.36 257.96 260.62 266.06 260.62"/><polygon class="cls-11" points="263.54 278.44 263.54 285.39 269.79 285.16 269.79 278.84 266.28 273.73 263.54 278.44"/><polygon class="cls-12" points="266.16 273.83 263.54 260.62 271.24 260.62 272.12 269.56 269.79 278.84 266.16 273.83"/><polygon class="cls-12" points="251.98 260.62 246.62 261.63 245.18 269.56 243.12 276.64 245.2 285.16 251.38 285.44 255.41 277.79 258.87 261.36 259 260.62 251.98 260.62"/><polygon class="cls-13" points="243.12 276.64 244.49 285.44 252.17 285.39 255.41 277.79 252.43 273.73 243.12 276.64"/><polygon class="cls-13" points="252.43 273.73 254.8 260.62 247.06 260.62 246.67 261.32 243.12 276.64 252.43 273.73"/><polygon class="cls-14" points="263.01 218 263.01 213.3 259.54 214.96 255.41 212.3 255.41 218.66 259.13 220.16 263.01 218"/><path class="cls-12" d="M260.18,262s-1.08-40.59-1.08-44.76c-1.85-.7-4.07-1.63-4.07-1.63L255,217.8l-11.33,3.73-7.91,9.78L226.1,228l-2.56,4.1,1.79,2.45,7.94,4.46h6.07l8.43-7.74,2.92,10.88-.4,1.56-2.65,6.1L246.45,262Z"/><path class="cls-15" d="M259.1,262V217.21c1.85-.7,4.07-1.63,4.07-1.63l.07,2.22,11.33,3.73,2.31,16.93.88,14.39-1.08,1.55v2.42H272l-.27-2.55-.54-8.88-2-10.2-1.77,7,.41,1.56,2.65,6.1,1.2,12.12Z"/><polygon class="cls-16" points="259.21 215.33 257.7 215.15 254.22 211.24 253.88 210.28 253.32 210.12 252.54 208.15 253.17 206.55 253.53 206.55 253.44 201.85 254.72 199.76 259.18 198.18 259.21 215.33"/><polygon class="cls-9" points="259.23 215.33 260.69 215.15 263.01 213.73 264.52 210.28 265.07 210.12 265.86 208.15 265.22 206.55 264.87 206.55 264.96 201.85 263.68 199.76 259.16 198.18 259.19 205.9 258.3 210.3 259.21 210.88 259.23 215.33"/><rect class="cls-10" x="271.72" y="254.39" width="4.93" height="2.7"/><rect class="cls-10" x="221.19" y="228.09" width="4.93" height="2.7" transform="translate(-88.9 300) rotate(-58.45)"/><polygon points="269.81 300.1 269.81 284.83 261.38 284.83 261.38 287.11 261.38 300.1 262.57 301.05 261.38 302 262.57 303.01 261.38 304.67 261.38 308.41 271.18 308.41 271.18 306.06 268.72 303.01 269.81 302 268.43 301.05 269.81 300.1"/><polygon points="244.49 300.1 244.49 284.83 252.75 284.83 252.75 300.1 251.83 301.05 252.75 302 251.83 303.01 252.75 304.67 252.75 308.41 237.83 308.41 237.83 306.06 244.73 303.01 244.14 302 245.18 301.05 244.49 300.1"/><polygon class="cls-17" points="254.22 219.76 243.7 223.54 243.7 221.31 254.22 217.53 254.22 219.76"/><polygon class="cls-18" points="260.25 220.49 260.25 236.63 259.1 237.31 257.95 236.63 257.95 220.49 260.25 220.49"/><rect class="cls-19" x="258.53" y="230.75" width="1.14" height="1.14" transform="translate(-87.68 250.97) rotate(-45)"/><rect class="cls-19" x="258.53" y="225.64" width="1.14" height="1.14" transform="translate(-84.08 249.24) rotate(-44.96)"/><rect class="cls-19" x="258.62" y="221.05" width="0.97" height="0.97" transform="translate(-80.81 247.39) rotate(-44.88)"/><rect class="cls-19" x="258.69" y="219.15" width="0.83" height="0.83" transform="translate(-79.39 247.24) rotate(-44.95)"/><rect class="cls-19" x="258.69" y="217.64" width="0.83" height="0.83" transform="translate(-78.27 247.37) rotate(-45.05)"/><polygon class="cls-20" points="250.29 240.57 267.94 240.57 267.94 243.78 250.29 243.76 250.29 240.57"/><polygon class="cls-17" points="264.21 219.76 274.73 223.54 274.73 221.31 264.21 217.53 264.21 219.76"/><rect class="cls-21" x="262.8" y="227.22" width="7.4" height="1.82"/><rect class="cls-19" x="265.93" y="228.49" width="1.14" height="1.14" transform="translate(-84.14 252.35) rotate(-44.48)"/><rect class="cls-8" x="248.14" y="227.22" width="7.4" height="1.82"/><rect class="cls-19" x="251.27" y="228.49" width="1.14" height="1.14" transform="translate(-88.36 241.68) rotate(-44.41)"/><polygon class="cls-19" points="256.63 240.07 256.63 240.56 261.19 240.56 261.19 243.79 256.63 243.79 256.63 244.28 261.61 244.28 261.61 240.07 256.63 240.07"/><polygon class="cls-22" points="264.9 203.94 258.79 199.18 253.56 202.9 250.87 200.93 252.26 198.12 259.1 195.1 266.34 199 267.28 201.11 264.9 203.94"/><path class="cls-23" d="M254.5,201.83s0,1.85,4.17,2.07,5-1.21,5-1.21a7.11,7.11,0,0,0-4.93-2.15c-3.26-.16-4.28,1.29-4.28,1.29"/><path class="cls-17" d="M253.44,203.48v-1.9s.08-3.11,4.89-3.13,6.58,3.27,6.58,3.27l0,3.11a8.35,8.35,0,0,0-6.57-3.17c-4.28-.1-4.9,1.82-4.9,1.82"/><path class="cls-24" d="M259.47,200c0,.83-.44,1.51-1,1.52s-1-.67-1-1.5.44-1.51,1-1.51,1,.67,1,1.5"/><rect class="cls-15" x="219.18" y="170.74" width="1.88" height="137.67"/><ellipse class="cls-6" cx="250" cy="250.24" rx="112.5" ry="79.01"/></svg>