<svg id="Layer_1" data-name="Layer 1" xmlns="http://www.w3.org/2000/svg" xmlns:xlink="http://www.w3.org/1999/xlink" viewBox="0 0 500 500"><defs><style>.cls-1{fill:none;}.cls-2{fill:#fff;}.cls-3{fill:url(#linear-gradient);}.cls-4{fill:#333;}.cls-5{fill:#666;}.cls-6{fill:#999;}.cls-7{fill:gray;}.cls-8{fill:#4d4d4d;}</style><linearGradient id="linear-gradient" x1="250" y1="322.97" x2="250" y2="221.67" gradientUnits="userSpaceOnUse"><stop offset="0" stop-color="#309"/><stop offset="1" stop-color="#4c00e6"/></linearGradient></defs><title>icon-45Artboard 7</title><ellipse class="cls-1" cx="250" cy="250" rx="112.5" ry="79.01"/><path class="cls-2" d="M250,328.08a55.76,55.76,0,1,1,55.76-55.76A55.82,55.82,0,0,1,250,328.08"/><path class="cls-3" d="M250,221.67a50.65,50.65,0,1,0,50.65,50.65A50.71,50.71,0,0,0,250,221.67"/><polygon class="cls-4" points="313.53 287.89 313.53 289.3 307.54 289.3 307.54 290.72 313.53 290.72 313.53 291.79 314.67 291.79 314.67 290.72 314.67 289.3 314.67 287.89 313.53 287.89"/><polygon class="cls-4" points="313.53 287.89 313.53 289.3 307.54 289.3 307.54 290.72 313.53 290.72 313.53 291.79 314.67 291.79 314.67 290.72 314.67 289.3 314.67 287.89 313.53 287.89"/><polygon class="cls-4" points="186.47 291.79 186.47 290.37 192.46 290.37 192.46 288.95 186.47 288.95 186.47 287.89 185.34 287.89 185.34 288.95 185.34 290.37 185.34 291.79 186.47 291.79"/><path class="cls-5" d="M281.13,306.49a10.07,10.07,0,1,1,10.07-10.07,10.08,10.08,0,0,1-10.07,10.07m0-17.63a7.56,7.56,0,1,0,7.56,7.56,7.57,7.57,0,0,0-7.56-7.56"/><path class="cls-5" d="M284,296.42a2.87,2.87,0,1,1-2.87-2.87,2.87,2.87,0,0,1,2.87,2.87"/><rect class="cls-5" x="272.37" y="295.55" width="17.62" height="1.9" transform="translate(-118.05 209.36) rotate(-34.21)"/><rect class="cls-5" x="280.23" y="287.69" width="1.9" height="17.62" transform="translate(-108.49 419.51) rotate(-64.04)"/><rect class="cls-5" x="280.23" y="287.69" width="1.9" height="17.62" transform="translate(-14.62 14.59) rotate(-2.9)"/><path class="cls-5" d="M218.63,306.49a10.07,10.07,0,1,1,10.07-10.07,10.08,10.08,0,0,1-10.07,10.07m0-17.63a7.56,7.56,0,1,0,7.56,7.56,7.57,7.57,0,0,0-7.56-7.56"/><path class="cls-5" d="M221.5,296.42a2.87,2.87,0,1,1-2.87-2.87,2.87,2.87,0,0,1,2.87,2.87"/><rect class="cls-5" x="209.88" y="295.55" width="17.62" height="1.9" transform="translate(-128.86 174.23) rotate(-34.21)"/><rect class="cls-5" x="217.73" y="287.69" width="1.9" height="17.62" transform="translate(-143.63 363.3) rotate(-64.04)"/><rect class="cls-5" x="217.73" y="287.69" width="1.9" height="17.62" transform="translate(-14.66 11.39) rotate(-2.89)"/><path class="cls-5" d="M189.79,291.55H310V244.47H189.79Zm117.75-3.66H297.31V248.13h10.22Z"/><rect class="cls-6" x="230.29" y="248.13" width="39.2" height="39.75"/><rect class="cls-7" x="217.9" y="248.13" width="10.22" height="39.75"/><rect class="cls-7" x="205.06" y="257.92" width="10.22" height="29.97"/><rect class="cls-7" x="192.22" y="248.13" width="10.22" height="39.75"/><rect class="cls-7" x="284.48" y="257.68" width="10.22" height="30.2"/><rect class="cls-8" x="284.48" y="248.13" width="10.22" height="7.33"/><rect class="cls-8" x="205.06" y="248.13" width="10.22" height="7.33"/><rect class="cls-7" x="271.64" y="248.13" width="10.22" height="39.75"/></svg>