<svg id="Layer_1" data-name="Layer 1" xmlns="http://www.w3.org/2000/svg" viewBox="0 0 500 500"><defs><style>.cls-1{fill:none;}.cls-2{fill:#333;}.cls-3{fill:#b3b3b3;}.cls-4{fill:#575756;}.cls-5{fill:#666;}.cls-6{fill:#d13d55;}.cls-7{fill:#999;}.cls-8{fill:#ff4a68;}.cls-9{fill:#e1ea6c;}.cls-10{fill:#ecff5c;}</style></defs><title>icon03</title><ellipse class="cls-1" cx="250" cy="250" rx="112.5" ry="79.01"/><path class="cls-2" d="M256.68,259.86l.31,4.54L264,279.06l1.68,1,2.15-1.59-2.06-6.22Zm8.62,13.58L267,278l-1.35,1-1.19-.83L263,275.1Z"/><rect class="cls-3" x="213.41" y="189.3" width="0.7" height="13.84" transform="translate(-74.74 165.13) rotate(-36.4)"/><rect class="cls-2" x="257.17" y="241.79" width="1.8" height="20.93" transform="translate(-99.35 202.39) rotate(-36.4)"/><polygon class="cls-4" points="290.62 307.93 279.97 313.47 265.29 272 254.39 257.21 245.81 241.86 216.63 202.27 217.94 201.3 216.01 198.68 217.69 197.44 273.51 273.16 276.04 285.6 278.66 286.99 290.62 307.93"/><rect class="cls-2" x="257.38" y="248.96" width="0.81" height="13.37" transform="translate(-101.42 202.93) rotate(-36.41)"/><rect class="cls-2" x="244.07" y="240.86" width="6.34" height="1.05" transform="translate(-94.92 193.21) rotate(-36.3)"/><rect class="cls-2" x="215.3" y="195.65" width="1.51" height="2.67" transform="translate(-74.75 166.73) rotate(-36.42)"/><rect class="cls-2" x="214.48" y="185.3" width="1.16" height="16.16" transform="translate(-72.8 165.36) rotate(-36.4)"/><polygon class="cls-2" points="214.6 202.46 215.23 203.3 220.33 199.54 219.7 198.7 214.6 202.46"/><rect class="cls-5" x="234.04" y="194.78" width="1.63" height="49.13" transform="translate(-84.34 182.17) rotate(-36.4)"/><path class="cls-2" d="M234.18,272.26l-2.05,6.22,2.15,1.59,1.68-1L243,264.39l.31-4.54ZM237,275.1l-1.42,3.1-1.19.83L233,278l1.71-4.58Z"/><rect class="cls-3" x="279.32" y="195.87" width="13.84" height="0.7" transform="translate(-41.54 310.21) rotate(-53.61)"/><rect class="cls-2" x="231.46" y="251.36" width="20.93" height="1.8" transform="translate(-104.63 297.62) rotate(-53.66)"/><polygon class="cls-4" points="209.37 307.93 220.03 313.47 234.71 272 245.61 257.21 254.18 241.86 283.37 202.27 282.06 201.3 283.99 198.68 282.31 197.44 226.48 273.16 223.96 285.6 221.34 286.99 209.37 307.93"/><polygon class="cls-6" points="222.16 277.21 222.16 231.15 233.94 218.69 265.82 218.69 278.05 230.7 278.05 277.21 250.02 290.02 222.16 277.21"/><rect class="cls-2" x="252.23" y="238.22" width="1.05" height="6.34" transform="translate(-91.51 301.65) rotate(-53.61)"/><rect class="cls-2" x="282.6" y="196.23" width="2.68" height="1.51" transform="translate(-43.17 308.44) rotate(-53.57)"/><polygon class="cls-2" points="290.2 187.22 280.61 200.23 279.67 199.54 289.26 186.53 290.2 187.22"/><rect class="cls-2" x="282.01" y="197.83" width="1.05" height="6.34" transform="translate(-47.14 308.44) rotate(-53.48)"/><rect class="cls-5" x="240.58" y="218.54" width="49.13" height="1.63" transform="translate(-68.75 302.6) rotate(-53.6)"/><polygon class="cls-6" points="223.83 260.67 205.55 266.8 214.74 271.52 205.55 281.78 223.83 276.12 223.83 260.67"/><polygon class="cls-6" points="276.29 256.84 294.45 250.47 285.37 246.46 294.45 235.02 276.29 241.74 276.29 256.84"/><polygon class="cls-3" points="278.89 228.92 267.75 217.99 266.66 216.93 265.15 216.93 250.11 216.93 250.11 220.64 250.11 220.64 265.15 220.64 276.29 231.57 276.29 276.11 250.11 288.07 250.11 288.07 250.11 292.15 251.66 291.44 277.83 279.49 280 278.5 280 276.11 280 231.57 280 230.01 278.89 228.92"/><polygon class="cls-7" points="221.33 228.92 232.47 217.99 233.55 216.93 235.07 216.93 250.1 216.93 250.1 220.64 250.1 220.64 235.07 220.64 223.93 231.57 223.93 276.11 250.1 288.07 250.11 288.07 250.11 292.15 248.56 291.44 222.39 279.49 220.22 278.5 220.22 276.11 220.22 231.57 220.22 230.01 221.33 228.92"/><polygon class="cls-8" points="250.11 220.64 265.15 220.64 276.29 231.57 276.29 276.11 250.11 288.07 250.11 220.64"/><rect class="cls-9" x="248.45" y="243.06" width="4.22" height="30.25" transform="translate(-108.26 231.94) rotate(-41.67)"/><polygon class="cls-10" points="245.82 242.37 236 251.2 232.59 247.42 239.75 240.98 245.82 242.37"/><rect class="cls-9" x="236.01" y="263.54" width="11.31" height="3.32" transform="translate(-115.82 234.62) rotate(-42.77)"/><path class="cls-10" d="M244.69,260.14a14.35,14.35,0,0,0,10.44,1.15,11,11,0,0,0,8.12-10,15.3,15.3,0,0,0-3.44-10.54c-2.85-3.76-7.09-6.1-11.28-8.07a24.66,24.66,0,0,1,8.55,2.86,19.78,19.78,0,0,1,9.33,11.91c1.14,4,1.07,8.11-1.23,11.65a13.64,13.64,0,0,1-12.13,6.1,10.68,10.68,0,0,1-8.35-5.08"/></svg>