<svg id="Layer_1" data-name="Layer 1" xmlns="http://www.w3.org/2000/svg" viewBox="0 0 500 500"><defs><style>.cls-1{fill:#999;}.cls-2{fill:#3c3c3b;}.cls-3{fill:#575756;}.cls-4{fill:#d9d9d9;}.cls-5{fill:#ececec;}.cls-6{fill:#6f6f6e;}.cls-7{fill:#333;}.cls-8{fill:#fff;}.cls-9{fill:#666;}.cls-10{fill:#4d4d4d;}.cls-11{fill:#757575;}.cls-12{fill:none;}</style></defs><title>icon-61Artboard 7</title><polygon class="cls-1" points="262.51 292.08 300.53 292.08 302.96 289.49 297.24 289.49 262.51 292.08"/><rect class="cls-2" x="293.46" y="258.84" width="1.06" height="32.27"/><rect class="cls-3" x="292.15" y="263.74" width="3.7" height="0.79"/><rect class="cls-3" x="290.27" y="272.16" width="7.44" height="0.79"/><path class="cls-4" d="M282.46,266.45a4.48,4.48,0,1,0,4.48-4.48,4.48,4.48,0,0,0-4.48,4.48"/><path class="cls-4" d="M271.88,263.23a4.48,4.48,0,1,0,4.48-4.48,4.48,4.48,0,0,0-4.48,4.48"/><path class="cls-5" d="M277.7,266.25a4,4,0,1,0,4-4,3.95,3.95,0,0,0-4,4"/><path class="cls-4" d="M288.37,273.61a1.42,1.42,0,1,0,1.42-1.42,1.42,1.42,0,0,0-1.42,1.42"/><path class="cls-4" d="M267.18,262.17a1.42,1.42,0,1,0,1.42-1.42,1.42,1.42,0,0,0-1.42,1.42"/><path class="cls-5" d="M285.5,269.74a3.57,3.57,0,1,0,3.57-3.57,3.57,3.57,0,0,0-3.57,3.57"/><rect class="cls-6" x="282.21" y="269.37" width="3.31" height="11.21"/><rect class="cls-7" x="281.27" y="274.04" width="5.19" height="21.59"/><rect class="cls-3" x="281.66" y="269.37" width="4.41" height="0.83"/><rect class="cls-8" x="281.66" y="272.16" width="4.41" height="0.83"/><rect class="cls-6" x="288.84" y="276.06" width="1.84" height="6.25"/><rect class="cls-7" x="288.31" y="278.67" width="2.89" height="12.04"/><rect class="cls-3" x="288.53" y="276.06" width="2.46" height="0.46"/><rect class="cls-8" x="288.53" y="277.62" width="2.46" height="0.46"/><path class="cls-4" d="M271.56,253a7.31,7.31,0,1,0,7.31-7.31,7.31,7.31,0,0,0-7.31,7.31"/><path class="cls-4" d="M258.36,251.24a3.85,3.85,0,1,0,4-3.74,3.85,3.85,0,0,0-4,3.74"/><path class="cls-5" d="M265.06,247.95a4.81,4.81,0,1,0,4.81-4.81,4.81,4.81,0,0,0-4.81,4.81"/><path class="cls-4" d="M254.79,249.28a2.5,2.5,0,1,0,2.5-2.5,2.5,2.5,0,0,0-2.5,2.5"/><path class="cls-5" d="M275.81,256.43a8.08,8.08,0,1,0,8.08-8.08,8.08,8.08,0,0,0-8.08,8.08"/><polygon class="cls-9" points="300.52 292.08 295.43 308.15 299.73 297.73 302.96 289.49 300.52 292.08"/><rect class="cls-2" x="280.61" y="235.67" width="1.82" height="55.1"/><rect class="cls-3" x="278.36" y="244.03" width="6.31" height="1.36"/><rect class="cls-3" x="275.16" y="258.41" width="12.71" height="1.36"/><polygon class="cls-10" points="295.43 308.15 268.24 308.15 262.51 292.08 276.03 287.31 287.01 287.31 300.52 292.08 295.43 308.15"/><polygon class="cls-11" points="285.06 308.15 277.98 308.15 276.03 287.31 287 287.31 285.06 308.15"/><polygon class="cls-1" points="205.09 286.74 272.01 286.74 276.29 282.16 266.22 282.16 205.09 286.74"/><rect class="cls-2" x="259.57" y="226.46" width="1.87" height="56.8"/><rect class="cls-3" x="257.26" y="235.08" width="6.51" height="1.4"/><rect class="cls-3" x="253.96" y="249.9" width="13.1" height="1.4"/><path class="cls-4" d="M226.15,240.11a4.68,4.68,0,1,0,4.68-4.68,4.68,4.68,0,0,0-4.68,4.68"/><path class="cls-5" d="M231.4,234.65A7.63,7.63,0,1,0,239,227a7.63,7.63,0,0,0-7.63,7.63"/><path class="cls-4" d="M249.76,253.17a3.54,3.54,0,1,0,3.54-3.54,3.54,3.54,0,0,0-3.54,3.54"/><path class="cls-4" d="M214.31,235.54a3.56,3.56,0,1,0,3.56-3.56,3.56,3.56,0,0,0-3.56,3.56"/><path class="cls-5" d="M246.65,247.36A6.32,6.32,0,1,0,253,241a6.31,6.31,0,0,0-6.32,6.32"/><rect class="cls-6" x="239.77" y="246.75" width="5.82" height="19.73"/><rect class="cls-7" x="238.12" y="254.97" width="9.13" height="38.01"/><rect class="cls-3" x="238.8" y="246.75" width="7.76" height="1.47"/><rect class="cls-8" x="238.8" y="251.66" width="7.76" height="1.46"/><rect class="cls-6" x="251.43" y="258.53" width="3.25" height="11"/><rect class="cls-7" x="250.5" y="263.11" width="5.09" height="21.19"/><rect class="cls-3" x="250.89" y="258.53" width="4.33" height="0.82"/><rect class="cls-8" x="250.89" y="261.27" width="4.33" height="0.82"/><path class="cls-4" d="M221.67,222.46A11.47,11.47,0,1,0,233.14,211a11.47,11.47,0,0,0-11.47,11.47"/><path class="cls-4" d="M199,215A11,11,0,1,0,210,204.06,11,11,0,0,0,199,215"/><path class="cls-5" d="M208.88,211.29a12.2,12.2,0,1,0,12.2-12.2,12.2,12.2,0,0,0-12.2,12.2"/><path class="cls-4" d="M241.05,238.64a6.37,6.37,0,1,0,6.37-6.37,6.37,6.37,0,0,0-6.37,6.37"/><path class="cls-4" d="M189,209.24a4.75,4.75,0,1,0,4.75-4.75,4.75,4.75,0,0,0-4.75,4.75"/><path class="cls-5" d="M232.89,225.1A13.09,13.09,0,1,0,246,212a13.09,13.09,0,0,0-13.09,13.09"/><polygon class="cls-9" points="272.01 286.74 263.04 315.01 270.6 296.68 276.29 282.16 272.01 286.74"/><rect class="cls-2" x="236.95" y="187.43" width="3.2" height="96.99"/><rect class="cls-3" x="232.99" y="202.15" width="11.11" height="2.39"/><rect class="cls-3" x="227.36" y="227.45" width="22.37" height="2.39"/><polygon class="cls-10" points="263.04 315.01 215.18 315.01 205.09 286.74 228.89 278.34 248.21 278.34 272.01 286.74 263.04 315.01"/><polygon class="cls-11" points="244.78 315.01 232.32 315.01 228.89 278.34 248.21 278.34 244.78 315.01"/><ellipse class="cls-12" cx="250.54" cy="250" rx="112.5" ry="79.01"/></svg>