<svg id="Layer_1" data-name="Layer 1" xmlns="http://www.w3.org/2000/svg" xmlns:xlink="http://www.w3.org/1999/xlink" viewBox="0 0 500 500"><defs><style>.cls-1,.cls-10,.cls-6{fill:none;}.cls-2{fill:#ff4a68;}.cls-3{fill:#595959;}.cls-4{fill:#ecff5c;}.cls-5{clip-path:url(#clip-path);}.cls-10,.cls-6{stroke:#ecff5c;stroke-miterlimit:10;}.cls-6{stroke-linecap:round;}.cls-7{fill:#d3d66e;}.cls-8{fill:#e1ea6c;}.cls-9{fill:#b3b3b3;}.cls-10{stroke-width:0.5px;}.cls-11{fill:#ff667f;}</style><clipPath id="clip-path"><path class="cls-1" d="M224.94,214.59a44.82,44.82,0,1,0,55,0Z"/></clipPath></defs><title>icon-70Artboard 7</title><polygon class="cls-2" points="305.09 264.95 300.08 270.59 299.12 260.89 305.09 264.95"/><polygon class="cls-2" points="297.36 281.76 289.92 285.44 291.5 275.82 297.36 281.76"/><polygon class="cls-2" points="287.43 294.26 277.15 293.89 281.28 286.82 287.43 294.26"/><path class="cls-3" d="M204.38,241.3c0-25.22,20.45-43.63,45.67-43.63s45.67,18.41,45.67,43.63-20.45,53-45.67,53-45.67-27.74-45.67-53"/><polygon class="cls-2" points="207.56 244.78 251.34 231.84 293.79 244.94 292.76 257.17 251.34 245.31 208.7 257 207.56 244.78"/><polygon class="cls-2" points="194.91 264.95 199.92 270.59 200.88 260.89 194.91 264.95"/><polygon class="cls-2" points="202.64 281.76 210.08 285.44 208.5 275.82 202.64 281.76"/><polygon class="cls-2" points="212.57 294.26 222.85 293.89 218.72 286.82 212.57 294.26"/><path class="cls-4" d="M250.6,269.47c-9.29,0-17.51,7.65-22.55,19.4,5,11.74,13.26,19.4,22.55,19.4s17.51-7.66,22.55-19.4c-5-11.74-13.26-19.4-22.55-19.4"/><g class="cls-5"><line class="cls-6" x1="209.01" y1="246.39" x2="263.97" y2="301.35"/><polyline class="cls-6" points="214.41 257.51 234.54 274.4 265.9 300.71"/><line class="cls-6" x1="201.64" y1="253.51" x2="265.9" y2="298.5"/><polyline class="cls-6" points="202.75 260.08 231.31 276.58 268.27 297.92"/><line class="cls-6" x1="204.58" y1="266.18" x2="271.55" y2="297.41"/><polyline class="cls-6" points="194.53 267.17 231.09 280.48 274.56 296.3"/><line class="cls-6" x1="202.3" y1="274.58" x2="271.59" y2="293.15"/><line class="cls-6" x1="199.21" y1="278.4" x2="279.14" y2="292.49"/><line class="cls-6" x1="206.36" y1="283.54" x2="275.24" y2="289.56"/><line class="cls-6" x1="209.11" y1="287.35" x2="289.06" y2="287.35"/><line class="cls-6" x1="209.89" y1="290.88" x2="291.42" y2="283.83"/><line class="cls-6" x1="231.89" y1="290.54" x2="299.79" y2="278.57"/><line class="cls-6" x1="236.81" y1="290.88" x2="305.4" y2="272.5"/><line class="cls-6" x1="230.88" y1="294.3" x2="295.25" y2="270.87"/><line class="cls-6" x1="231.69" y1="295.82" x2="309.53" y2="259.41"/><line class="cls-6" x1="233.66" y1="296.77" x2="297.08" y2="260.15"/><line class="cls-6" x1="236.31" y1="296.92" x2="298.31" y2="253.51"/><line class="cls-6" x1="235.21" y1="299.74" x2="286.08" y2="257.06"/><line class="cls-6" x1="236.31" y1="301.01" x2="288" y2="249.32"/><line class="cls-6" x1="239.69" y1="299.6" x2="275.32" y2="257.15"/><polyline class="cls-6" points="240.29 301.18 263.73 267.7 282.33 241.14"/><line class="cls-6" x1="242.37" y1="300.52" x2="271.54" y2="250"/><polyline class="cls-6" points="242.37 303.64 259.71 266.46 273.16 237.62"/><line class="cls-6" x1="244.69" y1="301.87" x2="263.48" y2="250.25"/><polyline class="cls-6" points="244.69 307.08 255.81 265.55 265.03 231.16"/><polyline class="cls-6" points="247.26 302.71 254.21 263.29 259.39 233.92"/><line class="cls-6" x1="248.15" y1="308.22" x2="255.12" y2="228.57"/><polyline class="cls-6" points="248.42 305.34 252.07 263.88 255.53 224.67"/><polyline class="cls-6" points="249.97 307.64 249.97 267.31 249.97 266.97 249.97 242.46"/><line class="cls-6" x1="251.39" y1="303.61" x2="245.21" y2="232.95"/><line class="cls-6" x1="253.52" y1="307.47" x2="241.3" y2="238.17"/><line class="cls-6" x1="254.82" y1="305.54" x2="234.15" y2="228.57"/><polyline class="cls-6" points="256.83 306.19 242.61 267.12 242.5 266.81 231.87 237.62"/><line class="cls-6" x1="258.52" y1="305.68" x2="226.1" y2="236.16"/><line class="cls-6" x1="260.14" y1="304.96" x2="226.2" y2="246.17"/><polyline class="cls-6" points="262.12 304.65 236.75 268.36 213.35 234.88"/><polyline class="cls-6" points="258.9 297.99 236.22 270.96 234.32 268.7 216.04 246.92"/></g><polygon class="cls-2" points="224.01 271.07 216.97 271.07 220.49 276.16 224.01 271.07"/><polygon class="cls-2" points="215.57 260.78 208.58 259.97 211.49 265.44 215.57 260.78"/><path class="cls-7" d="M277.43,300.43s-27.82-5.76-43.36-15.8c-18.37-11.86-26.43-25.85-23.25-48.33,2.67-18.83,12.54-33,29.53-37.57v-.41c-25.69,4.72-45.16,25.18-45.16,52.24,0,21.91,12.95,38.6,31.68,47,18.45,8.28,42.54,10.08,42.54,10.08Z"/><polygon class="cls-2" points="275.99 271.07 283.03 271.07 279.51 276.16 275.99 271.07"/><polygon class="cls-2" points="284.43 260.78 291.42 259.97 288.52 265.44 284.43 260.78"/><path class="cls-8" d="M222.85,300.43s27.82-5.76,43.36-15.8c18.37-11.86,26.43-25.85,23.25-48.33-2.67-18.83-12.54-33-29.53-37.57v-.41c25.69,4.72,45.16,25.18,45.16,52.24,0,21.91-12.94,38.6-31.68,47-18.45,8.28-42.54,10.08-42.54,10.08Z"/><path class="cls-9" d="M280.47,237.26a29.88,29.88,0,1,1-29.88-29.88,29.88,29.88,0,0,1,29.88,29.88"/><polygon class="cls-2" points="250.6 191.73 252.74 196.07 257.53 196.76 254.06 200.15 254.88 204.91 250.6 202.66 246.31 204.91 247.13 200.15 243.66 196.76 248.45 196.07 250.6 191.73"/><polygon class="cls-10" points="250.6 191.73 252.74 196.07 257.53 196.76 254.06 200.15 254.88 204.91 250.6 202.66 246.31 204.91 247.13 200.15 243.66 196.76 248.45 196.07 250.6 191.73"/><rect class="cls-8" x="248.98" y="227.29" width="4.82" height="34.54" transform="translate(-98.99 229.04) rotate(-41.67)"/><polygon class="cls-4" points="245.97 226.5 234.77 236.58 230.88 232.26 239.06 224.91 245.97 226.5"/><rect class="cls-8" x="234.78" y="250.67" width="12.91" height="3.79" transform="translate(-107.36 230.97) rotate(-42.77)"/><path class="cls-4" d="M244.69,246.79a16.38,16.38,0,0,0,11.92,1.31,12.54,12.54,0,0,0,9.28-11.39,17.47,17.47,0,0,0-3.93-12c-3.25-4.29-8.09-7-12.88-9.22a28.16,28.16,0,0,1,9.76,3.27,22.58,22.58,0,0,1,10.65,13.59c1.31,4.53,1.22,9.26-1.4,13.3a15.57,15.57,0,0,1-13.85,7,12.19,12.19,0,0,1-9.54-5.8"/><rect class="cls-11" x="246.37" y="290.88" width="8.45" height="15.14"/><polygon class="cls-11" points="228.45 280.74 212.57 294.26 208.13 284.59 224.01 271.07 228.45 280.74"/><polygon class="cls-11" points="218.86 270.9 202.64 281.76 199.35 271.64 215.57 260.78 218.86 270.9"/><polygon class="cls-11" points="212.16 258.82 194.91 264.95 194.91 253.93 211.6 248.19 212.16 258.82"/><polygon class="cls-11" points="271.55 280.74 287.43 294.26 291.87 284.59 275.99 271.07 271.55 280.74"/><polygon class="cls-11" points="281.14 270.9 297.36 281.76 300.65 271.64 284.43 260.78 281.14 270.9"/><polygon class="cls-11" points="287.84 258.82 305.09 264.95 305.09 253.93 288.4 248.19 287.84 258.82"/><ellipse class="cls-1" cx="250" cy="250" rx="112.5" ry="79.01"/></svg>