<svg id="Layer_1" data-name="Layer 1" xmlns="http://www.w3.org/2000/svg" viewBox="0 0 500 500"><defs><style>.cls-1{fill:#d13d55;}.cls-2{fill:#b3b3b3;}.cls-3{fill:#333;}.cls-4{fill:#ff4a68;}.cls-5{fill:#ad3347;}.cls-6{fill:#bcbcbc;}.cls-7{fill:#ccc;}.cls-8{fill:#aaa;}.cls-9{fill:#9c9b9b;}.cls-10{fill:#e4e255;}.cls-11{fill:none;}</style></defs><title>icon-34Artboard 7</title><polygon class="cls-1" points="299.17 250.27 279.64 259.88 281.68 265.15 300.84 253.48 299.17 250.27"/><polygon class="cls-2" points="281.93 260.96 282.48 252.63 290.63 252.59 290.39 254.76 290.33 256.44 289.61 256.43 289.21 259.4 286.73 258.98 286.12 260.48 281.93 260.96"/><polygon points="282.6 251.18 281.68 250.61 281.71 250.08 291.55 249.04 291.51 249.84 290.79 250.86 290.72 252.06 291.61 253.35 282.51 252.86 282.6 251.18"/><polygon class="cls-2" points="283.05 275.75 286.55 275.75 287.46 274.08 286.99 273.06 286.42 272.9 286.07 272.37 283.05 272.37 283.05 275.75"/><polygon class="cls-3" points="213.15 320.23 213.15 327.84 237.27 310.83 251.02 298.58 282.55 298.58 314.78 323.46 314.78 327.84 320.77 327.84 319.02 322.59 296.03 300.47 313.15 302.33 316.9 310.08 316.4 315.33 322.28 315.33 322.28 310.83 315.78 298.08 297.27 294.33 299.77 290.08 304.27 275.33 310.52 275.33 316.52 279.33 318.27 277.83 316.27 275.33 319.77 276.33 320.02 273.58 301.52 258.83 301.52 262.08 286.02 278.33 252.02 278.33 246.77 280.83 239.77 275.33 222.77 278.33 211.52 277.08 211.52 282.58 222.52 286.83 235.27 280.08 245.02 282.33 239.27 294.45 225.02 296.33 218.27 306.33 214.15 307.83 214.15 315.47 220.15 309.72 226.52 301.22 239.53 299.97 232.4 308.83 217.9 318.84 213.15 320.23"/><polygon class="cls-2" points="259.48 273.36 256.82 276.21 256.82 279.51 267.78 285.51 272.76 283.86 278.52 286.29 279.93 282.33 278.42 280.43 270.76 277 259.48 273.36"/><polygon class="cls-3" points="282.13 256.55 286.72 258.87 286.72 260.86 280.99 258.28 282.13 256.55"/><polygon points="273.75 297.56 278.52 286.29 272.76 283.86 272.05 285.53 267.99 295.13 268.25 296.06 267.39 296.54 267.7 297.54 266.56 298.5 265.39 301.27 275.28 305.45 276.01 303.71 272.27 299.48 273.16 298.97 272.81 298 273.75 297.56"/><polygon class="cls-1" points="271.92 260.7 261.75 270.92 257.67 275.3 272.55 277.8 286.72 260.86 280.99 258.28 271.92 260.7"/><polygon points="273.76 276.29 261.75 270.92 263.02 269.65 274.85 275 273.76 276.29"/><polygon class="cls-4" points="277.28 271.22 282.5 261.52 279.19 259.61 276.12 260.96 270.72 271.94 272.22 274.71 280.24 276.36 283.05 275.81 283.05 272.19 277.28 271.22"/><rect class="cls-5" x="283.05" y="272.19" width="1.44" height="3.63"/><polygon class="cls-2" points="300.76 253.33 303.86 251.71 302.43 249.24 301.87 248.93 299.2 250.32 300.76 253.33"/><rect class="cls-5" x="299.93" y="249.73" width="1.44" height="3.62" transform="translate(-82.19 167.27) rotate(-27.5)"/><polygon class="cls-2" points="316.47 275.88 286.43 274.66 286.74 274.27 316.78 275.48 316.47 275.88"/><polygon class="cls-3" points="282.82 258.7 280.17 259.8 283.36 261.52 284.47 259.68 282.82 258.7"/><polygon class="cls-6" points="301.87 248.93 301.31 250.03 302.31 251.97 302.84 252.24 303.86 251.72 303.56 249.94 302.58 249.04 301.87 248.93"/><polygon class="cls-4" points="289.02 226.54 242.08 226.45 243.38 216.69 229.89 205.59 276.82 205.68 289.02 226.54"/><polygon class="cls-7" points="306.86 257.76 305.88 258.28 275.25 204 276.23 203.48 306.86 257.76"/><polygon points="178.7 248.61 182.2 257.15 212.78 248.81 219.26 239.38 178.7 248.61"/><polygon class="cls-1" points="231.79 231.17 211.44 240.97 213.47 246.25 233.26 234.28 231.79 231.17"/><polygon class="cls-2" points="213.73 242.06 214.27 233.73 222.35 233.19 222.18 235.86 222.13 237.54 221.4 237.53 221 240.5 218.53 240.07 217.92 241.58 213.73 242.06"/><path d="M212.51,228.19a12.79,12.79,0,0,1,4.19-2,14.38,14.38,0,0,1,4.94,0l.71,7a16.93,16.93,0,0,0-3.84.51c-2,.52-4.4,1.49-4.4,1.49Z"/><polygon class="cls-2" points="214.85 256.85 218.34 256.85 219.26 255.18 218.79 254.16 218.22 254 217.86 253.46 214.85 253.46 214.85 256.85"/><polygon class="cls-3" points="164.67 299.94 164.67 307.82 187.65 292.07 183.38 279.68 219.82 279.68 234.04 291.44 230.8 300.98 226.65 300.32 226.65 307.32 233.95 302.97 238.39 290.77 228.57 278.07 244.34 282.07 249.88 294.79 246.2 298.54 252.82 298.54 252.82 293.82 247.45 278.44 230.99 272.69 236.07 256.43 242.32 256.43 248.32 260.43 250.07 258.93 248.07 256.43 251.57 257.43 251.82 254.68 233.32 239.93 233.32 243.18 217.82 259.43 183.82 259.43 178.82 260.92 169.82 257.48 154.57 260.7 143.32 258.17 143.32 263.67 154.32 269.2 165.32 262.23 176.82 263.43 173.7 271.94 145.81 290.18 141.9 296.4 148.65 296.4 148.65 291.85 175.49 279.82 180.89 292.36 168.67 299.94 164.67 299.94"/><polygon class="cls-2" points="191.27 254.46 188.61 257.31 188.61 260.6 199.57 266.61 204.55 264.95 210.31 267.39 211.72 263.43 210.22 261.53 202.56 258.09 191.27 254.46"/><polygon class="cls-3" points="213.93 237.65 218.51 239.96 218.51 241.96 212.78 239.38 213.93 237.65"/><polygon points="205.55 278.66 210.31 267.39 204.55 264.95 203.84 266.63 199.78 276.23 200.04 277.16 199.19 277.63 199.49 278.64 198.36 279.6 197.19 282.37 207.07 286.54 207.81 284.81 204.07 280.57 204.95 280.07 204.61 279.09 205.55 278.66"/><polygon class="cls-1" points="203.71 241.79 193.54 252.02 189.47 256.39 204.34 258.89 218.51 241.96 212.78 239.38 203.71 241.79"/><polygon points="205.55 257.39 193.54 252.02 194.81 250.75 206.65 256.09 205.55 257.39"/><polygon class="cls-4" points="209.08 252.32 214.29 242.62 210.98 240.71 207.92 242.06 202.51 253.03 204.01 255.81 212.04 257.45 214.85 256.91 214.85 253.29 209.08 252.32"/><rect class="cls-5" x="214.85" y="253.29" width="1.44" height="3.63"/><polygon class="cls-8" points="232.72 234.64 236.09 233.06 235.4 231.15 234.42 230.09 231.31 231.55 232.72 234.64"/><rect class="cls-5" x="231.9" y="230.91" width="1.44" height="3.62" transform="translate(-76.84 120.87) rotate(-25.14)"/><polygon class="cls-2" points="248.26 256.97 218.22 255.76 218.53 255.37 248.57 256.58 248.26 256.97"/><polygon class="cls-3" points="214.61 239.8 211.97 240.9 215.15 242.62 216.26 240.78 214.61 239.8"/><path class="cls-9" d="M232,227.91l1.69-.68a70.52,70.52,0,0,0-7.18-12.6c-4.53-6.3-13.64-14.9-13.72-13.63-.09,1.5,7.56,7.9,12.22,14.68a71.5,71.5,0,0,1,7,12.23"/><path class="cls-10" d="M231.7,227.95l2.28-1s1,1.88,1,2.06a4.94,4.94,0,0,1-.51,1.12l1.52,3.47,1.07-.11s.84,1.58-.63,2-2.12-1.72-2.88-3.47-1.83-4.06-1.83-4.06"/><polygon class="cls-6" points="234.25 229.96 233.48 231.29 234.33 233.47 235.07 233.53 236.25 232.97 236.01 231.39 235.32 229.91 234.25 229.96"/><polygon points="213.93 237.65 216.03 238.71 185.07 270.69 178.7 248.61 213.93 237.65"/><polygon points="210.31 244.62 218.51 241.96 218.51 240.1 215.57 238.47 210.31 244.62"/><ellipse class="cls-11" cx="242.19" cy="250" rx="112.5" ry="79.01"/></svg>