<svg id="Layer_1" data-name="Layer 1" xmlns="http://www.w3.org/2000/svg" viewBox="0 0 500 500"><defs><style>.cls-1{fill:#ff4a68;}.cls-2{fill:#d13d55;}.cls-3{fill:#b3b3b3;}.cls-4{fill:#333;}.cls-5{fill:#ad3347;}.cls-6{fill:#ccc;}.cls-7{fill:#bcbcbc;}.cls-8{fill:#8cddb6;}.cls-9{fill:#99ffd3;}.cls-10{fill:#8fccaf;}.cls-11{fill:#aaa;}.cls-12{fill:#1d1d1b;}.cls-13{fill:none;}</style></defs><title>icon-36Artboard 7</title><polygon class="cls-1" points="226.51 210.06 179.57 209.97 180.87 200.21 167.38 189.11 214.31 189.2 226.51 210.06"/><polygon class="cls-2" points="234.37 230.55 214.84 240.16 216.88 245.44 236.04 233.76 234.37 230.55"/><polygon class="cls-3" points="217.13 241.24 217.68 232.91 225.83 232.87 225.59 235.04 225.53 236.72 224.81 236.71 224.41 239.69 221.93 239.26 221.32 240.77 217.13 241.24"/><polygon points="217.8 231.47 216.88 230.89 216.91 230.37 226.75 229.32 226.71 230.13 225.99 231.14 225.92 232.34 226.81 233.63 217.71 233.15 217.8 231.47"/><polygon class="cls-3" points="218.25 256.03 221.74 256.03 222.66 254.37 222.19 253.34 221.62 253.18 221.27 252.65 218.25 252.65 218.25 256.03"/><polygon class="cls-4" points="148.35 300.51 148.35 308.13 172.47 291.11 186.22 278.86 217.74 278.86 249.98 303.74 249.98 308.13 255.97 308.13 254.22 302.88 231.23 280.75 248.35 282.61 252.1 290.36 251.6 295.61 257.48 295.61 257.48 291.11 250.98 278.36 232.47 274.61 234.97 270.36 239.47 255.61 245.72 255.61 251.72 259.61 253.47 258.11 251.47 255.61 254.97 256.61 255.22 253.86 236.72 239.11 236.72 242.36 221.22 258.61 187.22 258.61 181.97 261.11 174.97 255.61 157.97 258.61 146.72 257.36 146.72 262.86 157.72 267.11 170.47 260.36 180.22 262.61 174.47 274.74 160.22 276.61 153.47 286.61 149.35 288.11 149.35 295.75 155.35 290 161.72 281.5 174.73 280.25 167.6 289.11 153.1 299.13 148.35 300.51"/><polygon class="cls-3" points="194.67 253.64 192.02 256.49 192.02 259.79 202.98 265.79 207.96 264.14 213.72 266.57 215.13 262.61 213.62 260.72 205.96 257.28 194.67 253.64"/><polygon class="cls-4" points="217.33 236.83 221.92 239.15 221.92 241.14 216.19 238.56 217.33 236.83"/><polygon class="cls-2" points="207.11 240.98 196.94 251.21 192.87 255.58 207.75 258.08 221.92 241.14 216.19 238.56 207.11 240.98"/><polygon points="208.96 256.57 196.94 251.21 198.21 249.93 210.05 255.28 208.96 256.57"/><polygon class="cls-1" points="212.48 251.5 217.7 241.8 214.38 239.89 211.32 241.24 205.91 252.22 207.41 255 215.44 256.64 218.25 256.1 218.25 252.47 212.48 251.5"/><rect class="cls-5" x="218.25" y="252.47" width="1.44" height="3.63"/><polygon class="cls-3" points="235.96 233.61 239.06 232 237.63 229.52 237.07 229.21 234.4 230.61 235.96 233.61"/><rect class="cls-5" x="235.12" y="230.01" width="1.44" height="3.62" transform="translate(-80.41 135.13) rotate(-27.51)"/><polygon class="cls-3" points="251.67 256.16 221.62 254.95 221.94 254.56 251.98 255.77 251.67 256.16"/><polygon class="cls-4" points="218.01 238.99 215.37 240.08 218.56 241.8 219.67 239.97 218.01 238.99"/><polygon class="cls-6" points="244.35 241.28 243.38 241.8 212.74 187.52 213.72 187 244.35 241.28"/><polygon class="cls-7" points="237.07 229.21 236.51 230.31 237.51 232.25 238.04 232.53 239.06 232 238.76 230.22 237.78 229.32 237.07 229.21"/><polygon points="208.95 277.85 213.72 266.57 207.96 264.14 207.25 265.82 203.19 275.41 203.44 276.34 202.59 276.82 202.9 277.82 201.76 278.79 200.59 281.55 210.48 285.73 211.21 283.99 207.47 279.76 208.36 279.25 208.01 278.28 208.95 277.85"/><polygon class="cls-8" points="270.37 246.43 290.72 256.23 288.69 261.51 269.52 249.84 270.37 246.43"/><polygon class="cls-3" points="288.43 257.32 287.89 248.99 279.74 248.94 279.97 251.12 280.03 252.8 280.75 252.78 281.15 255.76 283.63 255.33 284.24 256.84 288.43 257.32"/><polygon points="287.76 247.54 288.69 246.97 288.66 246.44 278.81 245.39 278.85 246.2 279.58 247.22 279.64 248.42 278.75 249.71 287.85 249.22 287.76 247.54"/><polygon class="cls-3" points="287.31 272.11 283.82 272.11 282.9 270.44 283.37 269.42 283.94 269.25 284.29 268.72 287.31 268.72 287.31 272.11"/><polygon class="cls-4" points="340.21 315.2 340.21 323.08 317.22 307.33 318.78 294.94 282.33 294.94 269.05 306.7 273.32 316.24 277.47 314.33 277.47 322.58 270.17 318.23 263.77 306.03 273.58 293.33 249.29 310.06 251.92 313.81 244.49 313.81 245.74 307.83 271.16 287.95 266.09 271.69 259.84 271.69 253.84 275.69 252.09 274.19 254.09 271.69 250.59 272.69 250.34 269.94 268.84 255.19 268.84 258.44 284.34 274.69 318.34 274.69 323.33 276.18 332.33 276.18 347.59 271.93 358.84 278.95 358.84 284.45 347.84 280.43 336.83 280.93 325.34 278.69 328.46 287.2 354.93 308.6 358.84 314.83 352.08 314.83 352.08 310.27 326.67 295.08 322.58 306.22 336.21 315.2 340.21 315.2"/><polygon class="cls-3" points="310.89 269.72 313.54 272.57 313.54 275.86 302.58 281.87 297.61 280.21 291.84 282.65 290.43 278.69 291.94 276.79 299.6 273.35 310.89 269.72"/><polygon class="cls-4" points="288.23 252.91 283.64 255.22 283.64 257.21 289.37 254.64 288.23 252.91"/><polygon points="296.61 293.92 291.84 282.65 297.61 280.21 298.32 281.89 302.37 291.49 302.12 292.42 302.97 292.89 302.67 293.9 303.8 294.86 304.97 297.62 295.08 301.8 294.35 300.07 298.09 295.83 297.21 295.33 297.55 294.35 296.61 293.92"/><polygon class="cls-8" points="298.45 257.05 308.62 267.28 312.69 271.65 297.81 274.15 283.64 257.21 289.37 254.64 298.45 257.05"/><polygon points="296.61 272.65 308.62 267.28 307.35 266 295.51 271.35 296.61 272.65"/><polygon class="cls-9" points="293.08 267.58 287.87 257.87 291.18 255.97 294.24 257.32 299.65 268.29 298.15 271.07 290.12 272.71 287.31 272.17 287.31 268.55 293.08 267.58"/><rect class="cls-10" x="285.87" y="268.55" width="1.44" height="3.63"/><polygon class="cls-11" points="269.6 249.86 265.99 248.97 266.29 246.96 265.73 245.24 266.08 244.94 267.04 245.74 270.37 246.55 269.6 249.86"/><rect class="cls-10" x="267.51" y="247.25" width="3.62" height="1.44" transform="translate(-35.59 450.57) rotate(-76.24)"/><polygon class="cls-3" points="253.9 272.23 283.94 271.02 283.63 270.63 253.59 271.84 253.9 272.23"/><polygon class="cls-4" points="287.55 255.06 290.19 256.16 287 257.88 285.9 256.04 287.55 255.06"/><path class="cls-12" d="M260.26,241.08l8.69,3.15-.31.85-.53,1.47-.6,2.75-.73.36-.61-.55.59-3.06-1.8-.66-.31.86-1.06-.38.32-.86.54-1.47L260,241.91Zm5.39,4.22,1.18.43-1-1Z"/><polygon class="cls-7" points="267.21 245.84 268.19 246.72 267.79 249.03 267.08 249.23 265.81 248.92 265.73 247.33 265.99 246.03 267.21 245.84"/><polygon class="cls-7" points="266.71 245.29 266.55 245.58 266.17 245.65 265.64 245.27 266.12 244.83 266.71 245.29"/><ellipse class="cls-13" cx="250" cy="250" rx="112.5" ry="79.01"/></svg>