<svg id="Layer_1" data-name="Layer 1" xmlns="http://www.w3.org/2000/svg" viewBox="0 0 500 500"><defs><style>.cls-1{fill:#ff667f;}.cls-2{fill:#ff99a9;}.cls-3{fill:#e6e6e6;}.cls-4{fill:#ff8094;}.cls-5{fill:none;}</style></defs><title>icon-21Artboard 7</title><polygon class="cls-1" points="279.6 217.79 279.6 230.69 286.01 230.69 292.5 224.28 286.01 217.79 279.6 217.79"/><polygon class="cls-2" points="219.88 217.79 213.69 223.9 213.69 314.37 279.86 314.37 286.05 308.26 285.95 217.79 219.88 217.79"/><polygon class="cls-1" points="250.14 314.06 250.14 217.79 219.88 217.79 213.69 223.9 213.69 314.06 250.14 314.06"/><path class="cls-3" d="M266.43,294.44c.11.64.85.84,1.34,1s1.05-.18,1.44-.37c2.44-1.18,5.74.2,8.35.2a1.2,1.2,0,0,0,0-2.39c-3,0-5.58-.77-8.6-.27a1.47,1.47,0,0,0-.25-.73,1.9,1.9,0,0,0-2-1.12c-.05-.11-.09-.23-.16-.34a1.11,1.11,0,0,0-.75-.53c.85-1.47,1.39-3,.83-4.29a1.19,1.19,0,0,0-1-.59c-1.6-.06-3,1.62-4,2.63a77.43,77.43,0,0,0-7,8.23c-.94,1.22,1.14,2.41,2.07,1.21a86,86,0,0,1,6.22-7.27c-.53.88-1.1,1.74-1.7,2.56-.85,1.32,1.18,2.44,2.07,1.21a2.71,2.71,0,0,1,.77-.76l-.18.44h0c-.05.09-.09.19-.13.28-.54,1.35,1.46,2,2.19.93a7.35,7.35,0,0,0,.5-.83,3.9,3.9,0,0,0,0,.74"/><polygon class="cls-1" points="280.09 302.3 213.69 302.3 207.5 308.33 213.69 314.37 280.09 314.37 273.9 308.33 280.09 302.3"/><polygon class="cls-4" points="280.09 302.3 213.69 302.3 207.5 308.33 273.9 308.33 280.09 302.3"/><path class="cls-3" d="M241.17,296.52a3.45,3.45,0,0,0-1-.73,2.7,2.7,0,0,0-1.07-.19H239a1.38,1.38,0,0,0-1.07-.91,2.18,2.18,0,0,0-1.68.44c0-.2.09-.44.14-.61a3.94,3.94,0,0,0,.18-1.65,1,1,0,0,0-.87-.76,4.62,4.62,0,0,0-2.8,1.07c-.83.56-1.37.9-1.9.71s-.72-2-.4-3.56.8-4,2.13-5.24c.45-.4,1.1-.84,1.64-.63a3,3,0,0,1,1.26,2.52.94.94,0,0,0,1,.86,1,1,0,0,0,.86-1c-.19-2-1.14-3.59-2.46-4.11-.8-.31-2.07-.39-3.6,1s-2.28,4-2.73,6.29c-.22,1.12-.77,4.87,1.63,5.72,1.46.52,2.65-.28,3.6-.93l.51-.34a2.54,2.54,0,0,0,.16,2c.62.94,1.49,1,2.6.3l.14-.09a1.24,1.24,0,0,0,.61.61,2.38,2.38,0,0,0,1.09.21,1.33,1.33,0,0,1,.35,0,1.56,1.56,0,0,1,.49.36,4.82,4.82,0,0,0,.52.45.94.94,0,0,0,.56.19.95.95,0,0,0,.57-1.71c-.14-.11-.24-.21-.35-.31"/><path class="cls-3" d="M270.32,238.77H230a1.27,1.27,0,0,1,0-2.55h40.36a1.27,1.27,0,1,1,0,2.55"/><path class="cls-3" d="M270.32,231.92H230a1.27,1.27,0,0,1,0-2.55h40.36a1.27,1.27,0,1,1,0,2.55"/><path class="cls-3" d="M270.32,245.62H230a1.27,1.27,0,0,1,0-2.55h40.36a1.27,1.27,0,1,1,0,2.55"/><path class="cls-3" d="M243.73,252.47H230a1.27,1.27,0,0,1,0-2.55h13.77a1.27,1.27,0,0,1,0,2.55"/><path d="M250.14,246.57a21.57,21.57,0,1,0,21.57,21.57,21.6,21.6,0,0,0-21.57-21.57m-1,2.94h2.78a8.87,8.87,0,0,1,3.42,17.06V270h-9.63v-3.38a8.87,8.87,0,0,1,3.42-17.06m9.39,28.05,2.78-.78,1,2.88-1.5,1.15v1.89l-2.88,1L256.81,281l-6.28-3.23L244.26,281l-1.08,2.63-2.88-1v-1.89l-1.5-1.15,1-2.88,2.78.78,3.76-1.93-3.82-2-2.77.65-.89-2.91,1.53-1.11.06-1.89,2.91-.89,1,2.72,6.24,3.21,6.24-3.21,1-2.72,2.91.89.06,1.89,1.53,1.11-.89,2.91-2.77-.65-3.82,2Z"/><path d="M250.14,244.35a23.79,23.79,0,1,0,23.79,23.79,23.79,23.79,0,0,0-23.79-23.79m0,46.55a22.76,22.76,0,1,1,22.76-22.76,22.78,22.78,0,0,1-22.76,22.76"/><rect x="244.77" y="259.15" width="3.68" height="3.62"/><rect x="252.62" y="259.15" width="3.68" height="3.62"/><ellipse class="cls-5" cx="250" cy="250" rx="112.5" ry="79.01"/></svg>