<svg id="Layer_1" data-name="Layer 1" xmlns="http://www.w3.org/2000/svg" viewBox="0 0 500 500"><defs><style>.cls-1{fill:#8cddb6;}.cls-2{fill:#b3b3b3;}.cls-3{fill:#333;}.cls-4{fill:#99ffd3;}.cls-5{fill:#8fccaf;}.cls-6{fill:#aaa;}.cls-7{fill:#1d1d1b;}.cls-8{fill:#bcbcbc;}.cls-9{fill:none;}.cls-10{fill:#309;}.cls-11{fill:#4100c2;}.cls-12{fill:#270075;}.cls-13{fill:#fff;}.cls-14{fill:#ccc;}</style></defs><title>icon-40Artboard 7</title><polygon class="cls-1" points="230.98 251.23 210.63 261.04 212.66 266.31 231.83 254.64 230.98 251.23"/><polygon class="cls-2" points="212.92 262.12 213.46 253.79 221.61 253.74 221.37 255.92 221.31 257.6 220.59 257.58 220.19 260.56 217.72 260.13 217.1 261.64 212.92 262.12"/><polygon points="213.59 252.34 212.66 251.77 212.69 251.24 222.53 250.19 222.49 251 221.77 252.02 221.7 253.22 222.59 254.51 213.5 254.02 213.59 252.34"/><polygon class="cls-2" points="214.04 276.91 217.53 276.91 218.45 275.24 217.98 274.22 217.41 274.06 217.05 273.52 214.04 273.52 214.04 276.91"/><polygon class="cls-3" points="161.14 320 161.14 327.88 184.12 312.13 182.57 299.74 219.01 299.74 232.29 311.5 228.03 321.04 223.88 319.13 223.88 327.38 231.18 323.03 237.58 310.83 227.76 298.13 252.05 314.86 249.43 318.61 256.85 318.61 255.6 312.64 230.18 292.75 235.26 276.49 241.51 276.49 247.51 280.49 249.26 278.99 247.26 276.49 250.76 277.49 251.01 274.74 232.51 259.99 232.51 263.24 217.01 279.49 183.01 279.49 178.01 280.99 169.01 280.99 153.76 276.74 142.51 283.75 142.51 289.25 153.51 285.24 164.51 285.74 176.01 283.49 172.89 292 146.42 313.4 142.51 319.63 149.26 319.63 149.26 315.07 174.68 299.88 178.76 311.02 165.14 320 161.14 320"/><polygon class="cls-2" points="190.46 274.52 187.8 277.37 187.8 280.66 198.76 286.67 203.74 285.01 209.5 287.45 210.91 283.49 209.4 281.59 201.74 278.15 190.46 274.52"/><polygon class="cls-3" points="213.12 257.71 217.7 260.02 217.7 262.02 211.97 259.44 213.12 257.71"/><polygon points="204.74 298.72 209.5 287.45 203.74 285.01 203.03 286.69 198.97 296.29 199.23 297.22 198.38 297.69 198.68 298.7 197.55 299.66 196.38 302.43 206.26 306.6 207 304.87 203.26 300.63 204.14 300.13 203.8 299.15 204.74 298.72"/><polygon class="cls-1" points="202.9 261.86 192.73 272.08 188.65 276.45 203.53 278.95 217.7 262.02 211.97 259.44 202.9 261.86"/><polygon points="204.74 277.45 192.73 272.08 194 270.81 205.84 276.15 204.74 277.45"/><polygon class="cls-4" points="208.26 272.38 213.48 262.68 210.17 260.77 207.11 262.12 201.7 273.1 203.2 275.87 211.23 277.51 214.04 276.97 214.04 273.35 208.26 272.38"/><rect class="cls-5" x="214.04" y="273.35" width="1.44" height="3.63"/><polygon class="cls-6" points="231.75 254.66 235.36 253.78 235.06 251.76 235.61 250.04 235.27 249.75 234.31 250.54 230.98 251.35 231.75 254.66"/><rect class="cls-5" x="231.31" y="250.95" width="1.44" height="3.62" transform="translate(-53.47 62.45) rotate(-13.76)"/><polygon class="cls-2" points="247.45 277.03 217.41 275.82 217.72 275.43 247.76 276.64 247.45 277.03"/><polygon class="cls-3" points="213.8 259.86 211.16 260.96 214.34 262.68 215.45 260.84 213.8 259.86"/><path class="cls-7" d="M241.09,245.88,232.39,249l.31.85.53,1.47.6,2.75.73.36.61-.55-.59-3.06,1.8-.66.31.86,1.06-.38-.32-.86-.54-1.47,4.48-1.62Zm-5.39,4.22-1.18.43,1-1Z"/><polygon class="cls-8" points="234.13 250.64 233.16 251.52 233.56 253.84 234.26 254.03 235.53 253.72 235.61 252.13 235.36 250.83 234.13 250.64"/><polygon class="cls-8" points="234.64 250.09 234.8 250.38 235.17 250.45 235.71 250.07 235.22 249.63 234.64 250.09"/><ellipse class="cls-9" cx="250" cy="250" rx="112.5" ry="79.01"/><polygon class="cls-10" points="268.85 230.53 288.38 240.14 286.35 245.42 267.18 233.75 268.85 230.53"/><polygon class="cls-2" points="286.09 241.23 285.55 232.9 277.4 232.85 277.63 235.03 277.69 236.71 278.42 236.69 278.82 239.67 281.29 239.24 281.9 240.75 286.09 241.23"/><polygon points="285.42 231.45 286.35 230.88 286.32 230.35 276.47 229.3 276.51 230.11 277.24 231.13 277.3 232.33 276.42 233.62 285.51 233.13 285.42 231.45"/><polygon class="cls-2" points="284.97 256.02 281.48 256.02 280.56 254.35 281.03 253.33 281.6 253.16 281.95 252.63 284.97 252.63 284.97 256.02"/><polygon class="cls-3" points="354.87 300.5 354.87 308.11 330.75 291.1 317 278.85 285.48 278.85 253.25 303.73 253.25 308.11 247.25 308.11 249 302.86 272 280.74 254.87 282.6 251.12 290.35 251.62 295.6 245.75 295.6 245.75 291.1 252.25 278.35 270.75 274.6 268.25 270.35 263.75 255.6 257.5 255.6 251.5 259.6 249.75 258.1 251.75 255.6 248.25 256.6 248 253.85 266.5 239.1 266.5 242.35 282 258.6 316 258.6 321.25 261.1 328.25 255.6 345.25 258.6 356.5 257.35 356.5 262.85 345.5 267.1 332.75 260.35 323 262.6 328.75 274.72 343 276.6 349.75 286.6 353.87 288.1 353.87 295.74 347.87 289.99 341.5 281.49 328.5 280.24 335.62 289.1 350.12 299.11 354.87 300.5"/><polygon class="cls-2" points="308.55 253.63 311.2 256.48 311.2 259.77 300.25 265.78 295.27 264.12 289.5 266.56 288.09 262.6 289.6 260.7 297.26 257.26 308.55 253.63"/><polygon class="cls-3" points="285.89 236.82 281.3 239.13 281.3 241.13 287.04 238.55 285.89 236.82"/><polygon points="294.27 277.83 289.5 266.56 295.27 264.12 295.98 265.8 300.03 275.4 299.78 276.33 300.63 276.8 300.33 277.81 301.46 278.77 302.63 281.54 292.75 285.71 292.01 283.98 295.75 279.74 294.87 279.24 295.21 278.26 294.27 277.83"/><polygon class="cls-10" points="296.11 240.97 306.28 251.19 310.35 255.56 295.48 258.06 281.31 241.13 287.04 238.55 296.11 240.97"/><polygon points="294.27 256.56 306.28 251.19 305.01 249.92 293.17 255.26 294.27 256.56"/><polygon class="cls-11" points="290.74 251.49 285.53 241.78 288.84 239.88 291.9 241.23 297.31 252.21 295.81 254.98 287.78 256.63 284.97 256.08 284.97 252.46 290.74 251.49"/><rect class="cls-12" x="283.53" y="252.46" width="1.44" height="3.63"/><polygon class="cls-2" points="267.26 233.59 264.16 231.98 265.59 229.51 266.15 229.2 268.82 230.59 267.26 233.59"/><rect class="cls-12" x="265.57" y="231.09" width="3.62" height="1.44" transform="translate(-61.71 361.92) rotate(-62.5)"/><polygon class="cls-2" points="251.56 256.14 281.6 254.93 281.29 254.54 251.25 255.75 251.56 256.14"/><polygon class="cls-3" points="285.21 238.97 287.85 240.07 284.66 241.79 283.56 239.95 285.21 238.97"/><polygon class="cls-8" points="266.15 229.2 266.71 230.3 265.71 232.23 265.18 232.51 264.16 231.98 264.46 230.2 265.44 229.3 266.15 229.2"/><polygon points="279.01 206.81 325.94 206.72 324.64 196.96 338.13 185.86 291.2 185.94 279.01 206.81"/><polygon class="cls-13" points="308.22 201.9 309.81 201.5 309.61 202.96 308.57 203.54 308.11 204.5 306.42 204.99 306.51 203.66 304.11 202.02 300.15 203.66 298.97 204.99 297.74 204.5 298.19 203.54 297.71 202.96 298.89 201.5 300.11 201.9 302.48 200.91 301.02 199.92 299.46 200.25 299.71 198.78 300.75 198.22 301.24 197.26 302.93 196.81 302.77 198.18 305.16 199.81 309.09 198.18 310.24 196.81 311.5 197.26 311.07 198.22 311.58 198.78 310.43 200.25 309.19 199.92 306.78 200.91 308.22 201.9"/><path class="cls-13" d="M311.62,187.67h-1.41a8.2,8.2,0,0,0-6.63,4.5c-.89,1.87-.51,3.47.79,4.15l-.81,1.72h4.88l.81-1.72a8.6,8.6,0,0,0,4.73-4.15C315.16,189.69,314.11,187.67,311.62,187.67Zm-5,6.72h-1.86l.87-1.83h1.86Zm4,0h-1.86l.87-1.83h1.86Z"/><polygon class="cls-14" points="261.17 238.03 262.14 238.55 292.77 184.27 291.8 183.75 261.17 238.03"/></svg>