<svg id="Layer_1" data-name="Layer 1" xmlns="http://www.w3.org/2000/svg" viewBox="0 0 500 500"><defs><style>.cls-1{fill:#2d2d2d;}.cls-2{fill:#3a3a3a;}.cls-3{fill:#b3b3b3;}.cls-4{fill:#474747;}.cls-5{fill:#23d2e8;}.cls-6{fill:#1a1a1a;}.cls-7{fill:#232323;}.cls-8{fill:#4d4d4d;}.cls-9{fill:#333;}.cls-10{fill:#ccc;}.cls-11{fill:#26e6ff;}.cls-12{fill:none;}</style></defs><title>icon-47Artboard 7</title><path class="cls-1" d="M254,261.35l.5-.4-1.29-1.65h0l-12.41-19.75-.9-4.32-2.85-2.92.58-6.85h.18v-2.1l1.19-.66v-.66l-12.23-2v1l.83,1.31-.06,1.6-1.13,1.47h1.07l-.06,1.35-.24,2.09.89.12L228,232.8l2.51.06,0,.71L230.5,235l-1.55,4.15-.13,7.42L228,249l-7.11,1.48h-2.09v.32l-2.32-1.25-2.06,2.74,1.83,2.73h2.52v1.09h2.09v0l3.18,0,4.43-1,0,.39h.21l-1.48,17.09h1.16l-5.21,11-.52,4.09-.09,0L215.27,301l.32,1.25-1.22.43.2,1.26-7.06-.31-1.11,2.08,11.83,6.33,1.77-3.31,0-1.86,1.22-.5-.21-1.2,1.11-.49,3.46-6.47h0l2.69-5,1.08-2h0l4-7.51,1.68,4.41,2.44,1.14,5.26,14.16,1.15.59-.48,1.2,1.08.68-1.31,3.2-3.8.88.82,2.21,3.32-.14L253,308.5,251.71,305l-1.37-1.27.43-1.24-1-.64.37-1.16-4.54-12.21-.79-2.14-.08,0-1.51-4.85-.52-9h2.59V269.8l-3-14.36h.18l.06-1.2,6.38,8.48-.09.07,1.29,1.65.39-.3,1.77,2.36.87-.07,1.16,1.21,1.46-.32.69-2.88Zm-12.17-8v-.05l0,.05Z"/><path class="cls-2" d="M262.5,260.78l.56-.44-1.44-1.84,0,0-13.88-22.09-1-4.83-3.19-3.27.65-7.66h.2V218.3l1.34-.74v-.73L232,214.63v1.14l.93,1.47-.07,1.78-1.26,1.64h1.19l-.06,1.51-.27,2.34,1,.13-.07,4.21,2.8.07,0,.79-.09,1.56-1.73,4.64-.14,8.3-1,2.7-7.95,1.66-2.34,0v.36l-2.59-1.39-2.31,3.06,2,3.06H223v1.21l2.34,0v0l3.56,0,5-1.14,0,.44h.23l-1.66,19.12h1.3l-5.83,12.26-.58,4.57-.1-.05-8.08,15.1.35,1.4-1.36.49.23,1.41-7.9-.35-1.24,2.33,13.24,7.09,2-3.7.05-2.09,1.36-.55-.23-1.34,1.24-.54,3.87-7.23h0l3-5.62,1.2-2.25h0l4.49-8.4,1.88,4.93L244,292l5.88,15.84,1.28.66-.54,1.34,1.2.76-1.46,3.58-4.25,1,.92,2.47,3.72-.15,10.58-4-1.46-3.93-1.53-1.42.49-1.39-1.16-.71.42-1.29L253,291.12l-.89-2.39-.09,0-1.69-5.43-.58-10h2.9v-3.05l-3.33-16.07h.21l.06-1.35,7.13,9.48-.1.08,1.44,1.84.43-.34,2,2.64,1-.08,1.3,1.36,1.63-.36.77-3.22Zm-13.61-8.9v-.06l0,.06Z"/><polygon class="cls-3" points="250.56 228.75 251.89 212.93 253.38 212.12 253.38 211.3 238.16 208.85 238.16 210.12 239.2 211.75 238.98 217.24 238.68 219.84 239.79 219.99 239.72 224.66 242.84 224.74 243.06 229.64 250.56 228.75"/><polygon points="251.89 212.93 253.38 212.12 253.38 211.3 238.16 208.85 238.16 210.12 239.2 211.75 239.2 213.63 237.72 215.56 251.89 215.56 251.89 212.93"/><polygon class="cls-3" points="270.95 258.76 275.06 264.02 274.2 267.6 272.39 267.99 270.94 266.48 269.86 266.58 266.62 262.24 270.95 258.76"/><polygon class="cls-4" points="253.7 229.91 255.63 233.09 271.62 258.54 266.78 263.33 247.2 237.3 253.7 229.91"/><polygon class="cls-5" points="261.93 210.12 261.87 238.22 277.02 223.15 276.68 195.12 261.93 210.12"/><polygon class="cls-6" points="257.78 271.38 258.58 285.26 262.22 296.96 255.24 299.85 252.96 295.57 248.48 293.48 245.47 285.56 253.51 271.38 257.78 271.38"/><polygon class="cls-7" points="236.72 306.1 230.68 303.82 232.79 293.94 233.58 287.72 242.04 269.92 256.05 269.92 236.72 306.1"/><polygon class="cls-8" points="261.16 274.09 238.61 274.09 240.52 252.06 240.86 232.52 242.78 227.35 242.88 225.62 250.95 224.07 254.5 227.71 255.63 233.09 256.91 250.18 261.16 270.7 261.16 274.09"/><polygon class="cls-9" points="245.91 226.63 245.19 230.24 250.24 229.91 248.92 226.39 245.91 226.63"/><rect class="cls-10" x="187.68" y="221.26" width="127.44" height="1.83" transform="translate(-83.32 245.11) rotate(-45.39)"/><polygon points="223.84 309.54 232.82 292.75 241.41 297.34 240.07 299.84 232.42 314.14 231.04 314.74 231.29 316.23 229.78 316.85 229.73 319.17 227.52 323.28 212.8 315.4 214.18 312.82 222.97 313.2 222.71 311.64 224.23 311.1 223.84 309.54"/><polygon points="258.06 312.51 251.43 294.66 260.55 291.27 261.54 293.92 267.19 309.12 266.73 310.56 268.02 311.35 267.48 312.89 269.18 314.47 270.8 318.84 259.03 323.25 254.9 323.42 253.88 320.67 258.61 319.57 260.23 315.59 258.89 314.74 259.49 313.25 258.06 312.51"/><rect class="cls-9" x="265.63" y="259.52" width="7" height="2.6" transform="translate(-103.59 221.62) rotate(-38.1)"/><polygon points="257.69 252.82 240.2 252.82 240.31 250.28 257.8 250.28 257.69 252.82"/><polygon class="cls-3" points="229.68 252.24 225.02 252.24 222.75 248.84 225.31 245.44 230.8 248.39 229.68 252.24"/><polygon class="cls-8" points="239.64 244.76 230.8 246.6 230.22 253.56 234.71 253.6 246.08 250.99 252.05 237.36 252.05 229.91 244.78 230.21 239.64 244.76"/><polygon class="cls-3" points="222.75 248.84 225.02 252.24 228.28 247.16 225.31 245.44 222.75 248.84"/><rect class="cls-9" x="225.97" y="248.79" width="7" height="2.6" transform="translate(-22.17 477.87) rotate(-89.61)"/><path class="cls-11" d="M258.09,213.82c2.36,1,6.58,2.85,10.18,2.85,15.28,0,27.67-10.67,27.67-23.84,0-4.11-1.41-10.54-3.53-13.91Z"/><ellipse class="cls-12" cx="250" cy="250" rx="112.5" ry="79.01"/></svg>