<svg id="Layer_1" data-name="Layer 1" xmlns="http://www.w3.org/2000/svg" viewBox="0 0 500 500"><defs><style>.cls-1{fill:#b3b3b3;}.cls-2{fill:#ff4a68;}.cls-3{fill:#868686;}.cls-4{fill:#d9d9d9;}.cls-5{fill:#1a1a1a;}.cls-6{fill:#383838;}.cls-7{fill:#333;}.cls-8{fill:#212121;}.cls-9{fill:#cecdce;}.cls-10{fill:#4d4d4d;}.cls-11{fill:#ececec;}.cls-12{fill:#3c3c3b;}.cls-13{fill:#a5a4a4;}.cls-14{fill:#f5f5f5;}.cls-15{fill:#282828;}.cls-16{fill:#6f6f6e;}.cls-17{fill:#575756;}.cls-18{fill:#1d1d1b;}.cls-19{fill:#b1b1b1;}.cls-20{fill:#c4c4c4;}.cls-21{fill:#e1ea6c;}.cls-22{fill:#ecff5c;}.cls-23{fill:none;}</style></defs><title>icon-28Artboard 7</title><polygon class="cls-1" points="243.9 227.25 242.15 225.4 239.36 225.4 239.36 230.12 242.15 230.72 243.9 227.25"/><polygon class="cls-2" points="240.12 210.69 177.82 210.69 186.32 192.25 177.82 173.28 240.12 173.28 240.12 210.69"/><polygon class="cls-3" points="292.38 256.26 292.71 260.05 292.82 262.54 293.48 264.27 294.51 264.27 296.18 261.34 295.73 256.49 292.38 256.26"/><polygon class="cls-4" points="293.48 264.27 294.43 262.58 294.45 259.08 294.04 258.38 293.79 261.9 293.54 262.71 293.1 262.89 292.38 262.32 292.18 259.56 292.37 256.83 295.99 256.83 296.18 261.34 294.51 264.27 293.48 264.27"/><polygon class="cls-5" points="286.06 260.62 291.33 261.63 292.12 269.56 289.79 278.84 289.45 285.16 281.38 285.44 278.03 261.36 277.96 260.62 286.06 260.62"/><polygon class="cls-6" points="283.54 278.44 283.54 285.39 289.79 285.16 289.79 278.84 286.28 273.73 283.54 278.44"/><polygon class="cls-7" points="286.16 273.83 283.54 260.62 291.24 260.62 292.12 269.56 289.79 278.84 286.16 273.83"/><polygon class="cls-7" points="271.98 260.62 266.62 261.63 265.18 269.56 263.12 276.64 265.2 285.16 271.38 285.44 275.41 277.79 278.87 261.36 279 260.62 271.98 260.62"/><polygon class="cls-8" points="263.12 276.64 264.49 285.44 272.17 285.39 275.41 277.79 272.43 273.73 263.12 276.64"/><polygon class="cls-8" points="272.43 273.73 274.8 260.62 267.06 260.62 266.67 261.32 263.12 276.64 272.43 273.73"/><polygon class="cls-9" points="283.01 218 283.01 213.3 279.54 214.96 275.41 212.3 275.41 218.66 279.13 220.16 283.01 218"/><path class="cls-7" d="M280.18,262s-1.08-40.59-1.08-44.76c-1.85-.7-4.07-1.63-4.07-1.63L275,217.8l-11.33,3.73-7.91,9.78L246.1,228l-2.56,4.1,1.79,2.45,7.94,4.46h6.07l8.43-7.74,2.92,10.88-.4,1.56-2.65,6.1L266.45,262Z"/><path class="cls-10" d="M279.1,262V217.21c1.85-.7,4.07-1.63,4.07-1.63l.07,2.22,11.33,3.73,2.31,16.93.88,14.39-1.08,1.55v2.42H292l-.27-2.55-.54-8.88-2-10.2-1.77,7,.41,1.56,2.65,6.1,1.2,12.12Z"/><polygon class="cls-11" points="279.21 215.33 277.7 215.15 274.21 211.24 273.88 210.28 273.32 210.12 272.54 208.15 273.17 206.55 273.53 206.55 273.44 201.85 274.72 199.76 279.18 198.18 279.21 215.33"/><polygon class="cls-4" points="279.23 215.33 280.69 215.15 283.01 213.73 284.52 210.28 285.07 210.12 285.86 208.15 285.22 206.55 284.87 206.55 284.96 201.85 283.68 199.76 279.16 198.18 279.19 205.9 278.3 210.3 279.21 210.88 279.23 215.33"/><rect class="cls-5" x="291.72" y="254.39" width="4.93" height="2.7"/><rect class="cls-5" x="241.19" y="228.09" width="4.93" height="2.7" transform="translate(-79.36 317.04) rotate(-58.45)"/><polygon points="289.81 300.1 289.81 284.83 281.38 284.83 281.38 287.11 281.38 300.1 282.57 301.05 281.38 302 282.57 303.01 281.38 304.67 281.38 308.41 291.18 308.41 291.18 306.06 288.72 303.01 289.81 302 288.43 301.05 289.81 300.1"/><polygon points="264.49 300.1 264.49 284.83 272.75 284.83 272.75 300.1 271.83 301.05 272.75 302 271.83 303.01 272.75 304.67 272.75 308.41 257.83 308.41 257.83 306.06 264.73 303.01 264.14 302 265.18 301.05 264.49 300.1"/><polygon class="cls-12" points="274.21 219.76 263.7 223.54 263.7 221.31 274.21 217.53 274.21 219.76"/><polygon class="cls-13" points="280.25 220.49 280.25 236.63 279.1 237.31 277.95 236.63 277.95 220.49 280.25 220.49"/><rect class="cls-14" x="278.53" y="230.75" width="1.14" height="1.14" transform="translate(-81.82 265.11) rotate(-45)"/><rect class="cls-14" x="278.53" y="225.64" width="1.14" height="1.14" transform="translate(-78.23 263.37) rotate(-44.96)"/><rect class="cls-14" x="278.62" y="221.05" width="0.97" height="0.97" transform="translate(-74.99 261.5) rotate(-44.88)"/><rect class="cls-14" x="278.69" y="219.15" width="0.83" height="0.83" transform="translate(-73.55 261.37) rotate(-44.95)"/><rect class="cls-14" x="278.69" y="217.64" width="0.83" height="0.83" transform="translate(-72.4 261.52) rotate(-45.05)"/><polygon class="cls-15" points="270.3 240.57 287.94 240.57 287.94 243.78 270.3 243.76 270.3 240.57"/><polygon class="cls-12" points="284.21 219.76 294.73 223.54 294.73 221.31 284.21 217.53 284.21 219.76"/><rect class="cls-16" x="282.8" y="227.22" width="7.4" height="1.82"/><rect class="cls-14" x="285.93" y="228.49" width="1.14" height="1.14" transform="translate(-78.41 266.36) rotate(-44.48)"/><rect class="cls-3" x="268.14" y="227.22" width="7.4" height="1.82"/><rect class="cls-14" x="271.27" y="228.49" width="1.14" height="1.14" transform="translate(-82.64 255.67) rotate(-44.41)"/><polygon class="cls-14" points="276.63 240.07 276.63 240.56 281.19 240.56 281.19 243.79 276.63 243.79 276.63 244.28 281.61 244.28 281.61 240.07 276.63 240.07"/><polygon class="cls-17" points="284.9 203.94 278.79 199.18 273.56 202.9 270.87 200.93 272.26 198.12 279.1 195.1 286.34 199 287.28 201.11 284.9 203.94"/><path class="cls-18" d="M274.5,201.83s0,1.85,4.17,2.07,5-1.21,5-1.21a7.11,7.11,0,0,0-4.93-2.15c-3.26-.16-4.28,1.29-4.28,1.29"/><path class="cls-12" d="M273.44,203.48v-1.9s.08-3.11,4.89-3.13,6.58,3.27,6.58,3.27l0,3.11a8.35,8.35,0,0,0-6.57-3.17c-4.28-.1-4.9,1.82-4.9,1.82"/><path class="cls-19" d="M279.47,200c0,.83-.44,1.51-1,1.52s-1-.67-1-1.5.44-1.51,1-1.51,1,.67,1,1.5"/><rect class="cls-10" x="239.18" y="170.74" width="1.88" height="137.67"/><polygon class="cls-20" points="240.93 231.85 238.6 231.85 238.03 231.15 238.03 225.98 238.6 225.4 241.12 225.4 242.22 226.57 242.22 230.82 240.93 231.85"/><rect class="cls-21" x="211.41" y="184.13" width="3.32" height="23.76" transform="translate(-76.41 191.27) rotate(-41.67)"/><polygon class="cls-22" points="209.34 183.58 201.63 190.52 198.95 187.55 204.58 182.49 209.34 183.58"/><rect class="cls-21" x="201.64" y="200.21" width="8.88" height="2.6" transform="translate(-82.04 193.52) rotate(-42.77)"/><path class="cls-22" d="M208.45,197.54a11.27,11.27,0,0,0,8.2.9,8.63,8.63,0,0,0,6.38-7.84,12,12,0,0,0-2.7-8.28c-2.24-3-5.57-4.79-8.86-6.34a19.37,19.37,0,0,1,6.71,2.25,15.54,15.54,0,0,1,7.33,9.35,10.86,10.86,0,0,1-1,9.15,10.71,10.71,0,0,1-9.53,4.8,8.39,8.39,0,0,1-6.56-4"/><ellipse class="cls-23" cx="250" cy="250.24" rx="112.5" ry="79.01"/></svg>