<svg id="Layer_1" data-name="Layer 1" xmlns="http://www.w3.org/2000/svg" viewBox="0 0 500 500"><defs><style>.cls-1{fill:#ff4a68;}.cls-2{fill:#333;}.cls-3{fill:#666;}.cls-4{fill:#999;}.cls-5{fill:gray;}.cls-6{fill:#4d4d4d;}.cls-7{fill:none;}</style></defs><title>icon-38Artboard 7</title><path class="cls-1" d="M250,329a55.76,55.76,0,1,1,55.76-55.76A55.82,55.82,0,0,1,250,329m0-104.39a48.63,48.63,0,1,0,48.63,48.63A48.68,48.68,0,0,0,250,224.64"/><polygon class="cls-2" points="315.53 291.13 315.53 292.55 309.54 292.55 309.54 293.97 315.53 293.97 315.53 295.04 316.67 295.04 316.67 293.97 316.67 292.55 316.67 291.13 315.53 291.13"/><polygon class="cls-2" points="315.53 291.13 315.53 292.55 309.54 292.55 309.54 293.97 315.53 293.97 315.53 295.04 316.67 295.04 316.67 293.97 316.67 292.55 316.67 291.13 315.53 291.13"/><polygon class="cls-2" points="188.47 295.04 188.47 293.62 194.46 293.62 194.46 292.2 188.47 292.2 188.47 291.13 187.34 291.13 187.34 292.2 187.34 293.62 187.34 295.04 188.47 295.04"/><path class="cls-2" d="M283.13,309.74a10.07,10.07,0,1,1,10.07-10.07,10.08,10.08,0,0,1-10.07,10.07m0-17.63a7.56,7.56,0,1,0,7.56,7.56,7.57,7.57,0,0,0-7.56-7.56"/><path class="cls-2" d="M286,299.67a2.87,2.87,0,1,1-2.87-2.87,2.87,2.87,0,0,1,2.87,2.87"/><rect class="cls-2" x="274.37" y="298.8" width="17.62" height="1.9" transform="translate(-119.53 211.05) rotate(-34.21)"/><rect class="cls-2" x="282.23" y="290.94" width="1.9" height="17.62" transform="translate(-110.29 423.13) rotate(-64.04)"/><rect class="cls-2" x="282.23" y="290.94" width="1.9" height="17.62" transform="translate(-14.78 14.69) rotate(-2.9)"/><path class="cls-2" d="M220.63,309.74a10.07,10.07,0,1,1,10.07-10.07,10.08,10.08,0,0,1-10.07,10.07m0-17.63a7.56,7.56,0,1,0,7.56,7.56,7.57,7.57,0,0,0-7.56-7.56"/><path class="cls-2" d="M223.5,299.67a2.87,2.87,0,1,1-2.87-2.87,2.87,2.87,0,0,1,2.87,2.87"/><rect class="cls-2" x="211.88" y="298.8" width="17.62" height="1.9" transform="translate(-130.34 175.92) rotate(-34.21)"/><rect class="cls-2" x="219.73" y="290.94" width="1.9" height="17.62" transform="translate(-145.43 366.93) rotate(-64.04)"/><rect class="cls-2" x="219.73" y="290.94" width="1.9" height="17.62" transform="translate(-14.82 11.5) rotate(-2.89)"/><path class="cls-3" d="M191.79,294.8H312V247.72H191.79Zm117.75-3.66H299.31V251.38h10.22Z"/><rect class="cls-4" x="232.29" y="251.38" width="39.2" height="39.75"/><rect class="cls-5" x="219.9" y="251.38" width="10.22" height="39.75"/><rect class="cls-5" x="207.06" y="261.17" width="10.22" height="29.97"/><rect class="cls-5" x="194.22" y="251.38" width="10.22" height="39.75"/><rect class="cls-5" x="286.48" y="260.93" width="10.22" height="30.2"/><rect class="cls-6" x="286.48" y="251.38" width="10.22" height="7.33"/><rect class="cls-6" x="207.06" y="251.38" width="10.22" height="7.33"/><rect class="cls-5" x="273.64" y="251.38" width="10.22" height="39.75"/><polygon class="cls-1" points="213.4 314.61 208.36 309.56 284.48 233.74 289.53 238.78 213.4 314.61"/><ellipse class="cls-7" cx="250" cy="249.98" rx="112.5" ry="79.01"/></svg>