<svg id="Layer_1" data-name="Layer 1" xmlns="http://www.w3.org/2000/svg" viewBox="0 0 500 500"><defs><style>.cls-1{fill:#222;}.cls-2{fill:#4d4d4d;}.cls-3{fill:#868686;}.cls-4{fill:#d9d9d9;}.cls-5{fill:#d1d1d1;}.cls-6{fill:#3a3a3a;}.cls-7{fill:#474747;}.cls-8{fill:#ccc;}.cls-9{fill:#ececec;}.cls-10{fill:#1a1a1a;}.cls-11{fill:#333;}.cls-12{fill:#3f3f3f;}.cls-13{fill:none;}</style></defs><title>icon-48Artboard 7</title><polygon points="258.62 299.2 258.62 282.73 250.2 282.73 250.2 285.19 250.2 299.2 251 300.23 250.2 301.26 251.1 302.35 250.2 304.14 250.2 308.17 264.63 308.17 264.63 305.63 257.79 302.35 258.62 301.26 257.68 300.23 258.62 299.2"/><polygon class="cls-1" points="241.78 299.2 241.78 282.73 250.2 282.73 250.2 285.19 250.2 299.2 249.39 300.23 250.2 301.26 249.3 302.35 250.2 304.14 250.2 308.17 235.76 308.17 235.76 305.63 242.61 302.35 241.78 301.26 242.72 300.23 241.78 299.2"/><polygon class="cls-2" points="256.87 199.99 244.11 199.99 243.61 192.44 244.56 190.9 249.12 188.65 251.84 188.65 256.26 190.85 257.12 192.39 256.87 199.99"/><polygon class="cls-3" points="234.87 252.51 234.51 255.99 234.39 258.68 233.69 260.54 232.57 260.54 230.77 257.38 231.26 252.51 234.87 252.51"/><polygon class="cls-3" points="265.09 251.91 265.45 255.99 265.57 258.68 266.27 260.54 267.39 260.54 269.19 257.38 268.7 252.15 265.09 251.91"/><polygon class="cls-4" points="266.27 260.54 267.3 258.72 267.32 254.95 266.88 254.19 266.61 257.99 266.34 258.86 265.86 259.05 265.09 258.44 264.88 255.46 265.08 252.51 268.98 252.51 269.19 257.38 267.39 260.54 266.27 260.54"/><polygon class="cls-5" points="254.52 211.38 254.52 205.55 250.78 207.34 246.33 204.47 246.33 211.33 250.34 213.75 254.52 211.38"/><path class="cls-6" d="M251.48,296s-.57-78.5-1.16-82.93c-2-1.16-4.46-2.66-4.46-2.66l-14.11,4-1.68,18.27-.94,15.53,1.16,1.67v2.61h5l.3-2.75,1.16-9.58,1.53-14.41-.51,15.62L234.68,296Z"/><polygon class="cls-7" points="245.67 296.01 245.75 241.39 241.98 211.21 249.28 210.41 254.78 210.41 268.2 214.43 269.94 232.71 270.89 248.24 269.73 249.9 269.73 252.51 264.73 252.51 264.43 249.76 263.15 240.18 261.74 225.77 262.46 241.88 265.5 296.01 245.67 296.01"/><polygon class="cls-8" points="250.43 207.74 248.8 207.54 245.04 203.33 244.67 202.29 244.07 202.12 243.23 199.99 243.91 198.27 244.3 198.27 244.2 193.2 245.58 190.94 250.4 189.23 250.43 207.74"/><polygon class="cls-9" points="250.45 207.74 252.03 207.54 254.52 206.01 256.15 202.29 256.75 202.12 257.6 199.99 256.91 198.27 256.53 198.27 256.63 193.2 255.25 190.94 250.37 189.23 245.58 190.94 244.2 193.2 244.28 197.57 247.38 196.46 250.4 197.57 249.1 202.6 250.41 202.94 250.45 207.74"/><polygon class="cls-10" points="237.6 237.95 262.6 237.95 262.6 241.41 237.6 241.39 237.6 237.95"/><polygon class="cls-4" points="233.69 260.54 232.66 258.72 232.64 254.95 233.07 254.19 233.35 257.99 233.61 258.86 234.1 259.05 234.48 258.89 234.56 258.47 235.08 255.46 234.76 252.59 230.59 252.51 230.76 257.38 232.57 260.54 233.69 260.54"/><polygon class="cls-11" points="255.82 210.76 268.37 214.83 268.37 212.43 255.82 208.35 255.82 210.76"/><rect class="cls-10" x="264.37" y="249.88" width="5.32" height="2.92"/><rect class="cls-10" x="230.26" y="249.88" width="5.32" height="2.92"/><polygon class="cls-11" points="247.68 237.45 247.68 237.96 252.52 237.96 252.52 241.39 247.68 241.39 247.68 241.91 252.97 241.91 252.97 237.45 247.68 237.45"/><polygon class="cls-2" points="246.82 190.31 249.67 191.23 250.36 191.23 250.36 188.62 246.82 190.31"/><polygon class="cls-2" points="253.85 190.31 251 191.23 250.31 191.23 250.31 188.62 253.85 190.31"/><polygon class="cls-11" points="245.04 210.76 231.8 214.83 231.8 212.43 245.04 208.35 245.04 210.76"/><polygon class="cls-12" points="246.33 206.33 240.83 209.73 244.57 217.88 250.31 210.39 246.33 206.33"/><polygon class="cls-12" points="254.68 206.33 259.97 209.78 256.15 217.88 250.31 210.39 254.68 206.33"/><polygon class="cls-2" points="252.14 212.73 255.5 208.88 257.24 210.05 253.78 214.83 252.14 212.73"/><polygon class="cls-2" points="248.56 212.73 245.19 208.88 243.5 210.19 246.92 214.83 248.56 212.73"/><path d="M260.47,218.34a2,2,0,0,0-.84-.59l-.71-1.53-.36,1.43a2,2,0,0,0-1.06.55l-1.3.14.73,1a2,2,0,0,0,.71,1.89l.24,1.79.78-1.34a2,2,0,0,0,2.26-1.62,1.94,1.94,0,0,0,0-.29l1.35-.67Z"/><path d="M258.42,226.09a2,2,0,0,0-.92.45l-1.68-.11,1.09,1a2,2,0,0,0,0,1.19l-.5,1.21,1.2-.17a2,2,0,0,0,2,.28l1.68.65-.8-1.33a2,2,0,0,0-.34-2.76,2.08,2.08,0,0,0-.25-.16l.06-1.51Z"/><path d="M253.24,220.06a2,2,0,0,0-.9-.5l-.87-1.44-.2,1.46a2,2,0,0,0-1,.66l-1.28.28.83.88a2,2,0,0,0,.9,1.8l.43,1.75.63-1.42a2,2,0,0,0,2.07-2.15l1.28-.81Z"/><path d="M249.73,232a2,2,0,0,0-.9-.5l-.87-1.44-.21,1.46a2,2,0,0,0-1,.66l-1.28.27.83.89a2,2,0,0,0,.9,1.8l.43,1.75.63-1.42a2,2,0,0,0,2.07-1.85,2.19,2.19,0,0,0,0-.3l1.27-.81Z"/><path d="M242.66,217.66a2,2,0,0,0-.9-.5l-.87-1.44-.2,1.46a2,2,0,0,0-1,.66l-1.28.27.83.89a2,2,0,0,0,.91,1.8l.43,1.75.63-1.41a2,2,0,0,0,2.07-1.85,2.36,2.36,0,0,0,0-.29l1.27-.81Z"/><polygon points="251.63 222.55 253.42 223.72 253.42 221.76 251.63 222.55"/><polyline points="247.68 232.93 246.82 231.04 248.2 231.62 248.2 232.93"/><polygon points="258.21 229.09 258.21 231.04 259.97 229.38 258.21 229.09"/><ellipse class="cls-13" cx="250" cy="250" rx="112.5" ry="79.01"/></svg>