<svg id="Layer_1" data-name="Layer 1" xmlns="http://www.w3.org/2000/svg" xmlns:xlink="http://www.w3.org/1999/xlink" viewBox="0 0 500 500"><defs><style>.cls-1{fill:#ff4a68;}.cls-2{fill:#f5f1f1;}.cls-3{fill:#309;}.cls-4{fill:#d9d9d9;}.cls-5{fill:#3c3c3b;}.cls-6{fill:#575756;}.cls-7{fill:#6f6f6e;}.cls-8{fill:#fff;}.cls-9{fill:#b1b1b1;}.cls-10{fill:#9c9b9b;}.cls-11{fill:#868686;}.cls-12{fill:url(#linear-gradient);}.cls-13{fill:none;}</style><linearGradient id="linear-gradient" x1="173.73" y1="293.07" x2="331.08" y2="293.07" gradientUnits="userSpaceOnUse"><stop offset="0" stop-color="#454545"/><stop offset="1"/></linearGradient></defs><title>icon-25Artboard 7</title><rect class="cls-1" x="168.93" y="215.53" width="8.71" height="15.97"/><rect class="cls-2" x="177.64" y="215.53" width="8.71" height="15.97"/><rect class="cls-3" x="186.35" y="215.53" width="8.71" height="15.97"/><rect class="cls-1" x="244.87" y="215.53" width="8.71" height="15.97"/><rect class="cls-2" x="253.58" y="215.53" width="8.71" height="15.97"/><rect class="cls-3" x="262.29" y="215.53" width="8.71" height="15.97"/><rect class="cls-4" x="305.9" y="268.17" width="20.89" height="1.53"/><rect class="cls-5" x="270.35" y="215.53" width="2.55" height="77.54"/><rect class="cls-6" x="267.18" y="227.3" width="8.88" height="1.91"/><rect class="cls-6" x="262.68" y="247.53" width="17.88" height="1.91"/><rect class="cls-5" x="194.48" y="215.53" width="2.56" height="77.54"/><rect class="cls-6" x="191.32" y="227.3" width="8.88" height="1.91"/><rect class="cls-6" x="186.82" y="247.53" width="17.88" height="1.91"/><rect class="cls-7" x="192.11" y="238.04" width="7.3" height="7.3"/><rect class="cls-7" x="267.97" y="238.04" width="7.3" height="7.3"/><rect class="cls-7" x="215.4" y="257.93" width="4.65" height="15.77"/><rect class="cls-6" x="214.62" y="264.5" width="6.21" height="30.38"/><rect class="cls-7" x="228.97" y="257.93" width="4.65" height="15.77"/><rect class="cls-6" x="228.19" y="264.5" width="6.21" height="30.38"/><rect class="cls-7" x="242.54" y="257.93" width="4.65" height="15.77"/><rect class="cls-6" x="241.76" y="264.5" width="6.21" height="30.38"/><rect class="cls-7" x="256.11" y="257.93" width="4.65" height="15.77"/><rect class="cls-6" x="214.62" y="257.92" width="6.21" height="1.17"/><rect class="cls-6" x="228.19" y="257.92" width="6.21" height="1.17"/><rect class="cls-6" x="241.76" y="257.92" width="6.21" height="1.17"/><rect class="cls-8" x="228.19" y="261.85" width="6.21" height="1.17"/><rect class="cls-8" x="241.76" y="261.85" width="6.21" height="1.17"/><rect class="cls-6" x="255.33" y="257.92" width="6.21" height="1.17"/><rect class="cls-6" x="255.33" y="264.5" width="6.21" height="30.38"/><rect class="cls-4" x="247.82" y="281.36" width="21.1" height="1.54"/><rect class="cls-6" x="237.53" y="283.35" width="14.76" height="9.39"/><rect class="cls-6" x="247.82" y="280.59" width="21.1" height="1.54"/><rect class="cls-9" x="233.07" y="280.59" width="14.76" height="7.76"/><rect class="cls-10" x="247.82" y="280.59" width="4.46" height="7.76"/><rect class="cls-4" x="175.32" y="281.36" width="21.1" height="1.54"/><rect class="cls-6" x="191.96" y="283.35" width="14.76" height="9.39"/><rect class="cls-6" x="175.32" y="280.59" width="21.1" height="1.54"/><rect class="cls-10" x="196.42" y="280.59" width="14.76" height="7.76"/><rect class="cls-11" x="191.96" y="280.59" width="4.46" height="7.76"/><rect class="cls-6" x="277.71" y="265.23" width="5.66" height="5.5"/><rect class="cls-7" x="277.71" y="269.52" width="11.38" height="11.01"/><rect class="cls-6" x="295.71" y="270.13" width="14.61" height="9.29"/><rect class="cls-6" x="305.9" y="267.41" width="20.89" height="1.52"/><rect class="cls-9" x="274.49" y="277.92" width="32.12" height="16.36"/><polygon class="cls-12" points="175.93 291.84 173.73 308.22 331.08 308.22 319.39 277.92 301.87 277.92 294.21 291.84 175.93 291.84"/><polygon class="cls-6" points="175.06 298.3 173.73 308.22 331.08 308.22 327.25 298.3 175.06 298.3"/><rect class="cls-9" x="291.29" y="267.41" width="14.6" height="7.69"/><rect class="cls-10" x="305.9" y="267.41" width="4.42" height="7.69"/><rect class="cls-5" x="277.5" y="280.53" width="4.41" height="4.4"/><rect class="cls-5" x="284.56" y="280.53" width="4.41" height="4.4"/><rect class="cls-5" x="291.63" y="280.53" width="4.4" height="4.4"/><ellipse class="cls-13" cx="250" cy="250" rx="112.5" ry="79.01"/></svg>