<svg id="Layer_1" data-name="Layer 1" xmlns="http://www.w3.org/2000/svg" xmlns:xlink="http://www.w3.org/1999/xlink" viewBox="0 0 500 500"><defs><style>.cls-1,.cls-4{fill:none;}.cls-2{fill:#ff4a68;}.cls-3{clip-path:url(#clip-path);}.cls-4{stroke:#fff;stroke-miterlimit:10;stroke-width:0.75px;}.cls-5{fill:#309;}.cls-6{clip-path:url(#clip-path-2);}.cls-7{fill:#d9d9d9;}.cls-8{fill:#3c3c3b;}.cls-9{fill:#575756;}.cls-10{fill:#6f6f6e;}.cls-11{fill:#fff;}.cls-12{fill:#b1b1b1;}.cls-13{fill:#9c9b9b;}.cls-14{fill:#868686;}.cls-15{fill:url(#linear-gradient);}</style><clipPath id="clip-path"><rect class="cls-1" x="244.42" y="215.53" width="25.93" height="15.84"/></clipPath><clipPath id="clip-path-2"><rect class="cls-1" x="169.28" y="215.53" width="25.93" height="15.84"/></clipPath><linearGradient id="linear-gradient" x1="173.73" y1="293.07" x2="331.08" y2="293.07" gradientUnits="userSpaceOnUse"><stop offset="0" stop-color="#454545"/><stop offset="1"/></linearGradient></defs><title>icon-07Artboard 7</title><rect class="cls-2" x="244.42" y="215.53" width="25.93" height="15.84"/><rect class="cls-2" x="244.42" y="222.4" width="25.93" height="2.1"/><g class="cls-3"><polygon class="cls-4" points="270.35 224.5 270.35 222.4 261.42 222.4 272.88 216.03 271.86 214.2 258.43 221.67 258.43 215.53 256.33 215.53 256.33 221.67 242.9 214.2 241.88 216.03 253.34 222.4 244.41 222.4 244.41 224.5 253.34 224.5 241.88 230.88 242.9 232.71 256.33 225.24 256.33 231.38 258.43 231.38 258.43 225.24 271.86 232.71 272.88 230.88 261.42 224.5 270.35 224.5"/><rect class="cls-5" x="240.23" y="222.4" width="34.3" height="2.1" transform="translate(-76.17 153.33) rotate(-29.09)"/><rect class="cls-5" x="256.33" y="206.3" width="2.1" height="34.3" transform="translate(-63.02 339.72) rotate(-60.91)"/></g><rect class="cls-5" x="244.42" y="222.4" width="25.93" height="2.1"/><rect class="cls-5" x="256.33" y="215.53" width="2.1" height="15.84"/><rect class="cls-2" x="169.28" y="215.53" width="25.93" height="15.84"/><rect class="cls-2" x="169.28" y="222.4" width="25.93" height="2.1"/><g class="cls-6"><polygon class="cls-4" points="195.21 224.5 195.21 222.4 186.29 222.4 197.74 216.03 196.72 214.2 183.29 221.67 183.29 215.53 181.2 215.53 181.2 221.67 167.77 214.2 166.75 216.03 178.2 222.4 169.28 222.4 169.28 224.5 178.2 224.5 166.75 230.88 167.77 232.71 181.2 225.24 181.2 231.38 183.29 231.38 183.29 225.24 196.72 232.71 197.74 230.88 186.29 224.5 195.21 224.5"/><rect class="cls-5" x="165.1" y="222.4" width="34.3" height="2.1" transform="translate(-85.65 116.8) rotate(-29.09)"/><rect class="cls-5" x="181.2" y="206.3" width="2.1" height="34.3" transform="translate(-101.63 274.06) rotate(-60.91)"/></g><rect class="cls-5" x="169.28" y="222.4" width="25.93" height="2.1"/><rect class="cls-5" x="181.2" y="215.53" width="2.1" height="15.84"/><rect class="cls-7" x="305.9" y="268.17" width="20.89" height="1.53"/><rect class="cls-8" x="270.35" y="215.53" width="2.55" height="77.54"/><rect class="cls-9" x="267.18" y="227.3" width="8.88" height="1.91"/><rect class="cls-9" x="262.68" y="247.53" width="17.88" height="1.91"/><rect class="cls-8" x="194.48" y="215.53" width="2.56" height="77.54"/><rect class="cls-9" x="191.32" y="227.3" width="8.88" height="1.91"/><rect class="cls-9" x="186.82" y="247.53" width="17.88" height="1.91"/><rect class="cls-10" x="192.11" y="238.04" width="7.3" height="7.3"/><rect class="cls-10" x="267.97" y="238.04" width="7.3" height="7.3"/><rect class="cls-10" x="215.4" y="257.93" width="4.65" height="15.77"/><rect class="cls-9" x="214.62" y="264.5" width="6.21" height="30.38"/><rect class="cls-10" x="228.97" y="257.93" width="4.65" height="15.77"/><rect class="cls-9" x="228.19" y="264.5" width="6.21" height="30.38"/><rect class="cls-10" x="242.54" y="257.93" width="4.65" height="15.77"/><rect class="cls-9" x="241.76" y="264.5" width="6.21" height="30.38"/><rect class="cls-10" x="256.11" y="257.93" width="4.65" height="15.77"/><rect class="cls-9" x="214.62" y="257.92" width="6.21" height="1.17"/><rect class="cls-9" x="228.19" y="257.92" width="6.21" height="1.17"/><rect class="cls-9" x="241.76" y="257.92" width="6.21" height="1.17"/><rect class="cls-11" x="228.19" y="261.85" width="6.21" height="1.17"/><rect class="cls-11" x="241.76" y="261.85" width="6.21" height="1.17"/><rect class="cls-9" x="255.33" y="257.92" width="6.21" height="1.17"/><rect class="cls-9" x="255.33" y="264.5" width="6.21" height="30.38"/><rect class="cls-7" x="247.82" y="281.36" width="21.1" height="1.54"/><rect class="cls-9" x="237.53" y="283.35" width="14.76" height="9.39"/><rect class="cls-9" x="247.82" y="280.59" width="21.1" height="1.54"/><rect class="cls-12" x="233.07" y="280.59" width="14.76" height="7.76"/><rect class="cls-13" x="247.82" y="280.59" width="4.46" height="7.76"/><rect class="cls-7" x="175.32" y="281.36" width="21.1" height="1.54"/><rect class="cls-9" x="191.96" y="283.35" width="14.76" height="9.39"/><rect class="cls-9" x="175.32" y="280.59" width="21.1" height="1.54"/><rect class="cls-13" x="196.42" y="280.59" width="14.76" height="7.76"/><rect class="cls-14" x="191.96" y="280.59" width="4.46" height="7.76"/><rect class="cls-9" x="277.71" y="265.23" width="5.66" height="5.5"/><rect class="cls-10" x="277.71" y="269.52" width="11.38" height="11.01"/><rect class="cls-9" x="295.71" y="270.13" width="14.61" height="9.29"/><rect class="cls-9" x="305.9" y="267.41" width="20.89" height="1.52"/><rect class="cls-12" x="274.49" y="277.92" width="32.12" height="16.36"/><polygon class="cls-15" points="175.93 291.84 173.73 308.22 331.08 308.22 319.39 277.92 301.87 277.92 294.21 291.84 175.93 291.84"/><polygon class="cls-9" points="175.06 298.3 173.73 308.22 331.08 308.22 327.25 298.3 175.06 298.3"/><rect class="cls-12" x="291.29" y="267.41" width="14.6" height="7.69"/><rect class="cls-13" x="305.9" y="267.41" width="4.42" height="7.69"/><rect class="cls-8" x="277.5" y="280.53" width="4.41" height="4.4"/><rect class="cls-8" x="284.56" y="280.53" width="4.41" height="4.4"/><rect class="cls-8" x="291.63" y="280.53" width="4.4" height="4.4"/><ellipse class="cls-1" cx="250" cy="250" rx="112.5" ry="79.01"/></svg>