<svg id="Layer_1" data-name="Layer 1" xmlns="http://www.w3.org/2000/svg" xmlns:xlink="http://www.w3.org/1999/xlink" viewBox="0 0 500 500"><defs><style>.cls-1,.cls-4{fill:none;}.cls-2{fill:#ff4a68;}.cls-3{clip-path:url(#clip-path);}.cls-4{stroke:#fff;stroke-miterlimit:10;stroke-width:0.75px;}.cls-5{fill:#309;}.cls-6{clip-path:url(#clip-path-2);}.cls-7{fill:#d9d9d9;}.cls-8{fill:#3c3c3b;}.cls-9{fill:#575756;}.cls-10{fill:#6f6f6e;}.cls-11{fill:#fff;}.cls-12{fill:#b1b1b1;}.cls-13{fill:#9c9b9b;}.cls-14{fill:#868686;}.cls-15{fill:url(#linear-gradient);}.cls-16{fill:#454544;}.cls-17{fill:#f5f1f1;}.cls-18{fill:url(#linear-gradient-2);}.cls-19{fill:url(#linear-gradient-3);}</style><clipPath id="clip-path"><rect class="cls-1" x="229.18" y="179.39" width="21.6" height="13.2"/></clipPath><clipPath id="clip-path-2"><rect class="cls-1" x="166.6" y="179.39" width="21.6" height="13.2"/></clipPath><linearGradient id="linear-gradient" x1="170.31" y1="243.97" x2="301.36" y2="243.97" gradientUnits="userSpaceOnUse"><stop offset="0" stop-color="#454545"/><stop offset="1"/></linearGradient><linearGradient id="linear-gradient-2" x1="232.34" y1="295.7" x2="362.41" y2="295.7" xlink:href="#linear-gradient"/><linearGradient id="linear-gradient-3" x1="142.19" y1="316.02" x2="272.26" y2="316.02" xlink:href="#linear-gradient"/></defs><title>icon-16Artboard 7</title><rect class="cls-2" x="229.18" y="179.39" width="21.6" height="13.2"/><rect class="cls-2" x="229.18" y="185.11" width="21.6" height="1.75"/><g class="cls-3"><polygon class="cls-4" points="250.78 186.86 250.78 185.12 243.35 185.12 252.89 179.81 252.04 178.28 240.85 184.5 240.85 179.39 239.11 179.39 239.11 184.5 227.92 178.28 227.07 179.81 236.61 185.12 229.18 185.12 229.18 186.86 236.61 186.86 227.07 192.17 227.92 193.7 239.11 187.47 239.11 192.59 240.85 192.59 240.85 187.47 252.04 193.7 252.89 192.17 243.35 186.86 250.78 186.86"/><rect class="cls-5" x="225.69" y="185.11" width="28.57" height="1.75" transform="translate(-60.15 140.15) rotate(-29.09)"/><rect class="cls-5" x="239.11" y="171.7" width="1.75" height="28.57" transform="translate(-39.23 305.26) rotate(-60.91)"/></g><rect class="cls-5" x="229.18" y="185.11" width="21.6" height="1.75"/><rect class="cls-5" x="239.11" y="179.39" width="1.75" height="13.2"/><rect class="cls-2" x="166.6" y="179.39" width="21.6" height="13.2"/><rect class="cls-2" x="166.6" y="185.11" width="21.6" height="1.75"/><g class="cls-6"><polygon class="cls-4" points="188.2 186.86 188.2 185.12 180.77 185.12 190.31 179.81 189.46 178.28 178.28 184.5 178.28 179.39 176.53 179.39 176.53 184.5 165.34 178.28 164.49 179.81 174.03 185.12 166.6 185.12 166.6 186.86 174.03 186.86 164.49 192.17 165.34 193.7 176.53 187.47 176.53 192.59 178.28 192.59 178.28 187.47 189.46 193.7 190.31 192.17 180.77 186.86 188.2 186.86"/><rect class="cls-5" x="163.12" y="185.11" width="28.57" height="1.75" transform="translate(-68.05 109.72) rotate(-29.09)"/><rect class="cls-5" x="176.53" y="171.7" width="1.75" height="28.57" transform="translate(-71.38 250.58) rotate(-60.91)"/></g><rect class="cls-5" x="166.6" y="185.11" width="21.6" height="1.75"/><rect class="cls-5" x="176.53" y="179.39" width="1.75" height="13.2"/><rect class="cls-7" x="280.39" y="223.23" width="17.4" height="1.27"/><rect class="cls-8" x="250.78" y="179.39" width="2.13" height="64.58"/><rect class="cls-9" x="248.14" y="189.19" width="7.4" height="1.59"/><rect class="cls-9" x="244.39" y="206.04" width="14.89" height="1.59"/><rect class="cls-8" x="187.59" y="179.39" width="2.13" height="64.58"/><rect class="cls-9" x="184.96" y="189.19" width="7.4" height="1.59"/><rect class="cls-9" x="181.21" y="206.04" width="14.89" height="1.59"/><rect class="cls-10" x="185.62" y="198.14" width="6.08" height="6.08"/><rect class="cls-10" x="248.8" y="198.14" width="6.08" height="6.08"/><rect class="cls-10" x="205.01" y="214.7" width="3.87" height="13.13"/><rect class="cls-9" x="204.37" y="220.18" width="5.17" height="25.31"/><rect class="cls-10" x="216.32" y="214.7" width="3.88" height="13.13"/><rect class="cls-9" x="215.67" y="220.18" width="5.17" height="25.31"/><rect class="cls-10" x="227.62" y="214.7" width="3.88" height="13.13"/><rect class="cls-9" x="226.97" y="220.18" width="5.17" height="25.31"/><rect class="cls-10" x="238.92" y="214.7" width="3.87" height="13.13"/><rect class="cls-9" x="204.37" y="214.7" width="5.17" height="0.98"/><rect class="cls-9" x="215.67" y="214.7" width="5.17" height="0.98"/><rect class="cls-9" x="226.97" y="214.7" width="5.17" height="0.98"/><rect class="cls-11" x="215.67" y="217.97" width="5.17" height="0.97"/><rect class="cls-11" x="226.97" y="217.97" width="5.17" height="0.97"/><rect class="cls-9" x="238.28" y="214.7" width="5.17" height="0.98"/><rect class="cls-9" x="238.28" y="220.18" width="5.17" height="25.31"/><rect class="cls-7" x="232.02" y="234.22" width="17.58" height="1.28"/><rect class="cls-9" x="223.44" y="235.87" width="12.29" height="7.82"/><rect class="cls-9" x="232.02" y="233.58" width="17.58" height="1.28"/><rect class="cls-12" x="219.73" y="233.58" width="12.29" height="6.47"/><rect class="cls-13" x="232.02" y="233.58" width="3.72" height="6.47"/><rect class="cls-7" x="171.63" y="234.22" width="17.57" height="1.28"/><rect class="cls-9" x="185.49" y="235.87" width="12.29" height="7.82"/><rect class="cls-9" x="171.63" y="233.58" width="17.57" height="1.28"/><rect class="cls-13" x="189.2" y="233.58" width="12.29" height="6.47"/><rect class="cls-14" x="185.49" y="233.58" width="3.72" height="6.47"/><rect class="cls-9" x="256.91" y="220.78" width="4.71" height="4.58"/><rect class="cls-10" x="256.91" y="224.36" width="9.48" height="9.17"/><rect class="cls-9" x="271.9" y="224.87" width="12.17" height="7.74"/><rect class="cls-9" x="280.39" y="222.6" width="17.4" height="1.27"/><rect class="cls-12" x="254.23" y="231.36" width="26.75" height="13.63"/><polygon class="cls-15" points="172.14 242.95 170.31 256.59 301.36 256.59 291.63 231.35 277.03 231.35 270.65 242.95 172.14 242.95"/><polygon class="cls-16" points="171.42 248.33 170.31 256.59 301.36 256.59 298.17 248.33 171.42 248.33"/><rect class="cls-12" x="268.22" y="222.6" width="12.16" height="6.4"/><rect class="cls-13" x="280.39" y="222.6" width="3.68" height="6.4"/><rect class="cls-8" x="256.73" y="233.53" width="3.67" height="3.67"/><rect class="cls-8" x="262.62" y="233.53" width="3.67" height="3.67"/><rect class="cls-8" x="268.5" y="233.53" width="3.67" height="3.67"/><rect class="cls-2" x="290.71" y="231.6" width="7.29" height="13.38"/><rect class="cls-17" x="298.01" y="231.6" width="7.3" height="13.38"/><rect class="cls-5" x="305.31" y="231.6" width="7.3" height="13.38"/><rect class="cls-2" x="228.66" y="231.6" width="7.3" height="13.38"/><rect class="cls-17" x="235.96" y="231.6" width="7.3" height="13.38"/><rect class="cls-5" x="243.25" y="231.6" width="7.29" height="13.38"/><rect class="cls-7" x="341.59" y="275.11" width="17.27" height="1.26"/><rect class="cls-8" x="312.21" y="231.6" width="2.11" height="64.1"/><rect class="cls-9" x="309.59" y="241.32" width="7.34" height="1.58"/><rect class="cls-9" x="305.87" y="258.05" width="14.78" height="1.58"/><rect class="cls-8" x="249.49" y="231.6" width="2.11" height="64.1"/><rect class="cls-9" x="246.88" y="241.32" width="7.34" height="1.58"/><rect class="cls-9" x="243.16" y="258.05" width="14.78" height="1.58"/><rect class="cls-10" x="247.53" y="250.2" width="6.04" height="6.04"/><rect class="cls-10" x="310.24" y="250.2" width="6.04" height="6.04"/><rect class="cls-10" x="266.78" y="266.65" width="3.85" height="13.04"/><rect class="cls-9" x="266.14" y="272.08" width="5.13" height="25.12"/><rect class="cls-10" x="278" y="266.65" width="3.85" height="13.04"/><rect class="cls-9" x="277.36" y="272.08" width="5.13" height="25.12"/><rect class="cls-10" x="289.22" y="266.65" width="3.85" height="13.04"/><rect class="cls-9" x="288.58" y="272.08" width="5.13" height="25.12"/><rect class="cls-10" x="300.44" y="266.65" width="3.85" height="13.04"/><rect class="cls-9" x="266.14" y="266.64" width="5.13" height="0.97"/><rect class="cls-9" x="277.36" y="266.64" width="5.13" height="0.97"/><rect class="cls-9" x="288.58" y="266.64" width="5.13" height="0.97"/><rect class="cls-11" x="277.36" y="269.89" width="5.13" height="0.97"/><rect class="cls-11" x="288.58" y="269.89" width="5.13" height="0.97"/><rect class="cls-9" x="299.8" y="266.64" width="5.13" height="0.97"/><rect class="cls-9" x="299.8" y="272.08" width="5.13" height="25.12"/><rect class="cls-7" x="293.59" y="286.02" width="17.44" height="1.27"/><rect class="cls-9" x="285.08" y="287.66" width="12.2" height="7.76"/><rect class="cls-9" x="293.59" y="285.38" width="17.44" height="1.27"/><rect class="cls-12" x="281.39" y="285.38" width="12.2" height="6.42"/><rect class="cls-13" x="293.59" y="285.38" width="3.69" height="6.42"/><rect class="cls-7" x="233.65" y="286.02" width="17.44" height="1.27"/><rect class="cls-9" x="247.4" y="287.66" width="12.2" height="7.76"/><rect class="cls-9" x="233.65" y="285.38" width="17.44" height="1.27"/><rect class="cls-13" x="251.09" y="285.38" width="12.2" height="6.42"/><rect class="cls-14" x="247.4" y="285.38" width="3.69" height="6.42"/><rect class="cls-9" x="318.29" y="272.68" width="4.68" height="4.55"/><rect class="cls-10" x="318.29" y="276.23" width="9.41" height="9.1"/><rect class="cls-9" x="333.17" y="276.73" width="12.08" height="7.68"/><rect class="cls-9" x="341.59" y="274.48" width="17.27" height="1.26"/><rect class="cls-12" x="315.63" y="283.18" width="26.55" height="13.52"/><polygon class="cls-18" points="234.15 294.68 232.34 308.22 362.41 308.22 352.75 283.17 338.27 283.17 331.93 294.68 234.15 294.68"/><polygon class="cls-9" points="233.44 300.02 232.34 308.22 362.41 308.22 359.25 300.02 233.44 300.02"/><rect class="cls-12" x="329.52" y="274.48" width="12.07" height="6.35"/><rect class="cls-13" x="341.59" y="274.48" width="3.65" height="6.35"/><rect class="cls-8" x="318.12" y="285.33" width="3.64" height="3.64"/><rect class="cls-8" x="323.96" y="285.33" width="3.64" height="3.64"/><rect class="cls-8" x="329.8" y="285.33" width="3.64" height="3.64"/><rect class="cls-7" x="251.45" y="295.43" width="17.26" height="1.26"/><rect class="cls-8" x="222.05" y="251.92" width="2.11" height="64.1"/><rect class="cls-9" x="219.44" y="261.65" width="7.34" height="1.58"/><rect class="cls-9" x="215.72" y="278.37" width="14.78" height="1.58"/><rect class="cls-8" x="159.34" y="251.92" width="2.11" height="64.1"/><rect class="cls-9" x="156.73" y="261.65" width="7.34" height="1.58"/><rect class="cls-9" x="153.01" y="278.37" width="14.78" height="1.58"/><rect class="cls-10" x="157.38" y="270.52" width="6.04" height="6.03"/><rect class="cls-10" x="220.09" y="270.52" width="6.03" height="6.03"/><rect class="cls-10" x="176.63" y="286.97" width="3.85" height="13.04"/><rect class="cls-9" x="175.99" y="292.4" width="5.13" height="25.12"/><rect class="cls-10" x="187.85" y="286.97" width="3.85" height="13.04"/><rect class="cls-9" x="187.21" y="292.4" width="5.13" height="25.12"/><rect class="cls-10" x="199.07" y="286.97" width="3.85" height="13.04"/><rect class="cls-9" x="198.43" y="292.4" width="5.13" height="25.12"/><rect class="cls-10" x="210.29" y="286.97" width="3.85" height="13.04"/><rect class="cls-9" x="175.99" y="286.96" width="5.13" height="0.97"/><rect class="cls-9" x="187.21" y="286.96" width="5.13" height="0.97"/><rect class="cls-9" x="198.43" y="286.96" width="5.13" height="0.97"/><rect class="cls-11" x="187.21" y="290.21" width="5.13" height="0.97"/><rect class="cls-11" x="198.43" y="290.21" width="5.13" height="0.97"/><rect class="cls-9" x="209.65" y="286.96" width="5.13" height="0.97"/><rect class="cls-9" x="209.65" y="292.4" width="5.13" height="25.12"/><rect class="cls-7" x="203.44" y="306.34" width="17.44" height="1.27"/><rect class="cls-9" x="194.93" y="307.98" width="12.2" height="7.76"/><rect class="cls-9" x="203.44" y="305.7" width="17.44" height="1.27"/><rect class="cls-12" x="191.24" y="305.7" width="12.2" height="6.42"/><rect class="cls-13" x="203.44" y="305.7" width="3.69" height="6.42"/><rect class="cls-7" x="143.5" y="306.34" width="17.44" height="1.27"/><rect class="cls-9" x="157.26" y="307.98" width="12.2" height="7.76"/><rect class="cls-9" x="143.5" y="305.7" width="17.44" height="1.27"/><rect class="cls-13" x="160.94" y="305.7" width="12.2" height="6.42"/><rect class="cls-14" x="157.26" y="305.7" width="3.69" height="6.42"/><rect class="cls-9" x="228.14" y="293" width="4.68" height="4.55"/><rect class="cls-10" x="228.14" y="296.55" width="9.41" height="9.1"/><rect class="cls-9" x="243.02" y="297.05" width="12.08" height="7.68"/><rect class="cls-9" x="251.45" y="294.8" width="17.26" height="1.26"/><rect class="cls-12" x="225.48" y="303.49" width="26.55" height="13.53"/><polygon class="cls-19" points="144 315 142.19 328.54 272.26 328.54 262.6 303.49 248.11 303.49 241.78 315 144 315"/><polygon class="cls-9" points="143.29 320.34 142.19 328.54 272.26 328.54 269.1 320.34 143.29 320.34"/><rect class="cls-12" x="239.37" y="294.8" width="12.08" height="6.35"/><rect class="cls-13" x="251.45" y="294.8" width="3.65" height="6.35"/><rect class="cls-8" x="227.96" y="305.65" width="3.64" height="3.64"/><rect class="cls-8" x="233.81" y="305.65" width="3.64" height="3.64"/><rect class="cls-8" x="239.65" y="305.65" width="3.64" height="3.64"/><rect class="cls-2" x="200.92" y="252.16" width="21.89" height="13.38"/><rect class="cls-17" x="200.92" y="253.83" width="21.89" height="1.67"/><rect class="cls-17" x="200.92" y="257.18" width="21.89" height="1.67"/><rect class="cls-17" x="200.92" y="260.52" width="21.89" height="1.67"/><rect class="cls-17" x="200.92" y="263.86" width="21.89" height="1.67"/><rect class="cls-5" x="211.87" y="252.16" width="10.94" height="6.69"/><rect class="cls-2" x="137.5" y="252.16" width="21.89" height="13.38"/><rect class="cls-17" x="137.5" y="253.83" width="21.89" height="1.67"/><rect class="cls-17" x="137.5" y="257.18" width="21.89" height="1.67"/><rect class="cls-17" x="137.5" y="260.52" width="21.89" height="1.67"/><rect class="cls-17" x="137.5" y="263.86" width="21.89" height="1.67"/><rect class="cls-5" x="148.44" y="252.16" width="10.94" height="6.69"/><ellipse class="cls-1" cx="250" cy="250" rx="112.5" ry="79.01"/></svg>