<svg id="Layer_1" data-name="Layer 1" xmlns="http://www.w3.org/2000/svg" xmlns:xlink="http://www.w3.org/1999/xlink" viewBox="0 0 500 500"><defs><style>.cls-1{fill:#ffb3bf;}.cls-2{fill:#f0ff85;}.cls-3{fill:#ff8094;}.cls-4{fill:#ff4a68;}.cls-5{fill:#ff667f;}.cls-6{fill:#ecff5c;}.cls-7{fill:#ffe200;}.cls-8{fill:#f24763;}.cls-9{fill:#ffccd4;}.cls-10{fill:url(#linear-gradient);}.cls-11{fill:none;}</style><linearGradient id="linear-gradient" x1="171.44" y1="242.49" x2="272.37" y2="242.49" gradientUnits="userSpaceOnUse"><stop offset="0" stop-color="#454545"/><stop offset="1"/></linearGradient></defs><title>icon-41Artboard 7</title><path class="cls-1" d="M199.42,308.17h66.52a59.37,59.37,0,1,0-66.52,0Z"/><path class="cls-2" d="M215.72,308.17h24.36a38.38,38.38,0,1,0-24.36,0Z"/><path class="cls-3" d="M227.9,239.48a22.95,22.95,0,1,1,22.94,22.95,22.94,22.94,0,0,1-22.94-22.95"/><path class="cls-4" d="M240.79,255.78a38.38,38.38,0,1,1,38.38,38.38,38.38,38.38,0,0,1-38.38-38.38"/><path class="cls-5" d="M264.16,268.44a31,31,0,1,1,31,31,31,31,0,0,1-31-31"/><path class="cls-6" d="M261.32,308.17H277a21.76,21.76,0,1,0-15.69,0Z"/><path class="cls-7" d="M261.21,308.17a26.14,26.14,0,1,0-40.85,0Z"/><path class="cls-3" d="M302.15,308.17a21.76,21.76,0,1,0-39,0Z"/><path class="cls-8" d="M228.4,217.4a23.24,23.24,0,1,1,23.24,23.24A23.24,23.24,0,0,1,228.4,217.4"/><path class="cls-6" d="M317.91,308.17a16,16,0,1,0-28.78,0Z"/><path class="cls-9" d="M180.49,215.11a3.6,3.6,0,1,1,3.6,3.59,3.59,3.59,0,0,1-3.6-3.59"/><path class="cls-9" d="M196.54,217.32a3.59,3.59,0,1,1,3.6,3.6,3.59,3.59,0,0,1-3.6-3.6"/><path class="cls-4" d="M187.68,213.73a3.06,3.06,0,1,1,3.06,3.06,3.06,3.06,0,0,1-3.06-3.06"/><path class="cls-7" d="M196.52,254.63a3.59,3.59,0,1,1,3.59,3.59,3.59,3.59,0,0,1-3.59-3.59"/><path class="cls-7" d="M200.12,257a2.37,2.37,0,1,1,2.37,2.37,2.37,2.37,0,0,1-2.37-2.37"/><path class="cls-10" d="M271.6,246.34l-1.91-14v-1.21l-9.3-3.34v.53l-.85-.28-.06-2-.15.06v-1.7l1.34-3.05.49-.14.7-1.75-.56-1.41H261l0-1.53h0v-.8l2.09-2.5-.83-1.86-6.4-3.45-6.05,2.67-1.23,2.48,2.27,1.66v.6l0-.07.05,2.78h-.32l-.57,1.41.7,1.75.49.14.3.86,1.05,1.18v2.79l-.33-.14-.06,2-.66.22v-.46l-9.3,3.34v.19l-.05,0-7,8.65-8.52-2.9h0l-2-1.25-.17.27-1.29-1.36h-1v-58h-.83l-.83,2.16H171.44v11.18l10.08,1.35-10.08,18.17v1h49.13v24.11h-.51l-.51.51v4.57l.51.62h.51v67.71h1.66V240.39l.62-.5,1.55,1,0-.07,1.57,2.14,7,3.94h5.37l7.45-6.84,2.23,8.3V251l-2.34,5.39-1.06,10.72h.09l-.63,3.46-.59,3.25,0,.08-.67,9.06v4.37h-.32v13.5l.61.84-.92.85.52.89-6.1,2.7v2.08h12.79v-3.31l-.81-1.47.81-.89-.81-.85.81-.84-.05-13h0v-.49h0l3.36-5,2.49-13.48,2.64,19v13l1.05.84-1.05.85,1.05.89-1.05,1.47v3.31h8.67v-2.08l-2.17-2.7,1-.89-1.22-.85,1.22-.84v-13.5h0V282l2.06-8.21-.66-6.71h.34L266,256.41,263.67,251h0V248.2h0l1.2-4.75,1.73,9,.48,7.85v.1H267v2.39h.56l-.15,2.18.17,2.44.46.36.51,1.36h.91l1.48-2.59-.16-3.76h.57v-.24h0v-2.14l1-1.37Zm-56.88-53.84.44,7.33-9.68-3.22-7.65.9,1.56-3.35L195.63,190h6.25l5.47-7.73,4.22,4.64,5.31,1.55Z"/><ellipse class="cls-11" cx="250" cy="250" rx="112.5" ry="79.01"/></svg>