<svg id="Layer_1" data-name="Layer 1" xmlns="http://www.w3.org/2000/svg" viewBox="0 0 500 500"><defs><style>.cls-1{fill:#2d2d2d;}.cls-2{fill:#cecdce;}.cls-3{fill:#d9d9d9;}.cls-4{fill:#ececec;}.cls-5{fill:#575756;}.cls-6{fill:#1d1d1b;}.cls-7{fill:#3c3c3b;}.cls-8{fill:#232323;}.cls-9{fill:#f2f2f2;}.cls-10{fill:#e6e6e6;}.cls-11{fill:#1e1e1e;}.cls-12{fill:#424242;}.cls-13{fill:#444;}.cls-14{fill:#4f4f4f;}.cls-15{fill:#868686;}.cls-16{fill:#333;}.cls-17{fill:#383838;}.cls-18{fill:#212121;}.cls-19,.cls-20,.cls-21{fill:none;}.cls-19,.cls-20{stroke:#ff4a68;stroke-miterlimit:10;stroke-width:0.5px;}.cls-20{stroke-linecap:round;}</style></defs><title>icon-20Artboard 7</title><polygon class="cls-1" points="232.3 244.37 230.82 287.94 243.24 287.94 241.54 234.4 232.3 244.37"/><polygon class="cls-2" points="254.34 208.53 254.34 203.36 250.52 205.18 245.97 202.26 245.97 209.26 250.68 215.22 254.34 208.53"/><polygon class="cls-3" points="250.16 205.59 248.5 205.39 245.65 204.07 244.28 200.02 243.67 199.85 243.17 197.67 243.24 196.11 243.9 195.92 243.8 191.53 245.21 189.31 250.16 187.99 250.16 205.59"/><polygon class="cls-4" points="250.18 205.59 251.79 205.39 254.64 204.07 256.01 200.02 256.62 199.85 257.2 197.67 257.2 196.11 256.39 195.92 256.49 191.53 255.08 189.31 250.13 187.99 246.55 190.45 246.55 194.47 250.13 195.2 248.97 199.6 250.14 200.69 250.18 205.59"/><path class="cls-5" d="M256.43,194l-2.09-2.06-4.65-1.43-3.93.79-1.83,1.58s-2.4.88-2.69-1a3.22,3.22,0,0,1,1.51-3.1c1-.59,1.16-1.8,2.94-1.84,2.08-.05,2.85.66,5.72-.08,2.18-.56,4.26,1.27,5.44,3.19.33.54,2,1.37,2,2.62,0,1.78-2.45,1.33-2.45,1.33"/><path class="cls-6" d="M244.4,192.1s1.19,1.05,5.78,1.28a35.4,35.4,0,0,0,5.78,0s-2.69-3-6.28-3.2a6.54,6.54,0,0,0-5.28,1.87"/><path class="cls-7" d="M243.79,193.49v-.38s.09-2.85,5.39-2.88,7.25,3.51,7.25,3.51l0,.86a9.21,9.21,0,0,0-7.25-3.49c-4.71-.11-5.4,2.38-5.4,2.38"/><polygon class="cls-7" points="252.16 202.12 250.64 201.72 249.46 201.72 248.07 202.12 247.33 202.12 249.53 200.84 250.71 200.84 252.98 202.12 252.16 202.12"/><polygon class="cls-7" points="251.16 203.03 250.15 203.03 249.15 203.03 248.07 204.5 248.07 205.27 249.84 206.79 250.44 206.79 252.23 205.27 252.23 204.5 251.16 203.03"/><polygon points="241.33 299.01 241.33 282.19 249.92 282.19 249.92 284.69 249.92 299.01 249.1 300.05 249.92 301.11 249 302.22 249.92 304.05 249.92 308.17 235.18 308.17 235.18 305.58 242.17 302.22 241.33 301.11 242.28 300.05 241.33 299.01"/><rect class="cls-8" x="239.66" y="254.41" width="10.23" height="48.2"/><polygon points="258.52 299.01 258.52 282.19 249.92 282.19 249.92 284.69 249.92 299.01 250.75 300.05 249.92 301.11 250.84 302.22 249.92 304.05 249.92 308.17 264.67 308.17 264.67 305.58 257.67 302.22 258.52 301.11 257.56 300.05 258.52 299.01"/><rect class="cls-1" x="249.74" y="254.41" width="10.23" height="48.2"/><polygon class="cls-9" points="245.48 208.32 250.04 208.32 254.53 208.32 250.11 227.78 245.48 208.32"/><rect class="cls-7" x="248.62" y="207.76" width="3.06" height="23.33"/><polygon class="cls-10" points="250.04 207.67 248.41 211.56 245.48 208.32 245.89 205.87 250.04 207.67"/><polygon class="cls-11" points="246.99 211.21 250.19 219.42 253.37 211.21 253.37 230.33 247.33 230.33 246.99 211.21"/><polygon class="cls-7" points="267.08 212.43 255.37 208.57 254.53 205.87 250.19 227.27 250.19 260.87 263.23 260.87 263.23 227.49 267.08 212.43"/><polygon class="cls-10" points="250.04 207.67 251.8 211.56 254.53 208.32 254.53 205.87 250.04 207.67"/><polygon class="cls-12" points="254.53 205.87 257.2 209.17 257.3 214.42 254.53 214.42 256.61 216.8 250.19 230.33 250.19 225.99 254.53 205.87"/><polygon class="cls-13" points="245.89 205.87 245.77 206.27 245.8 205.87 244.96 208.57 233.25 212.43 228.33 235.84 234.41 253.61 234.05 260.87 237.19 260.87 241.21 260.87 250.79 260.87 250.79 227.27 245.89 205.87"/><polygon class="cls-14" points="245.89 205.87 243.22 209.17 243.12 214.42 245.89 214.42 243.81 216.8 250.79 231.67 250.79 227.32 245.89 205.87"/><polygon class="cls-15" points="267.04 251.9 267.41 256.06 267.53 258.81 268.25 260.72 269.39 260.72 271.23 257.49 270.73 252.14 267.04 251.9"/><polygon class="cls-3" points="268.25 260.72 269.3 258.86 269.32 255 268.88 254.23 268.6 258.1 268.32 259 267.83 259.19 267.04 258.57 266.82 255.53 267.04 252.51 271.02 252.51 271.23 257.49 269.39 260.72 268.25 260.72"/><polygon class="cls-16" points="273.7 231.03 267.09 212.43 255.37 208.57 254.53 205.87 254.53 228.65 256.06 288.34 264.36 288.53 264.36 234.14 263.23 227.49 265.41 233.84 265.41 255.03 272.52 255.03 272.52 252.37 273.7 246.95 273.7 231.03"/><polygon class="cls-17" points="254.53 205.87 258.64 209.65 259.97 214.42 257.3 214.42 259.38 216.8 254.53 230.33 254.53 205.87"/><polygon class="cls-16" points="245.8 205.87 244.96 208.57 233.25 212.43 228.33 235.84 234.41 253.61 238.72 244.77 238.37 242.29 243.78 228.81 245.8 205.87"/><polygon class="cls-17" points="245.8 205.87 243.13 209.17 240.68 215.11 243.45 215.11 241.37 217.48 243.78 228.81 245.8 205.87"/><polygon class="cls-18" points="237.86 226.78 235.86 234.63 238.72 244.77 237.27 234.63 237.86 226.78"/><circle class="cls-19" cx="258.87" cy="221.64" r="15.9"/><circle class="cls-19" cx="258.87" cy="221.64" r="12.62"/><circle class="cls-19" cx="258.88" cy="221.64" r="9.42"/><line class="cls-20" x1="258.87" y1="231.06" x2="258.87" y2="242.44"/><line class="cls-20" x1="258.87" y1="200.85" x2="258.87" y2="212.22"/><line class="cls-20" x1="249.45" y1="221.64" x2="238.08" y2="221.64"/><line class="cls-20" x1="279.67" y1="221.64" x2="268.29" y2="221.64"/><ellipse class="cls-21" cx="250" cy="250" rx="112.5" ry="79.01"/></svg>