<?xml version="1.0" encoding="UTF-8"?>
<svg width="1147px" height="714px" viewBox="0 0 1147 714" version="1.1" xmlns="http://www.w3.org/2000/svg" xmlns:xlink="http://www.w3.org/1999/xlink">
    <!-- Generator: Sketch 47.1 (45422) - http://www.bohemiancoding.com/sketch -->
    <title>line copy</title>
    <desc>Created with Sketch.</desc>
    <defs></defs>
    <g id="Page-1" stroke="none" stroke-width="1" fill="none" fill-rule="evenodd">
        <g id="line-copy" transform="translate(577.073505, 346.614036) scale(-1, -1) rotate(-10.000000) translate(-577.073505, -346.614036) translate(-2.926495, 76.614036)" fill="#FF4A68">
            <rect id="Rectangle-Copy-755" x="0" y="280" width="80" height="20"></rect>
            <rect id="Rectangle-Copy-756" x="80" y="260" width="80" height="20"></rect>
            <rect id="Rectangle-Copy-757" x="160" y="240" width="80" height="20"></rect>
            <rect id="Rectangle-Copy-765" x="640" y="120" width="80" height="20"></rect>
            <rect id="Rectangle-Copy-770" x="580" y="180" width="80" height="20"></rect>
            <rect id="Rectangle-Copy-776" x="600" y="220" width="80" height="20"></rect>
            <rect id="Rectangle-Copy-782" x="620" y="260" width="80" height="20"></rect>
            <rect id="Rectangle-Copy-789" x="640" y="300" width="80" height="20"></rect>
            <rect id="Rectangle-Copy-758" x="240" y="220" width="80" height="20"></rect>
            <rect id="Rectangle-Copy-766" x="720" y="100" width="80" height="20"></rect>
            <rect id="Rectangle-Copy-771" x="660" y="160" width="80" height="20"></rect>
            <rect id="Rectangle-Copy-777" x="680" y="200" width="80" height="20"></rect>
            <rect id="Rectangle-Copy-783" x="700" y="240" width="80" height="20"></rect>
            <rect id="Rectangle-Copy-790" x="720" y="280" width="80" height="20"></rect>
            <rect id="Rectangle-Copy-759" x="320" y="200" width="80" height="20"></rect>
            <rect id="Rectangle-Copy-767" x="800" y="80" width="80" height="20"></rect>
            <rect id="Rectangle-Copy-772" x="740" y="140" width="80" height="20"></rect>
            <rect id="Rectangle-Copy-778" x="760" y="180" width="80" height="20"></rect>
            <rect id="Rectangle-Copy-784" x="780" y="220" width="80" height="20"></rect>
            <rect id="Rectangle-Copy-791" x="800" y="260" width="80" height="20"></rect>
            <rect id="Rectangle-Copy-760" x="400" y="180" width="80" height="20"></rect>
            <rect id="Rectangle-Copy-768" x="880" y="60" width="80" height="20"></rect>
            <rect id="Rectangle-Copy-773" x="820" y="120" width="80" height="20"></rect>
            <rect id="Rectangle-Copy-779" x="840" y="160" width="80" height="20"></rect>
            <rect id="Rectangle-Copy-785" x="860" y="200" width="80" height="20"></rect>
            <rect id="Rectangle-Copy-792" x="880" y="240" width="80" height="20"></rect>
            <rect id="Rectangle-Copy-761" x="480" y="160" width="80" height="20"></rect>
            <rect id="Rectangle-Copy-769" x="960" y="40" width="80" height="20"></rect>
            <rect id="Rectangle-Copy-774" x="900" y="100" width="80" height="20"></rect>
            <rect id="Rectangle-Copy-780" x="920" y="140" width="80" height="20"></rect>
            <rect id="Rectangle-Copy-786" x="940" y="180" width="80" height="20"></rect>
            <rect id="Rectangle-Copy-793" x="960" y="220" width="80" height="20"></rect>
            <rect id="Rectangle-Copy-775" x="980" y="80" width="80" height="20"></rect>
            <rect id="Rectangle-Copy-812" x="1060" y="60" width="80" height="20"></rect>
            <rect id="Rectangle-Copy-814" x="1080" y="100" width="80" height="20"></rect>
            <rect id="Rectangle-Copy-815" x="1100" y="140" width="60" height="20"></rect>
            <rect id="Rectangle-Copy-813" x="1140" y="40" width="20" height="20"></rect>
            <rect id="Rectangle-Copy-796" x="1040" y="20" width="80" height="20"></rect>
            <rect id="Rectangle-Copy-811" x="1120" y="0" width="40" height="20"></rect>
            <rect id="Rectangle-Copy-781" x="1000" y="120" width="80" height="20"></rect>
            <rect id="Rectangle-Copy-787" x="1020" y="160" width="80" height="20"></rect>
            <rect id="Rectangle-Copy-794" x="1040" y="200" width="80" height="20"></rect>
            <rect id="Rectangle-Copy-817" x="1060" y="240" width="80" height="20"></rect>
            <rect id="Rectangle-Copy-816" x="1120" y="180" width="40" height="20"></rect>
            <rect id="Rectangle-Copy-818" x="1140" y="220" width="20" height="20"></rect>
            <rect id="Rectangle-Copy-762" x="560" y="140" width="80" height="20"></rect>
            <rect id="Rectangle-Copy-763" x="500" y="200" width="80" height="20"></rect>
            <rect id="Rectangle-Copy-764" x="520" y="240" width="80" height="20"></rect>
            <rect id="Rectangle-Copy-788" x="540" y="280" width="80" height="20"></rect>
            <rect id="Rectangle-Copy-795" x="560" y="320" width="80" height="20"></rect>
            <rect id="Rectangle-Copy-755" x="20" y="320" width="80" height="20"></rect>
            <rect id="Rectangle-Copy-756" x="100" y="300" width="80" height="20"></rect>
            <rect id="Rectangle-Copy-757" x="180" y="280" width="80" height="20"></rect>
            <rect id="Rectangle-Copy-758" x="260" y="260" width="80" height="20"></rect>
            <rect id="Rectangle-Copy-759" x="340" y="240" width="80" height="20"></rect>
            <rect id="Rectangle-Copy-760" x="420" y="220" width="80" height="20"></rect>
            <rect id="Rectangle-Copy-755" x="40" y="360" width="80" height="20"></rect>
            <rect id="Rectangle-Copy-756" x="120" y="340" width="80" height="20"></rect>
            <rect id="Rectangle-Copy-757" x="200" y="320" width="80" height="20"></rect>
            <rect id="Rectangle-Copy-758" x="280" y="300" width="80" height="20"></rect>
            <rect id="Rectangle-Copy-759" x="360" y="280" width="80" height="20"></rect>
            <rect id="Rectangle-Copy-760" x="440" y="260" width="80" height="20"></rect>
            <rect id="Rectangle-Copy-755" x="60" y="400" width="80" height="20"></rect>
            <rect id="Rectangle-Copy-756" x="140" y="380" width="80" height="20"></rect>
            <rect id="Rectangle-Copy-757" x="220" y="360" width="80" height="20"></rect>
            <rect id="Rectangle-Copy-758" x="300" y="340" width="80" height="20"></rect>
            <rect id="Rectangle-Copy-759" x="380" y="320" width="80" height="20"></rect>
            <rect id="Rectangle-Copy-760" x="460" y="300" width="80" height="20"></rect>
            <rect id="Rectangle-Copy-755" x="80" y="440" width="80" height="20"></rect>
            <rect id="Rectangle-Copy-756" x="160" y="420" width="80" height="20"></rect>
            <rect id="Rectangle-Copy-757" x="240" y="400" width="80" height="20"></rect>
            <rect id="Rectangle-Copy-758" x="320" y="380" width="80" height="20"></rect>
            <rect id="Rectangle-Copy-759" x="400" y="360" width="80" height="20"></rect>
            <rect id="Rectangle-Copy-760" x="480" y="340" width="80" height="20"></rect>
            <rect id="Rectangle-Copy-755" x="100" y="480" width="80" height="20"></rect>
            <rect id="Rectangle-Copy-797" x="500" y="380" width="80" height="20"></rect>
            <rect id="Rectangle-Copy-804" x="520" y="420" width="80" height="20"></rect>
            <rect id="Rectangle-Copy-756" x="180" y="460" width="80" height="20"></rect>
            <rect id="Rectangle-Copy-798" x="580" y="360" width="80" height="20"></rect>
            <rect id="Rectangle-Copy-805" x="600" y="400" width="80" height="20"></rect>
            <rect id="Rectangle-Copy-757" x="260" y="440" width="80" height="20"></rect>
            <rect id="Rectangle-Copy-799" x="660" y="340" width="80" height="20"></rect>
            <rect id="Rectangle-Copy-806" x="680" y="380" width="80" height="20"></rect>
            <rect id="Rectangle-Copy-758" x="340" y="420" width="80" height="20"></rect>
            <rect id="Rectangle-Copy-800" x="740" y="320" width="80" height="20"></rect>
            <rect id="Rectangle-Copy-807" x="760" y="360" width="80" height="20"></rect>
            <rect id="Rectangle-Copy-802" x="900" y="280" width="80" height="20"></rect>
            <rect id="Rectangle-Copy-808" x="920" y="320" width="80" height="20"></rect>
            <rect id="Rectangle-Copy-810" x="1000" y="300" width="80" height="20"></rect>
            <rect id="Rectangle-Copy-819" x="1080" y="280" width="80" height="20"></rect>
            <rect id="Rectangle-Copy-759" x="420" y="400" width="80" height="20"></rect>
            <rect id="Rectangle-Copy-801" x="820" y="300" width="80" height="20"></rect>
            <rect id="Rectangle-Copy-809" x="840" y="340" width="80" height="20"></rect>
            <rect id="Rectangle-Copy-803" x="980" y="260" width="80" height="20"></rect>
            <rect id="Rectangle-Copy-755" x="120" y="520" width="80" height="20"></rect>
            <rect id="Rectangle-Copy-756" x="200" y="500" width="80" height="20"></rect>
            <rect id="Rectangle-Copy-757" x="280" y="480" width="80" height="20"></rect>
            <rect id="Rectangle-Copy-758" x="360" y="460" width="80" height="20"></rect>
            <rect id="Rectangle-Copy-759" x="440" y="440" width="80" height="20"></rect>
        </g>
    </g>
</svg>