<svg width="58" height="58" viewBox="0 0 58 58" version="1.1" xmlns="http://www.w3.org/2000/svg" xmlns:xlink="http://www.w3.org/1999/xlink">
<title>icon_tg_red</title>
<desc>Created using Figma</desc>
<g id="Canvas" transform="translate(-21238 -7758)">
<g id="icon_tg_red">
<g id="Oval 9 Copy 2">
<use xlink:href="#path0_stroke" transform="translate(21239 7759)" fill="#FF4A68"/>
</g>
<g id="Page 1 Copy 6">
<use xlink:href="#path1_fill" transform="translate(21255 7778)" fill="#FF4A68"/>
</g>
</g>
</g>
<defs>
<path id="path0_stroke" d="M 28 56.5C 43.7401 56.5 56.5 43.7401 56.5 28L 55.5 28C 55.5 43.1878 43.1878 55.5 28 55.5L 28 56.5ZM 56.5 28C 56.5 12.2599 43.7401 -0.5 28 -0.5L 28 0.5C 43.1878 0.5 55.5 12.8122 55.5 28L 56.5 28ZM 28 -0.5C 12.2599 -0.5 -0.5 12.2599 -0.5 28L 0.5 28C 0.5 12.8122 12.8122 0.5 28 0.5L 28 -0.5ZM -0.5 28C -0.5 43.7401 12.2599 56.5 28 56.5L 28 55.5C 12.8122 55.5 0.5 43.1878 0.5 28L -0.5 28Z"/>
<path id="path1_fill" fill-rule="evenodd" d="M 22.8779 0L 0 5.69655L 6.59918 11.5742L 22.8779 0ZM 7.08008 12.147L 10.984 19.9999L 23.0005 0.103516L 7.08008 12.147Z"/>
</defs>
</svg>
