<svg width="58" height="58" viewBox="0 0 58 58" version="1.1" xmlns="http://www.w3.org/2000/svg" xmlns:xlink="http://www.w3.org/1999/xlink">
<title>icon_fb_white</title>
<desc>Created using Figma</desc>
<g id="Canvas" transform="translate(-20572 -8612)">
<g id="icon_fb_white">
<g id="Oval 9">
<use xlink:href="#path0_stroke" transform="translate(20573 8613)" fill="#FFFFFF"/>
</g>
<g id="Page 1 Copy 4">
<mask id="mask0_outline" mask-type="alpha">
<g id="Clip 2">
<use xlink:href="#path1_fill" transform="translate(20593 8628)" fill="#FFFFFF"/>
</g>
</mask>
<g id="Fill 1" mask="url(#mask0_outline)">
<use xlink:href="#path2_fill" transform="translate(20593 8628)" fill="#FFFFFF"/>
</g>
</g>
</g>
</g>
<defs>
<path id="path0_stroke" d="M 28 56.5C 43.7401 56.5 56.5 43.7401 56.5 28L 55.5 28C 55.5 43.1878 43.1878 55.5 28 55.5L 28 56.5ZM 56.5 28C 56.5 12.2599 43.7401 -0.5 28 -0.5L 28 0.5C 43.1878 0.5 55.5 12.8122 55.5 28L 56.5 28ZM 28 -0.5C 12.2599 -0.5 -0.5 12.2599 -0.5 28L 0.5 28C 0.5 12.8122 12.8122 0.5 28 0.5L 28 -0.5ZM -0.5 28C -0.5 43.7401 12.2599 56.5 28 56.5L 28 55.5C 12.8122 55.5 0.5 43.1878 0.5 28L -0.5 28Z"/>
<path id="path1_fill" fill-rule="evenodd" d="M 7 26L 14 26L 14 0L 7 0L 0 0L 0 26L 7 26Z"/>
<path id="path2_fill" fill-rule="evenodd" d="M 4.77637 26L 4.77637 12.1594L 0 12.1594L 0 8.61252L 4.77637 8.61252L 4.77637 5.07116C 4.77637 2.27524 7.25989 0 10.3118 0L 14 0L 14 3.54692L 10.3118 3.54692C 9.39487 3.54692 8.64799 4.23116 8.64799 5.07116L 8.64799 8.61252L 13.8081 8.61252L 13.8081 12.1594L 8.64799 12.1594L 8.64799 26L 4.77637 26Z"/>
</defs>
</svg>
