<?xml version="1.0" encoding="UTF-8"?>
<svg width="24px" height="23px" viewBox="0 0 24 23" version="1.1" xmlns="http://www.w3.org/2000/svg" xmlns:xlink="http://www.w3.org/1999/xlink">
    <!-- Generator: Sketch 47.1 (45422) - http://www.bohemiancoding.com/sketch -->
    <title>icon_case</title>
    <desc>Created with Sketch.</desc>
    <defs></defs>
    <g id="-" stroke="none" stroke-width="1" fill="none" fill-rule="evenodd">
        <g id="1-1-Desktop-#1" transform="translate(-235.000000, -1561.000000)" fill="#7C7A7A">
            <g id="Group-7" transform="translate(235.000000, 1561.000000)">
                <path d="M8.8,1.85483871 C8.8,1.40437788 9.14666667,1.05990783 9.6,1.05990783 L14.4,1.05990783 C14.8533333,1.05990783 15.2,1.40437788 15.2,1.85483871 L15.2,3.31221198 L8.8,3.31221198 L8.8,1.85483871 Z M22.9333333,13.4608295 L14.56,13.4608295 L14.56,11.5 L9.44,11.5 L9.44,13.4608295 L1.06666667,13.4608295 L1.06666667,4.37211982 L7.73333333,4.37211982 L16.2666667,4.37211982 L22.9333333,4.37211982 L22.9333333,13.4608295 Z M21.76,21.9400922 L2.24,21.9400922 L2.24,14.5737327 L9.41333333,14.5737327 L9.41333333,16.5875576 L14.5333333,16.5875576 L14.5333333,14.5737327 L21.7066667,14.5737327 L21.7066667,21.9400922 L21.76,21.9400922 Z M16.2666667,1.85483871 C16.2666667,0.821428571 15.44,0 14.4,0 L9.6,0 C8.56,0 7.73333333,0.821428571 7.73333333,1.85483871 L7.73333333,3.31221198 L0,3.31221198 L0,14.5207373 L1.2,14.5207373 L1.2,23 L22.8266667,23 L22.8266667,14.5207373 L24,14.5207373 L24,3.31221198 L16.2666667,3.31221198 L16.2666667,1.85483871 Z" id="Fill-1"></path>
            </g>
        </g>
    </g>
</svg>