<svg width="597" height="365" viewBox="0 0 597 365" version="1.1" xmlns="http://www.w3.org/2000/svg" xmlns:xlink="http://www.w3.org/1999/xlink">
<title>Group 2</title>
<desc>Created using Figma</desc>
<g id="Canvas" transform="translate(110 23)">
<g id="Group 2">
<g id="Rectangle 2">
<use xlink:href="#path0_fill" transform="matrix(0.999391 0.0348995 -0.0348995 0.999391 -82.4348 -15)" fill="#330099"/>
</g>
<g id="Combined Shape">
<use xlink:href="#path1_fill" transform="translate(-106.398 -20.1798)" fill="#FFFFFF"/>
<use xlink:href="#path2_stroke" transform="translate(-106.398 -20.1798)" fill="#330099"/>
</g>
</g>
</g>
<defs>
<path id="path0_fill" fill-rule="evenodd" d="M 0 0L 529.642 0L 529.642 102.155L 0 102.155L 0 0Z"/>
<path id="path1_fill" fill-rule="evenodd" d="M 558.636 1.90735e-06L 0 39.0636L 20.1596 327.36L 476.226 295.468L 498.406 325.906L 590.757 359.625L 552.679 317.86L 540.777 290.955L 578.796 288.296L 558.636 1.90735e-06Z"/>
<path id="path2_stroke" d="M 0 39.0636L -0.174391 36.5697L -2.6683 36.7441L -2.49391 39.238L 0 39.0636ZM 558.636 1.90735e-06L 561.13 -0.174389L 560.955 -2.6683L 558.461 -2.49391L 558.636 1.90735e-06ZM 20.1596 327.36L 17.6657 327.534L 17.8401 330.028L 20.334 329.854L 20.1596 327.36ZM 476.226 295.468L 478.247 293.996L 477.432 292.878L 476.052 292.974L 476.226 295.468ZM 498.406 325.906L 496.385 327.379L 496.833 327.994L 497.548 328.255L 498.406 325.906ZM 590.757 359.625L 589.9 361.973L 592.605 357.941L 590.757 359.625ZM 552.679 317.86L 550.393 318.871L 550.557 319.243L 550.832 319.544L 552.679 317.86ZM 540.777 290.955L 540.602 288.461L 537.049 288.709L 538.49 291.966L 540.777 290.955ZM 578.796 288.296L 578.97 290.79L 581.464 290.616L 581.289 288.122L 578.796 288.296ZM 0.174391 41.5575L 558.81 2.49391L 558.461 -2.49391L -0.174391 36.5697L 0.174391 41.5575ZM 22.6535 327.185L 2.49391 38.8892L -2.49391 39.238L 17.6657 327.534L 22.6535 327.185ZM 476.052 292.974L 19.9852 324.866L 20.334 329.854L 476.401 297.962L 476.052 292.974ZM 474.206 296.941L 496.385 327.379L 500.426 324.434L 478.247 293.996L 474.206 296.941ZM 497.548 328.255L 589.9 361.973L 591.615 357.277L 499.263 323.558L 497.548 328.255ZM 592.605 357.941L 554.526 316.175L 550.832 319.544L 588.91 361.309L 592.605 357.941ZM 554.965 316.848L 543.063 289.943L 538.49 291.966L 550.393 318.871L 554.965 316.848ZM 578.621 285.802L 540.602 288.461L 540.951 293.448L 578.97 290.79L 578.621 285.802ZM 556.142 0.174393L 576.302 288.47L 581.289 288.122L 561.13 -0.174389L 556.142 0.174393Z"/>
</defs>
</svg>
