<svg width="291" height="207" viewBox="0 0 291 207" version="1.1" xmlns="http://www.w3.org/2000/svg" xmlns:xlink="http://www.w3.org/1999/xlink">
<title>Group</title>
<desc>Created using Figma</desc>
<g id="Canvas" transform="translate(-1257 65)">
<g id="Group">
<g id="Rectangle 2">
<use xlink:href="#path0_fill" transform="matrix(0.999391 0.0348995 -0.0348995 0.999391 1274.91 -64.2955)" fill="#330099"/>
</g>
<g id="Combined Shape">
<use xlink:href="#path1_fill" transform="translate(1260.33 -55.0296)" fill="#FFFFFF"/>
<use xlink:href="#path2_stroke" transform="translate(1260.33 -55.0296)" fill="#330099"/>
</g>
</g>
</g>
<defs>
<path id="path0_fill" fill-rule="evenodd" d="M 0 0L 247 0L 247 48L 0 48L 0 0Z"/>
<path id="path1_fill" fill-rule="evenodd" d="M 279.829 0L 0 9.77186L 4.67651 143.69L 44.9604 142.283L 43.7021 154.557L 65.1726 194.959L 64.9777 168.686L 73.9294 141.272L 284.506 133.918L 279.829 0Z"/>
<path id="path2_stroke" d="M 0 9.77186L -0.0872487 7.27338L -2.58573 7.36063L -2.49848 9.85911L 0 9.77186ZM 279.829 0L 282.328 -0.0872484L 282.241 -2.58573L 279.742 -2.49848L 279.829 0ZM 4.67651 143.69L 2.17804 143.777L 2.26528 146.276L 4.76376 146.189L 4.67651 143.69ZM 44.9604 142.283L 47.4474 142.538L 47.74 139.685L 44.8732 139.785L 44.9604 142.283ZM 43.7021 154.557L 41.2152 154.302L 41.1376 155.059L 41.4945 155.73L 43.7021 154.557ZM 65.1726 194.959L 62.965 196.133L 67.6725 194.941L 65.1726 194.959ZM 64.9777 168.686L 62.6012 167.91L 62.4747 168.297L 62.4777 168.704L 64.9777 168.686ZM 73.9294 141.272L 73.8422 138.773L 72.0955 138.834L 71.5529 140.496L 73.9294 141.272ZM 284.506 133.918L 284.593 136.417L 287.092 136.33L 287.004 133.831L 284.506 133.918ZM 0.0872487 12.2703L 279.917 2.49848L 279.742 -2.49848L -0.0872487 7.27338L 0.0872487 12.2703ZM 7.17499 143.603L 2.49848 9.68461L -2.49848 9.85911L 2.17804 143.777L 7.17499 143.603ZM 44.8732 139.785L 4.58926 141.192L 4.76376 146.189L 45.0477 144.782L 44.8732 139.785ZM 42.4735 142.029L 41.2152 154.302L 46.1891 154.812L 47.4474 142.538L 42.4735 142.029ZM 41.4945 155.73L 62.965 196.133L 67.3802 193.786L 45.9098 153.384L 41.4945 155.73ZM 67.6725 194.941L 67.4776 168.667L 62.4777 168.704L 62.6727 194.978L 67.6725 194.941ZM 67.3542 169.462L 76.3059 142.048L 71.5529 140.496L 62.6012 167.91L 67.3542 169.462ZM 284.419 131.42L 73.8422 138.773L 74.0167 143.77L 284.593 136.417L 284.419 131.42ZM 277.331 0.0872484L 282.008 134.006L 287.004 133.831L 282.328 -0.0872484L 277.331 0.0872484Z"/>
</defs>
</svg>
