<?xml version="1.0" encoding="utf-8"?>
<!-- Generator: Adobe Illustrator 20.1.0, SVG Export Plug-In . SVG Version: 6.00 Build 0)  -->
<svg version="1.1" id="map-background" xmlns="http://www.w3.org/2000/svg" xmlns:xlink="http://www.w3.org/1999/xlink" x="0px"
	 y="0px" viewBox="0 0 960 690" style="enable-background:new 0 0 960 690;" xml:space="preserve">
<style type="text/css">
	.st0{fill:#E5E5E5;}
	.st1{fill:#F5F1F1;}
	.st2{fill:#7C7A7A;}
</style>
<g>
	<g>
		<polygon class="st0" points="926,261 926,291 956,291 		"/>
		<polygon class="st0" points="986,291 986,321 1016,291 		"/>
		<polygon class="st0" points="1916,711 1886,681 1856,651 1856,681 1886,711 		"/>
		<polygon class="st0" points="1916,51 1886,51 1916,81 		"/>
		<polygon class="st0" points="1046,231 1016,231 986,261 986,291 1016,261 		"/>
		<polygon class="st0" points="386,471 356,501 386,531 386,501 		"/>
		<path class="st0" d="M2036,471h-30v-30l-30-30h30l-30-30h-30v-30v-30v-30l30-30h-30v-30v-30v-30l-30-30h-30h-30v30l-30,30l30,30
			v30h-30h-30h-30v-30h-30h-30h-30v30h-30h-30l-30,30h-30l30,30h-30l-30,30l-30-30h-30l-30,30l-30-30l-30,30h-30l30-30h-30l-30,30
			l-30,30v-30h-30l-30-30l-30,30h30l-30,30l-30,30v30v30h-30v-30v-30l-30,30v-30l-30,30l-30,30l-30-30h30v-30v-30l-30-30v-30l-30,30
			l-30-30v30l-30-30l-30-30l-30,30v-30h-30l-30-30v30l-30-30v30l-30-30l30-30l30-30v30l30,30h30v-30v-30v-30l-30-30l-30,30l-30,30
			h-30l-30,30l-30,30l-30,30v-30v-30l-30,30v-30l-30,30v-30h30l-30-30l-30,30h-30l30-30l-30-30l-30,30v30h-30l-30-30l-30-30v30
			l-30,30l30,30v30v30l-30,30l-30,30l-30,30h30v30h30v30l30,30l30,30h-30h-30v30l30,30v30l-30,30l-30,30l30,30v30v30h30h30l-30,30
			h30l30-30v-30v-30l30-30l30-30l30,30h30v30l-30,30v-30h-30v30v30l-30,30h30v30l-30-30v30v30l-30,30h30l30,30l30,30v30h30l-30,30
			l30,30v-30l30,30l30-30v-30l-30-30v-30v-30l-30-30h-30l30-30h30v-30l30-30h30l30,30h-30v30h-30l-30,30l30,30v30h30l30,30l-30,30
			l30,30h30h30v30v30l30,30l30-30l-30-30h30v-30l30,30h30h30l30-30v-30l30-30v30l30-30v-30l30,30l30-30l30-30h30v-30l30-30l30,30
			v-30h30l30-30l30,30v30h30l30,30h30h30l30,30h30l30-30l30-30v30h30l30-30v-30v-30v-30h30h30l30,30l30,30h30l30,30l30-30v-30l30,30
			v30v30v30l-30-30v30v30v30l30-30h30v-30v-30l30-30v-30v-30v-30l-30-30v-30v-30l-30-30h-30v30h-30h-30l30-30v-30v-30v-30v-30h30
			v-30h30v-30h30l30-30l-30-30v-30v-30h30v-30l30,30v30v30v30l30,30v30l30,30h30l30,30v-30l-30-30L2036,471z M716,291l-30,30v-30
			l30-30V291z M896,1011v-30l30,30H896z M926,921l-30-30l-30,30v-30h30h30l30,30H926z M1436,801l-30,30l-30,30h-30l30-30l30-30
			l30-30V801z"/>
		<polygon class="st0" points="896,261 866,291 896,291 		"/>
		<polygon class="st0" points="566,171 566,201 596,171 		"/>
		<polygon class="st0" points="1106,381 1106,411 1136,411 		"/>
	</g>
	<path class="st0" d="M836,81l-30,30V81H836z M836,111v30h30L836,111z M776,141h-30v30l-30-30h-30h-30l-30,30v30l30,30l30-30v30v30
		l30-30l30-30h30l30-30l30-30l-30-30L776,141z M656,261l30-30h-30V261z M746,1011h30v30h-30l-30,30v-30h-30l-30-30v-30l-30-30v-30
		v-30l-30-30h-30l30-30h30h30l-30,30l30,30v30h30l30,30l-30,30l30,30H746z M1136,861l30,30l30-30l-30-30L1136,861z M776,1101v-30
		v-30l-30,30L776,1101z M1286,831l-30-30l-30,30h-30v30l30,30h30h30l30-30h-30V831z"/>
	<g>
		<polygon class="st1" points="836,141 836,111 866,141 866,111 836,81 806,111 		"/>
		<polygon class="st1" points="506,81 476,51 476,81 		"/>
		<polygon class="st1" points="-4,-39 -4,-9 -4,21 -4,51 -4,81 -4,111 -4,141 -4,171 -4,201 26,201 56,171 86,171 56,141 86,111 
			56,81 56,51 56,21 26,-9 26,-39 26,-69 -4,-99 -4,-69 		"/>
		<polygon class="st1" points="-4,-99 26,-129 -4,-129 		"/>
		<polygon class="st1" points="2186,111 2186,141 2186,171 2216,141 		"/>
		<polygon class="st1" points="2156,51 2156,81 2186,81 		"/>
		<polygon class="st1" points="506,81 476,111 506,111 506,141 536,141 566,111 566,141 596,141 626,111 656,111 686,111 716,111 
			746,141 776,141 806,111 806,81 836,81 806,51 776,21 776,51 746,21 746,51 716,21 686,21 656,-9 626,-39 596,-9 596,-39 566,-9 
			536,-9 536,21 566,51 536,51 536,81 		"/>
		<polygon class="st1" points="2186,201 2216,171 2186,171 		"/>
		<polygon class="st1" points="2186,51 2186,21 2156,-9 2156,21 		"/>
		<polygon class="st1" points="416,-39 416,-69 446,-69 476,-99 506,-99 536,-99 536,-129 566,-99 566,-129 536,-159 506,-159 
			476,-129 446,-99 446,-129 416,-129 416,-159 386,-129 356,-159 356,-129 356,-99 356,-69 386,-39 		"/>
		<polygon class="st1" points="566,-189 536,-159 566,-159 		"/>
		<polygon class="st1" points="86,231 86,261 86,291 116,291 116,261 		"/>
		<polygon class="st1" points="476,-159 506,-189 476,-189 446,-189 416,-189 416,-159 446,-159 		"/>
		<polygon class="st1" points="596,-99 566,-99 596,-69 		"/>
		<polygon class="st1" points="266,441 296,441 326,441 356,411 326,411 356,381 386,351 416,321 416,291 416,261 386,231 416,201 
			416,171 446,201 476,231 506,231 506,201 476,171 476,141 446,111 476,111 446,81 476,51 506,51 536,51 506,21 476,21 446,51 
			416,21 446,21 416,-9 386,-9 356,-39 326,-69 326,-99 326,-129 296,-99 266,-69 236,-69 206,-69 206,-99 206,-129 206,-159 
			206,-189 176,-189 146,-189 116,-189 86,-189 56,-189 56,-159 26,-129 56,-99 56,-69 86,-39 116,-39 146,-9 146,21 176,21 206,21 
			206,51 206,81 236,111 206,141 176,171 176,201 146,231 146,261 116,291 146,291 146,321 176,291 176,261 206,231 206,201 
			236,171 266,171 236,201 236,231 206,261 206,291 206,321 176,321 146,351 146,381 116,411 116,441 146,411 176,441 176,411 
			176,381 206,411 236,441 266,471 		"/>
		<polygon class="st1" points="146,531 176,531 146,501 		"/>
		<polygon class="st1" points="-4,921 26,891 -4,861 -4,891 		"/>
		<polygon class="st1" points="116,501 116,471 116,441 86,471 		"/>
		<polygon class="st1" points="2006,831 2036,801 2006,801 1976,831 1946,801 1946,831 1946,861 1946,891 1946,921 1976,891 
			2006,861 		"/>
		<polygon class="st1" points="1916,711 1886,711 1886,741 1916,771 1916,801 1946,771 1916,741 1946,711 		"/>
		<polygon class="st1" points="1976,951 1976,981 1976,1011 1976,1041 1946,1041 1946,1071 1916,1101 1886,1131 1886,1161 
			1916,1131 1946,1101 1976,1131 1976,1101 2006,1071 2036,1041 2036,1011 2006,981 2006,951 2006,921 1976,891 1976,921 		"/>
		<polygon class="st1" points="1976,21 1946,51 1976,51 		"/>
		<polygon class="st1" points="1886,1191 1886,1221 1916,1191 1886,1161 1856,1191 		"/>
		<polygon class="st1" points="2096,-159 2066,-189 2066,-159 2096,-129 		"/>
		<polygon class="st1" points="2126,321 2156,291 2126,291 		"/>
		<polygon class="st1" points="2036,21 2036,-9 2006,21 		"/>
		<polygon class="st1" points="2036,591 2036,561 2006,561 		"/>
		<polygon class="st1" points="1946,1131 1916,1131 1916,1161 		"/>
		<polygon class="st1" points="2126,-39 2156,-9 2156,-39 2156,-69 2126,-99 2096,-129 2066,-129 2066,-159 2036,-159 2036,-189 
			2006,-189 1976,-189 1946,-189 1916,-189 1886,-189 1856,-189 1826,-189 1796,-189 1766,-189 1766,-159 1766,-129 1766,-99 
			1766,-69 1796,-39 1826,-39 1826,-9 1856,-39 1886,-69 1886,-39 1886,-9 1916,21 1916,-9 1916,-39 1946,-69 1946,-39 1976,-9 
			2006,-9 2036,-39 2066,-69 2066,-99 2096,-99 2126,-69 		"/>
		<polygon class="st1" points="176,621 176,651 206,651 		"/>
		<polygon class="st1" points="1826,1101 1796,1071 1766,1071 1796,1041 1796,1011 1796,981 1796,951 1796,921 1796,891 1826,921 
			1826,891 1826,861 1826,831 1796,801 1796,831 1766,861 1736,831 1706,831 1676,801 1646,771 1616,771 1586,771 1586,801 
			1586,831 1586,861 1556,891 1526,891 1526,861 1496,891 1466,921 1436,921 1406,891 1376,891 1346,891 1316,861 1286,891 
			1256,891 1226,891 1196,861 1196,891 1166,891 1136,861 1136,891 1106,891 1076,921 1046,951 1016,921 1016,951 986,981 986,951 
			956,981 956,1011 926,1041 896,1041 866,1041 836,1011 836,1041 806,1041 836,1071 806,1101 776,1071 776,1101 746,1071 776,1041 
			746,1041 716,1071 716,1041 686,1041 656,1011 626,1041 596,1011 596,1041 566,1011 596,981 566,981 566,951 536,921 506,891 
			476,891 446,891 416,861 416,831 416,801 446,771 416,771 386,771 386,741 386,711 356,681 386,651 356,651 356,621 326,591 
			326,561 296,531 266,501 266,471 236,471 236,441 206,441 176,471 176,501 176,531 176,561 206,591 206,621 236,621 236,651 
			206,681 176,681 146,711 116,681 116,651 86,621 56,621 56,591 56,561 26,531 26,501 26,471 26,441 26,411 -4,381 -4,411 -4,441 
			-4,471 -4,501 -4,531 -4,561 -4,591 -4,621 -4,651 -4,681 -4,711 -4,741 -4,771 -4,801 -4,831 -4,861 26,831 26,801 56,771 
			56,741 86,771 86,741 116,741 86,771 86,801 86,831 56,861 56,891 56,921 26,951 26,981 26,1011 26,1041 26,1071 26,1101 -4,1131 
			-4,1161 -4,1191 -4,1221 -4,1251 -4,1281 -4,1311 -4,1341 26,1341 56,1341 86,1341 116,1341 146,1341 176,1341 206,1341 236,1341 
			266,1341 296,1341 326,1341 356,1311 386,1311 386,1281 386,1251 356,1221 356,1191 356,1161 386,1131 356,1131 326,1131 
			296,1131 266,1101 296,1071 266,1071 266,1041 266,1011 266,981 296,951 326,981 326,1011 326,1041 326,1071 356,1101 386,1101 
			416,1131 386,1161 416,1191 446,1221 476,1251 506,1281 536,1311 566,1341 596,1341 626,1341 656,1341 686,1341 716,1341 
			746,1341 776,1341 806,1341 836,1341 866,1341 896,1341 926,1341 956,1341 986,1341 1016,1341 1046,1341 1076,1341 1106,1341 
			1136,1341 1166,1341 1196,1341 1226,1341 1256,1341 1286,1341 1316,1341 1346,1341 1376,1341 1406,1341 1436,1341 1466,1341 
			1496,1341 1526,1341 1556,1341 1586,1341 1616,1341 1646,1341 1676,1341 1706,1341 1736,1341 1736,1311 1706,1311 1736,1281 
			1706,1251 1676,1221 1646,1221 1676,1191 1676,1161 1706,1161 1706,1131 1676,1131 1646,1161 1616,1131 1646,1101 1676,1071 
			1676,1101 1706,1071 1736,1071 1736,1101 1736,1131 1766,1101 1796,1131 1766,1131 1796,1161 1796,1191 1826,1161 1856,1131 		"/>
		<polygon class="st1" points="116,51 116,21 86,51 		"/>
		<polygon class="st1" points="116,171 146,141 146,111 116,141 		"/>
		<polygon class="st1" points="206,111 176,111 146,111 176,141 		"/>
	</g>
	<path class="st2" d="M1917.2,712h-30l-2.2-2h30L1917.2,712z M747,172l-2-2v-30h30.6l29.4-29.4V80h30l1.6,1.8L807.4,111l27.6,28
		v-30.4l31,31v1.4h-1.4L837,113.4V141h-2h-0.4L806,112.4l-1,1L776.4,142H747V172z M807,108.6L833.6,82H807V108.6z M323.6,412H355
		l2-2h-28.6l88.6-88.6v-60.8L387.4,231l29.6-29.6v-28l58.6,58.6H507v-30l-2-2v30h-28.6L415,168.6v32L384.6,231l30.4,30.4v59.2
		L323.6,412z M1795,798.6v32l-29,29l-29.6-29.6h-30l-60-60H1585v90.6l-29.4,29.4H1527v-31.4l-61.4,61.4h-29.2l-30-30h-60l-30-30
		H1287v-29.4l-31-31l-30.4,30.4H1195v28.6l-29-29l-31,31V890h-29.4l-59.6,59.6l-31-31v32l-28,28v-30l-32,32v30l-29.4,29.4h-59.2
		l-31.4-31.4v31.4h-31.4l31,31l-28.6,28.6l-29-29V1010h-60.6l-29-29l30-30l-31-31H657v-29.4L627.4,861l30-30h-2.8l-30,30l30.4,30.4
		V922h30.6l29,29l-30,30l31,31H775v59.4l31,31l31.4-31.4l-29-29H837v-28.6l28.6,28.6h60.8l30.6-30.6v-30l28-28v30l32-32v-28l29,29
		l60.4-60.4h30.6v-30.6l29-29l31,31V832h29.4l29.6-29.6l29,29V862h30.6l30,30h60l30,30h30.8l58.6-58.6V892h31.4l30.6-30.6V772h58.6
		l60,60h30l30.4,30.4l31-31v-28l28,28v87.2l-30-30v93.6l2-2v-86.8l30,30v-92.8L1795,798.6z M387,710.6L357.4,681l30-30h-2.8l-30,30
		l30.4,30.4V772h58.6l-29,29h2.8l31-31H387L387,710.6L387,710.6z M627,890.6L596.4,860h-28l28-28H626v-2h-30.4l-32,32h32l29.4,29.4
		v60l30,30v29.2l-29,29l-31-31v30l-27.6-27.6l31-31H567v-29.4L506.4,890H477l-1.8,2h30.4l59.4,59.4V982h28.6l-29,29l32.4,32.4v-30
		l29,29l31-31v-30.8l-30-30V890.6z"/>
</g>
</svg>
