<svg preserveAspectRatio="xMidYMid slice" version="1.1" xmlns="http://www.w3.org/2000/svg" xmlns:xlink="http://www.w3.org/1999/xlink" x="0px" y="0px" viewBox="0 0 580 360" style="enable-background:new 0 0 580 360;" xml:space="preserve">
<g id="Background">
    <rect x="-166" y="-566" style="fill:#FFFFFF;" width="2033.6" height="1379.2"/>
    <path id="continents" style="fill:#F5F1F1;" d="M1853.7-635.6v27.7l2,2h27.7v27.7l2,2h28.9l29.1,29.1l29.1,29.1v28.9v25l-25.8-25.8
        v-28.9l-0.6-1.4l-29.7-29.7l-1.4-0.6h-29.7l-2,2v28.9l-29.1,29.1l-29.1,29.1H1797l-28.5-28.5v-28.9l-3.4-1.4l-29.7,29.7l-0.6,1.4
        v29.7v25L1709-460v-28.9v-29.7l-3.4-1.4l-29.7,29.7l-26.4,26.4v-25l-2-2h-28.9l-28.5-28.5v-28.9v-29.7v-29.7v-27.7h27.7h29.7h29.7
        h29.7h29.7h29.7h29.7h29.7H1853.7 M334.7-635.6l-25.8,25.8H280h-27.7v-25.8H280h29.7H334.7 M40.2-635.6v27.7v29.7v29.7v29.7l2,2
        h29.7h29.7l1.4-0.6l29.7-29.7l26.4-26.4v25v29.7l0.6,1.4l29.7,29.7l29.7,29.7l1.4,0.6h28.9l25.8,25.8h-25l-1.4,3.4l29.7,29.7h2.8
        l29.1-29.1h28.1l25.8,25.8h-25h-29.7l-1.4,0.6l-29.7,29.7v2.8l26.4,26.4h-25l-1.4,3.4l29.1,29.1v28.9l0.6,1.4l29.7,29.7h2.8
        l28.3-28.3l27,27l-28.3,28.3l1.4,3.4h29.7l1.4-0.6l28.3-28.3l25,25h-25l-2,2v29.7l3.4,1.4l26.4-26.4v25l3.4,1.4l29.1-29.1h24.2
        L486.7-193l-0.6,1.4v29.7l3.4,1.4l29.7-29.7l0.6-1.4v-29.7v-29.7l-3.4-1.4l-28.3,28.3l-27.7-27.7V-280l28.5-28.5h28.9h28.9
        l29.1,29.1l3.4-1.4v-29.7l-0.6-1.4L549-341.7l-1.4-0.6h-29.7h-29.7h-29.7l-1.4,0.6l-29.1,29.1h-27v-27.7l-3.4-1.4l-29.1,29.1h-27
        v-27.7l-2-2h-25l25.8-25.8h28.9l2-2v-27.7h27.7l1.4-3.4l-29.1-29.1v-27h27.7l1.4-0.6l26.4-26.4v25l3.4,1.4l28.3-28.3l28.3,28.3
        l29.7,29.7l1.4,0.6h28.9l29.1,29.1l3.4-1.4v-25l26.4,26.4l3.4-1.4v-25l26.4,26.4l29.7,29.7l29.1,29.1v27h-27.7l-1.4,3.4l29.1,29.1
        v28.9v29.7v27.7h-27l-28.5-28.5v-28.9l-3.4-1.4l-29.7,29.7L575.9-193v2.8l29.7,29.7l3.4-1.4v-25l26.4,26.4l3.4-1.4v-25l26.4,26.4
        l1.4,0.6h27.7v27.7l3.4,1.4l28.3-28.3l28.3,28.3L784-101l3.4-1.4v-25l26.4,26.4h2.8l26.4-26.4v25l0.6,1.4l29.7,29.7l3.4-1.4v-28.9
        l28.5-28.5h28.9l2-2v-25l25,25l-28.3,28.3l-29.7,29.7l-0.6,1.4v28.9l-28.5,28.5h-28.9l-1.4,3.4l29.7,29.7h2.8l29.7-29.7l26.4-26.4
        v25l3.4,1.4l29.7-29.7l-1.4-3.4H936v-27l28.5-28.5h27v27.7V-43l3.4,1.4l29.7-29.7v-2.8l-28.3-28.3l27.7-27.7h28.9l1.4-0.6
        l29.1-29.1h28.9l1.4-0.6l29.1-29.1h28.1l29.1,29.1l1.4,0.6h25l-26.4,26.4l-29.7,29.7l1.4,3.4h29.7l1.4-0.6l28.3-28.3l28.3,28.3h2.8
        l29.1-29.1h28.1l29.1,29.1h2.8l29.1-29.1h28.9l1.4-3.4l-26.4-26.4h25l1.4-0.6l29.1-29.1h28.9h29.7l2-2v-27.7h27.7h29.7l2-2v-28.9
        l29.1-29.1l-1.4-3.4h-25l26.4-26.4l0.6-1.4v-27.7h27.7l2-2V-368h27.7l1.4-0.6l29.7-29.7l26.4-26.4v25l2,2h27.7v25.8H1707l-2,2v29.7
        v29.7l2,2h28.9l28.5,28.5v28.9v29.7v29.7l2,2h25l-26.4,26.4l-0.6,1.4v29.7v29.7v29.7l2,2h28.9l25.8,25.8h-25l-1.4,3.4l29.1,29.1
        v28.9l2,2h25l-26.4,26.4v2.8l29.1,29.1v24.2l-26.4-26.4l-1.4-0.6H1797l-28.5-28.5V16.5l-0.6-1.4L1738.7-14V-43v-29.7v-29.7
        l-0.6-1.4l-29.7-29.7l-3.4,1.4v27.7h-27.7l-2,2v29.7V-43l0.6,1.4l28.3,28.3l-27.7,27.7h-28.9l-2,2v27.7h-27.7l-2,2V74h-27.7l-2,2
        v29.7v29.7v29.7v28.9l-29.1,29.1l1.4,3.4h29.7h29.7l2-2v-27.7h27l28.5,28.5v28.9v29.7l0.6,1.4l29.1,29.1v28.9v29.7v28.9l-29.1,29.1
        l-0.6,1.4v29.7v27.7h-27.7l-1.4,0.6l-29.7,29.7l-0.6,1.4v29.7v28.9l-29.1,29.1l1.4,3.4h28.9l29.1,29.1l28.3,28.3l-28.3,28.3
        l-26.4,26.4v-25l-0.6-1.4l-26.4-26.4h25l1.4-3.4l-29.7-29.7h-2.8l-26.4,26.4v-25v-29.7l-2-2h-29.7l-1.4,0.6l-26.4,26.4v-25
        l-3.4-1.4l-29.7,29.7l-29.7,29.7v2.8l29.7,29.7h2.8l29.1-29.1h27v25.8h-27.7l-2,2v28.9l-29.1,29.1l1.4,3.4h28.9l29.1,29.1
        l28.3,28.3l-28.3,28.3l1.4,3.4h27.7v25.8h-27.7h-29.7h-29.7h-29.7h-29.7H1380h-29.7h-29.7h-29.7h-29.7h-29.7h-29.7h-29.7h-29.7
        h-29.7h-29.7H1053h-29.7h-29.7h-29.7h-29.7h-29.7h-29.7h-29.7h-29.7h-29.7h-29.7h-29.7h-29.7h-29.7h-29.7H607h-29.7h-29.7h-29.7
        h-29.7h-29.7h-29.7h-28.9l-29.1-29.1l-29.7-29.7l-29.7-29.7l-29.7-29.7l-29.7-29.7l-28.3-28.3l28.3-28.3v-2.8l-29.7-29.7l-1.4-0.6
        h-28.9l-28.5-28.5v-28.9v-29.7v-29.7l-0.6-1.4l-29.7-29.7H130l-29.7,29.7l-0.6,1.4v29.7v29.7v29.7l2,2h25l-26.4,26.4v2.8l29.7,29.7
        l1.4,0.6h29.7h29.7h25l-26.4,26.4l-0.6,1.4V730v29.7l0.6,1.4l29.1,29.1v28.9v27.7h-27.7l-1.4,0.6l-29.1,29.1h-28.9h-29.7H71.9H42.2
        H12.4h-29.7H-47h-29.7h-29.7h-29.7H-164v-27.7v-29.7v-29.7v-29.7V730v-29.7v-28.9l29.1-29.1l0.6-1.4v-29.7v-29.7v-29.7v-29.7V493
        l29.1-29.1l0.6-1.4v-29.7v-28.9l29.1-29.1l0.6-1.4v-29.7v-28.9l29.1-29.1l-1.4-3.4h-29.7l-2,2v25l-26.4-26.4l-3.4,1.4V313
        l-29.1,29.1l-0.6,1.4v28.9l-25.8,25.8v-25v-29.7v-29.7v-29.7v-29.7v-29.7v-29.7v-29.7v-29.7v-29.7V75.9V46.2V16.5v-29.7V-43v-25
        l25.8,25.8v28.9v29.7v29.7v29.7l0.6,1.4l29.1,29.1v28.9v29.7l2,2h28.9l28.5,28.5v28.9l0.6,1.4l29.7,29.7h2.8l29.1-29.1h28.9
        l1.4-0.6l29.7-29.7l0.6-1.4v-29.7l-2-2H44.1v-27.7l-0.6-1.4l-29.1-29.1V75.9V46.2V17.3L43-11.3h27v27.7l2,2h27.7v27.7l0.6,1.4
        L130,77.3l29.1,29.1v28.9l0.6,1.4l29.1,29.1v28.9l2,2h29.7l1.4-0.6l29.7-29.7l0.6-1.4v-29.7l-0.6-1.4l-29.1-29.1v-27h27.7H280
        l1.4-3.4l-29.7-29.7l-29.1-29.1v-28.9l-2-2h-27.7V-43l-3.4-1.4l-29.1,29.1h-28.9h-29.7l-2,2v25L73.3-14.6L43.6-44.4L13.8-74.1
        l-3.4,1.4V-43v25l-26.4-26.4h-2.8L-45-18v-24.2l29.1-29.1l0.6-1.4v-28.9l28.5-28.5h28.9l2-2v-29.7v-28.9L73.3-220l0.6-1.4v-28.9
        l29.1-29.1l-1.4-3.4H71.9l-1.4,0.6l-29.7,29.7l-0.6,1.4v28.9L11-193l-0.6,1.4v28.9l-25.8,25.8v-25l-2-2h-25l26.4-26.4l0.6-1.4
        v-28.9l29.1-29.1l0.6-1.4V-280l29.1-29.1l29.7-29.7v-2.8l-29.1-29.1v-28.9v-29.7l-2-2H12.4h-27.7v-27.7l-0.6-1.4l-29.7-29.7
        l-1.4-0.6H-76l-28.5-28.5v-28.9l-0.6-1.4l-28.3-28.3l28.3-28.3l0.6-1.4v-27.7h27.7H-47h29.7h29.7H40.2 M1887.4-632.8l25.8,25.8
        v24.2l-25.8-25.8V-632.8 M396.9-632.8v23h-23L396.9-632.8 M368.4-605.9l28.5,28.5v24.2l-26.4-26.4l-3.4,1.4v27.7h-27.7h-29.7
        l-1.4,0.6l-29.1,29.1h-28.9l-2,2v27.7h-27l-28.5-28.5v-28.9v-29.7v-25l26.4,26.4h2.8l26.4-26.4v25l2,2H278v27.7l3.4,1.4l29.7-29.7
        l29.1-29.1H368.4 M-141-576.1l-23,23v-23H-141 M426.7-546.4v23l-23-23H426.7 M-164-543.6l25.8,25.8v28.9v29.7l0.6,1.4l29.1,29.1
        v28.9v29.7l0.6,1.4l28.3,28.3l-28.3,28.3v2.8l26.4,26.4h-25l-1.4,0.6l-29.1,29.1h-27v-27.7v-29.7v-29.7V-370v-29.7v-29.7v-29.7
        v-29.7v-29.7V-543.6 M876.6-484.2l25,25l-27.7,27.7h-28.9h-25l25.8-25.8h28.9l2-2V-484.2 M1976.6-454.4l25.8,25.8v24.2l-25.8-25.8
        V-454.4 M1853.7-454.4v23h-23L1853.7-454.4 M902.3-427.5v23l-23-23H902.3 M1794.2-424.7v23h-23L1794.2-424.7 M846.8-424.7l23,23
        h-23V-424.7 M-49-424.7v23h-23L-49-424.7 M1976.6-395l23,23h-23V-395 M1560.4-395l23,23h-23V-395 M311.7-395l23,23h-23V-395
         M959.8-365.2v23h-23L959.8-365.2 M37.4-338.3l-25,25l-25-25h25H37.4 M2006.3-335.5l25,25l-25,25v-25V-335.5 M989.6-335.5v23h-23
        L989.6-335.5 M-19.3-335.5v24.2L-45-285.6v-24.2L-19.3-335.5 M2029.3-278.8l-23,23v-23H2029.3 M423.9-278.8l-23,23v-23H423.9
         M1112.4-278l27.7,27.7v27h-25.8v-27.7l-2-2h-25L1112.4-278 M1405-249.1l-23,23v-23H1405 M933.3-249.1l25.8,25.8h-25h-29.7
        l-1.4,0.6l-29.1,29.1h-28.9l-2,2v28.9l-25.8,25.8v-25v-28.9l28.5-28.5h28.9l1.4-0.6l29.1-29.1H933.3 M1352.3-246.3l25,25l-27,27
        l-25-25h25l2-2V-246.3 M1167.1-219.4l-23,23v-23H1167.1 M-74.8-216.6l25.8,25.8v27h-25.8v-27.7V-216.6 M1405-189.6l-23,23v-23H1405
         M757.7-186.9l23,23h-23V-186.9 M724-186.9v23h-23L724-186.9 M1969.8-159.9l-23,23v-23H1969.8 M-49-8.5v25v25l-25-25L-49-8.5
         M218.6,21.2v25v25l-25-25L218.6,21.2 M-15.3,51l23,23h-23V51 M1853.7,107.7v23l-23-23H1853.7 M14.4,169.9l23,23h-23V169.9
         M1679.3,199.6l26.4,26.4l29.7,29.7l1.4,0.6h25l-26.4,26.4v2.8l28.3,28.3l-25,25v-25l-0.6-1.4l-29.1-29.1v-28.9l-0.6-1.4
        l-29.1-29.1V199.6 M1850.9,345.5l-26.4,26.4l-0.6,1.4v28.9l-29.1,29.1l-26.4,26.4v-25V403v-29.7v-25l26.4,26.4h2.8l29.1-29.1
        L1850.9,345.5 M-164,407.7l25,25l-25,25v-25V407.7 M1798.2,437.5l25.8,25.8v28.9v29.7l0.6,1.4l29.1,29.1v28.1l-29.1,29.1
        l-29.7,29.7l-0.6,1.4v25l-26.4-26.4h-2.8l-29.7,29.7l-26.4,26.4v-24.2l29.1-29.1l29.7-29.7l0.6-1.4v-27.7h27.7l2-2v-29.7v-29.7
        v-29.7v-29.7V437.5 M1761.7,672.5l-23,23v-23H1761.7 M1707,703l27,27l-25,25v-25l-2-2h-25L1707,703 M1885.4-637.6v29.7l29.7,29.7
        v-29.7L1885.4-637.6L1885.4-637.6z M1855.7-637.6h-29.7h-29.7h-29.7h-29.7H1707h-29.7h-29.7h-29.7h-29.7v29.7v29.7v29.7v29.7
        l29.7,29.7h29.7v29.7l29.7-29.7l29.7-29.7v29.7v29.7l29.7,29.7v-29.7v-29.7l29.7-29.7v29.7l29.7,29.7h29.7l29.7-29.7l29.7-29.7
        v-29.7h29.7l29.7,29.7v29.7l29.7,29.7v-29.7v-29.7l-29.7-29.7l-29.7-29.7h-29.7v-29.7h-29.7V-637.6L1855.7-637.6z M398.9-637.6
        l-29.7,29.7h29.7V-637.6L398.9-637.6z M339.5-637.6h-29.7H280h-29.7v29.7H280h29.7L339.5-637.6L339.5-637.6z M42.2-637.6H12.4
        h-29.7H-47h-29.7h-29.7v29.7l-29.7,29.7l29.7,29.7v29.7l29.7,29.7H-47l29.7,29.7v29.7h29.7h29.7v29.7v29.7l29.7,29.7l-29.7,29.7
        l-29.7,29.7v29.7l-29.7,29.7v29.7L-47-161.9h29.7v29.7l29.7-29.7v-29.7l29.7-29.7v-29.7l29.7-29.7h29.7l-29.7,29.7v29.7l-29.7,29.7
        v29.7v29.7H12.4l-29.7,29.7v29.7L-47-43v29.7L-17.3-43l29.7,29.7V-43v-29.7L42.2-43l29.7,29.7l29.7,29.7v-29.7h29.7h29.7L190.8-43
        v29.7h29.7v29.7l29.7,29.7L280,75.9h-29.7h-29.7v29.7l29.7,29.7v29.7l-29.7,29.7h-29.7v-29.7l-29.7-29.7v-29.7l-29.7-29.7
        l-29.7-29.7V16.5H71.9v-29.7H42.2L12.4,16.5v29.7v29.7v29.7l29.7,29.7v29.7h29.7v29.7l-29.7,29.7H12.4l-29.7,29.7L-47,224.6v-29.7
        l-29.7-29.7h-29.7v-29.7v-29.7l-29.7-29.7V46.2V16.5v-29.7V-43l-29.7-29.7V-43v29.7v29.7v29.7v29.7v29.7v29.7v29.7v29.7v29.7v29.7
        v29.7v29.7v29.7v29.7V403l29.7-29.7v-29.7l29.7-29.7v-29.7l29.7,29.7v-29.7H-47l-29.7,29.7v29.7v29.7l-29.7,29.7v29.7v29.7
        l-29.7,29.7v29.7v29.7v29.7v29.7v29.7l-29.7,29.7v29.7V730v29.7v29.7v29.7v29.7v29.7h29.7h29.7h29.7H-47h29.7h29.7h29.7h29.7h29.7
        h29.7h29.7l29.7-29.7h29.7v-29.7v-29.7l-29.7-29.7V730v-29.7l29.7-29.7h-29.7h-29.7h-29.7l-29.7-29.7l29.7-29.7h-29.7v-29.7v-29.7
        v-29.7l29.7-29.7l29.7,29.7v29.7v29.7v29.7l29.7,29.7h29.7l29.7,29.7l-29.7,29.7l29.7,29.7l29.7,29.7l29.7,29.7l29.7,29.7
        l29.7,29.7l29.7,29.7h29.7h29.7h29.7h29.7h29.7h29.7H607h29.7h29.7h29.7h29.7h29.7h29.7h29.7h29.7h29.7h29.7h29.7h29.7h29.7h29.7
        h29.7h29.7h29.7h29.7h29.7h29.7h29.7h29.7h29.7h29.7h29.7h29.7h29.7h29.7h29.7h29.7h29.7h29.7v-29.7h-29.7l29.7-29.7l-29.7-29.7
        l-29.7-29.7h-29.7l29.7-29.7v-29.7h29.7v-29.7h-29.7l-29.7,29.7l-29.7-29.7l29.7-29.7l29.7-29.7v29.7l29.7-29.7h29.7v29.7v29.7
        l29.7-29.7l29.7,29.7h-29.7l29.7,29.7V730l29.7-29.7l29.7-29.7l-29.7-29.7l-29.7-29.7h-29.7l29.7-29.7v-29.7v-29.7l29.7-29.7h29.7
        v-29.7v-29.7L1707,403v-29.7v-29.7v-29.7l-29.7-29.7v-29.7v-29.7l-29.7-29.7h-29.7v29.7h-29.7h-29.7l29.7-29.7v-29.7v-29.7v-29.7
        V75.9h29.7V46.2h29.7V16.5h29.7l29.7-29.7L1677.3-43v-29.7v-29.7h29.7v-29.7l29.7,29.7v29.7V-43v29.7l29.7,29.7v29.7l29.7,29.7
        h29.7l29.7,29.7V75.9l-29.7-29.7l29.7-29.7h-29.7v-29.7L1796.2-43h29.7l-29.7-29.7h-29.7v-29.7v-29.7v-29.7l29.7-29.7h-29.7v-29.7
        v-29.7v-29.7l-29.7-29.7H1707v-29.7V-370h29.7v-29.7H1707v-29.7l-29.7,29.7l-29.7,29.7h-29.7v29.7h-29.7v29.7l-29.7,29.7h29.7
        l-29.7,29.7v29.7h-29.7h-29.7v29.7h-29.7h-29.7l-29.7,29.7H1380l29.7,29.7H1380l-29.7,29.7l-29.7-29.7h-29.7l-29.7,29.7l-29.7-29.7
        l-29.7,29.7h-29.7l29.7-29.7l29.7-29.7h-29.7l-29.7-29.7h-29.7l-29.7,29.7h-29.7l-29.7,29.7h-29.7l-29.7,29.7l29.7,29.7L993.5-43
        v-29.7v-29.7h-29.7l-29.7,29.7V-43h29.7l-29.7,29.7V-43l-29.7,29.7l-29.7,29.7l-29.7-29.7h29.7L904.3-43v-29.7l29.7-29.7l29.7-29.7
        l-29.7-29.7v29.7h-29.7l-29.7,29.7v29.7l-29.7-29.7v-29.7l-29.7,29.7l-29.7-29.7v29.7l-29.7-29.7l-29.7-29.7l-29.7,29.7v-29.7
        h-29.7l-29.7-29.7v29.7L607-191.6v29.7l-29.7-29.7l29.7-29.7l29.7-29.7v29.7l29.7,29.7h29.7v-29.7v-29.7v-29.7l-29.7-29.7h29.7
        v-29.7L666.5-370l-29.7-29.7L607-429.5v29.7l-29.7-29.7v29.7l-29.7-29.7h-29.7l-29.7-29.7l-29.7-29.7l-29.7,29.7v-29.7l-29.7,29.7
        h-29.7v29.7l29.7,29.7h-29.7v29.7h-29.7l-29.7,29.7h29.7v29.7h29.7l29.7-29.7v29.7h29.7l29.7-29.7h29.7h29.7h29.7l29.7,29.7v29.7
        l-29.7-29.7h-29.7h-29.7l-29.7,29.7v29.7l29.7,29.7l29.7-29.7v29.7v29.7l-29.7,29.7v-29.7l29.7-29.7h-29.7l-29.7,29.7v-29.7
        l-29.7,29.7v-29.7h29.7l-29.7-29.7l-29.7,29.7h-29.7l29.7-29.7l-29.7-29.7l-29.7,29.7l-29.7-29.7v-29.7L280-340.3h29.7L280-370
        l29.7-29.7h29.7h29.7l-29.7-29.7h-29.7L280-399.7l-29.7-29.7H280l-29.7-29.7h-29.7l-29.7-29.7l-29.7-29.7v-29.7v-29.7l-29.7,29.7
        l-29.7,29.7H71.9H42.2v-29.7v-29.7v-29.7V-637.6L42.2-637.6z M369.2-607.8h-29.7l-29.7,29.7L280-548.4v-29.7h-29.7v-29.7
        l-29.7,29.7l-29.7-29.7v29.7v29.7v29.7l29.7,29.7h29.7v-29.7H280l29.7-29.7h29.7h29.7v-29.7l29.7,29.7v-29.7L369.2-607.8
        L369.2-607.8z M-136.2-578.1h-29.7v29.7L-136.2-578.1L-136.2-578.1z M428.7-548.4h-29.7l29.7,29.7V-548.4L428.7-548.4z
         M-165.9-548.4v29.7v29.7v29.7v29.7v29.7v29.7v29.7v29.7v29.7v29.7h29.7l29.7-29.7h29.7l-29.7-29.7l29.7-29.7l-29.7-29.7v-29.7
        v-29.7l-29.7-29.7v-29.7v-29.7L-165.9-548.4L-165.9-548.4z M874.6-488.9v29.7h-29.7l-29.7,29.7h29.7h29.7l29.7-29.7L874.6-488.9
        L874.6-488.9z M1974.6-459.2v29.7l29.7,29.7v-29.7L1974.6-459.2L1974.6-459.2z M1855.7-459.2l-29.7,29.7h29.7V-459.2L1855.7-459.2z
         M1796.2-429.5l-29.7,29.7h29.7V-429.5L1796.2-429.5z M904.3-429.5h-29.7l29.7,29.7V-429.5L904.3-429.5z M844.9-429.5v29.7h29.7
        L844.9-429.5L844.9-429.5z M-47-429.5l-29.7,29.7H-47V-429.5L-47-429.5z M1974.6-399.7v29.7h29.7L1974.6-399.7L1974.6-399.7z
         M1558.4-399.7v29.7h29.7L1558.4-399.7L1558.4-399.7z M309.7-399.7v29.7h29.7L309.7-399.7L309.7-399.7z M961.8-370l-29.7,29.7h29.7
        V-370L961.8-370z M2004.3-340.3v29.7v29.7l29.7-29.7L2004.3-340.3L2004.3-340.3z M991.5-340.3l-29.7,29.7h29.7V-340.3L991.5-340.3z
         M42.2-340.3H12.4h-29.7l29.7,29.7L42.2-340.3L42.2-340.3z M-17.3-340.3L-47-310.5v29.7l29.7-29.7V-340.3L-17.3-340.3z
         M2034.1-280.8h-29.7v29.7L2034.1-280.8L2034.1-280.8z M1112.4-280.8l-29.7,29.7h29.7v29.7h29.7v-29.7L1112.4-280.8L1112.4-280.8z
         M428.7-280.8h-29.7v29.7L428.7-280.8L428.7-280.8z M1409.7-251.1H1380v29.7L1409.7-251.1L1409.7-251.1z M1350.3-251.1v29.7h-29.7
        l29.7,29.7l29.7-29.7L1350.3-251.1L1350.3-251.1z M934.1-251.1h-29.7l-29.7,29.7h-29.7l-29.7,29.7v29.7v29.7l29.7-29.7v-29.7h29.7
        l29.7-29.7h29.7h29.7L934.1-251.1L934.1-251.1z M1171.9-221.3h-29.7v29.7L1171.9-221.3L1171.9-221.3z M-76.8-221.3v29.7v29.7H-47
        v-29.7L-76.8-221.3L-76.8-221.3z M1409.7-191.6H1380v29.7L1409.7-191.6L1409.7-191.6z M755.7-191.6v29.7h29.7L755.7-191.6
        L755.7-191.6z M725.9-191.6l-29.7,29.7h29.7V-191.6L725.9-191.6z M1974.6-161.9h-29.7v29.7L1974.6-161.9L1974.6-161.9z M-47-13.2
        l-29.7,29.7L-47,46.2V16.5V-13.2L-47-13.2z M220.5,16.5l-29.7,29.7l29.7,29.7V46.2V16.5L220.5,16.5z M-17.3,46.2v29.7h29.7
        L-17.3,46.2L-17.3,46.2z M1855.7,105.7h-29.7l29.7,29.7V105.7L1855.7,105.7z M12.4,165.1v29.7h29.7L12.4,165.1L12.4,165.1z
         M1677.3,194.9v29.7l29.7,29.7v29.7l29.7,29.7v29.7l29.7-29.7l-29.7-29.7l29.7-29.7h-29.7l-29.7-29.7L1677.3,194.9L1677.3,194.9z
         M1855.7,343.5h-29.7l-29.7,29.7l-29.7-29.7v29.7V403v29.7v29.7l29.7-29.7l29.7-29.7v-29.7L1855.7,343.5L1855.7,343.5z M-165.9,403
        v29.7v29.7l29.7-29.7L-165.9,403L-165.9,403z M1796.2,432.7v29.7v29.7v29.7v29.7v29.7h-29.7v29.7l-29.7,29.7l-29.7,29.7v29.7
        l29.7-29.7l29.7-29.7l29.7,29.7v-29.7l29.7-29.7l29.7-29.7v-29.7l-29.7-29.7v-29.7v-29.7L1796.2,432.7L1796.2,432.7z M1766.5,670.5
        h-29.7v29.7L1766.5,670.5L1766.5,670.5z M1707,700.3l-29.7,29.7h29.7v29.7l29.7-29.7L1707,700.3L1707,700.3z"/>
    <path id="world" style="fill:#F5F1F1;" d="M309.7-370v-29.7l29.7,29.7H309.7z M1796.2-429.5l-29.7,29.7h29.7V-429.5z M1558.4-399.7
        v29.7l29.7-29.7H1558.4z M339.5-370l-29.7,29.7h29.7v29.7h29.7l29.7-29.7v29.7h29.7l29.7-29.7h29.7h29.7h29.7l29.7,29.7H607
        l29.7-29.7V-370h29.7l-29.7-29.7L607-429.5v29.7l-29.7-29.7v29.7l-29.7-29.7h-29.7l-29.7-29.7l-29.7-29.7l-29.7,29.7v-29.7
        l-29.7,29.7h-29.7v29.7l29.7,29.7h-29.7v29.7H339.5z M42.2-340.3H12.4h-29.7l29.7,29.7L42.2-340.3z M666.5-310.5v-29.7l29.7,29.7
        v-29.7L666.5-370l-29.7,29.7L666.5-310.5z M1825.9,373.2l29.7-29.7h-29.7l-29.7,29.7l-29.7-29.7v29.7V403v29.7v29.7l29.7-29.7
        l29.7-29.7V373.2z M101.6-13.2h29.7h29.7L190.8-43h-29.7l29.7-29.7l29.7-29.7v-29.7h29.7v-29.7v-29.7l-29.7-29.7l29.7-29.7v-29.7
        l29.7,29.7l29.7,29.7h29.7v-29.7l-29.7-29.7v-29.7L280-340.3h29.7L280-370l29.7-29.7h29.7h29.7l-29.7-29.7h-29.7L280-399.7
        l-29.7-29.7H280l-29.7-29.7h-29.7l-29.7-29.7l-29.7-29.7v-29.7v-29.7l-29.7,29.7l-29.7,29.7H71.9H42.2v-29.7v-29.7v-29.7v-29.7
        H12.4h-29.7H-47h-29.7h-29.7v29.7l-29.7,29.7l29.7,29.7v29.7l29.7,29.7H-47l29.7,29.7v29.7h29.7h29.7v29.7v29.7l29.7,29.7
        l-29.7,29.7l-29.7,29.7v29.7l-29.7,29.7v29.7L-47-161.9h29.7v29.7l29.7-29.7v-29.7l29.7-29.7v-29.7l29.7-29.7h29.7l-29.7,29.7v29.7
        l-29.7,29.7v29.7v29.7H12.4l-29.7,29.7v29.7L-47-43v29.7L-17.3-43l29.7,29.7V-43v-29.7L42.2-43l29.7,29.7l29.7,29.7V-13.2z
         M12.4,165.1v29.7h29.7L12.4,165.1z M1796.2,492.2v29.7v29.7v29.7h-29.7v29.7l-29.7,29.7l-29.7,29.7v29.7l29.7-29.7l29.7-29.7
        l29.7,29.7v-29.7l29.7-29.7l29.7-29.7v-29.7l-29.7-29.7v-29.7v-29.7l-29.7-29.7v29.7V492.2z M1766.5,670.5h-29.7v29.7L1766.5,670.5
        z M1707,730v29.7l29.7-29.7l-29.7-29.7l-29.7,29.7H1707z M-17.3,75.9h29.7l-29.7-29.7V75.9z M-47-280.8l29.7-29.7v-29.7L-47-310.5
        V-280.8z M-47-399.7v-29.7l-29.7,29.7H-47z M-76.8-221.3v29.7v29.7H-47v-29.7L-76.8-221.3z M-47,46.2V16.5v-29.7l-29.7,29.7
        L-47,46.2z M-165.9-488.9v29.7v29.7v29.7v29.7v29.7v29.7v29.7v29.7h29.7l29.7-29.7h29.7l-29.7-29.7l29.7-29.7l-29.7-29.7v-29.7
        v-29.7l-29.7-29.7v-29.7v-29.7l-29.7-29.7v29.7V-488.9z M-165.9-548.4l29.7-29.7h-29.7V-548.4z M1855.7-429.5v-29.7l-29.7,29.7
        H1855.7z M1915.1-607.8l-29.7-29.7v29.7l29.7,29.7V-607.8z M428.7-548.4h-29.7l29.7,29.7V-548.4z M398.9-637.6l-29.7,29.7h29.7
        V-637.6z M309.7-607.8l29.7-29.7h-29.7H280h-29.7v29.7H280H309.7z M250.3-488.9v-29.7H280l29.7-29.7h29.7h29.7v-29.7l29.7,29.7
        v-29.7l-29.7-29.7h-29.7l-29.7,29.7L280-548.4v-29.7h-29.7v-29.7l-29.7,29.7l-29.7-29.7v29.7v29.7v29.7l29.7,29.7H250.3z
         M-165.9,462.4l29.7-29.7l-29.7-29.7v29.7V462.4z M1944.9-488.9l29.7,29.7v-29.7v-29.7l-29.7-29.7l-29.7-29.7h-29.7v-29.7h-29.7
        v-29.7h-29.7h-29.7h-29.7h-29.7H1707h-29.7h-29.7h-29.7h-29.7v29.7v29.7v29.7v29.7l29.7,29.7h29.7v29.7l29.7-29.7l29.7-29.7v29.7
        v29.7l29.7,29.7v-29.7v-29.7l29.7-29.7v29.7l29.7,29.7h29.7l29.7-29.7l29.7-29.7v-29.7h29.7l29.7,29.7V-488.9z M1944.9-132.2
        l29.7-29.7h-29.7V-132.2z M1974.6-399.7v29.7h29.7L1974.6-399.7z M2004.3-399.7v-29.7l-29.7-29.7v29.7L2004.3-399.7z M2004.3-251.1
        l29.7-29.7h-29.7V-251.1z M2004.3-340.3v29.7v29.7l29.7-29.7L2004.3-340.3z M1647.6,640.8l-29.7-29.7h-29.7l29.7-29.7v-29.7v-29.7
        l29.7-29.7l-29.7-29.7v-29.7l29.7,29.7v-29.7V403v-29.7l-29.7-29.7v29.7l-29.7,29.7l-29.7-29.7h-29.7l-29.7-29.7l-29.7-29.7h-29.7
        h-29.7v29.7v29.7V403l-29.7,29.7h-29.7V403l-29.7,29.7l-29.7,29.7h-29.7l-29.7-29.7h-29.7h-29.7l-29.7-29.7l-29.7,29.7h-29.7
        L1053,403h-29.7v29.7h-29.7l29.7-29.7h-29.7h-29.7v29.7h-29.7l-29.7,29.7l-29.7,29.7l-29.7-29.7v29.7l-29.7,29.7v-29.7l-29.7,29.7
        v29.7l-29.7,29.7h-29.7h-29.7l-29.7-29.7v29.7h-29.7l29.7,29.7l-29.7,29.7L607,611.1v-29.7h-29.7h-29.7h-29.7l-29.7-29.7
        l-29.7,29.7l-29.7-29.7v29.7l-29.7-29.7l29.7-29.7h-29.7v-29.7l-29.7-29.7l-29.7-29.7h-29.7H280L250.3,403v-29.7v-29.7l29.7-29.7
        h-29.7h-29.7v-29.7v-29.7v-29.7v-29.7h-29.7v-29.7l-29.7-29.7v-29.7l-29.7-29.7l-29.7-29.7V16.5H71.9v-29.7H42.2L12.4,16.5v29.7
        v29.7v29.7l29.7,29.7v29.7h29.7v29.7l-29.7,29.7H12.4l-29.7,29.7L-47,224.6v-29.7l-29.7-29.7h-29.7v-29.7v-29.7l-29.7-29.7V46.2
        V16.5v-29.7V-43l-29.7-29.7V-43v29.7v29.7v29.7v29.7v29.7v29.7v29.7v29.7v29.7v29.7v29.7v29.7v29.7v29.7V403l29.7-29.7v-29.7
        l29.7-29.7v-29.7l29.7,29.7v-29.7H-47l-29.7,29.7v29.7v29.7l-29.7,29.7v29.7v29.7l-29.7,29.7v29.7v29.7v29.7v29.7v29.7l-29.7,29.7
        v29.7V730v29.7v29.7v29.7v29.7v29.7h29.7h29.7h29.7H-47h29.7h29.7h29.7h29.7h29.7h29.7h29.7l29.7-29.7h29.7v-29.7v-29.7l-29.7-29.7
        V730v-29.7l29.7-29.7h-29.7h-29.7h-29.7l-29.7-29.7l29.7-29.7l-29.7-29.7v-29.7v-29.7l29.7-29.7l29.7,29.7v29.7v29.7v29.7
        l29.7,29.7h29.7l29.7,29.7l-29.7,29.7l29.7,29.7l29.7,29.7l29.7,29.7l29.7,29.7l29.7,29.7l29.7,29.7h29.7h29.7h29.7h29.7h29.7h29.7
        H607h29.7h29.7h29.7h29.7h29.7h29.7h29.7h29.7h29.7h29.7h29.7h29.7h29.7h29.7h29.7h29.7h29.7h29.7h29.7h29.7h29.7h29.7h29.7h29.7
        h29.7h29.7h29.7h29.7h29.7h29.7h29.7h29.7v-29.7h-29.7l29.7-29.7l-29.7-29.7l-29.7-29.7h-29.7l29.7-29.7v-29.7h29.7v-29.7h-29.7
        l-29.7,29.7l-29.7-29.7l29.7-29.7l29.7-29.7v29.7l29.7-29.7h29.7v29.7v29.7l29.7-29.7l29.7,29.7h-29.7l29.7,29.7V730l29.7-29.7
        l29.7-29.7L1647.6,640.8z M1677.3,194.9v29.7h30.1L1677.3,194.9z M1707,254.3L1707,254.3v29.7l29.7,29.7v29.7l29.7-29.7l-29.7-29.7
        l29.7-29.7h-29.7l-29.5-29.7h-29.7L1707,254.3z"/>
    <path id="russia" style="fill:#CCCBCB;" d="M1736.8-399.7H1707l29.7,29.7V-399.7z M398.9-280.8v29.7l29.7-29.7H398.9z M607-280.8
        l-29.7,29.7 M874.6-221.3h-29.7l-29.7,29.7v29.7l29.7-29.7L874.6-221.3z M815.1-161.9v29.7l29.7-29.7H815.1z M755.7-191.6v29.7
        h29.7L755.7-191.6z M220.5,16.5l-29.7,29.7l29.7,29.7V46.2V16.5z M934.3-42.8l29.5-0.2l-29.7,29.7L934.3-42.8l-59.7,59.3
        l-29.7-29.7h29.7v0.2L904.1-43h0.2v-29.5v-0.2l29.5-29.7h0.2l29.7-29.7h-29.7h-29.7l0,0l-29.7,29.7l0,0v29.7l-29.7-29.7v-29.7
        l-29.7,29.7l-29.7-29.7v29.7l-29.7-29.7l-29.7-29.7v-29.7l-29.7,29.7h-29.7l-29.7-29.7v29.7L607-191.6v29.7l0,0l0,0l-29.7-29.7
        l29.7-29.7l0,0l0,0l29.7-29.7v29.7l29.7,29.7h29.7v-29.7v-29.7v-29.7l-29.7-29.7l-29.7,29.7H607l-29.7,29.7l0,0l-29.7,29.7v29.7
        v29.7l-29.7,29.7v-29.7l29.7-29.7h-29.7l-29.7,29.7v-29.7v-29.7l-29.7,29.7v-29.7l-29.7,29.7v-29.7h29.7l-29.7-29.7l-29.7,29.7
        h-29.7l29.7-29.7l-29.7-29.7l-29.7,29.7v29.7l0,0h-29.7l0,0L280-251.1l-29.7-29.7v29.7l-29.7,29.7l29.7,29.7v29.7v29.7l-29.7,29.7
        v0.6L161.1-43h29.7v29.7h29.7v29.7l29.7,29.7L280,75.9h-29.7h-29.7v29.7l29.7,29.7v29.7l-29.7,29.7v29.7v29.7v29.7v29.7h29.7H280
        l-29.7,29.7H280l29.7-29.7v-29.7v-29.7l29.7-29.7l29.7-29.7l29.7,29.7h29.7v29.7l-29.7,29.7v-29.7h-29.7v29.7v29.7l-29.7,29.7h29.7
        v29.7l-29.7-29.7v29.7V403l-29.7,29.7h29.7l29.7,29.7l29.7,29.7v29.7h29.7l-29.7,29.7l29.7,29.7v-29.7l29.7,29.7l29.7-29.7v-29.7
        l-29.7-29.7v-29.7v-29.7L428.7,403h-29.7l29.7-29.7l0,0h29.7v-29.7l29.7-29.7h29.7l0,0l0,0l29.7,29.7l0,0l0,0h-29.7v29.7h-29.7
        L458.4,403l29.7,29.7v29.7h29.7l0,0l29.7,29.7l-29.7,29.7l29.7,29.7h29.7H607v29.7v29.7l29.7,29.7l29.7-29.7l-29.7-29.7h29.7v-29.7
        l29.7,29.7h29.7h29.7l29.7-29.7v-29.7l29.7-29.7v29.7l29.7-29.7v-29.7l29.7,29.7l29.7-29.7l29.7-29.7h29.7V403l29.7-29.7l29.7,29.7
        v-29.7h29.7l29.7-29.7l29.7,29.7V403h29.7l0,0l0,0l29.7,29.7l0,0h29.7l0,0h29.7l29.7,29.7h29.7l29.7-29.7l29.7-29.7v29.7h29.7
        l29.7-29.7v-29.7v-29.7v-29.7h29.7h29.7l29.7,29.7l29.7,29.7h29.7l29.7,29.7l29.7-29.7v-29.7l29.7,29.7V403v29.7v29.7l-29.7-29.7
        v29.7l29.7,29.7h29.7v-29.7v-29.7L1707,403v-29.7v-29.7v-29.7l-29.7-29.7v-29.7v-29.7l-29.7-29.7h-29.7v29.7h-29.7h-29.7l29.7-29.7
        v-29.7v-29.7v-29.7V75.9h29.7V46.2h29.7V16.5h29.7l29.7-29.7L1677.3-43v-29.7v-29.7h29.7v-29.7l29.7,29.7v29.7V-43v29.7l29.7,29.7
        v29.7l29.7,29.7h29.7l29.7,29.7V75.9l-29.7-29.7l29.7-29.7h-29.7v-29.7L1796.2-43h29.7l-29.7-29.7h-29.7v-29.7v-29.7v-29.7
        l29.7-29.7h-29.7v-29.7v-29.7v-29.7l-29.7-29.7H1707h-29.7v29.7l-29.7,29.7l29.7,29.7l-29.7,29.7v-29.7l-29.7,29.7h-29.7v-29.7
        l-29.7-29.7v29.7h-29.7v-29.7l-29.7,29.7v29.7h-29.7h-29.7l-29.7,29.7H1380l29.7,29.7H1380l-29.7,29.7l-29.7-29.7h-29.7l-29.7,29.7
        l-29.7-29.7l-29.7,29.7h-29.7l29.7-29.7h-29.7l-29.7,29.7l-29.7,29.7v-29.7h-29.7l-29.7-29.7h-29.7l-29.7,29.7l29.7,29.7L993.5-43
        v-29.7v-29.7h-29.7l-29.7,29.7L934.3-42.8z M725.9,432.7h29.7l29.7,29.7h-29.7L725.9,432.7z M547.6,492.2L547.6,492.2 M725.9,551.6
        v-29.7l0,0l29.7,29.7H725.9z M1171.9,403L1171.9,403l29.7-29.7l29.7-29.7l29.7-29.7v29.7l-29.7,29.7l-29.7,29.7l0,0H1171.9z
         M1855.7,135.4v-29.7h-29.7L1855.7,135.4z"/>
</g>
</svg>