<?xml version="1.0" encoding="utf-8"?>
<!-- Generator: Adobe Illustrator 21.0.0, SVG Export Plug-In . SVG Version: 6.00 Build 0)  -->
<svg version="1.1" id="Layer_1" xmlns="http://www.w3.org/2000/svg" xmlns:xlink="http://www.w3.org/1999/xlink" x="0px" y="0px"
	 viewBox="0 0 580 360" style="enable-background:new 0 0 580 360;" xml:space="preserve">
<g id="Background">
	<rect x="-392" y="-666.6" style="fill:#FFFFFF;" width="1600" height="1103.2"/>
	<path id="continents_2_" style="fill:#F5F1F1;" d="M1076.8-664.9v20.2l1.4,1.4h20.2v20.2l1.4,1.4h21l21.2,21.2l21.2,21.2v21v18.1
		l-18.7-18.7v-21l-0.4-1l-21.6-21.6l-1-0.4h-21.6l-1.4,1.4v21l-21.2,21.2l-21.2,21.2h-20.4l-20.8-20.8v-21l-2.5-1l-21.6,21.6l-0.4,1
		v21.6v18.1l-18.7-18.7v-21v-21.6l-2.5-1l-21.6,21.6l-19.2,19.2v-18.1l-1.4-1.4h-21l-20.8-20.8v-21V-623v-21.6v-20.2h20.2H927h21.6
		h21.6h21.6h21.6h21.6h21.6h20.2 M-27.9-664.9l-18.7,18.7h-21h-20.2v-18.7h20.2H-46H-27.9 M-242.1-664.9v20.2v21.6v21.6v21.6
		l1.4,1.4h21.6h21.6l1-0.4l21.6-21.6l19.2-19.2v18.1v21.6l0.4,1l21.6,21.6l21.6,21.6l1,0.4h21l18.7,18.7h-18.1l-1,2.5l21.6,21.6h2
		l21.2-21.2H-25l18.7,18.7h-18.1H-46l-1,0.4l-21.6,21.6v2l19.2,19.2h-18.1l-1,2.5l21.2,21.2v21l0.4,1l21.6,21.6h2l20.6-20.6
		l19.6,19.6L-3.7-365l1,2.5h21.6l1-0.4l20.6-20.6l18.1,18.1H40.4L39-364v21.6l2.5,1l19.2-19.2v18.1l2.5,1l21.2-21.2h17.5L82.7-343
		l-0.4,1v21.6l2.5,1l21.6-21.6l0.4-1v-21.6v-21.6l-2.5-1l-20.6,20.6l-20.2-20.2v-20.4L84.3-427h21h21l21.2,21.2l2.5-1v-21.6l-0.4-1
		L128-451l-1-0.4h-21.6H83.7H62l-1,0.4l-21.2,21H20.2v-20.2l-2.5-1L-3.4-430H-23v-20.2l-1.4-1.4h-18.1l18.7-18.7h21l1.4-1.4v-20.2
		h20.2l1-2.5l-21.2-21.2v-19.6h20.2l1-0.4L39-554.8v18.1l2.5,1L62-556.2l20.6,20.6l21.6,21.6l1,0.4h21l21.2,21.2l2.5-1v-18.1
		l19.2,19.2l2.5-1v-18.1l19.2,19.2l21.6,21.6l21.2,21.2v19.6h-20.2l-1,2.5l21.2,21.2v21v21.6v20.2H214l-20.8-20.8v-21l-2.5-1
		l-21.6,21.6L147.5-343v2l21.6,21.6l2.5-1v-18.1l19.2,19.2l2.5-1v-18.1l19.2,19.2l1,0.4h20.2v20.2l2.5,1l20.6-20.6l20.6,20.6
		L299-276l2.5-1v-18.1l19.2,19.2h2l19.2-19.2v18.1l0.4,1l21.6,21.6l2.5-1v-21l20.8-20.8h21l1.4-1.4v-18.1l18.1,18.1L407-278.2
		l-21.6,21.6l-0.4,1v21l-20.8,20.8h-21l-1,2.5l21.6,21.6h2l21.6-21.6l19.2-19.2v18.1l2.5,1l21.6-21.6l-1-2.5h-20.2v-19.6l20.8-20.8
		h19.6v20.2v21.6l2.5,1l21.6-21.6v-2l-20.6-20.6l20.2-20.2h21l1-0.4l21.2-21.2h21l1-0.4l21.2-21.2h20.4l21.2,21.2l1,0.4h18.1
		l-19.2,19.2l-21.6,21.6l1,2.5h21.6l1-0.4l20.6-20.6l20.6,20.6h2l21.2-21.2h20.4l21.2,21.2h2l21.2-21.2h21l1-2.5L735.8-319h18.1
		l1-0.4l21.2-21.2h21h21.6l1.4-1.4v-20.2h20.2H862l1.4-1.4v-21l21.2-21.2l-1-2.5h-18.1l19.2-19.2l0.4-1v-20.2h20.2l1.4-1.4v-20.2
		h20.2l1-0.4l21.6-21.6l19.2-19.2v18.1l1.4,1.4h20.2v18.7h-20.2l-1.4,1.4v21.6v21.6l1.4,1.4h21l20.8,20.8v21v21.6v21.6l1.4,1.4h18.1
		l-19.2,19.2l-0.4,1v21.6v21.6v21.6l1.4,1.4h21l18.7,18.7H1035l-1,2.5l21.2,21.2v21l1.4,1.4h18.1l-19.2,19.2v2l21.2,21.2v17.5
		l-19.2-19.2l-1-0.4h-21l-20.8-20.8v-21l-0.4-1l-21.2-21.2v-21V-256v-21.6l-0.4-1l-21.6-21.6l-2.5,1v20.2h-20.2l-1.4,1.4v21.6v21.6
		l0.4,1l20.6,20.6l-20.2,20.2h-21l-1.4,1.4v20.2h-20.2l-1.4,1.4v20.2h-20.2l-1.4,1.4v21.6v21.6v21.6v21L861-40.3l1,2.5h21.6h21.6
		l1.4-1.4v-20.2h19.6L947-38.6v21V3.9l0.4,1l21.2,21.2v21v21.6v21L947.5,111l-0.4,1v21.6v20.2h-20.2l-1,0.4l-21.6,21.6l-0.4,1v21.6
		v21l-21.2,21.2l1,2.5h21l21.2,21.2l20.6,20.6l-20.6,20.6l-19.2,19.2v-18.1l-0.4-1l-19.2-19.2h18.1l1-2.5l-21.6-21.6h-2l-19.2,19.2
		v-18.1v-21.6l-1.4-1.4h-21.6l-1,0.4L820.2,260v-18.1l-2.5-1l-21.6,21.6L774.5,284v2l21.6,21.6h2l21.2-21.2H839v18.7h-20.2l-1.4,1.4
		v21l-21.2,21.2l1,2.5h21l21.2,21.2L860,393l-20.6,20.6l1,2.5h20.2v18.7h-20.2h-21.6h-21.6h-21.6H754h-21.6h-21.6h-21.6h-21.6H646
		h-21.6h-21.6H581h-21.6h-21.6h-21.6h-21.6H473h-21.6h-21.6H408h-21.6h-21.6h-21.6h-21.6H300h-21.6h-21.6H235h-21.6h-21.6h-21.6
		h-21.6H127h-21.6H83.7H62H40.4h-21l-21.2-21.2L-23.4,392L-45,370.5l-21.6-21.6l-21.6-21.6l-20.6-20.6l20.6-20.6v-2l-21.6-21.6
		l-1-0.4h-21l-20.8-20.8v-21v-21.6v-21.6l-0.4-1l-21.6-21.6h-2l-21.6,21.6l-0.4,1v21.6v21.6v21.6l1.4,1.4h18.1l-19.2,19.2v2
		l21.6,21.6l1,0.4h21.6h21.6h18.1l-19.2,19.2l-0.4,1v21.6v21.6l0.4,1l21.2,21.2v21v20.2h-20.2l-1,0.4l-21.2,21.2h-21h-21.6H-219
		h-21.6h-21.6h-21.6h-21.6H-327h-21.6h-21.6h-20.2v-20.2v-21.6v-21.6v-21.6v-21.6v-21.6v-21l21.2-21.2l0.4-1v-21.6v-21.6v-21.6
		v-21.6v-21l21.2-21.2l0.4-1V112V91l21.2-21.2l0.4-1V47.2v-21L-304.4,5l-1-2.5H-327l-1.4,1.4V22l-19.2-19.2l-2.5,1v21L-371.3,46
		l-0.4,1v21l-18.7,18.7V68.8V47.2V25.5V3.9v-21.6v-21.6v-21.6v-21.6v-21.6v-21.6v-21.6v-21.6v-21.6v-21.6v-21.6v-18.1l18.7,18.7v21
		v21.6v21.6v21.6l0.4,1l21.2,21.2v21v21.6l1.4,1.4h21l20.8,20.8v21l0.4,1l21.6,21.6h2l21.2-21.2h21l1-0.4l21.6-21.6l0.4-1v-21.6
		L-219-84h-20.2v-20.2l-0.4-1l-21.2-21.2v-21V-169v-21l20.8-20.8h19.6v20.2l1.4,1.4h20.2v20.2l0.4,1l21.6,21.6l21.2,21.2v21l0.4,1
		L-134-82v21l1.4,1.4h21.6l1-0.4l21.6-21.6l0.4-1v-21.6l-0.4-1l-21.2-21.2V-146h20.2h21.6l1-2.5l-21.6-21.6l-21.2-21.2v-21l-1.4-1.4
		h-20.2v-20.2l-2.5-1l-21.2,21.2h-21h-21.6l-1.4,1.4v18.1l-19.2-19.2l-21.6-21.6l-21.6-21.6l-2.5,1v21.6v18.1l-19.2-19.2h-2
		l-19.2,19.2v-17.5l21.2-21.2l0.4-1v-21l20.8-20.8h21l1.4-1.4v-21.6v-21l21.2-21.2l0.4-1v-21l21.2-21.2l-1-2.5H-219l-1,0.4
		l-21.6,21.6l-0.4,1v21l-21.2,21.2l-0.4,1v21l-18.7,18.7v-18.1l-1.4-1.4H-302l19.2-19.2l0.4-1v-21l21.2-21.2l0.4-1v-21l21.2-21.2
		l21.6-21.6v-2l-21.2-21.2v-21V-515l-1.4-1.4h-21.6h-20.2v-20.2l-0.4-1l-21.6-21.6l-1-0.4h-21l-20.8-20.8v-21l-0.4-1l-20.6-20.6
		l20.6-20.6l0.4-1v-20.2h20.2h21.6h21.6h21.6h20.1 M1101.3-662.9l18.7,18.7v17.5l-18.7-18.7V-662.9 M17.4-662.9v16.7H0.7L17.4-662.9
		 M-3.4-643.3l20.8,20.8v17.5l-19.2-19.2l-2.5,1v20.2h-20.2h-21.6l-1,0.4l-21.2,21.2h-21l-1.4,1.4v20.2h-19.6l-20.8-20.8v-21v-21.6
		v-18.1l19.2,19.2h2l19.2-19.2v18.1l1.4,1.4h20.2v20.2l2.5,1l21.6-21.6l21.2-21.2L-3.4-643.3 M-373.9-621.7l-16.7,16.7v-16.7H-373.9
		 M39-600v16.7L22.3-600H39 M-390.6-598l18.7,18.7v21v21.6l0.4,1l21.2,21.2v21v21.6l0.4,1l20.6,20.6l-20.6,20.6v2l19.2,19.2h-18.1
		l-1,0.4l-21.2,21.2h-19.6v-20.2v-21.6v-21.6v-21.6v-21.6V-515v-21.6v-21.6v-21.6V-598 M366.2-554.8l18.1,18.1l-20.2,20.2h-21H325
		l18.7-18.7h21l1.4-1.4v-18.2 M1166.2-533.1l18.7,18.7v17.5l-18.7-18.7V-533.1 M1076.8-533.1v16.7h-16.7L1076.8-533.1 M384.9-513.6
		v16.7l-16.7-16.7H384.9 M1033.6-511.5v16.7h-16.7L1033.6-511.5 M344.6-511.5l16.7,16.7h-16.7V-511.5 M-307-511.5v16.7h-16.7
		L-307-511.5 M1166.2-489.9l16.7,16.7h-16.7V-489.9 M863.5-489.9l16.7,16.7h-16.7V-489.9 M-44.6-489.9l16.7,16.7h-16.7V-489.9
		 M426.7-468.3v16.7H410L426.7-468.3 M-244.1-448.7l-18.1,18.1l-18.1-18.1h18.1H-244.1 M1187.8-446.7l18.1,18.1l-18.1,18.1v-18.1
		V-446.7 M448.3-446.7v16.7h-16.7L448.3-446.7 M-285.3-446.7v17.5l-18.7,18.7V-428L-285.3-446.7 M1204.5-405.4l-16.7,16.7v-16.7
		H1204.5 M36.9-405.4l-16.7,16.7v-16.7H36.9 M537.7-404.8l20.2,20.2v19.6h-18.7v-20.2l-1.4-1.4h-18.1L537.7-404.8 M750.5-383.8
		l-16.7,16.7v-16.7H750.5 M407.4-383.8l18.7,18.7H408h-21.6l-1,0.4l-21.2,21.2h-21l-1.4,1.4v21l-18.7,18.7v-18.1v-21l20.8-20.8h21
		l1-0.4l21.2-21.2L407.4-383.8 M712.1-381.8l18.1,18.1l-19.6,19.6l-18.1-18.1h18.1l1.4-1.4L712.1-381.8 M577.5-362.2l-16.7,16.7
		v-16.7H577.5 M-325.7-360.2l18.7,18.7v19.6h-18.7V-342V-360.2 M750.5-340.6l-16.7,16.7v-16.7H750.5 M279.7-338.5l16.7,16.7h-16.7
		V-338.5 M255.2-338.5v16.7h-16.7L255.2-338.5 M1161.3-319l-16.7,16.7V-319H1161.3 M-307-208.8v18.1v18.1l-18.1-18.1L-307-208.8
		 M-112.4-187.2v18.1v18.1l-18.1-18.1L-112.4-187.2 M-282.5-165.6l16.7,16.7h-16.7V-165.6 M1076.8-124.4v16.7l-16.7-16.7
		L1076.8-124.4 M-260.8-79.1l16.7,16.7h-16.7V-79.1 M950-57.5l19.2,19.2l21.6,21.6l1,0.4h18.1L990.7,2.9v2l20.6,20.6l-18.1,18.1
		V25.5l-0.4-1L971.6,3.3v-21l-0.4-1L950-39.9V-57.5 M1074.8,48.6l-19.2,19.2l-0.4,1v21L1034,111l-19.2,19.2V112V90.4V68.8V50.6
		l19.2,19.2h2l21.2-21.2L1074.8,48.6 M-390.6,93.9l18.1,18.1l-18.1,18.1V112V93.9 M1036.4,115.5l18.7,18.7v21v21.6l0.4,1l21.2,21.2
		v20.4l-21.2,21.2l-21.6,21.6l-0.4,1v18.1l-19.2-19.2h-2L990.7,284l-19.2,19.2v-17.5l21.2-21.2l21.6-21.6l0.4-1v-20.2h20.2l1.4-1.4
		v-21.6v-21.6v-21.6v-21.6L1036.4,115.5 M1009.9,286.4l-16.7,16.7v-16.7H1009.9 M970.1,308.7l19.6,19.6l-18.1,18.1v-18.1l-1.4-1.4
		H952L970.1,308.7 M1099.9-666.3v21.6l21.6,21.6v-21.6L1099.9-666.3L1099.9-666.3z M1078.3-666.3h-21.6H1035h-21.6h-21.6h-21.6
		h-21.6H927h-21.6h-21.6v21.6v21.6v21.6v21.6l21.6,21.6H927v21.6l21.6-21.6l21.6-21.6v21.6v21.6l21.6,21.6v-21.6v-21.6l21.6-21.6
		v21.6l21.6,21.6h21.6l21.6-21.6l21.6-21.6v-21.6h21.6l21.6,21.6v21.6l21.6,21.6v-21.6v-21.6l-21.6-21.6l-21.6-21.6h-21.6v-21.6
		h-21.6v-21.6H1078.3z M18.8-666.3l-21.6,21.6h21.6V-666.3L18.8-666.3z M-24.4-666.3H-46h-21.6h-21.6v21.6h21.6H-46L-24.4-666.3
		L-24.4-666.3z M-240.7-666.3h-21.6h-21.6h-21.6h-21.6h-21.6v21.6l-21.6,21.6l21.6,21.6v21.6l21.6,21.6h21.6l21.6,21.6v21.6h21.6
		h21.6v21.6v21.6l21.6,21.6l-21.6,21.6l-21.6,21.6v21.6l-21.6,21.6v21.6l-21.6,21.6h21.6v21.6l21.6-21.6V-342l21.6-21.6v-21.6
		l21.6-21.6h21.6l-21.6,21.6v21.6l-21.6,21.6v21.6v21.6h-21.6l-21.6,21.6v21.6l-21.6,21.6v21.6l21.6-21.6l21.6,21.6V-234v-21.6
		l21.6,21.6l21.6,21.6l21.6,21.6v-21.6h21.6h21.6l21.6-21.6v21.6h21.6v21.6l21.6,21.6l21.6,21.6h-21.6h-21.6v21.6l21.6,21.6v21.6
		l-21.6,21.6h-21.6v-21.6l-21.6-21.6V-126l-21.6-21.6l-21.6-21.6v-21.6H-219v-21.6h-21.6l-21.6,21.6v21.6v21.6v21.6l21.6,21.6v21.6
		h21.6v21.6l-21.6,21.6h-21.6L-283.8-18l-21.6-21.6v-21.6L-327-82.8h-21.6v-21.6V-126l-21.6-21.6v-21.6v-21.6v-21.6V-234l-21.6-21.6
		v21.6v21.6v21.6v21.6v21.6v21.6v21.6v21.6v21.6v21.6V-18V3.9v21.6v21.6v21.6v21.6l21.6-21.6V47.2l21.6-21.6V3.9l21.6,21.6V3.9h21.6
		L-327,25.5v21.6v21.6l-21.6,21.6V112v21.6l-21.6,21.6v21.6v21.6V220v21.6v21.6L-392,285v21.6v21.6v21.6v21.6V393v21.6v21.6h21.6
		h21.6h21.6h21.6h21.6h21.6h21.6h21.6h21.6h21.6h21.6l21.6-21.6h21.6V393v-21.6l-21.6-21.6v-21.6v-21.6l21.6-21.6h-21.6h-21.6H-176
		l-21.6-21.6l21.6-21.6h-21.6v-21.6v-21.6V177l21.6-21.6l21.6,21.6v21.6v21.6v21.6l21.6,21.6h21.6l21.6,21.6l-21.6,21.6l21.6,21.6
		l21.6,21.6l21.6,21.6l21.6,21.6l21.6,21.6l21.6,21.6H40h22h21.6h21.6h21.6h21.6H170h21.6h21.6H235h21.6h21.6h21.6h21.6H343h21.6
		h21.6H408h21.6h21.6h21.6h21.6H516h21.6h21.6H581h21.6h21.6h21.6h21.6H689h21.6h21.6h21.6h21.6H797h21.6h21.6H862v-21.6h-21.6
		L862,393l-21.6-21.6l-21.6-21.6h-21.6l21.6-21.6v-21.6h21.6V285h-21.6l-21.6,21.6L775.6,285l21.6-21.6l21.6-21.6v21.6l21.6-21.6
		H862v21.6V285l21.6-21.6l21.6,21.6h-21.6l21.6,21.6v21.6l21.6-21.6l21.6-21.6l-21.6-21.6l-21.6-21.6h-21.6l21.6-21.6v-21.6V177
		l21.6-21.6h21.6v-21.6V112L970,90.4V68.8V47.2V25.5L948.5,3.9v-21.6v-21.6l-21.6-21.6h-21.6v21.6h-21.6H862l21.6-21.6v-21.6v-21.6
		v-21.6v-21.6h21.6v-21.6h21.6v-21.6h21.6l21.6-21.6l-21.6-21.6v-21.6v-21.6H970v-21.6l21.6,21.6v21.6v21.6v21.6l21.6,21.6v21.6
		l21.6,21.6h21.6l21.6,21.6v-21.6l-21.6-21.6l21.6-21.6h-21.6v-21.6l-21.6-21.6h21.6l-21.6-21.6h-21.6v-21.6v-21.6v-21.6L1035-342
		h-21.6v-21.6v-21.6v-21.6l-21.6-21.6h-21.6V-450v-21.6h21.6v-21.6h-21.6V-515l-21.6,21.6L927-471.8h-21.6v21.6h-21.6v21.6
		L862-406.9h21.6L862-385.3v21.6h-21.6h-21.6v21.6h-21.6h-21.6L754-320.5h-21.6l21.6,21.6h-21.6l-21.6,21.6l-21.6-21.6h-21.6
		L646-277.3l-21.6-21.6l-21.6,21.6H581l21.6-21.6l21.6-21.6h-21.6L581-342h-21.6l-21.6,21.6h-21.6l-21.6,21.6H473l-21.6,21.6
		l21.6,21.6L451.4-234v-21.6v-21.6h-21.6L408-255.5v21.6h21.6L408-212.3v-21.6l-21.6,21.6l-21.6,21.6l-21.6-21.6h21.6l21.6-21.6
		v-21.6l21.6-21.6l21.6-21.6L408-320.4v21.6h-21.6l-21.6,21.6v21.6l-21.6-21.6v-21.6l-21.6,21.6L300-298.8v21.6l-21.6-21.6
		l-21.6-21.6L235-298.8v-21.6h-21.6L191.8-342v21.6L170.2-342v21.6L148.5-342l21.6-21.6l21.6-21.6v21.6l21.6,21.6H235v-21.6v-21.6
		v-21.6l-21.6-21.6H235V-450l-21.6-21.6l-21.6-21.6L170.2-515v21.6L148.5-515v21.6L126.9-515h-21.6l-21.6-21.6L62-558.2l-21.6,21.6
		v-21.6l-21.6,21.6H-2.8v21.6l21.6,21.6H-2.8v21.6h-21.6L-46-450.2h21.6v21.6h21.6l21.6-21.6v21.6h21.6L62-450.1h21.6h21.6h21.6
		l21.6,21.6v21.6l-21.6-21.6h-21.6H83.7L62-406.9v21.6l21.6,21.6l21.6-21.6v21.6v21.6l-21.6,21.6V-342l21.6-21.6H83.7L62-342v-21.6
		L40.4-342v-21.6H62l-21.6-21.6l-21.6,21.6H-2.8l21.6-21.6l-21.6-21.6l-21.6,21.6L-46-406.8v-21.6L-67.6-450H-46l-21.6-21.6
		l21.6-21.6h21.6h21.6L-24.4-515H-46l-21.6,21.6L-89.3-515h21.6l-21.6-21.6h-21.6l-21.6-21.6l-21.6-21.6v-21.6V-623l-21.6,21.6
		l-21.6,21.6H-219h-21.6v-21.6V-623v-21.6L-240.7-666.3L-240.7-666.3z M-2.8-644.7h-21.6L-46-623.1l-21.6,21.6v-21.6h-21.6v-21.6
		l-21.6,21.6l-21.6-21.6v21.6v21.6v21.6l21.6,21.6h21.6v-21.6h21.6l21.6-21.6h21.6h21.6v-21.6l21.6,21.6v-21.6L-2.8-644.7
		L-2.8-644.7z M-370.4-623.1H-392v21.6L-370.4-623.1L-370.4-623.1z M40.4-601.5H18.8l21.6,21.6V-601.5L40.4-601.5z M-392-601.5v21.6
		v21.6v21.6v21.6v21.6v21.6v21.6v21.6v21.6v21.6h21.6l21.6-21.6h21.6l-21.6-21.6l21.6-21.6l-21.6-21.6v-21.6V-515l-21.6-21.6v-21.6
		v-21.6L-392-601.5L-392-601.5z M364.7-558.2v21.6h-21.6L321.5-515h21.6h21.6l21.6-21.6L364.7-558.2L364.7-558.2z M1164.7-536.6
		v21.6l21.6,21.6V-515L1164.7-536.6L1164.7-536.6z M1078.3-536.6l-21.6,21.6h21.6V-536.6L1078.3-536.6z M1035-515l-21.6,21.6h21.6
		V-515L1035-515z M386.4-515h-21.6l21.6,21.6V-515L386.4-515z M343.1-515v21.6h21.6L343.1-515L343.1-515z M-305.5-515l-21.6,21.6
		h21.6V-515L-305.5-515z M1164.7-493.4v21.6h21.6L1164.7-493.4L1164.7-493.4z M862-493.4v21.6h21.6L862-493.4L862-493.4z
		 M-46.1-493.4v21.6h21.6L-46.1-493.4L-46.1-493.4z M428.2-471.8l-21.6,21.6h21.6V-471.8L428.2-471.8z M1186.4-450.1v21.6v21.6
		l21.6-21.6L1186.4-450.1L1186.4-450.1z M449.8-450.1l-21.6,21.6h21.6V-450.1L449.8-450.1z M-240.7-450.1h-21.6h-21.6l21.6,21.6
		L-240.7-450.1L-240.7-450.1z M-283.9-450.1l-21.6,21.6v21.6l21.6-21.6V-450.1L-283.9-450.1z M1208-406.9h-21.6v21.6L1208-406.9
		L1208-406.9z M537.7-406.9l-21.6,21.6h21.6v21.6h21.6v-21.6L537.7-406.9L537.7-406.9z M40.4-406.9H18.8v21.6L40.4-406.9L40.4-406.9
		z M753.9-385.3h-21.6v21.6L753.9-385.3L753.9-385.3z M710.7-385.3v21.6h-21.6l21.6,21.6l21.6-21.6L710.7-385.3L710.7-385.3z
		 M408-385.3h-21.6l-21.6,21.6h-21.6L321.5-342v21.6v21.6l21.6-21.6V-342h21.6l21.6-21.6H408h21.6L408-385.3L408-385.3z M581-363.6
		h-21.6v21.6L581-363.6L581-363.6z M-327.1-363.6v21.6v21.6h21.6V-342L-327.1-363.6L-327.1-363.6z M753.9-342h-21.6v21.6L753.9-342
		L753.9-342z M278.3-342v21.6h21.6L278.3-342L278.3-342z M256.6-342L235-320.4h21.6V-342L256.6-342z M1164.7-320.4h-21.6v21.6
		L1164.7-320.4L1164.7-320.4z M-305.5-212.3l-21.6,21.6l21.6,21.6v-21.6V-212.3L-305.5-212.3z M-110.9-190.7l-21.6,21.6l21.6,21.6
		v-21.6V-190.7L-110.9-190.7z M-283.9-169.1v21.6h21.6L-283.9-169.1L-283.9-169.1z M1078.3-125.8h-21.6l21.6,21.6V-125.8
		L1078.3-125.8z M-262.3-82.6V-61h21.6L-262.3-82.6L-262.3-82.6z M948.5-60.9v21.6l21.6,21.6V3.9l21.6,21.6v21.6l21.6-21.6
		L991.8,3.9l21.6-21.6h-21.6l-21.6-21.6L948.5-60.9L948.5-60.9z M1078.3,47.2h-21.6L1035,68.8l-21.6-21.6v21.6v21.6V112v21.6
		L1035,112l21.6-21.6V68.8L1078.3,47.2L1078.3,47.2z M-392,90.4V112v21.6l21.6-21.6L-392,90.4L-392,90.4z M1035,112v21.6v21.6v21.6
		v21.6V220h-21.6v21.6l-21.6,21.6L970.1,285v21.6l21.6-21.6l21.6-21.6L1035,285v-21.6l21.6-21.6l21.6-21.6v-21.6l-21.6-21.6v-21.6
		v-21.6L1035,112L1035,112z M1013.4,285h-21.6v21.6L1013.4,285L1013.4,285z M970.1,306.6l-21.6,21.6h21.6v21.6l21.6-21.6
		L970.1,306.6L970.1,306.6z"/>
	<path id="world" style="fill:#F5F1F1;" d="M-47.2-471.3v-21.6l21.6,21.6H-47.2z M1033.9-514.5l-21.6,21.6h21.6V-514.5z
		 M860.9-492.9v21.6l21.6-21.6H860.9z M-25.6-471.3l-21.6,21.6h21.6v21.6H-4l21.6-21.6v21.6h21.6l21.6-21.6h21.6H104h21.6l21.6,21.6
		H169l21.6-21.6v-21.6h21.6l-21.6-21.6L169-514.5v21.6l-21.6-21.6v21.6l-21.6-21.6h-21.6l-21.6-21.6L61-557.7l-21.6,21.6v-21.6
		l-21.6,21.6H-4v21.6l21.6,21.6H-4v21.6H-25.6z M-241.8-449.7h-21.6H-285l21.6,21.6L-241.8-449.7z M212.2-428v-21.6l21.6,21.6v-21.6
		l-21.6-21.6l-21.6,21.6L212.2-428z M1055.5,69.3l21.6-21.6h-21.6l-21.6,21.6l-21.6-21.6v21.6v21.6v21.6v21.6l21.6-21.6l21.6-21.6
		V69.3z M-198.6-211.8h21.6h21.6l21.6-21.6h-21.6l21.6-21.6l21.6-21.6v-21.6h21.6v-21.6v-21.6l-21.6-21.6l21.6-21.6v-21.6l21.6,21.6
		l21.6,21.6h21.6v-21.6l-21.6-21.6V-428L-69-449.6h21.6L-69-471.2l21.6-21.6h21.6H-4l-21.6-21.6h-21.6l-21.6,21.6l-21.6-21.6h21.6
		L-90.4-536H-112l-21.6-21.6l-21.6-21.6V-601v-21.6l-21.6,21.6l-21.6,21.6H-220h-21.6V-601v-21.6v-21.6v-21.6h-21.6h-21.6h-21.6
		H-328h-21.6v21.6l-21.6,21.6l21.6,21.6v21.6l21.6,21.6h21.6l21.6,21.6v21.6h21.6h21.6v21.6v21.6l21.6,21.6l-21.6,21.6l-21.6,21.6
		v21.6l-21.6,21.6v21.6l-21.6,21.6h21.6v21.6l21.6-21.6v-21.6l21.6-21.6V-385l21.6-21.6h21.6L-220-385v21.6l-21.6,21.6v21.6v21.6
		h-21.6l-21.6,21.6v21.6l-21.6,21.6v21.6l21.6-21.6l21.6,21.6v-21.6v-21.6l21.6,21.6l21.6,21.6l21.6,21.6v-21.2H-198.6z
		 M-263.4-82.1v21.6h21.6L-263.4-82.1z M1033.9,155.7v21.6V199v21.6h-21.6v21.6l-21.6,21.6L969,285.5v21.6l21.6-21.6l21.6-21.6
		l21.6,21.6v-21.6l21.6-21.6l21.6-21.6V199l-21.6-21.6v-21.6v-21.6l-21.6-21.6v21.6v21.5H1033.9z M1012.2,285.5h-21.6v21.6
		L1012.2,285.5z M969,328.7v21.6l21.6-21.6L969,307.1l-21.6,21.6H969z M-285.1-147h21.6l-21.6-21.6V-147z M-306.7-406.4l21.6-21.6
		v-21.6l-21.6,21.6V-406.4z M-306.7-492.9v-21.6l-21.6,21.6H-306.7z M-328.3-363.2v21.6v21.6h21.6v-21.6L-328.3-363.2z
		 M-306.7-168.6v-21.6v-21.6l-21.6,21.6L-306.7-168.6z M-393.2-557.8v21.6v21.6v21.6v21.6v21.6v21.6v21.6v21.6h21.6l21.6-21.6h21.6
		l-21.6-21.6l21.6-21.6l-21.6-21.6V-493v-21.6l-21.6-21.6v-21.6v-21.6l-21.6-21.6v21.6V-557.8z M-393.2-601l21.6-21.6h-21.6V-601z
		 M1077.1-514.5v-21.6l-21.6,21.6H1077.1z M1120.4-644.3l-21.6-21.6v21.6l21.6,21.6V-644.3z M39.3-601H17.6l21.6,21.6L39.3-601
		L39.3-601z M17.6-665.9L-4-644.3h21.6V-665.9z M-47.2-644.3l21.6-21.6h-21.6h-21.6h-21.6v21.6h21.6H-47.2z M-90.5-557.8v-21.6h21.6
		l21.6-21.6h21.6H-4v-21.6L17.6-601v-21.6L-4-644.3h-21.6l-21.6,21.6L-68.8-601v-21.6h-21.6v-21.6l-21.6,21.6l-21.6-21.6v21.6v21.6
		v21.6l21.6,21.6L-90.5-557.8L-90.5-557.8z M-393.2,134.1l21.6-21.6l-21.6-21.6v21.6V134.1z M1142-557.8l21.6,21.6v-21.6v-21.6
		L1142-601l-21.6-21.6h-21.6v-21.6h-21.6v-21.6h-21.6H1034h-21.6h-21.6H969h-21.6h-21.6h-21.6h-21.6v21.6v21.6v21.6v21.6l21.6,21.6
		h21.6v21.6l21.6-21.6l21.6-21.6v21.6v21.6l21.6,21.6v-21.6v-21.6l21.6-21.6v21.6l21.6,21.6h21.6l21.6-21.6l21.6-21.6V-601h21.6
		l21.6,21.6v21.6H1142z M1142-298.3l21.6-21.6H1142V-298.3z M1163.6-492.9v21.6h21.6L1163.6-492.9z M1185.2-492.9v-21.6l-21.6-21.6
		v21.6L1185.2-492.9z M1185.2-384.8l21.6-21.6h-21.6V-384.8z M1185.2-449.7v21.6v21.6l21.6-21.6L1185.2-449.7z M925.8,263.8
		l-21.6-21.6h-21.6l21.6-21.6V199v-21.6l21.6-21.6l-21.6-21.6v-21.6l21.6,21.6v-21.6V90.9V69.3l-21.6-21.6v21.6l-21.6,21.6L861,69.3
		h-21.6l-21.6-21.6L796,26h-21.6h-21.6v21.6v21.6v21.6l-21.6,21.6h-21.6V90.9L688,112.5l-21.6,21.6h-21.6l-21.6-21.6h-21.6H580
		l-21.6-21.6h-86.5v21.6h-21.6l21.6-21.6L450.3,69l-21.9,21.9v21.6h-21.6l-21.6,21.6l-21.6,21.6L342,134.1v21.6l-21.6,21.6v-21.6
		l-21.6,21.6V199l-21.6,21.6h-21.6H234L212.2,199v21.6h-21.6l21.6,21.6l-21.6,21.6L169,242.2v-21.6h-21.6h-21.6h-21.6L82.5,199
		l-21.6,21.6L39.3,199v21.6L17.6,199l21.6-21.6H17.6v-21.6L-4,134.1l-21.6-21.6h-21.6h-21.6l-21.6-21.6V69.3V47.6L-68.8,26h-21.6
		H-112V4.4v-21.6v-21.6v-21.6h-21.6V-82l-21.6-21.6v-21.6l-21.6-21.6l-21.6-21.6V-190H-220v-21.6h-21.6l-21.6,21.6v21.6v21.6v21.6
		l21.6,21.6V-82h21.6v21.6l-21.6,21.6h-21.6l-21.6,21.6l-21.6-21.6v-21.6L-328-82h-21.6v-21.6v-21.6l-21.6-21.6v-21.6V-190v-21.6
		v-21.6l-21.6-21.6v21.6v21.6v21.6v21.6v21.6v21.6v21.6V-82v21.6v21.6v21.6V4.4V26v21.6v21.6v21.6l21.6-21.6V47.6l21.6-21.6V4.4
		L-328,26V4.4h21.6L-328.3,26v21.6v21.6l-21.6,21.6v21.6V134l-21.6,21.6v21.6V199v21.6v21.6v21.6l-21.6,21.6V307v21.6v21.6V372v21.6
		v21.6v21.6h21.6h21.6h21.6h21.6h21.6h21.6h21.6h21.6h21.6h21.6h21.6l21.6-21.6h21.6v-21.6V372l-21.6-21.6v-21.6v-21.6l21.6-21.6
		h-21.6h-21.6h-21.6l-21.6-21.6l21.6-21.6l-21.6-21.6V199v-21.6l21.6-21.6l21.6,21.6V199v21.6v21.6l21.6,21.6h21.6l21.6,21.6
		l-21.6,21.6l21.6,21.6l21.6,21.6l21.6,21.6l21.6,21.6L-4,415.2l21.6,21.6h21.6h21.6h21.6H104h21.6h21.6H169h21.6h21.6h21.6h21.6
		H277h21.6h21.6H342h21.6h21.6h21.6h21.6H450h21.6h21.6h21.6h21.6H558h21.6h21.6h21.6h21.6H666h21.6h21.6h21.6h21.6H774h22h21.6
		h21.6h21.6v-21.6h-21.6l21.6-21.6L839.3,372l-21.6-21.6H796l21.6-21.6v-21.6h21.6v-21.6h-21.6L796,307.1l-21.6-21.6l21.6-21.6
		l21.6-21.6v21.6l21.6-21.6h21.6v21.6v21.6l21.6-21.6l21.6,21.6h-21.6l21.6,21.6v21.6l21.6-21.6l21.6-21.6L925.8,263.8z M947.4-60.5
		v21.6h21.9L947.4-60.5z M969-17.2L969-17.2V4.4L990.6,26v21.6l21.6-21.6L990.6,4.4l21.6-21.6h-21.6l-21.5-21.6h-21.6L969-17.2z"/>
	<path id="russia" style="fill:#CCCBCB;" d="M990.6-492.9H969l21.6,21.6V-492.9z M17.6-406.4v21.6l21.6-21.6H17.6z M169-406.4
		l-21.6,21.6 M363.6-363.2H342l-21.6,21.6v21.6l21.6-21.6L363.6-363.2z M320.4-319.9v21.6l21.6-21.6H320.4z M277.1-341.6v21.6h21.6
		L277.1-341.6z M-112.1-190.2l-21.6,21.6l21.6,21.6v-21.6V-190.2z M407-233.3l21.5-0.1l-21.6,21.6L407-233.3l-43.4,43.1L342-211.8
		h21.6v0.1l21.5-21.8h0.1V-255v-0.1l21.5-21.6h0.1l21.6-21.6h-21.6h-21.6l0,0l-21.6,21.6l0,0v21.6L342-276.7v-21.6l-21.6,21.6
		l-21.6-21.6v21.6l-21.6-21.6l-21.6-21.6v-21.6L234-319.9h-21.6l-21.6-21.6v21.6L169-341.6v21.6l0,0l0,0l-21.6-21.6l21.6-21.6l0,0
		l0,0l21.6-21.6v21.6l21.6,21.6h21.6v-21.6v-21.6v-21.6L212.2-428l-21.6,21.6H169l-21.6,21.6l0,0l-21.6,21.6v21.6v21.6l-21.6,21.6
		V-320l21.6-21.6h-21.6L82.6-320v-21.6v-21.6L61-341.6v-21.6l-21.6,21.6v-21.6H61l-21.6-21.6l-21.6,21.6H-4l21.6-21.6L-4-406.4
		l-21.6,21.6v21.6l0,0h-21.6l0,0l-21.6-21.6l-21.6-21.6v21.6l-21.6,21.6l21.6,21.6v21.6v21.6l-21.6,21.6v0.4l-43.2,42.8h21.6v21.6
		h21.6v21.6l21.6,21.6l21.6,21.6h-21.6H-112v21.6l21.6,21.6v21.6L-112-60.8v21.6v21.6v22V26h21.6h21.6l-21.6,21.6h21.6L-47.2,26V4.4
		v-21.6l21.6-21.6L-4-60.5l21.6,21.6h21.6v21.6L17.6-0.6v-16.6H-4V4.4V26l-21.6,21.6H-4v21.6l-21.6-21.6v21.6v21.6l-21.6,21.6h21.6
		L-4,134.1l21.6,21.6v21.6h21.6L17.6,199l21.6,21.6V199l21.6,21.6L82.5,199v-21.6l-21.6-21.6v-21.6v-21.6L39.3,90.9H17.6l21.6-21.6
		l0,0h21.6V47.6L82.5,26h21.6l0,0l0,0l21.6,21.6l0,0l0,0h-21.6v21.6H82.5L60.9,90.9l21.6,21.6v21.6h21.6l0,0l21.6,21.6l-21.6,21.6
		l21.6,21.6h21.6H169v21.6v21.6l21.6,21.6l21.6-21.6l-21.6-21.6h21.6V199l21.6,21.6h21.6H277l21.6-21.6v-21.6l21.6-21.6v21.6
		l21.6-21.6v-21.6l21.6,21.6l21.6-21.6l21.6-21.6h21.6V90.9l21.6-21.6l21.6,21.6V69.3H493l21.6-21.6l21.6,21.6v21.6h21.6l0,0l0,0
		l21.6,21.6l0,0H601l0,0h21.6l21.6,21.6h21.6l21.6-21.6L709,90.9v21.6h21.6l21.6-21.6V69.3V47.6V26h21.6H796l21.6,21.6l21.6,21.6
		h21.6l21.6,21.6L904,69.2V47.6l21.6,21.6v21.6v21.6V134L904,112.4V134l21.6,21.6h21.6V134v-21.6L969,90.9V69.3V47.6V26L947.4,4.4
		v-21.6v-21.6l-21.6-21.6h-21.6v21.6h-21.6H861l21.6-21.6V-82v-21.6v-21.6V-147h21.6v-21.6h21.6v-21.6h21.6l21.6-21.6l-21.6-21.6
		V-255v-21.6H969v-21.6l21.6,21.6v21.6v21.6v21.6l21.6,21.6v21.6l21.6,21.6h21.6l21.6,21.6V-147l-21.6-21.6l21.6-21.6h-21.6v-21.6
		l-21.6-21.6h21.6l-21.6-21.6h-21.6v-21.6v-21.6v-21.6l21.6-21.6h-21.6V-363v-21.6v-21.6L990.6-428H969h-21.6v21.6l-21.6,21.6
		l21.6,21.6l-21.6,21.6v-21.6l-21.6,21.6h-21.6v-21.6L861-384.8v21.6h-21.6v-21.6l-21.6,21.6v21.6H796h-21.6L752.8-320h-21.6
		l21.6,21.6h-21.6l-21.6,21.6L688-298.4h-21.6l-21.6,21.6l-21.6-21.6l-21.6,21.6H580l21.6-21.6H580l-21.6,21.6l-21.6,21.6v-21.6
		h-21.6l-21.6-21.6H472l-21.6,21.6l21.6,21.6l-21.6,21.6v-21.6v-21.6h-21.6l-21.6,21.6L407-233.3z M255.5,112.5h21.6l21.6,21.6
		h-21.6L255.5,112.5z M125.8,155.7L125.8,155.7 M255.5,199v-21.6l0,0l21.6,21.6H255.5z M579.8,90.9L579.8,90.9l21.6-21.6L623,47.7
		L644.7,26v21.6l-21.6,21.6l-21.6,21.6l0,0h-21.7V90.9z M1077.1-103.7v-21.6h-21.6L1077.1-103.7z"/>
</g>
</svg>
