<svg preserveAspectRatio="xMidYMid slice" version="1.1" xmlns="http://www.w3.org/2000/svg" xmlns:xlink="http://www.w3.org/1999/xlink" x="0px" y="0px" viewBox="0 0 580 360" style="enable-background:new 0 0 580 360;" xml:space="preserve">
<g id="Background">
    <rect x="-86.6" y="-246.2" style="fill:#FFFFFF;" width="1799" height="1240.4"/>
</g>
<g id="continents">
    <path id="continents_1_" style="fill:#F5F1F1;" d="M1567.2-243.6v22.7l1.6,1.6h22.7v22.7l1.6,1.6h23.7l23.8,23.8l23.8,23.8v23.7
        v20.4l-21.1-21.1v-23.7l-0.5-1.1l-24.3-24.3l-1.1-0.5h-24.3l-1.6,1.6v23.7l-23.8,23.8l-23.8,23.8h-23l-23.4-23.4v-23.7l-2.8-1.1
        l-24.3,24.3l-0.5,1.1v24.3v20.4l-21.1-21.1v-23.7v-24.3l-2.8-1.1l-24.3,24.3l-21.6,21.6v-20.4l-1.6-1.6h-23.7l-23.4-23.4v-23.7
        v-24.3v-24.3v-22.7h22.7h24.3h24.3h24.3h24.3h24.3h24.3h24.3H1567.2 M324.4-243.6l-21.1,21.1h-23.7H257v-21.1h22.7H304H324.4
         M83.5-243.6v22.7v24.3v24.3v24.3l1.6,1.6h24.3h24.3l1.1-0.5l24.3-24.3l21.6-21.6v20.4v24.3l0.5,1.1l24.3,24.3l24.3,24.3l1.1,0.5
        h23.7l21.1,21.1h-20.4l-1.1,2.8l24.3,24.3h2.3l23.8-23.8h23l21.1,21.1h-20.4H304l-1.1,0.5l-24.3,24.3v2.3l21.6,21.6h-20.4l-1.1,2.8
        L302.4,23v23.7l0.5,1.1l24.3,24.3h2.3L352.6,49L374.7,71l-23.2,23.2l1.1,2.8H377l1.1-0.5l23.2-23.2l20.4,20.4h-20.4l-1.6,1.6v24.3
        l2.8,1.1L424,99.2v20.4l2.8,1.1L450.6,97h19.8l-21.6,21.6l-0.5,1.1V144l2.8,1.1l24.3-24.3l0.5-1.1V95.4V71l-2.8-1.1l-23.2,23.2
        l-22.7-22.7v-23L450.6,24h23.7h23.7l23.8,23.8l2.8-1.1V22.4l-0.5-1.1L499.7-3.1l-1.1-0.5h-24.3h-24.3h-24.3l-1.1,0.5l-23.8,23.8
        h-22.1V-1.9l-2.8-1.1L352,20.8h-22.1V-1.9l-1.6-1.6h-20.4L329-24.6h23.7l1.6-1.6V-49H377l1.1-2.8l-23.8-23.8v-22.1H377l1.1-0.5
        l21.6-21.6v20.4l2.8,1.1l23.2-23.2l23.2,23.2l24.3,24.3l1.1,0.5h23.7l23.8,23.8l2.8-1.1V-71l21.6,21.6l2.8-1.1V-71l21.6,21.6
        l24.3,24.3l23.8,23.8v22.1h-22.7l-1.1,2.8l23.8,23.8V71v24.3v22.7h-22.1l-23.4-23.4V71l-2.8-1.1l-24.3,24.3l-24.3,24.3v2.3
        l24.3,24.3l2.8-1.1v-20.4l21.6,21.6l2.8-1.1v-20.4l21.6,21.6l1.1,0.5h22.7v22.7l2.8,1.1l23.2-23.2l23.2,23.2l24.3,24.3l2.8-1.1
        v-20.4l21.6,21.6h2.3l21.6-21.6v20.4l0.5,1.1l24.3,24.3l2.8-1.1v-23.7l23.4-23.4h23.7l1.6-1.6v-20.4l20.4,20.4l-23.2,23.2
        l-24.3,24.3l-0.5,1.1v23.7L765.5,264h-23.7l-1.1,2.8l24.3,24.3h2.3l24.3-24.3l21.6-21.6v20.4l2.8,1.1l24.3-24.3l-1.1-2.8h-22.7
        v-22.1l23.4-23.4h22.1V217v24.3l2.8,1.1l24.3-24.3v-2.3l-23.2-23.2l22.7-22.7h23.7l1.1-0.5l23.8-23.8h23.7l1.1-0.5l23.8-23.8h23
        l23.8,23.8l1.1,0.5h20.4l-21.6,21.6l-24.3,24.3l1.1,2.8h24.3l1.1-0.5l23.2-23.2l23.2,23.2h2.3l23.8-23.8h23l23.8,23.8h2.3
        l23.8-23.8h23.7l1.1-2.8l-21.6-21.6h20.4l1.1-0.5l23.8-23.8h23.7h24.3l1.6-1.6V97h22.7h24.3l1.6-1.6V71.7l23.8-23.8l-1.1-2.8h-20.4
        l21.6-21.6l0.5-1.1V-0.3h22.7l1.6-1.6v-22.7h22.7l1.1-0.5l24.3-24.3l21.6-21.6v20.4l1.6,1.6h22.7v21.1h-22.7l-1.6,1.6v24.3v24.3
        l1.6,1.6h23.7l23.4,23.4V71v24.3v24.3l1.6,1.6h20.4l-21.6,21.6l-0.5,1.1v24.3v24.3V217l1.6,1.6h23.7l21.1,21.1h-20.4l-1.1,2.8
        l23.8,23.8v23.7l1.6,1.6h20.4l-21.6,21.6v2.3l23.8,23.8V359l-21.6-21.6l-1.1-0.5h-23.7l-23.4-23.4v-23.7l-0.5-1.1l-23.8-23.8v-23.7
        V217v-24.3l-0.5-1.1l-24.3-24.3l-2.8,1.1V191h-22.7l-1.6,1.6V217v24.3l0.5,1.1l23.2,23.2l-22.7,22.7h-23.7l-1.6,1.6v22.7h-22.7
        l-1.6,1.6V337h-22.7l-1.6,1.6v24.3v24.3v24.3v23.7l-23.8,23.8l1.1,2.8h24.3h24.3l1.6-1.6v-22.7h22.1l23.4,23.4v23.7v24.3l0.5,1.1
        l23.8,23.8v23.7v24.3v23.7l-23.8,23.8l-0.5,1.1v24.3v22.7h-22.7l-1.1,0.5l-24.3,24.3l-0.5,1.1v24.3v23.7l-23.8,23.8l1.1,2.8h23.7
        l23.8,23.8l23.2,23.2l-23.2,23.2l-21.6,21.6v-20.4l-0.5-1.1l-21.6-21.6h20.4l1.1-2.8l-24.3-24.3h-2.3l-21.6,21.6v-20.4v-24.3
        l-1.6-1.6h-24.3l-1.1,0.5l-21.6,21.6v-20.4l-2.8-1.1l-24.3,24.3l-24.3,24.3v2.3l24.3,24.3h2.3l23.8-23.8h22.1v21.1H1277l-1.6,1.6
        v23.7l-23.8,23.8l1.1,2.8h23.7l23.8,23.8l23.2,23.2l-23.2,23.2l1.1,2.8h22.7v21.1h-22.7H1277h-24.3h-24.3H1204h-24.3h-24.3H1131
        h-24.3h-24.3h-24.3h-24.3h-24.3h-24.3h-24.3h-24.3h-24.3h-24.3h-24.3h-24.3h-24.3h-24.3h-24.3h-24.3h-24.3h-24.3h-24.3h-24.3h-24.3
        h-24.3h-24.3h-24.3h-24.3h-24.3h-24.3h-24.3h-24.3h-24.3h-23.7l-23.8-23.8l-24.3-24.3l-24.3-24.3l-24.3-24.3l-24.3-24.3l-23.2-23.2
        l23.2-23.2v-2.3l-24.3-24.3l-1.1-0.5h-23.7L184,775.8v-23.7v-24.3v-24.3l-0.5-1.1L159.2,678h-2.3l-24.3,24.3l-0.5,1.1v24.3v24.3
        v24.3l1.6,1.6h20.4l-21.6,21.6v2.3l24.3,24.3l1.1,0.5h24.3h24.3h20.4l-21.6,21.6l-0.5,1.1v24.3v24.3l0.5,1.1l23.8,23.8v23.7v22.7
        h-22.7l-1.1,0.5l-23.8,23.8h-23.7h-24.3h-24.3H85.1H60.8H36.4H12.1h-24.3h-24.3h-24.3h-22.7V971v-24.3v-24.3v-24.3v-24.3v-24.3
        v-23.7l23.8-23.8l0.5-1.1v-24.3v-24.3v-24.3v-24.3v-23.7l23.8-23.8l0.5-1.1v-24.3v-23.7l23.8-23.8l0.5-1.1v-24.3v-23.7L13.2,510
        l-1.1-2.8h-24.3l-1.6,1.6v20.4l-21.6-21.6l-2.8,1.1v23.7L-62,556.4l-0.5,1.1v23.7l-21.1,21.1v-20.4v-24.3v-24.3v-24.3v-24.3v-24.3
        v-24.3v-24.3v-24.3v-24.3v-24.3v-24.3v-24.3v-24.3v-24.3v-20.4l21.1,21.1v23.7v24.3v24.3v24.3l0.5,1.1l23.8,23.8v23.7v24.3l1.6,1.6
        h23.7l23.4,23.4v23.7l0.5,1.1l24.3,24.3h2.3l23.8-23.8h23.7l1.1-0.5l24.3-24.3l0.5-1.1v-24.3l-1.6-1.6H86.7v-22.7l-0.5-1.1
        l-23.8-23.8v-23.7v-24.3v-23.7l23.4-23.4h22.1v22.7l1.6,1.6h22.7v22.7l0.5,1.1l24.3,24.3l23.8,23.8v23.7l0.5,1.1l23.8,23.8v23.7
        l1.6,1.6H231l1.1-0.5l24.3-24.3l0.5-1.1v-24.3l-0.5-1.1l-23.8-23.8v-22.1h22.7h24.3l1.1-2.8l-24.3-24.3l-23.8-23.8v-23.7L231,264
        h-22.7v-22.7l-2.8-1.1L181.7,264h-23.7h-24.3l-1.6,1.6v20.4l-21.6-21.6l-24.3-24.3l-24.3-24.3l-2.8,1.1v24.3v20.4l-21.6-21.6h-2.3
        l-21.6,21.6v-19.8l23.8-23.8l0.5-1.1v-23.7l23.4-23.4h23.7l1.6-1.6V144v-23.7l23.8-23.8l0.5-1.1V71.7l23.8-23.8l-1.1-2.8h-24.3
        l-1.1,0.5L83.9,69.9L83.5,71v23.7l-23.8,23.8l-0.5,1.1v23.7l-21.1,21.1V144l-1.6-1.6H16l21.6-21.6l0.5-1.1V96l23.8-23.8l0.5-1.1
        V47.4l23.8-23.8l24.3-24.3v-2.3L86.7-26.9v-23.7v-24.3l-1.6-1.6H60.8H38.1v-22.7l-0.5-1.1l-24.3-24.3l-1.1-0.5h-23.7l-23.4-23.4
        v-23.7l-0.5-1.1l-23.2-23.2l23.2-23.2l0.5-1.1v-22.7h22.7h24.3h24.3h24.3H83.5 M1594.8-241.3l21.1,21.1v19.8l-21.1-21.1V-241.3
         M375.4-241.3v18.8h-18.8L375.4-241.3 M352-219.2l23.4,23.4v19.8l-21.6-21.6l-2.8,1.1v22.7h-22.7H304l-1.1,0.5L279-149.5h-23.7
        l-1.6,1.6v22.7h-22.1l-23.4-23.4v-23.7v-24.3V-217l21.6,21.6h2.3l21.6-21.6v20.4l1.6,1.6h22.7v22.7l2.8,1.1l24.3-24.3l23.8-23.8
        H352 M-64.8-194.9l-18.8,18.8v-18.8H-64.8 M399.7-170.6v18.8l-18.8-18.8H399.7 M-83.6-168.3l21.1,21.1v23.7v24.3l0.5,1.1l23.8,23.8
        v23.7v24.3l0.5,1.1l23.2,23.2l-23.2,23.2v2.3l21.6,21.6h-20.4l-1.1,0.5l-23.8,23.8h-22.1V46.7V22.4V-1.9v-24.3v-24.3v-24.3v-24.3
        v-24.3v-24.3V-168.3 M767.8-119.7l20.4,20.4l-22.7,22.7h-23.7h-20.4l21.1-21.1h23.7l1.6-1.6V-119.7 M1667.8-95.4l21.1,21.1v19.8
        l-21.1-21.1V-95.4 M1567.2-95.4v18.8h-18.8L1567.2-95.4 M788.9-73.3v18.8l-18.8-18.8H788.9 M1518.6-71v18.8h-18.8L1518.6-71
         M743.5-71l18.8,18.8h-18.8V-71 M10.5-71v18.8H-8.3L10.5-71 M1667.8-46.7l18.8,18.8h-18.8V-46.7 M1327.2-46.7l18.8,18.8h-18.8
        V-46.7 M305.6-46.7l18.8,18.8h-18.8V-46.7 M835.9-22.4v18.8h-18.8L835.9-22.4 M81.2-0.3L60.8,20.1L40.3-0.3h20.4H81.2 M1692.1,1.9
        l20.4,20.4l-20.4,20.4V22.4V1.9 M860.2,1.9v18.8h-18.8L860.2,1.9 M34.8,1.9v19.8L13.7,42.8V23L34.8,1.9 M1710.9,48.3l-18.8,18.8
        V48.3H1710.9 M397.4,48.3l-18.8,18.8V48.3H397.4 M960.8,49l22.7,22.7v22.1h-21.1V71l-1.6-1.6h-20.4L960.8,49 M1200.1,72.6
        l-18.8,18.8V72.6H1200.1 M814.2,72.6l21.1,21.1h-20.4h-24.3l-1.1,0.5l-23.8,23.8h-23.7l-1.6,1.6v23.7l-21.1,21.1V144v-23.7
        L742.5,97h23.7l1.1-0.5l23.8-23.8H814.2 M1157,74.9l20.4,20.4l-22.1,22.1L1134.9,97h20.4l1.6-1.6V74.9 M1005.5,97l-18.8,18.8V97
        H1005.5 M-10.6,99.2l21.1,21.1v22.1h-21.1v-22.7V99.2 M1200.1,121.3l-18.8,18.8v-18.8H1200.1 M670.5,123.6l18.8,18.8h-18.8V123.6
         M642.9,123.6v18.8h-18.8L642.9,123.6 M1662.3,145.6l-18.8,18.8v-18.8H1662.3 M10.5,269.5v20.4v20.4l-20.4-20.4L10.5,269.5
         M229.4,293.8v20.4v20.4L209,314.3L229.4,293.8 M38.1,318.2L56.9,337H38.1V318.2 M1567.2,364.5v18.8l-18.8-18.8H1567.2 M62.4,415.5
        l18.8,18.8H62.4V415.5 M1424.5,439.8l21.6,21.6l24.3,24.3l1.1,0.5h20.4l-21.6,21.6v2.3l23.2,23.2l-20.4,20.4v-20.4l-0.5-1.1
        l-23.8-23.8v-23.7l-0.5-1.1l-23.8-23.8V439.8 M1565,559.1l-21.6,21.6l-0.5,1.1v23.7l-23.8,23.8l-21.6,21.6v-20.4v-24.3v-24.3v-20.4
        l21.6,21.6h2.3l23.8-23.8L1565,559.1 M-83.6,610.1l20.4,20.4l-20.4,20.4v-20.4V610.1 M1521.8,634.4l21.1,21.1v23.7v24.3l0.5,1.1
        l23.8,23.8v23l-23.8,23.8l-24.3,24.3l-0.5,1.1v20.4l-21.6-21.6h-2.3l-24.3,24.3l-21.6,21.6v-19.8l23.8-23.8l24.3-24.3l0.5-1.1
        v-22.7h22.7l1.6-1.6v-24.3v-24.3v-24.3v-24.3V634.4 M1492,826.7l-18.8,18.8v-18.8H1492 M1447.2,851.7l22.1,22.1l-20.4,20.4v-20.4
        l-1.6-1.6h-20.4L1447.2,851.7 M1593.2-245.2v24.3l24.3,24.3v-24.3L1593.2-245.2L1593.2-245.2z M1568.9-245.2h-24.3h-24.3h-24.3
        h-24.3h-24.3h-24.3h-24.3h-24.3h-24.3v24.3v24.3v24.3v24.3l24.3,24.3h24.3v24.3l24.3-24.3l24.3-24.3v24.3v24.3l24.3,24.3v-24.3
        v-24.3l24.3-24.3v24.3l24.3,24.3h24.3l24.3-24.3l24.3-24.3v-24.3h24.3l24.3,24.3v24.3l24.3,24.3v-24.3v-24.3l-24.3-24.3l-24.3-24.3
        h-24.3v-24.3h-24.3V-245.2L1568.9-245.2z M377-245.2l-24.3,24.3H377V-245.2L377-245.2z M328.3-245.2H304h-24.3h-24.3v24.3h24.3H304
        L328.3-245.2L328.3-245.2z M85.1-245.2H60.8H36.4H12.1h-24.3h-24.3v24.3l-24.3,24.3l24.3,24.3v24.3l24.3,24.3h24.3l24.3,24.3v24.3
        h24.3h24.3v24.3v24.3l24.3,24.3L85.1,22.4L60.8,46.7V71L36.4,95.4v24.3L12.1,144h24.3v24.3L60.8,144v-24.3l24.3-24.3V71l24.3-24.3
        h24.3L109.4,71v24.3l-24.3,24.3V144v24.3H60.8l-24.3,24.3V217l-24.3,24.3v24.3l24.3-24.3l24.3,24.3v-24.3V217l24.3,24.3l24.3,24.3
        l24.3,24.3v-24.3h24.3h24.3l24.3-24.3v24.3H231v24.3l24.3,24.3l24.3,24.3h-24.3H231v24.3l24.3,24.3v24.3L231,435.9h-24.3v-24.3
        l-24.3-24.3v-24.3l-24.3-24.3l-24.3-24.3v-24.3h-24.3v-24.3H85.1l-24.3,24.3v24.3v24.3v24.3l24.3,24.3v24.3h24.3v24.3l-24.3,24.3
        H60.8l-24.3,24.3l-24.3-24.3v-24.3l-24.3-24.3h-24.3v-24.3v-24.3l-24.3-24.3v-24.3v-24.3v-24.3v-24.3L-85.2,217v24.3v24.3v24.3
        v24.3v24.3v24.3v24.3v24.3v24.3v24.3v24.3v24.3v24.3v24.3v24.3v24.3l24.3-24.3v-24.3l24.3-24.3v-24.3l24.3,24.3v-24.3h24.3
        l-24.3,24.3v24.3v24.3l-24.3,24.3v24.3v24.3l-24.3,24.3v24.3v24.3v24.3v24.3v24.3l-24.3,24.3v24.3v24.3v24.3v24.3v24.3V971v24.3
        h24.3h24.3h24.3h24.3h24.3h24.3h24.3h24.3h24.3h24.3h24.3l24.3-24.3H231v-24.3v-24.3l-24.3-24.3v-24.3v-24.3l24.3-24.3h-24.3h-24.3
        h-24.3l-24.3-24.3l24.3-24.3h-24.3v-24.3v-24.3v-24.3l24.3-24.3l24.3,24.3v24.3v24.3v24.3l24.3,24.3H231l24.3,24.3L231,849.4
        l24.3,24.3l24.3,24.3l24.3,24.3l24.3,24.3l24.3,24.3l24.3,24.3h24.3h24.3h24.3h24.3h24.3h24.3h24.3h24.3h24.3h24.3h24.3h24.3h24.3
        h24.3h24.3h24.3h24.3h24.3h24.3h24.3h24.3h24.3h24.3h24.3h24.3h24.3h24.3h24.3h24.3h24.3h24.3h24.3h24.3h24.3h24.3h24.3h24.3h24.3
        h24.3V971h-24.3l24.3-24.3l-24.3-24.3l-24.3-24.3h-24.3l24.3-24.3v-24.3h24.3v-24.3H1277l-24.3,24.3l-24.3-24.3l24.3-24.3
        l24.3-24.3v24.3l24.3-24.3h24.3v24.3v24.3l24.3-24.3l24.3,24.3h-24.3l24.3,24.3v24.3l24.3-24.3l24.3-24.3l-24.3-24.3l-24.3-24.3
        h-24.3l24.3-24.3v-24.3v-24.3l24.3-24.3h24.3v-24.3v-24.3l24.3-24.3v-24.3v-24.3v-24.3l-24.3-24.3v-24.3v-24.3l-24.3-24.3h-24.3
        v24.3h-24.3h-24.3l24.3-24.3v-24.3v-24.3v-24.3v-24.3h24.3v-24.3h24.3v-24.3h24.3l24.3-24.3l-24.3-24.3V217v-24.3h24.3v-24.3
        l24.3,24.3V217v24.3v24.3l24.3,24.3v24.3l24.3,24.3h24.3l24.3,24.3v-24.3l-24.3-24.3l24.3-24.3h-24.3v-24.3l-24.3-24.3h24.3
        l-24.3-24.3h-24.3v-24.3v-24.3V144l24.3-24.3h-24.3V95.4V71V46.7l-24.3-24.3h-24.3V-1.9v-24.3h24.3v-24.3h-24.3v-24.3l-24.3,24.3
        l-24.3,24.3h-24.3v24.3h-24.3v24.3l-24.3,24.3h24.3L1325.6,71v24.3h-24.3H1277v24.3h-24.3h-24.3L1204,144h-24.3l24.3,24.3h-24.3
        l-24.3,24.3l-24.3-24.3h-24.3l-24.3,24.3l-24.3-24.3l-24.3,24.3h-24.3l24.3-24.3l24.3-24.3h-24.3l-24.3-24.3h-24.3L960.8,144h-24.3
        l-24.3,24.3h-24.3l-24.3,24.3l24.3,24.3l-24.3,24.3V217v-24.3h-24.3L814.8,217v24.3h24.3l-24.3,24.3v-24.3l-24.3,24.3l-24.3,24.3
        l-24.3-24.3h24.3l24.3-24.3V217l24.3-24.3l24.3-24.3L814.8,144v24.3h-24.3l-24.3,24.3V217l-24.3-24.3v-24.3l-24.3,24.3l-24.3-24.3
        v24.3l-24.3-24.3L644.5,144l-24.3,24.3V144h-24.3l-24.3-24.3V144l-24.3-24.3V144l-24.3-24.3l24.3-24.3L571.6,71v24.3l24.3,24.3
        h24.3V95.4V71V46.7l-24.3-24.3h24.3V-1.9l-24.3-24.3l-24.3-24.3l-24.3-24.3v24.3l-24.3-24.3v24.3l-24.3-24.3h-24.3l-24.3-24.3
        l-24.3-24.3l-24.3,24.3v-24.3L377-99.2h-24.3v24.3L377-50.6h-24.3v24.3h-24.3L304-1.9h24.3v24.3h24.3L377-1.9v24.3h24.3l24.3-24.3
        h24.3h24.3h24.3l24.3,24.3v24.3l-24.3-24.3h-24.3h-24.3l-24.3,24.3V71l24.3,24.3L474.3,71v24.3v24.3L449.9,144v-24.3l24.3-24.3
        h-24.3l-24.3,24.3V95.4l-24.3,24.3V95.4h24.3L401.3,71L377,95.4h-24.3L377,71l-24.3-24.3L328.3,71L304,46.7V22.4L279.7-1.9H304
        l-24.3-24.3L304-50.6h24.3h24.3l-24.3-24.3H304l-24.3,24.3l-24.3-24.3h24.3l-24.3-24.3H231l-24.3-24.3l-24.3-24.3v-24.3v-24.3
        l-24.3,24.3l-24.3,24.3h-24.3H85.1v-24.3v-24.3v-24.3V-245.2L85.1-245.2z M352.6-220.9h-24.3L304-196.5l-24.3,24.3v-24.3h-24.3
        v-24.3L231-196.5l-24.3-24.3v24.3v24.3v24.3l24.3,24.3h24.3v-24.3h24.3l24.3-24.3h24.3h24.3v-24.3l24.3,24.3v-24.3L352.6-220.9
        L352.6-220.9z M-60.9-196.5h-24.3v24.3L-60.9-196.5L-60.9-196.5z M401.3-172.2H377l24.3,24.3V-172.2L401.3-172.2z M-85.2-172.2
        v24.3v24.3v24.3v24.3v24.3v24.3v24.3v24.3v24.3V71h24.3l24.3-24.3h24.3l-24.3-24.3l24.3-24.3l-24.3-24.3v-24.3v-24.3l-24.3-24.3
        v-24.3v-24.3L-85.2-172.2L-85.2-172.2z M766.2-123.6v24.3h-24.3l-24.3,24.3h24.3h24.3l24.3-24.3L766.2-123.6L766.2-123.6z
         M1666.2-99.2v24.3l24.3,24.3v-24.3L1666.2-99.2L1666.2-99.2z M1568.9-99.2l-24.3,24.3h24.3V-99.2L1568.9-99.2z M1520.2-74.9
        l-24.3,24.3h24.3V-74.9L1520.2-74.9z M790.5-74.9h-24.3l24.3,24.3V-74.9L790.5-74.9z M741.8-74.9v24.3h24.3L741.8-74.9L741.8-74.9z
         M12.1-74.9l-24.3,24.3h24.3V-74.9L12.1-74.9z M1666.2-50.6v24.3h24.3L1666.2-50.6L1666.2-50.6z M1325.6-50.6v24.3h24.3
        L1325.6-50.6L1325.6-50.6z M304-50.6v24.3h24.3L304-50.6L304-50.6z M837.5-26.3L813.2-1.9h24.3V-26.3L837.5-26.3z M1690.5-1.9v24.3
        v24.3l24.3-24.3L1690.5-1.9L1690.5-1.9z M861.8-1.9l-24.3,24.3h24.3V-1.9L861.8-1.9z M85.1-1.9H60.8H36.4l24.3,24.3L85.1-1.9
        L85.1-1.9z M36.4-1.9L12.1,22.4v24.3l24.3-24.3V-1.9L36.4-1.9z M1714.8,46.7h-24.3V71L1714.8,46.7L1714.8,46.7z M960.8,46.7
        L936.4,71h24.3v24.3h24.3V71L960.8,46.7L960.8,46.7z M401.3,46.7H377V71L401.3,46.7L401.3,46.7z M1204,71h-24.3v24.3L1204,71
        L1204,71z M1155.4,71v24.3H1131l24.3,24.3l24.3-24.3L1155.4,71L1155.4,71z M814.8,71h-24.3l-24.3,24.3h-24.3l-24.3,24.3V144v24.3
        l24.3-24.3v-24.3h24.3l24.3-24.3h24.3h24.3L814.8,71L814.8,71z M1009.4,95.4h-24.3v24.3L1009.4,95.4L1009.4,95.4z M-12.2,95.4v24.3
        V144h24.3v-24.3L-12.2,95.4L-12.2,95.4z M1204,119.7h-24.3V144L1204,119.7L1204,119.7z M668.9,119.7V144h24.3L668.9,119.7
        L668.9,119.7z M644.5,119.7L620.2,144h24.3V119.7L644.5,119.7z M1666.2,144h-24.3v24.3L1666.2,144L1666.2,144z M12.1,265.6
        l-24.3,24.3l24.3,24.3v-24.3V265.6L12.1,265.6z M231,289.9l-24.3,24.3l24.3,24.3v-24.3V289.9L231,289.9z M36.4,314.3v24.3h24.3
        L36.4,314.3L36.4,314.3z M1568.9,362.9h-24.3l24.3,24.3V362.9L1568.9,362.9z M60.8,411.6v24.3h24.3L60.8,411.6L60.8,411.6z
         M1422.9,435.9v24.3l24.3,24.3v24.3l24.3,24.3v24.3l24.3-24.3l-24.3-24.3l24.3-24.3h-24.3l-24.3-24.3L1422.9,435.9L1422.9,435.9z
         M1568.9,557.5h-24.3l-24.3,24.3l-24.3-24.3v24.3v24.3v24.3v24.3l24.3-24.3l24.3-24.3v-24.3L1568.9,557.5L1568.9,557.5z
         M-85.2,606.2v24.3v24.3l24.3-24.3L-85.2,606.2L-85.2,606.2z M1520.2,630.5v24.3v24.3v24.3v24.3v24.3h-24.3v24.3l-24.3,24.3
        l-24.3,24.3v24.3l24.3-24.3l24.3-24.3l24.3,24.3v-24.3l24.3-24.3l24.3-24.3v-24.3l-24.3-24.3v-24.3v-24.3L1520.2,630.5
        L1520.2,630.5z M1495.9,825.1h-24.3v24.3L1495.9,825.1L1495.9,825.1z M1447.2,849.4l-24.3,24.3h24.3v24.3l24.3-24.3L1447.2,849.4
        L1447.2,849.4z"/>
    <path id="world" style="fill:#F5F1F1;" d="M304-26.3v-24.3l24.3,24.3H304z M1520.2-74.9l-24.3,24.3h24.3V-74.9z M1325.6-50.6v24.3
        l24.3-24.3H1325.6z M328.3-26.3L304-1.9h24.3v24.3h24.3L377-1.9v24.3h24.3l24.3-24.3h24.3h24.3h24.3l24.3,24.3h24.3l24.3-24.3
        v-24.3h24.3l-24.3-24.3l-24.3-24.3v24.3l-24.3-24.3v24.3l-24.3-24.3h-24.3l-24.3-24.3l-24.3-24.3l-24.3,24.3v-24.3L377-99.2h-24.3
        v24.3L377-50.6h-24.3v24.3H328.3z M85.1-1.9H60.8H36.4l24.3,24.3L85.1-1.9z M595.9,22.4V-1.9l24.3,24.3V-1.9l-24.3-24.3L571.6-1.9
        L595.9,22.4z M1544.5,581.8l24.3-24.3h-24.3l-24.3,24.3l-24.3-24.3v24.3v24.3v24.3v24.3l24.3-24.3l24.3-24.3V581.8z M133.7,265.6
        h24.3h24.3l24.3-24.3h-24.3l24.3-24.3l24.3-24.3v-24.3h24.3V144v-24.3L231,95.4L255.4,71V46.7L279.7,71L304,95.4h24.3V71L304,46.7
        V22.4L279.7-1.9H304l-24.3-24.3L304-50.6h24.3h24.3l-24.3-24.3H304l-24.3,24.3l-24.3-24.3h24.3l-24.3-24.3H231l-24.3-24.3
        l-24.3-24.3v-24.3v-24.3l-24.3,24.3l-24.3,24.3h-24.3H85.1v-24.3v-24.3v-24.3v-24.3H60.8H36.4H12.1h-24.3h-24.3v24.3l-24.3,24.3
        l24.3,24.3v24.3l24.3,24.3h24.3l24.3,24.3v24.3h24.3h24.3v24.3v24.3l24.3,24.3L85.1,22.4L60.8,46.7V71L36.4,95.4v24.3L12.1,144
        h24.3v24.3L60.8,144v-24.3l24.3-24.3V71l24.3-24.3h24.3L109.4,71v24.3l-24.3,24.3V144v24.3H60.8l-24.3,24.3V217l-24.3,24.3v24.3
        l24.3-24.3l24.3,24.3v-24.3V217l24.3,24.3l24.3,24.3l24.3,24.3V265.6z M60.8,411.6v24.3h24.3L60.8,411.6z M1520.2,679.1v24.3v24.3
        v24.3h-24.3v24.3l-24.3,24.3l-24.3,24.3v24.3l24.3-24.3l24.3-24.3l24.3,24.3v-24.3l24.3-24.3l24.3-24.3v-24.3l-24.3-24.3v-24.3
        v-24.3l-24.3-24.3v24.3V679.1z M1495.9,825.1h-24.3v24.3L1495.9,825.1z M1447.2,873.7v24.3l24.3-24.3l-24.3-24.3l-24.3,24.3H1447.2
        z M36.4,338.6h24.3l-24.3-24.3V338.6z M12.1,46.7l24.3-24.3V-1.9L12.1,22.4V46.7z M12.1-50.6v-24.3l-24.3,24.3H12.1z M-12.2,95.4
        v24.3V144h24.3v-24.3L-12.2,95.4z M12.1,314.3v-24.3v-24.3l-24.3,24.3L12.1,314.3z M-85.2-123.6v24.3v24.3v24.3v24.3v24.3v24.3
        v24.3V71h24.3l24.3-24.3h24.3l-24.3-24.3l24.3-24.3l-24.3-24.3v-24.3v-24.3l-24.3-24.3v-24.3v-24.3l-24.3-24.3v24.3V-123.6z
         M-85.2-172.2l24.3-24.3h-24.3V-172.2z M1568.9-74.9v-24.3l-24.3,24.3H1568.9z M1617.5-220.9l-24.3-24.3v24.3l24.3,24.3V-220.9z
         M401.3-172.2H377l24.3,24.3V-172.2z M377-245.2l-24.3,24.3H377V-245.2z M304-220.9l24.3-24.3H304h-24.3h-24.3v24.3h24.3H304z
         M255.4-123.6v-24.3h24.3l24.3-24.3h24.3h24.3v-24.3l24.3,24.3v-24.3l-24.3-24.3h-24.3L304-196.5l-24.3,24.3v-24.3h-24.3v-24.3
        L231-196.5l-24.3-24.3v24.3v24.3v24.3l24.3,24.3H255.4z M-85.2,654.8l24.3-24.3l-24.3-24.3v24.3V654.8z M1641.8-123.6l24.3,24.3
        v-24.3v-24.3l-24.3-24.3l-24.3-24.3h-24.3v-24.3h-24.3v-24.3h-24.3h-24.3h-24.3h-24.3h-24.3h-24.3h-24.3h-24.3h-24.3v24.3v24.3
        v24.3v24.3l24.3,24.3h24.3v24.3l24.3-24.3l24.3-24.3v24.3v24.3l24.3,24.3v-24.3v-24.3l24.3-24.3v24.3l24.3,24.3h24.3l24.3-24.3
        l24.3-24.3v-24.3h24.3l24.3,24.3V-123.6z M1641.8,168.3l24.3-24.3h-24.3V168.3z M1666.2-50.6v24.3h24.3L1666.2-50.6z M1690.5-50.6
        v-24.3l-24.3-24.3v24.3L1690.5-50.6z M1690.5,71l24.3-24.3h-24.3V71z M1690.5-1.9v24.3v24.3l24.3-24.3L1690.5-1.9z M1398.6,800.8
        l-24.3-24.3h-24.3l24.3-24.3v-24.3v-24.3l24.3-24.3l-24.3-24.3v-24.3l24.3,24.3v-24.3v-24.3v-24.3l-24.3-24.3v24.3l-24.3,24.3
        l-24.3-24.3h-24.3l-24.3-24.3l-24.3-24.3h-24.3H1204v24.3v24.3v24.3l-24.3,24.3h-24.3v-24.3l-24.3,24.3l-24.3,24.3h-24.3
        l-24.3-24.3h-24.3h-24.3l-24.3-24.3l-24.3,24.3h-24.3l-24.3-24.3h-24.3v24.3h-24.3l24.3-24.3h-24.3h-24.3v24.3h-24.3l-24.3,24.3
        l-24.3,24.3l-24.3-24.3v24.3l-24.3,24.3v-24.3l-24.3,24.3v24.3l-24.3,24.3h-24.3h-24.3l-24.3-24.3v24.3h-24.3l24.3,24.3l-24.3,24.3
        l-24.3-24.3v-24.3h-24.3h-24.3h-24.3l-24.3-24.3l-24.3,24.3l-24.3-24.3v24.3L377,727.8l24.3-24.3H377v-24.3l-24.3-24.3l-24.3-24.3
        H304h-24.3l-24.3-24.3v-24.3v-24.3l24.3-24.3h-24.3H231v-24.3v-24.3v-24.3v-24.3h-24.3v-24.3l-24.3-24.3v-24.3l-24.3-24.3
        l-24.3-24.3v-24.3h-24.3v-24.3H85.1l-24.3,24.3v24.3v24.3v24.3l24.3,24.3v24.3h24.3v24.3l-24.3,24.3H60.8l-24.3,24.3l-24.3-24.3
        v-24.3l-24.3-24.3h-24.3v-24.3v-24.3l-24.3-24.3v-24.3v-24.3v-24.3v-24.3L-85.2,217v24.3v24.3v24.3v24.3v24.3v24.3v24.3v24.3v24.3
        v24.3v24.3v24.3v24.3v24.3v24.3v24.3l24.3-24.3v-24.3l24.3-24.3v-24.3l24.3,24.3v-24.3h24.3l-24.3,24.3v24.3v24.3l-24.3,24.3v24.3
        v24.3l-24.3,24.3v24.3v24.3v24.3v24.3v24.3l-24.3,24.3v24.3v24.3v24.3v24.3v24.3V971v24.3h24.3h24.3h24.3h24.3h24.3h24.3h24.3h24.3
        h24.3h24.3h24.3l24.3-24.3H231v-24.3v-24.3l-24.3-24.3v-24.3v-24.3l24.3-24.3h-24.3h-24.3h-24.3l-24.3-24.3l24.3-24.3l-24.3-24.3
        v-24.3v-24.3l24.3-24.3l24.3,24.3v24.3v24.3v24.3l24.3,24.3H231l24.3,24.3L231,849.4l24.3,24.3l24.3,24.3l24.3,24.3l24.3,24.3
        l24.3,24.3l24.3,24.3h24.3h24.3h24.3h24.3h24.3h24.3h24.3h24.3h24.3h24.3h24.3h24.3h24.3h24.3h24.3h24.3h24.3h24.3h24.3h24.3h24.3
        h24.3h24.3h24.3h24.3h24.3h24.3h24.3h24.3h24.3h24.3h24.3h24.3h24.3h24.3h24.3h24.3h24.3h24.3V971h-24.3l24.3-24.3l-24.3-24.3
        l-24.3-24.3h-24.3l24.3-24.3v-24.3h24.3v-24.3H1277l-24.3,24.3l-24.3-24.3l24.3-24.3l24.3-24.3v24.3l24.3-24.3h24.3v24.3v24.3
        l24.3-24.3l24.3,24.3h-24.3l24.3,24.3v24.3l24.3-24.3l24.3-24.3L1398.6,800.8z M1422.9,435.9v24.3h24.6L1422.9,435.9z
         M1447.2,484.5L1447.2,484.5v24.3l24.3,24.3v24.3l24.3-24.3l-24.3-24.3l24.3-24.3h-24.3l-24.2-24.3h-24.3L1447.2,484.5z"/>
    <path id="russia" style="fill:#CCCBCB;" d="M1471.6-50.6h-24.3l24.3,24.3V-50.6z M377,46.7V71l24.3-24.3H377z M547.2,46.7L522.9,71
         M766.2,95.4h-24.3l-24.3,24.3V144l24.3-24.3L766.2,95.4z M717.5,144v24.3l24.3-24.3H717.5z M668.9,119.7V144h24.3L668.9,119.7z
         M231,289.9l-24.3,24.3l24.3,24.3v-24.3V289.9z M815,241.5l24.2-0.2l-24.3,24.3L815,241.5l-48.8,48.5l-24.3-24.3h24.3v0.2
        l24.2-24.5h0.2v-24.2V217l24.2-24.3h0.2l24.3-24.3h-24.3h-24.3l0,0l-24.3,24.3l0,0V217l-24.3-24.3v-24.3l-24.3,24.3l-24.3-24.3
        v24.3l-24.3-24.3L644.5,144v-24.3L620.2,144h-24.3l-24.3-24.3V144l-24.3-24.3V144l0,0l0,0l-24.3-24.3l24.3-24.3l0,0l0,0L571.6,71
        v24.3l24.3,24.3h24.3V95.4V71V46.7l-24.3-24.3l-24.3,24.3h-24.3L522.9,71l0,0l-24.3,24.3v24.3V144l-24.3,24.3V144l24.3-24.3h-24.3
        L449.9,144v-24.3V95.4l-24.3,24.3V95.4l-24.3,24.3V95.4h24.3L401.3,71L377,95.4h-24.3L377,71l-24.3-24.3L328.3,71v24.3l0,0H304l0,0
        L279.7,71l-24.3-24.3V71L231,95.4l24.3,24.3V144v24.3L231,192.6v0.5l-48.6,48.2h24.3v24.3H231v24.3l24.3,24.3l24.3,24.3h-24.3H231
        v24.3l24.3,24.3v24.3L231,435.9v24.3v24.3v24.3v24.3h24.3h24.3l-24.3,24.3h24.3l24.3-24.3v-24.3v-24.3l24.3-24.3l24.3-24.3
        l24.3,24.3h24.3v24.3L377,508.9v-24.3h-24.3v24.3v24.3l-24.3,24.3h24.3v24.3l-24.3-24.3v24.3v24.3L304,630.5h24.3l24.3,24.3
        l24.3,24.3v24.3h24.3L377,727.8l24.3,24.3v-24.3l24.3,24.3l24.3-24.3v-24.3l-24.3-24.3v-24.3v-24.3l-24.3-24.3H377l24.3-24.3l0,0
        h24.3v-24.3l24.3-24.3h24.3l0,0l0,0l24.3,24.3l0,0l0,0h-24.3v24.3h-24.3l-24.3,24.3l24.3,24.3v24.3h24.3l0,0l24.3,24.3l-24.3,24.3
        l24.3,24.3h24.3h24.3v24.3v24.3l24.3,24.3l24.3-24.3l-24.3-24.3h24.3v-24.3l24.3,24.3h24.3h24.3l24.3-24.3v-24.3l24.3-24.3v24.3
        l24.3-24.3v-24.3l24.3,24.3l24.3-24.3l24.3-24.3h24.3v-24.3l24.3-24.3l24.3,24.3v-24.3h24.3l24.3-24.3l24.3,24.3v24.3h24.3l0,0l0,0
        l24.3,24.3l0,0h24.3l0,0h24.3l24.3,24.3h24.3l24.3-24.3l24.3-24.3v24.3h24.3l24.3-24.3v-24.3v-24.3v-24.3h24.3h24.3l24.3,24.3
        l24.3,24.3h24.3l24.3,24.3l24.3-24.3v-24.3l24.3,24.3v24.3v24.3v24.3l-24.3-24.3v24.3l24.3,24.3h24.3v-24.3v-24.3l24.3-24.3v-24.3
        v-24.3v-24.3l-24.3-24.3v-24.3v-24.3l-24.3-24.3h-24.3v24.3h-24.3h-24.3l24.3-24.3v-24.3v-24.3v-24.3v-24.3h24.3v-24.3h24.3v-24.3
        h24.3l24.3-24.3l-24.3-24.3V217v-24.3h24.3v-24.3l24.3,24.3V217v24.3v24.3l24.3,24.3v24.3l24.3,24.3h24.3l24.3,24.3v-24.3
        l-24.3-24.3l24.3-24.3h-24.3v-24.3l-24.3-24.3h24.3l-24.3-24.3h-24.3v-24.3v-24.3V144l24.3-24.3h-24.3V95.4V71V46.7l-24.3-24.3
        h-24.3h-24.3v24.3L1398.6,71l24.3,24.3l-24.3,24.3V95.4l-24.3,24.3h-24.3V95.4L1325.6,71v24.3h-24.3V71L1277,95.4v24.3h-24.3h-24.3
        L1204,144h-24.3l24.3,24.3h-24.3l-24.3,24.3l-24.3-24.3h-24.3l-24.3,24.3l-24.3-24.3l-24.3,24.3h-24.3l24.3-24.3h-24.3l-24.3,24.3
        L960.8,217v-24.3h-24.3l-24.3-24.3h-24.3l-24.3,24.3l24.3,24.3l-24.3,24.3V217v-24.3h-24.3L814.8,217L815,241.5z M644.5,630.5h24.3
        l24.3,24.3h-24.3L644.5,630.5z M498.6,679.1L498.6,679.1 M644.5,727.8v-24.3l0,0l24.3,24.3H644.5z M1009.4,606.2L1009.4,606.2
        l24.3-24.3l24.3-24.3l24.3-24.3v24.3l-24.3,24.3l-24.3,24.3l0,0H1009.4z M1568.9,387.2v-24.3h-24.3L1568.9,387.2z"/>
</g>
                    </svg>