<svg preserveAspectRatio="xMidYMid slice" version="1.1" xmlns="http://www.w3.org/2000/svg" xmlns:xlink="http://www.w3.org/1999/xlink" x="0px" y="0px" viewBox="0 0 580 360" style="enable-background:new 0 0 580 360;" xml:space="preserve">
                        <g id="Background">
                            <rect id="background" x="-385.5" y="-227" style="fill:#FFFFFF;" width="2198.8" height="1516"/>
                            <path id="continents" style="fill:#F5F1F1;" d="M1634.4-224.6v27.7l2,2h27.7v27.7l2,2h28.9l29.1,29.1l29.1,29.1v28.9v25l-25.8-25.8
                                v-28.9l-0.6-1.4l-29.7-29.7l-1.4-0.6h-29.7l-2,2v28.9L1635-79.3l-29.1,29.1h-28.1l-28.5-28.5v-28.9l-3.4-1.4l-29.7,29.7l-0.6,1.4
                                v29.7v25L1489.8-49v-28.9v-29.7l-3.4-1.4l-29.7,29.7l-26.4,26.4v-25l-2-2h-28.9l-28.5-28.5v-28.9v-29.7v-29.7v-27.7h27.7h29.7h29.7
                                h29.7h29.7h29.7h29.7h29.7H1634.4 M115.5-224.6l-25.8,25.8H60.8H33v-25.8h27.7h29.7H115.5 M-179.1-224.6v27.7v29.7v29.7v29.7l2,2
                                h29.7h29.7l1.4-0.6l29.7-29.7l26.4-26.4v25v29.7l0.6,1.4l29.7,29.7l29.7,29.7l1.4,0.6h28.9L56-20.4H31l-1.4,3.4l29.7,29.7h2.8
                                l29.1-29.1h28.1l25.8,25.8h-25H90.5l-1.4,0.6L59.4,39.6v2.8l26.4,26.4h-25l-1.4,3.4l29.1,29.1v28.9l0.6,1.4l29.7,29.7h2.8
                                l28.3-28.3l27,27l-28.3,28.3l1.4,3.4h29.7l1.4-0.6l28.3-28.3l25,25h-25l-2,2v29.7l3.4,1.4l26.4-26.4v25l3.4,1.4l29.1-29.1h24.2
                                L267.5,218l-0.6,1.4v29.7l3.4,1.4l29.7-29.7l0.6-1.4v-29.7v-29.7l-3.4-1.4l-28.3,28.3l-27.7-27.7V131l28.5-28.5h28.9h28.9
                                l29.1,29.1l3.4-1.4v-29.7l-0.6-1.4l-29.7-29.7l-1.4-0.6h-29.7h-29.7h-29.7l-1.4,0.6l-29.1,29.1h-27V70.7l-3.4-1.4l-29.1,29.1h-27
                                V70.7l-2-2h-25L121,43h28.9l2-2V13.3h27.7l1.4-3.4l-29.1-29.1v-27h27.7l1.4-0.6l26.4-26.4v25l3.4,1.4l28.3-28.3l28.3,28.3
                                l29.7,29.7l1.4,0.6h28.9l29.1,29.1l3.4-1.4v-25l26.4,26.4l3.4-1.4v-25l26.4,26.4l29.7,29.7L475,71.5v27h-27.7l-1.4,3.4L475,131
                                v28.9v29.7v27.7h-27l-28.5-28.5v-28.9l-3.4-1.4l-29.7,29.7L356.7,218v2.8l29.7,29.7l3.4-1.4v-25l26.4,26.4l3.4-1.4v-25l26.4,26.4
                                l1.4,0.6H475v27.7l3.4,1.4l28.3-28.3l28.3,28.3l29.7,29.7l3.4-1.4v-25l26.4,26.4h2.8l26.4-26.4v25l0.6,1.4l29.7,29.7l3.4-1.4v-28.9
                                l28.5-28.5h28.9l2-2v-25l25,25l-28.3,28.3l-29.7,29.7l-0.6,1.4v28.9l-28.5,28.5h-28.9l-1.4,3.4l29.7,29.7h2.8l29.7-29.7l26.4-26.4
                                v25l3.4,1.4l29.7-29.7l-1.4-3.4h-27.7v-27l28.5-28.5h27v27.7V368l3.4,1.4l29.7-29.7v-2.8L777,308.6l27.7-27.7h28.9l1.4-0.6
                                l29.1-29.1h28.9l1.4-0.6l29.1-29.1h28.1l29.1,29.1l1.4,0.6h25L981,277.5l-29.7,29.7l1.4,3.4h29.7l1.4-0.6l28.3-28.3l28.3,28.3h2.8
                                l29.1-29.1h28.1l29.1,29.1h2.8l29.1-29.1h28.9l1.4-3.4l-26.4-26.4h25l1.4-0.6l29.1-29.1h28.9h29.7l2-2v-27.7h27.7h29.7l2-2v-28.9
                                l29.1-29.1l-1.4-3.4h-25l26.4-26.4l0.6-1.4V72.7h27.7l2-2V43h27.7l1.4-0.6l29.7-29.7l26.4-26.4v25l2,2h27.7V39h-27.7l-2,2v29.7
                                v29.7l2,2h28.9l28.5,28.5v28.9v29.7v29.7l2,2h25l-26.4,26.4l-0.6,1.4v29.7v29.7v29.7l2,2h28.9l25.8,25.8h-25l-1.4,3.4l29.1,29.1
                                v28.9l2,2h25l-26.4,26.4v2.8l29.1,29.1v24.2l-26.4-26.4l-1.4-0.6h-28.9l-28.5-28.5v-28.9l-0.6-1.4l-29.1-29.1V368v-29.7v-29.7
                                l-0.6-1.4l-29.7-29.7l-3.4,1.4v27.7H1458l-2,2v29.7V368l0.6,1.4l28.3,28.3l-27.7,27.7h-28.9l-2,2v27.7h-27.7l-2,2V485h-27.7l-2,2
                                v29.7v29.7v29.7v28.9l-29.1,29.1l1.4,3.4h29.7h29.7l2-2v-27.7h27l28.5,28.5v28.9v29.7l0.6,1.4l29.1,29.1v28.9v29.7v28.9l-29.1,29.1
                                l-0.6,1.4v29.7v27.7h-27.7l-1.4,0.6l-29.7,29.7l-0.6,1.4v29.7v28.9l-29.1,29.1l1.4,3.4h28.9l29.1,29.1l28.3,28.3l-28.3,28.3
                                l-26.4,26.4v-25l-0.6-1.4l-26.4-26.4h25l1.4-3.4l-29.7-29.7h-2.8l-26.4,26.4v-25v-29.7l-2-2h-29.7l-1.4,0.6l-26.4,26.4v-25
                                l-3.4-1.4l-29.7,29.7l-29.7,29.7v2.8l29.7,29.7h2.8l29.1-29.1h27v25.8h-27.7l-2,2v28.9l-29.1,29.1l1.4,3.4h28.9l29.1,29.1
                                l28.3,28.3l-28.3,28.3l1.4,3.4h27.7v25.8h-27.7h-29.7h-29.7h-29.7h-29.7h-29.7H1131h-29.7h-29.7h-29.7h-29.7h-29.7h-29.7h-29.7
                                h-29.7h-29.7h-29.7H804h-29.7h-29.7h-29.7h-29.7h-29.7h-29.7h-29.7h-29.7h-29.7h-29.7H477h-29.7h-29.7h-29.7H358h-29.7h-29.7h-29.7
                                h-29.7h-29.7h-28.9l-29.1-29.1l-29.7-29.7l-29.7-29.7l-29.7-29.7l-29.7-29.7l-28.3-28.3l28.3-28.3v-2.8l-29.7-29.7l-1.4-0.6h-28.9
                                l-28.5-28.5v-28.9v-29.7v-29.7l-0.6-1.4l-29.7-29.7h-2.8l-29.7,29.7l-0.6,1.4v29.7v29.7v29.7l2,2h25l-26.4,26.4v2.8l29.7,29.7
                                l1.4,0.6h29.7h29.7h25l-26.4,26.4l-0.6,1.4v29.7v29.7l0.6,1.4l29.1,29.1v28.9v27.7h-27.7l-1.4,0.6l-29.1,29.1h-28.9h-29.7h-29.7
                                h-29.7h-29.7h-29.7h-29.7H-296h-29.7h-29.7h-27.7v-27.7v-29.7v-29.7v-29.7V1141v-29.7v-28.9l29.1-29.1l0.6-1.4v-29.7v-29.7v-29.7
                                v-29.7V904l29.1-29.1l0.6-1.4v-29.7v-28.9l29.1-29.1l0.6-1.4v-29.7v-28.9l29.1-29.1l-1.4-3.4H-296l-2,2v25l-26.4-26.4l-3.4,1.4V724
                                l-29.1,29.1l-0.6,1.4v28.9l-25.8,25.8v-25v-29.7v-29.7v-29.7v-29.7v-29.7v-29.7v-29.7v-29.7v-29.7V487v-29.7v-29.7v-29.7V368v-25
                                l25.8,25.8v28.9v29.7v29.7V487l0.6,1.4l29.1,29.1v28.9v29.7l2,2h28.9l28.5,28.5v28.9l0.6,1.4l29.7,29.7h2.8l29.1-29.1h28.9l1.4-0.6
                                l29.7-29.7l0.6-1.4v-29.7l-2-2h-27.7v-27.7l-0.6-1.4l-29.1-29.1V487v-29.7v-28.9l28.5-28.5h27v27.7l2,2h27.7v27.7l0.6,1.4
                                l29.7,29.7l29.1,29.1v28.9l0.6,1.4l29.1,29.1v28.9l2,2H1.3l1.4-0.6l29.7-29.7l0.6-1.4v-29.7l-0.6-1.4L3.3,515.9v-27H31h29.7
                                l1.4-3.4l-29.7-29.7L3.3,426.7v-28.9l-2-2h-27.7V368l-3.4-1.4L-59,395.8h-28.9h-29.7l-2,2v25l-26.4-26.4l-29.7-29.7l-29.7-29.7
                                l-3.4,1.4V368v25l-26.4-26.4h-2.8l-26.4,26.4v-24.2l29.1-29.1l0.6-1.4v-28.9l28.5-28.5h28.9l2-2v-29.7v-28.9L-146,191l0.6-1.4
                                v-28.9l29.1-29.1l-1.4-3.4h-29.7l-1.4,0.6l-29.7,29.7l-0.6,1.4v28.9l-29.1,29.1l-0.6,1.4v28.9l-25.8,25.8v-25l-2-2h-25l26.4-26.4
                                l0.6-1.4v-28.9l29.1-29.1l0.6-1.4V131l29.1-29.1l29.7-29.7v-2.8l-29.1-29.1V11.3v-29.7l-2-2h-29.7h-27.7v-27.7l-0.6-1.4l-29.7-29.7
                                l-1.4-0.6h-28.9l-28.5-28.5v-28.9l-0.6-1.4l-28.3-28.3l28.3-28.3l0.6-1.4v-27.7h27.7h29.7h29.7h29.7H-179.1 M1668.1-221.8
                                l25.8,25.8v24.2l-25.8-25.8V-221.8 M177.7-221.8v23h-23L177.7-221.8 M149.1-194.8l28.5,28.5v24.2l-26.4-26.4l-3.4,1.4v27.7h-27.7
                                H90.5l-1.4,0.6L60-109.6H31l-2,2v27.7h-27l-28.5-28.5v-28.9v-29.7v-25l26.4,26.4h2.8L29-192.1v25l2,2h27.7v27.7l3.4,1.4l29.7-29.7
                                l29.1-29.1H149.1 M-360.2-165.1l-23,23v-23H-360.2 M207.4-135.4v23l-23-23H207.4 M-383.2-132.6l25.8,25.8v28.9v29.7l0.6,1.4
                                l29.1,29.1v28.9V41l0.6,1.4l28.3,28.3l-28.3,28.3v2.8l26.4,26.4h-25l-1.4,0.6l-29.1,29.1h-27v-27.7v-29.7V70.7V41V11.3v-29.7v-29.7
                                v-29.7v-29.7V-132.6 M657.3-73.2l25,25l-27.7,27.7h-28.9h-25l25.8-25.8h28.9l2-2V-73.2 M1757.3-43.4l25.8,25.8V6.5l-25.8-25.8
                                V-43.4 M1634.4-43.4v23h-23L1634.4-43.4 M683.1-16.5v23l-23-23H683.1 M1575-13.7v23h-23L1575-13.7 M627.6-13.7l23,23h-23V-13.7
                                 M-268.3-13.7v23h-23L-268.3-13.7 M1757.3,16l23,23h-23V16 M1341.1,16l23,23h-23V16 M92.5,16l23,23h-23V16 M740.6,45.8v23h-23
                                L740.6,45.8 M-181.8,72.7l-25,25l-25-25h25H-181.8 M1787.1,75.5l25,25l-25,25v-25V75.5 M770.3,75.5v23h-23L770.3,75.5 M-238.5,75.5
                                v24.2l-25.8,25.8v-24.2L-238.5,75.5 M1810,132.2l-23,23v-23H1810 M204.6,132.2l-23,23v-23H204.6 M893.2,133l27.7,27.7v27h-25.8
                                v-27.7l-2-2h-25L893.2,133 M1185.7,161.9l-23,23v-23H1185.7 M714,161.9l25.8,25.8h-25h-29.7l-1.4,0.6l-29.1,29.1h-28.9l-2,2v28.9
                                l-25.8,25.8v-25v-28.9l28.5-28.5h28.9l1.4-0.6l29.1-29.1H714 M1133,164.7l25,25l-27,27l-25-25h25l2-2V164.7 M947.9,191.6l-23,23
                                v-23H947.9 M-294,194.4l25.8,25.8v27H-294v-27.7V194.4 M1185.7,221.4l-23,23v-23H1185.7 M538.4,224.1l23,23h-23V224.1 M504.7,224.1
                                v23h-23L504.7,224.1 M1750.6,251.1l-23,23v-23H1750.6 M-268.3,402.5v25v25l-25-25L-268.3,402.5 M-0.7,432.3v25v25l-25-25
                                L-0.7,432.3 M-234.6,462l23,23h-23V462 M1634.4,518.7v23l-23-23H1634.4 M-204.8,580.9l23,23h-23V580.9 M1460,610.6l26.4,26.4
                                l29.7,29.7l1.4,0.6h25l-26.4,26.4v2.8l28.3,28.3l-25,25v-25l-0.6-1.4l-29.1-29.1v-28.9l-0.6-1.4l-29.1-29.1V610.6 M1631.7,756.5
                                l-26.4,26.4l-0.6,1.4v28.9l-29.1,29.1l-26.4,26.4v-25V814v-29.7v-25l26.4,26.4h2.8l29.1-29.1L1631.7,756.5 M-383.2,818.7l25,25
                                l-25,25v-25V818.7 M1578.9,848.5l25.8,25.8v28.9v29.7l0.6,1.4l29.1,29.1v28.1l-29.1,29.1l-29.7,29.7l-0.6,1.4v25l-26.4-26.4h-2.8
                                l-29.7,29.7l-26.4,26.4v-24.2l29.1-29.1l29.7-29.7l0.6-1.4v-27.7h27.7l2-2v-29.7v-29.7v-29.7v-29.7V848.5 M1542.5,1083.5l-23,23
                                v-23H1542.5 M1487.8,1114.1l27,27l-25,25v-25l-2-2h-25L1487.8,1114.1 M1666.2-226.6v29.7l29.7,29.7v-29.7L1666.2-226.6
                                L1666.2-226.6z M1636.4-226.6h-29.7H1577h-29.7h-29.7h-29.7H1458h-29.7h-29.7h-29.7v29.7v29.7v29.7v29.7l29.7,29.7h29.7v29.7
                                l29.7-29.7l29.7-29.7v29.7v29.7l29.7,29.7v-29.7v-29.7l29.7-29.7v29.7l29.7,29.7h29.7l29.7-29.7l29.7-29.7v-29.7h29.7l29.7,29.7
                                v29.7l29.7,29.7v-29.7v-29.7l-29.7-29.7l-29.7-29.7h-29.7v-29.7h-29.7V-226.6L1636.4-226.6z M179.7-226.6l-29.7,29.7h29.7V-226.6
                                L179.7-226.6z M120.2-226.6H90.5H60.8H31v29.7h29.7h29.7L120.2-226.6L120.2-226.6z M-177.1-226.6h-29.7h-29.7h-29.7H-296h-29.7
                                v29.7l-29.7,29.7l29.7,29.7v29.7l29.7,29.7h29.7l29.7,29.7v29.7h29.7h29.7v29.7V41l29.7,29.7l-29.7,29.7l-29.7,29.7v29.7
                                l-29.7,29.7v29.7l-29.7,29.7h29.7v29.7l29.7-29.7v-29.7l29.7-29.7v-29.7l29.7-29.7h29.7l-29.7,29.7v29.7l-29.7,29.7v29.7v29.7
                                h-29.7l-29.7,29.7v29.7l-29.7,29.7v29.7l29.7-29.7l29.7,29.7V368v-29.7l29.7,29.7l29.7,29.7l29.7,29.7v-29.7h29.7h29.7l29.7-29.7
                                v29.7H1.3v29.7L31,457.2L60.8,487H31H1.3v29.7L31,546.4v29.7L1.3,605.9h-29.7v-29.7l-29.7-29.7v-29.7L-87.9,487l-29.7-29.7v-29.7
                                h-29.7v-29.7h-29.7l-29.7,29.7v29.7V487v29.7l29.7,29.7v29.7h29.7v29.7l-29.7,29.7h-29.7l-29.7,29.7l-29.7-29.7v-29.7l-29.7-29.7
                                h-29.7v-29.7v-29.7l-29.7-29.7v-29.7v-29.7v-29.7V368l-29.7-29.7V368v29.7v29.7v29.7V487v29.7v29.7v29.7v29.7v29.7v29.7v29.7v29.7
                                v29.7v29.7V814l29.7-29.7v-29.7l29.7-29.7v-29.7l29.7,29.7v-29.7h29.7l-29.7,29.7v29.7v29.7l-29.7,29.7v29.7v29.7l-29.7,29.7v29.7
                                v29.7v29.7v29.7v29.7l-29.7,29.7v29.7v29.7v29.7v29.7v29.7v29.7v29.7h29.7h29.7h29.7h29.7h29.7h29.7h29.7h29.7h29.7h29.7h29.7
                                l29.7-29.7H1.3v-29.7v-29.7l-29.7-29.7V1141v-29.7l29.7-29.7h-29.7h-29.7h-29.7l-29.7-29.7l29.7-29.7h-29.7v-29.7v-29.7v-29.7
                                l29.7-29.7l29.7,29.7v29.7v29.7v29.7l29.7,29.7H1.3l29.7,29.7l-29.7,29.7L31,1141l29.7,29.7l29.7,29.7l29.7,29.7l29.7,29.7
                                l29.7,29.7h29.7h29.7h29.7h29.7h29.7H358h29.7h29.7h29.7H477h29.7h29.7h29.7h29.7h29.7h29.7h29.7h29.7h29.7h29.7H804h29.7h29.7
                                h29.7h29.7h29.7h29.7h29.7h29.7h29.7h29.7h29.7h29.7h29.7h29.7h29.7h29.7h29.7h29.7v-29.7h-29.7l29.7-29.7l-29.7-29.7l-29.7-29.7
                                h-29.7l29.7-29.7v-29.7h29.7v-29.7h-29.7l-29.7,29.7l-29.7-29.7l29.7-29.7l29.7-29.7v29.7l29.7-29.7h29.7v29.7v29.7l29.7-29.7
                                l29.7,29.7h-29.7l29.7,29.7v29.7l29.7-29.7l29.7-29.7l-29.7-29.7l-29.7-29.7h-29.7l29.7-29.7v-29.7v-29.7l29.7-29.7h29.7v-29.7
                                v-29.7l29.7-29.7v-29.7v-29.7v-29.7l-29.7-29.7v-29.7v-29.7l-29.7-29.7h-29.7v29.7h-29.7h-29.7l29.7-29.7v-29.7v-29.7v-29.7V487
                                h29.7v-29.7h29.7v-29.7h29.7l29.7-29.7L1458,368v-29.7v-29.7h29.7v-29.7l29.7,29.7v29.7V368v29.7l29.7,29.7v29.7L1577,487h29.7
                                l29.7,29.7V487l-29.7-29.7l29.7-29.7h-29.7v-29.7L1577,368h29.7l-29.7-29.7h-29.7v-29.7v-29.7v-29.7l29.7-29.7h-29.7v-29.7v-29.7
                                v-29.7l-29.7-29.7h-29.7V70.7V41h29.7V11.3h-29.7v-29.7L1458,11.3L1428.3,41h-29.7v29.7h-29.7v29.7l-29.7,29.7h29.7l-29.7,29.7
                                v29.7h-29.7h-29.7v29.7h-29.7h-29.7l-29.7,29.7h-29.7l29.7,29.7h-29.7l-29.7,29.7l-29.7-29.7h-29.7l-29.7,29.7l-29.7-29.7
                                l-29.7,29.7h-29.7l29.7-29.7l29.7-29.7h-29.7l-29.7-29.7h-29.7l-29.7,29.7h-29.7l-29.7,29.7H804l-29.7,29.7l29.7,29.7L774.3,368
                                v-29.7v-29.7h-29.7l-29.7,29.7V368h29.7l-29.7,29.7V368l-29.7,29.7l-29.7,29.7l-29.7-29.7h29.7l29.7-29.7v-29.7l29.7-29.7
                                l29.7-29.7l-29.7-29.7v29.7h-29.7l-29.7,29.7v29.7l-29.7-29.7v-29.7l-29.7,29.7l-29.7-29.7v29.7l-29.7-29.7l-29.7-29.7L477,278.8
                                v-29.7h-29.7l-29.7-29.7v29.7l-29.7-29.7v29.7L358,219.4l29.7-29.7l29.7-29.7v29.7l29.7,29.7H477v-29.7v-29.7v-29.7l-29.7-29.7H477
                                V70.7L447.2,41l-29.7-29.7l-29.7-29.7v29.7L358-18.4v29.7l-29.7-29.7h-29.7l-29.7-29.7l-29.7-29.7l-29.7,29.7v-29.7l-29.7,29.7
                                h-29.7v29.7l29.7,29.7h-29.7V41h-29.7L90.5,70.7h29.7v29.7h29.7l29.7-29.7v29.7h29.7l29.7-29.7h29.7h29.7h29.7l29.7,29.7v29.7
                                l-29.7-29.7h-29.7h-29.7l-29.7,29.7v29.7l29.7,29.7l29.7-29.7v29.7v29.7l-29.7,29.7v-29.7l29.7-29.7h-29.7l-29.7,29.7v-29.7
                                l-29.7,29.7v-29.7h29.7l-29.7-29.7l-29.7,29.7h-29.7l29.7-29.7l-29.7-29.7l-29.7,29.7l-29.7-29.7v-29.7L60.8,70.7h29.7L60.8,41
                                l29.7-29.7h29.7h29.7l-29.7-29.7H90.5L60.8,11.3L31-18.4h29.7L31-48.2H1.3l-29.7-29.7l-29.7-29.7v-29.7v-29.7l-29.7,29.7
                                l-29.7,29.7h-29.7h-29.7v-29.7v-29.7v-29.7V-226.6L-177.1-226.6z M149.9-196.8h-29.7l-29.7,29.7l-29.7,29.7v-29.7H31v-29.7
                                L1.3-167.1l-29.7-29.7v29.7v29.7v29.7L1.3-77.9H31v-29.7h29.7l29.7-29.7h29.7h29.7v-29.7l29.7,29.7v-29.7L149.9-196.8L149.9-196.8z
                                 M-355.5-167.1h-29.7v29.7L-355.5-167.1L-355.5-167.1z M209.4-137.4h-29.7l29.7,29.7V-137.4L209.4-137.4z M-385.2-137.4v29.7v29.7
                                v29.7v29.7v29.7V41v29.7v29.7v29.7v29.7h29.7l29.7-29.7h29.7l-29.7-29.7l29.7-29.7L-325.7,41V11.3v-29.7l-29.7-29.7v-29.7v-29.7
                                L-385.2-137.4L-385.2-137.4z M655.3-77.9v29.7h-29.7l-29.7,29.7h29.7h29.7l29.7-29.7L655.3-77.9L655.3-77.9z M1755.3-48.2v29.7
                                l29.7,29.7v-29.7L1755.3-48.2L1755.3-48.2z M1636.4-48.2l-29.7,29.7h29.7V-48.2L1636.4-48.2z M1577-18.4l-29.7,29.7h29.7V-18.4
                                L1577-18.4z M685.1-18.4h-29.7l29.7,29.7V-18.4L685.1-18.4z M625.6-18.4v29.7h29.7L625.6-18.4L625.6-18.4z M-266.3-18.4L-296,11.3
                                h29.7V-18.4L-266.3-18.4z M1755.3,11.3V41h29.7L1755.3,11.3L1755.3,11.3z M1339.1,11.3V41h29.7L1339.1,11.3L1339.1,11.3z
                                 M90.5,11.3V41h29.7L90.5,11.3L90.5,11.3z M742.6,41l-29.7,29.7h29.7V41L742.6,41z M1785.1,70.7v29.7v29.7l29.7-29.7L1785.1,70.7
                                L1785.1,70.7z M772.3,70.7l-29.7,29.7h29.7V70.7L772.3,70.7z M-177.1,70.7h-29.7h-29.7l29.7,29.7L-177.1,70.7L-177.1,70.7z
                                 M-236.5,70.7l-29.7,29.7v29.7l29.7-29.7V70.7L-236.5,70.7z M1814.8,130.2h-29.7v29.7L1814.8,130.2L1814.8,130.2z M893.2,130.2
                                l-29.7,29.7h29.7v29.7h29.7v-29.7L893.2,130.2L893.2,130.2z M209.4,130.2h-29.7v29.7L209.4,130.2L209.4,130.2z M1190.5,159.9h-29.7
                                v29.7L1190.5,159.9L1190.5,159.9z M1131,159.9v29.7h-29.7l29.7,29.7l29.7-29.7L1131,159.9L1131,159.9z M714.8,159.9h-29.7
                                l-29.7,29.7h-29.7l-29.7,29.7v29.7v29.7l29.7-29.7v-29.7h29.7l29.7-29.7h29.7h29.7L714.8,159.9L714.8,159.9z M952.6,189.7h-29.7
                                v29.7L952.6,189.7L952.6,189.7z M-296,189.7v29.7v29.7h29.7v-29.7L-296,189.7L-296,189.7z M1190.5,219.4h-29.7v29.7L1190.5,219.4
                                L1190.5,219.4z M536.4,219.4v29.7h29.7L536.4,219.4L536.4,219.4z M506.7,219.4L477,249.1h29.7V219.4L506.7,219.4z M1755.3,249.1
                                h-29.7v29.7L1755.3,249.1L1755.3,249.1z M-266.3,397.8l-29.7,29.7l29.7,29.7v-29.7V397.8L-266.3,397.8z M1.3,427.5l-29.7,29.7
                                L1.3,487v-29.7V427.5L1.3,427.5z M-236.5,457.2V487h29.7L-236.5,457.2L-236.5,457.2z M1636.4,516.7h-29.7l29.7,29.7V516.7
                                L1636.4,516.7z M-206.8,576.1v29.7h29.7L-206.8,576.1L-206.8,576.1z M1458,605.9v29.7l29.7,29.7v29.7l29.7,29.7v29.7l29.7-29.7
                                l-29.7-29.7l29.7-29.7h-29.7l-29.7-29.7L1458,605.9L1458,605.9z M1636.4,754.5h-29.7l-29.7,29.7l-29.7-29.7v29.7V814v29.7v29.7
                                l29.7-29.7l29.7-29.7v-29.7L1636.4,754.5L1636.4,754.5z M-385.2,814v29.7v29.7l29.7-29.7L-385.2,814L-385.2,814z M1577,843.7v29.7
                                v29.7v29.7v29.7v29.7h-29.7v29.7l-29.7,29.7l-29.7,29.7v29.7l29.7-29.7l29.7-29.7l29.7,29.7v-29.7l29.7-29.7l29.7-29.7v-29.7
                                l-29.7-29.7v-29.7v-29.7L1577,843.7L1577,843.7z M1547.2,1081.6h-29.7v29.7L1547.2,1081.6L1547.2,1081.6z M1487.8,1111.3L1458,1141
                                h29.7v29.7l29.7-29.7L1487.8,1111.3L1487.8,1111.3z"/>
                            <path id="world" style="fill:#F5F1F1;" d="M90.5,41V11.3L120.2,41H90.5z M1577-18.4l-29.7,29.7h29.7V-18.4z M1339.1,11.3V41
                                l29.7-29.7H1339.1z M120.2,41L90.5,70.7h29.7v29.7h29.7l29.7-29.7v29.7h29.7l29.7-29.7h29.7h29.7h29.7l29.7,29.7h29.7l29.7-29.7V41
                                h29.7l-29.7-29.7l-29.7-29.7v29.7L358-18.4v29.7l-29.7-29.7h-29.7l-29.7-29.7l-29.7-29.7l-29.7,29.7v-29.7l-29.7,29.7h-29.7v29.7
                                l29.7,29.7h-29.7V41H120.2z M-177.1,70.7h-29.7h-29.7l29.7,29.7L-177.1,70.7z M447.2,100.5V70.7l29.7,29.7V70.7L447.2,41
                                l-29.7,29.7L447.2,100.5z M1606.7,784.3l29.7-29.7h-29.7l-29.7,29.7l-29.7-29.7v29.7V814v29.7v29.7l29.7-29.7l29.7-29.7V784.3z
                                 M-117.6,397.8h29.7h29.7l29.7-29.7h-29.7l29.7-29.7l29.7-29.7v-29.7H31v-29.7v-29.7L1.3,189.7L31,159.9v-29.7l29.7,29.7l29.7,29.7
                                h29.7v-29.7l-29.7-29.7v-29.7L60.8,70.7h29.7L60.8,41l29.7-29.7h29.7h29.7l-29.7-29.7H90.5L60.8,11.3L31-18.4h29.7L31-48.2H1.3
                                l-29.7-29.7l-29.7-29.7v-29.7v-29.7l-29.7,29.7l-29.7,29.7h-29.7h-29.7v-29.7v-29.7v-29.7v-29.7h-29.7h-29.7h-29.7H-296h-29.7v29.7
                                l-29.7,29.7l29.7,29.7v29.7l29.7,29.7h29.7l29.7,29.7v29.7h29.7h29.7v29.7V41l29.7,29.7l-29.7,29.7l-29.7,29.7v29.7l-29.7,29.7
                                v29.7l-29.7,29.7h29.7v29.7l29.7-29.7v-29.7l29.7-29.7v-29.7l29.7-29.7h29.7l-29.7,29.7v29.7l-29.7,29.7v29.7v29.7h-29.7
                                l-29.7,29.7v29.7l-29.7,29.7v29.7l29.7-29.7l29.7,29.7V368v-29.7l29.7,29.7l29.7,29.7l29.7,29.7V397.8z M-206.8,576.1v29.7h29.7
                                L-206.8,576.1z M1577,903.2v29.7v29.7v29.7h-29.7v29.7l-29.7,29.7l-29.7,29.7v29.7l29.7-29.7l29.7-29.7l29.7,29.7v-29.7l29.7-29.7
                                l29.7-29.7v-29.7l-29.7-29.7v-29.7v-29.7l-29.7-29.7v29.7V903.2z M1547.2,1081.6h-29.7v29.7L1547.2,1081.6z M1487.8,1141v29.7
                                l29.7-29.7l-29.7-29.7L1458,1141H1487.8z M-236.5,487h29.7l-29.7-29.7V487z M-266.3,130.2l29.7-29.7V70.7l-29.7,29.7V130.2z
                                 M-266.3,11.3v-29.7L-296,11.3H-266.3z M-296,189.7v29.7v29.7h29.7v-29.7L-296,189.7z M-266.3,457.2v-29.7v-29.7l-29.7,29.7
                                L-266.3,457.2z M-385.2-77.9v29.7v29.7v29.7V41v29.7v29.7v29.7v29.7h29.7l29.7-29.7h29.7l-29.7-29.7l29.7-29.7L-325.7,41V11.3
                                v-29.7l-29.7-29.7v-29.7v-29.7l-29.7-29.7v29.7V-77.9z M-385.2-137.4l29.7-29.7h-29.7V-137.4z M1636.4-18.4v-29.7l-29.7,29.7
                                H1636.4z M1695.9-196.8l-29.7-29.7v29.7l29.7,29.7V-196.8z M209.4-137.4h-29.7l29.7,29.7V-137.4z M179.7-226.6l-29.7,29.7h29.7
                                V-226.6z M90.5-196.8l29.7-29.7H90.5H60.8H31v29.7h29.7H90.5z M31-77.9v-29.7h29.7l29.7-29.7h29.7h29.7v-29.7l29.7,29.7v-29.7
                                l-29.7-29.7h-29.7l-29.7,29.7l-29.7,29.7v-29.7H31v-29.7L1.3-167.1l-29.7-29.7v29.7v29.7v29.7L1.3-77.9H31z M-385.2,873.4
                                l29.7-29.7l-29.7-29.7v29.7V873.4z M1725.6-77.9l29.7,29.7v-29.7v-29.7l-29.7-29.7l-29.7-29.7h-29.7v-29.7h-29.7v-29.7h-29.7H1577
                                h-29.7h-29.7h-29.7H1458h-29.7h-29.7h-29.7v29.7v29.7v29.7v29.7l29.7,29.7h29.7v29.7l29.7-29.7l29.7-29.7v29.7v29.7l29.7,29.7
                                v-29.7v-29.7l29.7-29.7v29.7l29.7,29.7h29.7l29.7-29.7l29.7-29.7v-29.7h29.7l29.7,29.7V-77.9z M1725.6,278.8l29.7-29.7h-29.7V278.8
                                z M1755.3,11.3V41h29.7L1755.3,11.3z M1785.1,11.3v-29.7l-29.7-29.7v29.7L1785.1,11.3z M1785.1,159.9l29.7-29.7h-29.7V159.9z
                                 M1785.1,70.7v29.7v29.7l29.7-29.7L1785.1,70.7z M1428.3,1051.8l-29.7-29.7h-29.7l29.7-29.7v-29.7v-29.7l29.7-29.7l-29.7-29.7
                                v-29.7l29.7,29.7v-29.7V814v-29.7l-29.7-29.7v29.7l-29.7,29.7l-29.7-29.7h-29.7l-29.7-29.7l-29.7-29.7h-29.7h-29.7v29.7v29.7V814
                                l-29.7,29.7H1131V814l-29.7,29.7l-29.7,29.7h-29.7l-29.7-29.7h-29.7h-29.7L922.9,814l-29.7,29.7h-29.7L833.7,814H804v29.7h-29.7
                                L804,814h-29.7h-29.7v29.7h-29.7l-29.7,29.7l-29.7,29.7l-29.7-29.7v29.7l-29.7,29.7v-29.7l-29.7,29.7v29.7l-29.7,29.7h-29.7H477
                                l-29.7-29.7v29.7h-29.7l29.7,29.7l-29.7,29.7l-29.7-29.7v-29.7H358h-29.7h-29.7l-29.7-29.7l-29.7,29.7l-29.7-29.7v29.7l-29.7-29.7
                                l29.7-29.7h-29.7v-29.7l-29.7-29.7l-29.7-29.7H90.5H60.8L31,814v-29.7v-29.7l29.7-29.7H31H1.3v-29.7v-29.7v-29.7v-29.7h-29.7v-29.7
                                l-29.7-29.7v-29.7L-87.9,487l-29.7-29.7v-29.7h-29.7v-29.7h-29.7l-29.7,29.7v29.7V487v29.7l29.7,29.7v29.7h29.7v29.7l-29.7,29.7
                                h-29.7l-29.7,29.7l-29.7-29.7v-29.7l-29.7-29.7h-29.7v-29.7v-29.7l-29.7-29.7v-29.7v-29.7v-29.7V368l-29.7-29.7V368v29.7v29.7v29.7
                                V487v29.7v29.7v29.7v29.7v29.7v29.7v29.7v29.7v29.7v29.7V814l29.7-29.7v-29.7l29.7-29.7v-29.7l29.7,29.7v-29.7h29.7l-29.7,29.7
                                v29.7v29.7l-29.7,29.7v29.7v29.7l-29.7,29.7v29.7v29.7v29.7v29.7v29.7l-29.7,29.7v29.7v29.7v29.7v29.7v29.7v29.7v29.7h29.7h29.7
                                h29.7h29.7h29.7h29.7h29.7h29.7h29.7h29.7h29.7l29.7-29.7H1.3v-29.7v-29.7l-29.7-29.7V1141v-29.7l29.7-29.7h-29.7h-29.7h-29.7
                                l-29.7-29.7l29.7-29.7l-29.7-29.7v-29.7v-29.7l29.7-29.7l29.7,29.7v29.7v29.7v29.7l29.7,29.7H1.3l29.7,29.7l-29.7,29.7L31,1141
                                l29.7,29.7l29.7,29.7l29.7,29.7l29.7,29.7l29.7,29.7h29.7h29.7h29.7h29.7h29.7H358h29.7h29.7h29.7H477h29.7h29.7h29.7h29.7h29.7
                                h29.7h29.7h29.7h29.7h29.7H804h29.7h29.7h29.7h29.7h29.7h29.7h29.7h29.7h29.7h29.7h29.7h29.7h29.7h29.7h29.7h29.7h29.7h29.7v-29.7
                                h-29.7l29.7-29.7l-29.7-29.7l-29.7-29.7h-29.7l29.7-29.7v-29.7h29.7v-29.7h-29.7l-29.7,29.7l-29.7-29.7l29.7-29.7l29.7-29.7v29.7
                                l29.7-29.7h29.7v29.7v29.7l29.7-29.7l29.7,29.7h-29.7l29.7,29.7v29.7l29.7-29.7l29.7-29.7L1428.3,1051.8z M1458,605.9v29.7h30.1
                                L1458,605.9z M1487.8,665.3L1487.8,665.3v29.7l29.7,29.7v29.7l29.7-29.7l-29.7-29.7l29.7-29.7h-29.7l-29.5-29.7h-29.7L1487.8,665.3
                                z"/>
                            <path id="russia" style="fill:#CCCBCB;" d="M1517.5,11.3h-29.7l29.7,29.7V11.3z M179.7,130.2v29.7l29.7-29.7H179.7z M387.8,130.2
                                L358,159.9 M655.3,189.7h-29.7l-29.7,29.7v29.7l29.7-29.7L655.3,189.7z M595.9,249.1v29.7l29.7-29.7H595.9z M536.4,219.4v29.7h29.7
                                L536.4,219.4z M1.3,427.5l-29.7,29.7L1.3,487v-29.7V427.5z M715,368.2l29.5-0.2l-29.7,29.7L715,368.2l-59.7,59.3l-29.7-29.7h29.7
                                v0.2l29.5-29.9h0.2v-29.5v-0.2l29.5-29.7h0.2l29.7-29.7h-29.7h-29.7l0,0l-29.7,29.7l0,0v29.7l-29.7-29.7v-29.7l-29.7,29.7
                                l-29.7-29.7v29.7l-29.7-29.7l-29.7-29.7v-29.7L477,249.1h-29.7l-29.7-29.7v29.7l-29.7-29.7v29.7l0,0l0,0L358,219.4l29.7-29.7l0,0
                                l0,0l29.7-29.7v29.7l29.7,29.7H477v-29.7v-29.7v-29.7l-29.7-29.7l-29.7,29.7h-29.7L358,159.9l0,0l-29.7,29.7v29.7v29.7l-29.7,29.7
                                v-29.7l29.7-29.7h-29.7l-29.7,29.7v-29.7v-29.7l-29.7,29.7v-29.7l-29.7,29.7v-29.7h29.7l-29.7-29.7l-29.7,29.7h-29.7l29.7-29.7
                                l-29.7-29.7l-29.7,29.7v29.7l0,0H90.5l0,0l-29.7-29.7L31,130.2v29.7L1.3,189.7L31,219.4v29.7v29.7L1.3,308.6v0.6L-58.2,368h29.7
                                v29.7H1.3v29.7L31,457.2L60.8,487H31H1.3v29.7L31,546.4v29.7L1.3,605.9v29.7v29.7v29.7v29.7H31h29.7L31,754.5h29.7l29.7-29.7v-29.7
                                v-29.7l29.7-29.7l29.7-29.7l29.7,29.7h29.7v29.7l-29.7,29.7v-29.7h-29.7v29.7v29.7l-29.7,29.7h29.7v29.7l-29.7-29.7v29.7V814
                                l-29.7,29.7h29.7l29.7,29.7l29.7,29.7v29.7h29.7l-29.7,29.7l29.7,29.7v-29.7l29.7,29.7l29.7-29.7v-29.7l-29.7-29.7v-29.7v-29.7
                                L209.4,814h-29.7l29.7-29.7l0,0h29.7v-29.7l29.7-29.7h29.7l0,0l0,0l29.7,29.7l0,0l0,0h-29.7v29.7h-29.7L239.1,814l29.7,29.7v29.7
                                h29.7l0,0l29.7,29.7l-29.7,29.7l29.7,29.7H358h29.7v29.7v29.7l29.7,29.7l29.7-29.7l-29.7-29.7h29.7v-29.7l29.7,29.7h29.7h29.7
                                l29.7-29.7v-29.7l29.7-29.7v29.7l29.7-29.7v-29.7l29.7,29.7l29.7-29.7l29.7-29.7h29.7V814l29.7-29.7L804,814v-29.7h29.7l29.7-29.7
                                l29.7,29.7V814h29.7l0,0l0,0l29.7,29.7l0,0h29.7l0,0h29.7l29.7,29.7h29.7l29.7-29.7L1131,814v29.7h29.7l29.7-29.7v-29.7v-29.7
                                v-29.7h29.7h29.7l29.7,29.7l29.7,29.7h29.7l29.7,29.7l29.7-29.7v-29.7l29.7,29.7V814v29.7v29.7l-29.7-29.7v29.7l29.7,29.7h29.7
                                v-29.7v-29.7l29.7-29.7v-29.7v-29.7v-29.7l-29.7-29.7v-29.7v-29.7l-29.7-29.7h-29.7v29.7h-29.7h-29.7l29.7-29.7v-29.7v-29.7v-29.7
                                V487h29.7v-29.7h29.7v-29.7h29.7l29.7-29.7L1458,368v-29.7v-29.7h29.7v-29.7l29.7,29.7v29.7V368v29.7l29.7,29.7v29.7L1577,487h29.7
                                l29.7,29.7V487l-29.7-29.7l29.7-29.7h-29.7v-29.7L1577,368h29.7l-29.7-29.7h-29.7v-29.7v-29.7v-29.7l29.7-29.7h-29.7v-29.7v-29.7
                                v-29.7l-29.7-29.7h-29.7H1458v29.7l-29.7,29.7l29.7,29.7l-29.7,29.7v-29.7l-29.7,29.7h-29.7v-29.7l-29.7-29.7v29.7h-29.7v-29.7
                                l-29.7,29.7v29.7h-29.7h-29.7l-29.7,29.7h-29.7l29.7,29.7h-29.7l-29.7,29.7l-29.7-29.7h-29.7l-29.7,29.7l-29.7-29.7l-29.7,29.7
                                h-29.7l29.7-29.7h-29.7l-29.7,29.7l-29.7,29.7v-29.7h-29.7l-29.7-29.7H804l-29.7,29.7l29.7,29.7L774.3,368v-29.7v-29.7h-29.7
                                l-29.7,29.7L715,368.2z M506.7,843.7h29.7l29.7,29.7h-29.7L506.7,843.7z M328.3,903.2L328.3,903.2 M506.7,962.6v-29.7l0,0
                                l29.7,29.7H506.7z M952.6,814L952.6,814l29.7-29.7l29.7-29.7l29.7-29.7v29.7l-29.7,29.7L982.4,814l0,0H952.6z M1636.4,546.4v-29.7
                                h-29.7L1636.4,546.4z"/>
                        </g>
                    </svg>