<?xml version="1.0" encoding="utf-8"?>
<svg version="1.1" id="Layer_1" xmlns="http://www.w3.org/2000/svg" xmlns:xlink="http://www.w3.org/1999/xlink" x="0px" y="0px"
	 viewBox="0 0 68 56" style="enable-background:new 0 0 68 56;" xml:space="preserve">
<g id="Mobile-320x568-stub" transform="translate(-252.000000, -132.000000)">
	<g id="two-thin-arrows-forming-a-circle" transform="translate(252.000000, 132.000000)">
		<path id="Shape" style="fill:#FFFFFF;" d="M51.9,46.4c-4.9,4.9-11.4,7.6-18.3,7.6c-14.3,0-25.9-11.6-25.9-25.9l5.3,5.3
			c0.3,0.3,0.9,0.3,1.3,0c0.3-0.3,0.3-0.9,0-1.3l-7-7l-7,7c-0.3,0.3-0.3,0.9,0,1.3c0.2,0.2,0.4,0.3,0.6,0.3c0.2,0,0.5-0.1,0.6-0.3
			L6,28.9c0.5,14.9,12.7,26.8,27.6,26.8c7.4,0,14.3-2.9,19.6-8.1c0.3-0.3,0.3-0.9,0-1.3C52.8,46,52.3,46,51.9,46.4z"/>
		<path id="Shape_1_" style="fill:#FFFFFF;" d="M67,22.6c-0.3-0.3-0.9-0.3-1.3,0l-4.4,4.4C60.9,12.2,48.7,0.3,33.7,0.3
			c-7.4,0-14.3,2.9-19.6,8.1c-0.3,0.3-0.3,0.9,0,1.3c0.3,0.3,0.9,0.3,1.3,0c4.9-4.9,11.4-7.6,18.3-7.6c14.3,0,25.9,11.6,25.9,25.9
			l-5.3-5.3c-0.3-0.3-0.9-0.3-1.3,0c-0.3,0.3-0.3,0.9,0,1.3l7,7l7-7C67.4,23.6,67.4,23,67,22.6z"/>
	</g>
</g>
</svg>
