<?xml version="1.0" encoding="UTF-8"?>
<svg width="577px" height="561px" viewBox="0 0 577 561" version="1.1" xmlns="http://www.w3.org/2000/svg" xmlns:xlink="http://www.w3.org/1999/xlink">
    <!-- Generator: Sketch 47.1 (45422) - http://www.bohemiancoding.com/sketch -->
    <title>17_cross</title>
    <desc>Created with Sketch.</desc>
    <defs></defs>
    <g id="-" stroke="none" stroke-width="1" fill="none" fill-rule="evenodd">
        <g id="1-1-Desktop-#17" transform="translate(-534.000000, -1605.000000)" fill="#000000">
            <g id="Group-21" transform="translate(509.000000, 1590.000000)">
                <path d="M364.65,34.35 L364.65,13 L346.35,13 L346.35,34.35 L325,34.35 L325,52.65 L346.35,52.65 L346.35,74 L364.65,74 L364.65,52.65 L386,52.65 L386,34.35 L364.65,34.35 Z" id="Combined-Shape-Copy-6" transform="translate(355.500000, 43.500000) rotate(-135.000000) translate(-355.500000, -43.500000) "></path>
                <path d="M319.3,187.7 L319.3,173 L306.7,173 L306.7,187.7 L292,187.7 L292,200.3 L306.7,200.3 L306.7,215 L319.3,215 L319.3,200.3 L334,200.3 L334,187.7 L319.3,187.7 Z" id="Combined-Shape-Copy-2" transform="translate(313.000000, 194.000000) rotate(-135.000000) translate(-313.000000, -194.000000) "></path>
                <path d="M543.3,549.7 L543.3,535 L530.7,535 L530.7,549.7 L516,549.7 L516,562.3 L530.7,562.3 L530.7,577 L543.3,577 L543.3,562.3 L558,562.3 L558,549.7 L543.3,549.7 Z" id="Combined-Shape-Copy-10" transform="translate(537.000000, 556.000000) rotate(-135.000000) translate(-537.000000, -556.000000) "></path>
                <path d="M51.3,117.7 L51.3,103 L38.7,103 L38.7,117.7 L24,117.7 L24,130.3 L38.7,130.3 L38.7,145 L51.3,145 L51.3,130.3 L66,130.3 L66,117.7 L51.3,117.7 Z" id="Combined-Shape-Copy-7" transform="translate(45.000000, 124.000000) rotate(-135.000000) translate(-45.000000, -124.000000) "></path>
                <path d="M588.3,138.7 L588.3,124 L575.7,124 L575.7,138.7 L561,138.7 L561,151.3 L575.7,151.3 L575.7,166 L588.3,166 L588.3,151.3 L603,151.3 L603,138.7 L588.3,138.7 Z" id="Combined-Shape-Copy-8" transform="translate(582.000000, 145.000000) rotate(-135.000000) translate(-582.000000, -145.000000) "></path>
                <path d="M433.65,462.35 L433.65,441 L415.35,441 L415.35,462.35 L394,462.35 L394,480.65 L415.35,480.65 L415.35,502 L433.65,502 L433.65,480.65 L455,480.65 L455,462.35 L433.65,462.35 Z" id="Combined-Shape-Copy-9" transform="translate(424.500000, 471.500000) rotate(-135.000000) translate(-424.500000, -471.500000) "></path>
                <path d="M151.65,217.35 L151.65,196 L133.35,196 L133.35,217.35 L112,217.35 L112,235.65 L133.35,235.65 L133.35,257 L151.65,257 L151.65,235.65 L173,235.65 L173,217.35 L151.65,217.35 Z" id="Combined-Shape-Copy-5" transform="translate(142.500000, 226.500000) rotate(-135.000000) translate(-142.500000, -226.500000) "></path>
                <path d="M214.3,75.7 L214.3,61 L201.7,61 L201.7,75.7 L187,75.7 L187,88.3 L201.7,88.3 L201.7,103 L214.3,103 L214.3,88.3 L229,88.3 L229,75.7 L214.3,75.7 Z" id="Combined-Shape-Copy-4" transform="translate(208.000000, 82.000000) rotate(-135.000000) translate(-208.000000, -82.000000) "></path>
                <path d="M566.3,414.7 L566.3,400 L553.7,400 L553.7,414.7 L539,414.7 L539,427.3 L553.7,427.3 L553.7,442 L566.3,442 L566.3,427.3 L581,427.3 L581,414.7 L566.3,414.7 Z" id="Combined-Shape-Copy-11" transform="translate(560.000000, 421.000000) rotate(-135.000000) translate(-560.000000, -421.000000) "></path>
                <path d="M534.05,281.95 L534.05,255 L510.95,255 L510.95,281.95 L484,281.95 L484,305.05 L510.95,305.05 L510.95,332 L534.05,332 L534.05,305.05 L561,305.05 L561,281.95 L534.05,281.95 Z" id="Combined-Shape-Copy-3" transform="translate(522.500000, 293.500000) rotate(-135.000000) translate(-522.500000, -293.500000) "></path>
            </g>
        </g>
    </g>
</svg>