<svg width="1203" height="459" viewBox="0 0 1203 459" version="1.1" xmlns="http://www.w3.org/2000/svg" xmlns:xlink="http://www.w3.org/1999/xlink">
<title>18_plus_bg</title>
<desc>Created using Figma</desc>
<g id="Canvas" transform="translate(-50023 -6293)">
<g id="18_plus_bg">
<g id="+">
<use xlink:href="#path0_fill" transform="matrix(-1 1.22465e-16 -1.22465e-16 -1 50841 6552)" fill="#FF99A9"/>
</g>
<g id="+">
<use xlink:href="#path0_fill" transform="matrix(-1 1.22465e-16 -1.22465e-16 -1 50681 6643)" fill="#FF99A9"/>
</g>
<g id="+">
<use xlink:href="#path0_fill" transform="matrix(-1 1.22465e-16 -1.22465e-16 -1 51018 6367)" fill="#FF99A9"/>
</g>
<g id="+">
<use xlink:href="#path0_fill" transform="matrix(-1 1.22465e-16 -1.22465e-16 -1 50335 6523)" fill="#FF99A9"/>
</g>
<g id="+">
<use xlink:href="#path1_fill" transform="matrix(-1 1.22465e-16 -1.22465e-16 -1 50970 6657)" fill="#FF99A9"/>
</g>
<g id="+">
<use xlink:href="#path1_fill" transform="matrix(-1 1.22465e-16 -1.22465e-16 -1 51070 6509)" fill="#FF99A9"/>
</g>
<g id="+">
<use xlink:href="#path2_fill" transform="matrix(-1 1.22465e-16 -1.22465e-16 -1 51078 6614)" fill="#FF99A9"/>
</g>
<g id="+">
<use xlink:href="#path2_fill" transform="matrix(-1 1.22465e-16 -1.22465e-16 -1 51227 6471)" fill="#FF99A9"/>
</g>
<g id="+">
<use xlink:href="#path2_fill" transform="matrix(-1 1.22465e-16 -1.22465e-16 -1 51202 6673)" fill="#FF99A9"/>
</g>
<g id="+">
<use xlink:href="#path2_fill" transform="matrix(-1 1.22465e-16 -1.22465e-16 -1 50223 6594)" fill="#FF99A9"/>
</g>
<g id="+">
<use xlink:href="#path2_fill" transform="matrix(-1 1.22465e-16 -1.22465e-16 -1 50047 6464)" fill="#FF99A9"/>
</g>
<g id="+">
<use xlink:href="#path2_fill" transform="matrix(-1 1.22465e-16 -1.22465e-16 -1 50718 6538)" fill="#FF99A9"/>
</g>
<g id="+">
<use xlink:href="#path2_fill" transform="matrix(-1 1.22465e-16 -1.22465e-16 -1 50805 6673)" fill="#FF99A9"/>
</g>
<g id="+">
<use xlink:href="#path2_fill" transform="matrix(-1 1.22465e-16 -1.22465e-16 -1 50681 6773)" fill="#FF99A9"/>
</g>
<g id="+">
<use xlink:href="#path2_fill" transform="matrix(-1 1.22465e-16 -1.22465e-16 -1 50949 6516)" fill="#FF99A9"/>
</g>
<g id="+">
<use xlink:href="#path2_fill" transform="matrix(-1 1.22465e-16 -1.22465e-16 -1 51130 6338)" fill="#FF99A9"/>
</g>
<g id="+">
<use xlink:href="#path1_fill" transform="matrix(-1 1.22465e-16 -1.22465e-16 -1 50299 6702)" fill="#FF99A9"/>
</g>
</g>
</g>
<defs>
<path id="path0_fill" d="M 33.9844 13.5098L 18.9941 13.5098L 18.9941 28.9883L 3.51562 28.9883L 3.51562 44.5156L 18.9941 44.5156L 18.9941 59.9941L 33.9844 59.9941L 33.9844 44.5156L 49.5117 44.5156L 49.5117 28.9883L 33.9844 28.9883L 33.9844 13.5098Z"/>
<path id="path1_fill" d="M 24.4688 18.207L 13.6758 18.207L 13.6758 29.3516L 2.53125 29.3516L 2.53125 40.5312L 13.6758 40.5312L 13.6758 51.6758L 24.4688 51.6758L 24.4688 40.5312L 35.6484 40.5312L 35.6484 29.3516L 24.4688 29.3516L 24.4688 18.207Z"/>
<path id="path2_fill" d="M 16.3125 21.8047L 9.11719 21.8047L 9.11719 29.2344L 1.6875 29.2344L 1.6875 36.6875L 9.11719 36.6875L 9.11719 44.1172L 16.3125 44.1172L 16.3125 36.6875L 23.7656 36.6875L 23.7656 29.2344L 16.3125 29.2344L 16.3125 21.8047Z"/>
</defs>
</svg>
