<svg width="872px" height="554px" viewBox="0 0 872 554" version="1.1" xmlns="http://www.w3.org/2000/svg" xmlns:xlink="http://www.w3.org/1999/xlink">
    <defs>
        <linearGradient x1="88.7295571%" y1="81.2518389%" x2="-2.30017959%" y2="15.8625398%" id="linearGradient-1">
            <stop stop-color="#D2D2D2" offset="0%"></stop>
            <stop stop-color="#DFDFDF" offset="100%"></stop>
        </linearGradient>
    </defs>
    <g id="Emigration" stroke="none" stroke-width="1" fill="none" fill-rule="evenodd">
        <g id="map-3_960x600_sidebar" transform="translate(0.000000, -46.000000)">
            <g id="1922" transform="translate(0.000000, 46.000000)">
                <path d="M813.081081,0 L813.081081,11.745098 L824.864865,23.4901961 L824.864865,11.745098 L813.081081,0 Z M813.866667,11.4209333 L813.866667,1.89017778 L824.079279,12.0692627 L824.079279,21.6000183 L813.866667,11.4209333 Z M695.243243,0 L695.243243,11.745098 L695.243243,23.4901961 L695.243243,35.2352941 L695.243243,46.9803922 L707.027027,58.7254902 L718.810811,58.7254902 L718.810811,70.4705882 L730.594595,58.7254902 L742.378378,46.9803922 L742.378378,58.7254902 L742.378378,70.4705882 L754.162162,82.2156863 L754.162162,70.4705882 L754.162162,58.7254902 L765.945946,46.9803922 L765.945946,58.7254902 L777.72973,70.4705882 L789.513514,70.4705882 L801.297297,58.7254902 L813.081081,46.9803922 L813.081081,35.2352941 L824.864865,35.2352941 L836.648649,46.9803922 L836.648649,58.7254902 L848.432432,70.4705882 L848.432432,58.7254902 L848.432432,46.9803922 L836.648649,35.2352941 L824.864865,23.4901961 L813.081081,23.4901961 L813.081081,11.745098 L801.297297,11.745098 L801.297297,0 L695.243243,0 Z M696.028829,46.6562275 L696.028829,35.2352941 L696.028829,23.4901961 L696.028829,11.745098 L696.028829,0.783006536 L707.027027,0.783006536 L718.810811,0.783006536 L730.594595,0.783006536 L742.378378,0.783006536 L754.162162,0.783006536 L765.945946,0.783006536 L777.72973,0.783006536 L789.513514,0.783006536 L800.511712,0.783006536 L800.511712,11.745098 L801.297297,12.5281046 L812.295495,12.5281046 L812.295495,23.4901961 L813.081081,24.2732026 L824.539632,24.2732026 L836.09324,35.7888797 L847.646847,47.3045569 L847.646847,58.7254902 L847.646847,68.5804105 L837.434234,58.4013255 L837.434234,46.9803922 L837.204058,46.4268065 L825.420274,34.6817085 L824.864865,34.4522876 L813.081081,34.4522876 L812.295495,35.2352941 L812.295495,46.6562275 L800.741888,58.1719046 L789.188281,69.6875817 L778.054962,69.6875817 L766.731532,58.4013255 L766.731532,46.9803922 L765.390537,46.4268065 L753.606753,58.1719046 L753.376577,58.7254902 L753.376577,70.4705882 L753.376577,80.3255085 L743.163964,70.1464235 L743.163964,58.7254902 L743.163964,46.9803922 L741.822969,46.4268065 L730.039186,58.1719046 L719.596396,68.5804105 L719.596396,58.7254902 L718.810811,57.9424837 L707.352259,57.9424837 L696.028829,46.6562275 Z M223.891892,0 L212.108108,11.745098 L223.891892,11.745098 L223.891892,0 Z M223.106306,1.89017778 L223.106306,10.9620915 L214.004512,10.9620915 L223.106306,1.89017778 Z M164.972973,0 L164.972973,11.745098 L176.756757,11.745098 L188.540541,11.745098 L200.324324,0 L164.972973,0 Z M165.758559,0.783006536 L176.756757,0.783006536 L188.540541,0.783006536 L198.427921,0.783006536 L188.215308,10.9620915 L176.756757,10.9620915 L165.758559,10.9620915 L165.758559,0.783006536 Z M23.5675676,0 L23.5675676,11.745098 L11.7837838,23.4901961 L23.5675676,35.2352941 L23.5675676,46.9803922 L35.3513514,58.7254902 L47.1351351,58.7254902 L58.9189189,70.4705882 L58.9189189,82.2156863 L70.7027027,82.2156863 L82.4864865,82.2156863 L82.4864865,93.9607843 L82.4864865,105.705882 L94.2702703,117.45098 L82.4864865,129.196078 L70.7027027,140.941176 L70.7027027,152.686275 L58.9189189,164.431373 L58.9189189,176.176471 L47.1351351,187.921569 L58.9189189,187.921569 L58.9189189,199.666667 L70.7027027,187.921569 L70.7027027,176.176471 L82.4864865,164.431373 L82.4864865,152.686275 L94.2702703,140.941176 L106.054054,140.941176 L94.2702703,152.686275 L94.2702703,164.431373 L82.4864865,176.176471 L82.4864865,187.921569 L82.4864865,199.666667 L70.7027027,199.666667 L58.9189189,211.411765 L58.9189189,223.156863 L47.1351351,234.901961 L47.1351351,246.647059 L58.9189189,234.901961 L70.7027027,246.647059 L70.7027027,234.901961 L70.7027027,223.156863 L82.4864865,234.901961 L94.2702703,246.647059 L82.4864865,246.647059 L70.7027027,258.392157 L70.7027027,270.137255 L70.7027027,281.882353 L70.7027027,293.627451 L82.4864865,305.372549 L82.4864865,317.117647 L94.2702703,317.117647 L94.2702703,328.862745 L82.4864865,340.607843 L70.7027027,340.607843 L58.9189189,352.352941 L47.1351351,340.607843 L47.1351351,328.862745 L35.3513514,317.117647 L23.5675676,317.117647 L23.5675676,305.372549 L23.5675676,293.627451 L11.7837838,281.882353 L11.7837838,270.137255 L11.7837838,258.392157 L11.7837838,246.647059 L11.7837838,234.901961 L0,223.156863 L0,234.901961 L0,246.647059 L0,258.392157 L0,270.137255 L0,281.882353 L0,293.627451 L0,305.372549 L0,317.117647 L0,328.862745 L0,340.607843 L0,352.352941 L0,364.098039 L0,375.843137 L0,387.588235 L0,399.333333 L0,411.078431 L11.7837838,399.333333 L11.7837838,387.588235 L23.5675676,375.843137 L23.5675676,364.098039 L35.3513514,375.843137 L35.3513514,364.098039 L47.1351351,364.098039 L35.3513514,375.843137 L35.3513514,387.588235 L35.3513514,399.333333 L23.5675676,411.078431 L23.5675676,422.823529 L23.5675676,434.568627 L11.7837838,446.313725 L11.7837838,458.058824 L11.7837838,469.803922 L11.7837838,481.54902 L11.7837838,493.294118 L11.7837838,505.039216 L0,516.784314 L0,528.529412 L0,540.27451 L0,552.019608 L0,563.764706 L0,575.509804 L0,587.254902 L0,599 L11.7837838,599 L23.5675676,599 L35.3513514,599 L47.1351351,599 L58.9189189,599 L70.7027027,599 L82.4864865,599 L94.2702703,599 L106.054054,599 L117.837838,599 L129.621622,599 L141.405405,587.254902 L153.189189,587.254902 L153.189189,575.509804 L153.189189,563.764706 L141.405405,552.019608 L141.405405,540.27451 L141.405405,528.529412 L153.189189,516.784314 L141.405405,516.784314 L129.621622,516.784314 L117.837838,516.784314 L106.054054,505.039216 L117.837838,493.294118 L106.054054,493.294118 L106.054054,481.54902 L106.054054,469.803922 L106.054054,458.058824 L117.837838,446.313725 L129.621622,458.058824 L129.621622,469.803922 L129.621622,481.54902 L129.621622,493.294118 L141.405405,505.039216 L153.189189,505.039216 L164.972973,516.784314 L153.189189,528.529412 L164.972973,540.27451 L176.756757,552.019608 L188.540541,563.764706 L200.324324,575.509804 L212.108108,587.254902 L223.891892,599 L235.675676,599 L247.459459,599 L259.243243,599 L271.027027,599 L282.810811,599 L294.594595,599 L306.378378,599 L318.162162,599 L329.945946,599 L341.72973,599 L353.513514,599 L365.297297,599 L377.081081,599 L388.864865,599 L400.648649,599 L412.432432,599 L424.216216,599 L436,599 L447.783784,599 L459.567568,599 L471.351351,599 L483.135135,599 L494.918919,599 L506.702703,599 L518.486486,599 L530.27027,599 L542.054054,599 L553.837838,599 L565.621622,599 L577.405405,599 L589.189189,599 L600.972973,599 L612.756757,599 L624.540541,599 L636.324324,599 L648.108108,599 L659.891892,599 L671.675676,599 L683.459459,599 L683.459459,587.254902 L671.675676,587.254902 L683.459459,575.509804 L671.675676,563.764706 L659.891892,552.019608 L648.108108,552.019608 L659.891892,540.27451 L659.891892,528.529412 L671.675676,528.529412 L671.675676,516.784314 L659.891892,516.784314 L648.108108,528.529412 L636.324324,516.784314 L648.108108,505.039216 L659.891892,493.294118 L659.891892,505.039216 L671.675676,493.294118 L683.459459,493.294118 L683.459459,505.039216 L683.459459,516.784314 L695.243243,505.039216 L707.027027,516.784314 L695.243243,516.784314 L707.027027,528.529412 L707.027027,540.27451 L718.810811,528.529412 L730.594595,516.784314 L718.810811,505.039216 L707.027027,493.294118 L695.243243,493.294118 L707.027027,481.54902 L707.027027,469.803922 L707.027027,458.058824 L718.810811,446.313725 L730.594595,446.313725 L730.594595,434.568627 L730.594595,422.823529 L742.378378,411.078431 L742.378378,399.333333 L742.378378,387.588235 L742.378378,375.843137 L730.594595,364.098039 L730.594595,352.352941 L730.594595,340.607843 L742.378378,352.352941 L742.378378,364.098039 L754.162162,375.843137 L754.162162,387.588235 L765.945946,375.843137 L754.162162,364.098039 L765.945946,352.352941 L754.162162,352.352941 L742.378378,340.607843 L730.594595,328.862745 L730.594595,340.607843 L718.810811,328.862745 L707.027027,328.862745 L707.027027,340.607843 L695.243243,340.607843 L683.459459,340.607843 L695.243243,328.862745 L695.243243,317.117647 L695.243243,305.372549 L695.243243,293.627451 L695.243243,281.882353 L707.027027,281.882353 L707.027027,270.137255 L718.810811,270.137255 L718.810811,258.392157 L730.594595,258.392157 L742.378378,246.647059 L730.594595,234.901961 L730.594595,223.156863 L730.594595,211.411765 L742.378378,211.411765 L742.378378,199.666667 L754.162162,211.411765 L754.162162,223.156863 L754.162162,234.901961 L754.162162,246.647059 L765.945946,258.392157 L765.945946,270.137255 L777.72973,281.882353 L789.513514,281.882353 L801.297297,293.627451 L801.297297,281.882353 L789.513514,270.137255 L801.297297,258.392157 L789.513514,258.392157 L789.513514,246.647059 L777.72973,234.901961 L789.513514,234.901961 L777.72973,223.156863 L765.945946,223.156863 L765.945946,211.411765 L765.945946,199.666667 L765.945946,187.921569 L777.72973,176.176471 L765.945946,176.176471 L765.945946,164.431373 L765.945946,152.686275 L765.945946,140.941176 L754.162162,129.196078 L742.378378,129.196078 L742.378378,117.45098 L742.378378,105.705882 L754.162162,105.705882 L754.162162,93.9607843 L742.378378,93.9607843 L742.378378,82.2156863 L730.594595,93.9607843 L718.810811,105.705882 L707.027027,105.705882 L707.027027,117.45098 L695.243243,117.45098 L695.243243,129.196078 L683.459459,140.941176 L695.243243,140.941176 L683.459459,152.686275 L683.459459,164.431373 L671.675676,164.431373 L659.891892,164.431373 L659.891892,176.176471 L648.108108,176.176471 L636.324324,176.176471 L624.540541,187.921569 L612.756757,187.921569 L624.540541,176.176471 L612.756757,176.176471 L612.756757,187.921569 L624.540541,199.666667 L612.756757,199.666667 L600.972973,211.411765 L589.189189,199.666667 L577.405405,199.666667 L565.621622,211.411765 L553.837838,199.666667 L542.054054,211.411765 L530.27027,211.411765 L542.054054,199.666667 L553.837838,187.921569 L542.054054,187.921569 L530.27027,176.176471 L518.486486,176.176471 L530.27027,164.431373 L518.486486,164.431373 L518.486486,176.176471 L506.702703,187.921569 L494.918919,187.921569 L483.135135,199.666667 L471.351351,199.666667 L459.567568,211.411765 L447.783784,211.411765 L436,223.156863 L436,234.901961 L424.216216,246.647059 L412.432432,258.392157 L400.648649,246.647059 L412.432432,246.647059 L424.216216,234.901961 L424.216216,223.156863 L436,211.411765 L447.783784,199.666667 L436,187.921569 L436,199.666667 L424.216216,199.666667 L412.432432,211.411765 L412.432432,223.156863 L400.648649,211.411765 L400.648649,199.666667 L388.864865,211.411765 L377.081081,199.666667 L377.081081,211.411765 L365.297297,199.666667 L353.513514,187.921569 L353.513514,176.176471 L341.72973,187.921569 L353.513514,187.921569 L341.72973,199.666667 L341.72973,187.921569 L329.945946,187.921569 L318.162162,176.176471 L318.162162,187.921569 L306.378378,176.176471 L306.378378,187.921569 L294.594595,176.176471 L306.378378,164.431373 L318.162162,152.686275 L318.162162,164.431373 L329.945946,176.176471 L341.72973,176.176471 L341.72973,164.431373 L341.72973,152.686275 L341.72973,140.941176 L329.945946,129.196078 L341.72973,129.196078 L341.72973,117.45098 L329.945946,105.705882 L318.162162,93.9607843 L306.378378,82.2156863 L306.378378,93.9607843 L294.594595,82.2156863 L294.594595,93.9607843 L282.810811,82.2156863 L271.027027,82.2156863 L259.243243,70.4705882 L247.459459,58.7254902 L235.675676,70.4705882 L235.675676,58.7254902 L223.891892,70.4705882 L212.108108,70.4705882 L212.108108,82.2156863 L223.891892,93.9607843 L212.108108,93.9607843 L212.108108,105.705882 L200.324324,105.705882 L188.540541,93.9607843 L188.540541,105.705882 L200.324324,105.705882 L188.540541,117.45098 L200.324324,117.45098 L200.324324,129.196078 L212.108108,129.196078 L223.891892,117.45098 L223.891892,129.196078 L235.675676,129.196078 L247.459459,117.45098 L259.243243,117.45098 L271.027027,117.45098 L282.810811,117.45098 L294.594595,129.196078 L294.594595,140.941176 L282.810811,129.196078 L271.027027,129.196078 L259.243243,129.196078 L247.459459,140.941176 L247.459459,152.686275 L259.243243,164.431373 L247.459459,176.176471 L247.459459,164.431373 L235.675676,176.176471 L235.675676,164.431373 L247.459459,164.431373 L235.675676,152.686275 L223.891892,164.431373 L212.108108,164.431373 L223.891892,152.686275 L235.675676,140.941176 L223.891892,140.941176 L223.891892,152.686275 L212.108108,140.941176 L200.324324,152.686275 L188.540541,140.941176 L188.540541,129.196078 L176.756757,117.45098 L188.540541,117.45098 L176.756757,105.705882 L188.540541,93.9607843 L200.324324,93.9607843 L212.108108,93.9607843 L200.324324,82.2156863 L188.540541,82.2156863 L176.756757,93.9607843 L164.972973,82.2156863 L176.756757,82.2156863 L164.972973,70.4705882 L153.189189,70.4705882 L141.405405,58.7254902 L129.621622,46.9803922 L129.621622,35.2352941 L129.621622,23.4901961 L117.837838,35.2352941 L106.054054,46.9803922 L94.2702703,46.9803922 L82.4864865,46.9803922 L82.4864865,35.2352941 L82.4864865,23.4901961 L82.4864865,11.745098 L82.4864865,0 L23.5675676,0 Z M24.3531532,46.6562275 L24.3531532,35.2352941 L24.1229766,34.6817085 L12.8946018,23.4901961 L24.1229766,12.2986837 L24.3531532,11.745098 L24.3531532,0.783006536 L35.3513514,0.783006536 L47.1351351,0.783006536 L58.9189189,0.783006536 L70.7027027,0.783006536 L81.7009009,0.783006536 L81.7009009,11.745098 L81.7009009,23.4901961 L81.7009009,35.2352941 L81.7009009,46.9803922 L82.4864865,47.7633987 L94.2702703,47.7633987 L106.054054,47.7633987 L106.609463,47.5339778 L118.393247,35.7888797 L128.836036,25.3803739 L128.836036,35.2352941 L128.836036,46.9803922 L129.066213,47.5339778 L140.849996,59.2790758 L152.63378,71.0241739 L153.189189,71.2535948 L164.647741,71.2535948 L174.860353,81.4326797 L164.972973,81.4326797 L164.417564,82.7692719 L176.201348,94.5143699 L177.312166,94.5143699 L188.865773,82.9986928 L199.999092,82.9986928 L210.211705,93.1777778 L200.324324,93.1777778 L188.540541,93.1777778 L187.985132,93.4071987 L176.201348,105.152297 L176.201348,106.259468 L186.644137,116.667974 L176.756757,116.667974 L176.201348,118.004566 L187.754955,129.520243 L187.754955,140.941176 L187.985132,141.494762 L199.768915,153.23986 L200.879733,153.23986 L212.108108,142.048348 L222.780288,152.686275 L211.552699,163.877787 L212.108108,165.214379 L223.891892,165.214379 L224.447301,164.984958 L235.675676,153.793446 L245.563056,163.648366 L235.675676,163.648366 L234.89009,164.431373 L234.89009,176.176471 L236.231085,176.730056 L246.673874,166.32155 L246.673874,176.176471 L248.014868,176.730056 L259.568476,165.214379 L269.130623,165.214379 L258.687834,175.622885 L258.457658,176.176471 L258.457658,187.921569 L259.798652,188.475154 L271.582436,176.730056 L271.812613,176.176471 L271.812613,164.431373 L271.812613,152.686275 L270.471618,152.132689 L259.243243,163.324201 L248.245045,152.36211 L248.245045,141.265341 L259.568476,129.979085 L271.027027,129.979085 L282.485578,129.979085 L294.039186,141.494762 L295.38018,140.941176 L295.38018,129.196078 L295.150004,128.642493 L283.36622,116.897395 L282.810811,116.667974 L271.027027,116.667974 L259.243243,116.667974 L247.459459,116.667974 L246.90405,116.897395 L235.350443,128.413072 L224.677477,128.413072 L224.677477,117.45098 L223.336483,116.897395 L211.782876,128.413072 L201.10991,128.413072 L201.10991,117.45098 L200.324324,116.667974 L190.436944,116.667974 L200.649557,106.488889 L212.108108,106.488889 L212.893694,105.705882 L212.893694,94.7437908 L223.891892,94.7437908 L224.447301,93.4071987 L212.893694,81.8915216 L212.893694,71.2535948 L223.891892,71.2535948 L224.447301,71.0241739 L234.89009,60.615668 L234.89009,70.4705882 L236.231085,71.0241739 L247.459459,59.8326614 L258.687834,71.0241739 L270.471618,82.7692719 L271.027027,82.9986928 L282.485578,82.9986928 L294.039186,94.5143699 L295.38018,93.9607843 L295.38018,84.1058641 L305.822969,94.5143699 L307.163964,93.9607843 L307.163964,84.1058641 L317.606753,94.5143699 L329.390537,106.259468 L340.944144,117.775145 L340.944144,128.413072 L329.945946,128.413072 L329.390537,129.749664 L340.944144,141.265341 L340.944144,152.686275 L340.944144,164.431373 L340.944144,175.393464 L330.271178,175.393464 L318.947748,164.107208 L318.947748,152.686275 L317.606753,152.132689 L305.822969,163.877787 L294.039186,175.622885 L294.039186,176.730056 L305.822969,188.475154 L307.163964,187.921569 L307.163964,178.066648 L317.606753,188.475154 L318.947748,187.921569 L318.947748,178.066648 L329.390537,188.475154 L329.945946,188.704575 L340.944144,188.704575 L340.944144,199.666667 L342.285139,200.220252 L353.513514,189.02874 L364.741888,200.220252 L376.525672,211.96535 L377.866667,211.411765 L377.866667,201.556844 L388.309456,211.96535 L389.420274,211.96535 L399.863063,201.556844 L399.863063,211.411765 L400.09324,211.96535 L411.877023,223.710448 L413.218018,223.156863 L413.218018,211.735929 L424.541449,200.449673 L436,200.449673 L436.785586,199.666667 L436.785586,189.811746 L446.672966,199.666667 L435.444591,210.858179 L423.660807,222.603277 L423.430631,223.156863 L423.430631,234.577796 L412.1072,245.864052 L400.648649,245.864052 L400.09324,247.200644 L411.877023,258.945742 L412.987841,258.945742 L424.771625,247.200644 L435.214414,236.792139 L435.214414,246.647059 L436.555409,247.200644 L448.339193,235.455546 L447.783784,234.118954 L436.785586,234.118954 L436.785586,223.481027 L448.109016,212.194771 L458.781982,212.194771 L458.781982,223.156863 L458.781982,234.901961 L460.122977,235.455546 L471.90676,223.710448 L471.90676,222.603277 L460.678386,211.411765 L471.676584,200.449673 L483.135135,200.449673 L483.690544,200.220252 L495.244151,188.704575 L506.702703,188.704575 L507.258112,188.475154 L518.811719,176.959477 L529.945038,176.959477 L541.498645,188.475154 L542.054054,188.704575 L551.941434,188.704575 L541.498645,199.113081 L529.714861,210.858179 L530.27027,212.194771 L542.054054,212.194771 L542.609463,211.96535 L553.837838,200.773838 L565.066213,211.96535 L566.177031,211.96535 L577.730638,200.449673 L588.863957,200.449673 L600.417564,211.96535 L601.528382,211.96535 L613.081989,200.449673 L624.540541,200.449673 L625.09595,199.113081 L614.65316,188.704575 L624.540541,188.704575 L625.09595,188.475154 L636.649557,176.959477 L648.108108,176.959477 L659.891892,176.959477 L660.677477,176.176471 L660.677477,165.214379 L671.675676,165.214379 L683.459459,165.214379 L684.245045,164.431373 L684.245045,153.010439 L695.798652,141.494762 L695.243243,140.15817 L685.355863,140.15817 L695.798652,129.749664 L696.028829,129.196078 L696.028829,118.233987 L707.027027,118.233987 L707.812613,117.45098 L707.812613,106.488889 L718.810811,106.488889 L719.36622,106.259468 L731.150004,94.5143699 L741.592793,84.1058641 L741.592793,93.9607843 L742.378378,94.7437908 L753.376577,94.7437908 L753.376577,104.922876 L742.378378,104.922876 L741.592793,105.705882 L741.592793,117.45098 L741.592793,129.196078 L742.378378,129.979085 L753.83693,129.979085 L765.16036,141.265341 L765.16036,152.686275 L765.16036,164.431373 L765.16036,176.176471 L765.945946,176.959477 L775.833326,176.959477 L765.390537,187.367983 L765.16036,187.921569 L765.16036,199.666667 L765.16036,211.411765 L765.16036,223.156863 L765.945946,223.939869 L777.404497,223.939869 L787.61711,234.118954 L777.72973,234.118954 L777.174321,235.455546 L788.727928,246.971224 L788.727928,258.392157 L789.513514,259.175163 L799.400894,259.175163 L788.958105,269.583669 L788.958105,270.690841 L800.511712,282.206518 L800.511712,291.737273 L790.068923,281.328767 L789.513514,281.099346 L778.054962,281.099346 L766.731532,269.81309 L766.731532,258.392157 L766.501355,257.838571 L754.947748,246.322894 L754.947748,234.901961 L754.947748,223.156863 L754.947748,211.411765 L754.717571,210.858179 L742.933002,199.113081 L741.592793,199.666667 L741.592793,210.628758 L730.594595,210.628758 L729.809009,211.411765 L729.809009,223.156863 L729.809009,234.901961 L730.039186,235.455546 L741.26756,246.647059 L730.269362,257.60915 L718.810811,257.60915 L718.025225,258.392157 L718.025225,269.354248 L707.027027,269.354248 L706.241441,270.137255 L706.241441,281.099346 L695.243243,281.099346 L694.457658,281.882353 L694.457658,293.627451 L694.457658,305.372549 L694.457658,317.117647 L694.457658,328.53858 L682.90405,340.054258 L683.459459,341.39085 L695.243243,341.39085 L707.027027,341.39085 L707.812613,340.607843 L707.812613,329.645752 L718.485578,329.645752 L729.809009,340.932008 L729.809009,352.352941 L729.809009,364.098039 L730.039186,364.651625 L741.592793,376.167302 L741.592793,387.588235 L741.592793,399.333333 L741.592793,410.754267 L730.039186,422.269944 L729.809009,422.823529 L729.809009,434.568627 L729.809009,445.530719 L718.810811,445.530719 L718.255402,445.76014 L706.471618,457.505238 L706.241441,458.058824 L706.241441,469.803922 L706.241441,481.224855 L694.687834,492.740532 L695.243243,494.077124 L706.701795,494.077124 L718.255402,505.592801 L729.483777,516.784314 L718.255402,527.975826 L707.812613,538.384332 L707.812613,528.529412 L707.58165,527.975826 L697.139647,517.56732 L707.027027,517.56732 L707.58165,516.230728 L695.798652,504.48563 L694.687834,504.48563 L684.245045,514.894136 L684.245045,505.039216 L684.245045,493.294118 L683.459459,492.511111 L671.675676,492.511111 L671.120267,492.740532 L660.677477,503.149038 L660.677477,493.294118 L659.336483,492.740532 L647.552699,504.48563 L635.768915,516.230728 L635.768915,517.337899 L647.552699,529.082997 L648.663517,529.082997 L660.217124,517.56732 L670.89009,517.56732 L670.89009,527.746405 L659.891892,527.746405 L659.106306,528.529412 L659.106306,539.950345 L647.552699,551.466022 L648.108108,552.802614 L659.566659,552.802614 L671.120267,564.318292 L682.348641,575.509804 L671.120267,586.701316 L671.675676,588.037908 L682.673874,588.037908 L682.673874,598.216993 L671.675676,598.216993 L659.891892,598.216993 L648.108108,598.216993 L636.324324,598.216993 L624.540541,598.216993 L612.756757,598.216993 L600.972973,598.216993 L589.189189,598.216993 L577.405405,598.216993 L565.621622,598.216993 L553.837838,598.216993 L542.054054,598.216993 L530.27027,598.216993 L518.486486,598.216993 L506.702703,598.216993 L494.918919,598.216993 L483.135135,598.216993 L471.351351,598.216993 L459.567568,598.216993 L447.783784,598.216993 L436,598.216993 L424.216216,598.216993 L412.432432,598.216993 L400.648649,598.216993 L388.864865,598.216993 L377.081081,598.216993 L365.297297,598.216993 L353.513514,598.216993 L341.72973,598.216993 L329.945946,598.216993 L318.162162,598.216993 L306.378378,598.216993 L294.594595,598.216993 L282.810811,598.216993 L271.027027,598.216993 L259.243243,598.216993 L247.459459,598.216993 L235.675676,598.216993 L224.217124,598.216993 L212.663517,586.701316 L200.879733,574.956218 L189.09595,563.21112 L177.312166,551.466022 L165.528382,539.720924 L154.300007,528.529412 L165.528382,517.337899 L165.528382,516.230728 L153.744598,504.48563 L153.189189,504.256209 L141.730638,504.256209 L130.407207,492.969953 L130.407207,481.54902 L130.407207,469.803922 L130.407207,458.058824 L130.177031,457.505238 L118.393247,445.76014 L117.282429,445.76014 L105.498645,457.505238 L105.268468,458.058824 L105.268468,469.803922 L105.268468,481.54902 L105.268468,493.294118 L106.054054,494.077124 L115.941434,494.077124 L105.498645,504.48563 L105.498645,505.592801 L117.282429,517.337899 L117.837838,517.56732 L129.621622,517.56732 L141.405405,517.56732 L151.292786,517.56732 L140.849996,527.975826 L140.61982,528.529412 L140.61982,540.27451 L140.61982,552.019608 L140.849996,552.573193 L152.403604,564.088871 L152.403604,575.509804 L152.403604,586.471895 L141.405405,586.471895 L140.849996,586.701316 L129.296389,598.216993 L117.837838,598.216993 L106.054054,598.216993 L94.2702703,598.216993 L82.4864865,598.216993 L70.7027027,598.216993 L58.9189189,598.216993 L47.1351351,598.216993 L35.3513514,598.216993 L23.5675676,598.216993 L11.7837838,598.216993 L0.785585586,598.216993 L0.785585586,587.254902 L0.785585586,575.509804 L0.785585586,563.764706 L0.785585586,552.019608 L0.785585586,540.27451 L0.785585586,528.529412 L0.785585586,517.108478 L12.3391928,505.592801 L12.5693694,505.039216 L12.5693694,493.294118 L12.5693694,481.54902 L12.5693694,469.803922 L12.5693694,458.058824 L12.5693694,446.63789 L24.1229766,435.122213 L24.3531532,434.568627 L24.3531532,422.823529 L24.3531532,411.402596 L35.9067604,399.886919 L36.1369369,399.333333 L36.1369369,387.588235 L36.1369369,376.167302 L47.6905441,364.651625 L47.1351351,363.315033 L35.3513514,363.315033 L34.5657658,364.098039 L34.5657658,373.952959 L24.1229766,363.544454 L22.781982,364.098039 L22.781982,375.518973 L11.2283748,387.03465 L10.9981982,387.588235 L10.9981982,399.009169 L0.785585586,409.188254 L0.785585586,399.333333 L0.785585586,387.588235 L0.785585586,375.843137 L0.785585586,364.098039 L0.785585586,352.352941 L0.785585586,340.607843 L0.785585586,328.862745 L0.785585586,317.117647 L0.785585586,305.372549 L0.785585586,293.627451 L0.785585586,281.882353 L0.785585586,270.137255 L0.785585586,258.392157 L0.785585586,246.647059 L0.785585586,234.901961 L0.785585586,225.047041 L10.9981982,235.226125 L10.9981982,246.647059 L10.9981982,258.392157 L10.9981982,270.137255 L10.9981982,281.882353 L11.2283748,282.435939 L22.781982,293.951616 L22.781982,305.372549 L22.781982,317.117647 L23.5675676,317.900654 L35.0261189,317.900654 L46.3495495,329.18691 L46.3495495,340.607843 L46.5797261,341.161429 L58.3635099,352.906527 L59.4743279,352.906527 L71.0279351,341.39085 L82.4864865,341.39085 L83.0418955,341.161429 L94.8256793,329.416331 L95.0558559,328.862745 L95.0558559,317.117647 L94.2702703,316.334641 L83.2720721,316.334641 L83.2720721,305.372549 L83.0418955,304.818963 L71.4882883,293.303286 L71.4882883,281.882353 L71.4882883,270.137255 L71.4882883,258.716322 L82.8117189,247.430065 L93.4846847,247.430065 L93.4846847,258.392157 L94.2702703,259.175163 L105.268468,259.175163 L105.268468,270.137255 L105.498645,270.690841 L117.282429,282.435939 L128.836036,293.951616 L128.836036,305.372549 L129.066213,305.926135 L140.61982,317.441812 L140.61982,328.862745 L141.405405,329.645752 L153.189189,329.645752 L153.744598,329.416331 L165.528382,317.671233 L165.758559,317.117647 L165.758559,305.372549 L165.528382,304.818963 L153.974775,293.303286 L153.974775,282.665359 L164.972973,282.665359 L176.756757,282.665359 L177.312166,281.328767 L165.528382,269.583669 L153.974775,258.067992 L153.974775,246.647059 L153.189189,245.864052 L142.190991,245.864052 L142.190991,234.901961 L140.849996,234.348375 L129.296389,245.864052 L117.837838,245.864052 L106.054054,245.864052 L105.268468,246.647059 L105.268468,256.501979 L94.8256793,246.093473 L83.0418955,234.348375 L71.2581117,222.603277 L69.9171171,223.156863 L69.9171171,234.901961 L69.9171171,244.756881 L59.4743279,234.348375 L58.3635099,234.348375 L47.9207207,244.756881 L47.9207207,235.226125 L59.4743279,223.710448 L59.7045045,223.156863 L59.7045045,211.735929 L71.0279351,200.449673 L82.4864865,200.449673 L83.2720721,199.666667 L83.2720721,187.921569 L83.2720721,176.500635 L94.8256793,164.984958 L95.0558559,164.431373 L95.0558559,153.010439 L106.609463,141.494762 L106.054054,140.15817 L94.2702703,140.15817 L93.7148613,140.387591 L81.9310775,152.132689 L81.7009009,152.686275 L81.7009009,164.107208 L70.1472937,175.622885 L69.9171171,176.176471 L69.9171171,187.597404 L59.7045045,197.776489 L59.7045045,187.921569 L58.9189189,187.138562 L49.0315387,187.138562 L59.4743279,176.730056 L59.7045045,176.176471 L59.7045045,164.755537 L71.2581117,153.23986 L71.4882883,152.686275 L71.4882883,141.265341 L83.0418955,129.749664 L94.8256793,118.004566 L94.8256793,116.897395 L83.2720721,105.381718 L83.2720721,93.9607843 L83.2720721,82.2156863 L82.4864865,81.4326797 L70.7027027,81.4326797 L59.7045045,81.4326797 L59.7045045,70.4705882 L59.4743279,69.9170026 L47.6905441,58.1719046 L47.1351351,57.9424837 L35.6765838,57.9424837 L24.3531532,46.6562275 Z M189.326126,95.8509621 L198.427921,104.922876 L189.326126,104.922876 L189.326126,95.8509621 Z M224.677477,141.724183 L233.779272,141.724183 L224.677477,150.796097 L224.677477,141.724183 Z M271.027027,152.686275 L271.027027,164.431373 L259.243243,164.431373 L271.027027,152.686275 Z M259.243243,176.176471 L271.027027,164.431373 L271.027027,176.176471 L259.243243,187.921569 L259.243243,176.176471 Z M519.272072,165.214379 L528.373867,165.214379 L519.272072,174.286293 L519.272072,165.214379 Z M613.542342,176.959477 L622.644137,176.959477 L613.542342,186.031391 L613.542342,176.959477 Z M352.727928,178.066648 L352.727928,187.138562 L343.626133,187.138562 L352.727928,178.066648 Z M459.567568,223.156863 L459.567568,211.411765 L471.351351,223.156863 L459.567568,234.901961 L459.567568,223.156863 Z M447.783784,234.901961 L436,246.647059 L436,234.901961 L447.783784,234.901961 Z M106.054054,246.647059 L117.837838,246.647059 L129.621622,246.647059 L141.405405,234.901961 L141.405405,246.647059 L153.189189,246.647059 L153.189189,258.392157 L164.972973,270.137255 L176.756757,281.882353 L164.972973,281.882353 L153.189189,281.882353 L153.189189,293.627451 L164.972973,305.372549 L164.972973,317.117647 L153.189189,328.862745 L141.405405,328.862745 L141.405405,317.117647 L129.621622,305.372549 L129.621622,293.627451 L117.837838,281.882353 L106.054054,270.137255 L106.054054,258.392157 L106.054054,246.647059 Z M94.2702703,246.647059 L106.054054,258.392157 L94.2702703,258.392157 L94.2702703,246.647059 Z M754.947748,375.843137 L754.717571,375.289552 L743.163964,363.773875 L743.163964,352.352941 L742.933002,351.799356 L731.38018,340.283678 L731.38018,330.752923 L741.822969,341.161429 L753.606753,352.906527 L754.162162,353.135948 L764.049542,353.135948 L753.606753,363.544454 L753.606753,364.651625 L764.835128,375.843137 L754.947748,385.698058 L754.947748,375.843137 Z M200.324324,11.745098 L188.540541,23.4901961 L176.756757,35.2352941 L176.756757,23.4901961 L164.972973,23.4901961 L164.972973,11.745098 L153.189189,23.4901961 L141.405405,11.745098 L141.405405,23.4901961 L141.405405,35.2352941 L141.405405,46.9803922 L153.189189,58.7254902 L164.972973,58.7254902 L164.972973,46.9803922 L176.756757,46.9803922 L188.540541,35.2352941 L200.324324,35.2352941 L212.108108,35.2352941 L212.108108,23.4901961 L223.891892,35.2352941 L223.891892,23.4901961 L212.108108,11.745098 L200.324324,11.745098 Z M189.09595,24.0437817 L200.649557,12.5281046 L211.782876,12.5281046 L223.106306,23.8143608 L223.106306,33.3451163 L212.663517,22.9366105 L211.322523,23.4901961 L211.322523,34.4522876 L200.324324,34.4522876 L188.540541,34.4522876 L187.985132,34.6817085 L176.431524,46.1973856 L164.972973,46.1973856 L164.187387,46.9803922 L164.187387,57.9424837 L153.514422,57.9424837 L142.190991,46.6562275 L142.190991,35.2352941 L142.190991,23.4901961 L142.190991,13.6352758 L152.63378,24.0437817 L153.744598,24.0437817 L164.187387,13.6352758 L164.187387,23.4901961 L164.972973,24.2732026 L175.971171,24.2732026 L175.971171,35.2352941 L177.312166,35.7888797 L189.09595,24.0437817 Z M0,23.4901961 L0,35.2352941 L11.7837838,23.4901961 L0,23.4901961 Z M0.785585586,24.2732026 L9.88738018,24.2732026 L0.785585586,33.3451163 L0.785585586,24.2732026 Z M223.891892,35.2352941 L235.675676,46.9803922 L235.675676,35.2352941 L223.891892,35.2352941 Z M225.788295,36.0183007 L234.89009,36.0183007 L234.89009,45.0902144 L225.788295,36.0183007 Z M0,46.9803922 L0,58.7254902 L0,70.4705882 L0,82.2156863 L0,93.9607843 L0,105.705882 L0,117.45098 L0,129.196078 L0,140.941176 L0,152.686275 L11.7837838,152.686275 L23.5675676,140.941176 L35.3513514,140.941176 L23.5675676,129.196078 L35.3513514,117.45098 L23.5675676,105.705882 L23.5675676,93.9607843 L23.5675676,82.2156863 L11.7837838,70.4705882 L11.7837838,58.7254902 L11.7837838,46.9803922 L0,35.2352941 L0,46.9803922 Z M0.785585586,140.941176 L0.785585586,129.196078 L0.785585586,117.45098 L0.785585586,105.705882 L0.785585586,93.9607843 L0.785585586,82.2156863 L0.785585586,70.4705882 L0.785585586,58.7254902 L0.785585586,46.9803922 L0.785585586,37.1254719 L10.9981982,47.3045569 L10.9981982,58.7254902 L10.9981982,70.4705882 L11.2283748,71.0241739 L22.781982,82.539851 L22.781982,93.9607843 L22.781982,105.705882 L23.0121586,106.259468 L34.2405333,117.45098 L23.0121586,128.642493 L23.0121586,129.749664 L33.4549477,140.15817 L23.5675676,140.15817 L23.0121586,140.387591 L11.4585514,151.903268 L0.785585586,151.903268 L0.785585586,140.941176 Z M412.432432,70.4705882 L400.648649,70.4705882 L388.864865,82.2156863 L400.648649,82.2156863 L412.432432,82.2156863 L424.216216,70.4705882 L412.432432,58.7254902 L412.432432,70.4705882 Z M400.973881,71.2535948 L412.432432,71.2535948 L413.218018,70.4705882 L413.218018,60.615668 L423.105398,70.4705882 L412.1072,81.4326797 L400.648649,81.4326797 L390.761268,81.4326797 L400.973881,71.2535948 Z M848.432432,82.2156863 L860.216216,93.9607843 L860.216216,82.2156863 L848.432432,70.4705882 L848.432432,82.2156863 Z M849.218018,81.8915216 L849.218018,72.360766 L859.430631,82.539851 L859.430631,92.0706065 L849.218018,81.8915216 Z M789.513514,82.2156863 L801.297297,82.2156863 L801.297297,70.4705882 L789.513514,82.2156863 Z M800.511712,72.360766 L800.511712,81.4326797 L791.409917,81.4326797 L800.511712,72.360766 Z M765.945946,93.9607843 L777.72973,93.9607843 L777.72973,82.2156863 L765.945946,93.9607843 Z M776.944144,84.1058641 L776.944144,93.1777778 L767.84235,93.1777778 L776.944144,84.1058641 Z M412.432432,82.2156863 L424.216216,93.9607843 L424.216216,82.2156863 L412.432432,82.2156863 Z M414.328836,82.9986928 L423.430631,82.9986928 L423.430631,92.0706065 L414.328836,82.9986928 Z M400.648649,93.9607843 L412.432432,93.9607843 L400.648649,82.2156863 L400.648649,93.9607843 Z M401.434234,84.1058641 L410.536029,93.1777778 L401.434234,93.1777778 L401.434234,84.1058641 Z M35.3513514,93.9607843 L47.1351351,93.9607843 L47.1351351,82.2156863 L35.3513514,93.9607843 Z M46.3495495,84.1058641 L46.3495495,93.1777778 L37.247755,93.1777778 L46.3495495,84.1058641 Z M848.432432,105.705882 L860.216216,105.705882 L848.432432,93.9607843 L848.432432,105.705882 Z M849.218018,95.8509621 L858.319813,104.922876 L849.218018,104.922876 L849.218018,95.8509621 Z M683.459459,105.705882 L695.243243,105.705882 L683.459459,93.9607843 L683.459459,105.705882 Z M684.245045,95.8509621 L693.34684,104.922876 L684.245045,104.922876 L684.245045,95.8509621 Z M435.214414,117.45098 L446.998198,117.45098 L446.998198,105.705882 L435.214414,117.45098 Z M446.212613,107.59606 L446.212613,116.667974 L437.110818,116.667974 L446.212613,107.59606 Z M860.216216,129.196078 L860.216216,140.941176 L872,129.196078 L860.216216,117.45098 L860.216216,129.196078 Z M861.001802,129.196078 L861.001802,119.341158 L870.889182,129.196078 L861.001802,139.050999 L861.001802,129.196078 Z M446.998198,129.196078 L458.781982,129.196078 L458.781982,117.45098 L446.998198,129.196078 Z M457.996396,119.341158 L457.996396,128.413072 L448.894602,128.413072 L457.996396,119.341158 Z M70.7027027,117.45098 L58.9189189,117.45098 L70.7027027,129.196078 L82.4864865,117.45098 L70.7027027,117.45098 Z M60.8153225,118.233987 L70.7027027,118.233987 L80.5900829,118.233987 L70.7027027,128.088907 L60.8153225,118.233987 Z M47.1351351,129.196078 L47.1351351,140.941176 L58.9189189,129.196078 L58.9189189,117.45098 L47.1351351,129.196078 Z M47.9207207,129.520243 L58.1333333,119.341158 L58.1333333,128.871914 L47.9207207,139.050999 L47.9207207,129.520243 Z M860.216216,140.941176 L860.216216,152.686275 L872,140.941176 L860.216216,140.941176 Z M861.001802,141.724183 L870.103596,141.724183 L861.001802,150.796097 L861.001802,141.724183 Z M494.918919,152.686275 L506.702703,152.686275 L506.702703,164.431373 L518.486486,164.431373 L518.486486,152.686275 L506.702703,140.941176 L494.918919,152.686275 Z M506.702703,142.048348 L517.700901,153.010439 L517.700901,163.648366 L507.488288,163.648366 L507.488288,152.686275 L506.702703,151.903268 L496.815323,151.903268 L506.702703,142.048348 Z M612.756757,152.686275 L612.756757,164.431373 L624.540541,152.686275 L612.756757,152.686275 Z M613.542342,153.469281 L622.644137,153.469281 L613.542342,162.541195 L613.542342,153.469281 Z M600.972973,164.431373 L589.189189,164.431373 L600.972973,176.176471 L612.756757,164.431373 L600.972973,152.686275 L600.972973,164.431373 Z M591.085593,165.214379 L600.972973,165.214379 L601.758559,164.431373 L601.758559,154.576452 L611.645939,164.431373 L600.972973,175.069299 L591.085593,165.214379 Z M424.216216,152.686275 L412.432432,164.431373 L400.648649,164.431373 L388.864865,176.176471 L388.864865,187.921569 L388.864865,199.666667 L400.648649,187.921569 L400.648649,176.176471 L412.432432,176.176471 L424.216216,164.431373 L436,164.431373 L447.783784,164.431373 L436,152.686275 L424.216216,152.686275 Z M389.65045,187.921569 L389.65045,176.500635 L400.973881,165.214379 L412.432432,165.214379 L412.987841,164.984958 L424.541449,153.469281 L435.674768,153.469281 L445.88738,163.648366 L436,163.648366 L424.216216,163.648366 L423.660807,163.877787 L412.1072,175.393464 L400.648649,175.393464 L399.863063,176.176471 L399.863063,187.597404 L389.65045,197.776489 L389.65045,187.921569 Z M35.3513514,176.176471 L35.3513514,187.921569 L47.1351351,187.921569 L47.1351351,176.176471 L35.3513514,164.431373 L35.3513514,176.176471 Z M36.1369369,176.176471 L36.1369369,166.32155 L46.3495495,176.500635 L46.3495495,187.138562 L36.1369369,187.138562 L36.1369369,176.176471 Z M365.297297,187.921569 L377.081081,187.921569 L365.297297,176.176471 L365.297297,187.921569 Z M366.082883,178.066648 L375.184677,187.138562 L366.082883,187.138562 L366.082883,178.066648 Z M836.648649,187.921569 L836.648649,199.666667 L848.432432,187.921569 L836.648649,187.921569 Z M837.434234,188.704575 L846.536029,188.704575 L837.434234,197.776489 L837.434234,188.704575 Z M35.3513514,258.392157 L47.1351351,270.137255 L47.1351351,258.392157 L47.1351351,246.647059 L35.3513514,258.392157 Z M36.4621694,258.392157 L46.3495495,248.537237 L46.3495495,258.392157 L46.3495495,268.247077 L36.4621694,258.392157 Z M141.405405,270.137255 L153.189189,281.882353 L153.189189,270.137255 L153.189189,258.392157 L141.405405,270.137255 Z M142.516223,270.137255 L152.403604,260.282335 L152.403604,270.137255 L152.403604,279.992175 L142.516223,270.137255 Z M58.9189189,281.882353 L70.7027027,281.882353 L58.9189189,270.137255 L58.9189189,281.882353 Z M59.7045045,272.027433 L68.8062991,281.099346 L59.7045045,281.099346 L59.7045045,272.027433 Z M789.513514,293.627451 L801.297297,305.372549 L801.297297,293.627451 L789.513514,293.627451 Z M791.409917,294.410458 L800.511712,294.410458 L800.511712,303.482371 L791.409917,294.410458 Z M70.7027027,328.862745 L82.4864865,328.862745 L70.7027027,317.117647 L70.7027027,328.862745 Z M71.4882883,319.007825 L80.5900829,328.079739 L71.4882883,328.079739 L71.4882883,319.007825 Z M789.513514,387.588235 L777.72973,399.333333 L765.945946,387.588235 L765.945946,399.333333 L765.945946,411.078431 L765.945946,422.823529 L765.945946,434.568627 L777.72973,422.823529 L789.513514,411.078431 L789.513514,399.333333 L801.297297,387.588235 L789.513514,387.588235 Z M778.284353,399.886919 L789.838746,388.371242 L799.400894,388.371242 L788.958105,398.779748 L788.727928,399.333333 L788.727928,410.754267 L777.174321,422.269944 L766.731532,432.67845 L766.731532,422.823529 L766.731532,411.078431 L766.731532,399.333333 L766.731532,389.478413 L777.174321,399.886919 L778.284353,399.886919 Z M0,422.823529 L0,434.568627 L11.7837838,422.823529 L0,411.078431 L0,422.823529 Z M0.785585586,422.823529 L0.785585586,412.968609 L10.6729658,422.823529 L0.785585586,432.67845 L0.785585586,422.823529 Z M777.72973,434.568627 L777.72973,446.313725 L777.72973,458.058824 L777.72973,469.803922 L777.72973,481.54902 L765.945946,481.54902 L765.945946,493.294118 L754.162162,505.039216 L742.378378,516.784314 L742.378378,528.529412 L754.162162,516.784314 L765.945946,505.039216 L777.72973,516.784314 L777.72973,505.039216 L789.513514,493.294118 L801.297297,481.54902 L801.297297,469.803922 L789.513514,458.058824 L789.513514,446.313725 L789.513514,434.568627 L777.72973,422.823529 L777.72973,434.568627 Z M743.163964,517.108478 L754.717571,505.592801 L766.501355,493.847703 L766.731532,493.294118 L766.731532,482.332026 L777.72973,482.332026 L778.515315,481.54902 L778.515315,469.803922 L778.515315,458.058824 L778.515315,446.313725 L778.515315,434.568627 L778.515315,424.713707 L788.727928,434.892792 L788.727928,446.313725 L788.727928,458.058824 L788.958105,458.612409 L800.511712,470.128086 L800.511712,481.224855 L788.958105,492.740532 L777.174321,504.48563 L776.944144,505.039216 L776.944144,514.894136 L766.501355,504.48563 L765.390537,504.48563 L753.606753,516.230728 L743.163964,526.639234 L743.163964,517.108478 Z M754.162162,516.784314 L754.162162,528.529412 L765.945946,516.784314 L754.162162,516.784314 Z M754.947748,517.56732 L764.049542,517.56732 L754.947748,526.639234 L754.947748,517.56732 Z M730.594595,540.27451 L742.378378,540.27451 L742.378378,552.019608 L754.162162,540.27451 L742.378378,528.529412 L730.594595,540.27451 Z M742.378378,529.636583 L753.051344,540.27451 L743.163964,550.12943 L743.163964,540.27451 L742.378378,539.491503 L732.490998,539.491503 L742.378378,529.636583 Z" id="continents" fill="#F7F1F1"></path>
                <path d="M754.30546,105.533477 L742.520258,93.7883792 L754.30546,93.7883792 L754.30546,105.533477 Z M412.534586,164.258967 L400.749383,164.258967 L388.96418,176.004065 L388.96418,187.749164 L400.749383,176.004065 L412.534586,164.258967 Z M388.96418,187.749164 L388.96418,199.494262 L400.749383,187.749164 L388.96418,187.749164 Z M801.446271,305.200144 L801.446271,293.455046 L789.661068,293.455046 L801.446271,305.200144 Z M153.260129,258.219752 L141.474926,269.96485 L153.260129,281.709948 L153.260129,269.96485 L153.260129,258.219752 Z M365.393775,176.004065 L365.393775,187.749164 L377.178978,187.749164 L365.393775,176.004065 Z M789.661068,269.96485 L801.446271,281.709948 L801.446271,293.455046 L789.661068,281.709948 L777.875865,281.709948 L766.090663,269.96485 L766.090663,258.219752 L754.30546,246.474654 L754.30546,234.729556 L754.30546,222.984458 L754.30546,211.23936 L742.520258,199.494262 L742.520258,211.23936 L730.735055,211.23936 L730.735055,222.984458 L730.735055,234.729556 L742.520258,246.474654 L730.735055,258.219752 L718.949853,258.219752 L718.949853,269.96485 L707.16465,269.96485 L707.16465,281.709948 L695.379447,281.709948 L695.379447,293.455046 L695.379447,305.200144 L695.379447,316.945242 L695.379447,328.69034 L683.594245,340.435438 L695.379447,340.435438 L707.16465,340.435438 L707.16465,328.69034 L718.949853,328.69034 L730.735055,340.435438 L730.735055,352.180536 L730.735055,363.925634 L742.520258,375.670732 L742.520258,387.41583 L742.520258,399.160928 L742.520258,410.906026 L730.735055,422.651124 L730.735055,434.396222 L730.735055,446.14132 L718.949853,446.14132 L707.16465,434.396222 L707.16465,422.651124 L718.949853,434.396222 L718.949853,422.651124 L718.949853,410.906026 L718.949853,399.160928 L707.16465,387.41583 L707.16465,399.160928 L695.379447,410.906026 L683.594245,399.160928 L671.809042,399.160928 L660.02384,387.41583 L648.238637,375.670732 L636.453434,375.670732 L624.668232,375.670732 L624.668232,387.41583 L624.668232,399.160928 L624.668232,410.906026 L612.883029,422.651124 L601.097827,422.651124 L601.097827,410.906026 L589.312624,422.651124 L577.527422,434.396222 L565.742219,434.396222 L553.957016,422.651124 L542.171814,422.651124 L530.386611,422.651124 L518.601409,410.906026 L506.816206,410.906026 L506.816206,399.160928 L495.031004,399.160928 L483.245801,399.160928 L471.460598,399.160928 L459.675396,399.160928 L447.890193,410.906026 L447.890193,422.651124 L436.104991,422.651124 L424.319788,434.396222 L412.534586,446.14132 L400.749383,434.396222 L400.749383,446.14132 L388.96418,457.886418 L388.96418,446.14132 L377.178978,457.886418 L377.178978,469.631516 L365.393775,481.376614 L353.608573,481.376614 L341.82337,481.376614 L330.038167,469.631516 L330.038167,481.376614 L330.038167,493.121713 L318.252965,493.121713 L306.467762,493.121713 L306.467762,481.376614 L306.467762,469.631516 L294.68256,469.631516 L282.897357,469.631516 L271.112155,457.886418 L282.897357,446.14132 L271.112155,434.396222 L259.326952,434.396222 L259.326952,422.651124 L247.541749,410.906026 L259.326952,399.160928 L271.112155,399.160928 L271.112155,387.41583 L282.897357,387.41583 L271.112155,375.670732 L259.326952,375.670732 L247.541749,387.41583 L247.541749,399.160928 L235.756547,399.160928 L223.971344,410.906026 L235.756547,410.906026 L247.541749,422.651124 L247.541749,434.396222 L247.541749,446.14132 L259.326952,457.886418 L259.326952,469.631516 L247.541749,481.376614 L235.756547,469.631516 L235.756547,481.376614 L223.971344,469.631516 L235.756547,457.886418 L223.971344,457.886418 L223.971344,446.14132 L212.186142,434.396222 L200.400939,422.651124 L188.615737,422.651124 L200.400939,410.906026 L200.400939,399.160928 L200.400939,387.41583 L212.186142,399.160928 L212.186142,387.41583 L200.400939,387.41583 L212.186142,375.670732 L212.186142,363.925634 L212.186142,352.180536 L223.971344,352.180536 L223.971344,363.925634 L235.756547,352.180536 L235.756547,340.435438 L223.971344,340.435438 L212.186142,328.69034 L200.400939,340.435438 L188.615737,352.180536 L188.615737,363.925634 L188.615737,375.670732 L176.830534,387.41583 L165.045331,387.41583 L176.830534,375.670732 L165.045331,375.670732 L153.260129,363.925634 L153.260129,352.180536 L153.260129,340.435438 L153.260129,328.69034 L165.045331,316.945242 L165.045331,305.200144 L153.260129,293.455046 L153.260129,281.709948 L165.045331,281.709948 L176.830534,281.709948 L153.260129,258.219752 L153.260129,246.474654 L141.474926,246.474654 L141.474926,234.729556 L153.260129,222.984458 L153.260129,211.23936 L153.260129,199.572562 L188.615737,199.572562 L188.615737,187.827464 L200.400939,187.827464 L212.186142,187.827464 L212.186142,176.082366 L223.971344,176.082366 L235.756547,176.082366 L247.541749,164.337268 L247.541749,176.082366 L259.326952,164.337268 L259.326952,176.082366 L259.326952,187.827464 L271.112155,176.082366 L282.897357,176.082366 L271.112155,187.827464 L271.112155,199.572562 L282.897357,187.827464 L282.897357,176.082366 L282.897357,164.337268 L294.68256,152.59217 L306.467762,140.847072 L318.252965,140.847072 L330.038167,129.101974 L341.82337,140.847072 L341.82337,152.59217 L341.82337,164.337268 L341.82337,176.082366 L330.038167,176.082366 L318.252965,164.337268 L318.252965,152.59217 L306.467762,164.337268 L294.68256,176.082366 L306.467762,187.827464 L306.467762,176.082366 L318.252965,187.827464 L318.252965,176.082366 L330.038167,187.827464 L341.82337,187.827464 L353.608573,176.082366 L353.608573,187.827464 L365.393775,199.572562 L377.178978,211.31766 L377.178978,199.572562 L388.96418,211.31766 L400.749383,199.572562 L400.749383,211.31766 L412.534586,223.062758 L412.534586,211.31766 L424.319788,199.572562 L436.104991,199.572562 L447.890193,199.572562 L436.104991,211.31766 L424.319788,222.984458 L424.319788,234.729556 L412.534586,246.552954 L400.749383,246.474654 L412.534586,258.219752 L424.319788,246.474654 L436.104991,234.729556 L436.104991,246.474654 L447.890193,234.729556 L436.104991,234.729556 L436.104991,223.21936 L447.890193,211.395961 L459.675396,211.23936 L459.675396,222.984458 L459.675396,234.729556 L471.460598,222.984458 L459.675396,211.23936 L471.460598,199.494262 L483.245801,199.494262 L495.031004,211.23936 L506.816206,211.23936 L506.816206,222.984458 L518.601409,211.23936 L530.386611,199.494262 L542.171814,199.494262 L530.386611,211.23936 L542.171814,211.23936 L553.957016,199.494262 L565.742219,211.23936 L577.527422,199.494262 L589.312624,199.494262 L601.097827,211.23936 L612.883029,199.494262 L624.668232,199.494262 L612.883029,187.749164 L624.668232,187.749164 L636.453434,176.004065 L648.238637,176.004065 L660.02384,176.004065 L660.02384,164.258967 L671.809042,152.513869 L671.809042,164.258967 L683.594245,164.258967 L683.594245,152.513869 L695.379447,164.258967 L695.379447,176.004065 L707.16465,176.004065 L718.949853,164.258967 L718.949853,176.004065 L730.735055,164.258967 L718.949853,152.513869 L730.735055,140.768771 L730.735055,129.023673 L742.520258,129.023673 L754.30546,129.023673 L766.090663,140.768771 L766.090663,152.513869 L766.090663,164.258967 L766.090663,176.004065 L777.875865,176.004065 L766.090663,187.749164 L766.090663,199.494262 L766.090663,211.23936 L766.090663,222.984458 L777.875865,222.984458 L789.661068,234.729556 L777.875865,234.729556 L789.661068,246.474654 L789.661068,258.219752 L801.446271,258.219752 L789.661068,269.96485 Z M365.393775,469.631516 L353.608573,457.886418 L353.608573,469.631516 L365.393775,469.631516 Z M377.178978,434.396222 L365.393775,422.651124 L353.608573,422.651124 L365.393775,434.396222 L377.178978,434.396222 Z M565.742219,375.670732 L553.957016,387.41583 L542.171814,399.160928 L530.386611,410.906026 L542.171814,410.906026 L553.957016,399.160928 L565.742219,387.41583 L565.742219,375.670732 Z M583.420023,334.562889 L577.527422,340.435438 L577.684558,340.435438 L583.420023,334.562889 Z M589.312624,340.357137 L583.420023,340.435438 L589.312624,340.435438 L589.312624,340.357137 Z M235.546566,411.056881 L223.787611,411.056881 L235.546566,399.333333 L235.546566,398.956841 L247.30552,398.956841 L271.417997,399.333333 L247.681869,410.680388 L259.440824,422.403935 L247.30552,434.503976 L247.30552,422.780428 L235.546566,411.056881 Z M589.312624,328.69034 L589.312624,334.484588 L589.234056,328.768641 L589.312624,328.69034 Z" id="Combined-Shape" fill="url(#linearGradient-1)" fill-rule="nonzero"></path>
                <path d="M176.756757,152.686275 L188.540541,140.941176 L200.324324,152.686275 L188.540541,164.431373 L176.756757,152.686275 Z M329.945946,129.196078 L329.945946,117.45098 L341.72973,129.196078 L341.72973,117.45098 L329.945946,105.705882 L318.162162,117.45098 L329.945946,129.196078 Z M0,58.7254902 L0,70.4705882 L0,82.2156863 L0,93.9607843 L0,105.705882 L0,117.45098 L0,129.196078 L0,140.941176 L0,152.686275 L11.7837838,152.686275 L23.5675676,140.941176 L35.3513514,140.941176 L23.5675676,129.196078 L35.3513514,117.45098 L23.5675676,105.705882 L23.5675676,93.9607843 L23.5675676,82.2156863 L11.7837838,70.4705882 L11.7837838,58.7254902 L11.7837838,46.9803922 L0,35.2352941 L0,46.9803922 L0,58.7254902 Z M0,35.2352941 L11.7837838,23.4901961 L0,23.4901961 L0,35.2352941 Z M200.324324,105.705882 L188.540541,93.9607843 L188.540541,105.705882 L200.324324,105.705882 Z M200.324324,105.705882 L188.540541,117.45098 L200.324324,117.45098 L200.324324,129.196078 L212.108108,129.196078 L223.891892,117.45098 L223.891892,129.196078 L235.675676,129.196078 L247.459459,117.45098 L259.243243,117.45098 L271.027027,117.45098 L282.810811,117.45098 L294.594595,129.196078 L306.378378,129.196078 L318.162162,117.45098 L318.162162,105.705882 L329.945946,105.705882 L318.162162,93.9607843 L306.378378,82.2156863 L306.378378,93.9607843 L294.594595,82.2156863 L294.594595,93.9607843 L282.810811,82.2156863 L271.027027,82.2156863 L259.243243,70.4705882 L247.459459,58.7254902 L235.675676,70.4705882 L235.675676,58.7254902 L223.891892,70.4705882 L212.108108,70.4705882 L212.108108,82.2156863 L223.891892,93.9607843 L212.108108,93.9607843 L212.108108,105.705882 L200.324324,105.705882 Z M860.216216,117.45098 L860.216216,129.196078 L860.216216,140.941176 L872,129.196078 L860.216216,117.45098 Z M35.3513514,164.431373 L35.3513514,176.176471 L35.3513514,187.921569 L47.1351351,187.921569 L47.1351351,176.176471 L35.3513514,164.431373 Z M860.216216,152.686275 L872,140.941176 L860.216216,140.941176 L860.216216,152.686275 Z M235.675676,35.2352941 L223.891892,35.2352941 L235.675676,46.9803922 L235.675676,35.2352941 Z M188.540541,11.745098 L200.324324,0 L188.540541,0 L176.756757,0 L164.972973,0 L164.972973,11.745098 L176.756757,11.745098 L188.540541,11.745098 Z M223.891892,0 L212.108108,11.745098 L223.891892,11.745098 L223.891892,0 Z M47.1351351,270.137255 L47.1351351,258.392157 L47.1351351,246.647059 L35.3513514,258.392157 L47.1351351,270.137255 Z M683.459459,93.9607843 L683.459459,105.705882 L695.243243,93.9607843 L683.459459,93.9607843 Z M58.9189189,281.882353 L70.7027027,281.882353 L58.9189189,270.137255 L58.9189189,281.882353 Z M0,434.568627 L11.7837838,422.823529 L0,411.078431 L0,422.823529 L0,434.568627 Z M164.972973,58.7254902 L164.972973,46.9803922 L176.756757,46.9803922 L188.540541,35.2352941 L200.324324,35.2352941 L212.108108,35.2352941 L212.108108,23.4901961 L223.891892,35.2352941 L223.891892,23.4901961 L212.108108,11.745098 L200.324324,11.745098 L188.540541,23.4901961 L176.756757,35.2352941 L176.756757,23.4901961 L164.972973,23.4901961 L164.972973,11.745098 L153.189189,23.4901961 L141.405405,11.745098 L141.405405,23.4901961 L141.405405,35.2352941 L141.405405,46.9803922 L153.189189,58.7254902 L164.972973,58.7254902 Z M106.054054,258.392157 L94.2702703,246.647059 L82.4864865,234.901961 L70.7027027,223.156863 L70.7027027,234.901961 L70.7027027,246.647059 L58.9189189,234.901961 L47.1351351,246.647059 L47.1351351,234.901961 L58.9189189,223.156863 L58.9189189,211.411765 L70.7027027,199.666667 L82.4864865,199.666667 L82.4864865,187.921569 L82.4864865,176.176471 L94.2702703,164.431373 L94.2702703,152.686275 L106.054054,140.941176 L94.2702703,140.941176 L82.4864865,152.686275 L82.4864865,164.431373 L70.7027027,176.176471 L70.7027027,187.921569 L58.9189189,199.666667 L58.9189189,187.921569 L47.1351351,187.921569 L58.9189189,176.176471 L58.9189189,164.431373 L70.7027027,152.686275 L70.7027027,140.941176 L82.4864865,129.196078 L94.2702703,117.45098 L82.4864865,105.705882 L82.4864865,93.9607843 L82.4864865,82.2156863 L70.7027027,82.2156863 L58.9189189,82.2156863 L58.9189189,70.4705882 L47.1351351,58.7254902 L35.3513514,58.7254902 L23.5675676,46.9803922 L23.5675676,35.2352941 L11.7837838,23.4901961 L23.5675676,11.745098 L23.5675676,0 L35.3513514,0 L47.1351351,0 L58.9189189,0 L70.7027027,0 L82.4864865,0 L82.4864865,11.745098 L82.4864865,23.4901961 L82.4864865,35.2352941 L82.4864865,46.9803922 L94.2702703,46.9803922 L106.054054,46.9803922 L117.837838,35.2352941 L129.621622,23.4901961 L129.621622,35.2352941 L129.621622,46.9803922 L141.405405,58.7254902 L153.189189,70.4705882 L164.972973,70.4705882 L176.756757,82.2156863 L164.972973,82.2156863 L176.756757,93.9607843 L188.540541,82.2156863 L200.324324,82.2156863 L212.108108,93.9607843 L200.324324,93.9607843 L188.540541,93.9607843 L176.756757,105.705882 L188.540541,117.45098 L176.756757,117.45098 L188.540541,129.196078 L188.540541,140.941176 L176.756757,129.196078 L164.972973,129.196078 L164.972973,140.941176 L153.189189,152.686275 L141.405405,164.431373 L153.189189,176.176471 L141.405405,187.921569 L153.189189,187.921569 L141.405405,199.666667 L153.189189,199.666667 L153.189189,211.411765 L153.189189,223.156863 L146.983063,223.156863 L153.189189,223.156863 L141.405405,234.901961 L129.621622,246.647059 L117.837838,246.647059 L106.054054,246.647059 L106.054054,258.392157 Z M141.405405,223.156863 L145.961802,218.615425 L141.405405,223.156863 Z M47.1351351,140.941176 L58.9189189,129.196078 L58.9189189,117.45098 L47.1351351,129.196078 L47.1351351,140.941176 Z M789.513514,399.333333 L801.297297,387.588235 L789.513514,387.588235 L777.72973,399.333333 L765.945946,387.588235 L765.945946,399.333333 L765.945946,411.078431 L765.945946,422.823529 L765.945946,434.568627 L777.72973,422.823529 L789.513514,411.078431 L789.513514,399.333333 Z M777.72973,446.313725 L777.72973,458.058824 L777.72973,469.803922 L777.72973,481.54902 L765.945946,481.54902 L765.945946,493.294118 L754.162162,505.039216 L742.378378,516.784314 L742.378378,528.529412 L754.162162,516.784314 L765.945946,505.039216 L777.72973,516.784314 L777.72973,505.039216 L789.513514,493.294118 L801.297297,481.54902 L801.297297,469.803922 L789.513514,458.058824 L789.513514,446.313725 L789.513514,434.568627 L777.72973,422.823529 L777.72973,434.568627 L777.72973,446.313725 Z M848.432432,93.9607843 L848.432432,105.705882 L860.216216,105.705882 L848.432432,93.9607843 Z M742.378378,540.27451 L742.378378,552.019608 L754.162162,540.27451 L742.378378,528.529412 L730.594595,540.27451 L742.378378,540.27451 Z M801.297297,82.2156863 L801.297297,70.4705882 L789.513514,82.2156863 L801.297297,82.2156863 Z M730.594595,328.862745 L730.594595,340.607843 L730.673153,340.607843 L742.378378,352.352941 L742.378378,364.098039 L754.162162,375.843137 L754.162162,387.588235 L765.945946,375.843137 L754.162162,364.098039 L765.945946,352.352941 L754.162162,352.352941 L742.456937,340.607843 L730.594595,328.862745 Z M824.864865,11.745098 L813.081081,0 L813.081081,11.745098 L824.864865,23.4901961 L824.864865,11.745098 Z M777.72973,82.2156863 L765.945946,93.9607843 L777.72973,93.9607843 L777.72973,82.2156863 Z M765.945946,516.784314 L754.162162,516.784314 L754.162162,528.529412 L765.945946,516.784314 Z M836.648649,199.666667 L848.432432,187.921569 L836.648649,187.921569 L836.648649,199.666667 Z M860.216216,93.9607843 L860.216216,82.2156863 L848.432432,70.4705882 L848.432432,82.2156863 L860.216216,93.9607843 Z M836.648649,58.7254902 L848.432432,70.4705882 L848.432432,58.7254902 L848.432432,46.9803922 L836.648649,35.2352941 L824.864865,23.4901961 L813.081081,23.4901961 L813.081081,11.745098 L801.297297,11.745098 L801.297297,0 L789.513514,0 L777.72973,0 L765.945946,0 L754.162162,0 L742.378378,0 L730.594595,0 L718.810811,0 L707.027027,0 L695.243243,0 L695.243243,11.745098 L695.243243,23.4901961 L695.243243,35.2352941 L695.243243,46.9803922 L707.027027,58.7254902 L718.810811,58.7254902 L718.810811,70.4705882 L730.594595,58.7254902 L742.378378,46.9803922 L742.378378,58.7254902 L742.378378,70.4705882 L754.162162,82.2156863 L754.162162,70.4705882 L754.162162,58.7254902 L765.945946,46.9803922 L765.945946,58.7254902 L777.72973,70.4705882 L789.513514,70.4705882 L801.297297,58.7254902 L813.081081,46.9803922 L813.081081,35.2352941 L824.864865,35.2352941 L836.648649,46.9803922 L836.648649,58.7254902 Z M70.7027027,317.117647 L70.7027027,328.862745 L82.4864865,328.862745 L70.7027027,317.117647 Z M47.1351351,93.9607843 L47.1351351,82.2156863 L35.3513514,93.9607843 L47.1351351,93.9607843 Z M718.810811,505.039216 L707.027027,493.294118 L695.243243,493.294118 L707.027027,481.54902 L707.027027,469.803922 L707.027027,458.058824 L718.810811,446.313725 L707.027027,434.568627 L707.027027,422.823529 L718.810811,434.568627 L718.810811,422.823529 L718.810811,411.078431 L718.810811,399.333333 L707.027027,387.588235 L707.027027,399.333333 L695.243243,411.078431 L683.459459,399.333333 L671.675676,399.333333 L659.891892,387.588235 L648.108108,375.843137 L636.324324,375.843137 L624.540541,375.843137 L624.540541,387.588235 L624.540541,399.333333 L624.540541,411.078431 L612.756757,422.823529 L600.972973,422.823529 L600.972973,411.078431 L589.189189,422.823529 L577.405405,434.568627 L565.621622,434.568627 L553.837838,422.823529 L542.054054,422.823529 L530.27027,422.823529 L518.486486,411.078431 L506.702703,422.823529 L494.918919,422.823529 L483.135135,422.823529 L471.351351,411.078431 L471.351351,422.823529 L459.567568,422.823529 L471.351351,411.078431 L459.567568,411.078431 L447.783784,411.078431 L447.783784,422.823529 L436,422.823529 L424.216216,434.568627 L412.432432,446.313725 L400.648649,434.568627 L400.648649,446.313725 L388.864865,458.058824 L388.864865,446.313725 L377.081081,458.058824 L377.081081,469.803922 L365.297297,481.54902 L353.513514,481.54902 L341.72973,481.54902 L329.945946,469.803922 L329.945946,481.54902 L329.945946,493.294118 L318.162162,493.294118 L306.378378,493.294118 L294.594595,493.294118 L294.594595,481.54902 L282.810811,481.54902 L271.027027,481.54902 L259.243243,469.803922 L247.459459,481.54902 L235.675676,469.803922 L235.675676,481.54902 L223.891892,469.803922 L235.675676,458.058824 L223.891892,458.058824 L223.891892,446.313725 L212.108108,434.568627 L200.324324,422.823529 L188.540541,422.823529 L176.756757,422.823529 L164.972973,411.078431 L164.972973,399.333333 L164.972973,387.588235 L176.756757,375.843137 L164.972973,375.843137 L153.189189,364.098039 L153.189189,352.352941 L153.189189,340.607843 L153.189189,328.862745 L141.405405,328.862745 L141.405405,317.117647 L129.621622,305.372549 L129.621622,293.627451 L117.837838,281.882353 L106.054054,270.137255 L106.054054,258.392157 L94.2702703,258.392157 L94.2702703,246.647059 L82.4864865,246.647059 L70.7027027,258.392157 L70.7027027,270.137255 L70.7027027,281.882353 L70.7027027,293.627451 L82.4864865,305.372549 L82.4864865,317.117647 L94.2702703,317.117647 L94.2702703,328.862745 L82.4864865,340.607843 L70.7027027,340.607843 L58.9189189,352.352941 L47.1351351,340.607843 L47.1351351,328.862745 L35.3513514,317.117647 L23.5675676,317.117647 L23.5675676,305.372549 L23.5675676,293.627451 L11.7837838,281.882353 L11.7837838,270.137255 L11.7837838,258.392157 L11.7837838,246.647059 L11.7837838,234.901961 L0,223.156863 L0,234.901961 L0,246.647059 L0,258.392157 L0,270.137255 L0,281.882353 L0,293.627451 L0,305.372549 L0,317.117647 L0,328.862745 L0,340.607843 L0,352.352941 L0,364.098039 L0,375.843137 L0,387.588235 L0,399.333333 L0,411.078431 L11.7837838,399.333333 L11.7837838,387.588235 L23.5675676,375.843137 L23.5675676,364.098039 L35.3513514,375.843137 L35.3513514,364.098039 L47.1351351,364.098039 L35.3513514,375.843137 L35.3513514,387.588235 L35.3513514,399.333333 L23.5675676,411.078431 L23.5675676,422.823529 L23.5675676,434.568627 L11.7837838,446.313725 L11.7837838,458.058824 L11.7837838,469.803922 L11.7837838,481.54902 L11.7837838,493.294118 L11.7837838,505.039216 L0,516.784314 L0,528.529412 L0,540.27451 L0,552.019608 L0,563.764706 L0,575.509804 L0,587.254902 L0,599 L11.7837838,599 L23.5675676,599 L35.3513514,599 L47.1351351,599 L58.9189189,599 L70.7027027,599 L82.4864865,599 L94.2702703,599 L106.054054,599 L117.837838,599 L129.621622,599 L141.405405,587.254902 L153.189189,587.254902 L153.189189,575.509804 L153.189189,563.764706 L141.405405,552.019608 L141.405405,540.27451 L141.405405,528.529412 L153.189189,516.784314 L141.405405,516.784314 L129.621622,516.784314 L117.837838,516.784314 L106.054054,505.039216 L117.837838,493.294118 L106.054054,481.54902 L106.054054,469.803922 L106.054054,458.058824 L117.837838,446.313725 L129.621622,458.058824 L129.621622,469.803922 L129.621622,481.54902 L129.621622,493.294118 L141.405405,505.039216 L153.189189,505.039216 L164.972973,516.784314 L153.189189,528.529412 L164.972973,540.27451 L176.756757,552.019608 L188.540541,563.764706 L200.324324,575.509804 L212.108108,587.254902 L223.891892,599 L235.675676,599 L247.459459,599 L259.243243,599 L271.027027,599 L282.810811,599 L294.594595,599 L306.378378,599 L318.162162,599 L329.945946,599 L341.72973,599 L353.513514,599 L365.297297,599 L377.081081,599 L388.864865,599 L400.648649,599 L412.432432,599 L424.216216,599 L436,599 L447.783784,599 L459.567568,599 L471.351351,599 L483.135135,599 L494.918919,599 L506.702703,599 L518.486486,599 L530.27027,599 L542.054054,599 L553.837838,599 L565.621622,599 L577.405405,599 L589.189189,599 L600.972973,599 L612.756757,599 L624.540541,599 L636.324324,599 L648.108108,599 L659.891892,599 L671.675676,599 L683.459459,599 L683.459459,587.254902 L671.675676,587.254902 L683.459459,575.509804 L671.675676,563.764706 L659.891892,552.019608 L648.108108,552.019608 L659.891892,540.27451 L659.891892,528.529412 L671.675676,528.529412 L671.675676,516.784314 L659.891892,516.784314 L648.108108,528.529412 L636.324324,516.784314 L648.108108,505.039216 L659.891892,493.294118 L659.891892,505.039216 L671.675676,493.294118 L683.459459,493.294118 L683.459459,505.039216 L683.459459,516.784314 L695.243243,505.039216 L707.027027,516.784314 L695.243243,516.784314 L707.027027,528.529412 L707.027027,540.27451 L718.810811,528.529412 L730.594595,516.784314 L718.810811,505.039216 Z M188.510746,164.496024 L200.269701,152.772477 L212.028656,141.04893 L223.787611,152.772477 L212.028656,164.496024 L223.787611,164.496024 L235.546566,176.219572 L223.787611,176.219572 L212.028656,176.219572 L212.028656,187.943119 L200.269701,187.943119 L188.510746,187.943119 L188.510746,199.666667 L176.751791,199.666667 L164.992836,199.666667 L153.233881,199.666667 L141.474926,199.666667 L153.233881,187.943119 L141.474926,187.943119 L153.233881,176.219572 L141.474926,164.496024 L153.233881,152.772477 L164.992836,141.04893 L164.992836,129.325382 L176.751791,129.325382 L188.510746,141.04893 L176.751791,152.772477 L188.510746,164.496024 Z M82.4864865,117.45098 L70.7027027,129.196078 L58.9189189,117.45098 L70.7027027,117.45098 L82.4864865,117.45098 Z M294.34134,469.674618 L306.100295,469.674618 L306.100295,481.398165 L306.100295,493.121713 L294.34134,493.121713 L294.34134,481.398165 L282.582385,481.398165 L270.82343,481.398165 L259.064475,469.674618 L259.064475,457.95107 L247.30552,446.227523 L247.30552,434.503976 L259.064475,422.780428 L259.064475,434.503976 L270.82343,434.503976 L282.582385,446.227523 L270.82343,457.95107 L282.582385,469.674618 L294.34134,469.674618 Z M518.496418,411.056881 L506.737463,422.780428 L494.978508,422.780428 L483.219553,422.780428 L471.460598,411.056881 L459.701643,411.056881 L447.942689,411.056881 L459.701643,399.333333 L471.460598,399.333333 L483.219553,399.333333 L494.978508,399.333333 L506.737463,399.333333 L506.737463,411.056881 L518.496418,411.056881 Z M235.546566,141.04893 L223.787611,152.772477 L223.787611,141.04893 L235.546566,141.04893 Z M235.546566,152.772477 L247.30552,164.496024 L235.546566,164.496024 L223.787611,164.496024 L235.546566,152.772477 Z M329.939739,105.878287 L318.13485,117.601835 L318.13485,105.878287 L329.939739,105.878287 Z M329.939739,117.601835 L341.744627,129.325382 L329.939739,129.325382 L329.939739,117.601835 Z M306.329962,129.325382 L318.13485,117.601835 L329.939739,129.325382 L318.13485,141.04893 L306.329962,141.04893 L294.525074,152.772477 L282.720185,164.496024 L282.720185,176.219572 L270.915297,176.219572 L270.915297,164.496024 L259.110409,176.219572 L259.110409,164.496024 L247.30552,152.772477 L247.30552,141.04893 L259.110409,129.325382 L270.915297,129.325382 L282.720185,129.325382 L294.525074,141.04893 L294.525074,129.325382 L306.329962,129.325382 Z" id="Combined-Shape" fill="#F5F1F1" fill-rule="nonzero"></path>
            </g>
        </g>
    </g>
</svg>