<svg width="8" height="15" viewBox="0 0 8 15" version="1.1" xmlns="http://www.w3.org/2000/svg" xmlns:xlink="http://www.w3.org/1999/xlink">
<title>Fill 1</title>
<desc>Created using Figma</desc>
<g id="Canvas" transform="translate(-16064 19970)">
<g id="Fill 1">
<use xlink:href="#path0_fill" transform="translate(16064 -19970)" fill="#FFFFFF"/>
</g>
</g>
<defs>
<path id="path0_fill" fill-rule="evenodd" d="M 3.83553 15C 3.22461 15 2.72935 14.5047 2.72935 13.8938L 2.72935 8.37974C 2.72935 7.62605 2.11837 7.01506 1.36468 7.01506L 1.02315 7.01506C 0.45808 7.01506 0 6.55698 0 5.99191L 0 5.99191C 0 5.42684 0.45808 4.96876 1.02315 4.96876L 1.36468 4.96876C 2.11837 4.96876 2.72935 4.35778 2.72935 3.60408L 2.72935 2.92567C 2.72935 2.92567 2.72935 2.92567 2.72935 2.92567C 2.72935 1.31264 4.14851 0 5.89244 0C 5.89244 0 5.89244 0 5.89244 0L 6.97685 0C 7.54192 0 8 0.45808 8 1.02315L 8 1.02315C 8 1.58822 7.54192 2.0463 6.97685 2.0463L 5.89244 2.0463C 5.89244 2.0463 5.89244 2.0463 5.89244 2.0463C 5.36849 2.0463 4.94171 2.44105 4.94171 2.92567C 4.94171 2.92567 4.94171 2.92567 4.94171 2.92567L 4.94171 3.49444C 4.94171 4.30868 5.60178 4.96876 6.41603 4.96876L 6.8672 4.96876C 7.43227 4.96876 7.89035 5.42684 7.89035 5.99191L 7.89035 5.99191C 7.89035 6.55698 7.43227 7.01506 6.8672 7.01506L 6.41603 7.01506C 5.60178 7.01506 4.94171 7.67514 4.94171 8.48939L 4.94171 13.8938C 4.94171 14.5047 4.44646 15 3.83553 15L 3.83553 15Z"/>
</defs>
</svg>
