<svg width="31" height="19" viewBox="0 0 31 19" version="1.1" xmlns="http://www.w3.org/2000/svg" xmlns:xlink="http://www.w3.org/1999/xlink">
<title>Fill 1</title>
<desc>Created using Figma</desc>
<g id="Canvas" transform="translate(-65574 6232)">
<g id="Fill 1">
<use xlink:href="#path0_fill" transform="translate(65574 -6232)" fill="#330099"/>
</g>
</g>
<defs>
<path id="path0_fill" fill-rule="evenodd" d="M 29.5313 1.26442C 29.7407 0.535004 29.5313 0 28.5318 0L 25.2256 0C 24.3835 0 23.9956 0.463378 23.7861 0.97207C 23.7861 0.97207 22.1049 5.23456 19.7222 8.00313C 18.9519 8.80418 18.6018 9.05998 18.1815 9.05998C 17.9707 9.05998 17.667 8.80418 17.667 8.07622L 17.667 1.26442C 17.667 0.39029 17.4224 0 16.7224 0L 11.5255 0C 11.0011 0 10.6848 0.406369 10.6848 0.790812C 10.6848 1.61963 11.8755 1.81112 11.9978 4.14263L 11.9978 9.20616C 11.9978 10.3156 11.8052 10.5174 11.3849 10.5174C 10.2645 10.5174 7.53744 6.23587 5.92087 1.33751C 5.60318 0.384443 5.28549 0 4.44065 0L 1.13441 0C 0.188366 0 0 0.463378 0 0.97207C 0 1.88275 1.12176 6.40104 5.21942 12.3753C 7.95213 16.455 11.8024 18.6667 15.3054 18.6667C 17.407 18.6667 17.667 18.1741 17.667 17.3292L 17.667 14.2448C 17.667 13.2625 17.8666 13.0667 18.5315 13.0667C 19.0221 13.0667 19.8628 13.3225 21.8251 15.2885C 24.0658 17.62 24.4355 18.6667 25.6965 18.6667L 29.0041 18.6667C 29.9488 18.6667 30.4211 18.1741 30.1484 17.2049C 29.8504 16.2401 28.7792 14.8383 27.3594 13.1763C 26.5891 12.2291 25.4322 11.2088 25.0822 10.6986C 24.5916 10.0437 24.7322 9.7514 25.0822 9.16962C 25.0822 9.16962 29.111 3.26849 29.5313 1.26442"/>
</defs>
</svg>
