<?xml version="1.0" encoding="utf-8"?>
<!-- Generator: Adobe Illustrator 20.1.0, SVG Export Plug-In . SVG Version: 6.00 Build 0)  -->
<svg version="1.1" id="Слой_1" xmlns="http://www.w3.org/2000/svg" xmlns:xlink="http://www.w3.org/1999/xlink" x="0px" y="0px"
	 viewBox="0 0 57 57" style="enable-background:new 0 0 57 57;" xml:space="preserve">
<style type="text/css">
	.st0{fill:#FFFFFF;}
</style>
<title>volume</title>
<desc>Created with Sketch.</desc>
<g>
	<path class="st0" d="M28.5,0C12.8,0,0,12.8,0,28.5S12.8,57,28.5,57S57,44.2,57,28.5S44.2,0,28.5,0z M28.5,56C13.3,56,1,43.7,1,28.5
		S13.3,1,28.5,1S56,13.3,56,28.5S43.7,56,28.5,56z"/>
	<path class="st0" d="M39.5,40.6l-0.8-0.8l0.2-0.2c6.7-6.7,6.7-17.5,0-24.2l-0.2-0.2l0.8-0.8l0.2,0.2c7.1,7.1,7.1,18.7,0,25.8
		L39.5,40.6z"/>
	<path class="st0" d="M36.5,37.8l-0.7-0.7l0.2-0.2c5.2-5.2,5.2-13.6,0-18.8l-0.2-0.2l0.7-0.7l0.2,0.2c2.7,2.7,4.2,6.3,4.2,10.1
		s-1.5,7.4-4.2,10.1L36.5,37.8z"/>
	<path class="st0" d="M33,36.1l-0.6-0.6l0.2-0.2c4-4,4-10.6,0-14.7l-0.2-0.2l0.6-0.6l0.2,0.2c4.4,4.4,4.4,11.5,0,15.9L33,36.1z"/>
	<path class="st0" d="M22.5,22.3h-8v12.5h8l7,6.8v-26 M23.6,32.2H23h-5.9v-7.5H23h0.5l0.4-0.4l3-2.9v13.9l-3-2.9L23.6,32.2z"/>
</g>
</svg>
