<svg width="17" height="10" viewBox="0 0 17 10" version="1.1" xmlns="http://www.w3.org/2000/svg" xmlns:xlink="http://www.w3.org/1999/xlink">
<title>Fill 1</title>
<desc>Created using Figma</desc>
<g id="Canvas" transform="translate(-17501 15922)">
<g id="Fill 1">
<use xlink:href="#path0_fill" transform="translate(17501 -15922)" fill="#494949"/>
</g>
</g>
<defs>
<path id="path0_fill" fill-rule="evenodd" d="M 16.6098 0.677369C 16.7276 0.286609 16.6098 0 16.0477 0L 14.1881 0C 13.7145 0 13.4963 0.248238 13.3785 0.520752C 13.3785 0.520752 12.4328 2.80423 11.0927 4.28739C 10.6594 4.71652 10.4626 4.85356 10.2262 4.85356C 10.1076 4.85356 9.93679 4.71652 9.93679 4.32655L 9.93679 0.677369C 9.93679 0.209084 9.79922 0 9.40548 0L 6.48247 0C 6.18756 0 6.00967 0.217698 6.00967 0.423649C 6.00967 0.867659 6.67934 0.970243 6.74813 2.21926L 6.74813 4.93187C 6.74813 5.52623 6.63981 5.6343 6.40341 5.6343C 5.77327 5.6343 4.23942 3.34064 3.33018 0.716523C 3.1515 0.205951 2.97281 0 2.49764 0L 0.638048 0C 0.105946 0 0 0.248238 0 0.520752C 0 1.00861 0.630932 3.42913 2.93565 6.6296C 4.47266 8.81519 6.63823 10 8.60851 10C 9.79052 10 9.93679 9.7361 9.93679 9.28348L 9.93679 7.63117C 9.93679 7.10493 10.0491 7 10.423 7C 10.699 7 11.1718 7.13704 12.2755 8.19029C 13.5358 9.43931 13.7437 10 14.4529 10L 16.3133 10C 16.8446 10 17.1103 9.7361 16.9569 9.21691C 16.7893 8.70008 16.1868 7.9491 15.3883 7.05873C 14.955 6.55129 14.3043 6.0047 14.1074 5.7314C 13.8315 5.38058 13.9106 5.22396 14.1074 4.91229C 14.1074 4.91229 16.3734 1.75098 16.6098 0.677369Z"/>
</defs>
</svg>
