<?xml version="1.0" encoding="utf-8"?>
<!-- Generator: Adobe Illustrator 20.1.0, SVG Export Plug-In . SVG Version: 6.00 Build 0)  -->
<svg version="1.1" id="Слой_1" xmlns="http://www.w3.org/2000/svg" xmlns:xlink="http://www.w3.org/1999/xlink" x="0px" y="0px"
	 viewBox="0 0 57 57" style="enable-background:new 0 0 57 57;" xml:space="preserve">
<style type="text/css">
	.st0{fill:#FFFFFF;}
</style>
<path class="st0" d="M28.5,0C12.8,0,0,12.8,0,28.5S12.8,57,28.5,57S57,44.2,57,28.5S44.2,0,28.5,0z M28.5,56C13.3,56,1,43.7,1,28.5
	S13.3,1,28.5,1S56,13.3,56,28.5S43.7,56,28.5,56z"/>
<path class="st0" d="M22,22.2h-6.5h-1.2v1.2v10v1.2h1.2H22l4.6,4.6l2.1,2.1v-3v-20v-3l-2.1,2.1L22,22.2z M23,32.2h-6.3v-7.5H23
	l3.2-3.2v14L23,32.2z"/>
<polygon class="st0" points="38.8,28 42.4,24.4 43.3,23.5 41.5,21.7 40.6,22.6 37,26.2 33.4,22.6 32.5,21.7 30.7,23.5 31.6,24.4 
	35.2,28 31.6,31.6 30.7,32.5 32.5,34.3 33.4,33.4 37,29.8 40.6,33.4 41.5,34.3 43.3,32.5 42.4,31.6 "/>
</svg>
