<svg width="58" height="58" viewBox="0 0 58 58" version="1.1" xmlns="http://www.w3.org/2000/svg" xmlns:xlink="http://www.w3.org/1999/xlink">
<title>Group 4</title>
<desc>Created using Figma</desc>
<g id="Canvas" transform="translate(-16021 -485)">
<g id="Group 4">
<g id="Group">
<g id="Oval 2">
<mask id="mask0_outline_ins">
<use xlink:href="#path0_fill" fill="white" transform="translate(16021 485)"/>
</mask>
<g mask="url(#mask0_outline_ins)">
<use xlink:href="#path1_stroke_2x" transform="translate(16021 485)" fill="#4A4A4A"/>
</g>
</g>
<g id="Rectangle 8">
<use xlink:href="#path2_fill" transform="translate(16048 500)" fill="#4A4A4A"/>
</g>
</g>
<g id="Rectangle 8 Copy">
<use xlink:href="#path3_fill" transform="translate(16048 523)" fill="#4A4A4A"/>
</g>
</g>
</g>
<defs>
<path id="path0_fill" fill-rule="evenodd" d="M 29 58C 45.0163 58 58 45.0163 58 29C 58 12.9837 45.0163 0 29 0C 12.9837 0 0 12.9837 0 29C 0 45.0163 12.9837 58 29 58Z"/>
<path id="path1_stroke_2x" d="M 29 60C 46.1208 60 60 46.1208 60 29L 56 29C 56 43.9117 43.9117 56 29 56L 29 60ZM 60 29C 60 11.8792 46.1208 -2 29 -2L 29 2C 43.9117 2 56 14.0883 56 29L 60 29ZM 29 -2C 11.8792 -2 -2 11.8792 -2 29L 2 29C 2 14.0883 14.0883 2 29 2L 29 -2ZM -2 29C -2 46.1208 11.8792 60 29 60L 29 56C 14.0883 56 2 43.9117 2 29L -2 29Z"/>
<path id="path2_fill" fill-rule="evenodd" d="M 0 0L 4 0L 4 20L 0 20L 0 0Z"/>
<path id="path3_fill" fill-rule="evenodd" d="M 0 0L 4 0L 4 4L 0 4L 0 0Z"/>
</defs>
</svg>
