<svg width="41" height="30" viewBox="0 0 41 30" version="1.1" xmlns="http://www.w3.org/2000/svg" xmlns:xlink="http://www.w3.org/1999/xlink">
<title>noun_749185_cc</title>
<desc>Created using Figma</desc>
<g id="Canvas" transform="translate(-18492 2710)">
<g id="noun_749185_cc">
<g id="Shape">
<use xlink:href="#path0_fill" transform="translate(18492 -2709.19)" fill="#FFFFFF"/>
</g>
</g>
</g>
<defs>
<path id="path0_fill" fill-rule="evenodd" d="M 0 28.3767L 27.4883 28.3767L 27.4922 24.5022C 27.4941 23.6882 27.1328 22.916 26.5059 22.3965C 24.0137 20.3938 21.3145 18.665 18.4531 17.2402C 18.3652 17.1987 18.3105 17.1116 18.3105 17.0156L 18.3105 14.4062C 18.6992 13.7471 18.9648 13.022 19.0938 12.2673C 19.377 12.2463 19.793 11.8262 20.209 10.3279C 20.7656 8.35107 20.2129 8.00171 19.7051 8.02246C 20.9707 2.19629 17.7109 2.19629 17.7109 2.19629C 17.4336 0.985107 15.7012 -0.275879 14.1035 0.0529785C 12.5059 0.381836 9.17578 0.00708008 9.17578 0.00708008C 9.17773 0.46582 9.37891 0.900879 9.73047 1.19751C 6.81641 2.97437 7.48633 6.88623 7.74805 8.01001C 7.25391 8.00586 6.74219 8.38867 7.28711 10.3154C 7.71094 11.8096 8.10352 12.2297 8.40234 12.2546C 8.53125 13.0095 8.79492 13.7346 9.18555 14.3938L 9.18555 17.0032C 9.18359 17.0989 9.12891 17.1863 9.04297 17.2278C 6.17969 18.6562 3.47852 20.3892 0.986328 22.3965C 0.359375 22.916 -0.00195312 23.6882 0 24.5022L 0 28.3767ZM 26.2852 19.2253L 26.2852 17.6772C 22.1641 17.7146 20.9492 15.946 20.9492 15.946C 20.9492 15.946 23.2969 15.9001 23.1504 9.70361C 23.0078 3.60303 25.7715 2.52856 26.875 2.09937L 26.9258 2.07959C 30.0254 0.901855 31.582 2.77466 31.582 2.77466C 35.1953 2.44165 36.1855 6.36597 35.7441 10.8398C 35.3027 15.3135 37.7578 16.0085 37.7578 16.0085C 36.0723 17.7314 32.5137 17.623 32.5137 17.623L 32.5137 18.0393L 32.5137 19.2461C 32.5137 19.5554 32.6699 19.8438 32.9297 20.012L 33.0391 20.0618C 34.0625 20.6064 36.0312 21.1685 36.6855 21.355L 36.9004 21.4185C 37.7402 21.6462 38.5547 21.9543 39.3359 22.3381C 40.2676 22.7744 40.9004 23.6697 41 24.6936L 41 28.335L 29.3555 28.335L 29.3555 24.4814C 29.3652 23.0967 28.7559 21.7803 27.6914 20.894C 27.1797 20.4739 26.6621 20.0742 26.1504 19.6956C 26.2383 19.554 26.2832 19.3914 26.2852 19.2253Z"/>
</defs>
</svg>
