<?xml version="1.0" encoding="UTF-8"?>
<svg width="591px" height="520px" viewBox="0 0 591 520" version="1.1" xmlns="http://www.w3.org/2000/svg" xmlns:xlink="http://www.w3.org/1999/xlink">
    <!-- Generator: Sketch 47.1 (45422) - http://www.bohemiancoding.com/sketch -->
    <title>1_triangle_pattern_right</title>
    <desc>Created with Sketch.</desc>
    <defs></defs>
    <g id="-" stroke="none" stroke-width="1" fill="none" fill-rule="evenodd" opacity="0.592561141">
        <g id="1-1-Desktop-#1" transform="translate(-656.000000, -1321.000000)" fill="#FFFFFF">
            <g id="Group-35-Copy-2" transform="translate(952.000000, 1581.000000) scale(1, -1) translate(-952.000000, -1581.000000) translate(654.000000, 1230.000000)">
                <polygon id="Rectangle-5-Copy-39" transform="translate(112.000000, 257.000000) scale(-1, 1) rotate(-188.000000) translate(-112.000000, -257.000000) " points="120 249 120 265 104 265"></polygon>
                <polygon id="Rectangle-5-Copy-23" transform="translate(49.035529, 245.035529) scale(-1, -1) rotate(-188.000000) translate(-49.035529, -245.035529) " points="57.0355294 237.035529 57.0355294 253.035529 41.0355294 253.035529"></polygon>
                <polygon id="Rectangle-5-Copy-40" transform="translate(44.000000, 465.000000) scale(-1, -1) rotate(-188.000000) translate(-44.000000, -465.000000) " points="52 457 52 473 36 473"></polygon>
                <polygon id="Rectangle-5-Copy-24" transform="translate(246.035529, 217.035529) scale(1, -1) rotate(-188.000000) translate(-246.035529, -217.035529) " points="254.035529 209.035529 254.035529 225.035529 238.035529 225.035529"></polygon>
                <polygon id="Rectangle-5-Copy-42" transform="translate(241.000000, 437.000000) scale(1, -1) rotate(-188.000000) translate(-241.000000, -437.000000) " points="249 429 249 445 233 445"></polygon>
                <polygon id="Rectangle-5-Copy-43" transform="translate(9.035529, 329.035529) scale(-1, -1) rotate(-188.000000) translate(-9.035529, -329.035529) " points="17.0355294 321.035529 17.0355294 337.035529 1.03552936 337.035529"></polygon>
                <polygon id="Rectangle-5-Copy-25" transform="translate(497.035529, 237.035529) scale(1, -1) rotate(-188.000000) translate(-497.035529, -237.035529) " points="505.035529 229.035529 505.035529 245.035529 489.035529 245.035529"></polygon>
                <polygon id="Rectangle-5-Copy-44" transform="translate(492.000000, 457.000000) scale(1, -1) rotate(-188.000000) translate(-492.000000, -457.000000) " points="500 449 500 465 484 465"></polygon>
                <polygon id="Rectangle-5-Copy-45" transform="translate(212.000000, 260.000000) scale(1, -1) rotate(-188.000000) translate(-212.000000, -260.000000) " points="220 252 220 268 204 268"></polygon>
                <polygon id="Rectangle-5-Copy-46" transform="translate(144.000000, 468.000000) scale(1, -1) rotate(-188.000000) translate(-144.000000, -468.000000) " points="152 460 152 476 136 476"></polygon>
                <polygon id="Rectangle-5-Copy-5" transform="translate(169.035529, 149.035529) scale(-1, -1) rotate(-188.000000) translate(-169.035529, -149.035529) " points="177.035529 141.035529 177.035529 157.035529 161.035529 157.035529"></polygon>
                <polygon id="Rectangle-5-Copy-47" transform="translate(164.000000, 369.000000) scale(-1, -1) rotate(-188.000000) translate(-164.000000, -369.000000) " points="172 361 172 377 156 377"></polygon>
                <polygon id="Rectangle-5-Copy-48" transform="translate(58.035529, 558.035529) scale(-1, -1) rotate(-188.000000) translate(-58.035529, -558.035529) " points="66.0355294 550.035529 66.0355294 566.035529 50.0355294 566.035529"></polygon>
                <polygon id="Rectangle-5-Copy-17" transform="translate(366.035529, 121.035529) scale(1, -1) rotate(-188.000000) translate(-366.035529, -121.035529) " points="374.035529 113.035529 374.035529 129.035529 358.035529 129.035529"></polygon>
                <polygon id="Rectangle-5-Copy-49" transform="translate(361.000000, 341.000000) scale(1, -1) rotate(-188.000000) translate(-361.000000, -341.000000) " points="369 333 369 349 353 349"></polygon>
                <polygon id="Rectangle-5-Copy-28" transform="translate(209.035529, 320.035529) scale(1, -1) rotate(-188.000000) translate(-209.035529, -320.035529) " points="217.035529 312.035529 217.035529 328.035529 201.035529 328.035529"></polygon>
                <polygon id="Rectangle-5-Copy-50" transform="translate(293.000000, 549.000000) scale(1, -1) rotate(-188.000000) translate(-293.000000, -549.000000) " points="301 541 301 557 285 557"></polygon>
                <polygon id="Rectangle-5-Copy-12" transform="translate(72.035529, 180.035529) scale(-1, -1) rotate(-188.000000) translate(-72.035529, -180.035529) " points="80.0355294 172.035529 80.0355294 188.035529 64.0355294 188.035529"></polygon>
                <polygon id="Rectangle-5-Copy-51" transform="translate(67.000000, 400.000000) scale(-1, -1) rotate(-188.000000) translate(-67.000000, -400.000000) " points="75 392 75 408 59 408"></polygon>
                <polygon id="Rectangle-5-Copy-29" transform="translate(509.035529, 329.035529) scale(1, -1) rotate(-188.000000) translate(-509.035529, -329.035529) " points="517.035529 321.035529 517.035529 337.035529 501.035529 337.035529"></polygon>
                <polygon id="Rectangle-5-Copy-52" transform="translate(504.000000, 549.000000) scale(1, -1) rotate(-188.000000) translate(-504.000000, -549.000000) " points="512 541 512 557 496 557"></polygon>
                <polygon id="Rectangle-5-Copy-18" transform="translate(269.035529, 152.035529) scale(1, -1) rotate(-188.000000) translate(-269.035529, -152.035529) " points="277.035529 144.035529 277.035529 160.035529 261.035529 160.035529"></polygon>
                <polygon id="Rectangle-5-Copy-53" transform="translate(264.000000, 372.000000) scale(1, -1) rotate(-188.000000) translate(-264.000000, -372.000000) " points="272 364 272 380 256 380"></polygon>
                <polygon id="Rectangle-5-Copy-54" transform="translate(196.000000, 580.000000) scale(1, -1) rotate(-188.000000) translate(-196.000000, -580.000000) " points="204 572 204 588 188 588"></polygon>
                <polygon id="Rectangle-5-Copy-55" transform="translate(295.000000, 289.000000) scale(-1, -1) rotate(-188.000000) translate(-295.000000, -289.000000) " points="303 281 303 297 287 297"></polygon>
                <polygon id="Rectangle-5-Copy-56" transform="translate(227.000000, 497.000000) scale(-1, -1) rotate(-188.000000) translate(-227.000000, -497.000000) " points="235 489 235 505 219 505"></polygon>
                <polygon id="Rectangle-5-Copy-32" transform="translate(429.035529, 249.035529) scale(1, -1) rotate(-188.000000) translate(-429.035529, -249.035529) " points="437.035529 241.035529 437.035529 257.035529 421.035529 257.035529"></polygon>
                <polygon id="Rectangle-5-Copy-58" transform="translate(424.000000, 469.000000) scale(1, -1) rotate(-188.000000) translate(-424.000000, -469.000000) " points="432 461 432 477 416 477"></polygon>
                <polygon id="Rectangle-5-Copy-13" transform="translate(203.035529, 100.035529) scale(-1, -1) rotate(-188.000000) translate(-203.035529, -100.035529) " points="211.035529 92.0355294 211.035529 108.035529 195.035529 108.035529"></polygon>
                <polygon id="Rectangle-5-Copy-60" transform="translate(130.000000, 528.000000) scale(-1, -1) rotate(-188.000000) translate(-130.000000, -528.000000) " points="138 520 138 536 122 536"></polygon>
                <polygon id="Rectangle-5-Copy-61" transform="translate(395.000000, 292.000000) scale(1, -1) rotate(-188.000000) translate(-395.000000, -292.000000) " points="403 284 403 300 387 300"></polygon>
                <polygon id="Rectangle-5-Copy-62" transform="translate(327.000000, 500.000000) scale(1, -1) rotate(-188.000000) translate(-327.000000, -500.000000) " points="335 492 335 508 319 508"></polygon>
                <polygon id="Rectangle-5-Copy-10" transform="translate(434.035529, 170.035529) scale(-1, 1) rotate(-188.000000) translate(-434.035529, -170.035529) " points="442.035529 162.035529 442.035529 178.035529 426.035529 178.035529"></polygon>
                <polygon id="Rectangle-5-Copy-63" transform="translate(429.000000, 390.000000) scale(-1, 1) rotate(-188.000000) translate(-429.000000, -390.000000) " points="437 382 437 398 421 398"></polygon>
                <polygon id="Rectangle-5-Copy-64" transform="translate(361.000000, 598.000000) scale(-1, -1) rotate(-188.000000) translate(-361.000000, -598.000000) " points="369 590 369 606 353 606"></polygon>
                <polygon id="Rectangle-5-Copy-21" transform="translate(109.035529, 109.035529) rotate(-188.000000) translate(-109.035529, -109.035529) " points="117.035529 101.035529 117.035529 117.035529 101.035529 117.035529"></polygon>
                <polygon id="Rectangle-5-Copy-65" transform="translate(104.000000, 329.000000) rotate(-188.000000) translate(-104.000000, -329.000000) " points="112 321 112 337 96 337"></polygon>
                <polygon id="Rectangle-5-Copy-36" transform="translate(586.035529, 278.035529) scale(1, -1) rotate(-188.000000) translate(-586.035529, -278.035529) " points="594.035529 270.035529 594.035529 286.035529 578.035529 286.035529"></polygon>
                <polygon id="Rectangle-5-Copy-66" transform="translate(581.000000, 498.000000) scale(1, -1) rotate(-188.000000) translate(-581.000000, -498.000000) " points="589 490 589 506 573 506"></polygon>
                <polygon id="Rectangle-5-Copy-14" transform="translate(337.035529, 201.035529) scale(-1, -1) rotate(-188.000000) translate(-337.035529, -201.035529) " points="345.035529 193.035529 345.035529 209.035529 329.035529 209.035529"></polygon>
                <polygon id="Rectangle-5-Copy-67" transform="translate(332.000000, 421.000000) scale(-1, -1) rotate(-188.000000) translate(-332.000000, -421.000000) " points="340 413 340 429 324 429"></polygon>
                <polygon id="Rectangle-5-Copy-68" transform="translate(400.035529, 538.035529) scale(-1, -1) rotate(-188.000000) translate(-400.035529, -538.035529) " points="408.035529 530.035529 408.035529 546.035529 392.035529 546.035529"></polygon>
                <polygon id="Rectangle-5-Copy-22" transform="translate(534.035529, 173.035529) scale(1, -1) rotate(-188.000000) translate(-534.035529, -173.035529) " points="542.035529 165.035529 542.035529 181.035529 526.035529 181.035529"></polygon>
                <polygon id="Rectangle-5-Copy-69" transform="translate(529.000000, 393.000000) scale(1, -1) rotate(-188.000000) translate(-529.000000, -393.000000) " points="537 385 537 401 521 401"></polygon>
                <polygon id="Rectangle-5-Copy-70" transform="translate(461.000000, 601.000000) scale(1, -1) rotate(-188.000000) translate(-461.000000, -601.000000) " points="469 593 469 609 453 609"></polygon>
            </g>
        </g>
    </g>
</svg>