<?xml version="1.0" encoding="UTF-8"?>
<svg width="586px" height="611px" viewBox="0 0 586 611" version="1.1" xmlns="http://www.w3.org/2000/svg" xmlns:xlink="http://www.w3.org/1999/xlink">
    <!-- Generator: Sketch 47.1 (45422) - http://www.bohemiancoding.com/sketch -->
    <title>1_triangle_pattern_left</title>
    <desc>Created with Sketch.</desc>
    <defs></defs>
    <g id="-" stroke="none" stroke-width="1" fill="none" fill-rule="evenodd" opacity="0.592561141">
        <g id="1-1-Desktop-#1" transform="translate(-60.000000, -1225.000000)" fill="#FFFFFF">
            <g id="Group-35-Copy" transform="translate(42.000000, 1225.000000)">
                <polygon id="Rectangle-5-Copy-2" transform="translate(111.035529, 37.035529) scale(-1, 1) rotate(-188.000000) translate(-111.035529, -37.035529) " points="119.035529 29.0355294 119.035529 45.0355294 103.035529 45.0355294"></polygon>
                <polygon id="Rectangle-5-Copy-39" transform="translate(128.000000, 257.000000) scale(-1, 1) rotate(-188.000000) translate(-128.000000, -257.000000) " points="136 249 136 265 120 265"></polygon>
                <polygon id="Rectangle-5-Copy-23" transform="translate(65.035529, 245.035529) scale(-1, -1) rotate(-188.000000) translate(-65.035529, -245.035529) " points="73.0355294 237.035529 73.0355294 253.035529 57.0355294 253.035529"></polygon>
                <polygon id="Rectangle-5-Copy-40" transform="translate(60.000000, 465.000000) scale(-1, -1) rotate(-188.000000) translate(-60.000000, -465.000000) " points="68 457 68 473 52 473"></polygon>
                <polygon id="Rectangle-5-Copy-15" transform="translate(330.035529, 9.035529) rotate(-188.000000) translate(-330.035529, -9.035529) " points="338.035529 1.03552936 338.035529 17.0355294 322.035529 17.0355294"></polygon>
                <polygon id="Rectangle-5-Copy-24" transform="translate(240.035529, 217.035529) scale(1, -1) rotate(-188.000000) translate(-240.035529, -217.035529) " points="248.035529 209.035529 248.035529 225.035529 232.035529 225.035529"></polygon>
                <polygon id="Rectangle-5-Copy-42" transform="translate(235.000000, 437.000000) scale(1, -1) rotate(-188.000000) translate(-235.000000, -437.000000) " points="243 429 243 445 227 445"></polygon>
                <polygon id="Rectangle-5-Copy-11" transform="translate(36.035529, 68.035529) scale(-1, -1) rotate(-188.000000) translate(-36.035529, -68.035529) " points="44.0355294 60.0355294 44.0355294 76.0355294 28.0355294 76.0355294"></polygon>
                <polygon id="Rectangle-5-Copy-43" transform="translate(25.035529, 329.035529) scale(-1, -1) rotate(-188.000000) translate(-25.035529, -329.035529) " points="33.0355294 321.035529 33.0355294 337.035529 17.0355294 337.035529"></polygon>
                <polygon id="Rectangle-5-Copy-25" transform="translate(491.035529, 237.035529) scale(1, -1) rotate(-188.000000) translate(-491.035529, -237.035529) " points="499.035529 229.035529 499.035529 245.035529 483.035529 245.035529"></polygon>
                <polygon id="Rectangle-5-Copy-44" transform="translate(486.000000, 457.000000) scale(1, -1) rotate(-188.000000) translate(-486.000000, -457.000000) " points="494 449 494 465 478 465"></polygon>
                <polygon id="Rectangle-5-Copy-16" transform="translate(233.035529, 40.035529) scale(1, -1) rotate(-188.000000) translate(-233.035529, -40.035529) " points="241.035529 32.0355294 241.035529 48.0355294 225.035529 48.0355294"></polygon>
                <polygon id="Rectangle-5-Copy-45" transform="translate(228.000000, 260.000000) scale(1, -1) rotate(-188.000000) translate(-228.000000, -260.000000) " points="236 252 236 268 220 268"></polygon>
                <polygon id="Rectangle-5-Copy-46" transform="translate(160.000000, 468.000000) scale(1, -1) rotate(-188.000000) translate(-160.000000, -468.000000) " points="168 460 168 476 152 476"></polygon>
                <polygon id="Rectangle-5-Copy-5" transform="translate(185.035529, 149.035529) scale(-1, -1) rotate(-188.000000) translate(-185.035529, -149.035529) " points="193.035529 141.035529 193.035529 157.035529 177.035529 157.035529"></polygon>
                <polygon id="Rectangle-5-Copy-47" transform="translate(180.000000, 369.000000) scale(-1, -1) rotate(-188.000000) translate(-180.000000, -369.000000) " points="188 361 188 377 172 377"></polygon>
                <polygon id="Rectangle-5-Copy-48" transform="translate(74.035529, 558.035529) scale(-1, -1) rotate(-188.000000) translate(-74.035529, -558.035529) " points="82.0355294 550.035529 82.0355294 566.035529 66.0355294 566.035529"></polygon>
                <polygon id="Rectangle-5-Copy-17" transform="translate(360.035529, 121.035529) scale(1, -1) rotate(-188.000000) translate(-360.035529, -121.035529) " points="368.035529 113.035529 368.035529 129.035529 352.035529 129.035529"></polygon>
                <polygon id="Rectangle-5-Copy-49" transform="translate(355.000000, 341.000000) scale(1, -1) rotate(-188.000000) translate(-355.000000, -341.000000) " points="363 333 363 349 347 349"></polygon>
                <polygon id="Rectangle-5-Copy-28" transform="translate(225.035529, 320.035529) scale(1, -1) rotate(-188.000000) translate(-225.035529, -320.035529) " points="233.035529 312.035529 233.035529 328.035529 217.035529 328.035529"></polygon>
                <polygon id="Rectangle-5-Copy-50" transform="translate(309.000000, 549.000000) scale(1, -1) rotate(-188.000000) translate(-309.000000, -549.000000) " points="317 541 317 557 301 557"></polygon>
                <polygon id="Rectangle-5-Copy-12" transform="translate(88.035529, 180.035529) scale(-1, -1) rotate(-188.000000) translate(-88.035529, -180.035529) " points="96.0355294 172.035529 96.0355294 188.035529 80.0355294 188.035529"></polygon>
                <polygon id="Rectangle-5-Copy-51" transform="translate(83.000000, 400.000000) scale(-1, -1) rotate(-188.000000) translate(-83.000000, -400.000000) " points="91 392 91 408 75 408"></polygon>
                <polygon id="Rectangle-5-Copy-29" transform="translate(503.035529, 329.035529) scale(1, -1) rotate(-188.000000) translate(-503.035529, -329.035529) " points="511.035529 321.035529 511.035529 337.035529 495.035529 337.035529"></polygon>
                <polygon id="Rectangle-5-Copy-52" transform="translate(520.000000, 549.000000) scale(1, -1) rotate(-188.000000) translate(-520.000000, -549.000000) " points="528 541 528 557 512 557"></polygon>
                <polygon id="Rectangle-5-Copy-18" transform="translate(263.035529, 152.035529) scale(1, -1) rotate(-188.000000) translate(-263.035529, -152.035529) " points="271.035529 144.035529 271.035529 160.035529 255.035529 160.035529"></polygon>
                <polygon id="Rectangle-5-Copy-53" transform="translate(258.000000, 372.000000) scale(1, -1) rotate(-188.000000) translate(-258.000000, -372.000000) " points="266 364 266 380 250 380"></polygon>
                <polygon id="Rectangle-5-Copy-54" transform="translate(212.000000, 580.000000) scale(1, -1) rotate(-188.000000) translate(-212.000000, -580.000000) " points="220 572 220 588 204 588"></polygon>
                <polygon id="Rectangle-5-Copy-9" transform="translate(316.035529, 69.035529) scale(-1, -1) rotate(-188.000000) translate(-316.035529, -69.035529) " points="324.035529 61.0355294 324.035529 77.0355294 308.035529 77.0355294"></polygon>
                <polygon id="Rectangle-5-Copy-55" transform="translate(289.000000, 289.000000) scale(-1, -1) rotate(-188.000000) translate(-289.000000, -289.000000) " points="297 281 297 297 281 297"></polygon>
                <polygon id="Rectangle-5-Copy-56" transform="translate(243.000000, 497.000000) scale(-1, -1) rotate(-188.000000) translate(-243.000000, -497.000000) " points="251 489 251 505 235 505"></polygon>
                <polygon id="Rectangle-5-Copy-19" transform="translate(513.035529, 41.035529) scale(1, -1) rotate(-188.000000) translate(-513.035529, -41.035529) " points="521.035529 33.0355294 521.035529 49.0355294 505.035529 49.0355294"></polygon>
                <polygon id="Rectangle-5-Copy-32" transform="translate(423.035529, 249.035529) scale(1, -1) rotate(-188.000000) translate(-423.035529, -249.035529) " points="431.035529 241.035529 431.035529 257.035529 415.035529 257.035529"></polygon>
                <polygon id="Rectangle-5-Copy-58" transform="translate(440.000000, 469.000000) scale(1, -1) rotate(-188.000000) translate(-440.000000, -469.000000) " points="448 461 448 477 432 477"></polygon>
                <polygon id="Rectangle-5-Copy-13" transform="translate(219.035529, 100.035529) scale(-1, -1) rotate(-188.000000) translate(-219.035529, -100.035529) " points="227.035529 92.0355294 227.035529 108.035529 211.035529 108.035529"></polygon>
                <polygon id="Rectangle-5-Copy-60" transform="translate(146.000000, 528.000000) scale(-1, -1) rotate(-188.000000) translate(-146.000000, -528.000000) " points="154 520 154 536 138 536"></polygon>
                <polygon id="Rectangle-5-Copy-20" transform="translate(416.035529, 72.035529) scale(1, -1) rotate(-188.000000) translate(-416.035529, -72.035529) " points="424.035529 64.0355294 424.035529 80.0355294 408.035529 80.0355294"></polygon>
                <polygon id="Rectangle-5-Copy-61" transform="translate(389.000000, 292.000000) scale(1, -1) rotate(-188.000000) translate(-389.000000, -292.000000) " points="397 284 397 300 381 300"></polygon>
                <polygon id="Rectangle-5-Copy-62" transform="translate(343.000000, 500.000000) scale(1, -1) rotate(-188.000000) translate(-343.000000, -500.000000) " points="351 492 351 508 335 508"></polygon>
                <polygon id="Rectangle-5-Copy-10" transform="translate(428.035529, 170.035529) scale(-1, 1) rotate(-188.000000) translate(-428.035529, -170.035529) " points="436.035529 162.035529 436.035529 178.035529 420.035529 178.035529"></polygon>
                <polygon id="Rectangle-5-Copy-63" transform="translate(423.000000, 390.000000) scale(-1, 1) rotate(-188.000000) translate(-423.000000, -390.000000) " points="431 382 431 398 415 398"></polygon>
                <polygon id="Rectangle-5-Copy-64" transform="translate(377.000000, 598.000000) scale(-1, -1) rotate(-188.000000) translate(-377.000000, -598.000000) " points="385 590 385 606 369 606"></polygon>
                <polygon id="Rectangle-5-Copy-21" transform="translate(125.035529, 109.035529) rotate(-188.000000) translate(-125.035529, -109.035529) " points="133.035529 101.035529 133.035529 117.035529 117.035529 117.035529"></polygon>
                <polygon id="Rectangle-5-Copy-65" transform="translate(120.000000, 329.000000) rotate(-188.000000) translate(-120.000000, -329.000000) " points="128 321 128 337 112 337"></polygon>
                <polygon id="Rectangle-5-Copy-36" transform="translate(580.035529, 278.035529) scale(1, -1) rotate(-188.000000) translate(-580.035529, -278.035529) " points="588.035529 270.035529 588.035529 286.035529 572.035529 286.035529"></polygon>
                <polygon id="Rectangle-5-Copy-66" transform="translate(597.000000, 498.000000) scale(1, -1) rotate(-188.000000) translate(-597.000000, -498.000000) " points="605 490 605 506 589 506"></polygon>
                <polygon id="Rectangle-5-Copy-14" transform="translate(331.035529, 201.035529) scale(-1, -1) rotate(-188.000000) translate(-331.035529, -201.035529) " points="339.035529 193.035529 339.035529 209.035529 323.035529 209.035529"></polygon>
                <polygon id="Rectangle-5-Copy-67" transform="translate(326.000000, 421.000000) scale(-1, -1) rotate(-188.000000) translate(-326.000000, -421.000000) " points="334 413 334 429 318 429"></polygon>
                <polygon id="Rectangle-5-Copy-68" transform="translate(416.035529, 538.035529) scale(-1, -1) rotate(-188.000000) translate(-416.035529, -538.035529) " points="424.035529 530.035529 424.035529 546.035529 408.035529 546.035529"></polygon>
                <polygon id="Rectangle-5-Copy-22" transform="translate(528.035529, 173.035529) scale(1, -1) rotate(-188.000000) translate(-528.035529, -173.035529) " points="536.035529 165.035529 536.035529 181.035529 520.035529 181.035529"></polygon>
                <polygon id="Rectangle-5-Copy-69" transform="translate(523.000000, 393.000000) scale(1, -1) rotate(-188.000000) translate(-523.000000, -393.000000) " points="531 385 531 401 515 401"></polygon>
                <polygon id="Rectangle-5-Copy-70" transform="translate(477.000000, 601.000000) scale(1, -1) rotate(-188.000000) translate(-477.000000, -601.000000) " points="485 593 485 609 469 609"></polygon>
            </g>
        </g>
    </g>
</svg>